%TF.GenerationSoftware,KiCad,Pcbnew,8.0.4*%
%TF.CreationDate,2024-08-27T21:56:15+09:00*%
%TF.ProjectId,MDC,4d44432e-6b69-4636-9164-5f7063625858,rev?*%
%TF.SameCoordinates,PX2faf080PY7b06240*%
%TF.FileFunction,Drillmap*%
%TF.FilePolarity,Positive*%
%FSLAX45Y45*%
G04 Gerber Fmt 4.5, Leading zero omitted, Abs format (unit mm)*
G04 Created by KiCad (PCBNEW 8.0.4) date 2024-08-27 21:56:15*
%MOMM*%
%LPD*%
G01*
G04 APERTURE LIST*
%ADD10C,0.050000*%
%ADD11C,0.200000*%
%ADD12C,0.100000*%
%ADD13C,0.102000*%
%ADD14C,0.320000*%
G04 APERTURE END LIST*
D10*
X0Y0D02*
X1700000Y0D01*
X0Y7900000D02*
X0Y0D01*
X10000000Y5650000D02*
X1700000Y5650000D01*
X0Y7900000D02*
X10000000Y7900000D01*
X10000000Y7900000D02*
X10000000Y5650000D01*
X1700000Y5650000D02*
X1700000Y0D01*
D11*
D12*
X85000Y7615000D02*
X115000Y7585000D01*
X115000Y7615000D02*
X85000Y7585000D01*
X135000Y5565000D02*
X165000Y5535000D01*
X165000Y5565000D02*
X135000Y5535000D01*
X135000Y215000D02*
X165000Y185000D01*
X165000Y215000D02*
X135000Y185000D01*
X185000Y2715000D02*
X215000Y2685000D01*
X215000Y2715000D02*
X185000Y2685000D01*
X285000Y7415000D02*
X315000Y7385000D01*
X315000Y7415000D02*
X285000Y7385000D01*
X335000Y7815000D02*
X365000Y7785000D01*
X365000Y7815000D02*
X335000Y7785000D01*
X635000Y865000D02*
X665000Y835000D01*
X665000Y865000D02*
X635000Y835000D01*
X785000Y5915000D02*
X815000Y5885000D01*
X815000Y5915000D02*
X785000Y5885000D01*
X835000Y665000D02*
X865000Y635000D01*
X865000Y665000D02*
X835000Y635000D01*
X885000Y7015000D02*
X915000Y6985000D01*
X915000Y7015000D02*
X885000Y6985000D01*
X935000Y4565000D02*
X965000Y4535000D01*
X965000Y4565000D02*
X935000Y4535000D01*
X1185000Y6865000D02*
X1215000Y6835000D01*
X1215000Y6865000D02*
X1185000Y6835000D01*
X1225000Y6755000D02*
X1255000Y6725000D01*
X1255000Y6755000D02*
X1225000Y6725000D01*
X1235000Y1615000D02*
X1265000Y1585000D01*
X1265000Y1615000D02*
X1235000Y1585000D01*
X1285000Y6675000D02*
X1315000Y6645000D01*
X1315000Y6675000D02*
X1285000Y6645000D01*
X1285000Y5165000D02*
X1315000Y5135000D01*
X1315000Y5165000D02*
X1285000Y5135000D01*
X1285000Y4165000D02*
X1315000Y4135000D01*
X1315000Y4165000D02*
X1285000Y4135000D01*
X1285000Y3365000D02*
X1315000Y3335000D01*
X1315000Y3365000D02*
X1285000Y3335000D01*
X1285000Y2115000D02*
X1315000Y2085000D01*
X1315000Y2115000D02*
X1285000Y2085000D01*
X1435000Y5665000D02*
X1465000Y5635000D01*
X1465000Y5665000D02*
X1435000Y5635000D01*
X1435000Y2715000D02*
X1465000Y2685000D01*
X1465000Y2715000D02*
X1435000Y2685000D01*
X1485000Y165000D02*
X1515000Y135000D01*
X1515000Y165000D02*
X1485000Y135000D01*
X1685000Y7565000D02*
X1715000Y7535000D01*
X1715000Y7565000D02*
X1685000Y7535000D01*
X1885000Y7415000D02*
X1915000Y7385000D01*
X1915000Y7415000D02*
X1885000Y7385000D01*
X2185000Y7065000D02*
X2215000Y7035000D01*
X2215000Y7065000D02*
X2185000Y7035000D01*
X2835000Y5865000D02*
X2865000Y5835000D01*
X2865000Y5865000D02*
X2835000Y5835000D01*
X3085000Y5965000D02*
X3115000Y5935000D01*
X3115000Y5965000D02*
X3085000Y5935000D01*
X3535000Y6715000D02*
X3565000Y6685000D01*
X3565000Y6715000D02*
X3535000Y6685000D01*
X3635000Y5965000D02*
X3665000Y5935000D01*
X3665000Y5965000D02*
X3635000Y5935000D01*
X3835000Y7815000D02*
X3865000Y7785000D01*
X3865000Y7815000D02*
X3835000Y7785000D01*
X4135000Y7731500D02*
X4165000Y7701500D01*
X4165000Y7731500D02*
X4135000Y7701500D01*
X4385000Y6478284D02*
X4415000Y6448284D01*
X4415000Y6478284D02*
X4385000Y6448284D01*
X4492590Y7807410D02*
X4522590Y7777410D01*
X4522590Y7807410D02*
X4492590Y7777410D01*
X4535000Y6815000D02*
X4565000Y6785000D01*
X4565000Y6815000D02*
X4535000Y6785000D01*
X4635000Y6475000D02*
X4665000Y6445000D01*
X4665000Y6475000D02*
X4635000Y6445000D01*
X4785000Y7731500D02*
X4815000Y7701500D01*
X4815000Y7731500D02*
X4785000Y7701500D01*
X4885000Y6415000D02*
X4915000Y6385000D01*
X4915000Y6415000D02*
X4885000Y6385000D01*
X5235000Y6355000D02*
X5265000Y6325000D01*
X5265000Y6355000D02*
X5235000Y6325000D01*
X5535000Y6315000D02*
X5565000Y6285000D01*
X5565000Y6315000D02*
X5535000Y6285000D01*
X5835000Y6275000D02*
X5865000Y6245000D01*
X5865000Y6275000D02*
X5835000Y6245000D01*
X5985000Y6465000D02*
X6015000Y6435000D01*
X6015000Y6465000D02*
X5985000Y6435000D01*
X6435000Y6765000D02*
X6465000Y6735000D01*
X6465000Y6765000D02*
X6435000Y6735000D01*
X6535000Y7315000D02*
X6565000Y7285000D01*
X6565000Y7315000D02*
X6535000Y7285000D01*
X6785000Y7115000D02*
X6815000Y7085000D01*
X6815000Y7115000D02*
X6785000Y7085000D01*
X6935000Y7415000D02*
X6965000Y7385000D01*
X6965000Y7415000D02*
X6935000Y7385000D01*
X7185000Y6815000D02*
X7215000Y6785000D01*
X7215000Y6815000D02*
X7185000Y6785000D01*
X7335000Y6215000D02*
X7365000Y6185000D01*
X7365000Y6215000D02*
X7335000Y6185000D01*
X7335000Y5865000D02*
X7365000Y5835000D01*
X7365000Y5865000D02*
X7335000Y5835000D01*
X7935000Y7565000D02*
X7965000Y7535000D01*
X7965000Y7565000D02*
X7935000Y7535000D01*
X7935000Y6865000D02*
X7965000Y6835000D01*
X7965000Y6865000D02*
X7935000Y6835000D01*
X7935000Y5965000D02*
X7965000Y5935000D01*
X7965000Y5965000D02*
X7935000Y5935000D01*
X7985000Y5765000D02*
X8015000Y5735000D01*
X8015000Y5765000D02*
X7985000Y5735000D01*
X8335000Y7815000D02*
X8365000Y7785000D01*
X8365000Y7815000D02*
X8335000Y7785000D01*
X8335000Y7215000D02*
X8365000Y7185000D01*
X8365000Y7215000D02*
X8335000Y7185000D01*
X8385000Y6165000D02*
X8415000Y6135000D01*
X8415000Y6165000D02*
X8385000Y6135000D01*
X8485000Y7815000D02*
X8515000Y7785000D01*
X8515000Y7815000D02*
X8485000Y7785000D01*
X8485000Y6615000D02*
X8515000Y6585000D01*
X8515000Y6615000D02*
X8485000Y6585000D01*
X8506200Y6751500D02*
X8536200Y6721500D01*
X8536200Y6751500D02*
X8506200Y6721500D01*
X8535000Y5815000D02*
X8565000Y5785000D01*
X8565000Y5815000D02*
X8535000Y5785000D01*
X8635000Y7815000D02*
X8665000Y7785000D01*
X8665000Y7815000D02*
X8635000Y7785000D01*
X8685000Y7365000D02*
X8715000Y7335000D01*
X8715000Y7365000D02*
X8685000Y7335000D01*
X8765000Y7005500D02*
X8795000Y6975500D01*
X8795000Y7005500D02*
X8765000Y6975500D01*
X8785000Y6865000D02*
X8815000Y6835000D01*
X8815000Y6865000D02*
X8785000Y6835000D01*
X8785000Y6465000D02*
X8815000Y6435000D01*
X8815000Y6465000D02*
X8785000Y6435000D01*
X8985000Y6165000D02*
X9015000Y6135000D01*
X9015000Y6165000D02*
X8985000Y6135000D01*
X9085000Y6815000D02*
X9115000Y6785000D01*
X9115000Y6815000D02*
X9085000Y6785000D01*
X9135000Y7265000D02*
X9165000Y7235000D01*
X9165000Y7265000D02*
X9135000Y7235000D01*
X9335000Y7015000D02*
X9365000Y6985000D01*
X9365000Y7015000D02*
X9335000Y6985000D01*
X9535000Y7815000D02*
X9565000Y7785000D01*
X9565000Y7815000D02*
X9535000Y7785000D01*
X9685000Y7465000D02*
X9715000Y7435000D01*
X9715000Y7465000D02*
X9685000Y7435000D01*
X9785000Y7165000D02*
X9815000Y7135000D01*
X9815000Y7165000D02*
X9785000Y7135000D01*
X9785000Y6815000D02*
X9815000Y6785000D01*
X9815000Y6815000D02*
X9785000Y6785000D01*
X9835000Y7815000D02*
X9865000Y7785000D01*
X9865000Y7815000D02*
X9835000Y7785000D01*
X9835000Y5815000D02*
X9865000Y5785000D01*
X9865000Y5815000D02*
X9835000Y5785000D01*
X347500Y7600000D02*
G75*
G02*
X252500Y7600000I-47500J0D01*
G01*
X252500Y7600000D02*
G75*
G02*
X347500Y7600000I47500J0D01*
G01*
X597500Y7600000D02*
G75*
G02*
X502500Y7600000I-47500J0D01*
G01*
X502500Y7600000D02*
G75*
G02*
X597500Y7600000I47500J0D01*
G01*
X847500Y7600000D02*
G75*
G02*
X752500Y7600000I-47500J0D01*
G01*
X752500Y7600000D02*
G75*
G02*
X847500Y7600000I47500J0D01*
G01*
X1097500Y7600000D02*
G75*
G02*
X1002500Y7600000I-47500J0D01*
G01*
X1002500Y7600000D02*
G75*
G02*
X1097500Y7600000I47500J0D01*
G01*
X1347500Y7600000D02*
G75*
G02*
X1252500Y7600000I-47500J0D01*
G01*
X1252500Y7600000D02*
G75*
G02*
X1347500Y7600000I47500J0D01*
G01*
X1747500Y6000000D02*
G75*
G02*
X1652500Y6000000I-47500J0D01*
G01*
X1652500Y6000000D02*
G75*
G02*
X1747500Y6000000I47500J0D01*
G01*
X1947500Y7602500D02*
G75*
G02*
X1852500Y7602500I-47500J0D01*
G01*
X1852500Y7602500D02*
G75*
G02*
X1947500Y7602500I47500J0D01*
G01*
X1997500Y6000000D02*
G75*
G02*
X1902500Y6000000I-47500J0D01*
G01*
X1902500Y6000000D02*
G75*
G02*
X1997500Y6000000I47500J0D01*
G01*
X2197500Y7602500D02*
G75*
G02*
X2102500Y7602500I-47500J0D01*
G01*
X2102500Y7602500D02*
G75*
G02*
X2197500Y7602500I47500J0D01*
G01*
X2247500Y6000000D02*
G75*
G02*
X2152500Y6000000I-47500J0D01*
G01*
X2152500Y6000000D02*
G75*
G02*
X2247500Y6000000I47500J0D01*
G01*
X2447500Y7602500D02*
G75*
G02*
X2352500Y7602500I-47500J0D01*
G01*
X2352500Y7602500D02*
G75*
G02*
X2447500Y7602500I47500J0D01*
G01*
X2497500Y6000000D02*
G75*
G02*
X2402500Y6000000I-47500J0D01*
G01*
X2402500Y6000000D02*
G75*
G02*
X2497500Y6000000I47500J0D01*
G01*
X2697500Y7602500D02*
G75*
G02*
X2602500Y7602500I-47500J0D01*
G01*
X2602500Y7602500D02*
G75*
G02*
X2697500Y7602500I47500J0D01*
G01*
X2747500Y6000000D02*
G75*
G02*
X2652500Y6000000I-47500J0D01*
G01*
X2652500Y6000000D02*
G75*
G02*
X2747500Y6000000I47500J0D01*
G01*
X2947500Y7602500D02*
G75*
G02*
X2852500Y7602500I-47500J0D01*
G01*
X2852500Y7602500D02*
G75*
G02*
X2947500Y7602500I47500J0D01*
G01*
X2997500Y6000000D02*
G75*
G02*
X2902500Y6000000I-47500J0D01*
G01*
X2902500Y6000000D02*
G75*
G02*
X2997500Y6000000I47500J0D01*
G01*
X8972500Y7602500D02*
G75*
G02*
X8877500Y7602500I-47500J0D01*
G01*
X8877500Y7602500D02*
G75*
G02*
X8972500Y7602500I47500J0D01*
G01*
X9222500Y7602500D02*
G75*
G02*
X9127500Y7602500I-47500J0D01*
G01*
X9127500Y7602500D02*
G75*
G02*
X9222500Y7602500I47500J0D01*
G01*
X9472500Y7602500D02*
G75*
G02*
X9377500Y7602500I-47500J0D01*
G01*
X9377500Y7602500D02*
G75*
G02*
X9472500Y7602500I47500J0D01*
G01*
X9722500Y7602500D02*
G75*
G02*
X9627500Y7602500I-47500J0D01*
G01*
X9627500Y7602500D02*
G75*
G02*
X9722500Y7602500I47500J0D01*
G01*
X850000Y5728000D02*
X850000Y5628000D01*
X800000Y5678000D02*
X900000Y5678000D01*
X850000Y5474000D02*
X850000Y5374000D01*
X800000Y5424000D02*
X900000Y5424000D01*
X850000Y5220000D02*
X850000Y5120000D01*
X800000Y5170000D02*
X900000Y5170000D01*
X850000Y4966000D02*
X850000Y4866000D01*
X800000Y4916000D02*
X900000Y4916000D01*
X850000Y4712000D02*
X850000Y4612000D01*
X800000Y4662000D02*
X900000Y4662000D01*
X850000Y4458000D02*
X850000Y4358000D01*
X800000Y4408000D02*
X900000Y4408000D01*
X850000Y4204000D02*
X850000Y4104000D01*
X800000Y4154000D02*
X900000Y4154000D01*
X850000Y3950000D02*
X850000Y3850000D01*
X800000Y3900000D02*
X900000Y3900000D01*
X850000Y3696000D02*
X850000Y3596000D01*
X800000Y3646000D02*
X900000Y3646000D01*
X850000Y3442000D02*
X850000Y3342000D01*
X800000Y3392000D02*
X900000Y3392000D01*
X850000Y3188000D02*
X850000Y3088000D01*
X800000Y3138000D02*
X900000Y3138000D01*
X850000Y2934000D02*
X850000Y2834000D01*
X800000Y2884000D02*
X900000Y2884000D01*
X850000Y2680000D02*
X850000Y2580000D01*
X800000Y2630000D02*
X900000Y2630000D01*
X850000Y2426000D02*
X850000Y2326000D01*
X800000Y2376000D02*
X900000Y2376000D01*
X850000Y2172000D02*
X850000Y2072000D01*
X800000Y2122000D02*
X900000Y2122000D01*
X850000Y1918000D02*
X850000Y1818000D01*
X800000Y1868000D02*
X900000Y1868000D01*
X850000Y1664000D02*
X850000Y1564000D01*
X800000Y1614000D02*
X900000Y1614000D01*
X850000Y1410000D02*
X850000Y1310000D01*
X800000Y1360000D02*
X900000Y1360000D01*
X850000Y1156000D02*
X850000Y1056000D01*
X800000Y1106000D02*
X900000Y1106000D01*
X850000Y902000D02*
X850000Y802000D01*
X800000Y852000D02*
X900000Y852000D01*
X1104000Y5728000D02*
X1104000Y5628000D01*
X1054000Y5678000D02*
X1154000Y5678000D01*
X1104000Y5474000D02*
X1104000Y5374000D01*
X1054000Y5424000D02*
X1154000Y5424000D01*
X1104000Y5220000D02*
X1104000Y5120000D01*
X1054000Y5170000D02*
X1154000Y5170000D01*
X1104000Y4966000D02*
X1104000Y4866000D01*
X1054000Y4916000D02*
X1154000Y4916000D01*
X1104000Y4712000D02*
X1104000Y4612000D01*
X1054000Y4662000D02*
X1154000Y4662000D01*
X1104000Y4458000D02*
X1104000Y4358000D01*
X1054000Y4408000D02*
X1154000Y4408000D01*
X1104000Y4204000D02*
X1104000Y4104000D01*
X1054000Y4154000D02*
X1154000Y4154000D01*
X1104000Y3950000D02*
X1104000Y3850000D01*
X1054000Y3900000D02*
X1154000Y3900000D01*
X1104000Y3696000D02*
X1104000Y3596000D01*
X1054000Y3646000D02*
X1154000Y3646000D01*
X1104000Y3442000D02*
X1104000Y3342000D01*
X1054000Y3392000D02*
X1154000Y3392000D01*
X1104000Y3188000D02*
X1104000Y3088000D01*
X1054000Y3138000D02*
X1154000Y3138000D01*
X1104000Y2934000D02*
X1104000Y2834000D01*
X1054000Y2884000D02*
X1154000Y2884000D01*
X1104000Y2680000D02*
X1104000Y2580000D01*
X1054000Y2630000D02*
X1154000Y2630000D01*
X1104000Y2426000D02*
X1104000Y2326000D01*
X1054000Y2376000D02*
X1154000Y2376000D01*
X1104000Y2172000D02*
X1104000Y2072000D01*
X1054000Y2122000D02*
X1154000Y2122000D01*
X1104000Y1918000D02*
X1104000Y1818000D01*
X1054000Y1868000D02*
X1154000Y1868000D01*
X1104000Y1664000D02*
X1104000Y1564000D01*
X1054000Y1614000D02*
X1154000Y1614000D01*
X1104000Y1410000D02*
X1104000Y1310000D01*
X1054000Y1360000D02*
X1154000Y1360000D01*
X1104000Y1156000D02*
X1104000Y1056000D01*
X1054000Y1106000D02*
X1154000Y1106000D01*
X1104000Y902000D02*
X1104000Y802000D01*
X1054000Y852000D02*
X1154000Y852000D01*
D13*
X4074063Y7513937D02*
X4074063Y7586063D01*
X4001937Y7586063D01*
X4001937Y7513937D01*
X4074063Y7513937D01*
X4074063Y5989937D02*
X4074063Y6062063D01*
X4001937Y6062063D01*
X4001937Y5989937D01*
X4074063Y5989937D01*
X4328063Y7513937D02*
X4328063Y7586063D01*
X4255937Y7586063D01*
X4255937Y7513937D01*
X4328063Y7513937D01*
X4328063Y5989937D02*
X4328063Y6062063D01*
X4255937Y6062063D01*
X4255937Y5989937D01*
X4328063Y5989937D01*
X4582063Y7513937D02*
X4582063Y7586063D01*
X4509937Y7586063D01*
X4509937Y7513937D01*
X4582063Y7513937D01*
X4582063Y5989937D02*
X4582063Y6062063D01*
X4509937Y6062063D01*
X4509937Y5989937D01*
X4582063Y5989937D01*
X4836063Y7513937D02*
X4836063Y7586063D01*
X4763937Y7586063D01*
X4763937Y7513937D01*
X4836063Y7513937D01*
X4836063Y5989937D02*
X4836063Y6062063D01*
X4763937Y6062063D01*
X4763937Y5989937D01*
X4836063Y5989937D01*
X5090063Y7513937D02*
X5090063Y7586063D01*
X5017937Y7586063D01*
X5017937Y7513937D01*
X5090063Y7513937D01*
X5090063Y5989937D02*
X5090063Y6062063D01*
X5017937Y6062063D01*
X5017937Y5989937D01*
X5090063Y5989937D01*
X5344063Y7513937D02*
X5344063Y7586063D01*
X5271937Y7586063D01*
X5271937Y7513937D01*
X5344063Y7513937D01*
X5344063Y5989937D02*
X5344063Y6062063D01*
X5271937Y6062063D01*
X5271937Y5989937D01*
X5344063Y5989937D01*
X5598063Y7513937D02*
X5598063Y7586063D01*
X5525937Y7586063D01*
X5525937Y7513937D01*
X5598063Y7513937D01*
X5598063Y5989937D02*
X5598063Y6062063D01*
X5525937Y6062063D01*
X5525937Y5989937D01*
X5598063Y5989937D01*
X5852063Y7513937D02*
X5852063Y7586063D01*
X5779937Y7586063D01*
X5779937Y7513937D01*
X5852063Y7513937D01*
X5852063Y5989937D02*
X5852063Y6062063D01*
X5779937Y6062063D01*
X5779937Y5989937D01*
X5852063Y5989937D01*
X6106063Y7513937D02*
X6106063Y7586063D01*
X6033937Y7586063D01*
X6033937Y7513937D01*
X6106063Y7513937D01*
X6106063Y5989937D02*
X6106063Y6062063D01*
X6033937Y6062063D01*
X6033937Y5989937D01*
X6106063Y5989937D01*
X6360063Y7513937D02*
X6360063Y7586063D01*
X6287937Y7586063D01*
X6287937Y7513937D01*
X6360063Y7513937D01*
X6360063Y5989937D02*
X6360063Y6062063D01*
X6287937Y6062063D01*
X6287937Y5989937D01*
X6360063Y5989937D01*
X6614063Y7513937D02*
X6614063Y7586063D01*
X6541937Y7586063D01*
X6541937Y7513937D01*
X6614063Y7513937D01*
X6614063Y5989937D02*
X6614063Y6062063D01*
X6541937Y6062063D01*
X6541937Y5989937D01*
X6614063Y5989937D01*
X6868063Y7513937D02*
X6868063Y7586063D01*
X6795937Y7586063D01*
X6795937Y7513937D01*
X6868063Y7513937D01*
X6868063Y5989937D02*
X6868063Y6062063D01*
X6795937Y6062063D01*
X6795937Y5989937D01*
X6868063Y5989937D01*
X7122063Y7513937D02*
X7122063Y7586063D01*
X7049937Y7586063D01*
X7049937Y7513937D01*
X7122063Y7513937D01*
X7122063Y5989937D02*
X7122063Y6062063D01*
X7049937Y6062063D01*
X7049937Y5989937D01*
X7122063Y5989937D01*
X7376063Y7513937D02*
X7376063Y7586063D01*
X7303937Y7586063D01*
X7303937Y7513937D01*
X7376063Y7513937D01*
X7376063Y5989937D02*
X7376063Y6062063D01*
X7303937Y6062063D01*
X7303937Y5989937D01*
X7376063Y5989937D01*
X7630063Y7513937D02*
X7630063Y7586063D01*
X7557937Y7586063D01*
X7557937Y7513937D01*
X7630063Y7513937D01*
X7630063Y5989937D02*
X7630063Y6062063D01*
X7557937Y6062063D01*
X7557937Y5989937D01*
X7630063Y5989937D01*
D14*
X985000Y6017000D02*
X1145000Y6177000D01*
X985000Y6337000D01*
X825000Y6177000D01*
X985000Y6017000D01*
X985000Y217000D02*
X1145000Y377000D01*
X985000Y537000D01*
X825000Y377000D01*
X985000Y217000D01*
X9585000Y6017000D02*
X9745000Y6177000D01*
X9585000Y6337000D01*
X9425000Y6177000D01*
X9585000Y6017000D01*
D11*
X258277Y-313984D02*
X258277Y-113984D01*
X258277Y-113984D02*
X305896Y-113984D01*
X305896Y-113984D02*
X334467Y-123508D01*
X334467Y-123508D02*
X353515Y-142555D01*
X353515Y-142555D02*
X363039Y-161603D01*
X363039Y-161603D02*
X372562Y-199698D01*
X372562Y-199698D02*
X372562Y-228269D01*
X372562Y-228269D02*
X363039Y-266365D01*
X363039Y-266365D02*
X353515Y-285412D01*
X353515Y-285412D02*
X334467Y-304460D01*
X334467Y-304460D02*
X305896Y-313984D01*
X305896Y-313984D02*
X258277Y-313984D01*
X458277Y-313984D02*
X458277Y-180650D01*
X458277Y-218746D02*
X467801Y-199698D01*
X467801Y-199698D02*
X477324Y-190174D01*
X477324Y-190174D02*
X496372Y-180650D01*
X496372Y-180650D02*
X515420Y-180650D01*
X582086Y-313984D02*
X582086Y-180650D01*
X582086Y-113984D02*
X572563Y-123508D01*
X572563Y-123508D02*
X582086Y-133031D01*
X582086Y-133031D02*
X591610Y-123508D01*
X591610Y-123508D02*
X582086Y-113984D01*
X582086Y-113984D02*
X582086Y-133031D01*
X705896Y-313984D02*
X686848Y-304460D01*
X686848Y-304460D02*
X677324Y-285412D01*
X677324Y-285412D02*
X677324Y-113984D01*
X810658Y-313984D02*
X791610Y-304460D01*
X791610Y-304460D02*
X782086Y-285412D01*
X782086Y-285412D02*
X782086Y-113984D01*
X1039229Y-313984D02*
X1039229Y-113984D01*
X1039229Y-113984D02*
X1105896Y-256841D01*
X1105896Y-256841D02*
X1172563Y-113984D01*
X1172563Y-113984D02*
X1172563Y-313984D01*
X1353515Y-313984D02*
X1353515Y-209222D01*
X1353515Y-209222D02*
X1343991Y-190174D01*
X1343991Y-190174D02*
X1324944Y-180650D01*
X1324944Y-180650D02*
X1286848Y-180650D01*
X1286848Y-180650D02*
X1267801Y-190174D01*
X1353515Y-304460D02*
X1334467Y-313984D01*
X1334467Y-313984D02*
X1286848Y-313984D01*
X1286848Y-313984D02*
X1267801Y-304460D01*
X1267801Y-304460D02*
X1258277Y-285412D01*
X1258277Y-285412D02*
X1258277Y-266365D01*
X1258277Y-266365D02*
X1267801Y-247317D01*
X1267801Y-247317D02*
X1286848Y-237793D01*
X1286848Y-237793D02*
X1334467Y-237793D01*
X1334467Y-237793D02*
X1353515Y-228269D01*
X1448753Y-180650D02*
X1448753Y-380650D01*
X1448753Y-190174D02*
X1467801Y-180650D01*
X1467801Y-180650D02*
X1505896Y-180650D01*
X1505896Y-180650D02*
X1524943Y-190174D01*
X1524943Y-190174D02*
X1534467Y-199698D01*
X1534467Y-199698D02*
X1543991Y-218746D01*
X1543991Y-218746D02*
X1543991Y-275889D01*
X1543991Y-275889D02*
X1534467Y-294936D01*
X1534467Y-294936D02*
X1524943Y-304460D01*
X1524943Y-304460D02*
X1505896Y-313984D01*
X1505896Y-313984D02*
X1467801Y-313984D01*
X1467801Y-313984D02*
X1448753Y-304460D01*
X1629705Y-294936D02*
X1639229Y-304460D01*
X1639229Y-304460D02*
X1629705Y-313984D01*
X1629705Y-313984D02*
X1620182Y-304460D01*
X1620182Y-304460D02*
X1629705Y-294936D01*
X1629705Y-294936D02*
X1629705Y-313984D01*
X1629705Y-190174D02*
X1639229Y-199698D01*
X1639229Y-199698D02*
X1629705Y-209222D01*
X1629705Y-209222D02*
X1620182Y-199698D01*
X1620182Y-199698D02*
X1629705Y-190174D01*
X1629705Y-190174D02*
X1629705Y-209222D01*
D12*
X-32500Y-627500D02*
X-2500Y-657500D01*
X-2500Y-627500D02*
X-32500Y-657500D01*
D11*
X296372Y-533984D02*
X315420Y-533984D01*
X315420Y-533984D02*
X334467Y-543508D01*
X334467Y-543508D02*
X343991Y-553031D01*
X343991Y-553031D02*
X353515Y-572079D01*
X353515Y-572079D02*
X363039Y-610174D01*
X363039Y-610174D02*
X363039Y-657793D01*
X363039Y-657793D02*
X353515Y-695889D01*
X353515Y-695889D02*
X343991Y-714936D01*
X343991Y-714936D02*
X334467Y-724460D01*
X334467Y-724460D02*
X315420Y-733984D01*
X315420Y-733984D02*
X296372Y-733984D01*
X296372Y-733984D02*
X277324Y-724460D01*
X277324Y-724460D02*
X267801Y-714936D01*
X267801Y-714936D02*
X258277Y-695889D01*
X258277Y-695889D02*
X248753Y-657793D01*
X248753Y-657793D02*
X248753Y-610174D01*
X248753Y-610174D02*
X258277Y-572079D01*
X258277Y-572079D02*
X267801Y-553031D01*
X267801Y-553031D02*
X277324Y-543508D01*
X277324Y-543508D02*
X296372Y-533984D01*
X448753Y-714936D02*
X458277Y-724460D01*
X458277Y-724460D02*
X448753Y-733984D01*
X448753Y-733984D02*
X439229Y-724460D01*
X439229Y-724460D02*
X448753Y-714936D01*
X448753Y-714936D02*
X448753Y-733984D01*
X524944Y-533984D02*
X648753Y-533984D01*
X648753Y-533984D02*
X582086Y-610174D01*
X582086Y-610174D02*
X610658Y-610174D01*
X610658Y-610174D02*
X629705Y-619698D01*
X629705Y-619698D02*
X639229Y-629222D01*
X639229Y-629222D02*
X648753Y-648270D01*
X648753Y-648270D02*
X648753Y-695889D01*
X648753Y-695889D02*
X639229Y-714936D01*
X639229Y-714936D02*
X629705Y-724460D01*
X629705Y-724460D02*
X610658Y-733984D01*
X610658Y-733984D02*
X553515Y-733984D01*
X553515Y-733984D02*
X534467Y-724460D01*
X534467Y-724460D02*
X524944Y-714936D01*
X772562Y-533984D02*
X791610Y-533984D01*
X791610Y-533984D02*
X810658Y-543508D01*
X810658Y-543508D02*
X820182Y-553031D01*
X820182Y-553031D02*
X829705Y-572079D01*
X829705Y-572079D02*
X839229Y-610174D01*
X839229Y-610174D02*
X839229Y-657793D01*
X839229Y-657793D02*
X829705Y-695889D01*
X829705Y-695889D02*
X820182Y-714936D01*
X820182Y-714936D02*
X810658Y-724460D01*
X810658Y-724460D02*
X791610Y-733984D01*
X791610Y-733984D02*
X772562Y-733984D01*
X772562Y-733984D02*
X753515Y-724460D01*
X753515Y-724460D02*
X743991Y-714936D01*
X743991Y-714936D02*
X734467Y-695889D01*
X734467Y-695889D02*
X724943Y-657793D01*
X724943Y-657793D02*
X724943Y-610174D01*
X724943Y-610174D02*
X734467Y-572079D01*
X734467Y-572079D02*
X743991Y-553031D01*
X743991Y-553031D02*
X753515Y-543508D01*
X753515Y-543508D02*
X772562Y-533984D01*
X963039Y-533984D02*
X982086Y-533984D01*
X982086Y-533984D02*
X1001134Y-543508D01*
X1001134Y-543508D02*
X1010658Y-553031D01*
X1010658Y-553031D02*
X1020182Y-572079D01*
X1020182Y-572079D02*
X1029705Y-610174D01*
X1029705Y-610174D02*
X1029705Y-657793D01*
X1029705Y-657793D02*
X1020182Y-695889D01*
X1020182Y-695889D02*
X1010658Y-714936D01*
X1010658Y-714936D02*
X1001134Y-724460D01*
X1001134Y-724460D02*
X982086Y-733984D01*
X982086Y-733984D02*
X963039Y-733984D01*
X963039Y-733984D02*
X943991Y-724460D01*
X943991Y-724460D02*
X934467Y-714936D01*
X934467Y-714936D02*
X924943Y-695889D01*
X924943Y-695889D02*
X915420Y-657793D01*
X915420Y-657793D02*
X915420Y-610174D01*
X915420Y-610174D02*
X924943Y-572079D01*
X924943Y-572079D02*
X934467Y-553031D01*
X934467Y-553031D02*
X943991Y-543508D01*
X943991Y-543508D02*
X963039Y-533984D01*
X1115420Y-733984D02*
X1115420Y-600650D01*
X1115420Y-619698D02*
X1124944Y-610174D01*
X1124944Y-610174D02*
X1143991Y-600650D01*
X1143991Y-600650D02*
X1172563Y-600650D01*
X1172563Y-600650D02*
X1191610Y-610174D01*
X1191610Y-610174D02*
X1201134Y-629222D01*
X1201134Y-629222D02*
X1201134Y-733984D01*
X1201134Y-629222D02*
X1210658Y-610174D01*
X1210658Y-610174D02*
X1229705Y-600650D01*
X1229705Y-600650D02*
X1258277Y-600650D01*
X1258277Y-600650D02*
X1277325Y-610174D01*
X1277325Y-610174D02*
X1286848Y-629222D01*
X1286848Y-629222D02*
X1286848Y-733984D01*
X1382086Y-733984D02*
X1382086Y-600650D01*
X1382086Y-619698D02*
X1391610Y-610174D01*
X1391610Y-610174D02*
X1410658Y-600650D01*
X1410658Y-600650D02*
X1439229Y-600650D01*
X1439229Y-600650D02*
X1458277Y-610174D01*
X1458277Y-610174D02*
X1467801Y-629222D01*
X1467801Y-629222D02*
X1467801Y-733984D01*
X1467801Y-629222D02*
X1477324Y-610174D01*
X1477324Y-610174D02*
X1496372Y-600650D01*
X1496372Y-600650D02*
X1524943Y-600650D01*
X1524943Y-600650D02*
X1543991Y-610174D01*
X1543991Y-610174D02*
X1553515Y-629222D01*
X1553515Y-629222D02*
X1553515Y-733984D01*
X1943991Y-524460D02*
X1772563Y-781603D01*
X2201134Y-533984D02*
X2220182Y-533984D01*
X2220182Y-533984D02*
X2239229Y-543508D01*
X2239229Y-543508D02*
X2248753Y-553031D01*
X2248753Y-553031D02*
X2258277Y-572079D01*
X2258277Y-572079D02*
X2267801Y-610174D01*
X2267801Y-610174D02*
X2267801Y-657793D01*
X2267801Y-657793D02*
X2258277Y-695889D01*
X2258277Y-695889D02*
X2248753Y-714936D01*
X2248753Y-714936D02*
X2239229Y-724460D01*
X2239229Y-724460D02*
X2220182Y-733984D01*
X2220182Y-733984D02*
X2201134Y-733984D01*
X2201134Y-733984D02*
X2182087Y-724460D01*
X2182087Y-724460D02*
X2172563Y-714936D01*
X2172563Y-714936D02*
X2163039Y-695889D01*
X2163039Y-695889D02*
X2153515Y-657793D01*
X2153515Y-657793D02*
X2153515Y-610174D01*
X2153515Y-610174D02*
X2163039Y-572079D01*
X2163039Y-572079D02*
X2172563Y-553031D01*
X2172563Y-553031D02*
X2182087Y-543508D01*
X2182087Y-543508D02*
X2201134Y-533984D01*
X2353515Y-714936D02*
X2363039Y-724460D01*
X2363039Y-724460D02*
X2353515Y-733984D01*
X2353515Y-733984D02*
X2343991Y-724460D01*
X2343991Y-724460D02*
X2353515Y-714936D01*
X2353515Y-714936D02*
X2353515Y-733984D01*
X2486848Y-533984D02*
X2505896Y-533984D01*
X2505896Y-533984D02*
X2524944Y-543508D01*
X2524944Y-543508D02*
X2534468Y-553031D01*
X2534468Y-553031D02*
X2543991Y-572079D01*
X2543991Y-572079D02*
X2553515Y-610174D01*
X2553515Y-610174D02*
X2553515Y-657793D01*
X2553515Y-657793D02*
X2543991Y-695889D01*
X2543991Y-695889D02*
X2534468Y-714936D01*
X2534468Y-714936D02*
X2524944Y-724460D01*
X2524944Y-724460D02*
X2505896Y-733984D01*
X2505896Y-733984D02*
X2486848Y-733984D01*
X2486848Y-733984D02*
X2467801Y-724460D01*
X2467801Y-724460D02*
X2458277Y-714936D01*
X2458277Y-714936D02*
X2448753Y-695889D01*
X2448753Y-695889D02*
X2439229Y-657793D01*
X2439229Y-657793D02*
X2439229Y-610174D01*
X2439229Y-610174D02*
X2448753Y-572079D01*
X2448753Y-572079D02*
X2458277Y-553031D01*
X2458277Y-553031D02*
X2467801Y-543508D01*
X2467801Y-543508D02*
X2486848Y-533984D01*
X2743991Y-733984D02*
X2629706Y-733984D01*
X2686848Y-733984D02*
X2686848Y-533984D01*
X2686848Y-533984D02*
X2667801Y-562555D01*
X2667801Y-562555D02*
X2648753Y-581603D01*
X2648753Y-581603D02*
X2629706Y-591127D01*
X2934467Y-733984D02*
X2820182Y-733984D01*
X2877325Y-733984D02*
X2877325Y-533984D01*
X2877325Y-533984D02*
X2858277Y-562555D01*
X2858277Y-562555D02*
X2839229Y-581603D01*
X2839229Y-581603D02*
X2820182Y-591127D01*
X3048753Y-619698D02*
X3029706Y-610174D01*
X3029706Y-610174D02*
X3020182Y-600650D01*
X3020182Y-600650D02*
X3010658Y-581603D01*
X3010658Y-581603D02*
X3010658Y-572079D01*
X3010658Y-572079D02*
X3020182Y-553031D01*
X3020182Y-553031D02*
X3029706Y-543508D01*
X3029706Y-543508D02*
X3048753Y-533984D01*
X3048753Y-533984D02*
X3086848Y-533984D01*
X3086848Y-533984D02*
X3105896Y-543508D01*
X3105896Y-543508D02*
X3115420Y-553031D01*
X3115420Y-553031D02*
X3124944Y-572079D01*
X3124944Y-572079D02*
X3124944Y-581603D01*
X3124944Y-581603D02*
X3115420Y-600650D01*
X3115420Y-600650D02*
X3105896Y-610174D01*
X3105896Y-610174D02*
X3086848Y-619698D01*
X3086848Y-619698D02*
X3048753Y-619698D01*
X3048753Y-619698D02*
X3029706Y-629222D01*
X3029706Y-629222D02*
X3020182Y-638746D01*
X3020182Y-638746D02*
X3010658Y-657793D01*
X3010658Y-657793D02*
X3010658Y-695889D01*
X3010658Y-695889D02*
X3020182Y-714936D01*
X3020182Y-714936D02*
X3029706Y-724460D01*
X3029706Y-724460D02*
X3048753Y-733984D01*
X3048753Y-733984D02*
X3086848Y-733984D01*
X3086848Y-733984D02*
X3105896Y-724460D01*
X3105896Y-724460D02*
X3115420Y-714936D01*
X3115420Y-714936D02*
X3124944Y-695889D01*
X3124944Y-695889D02*
X3124944Y-657793D01*
X3124944Y-657793D02*
X3115420Y-638746D01*
X3115420Y-638746D02*
X3105896Y-629222D01*
X3105896Y-629222D02*
X3086848Y-619698D01*
X3201134Y-533984D02*
X3201134Y-572079D01*
X3277325Y-533984D02*
X3277325Y-572079D01*
X3572563Y-810174D02*
X3563039Y-800650D01*
X3563039Y-800650D02*
X3543991Y-772079D01*
X3543991Y-772079D02*
X3534468Y-753031D01*
X3534468Y-753031D02*
X3524944Y-724460D01*
X3524944Y-724460D02*
X3515420Y-676841D01*
X3515420Y-676841D02*
X3515420Y-638746D01*
X3515420Y-638746D02*
X3524944Y-591127D01*
X3524944Y-591127D02*
X3534468Y-562555D01*
X3534468Y-562555D02*
X3543991Y-543508D01*
X3543991Y-543508D02*
X3563039Y-514936D01*
X3563039Y-514936D02*
X3572563Y-505412D01*
X3629706Y-533984D02*
X3763039Y-533984D01*
X3763039Y-533984D02*
X3677325Y-733984D01*
X3924944Y-600650D02*
X3924944Y-733984D01*
X3877325Y-524460D02*
X3829706Y-667317D01*
X3829706Y-667317D02*
X3953515Y-667317D01*
X4182087Y-733984D02*
X4182087Y-533984D01*
X4267801Y-733984D02*
X4267801Y-629222D01*
X4267801Y-629222D02*
X4258277Y-610174D01*
X4258277Y-610174D02*
X4239230Y-600650D01*
X4239230Y-600650D02*
X4210658Y-600650D01*
X4210658Y-600650D02*
X4191610Y-610174D01*
X4191610Y-610174D02*
X4182087Y-619698D01*
X4391611Y-733984D02*
X4372563Y-724460D01*
X4372563Y-724460D02*
X4363039Y-714936D01*
X4363039Y-714936D02*
X4353515Y-695889D01*
X4353515Y-695889D02*
X4353515Y-638746D01*
X4353515Y-638746D02*
X4363039Y-619698D01*
X4363039Y-619698D02*
X4372563Y-610174D01*
X4372563Y-610174D02*
X4391611Y-600650D01*
X4391611Y-600650D02*
X4420182Y-600650D01*
X4420182Y-600650D02*
X4439230Y-610174D01*
X4439230Y-610174D02*
X4448753Y-619698D01*
X4448753Y-619698D02*
X4458277Y-638746D01*
X4458277Y-638746D02*
X4458277Y-695889D01*
X4458277Y-695889D02*
X4448753Y-714936D01*
X4448753Y-714936D02*
X4439230Y-724460D01*
X4439230Y-724460D02*
X4420182Y-733984D01*
X4420182Y-733984D02*
X4391611Y-733984D01*
X4572563Y-733984D02*
X4553515Y-724460D01*
X4553515Y-724460D02*
X4543992Y-705412D01*
X4543992Y-705412D02*
X4543992Y-533984D01*
X4724944Y-724460D02*
X4705896Y-733984D01*
X4705896Y-733984D02*
X4667801Y-733984D01*
X4667801Y-733984D02*
X4648753Y-724460D01*
X4648753Y-724460D02*
X4639230Y-705412D01*
X4639230Y-705412D02*
X4639230Y-629222D01*
X4639230Y-629222D02*
X4648753Y-610174D01*
X4648753Y-610174D02*
X4667801Y-600650D01*
X4667801Y-600650D02*
X4705896Y-600650D01*
X4705896Y-600650D02*
X4724944Y-610174D01*
X4724944Y-610174D02*
X4734468Y-629222D01*
X4734468Y-629222D02*
X4734468Y-648270D01*
X4734468Y-648270D02*
X4639230Y-667317D01*
X4810658Y-724460D02*
X4829706Y-733984D01*
X4829706Y-733984D02*
X4867801Y-733984D01*
X4867801Y-733984D02*
X4886849Y-724460D01*
X4886849Y-724460D02*
X4896373Y-705412D01*
X4896373Y-705412D02*
X4896373Y-695889D01*
X4896373Y-695889D02*
X4886849Y-676841D01*
X4886849Y-676841D02*
X4867801Y-667317D01*
X4867801Y-667317D02*
X4839230Y-667317D01*
X4839230Y-667317D02*
X4820182Y-657793D01*
X4820182Y-657793D02*
X4810658Y-638746D01*
X4810658Y-638746D02*
X4810658Y-629222D01*
X4810658Y-629222D02*
X4820182Y-610174D01*
X4820182Y-610174D02*
X4839230Y-600650D01*
X4839230Y-600650D02*
X4867801Y-600650D01*
X4867801Y-600650D02*
X4886849Y-610174D01*
X4963039Y-810174D02*
X4972563Y-800650D01*
X4972563Y-800650D02*
X4991611Y-772079D01*
X4991611Y-772079D02*
X5001134Y-753031D01*
X5001134Y-753031D02*
X5010658Y-724460D01*
X5010658Y-724460D02*
X5020182Y-676841D01*
X5020182Y-676841D02*
X5020182Y-638746D01*
X5020182Y-638746D02*
X5010658Y-591127D01*
X5010658Y-591127D02*
X5001134Y-562555D01*
X5001134Y-562555D02*
X4991611Y-543508D01*
X4991611Y-543508D02*
X4972563Y-514936D01*
X4972563Y-514936D02*
X4963039Y-505412D01*
D12*
X-2500Y-906500D02*
G75*
G02*
X-97500Y-906500I-47500J0D01*
G01*
X-97500Y-906500D02*
G75*
G02*
X-2500Y-906500I47500J0D01*
G01*
D11*
X296372Y-797984D02*
X315420Y-797984D01*
X315420Y-797984D02*
X334467Y-807508D01*
X334467Y-807508D02*
X343991Y-817031D01*
X343991Y-817031D02*
X353515Y-836079D01*
X353515Y-836079D02*
X363039Y-874174D01*
X363039Y-874174D02*
X363039Y-921793D01*
X363039Y-921793D02*
X353515Y-959888D01*
X353515Y-959888D02*
X343991Y-978936D01*
X343991Y-978936D02*
X334467Y-988460D01*
X334467Y-988460D02*
X315420Y-997984D01*
X315420Y-997984D02*
X296372Y-997984D01*
X296372Y-997984D02*
X277324Y-988460D01*
X277324Y-988460D02*
X267801Y-978936D01*
X267801Y-978936D02*
X258277Y-959888D01*
X258277Y-959888D02*
X248753Y-921793D01*
X248753Y-921793D02*
X248753Y-874174D01*
X248753Y-874174D02*
X258277Y-836079D01*
X258277Y-836079D02*
X267801Y-817031D01*
X267801Y-817031D02*
X277324Y-807508D01*
X277324Y-807508D02*
X296372Y-797984D01*
X448753Y-978936D02*
X458277Y-988460D01*
X458277Y-988460D02*
X448753Y-997984D01*
X448753Y-997984D02*
X439229Y-988460D01*
X439229Y-988460D02*
X448753Y-978936D01*
X448753Y-978936D02*
X448753Y-997984D01*
X553515Y-997984D02*
X591610Y-997984D01*
X591610Y-997984D02*
X610658Y-988460D01*
X610658Y-988460D02*
X620182Y-978936D01*
X620182Y-978936D02*
X639229Y-950365D01*
X639229Y-950365D02*
X648753Y-912269D01*
X648753Y-912269D02*
X648753Y-836079D01*
X648753Y-836079D02*
X639229Y-817031D01*
X639229Y-817031D02*
X629705Y-807508D01*
X629705Y-807508D02*
X610658Y-797984D01*
X610658Y-797984D02*
X572563Y-797984D01*
X572563Y-797984D02*
X553515Y-807508D01*
X553515Y-807508D02*
X543991Y-817031D01*
X543991Y-817031D02*
X534467Y-836079D01*
X534467Y-836079D02*
X534467Y-883698D01*
X534467Y-883698D02*
X543991Y-902746D01*
X543991Y-902746D02*
X553515Y-912269D01*
X553515Y-912269D02*
X572563Y-921793D01*
X572563Y-921793D02*
X610658Y-921793D01*
X610658Y-921793D02*
X629705Y-912269D01*
X629705Y-912269D02*
X639229Y-902746D01*
X639229Y-902746D02*
X648753Y-883698D01*
X829705Y-797984D02*
X734467Y-797984D01*
X734467Y-797984D02*
X724943Y-893222D01*
X724943Y-893222D02*
X734467Y-883698D01*
X734467Y-883698D02*
X753515Y-874174D01*
X753515Y-874174D02*
X801134Y-874174D01*
X801134Y-874174D02*
X820182Y-883698D01*
X820182Y-883698D02*
X829705Y-893222D01*
X829705Y-893222D02*
X839229Y-912269D01*
X839229Y-912269D02*
X839229Y-959888D01*
X839229Y-959888D02*
X829705Y-978936D01*
X829705Y-978936D02*
X820182Y-988460D01*
X820182Y-988460D02*
X801134Y-997984D01*
X801134Y-997984D02*
X753515Y-997984D01*
X753515Y-997984D02*
X734467Y-988460D01*
X734467Y-988460D02*
X724943Y-978936D01*
X963039Y-797984D02*
X982086Y-797984D01*
X982086Y-797984D02*
X1001134Y-807508D01*
X1001134Y-807508D02*
X1010658Y-817031D01*
X1010658Y-817031D02*
X1020182Y-836079D01*
X1020182Y-836079D02*
X1029705Y-874174D01*
X1029705Y-874174D02*
X1029705Y-921793D01*
X1029705Y-921793D02*
X1020182Y-959888D01*
X1020182Y-959888D02*
X1010658Y-978936D01*
X1010658Y-978936D02*
X1001134Y-988460D01*
X1001134Y-988460D02*
X982086Y-997984D01*
X982086Y-997984D02*
X963039Y-997984D01*
X963039Y-997984D02*
X943991Y-988460D01*
X943991Y-988460D02*
X934467Y-978936D01*
X934467Y-978936D02*
X924943Y-959888D01*
X924943Y-959888D02*
X915420Y-921793D01*
X915420Y-921793D02*
X915420Y-874174D01*
X915420Y-874174D02*
X924943Y-836079D01*
X924943Y-836079D02*
X934467Y-817031D01*
X934467Y-817031D02*
X943991Y-807508D01*
X943991Y-807508D02*
X963039Y-797984D01*
X1115420Y-997984D02*
X1115420Y-864650D01*
X1115420Y-883698D02*
X1124944Y-874174D01*
X1124944Y-874174D02*
X1143991Y-864650D01*
X1143991Y-864650D02*
X1172563Y-864650D01*
X1172563Y-864650D02*
X1191610Y-874174D01*
X1191610Y-874174D02*
X1201134Y-893222D01*
X1201134Y-893222D02*
X1201134Y-997984D01*
X1201134Y-893222D02*
X1210658Y-874174D01*
X1210658Y-874174D02*
X1229705Y-864650D01*
X1229705Y-864650D02*
X1258277Y-864650D01*
X1258277Y-864650D02*
X1277325Y-874174D01*
X1277325Y-874174D02*
X1286848Y-893222D01*
X1286848Y-893222D02*
X1286848Y-997984D01*
X1382086Y-997984D02*
X1382086Y-864650D01*
X1382086Y-883698D02*
X1391610Y-874174D01*
X1391610Y-874174D02*
X1410658Y-864650D01*
X1410658Y-864650D02*
X1439229Y-864650D01*
X1439229Y-864650D02*
X1458277Y-874174D01*
X1458277Y-874174D02*
X1467801Y-893222D01*
X1467801Y-893222D02*
X1467801Y-997984D01*
X1467801Y-893222D02*
X1477324Y-874174D01*
X1477324Y-874174D02*
X1496372Y-864650D01*
X1496372Y-864650D02*
X1524943Y-864650D01*
X1524943Y-864650D02*
X1543991Y-874174D01*
X1543991Y-874174D02*
X1553515Y-893222D01*
X1553515Y-893222D02*
X1553515Y-997984D01*
X1943991Y-788460D02*
X1772563Y-1045603D01*
X2201134Y-797984D02*
X2220182Y-797984D01*
X2220182Y-797984D02*
X2239229Y-807508D01*
X2239229Y-807508D02*
X2248753Y-817031D01*
X2248753Y-817031D02*
X2258277Y-836079D01*
X2258277Y-836079D02*
X2267801Y-874174D01*
X2267801Y-874174D02*
X2267801Y-921793D01*
X2267801Y-921793D02*
X2258277Y-959888D01*
X2258277Y-959888D02*
X2248753Y-978936D01*
X2248753Y-978936D02*
X2239229Y-988460D01*
X2239229Y-988460D02*
X2220182Y-997984D01*
X2220182Y-997984D02*
X2201134Y-997984D01*
X2201134Y-997984D02*
X2182087Y-988460D01*
X2182087Y-988460D02*
X2172563Y-978936D01*
X2172563Y-978936D02*
X2163039Y-959888D01*
X2163039Y-959888D02*
X2153515Y-921793D01*
X2153515Y-921793D02*
X2153515Y-874174D01*
X2153515Y-874174D02*
X2163039Y-836079D01*
X2163039Y-836079D02*
X2172563Y-817031D01*
X2172563Y-817031D02*
X2182087Y-807508D01*
X2182087Y-807508D02*
X2201134Y-797984D01*
X2353515Y-978936D02*
X2363039Y-988460D01*
X2363039Y-988460D02*
X2353515Y-997984D01*
X2353515Y-997984D02*
X2343991Y-988460D01*
X2343991Y-988460D02*
X2353515Y-978936D01*
X2353515Y-978936D02*
X2353515Y-997984D01*
X2486848Y-797984D02*
X2505896Y-797984D01*
X2505896Y-797984D02*
X2524944Y-807508D01*
X2524944Y-807508D02*
X2534468Y-817031D01*
X2534468Y-817031D02*
X2543991Y-836079D01*
X2543991Y-836079D02*
X2553515Y-874174D01*
X2553515Y-874174D02*
X2553515Y-921793D01*
X2553515Y-921793D02*
X2543991Y-959888D01*
X2543991Y-959888D02*
X2534468Y-978936D01*
X2534468Y-978936D02*
X2524944Y-988460D01*
X2524944Y-988460D02*
X2505896Y-997984D01*
X2505896Y-997984D02*
X2486848Y-997984D01*
X2486848Y-997984D02*
X2467801Y-988460D01*
X2467801Y-988460D02*
X2458277Y-978936D01*
X2458277Y-978936D02*
X2448753Y-959888D01*
X2448753Y-959888D02*
X2439229Y-921793D01*
X2439229Y-921793D02*
X2439229Y-874174D01*
X2439229Y-874174D02*
X2448753Y-836079D01*
X2448753Y-836079D02*
X2458277Y-817031D01*
X2458277Y-817031D02*
X2467801Y-807508D01*
X2467801Y-807508D02*
X2486848Y-797984D01*
X2620182Y-797984D02*
X2743991Y-797984D01*
X2743991Y-797984D02*
X2677325Y-874174D01*
X2677325Y-874174D02*
X2705896Y-874174D01*
X2705896Y-874174D02*
X2724944Y-883698D01*
X2724944Y-883698D02*
X2734468Y-893222D01*
X2734468Y-893222D02*
X2743991Y-912269D01*
X2743991Y-912269D02*
X2743991Y-959888D01*
X2743991Y-959888D02*
X2734468Y-978936D01*
X2734468Y-978936D02*
X2724944Y-988460D01*
X2724944Y-988460D02*
X2705896Y-997984D01*
X2705896Y-997984D02*
X2648753Y-997984D01*
X2648753Y-997984D02*
X2629706Y-988460D01*
X2629706Y-988460D02*
X2620182Y-978936D01*
X2810658Y-797984D02*
X2943991Y-797984D01*
X2943991Y-797984D02*
X2858277Y-997984D01*
X3105896Y-864650D02*
X3105896Y-997984D01*
X3058277Y-788460D02*
X3010658Y-931317D01*
X3010658Y-931317D02*
X3134467Y-931317D01*
X3201134Y-797984D02*
X3201134Y-836079D01*
X3277325Y-797984D02*
X3277325Y-836079D01*
X3572563Y-1074174D02*
X3563039Y-1064650D01*
X3563039Y-1064650D02*
X3543991Y-1036079D01*
X3543991Y-1036079D02*
X3534468Y-1017031D01*
X3534468Y-1017031D02*
X3524944Y-988460D01*
X3524944Y-988460D02*
X3515420Y-940841D01*
X3515420Y-940841D02*
X3515420Y-902746D01*
X3515420Y-902746D02*
X3524944Y-855127D01*
X3524944Y-855127D02*
X3534468Y-826555D01*
X3534468Y-826555D02*
X3543991Y-807508D01*
X3543991Y-807508D02*
X3563039Y-778936D01*
X3563039Y-778936D02*
X3572563Y-769412D01*
X3639229Y-817031D02*
X3648753Y-807508D01*
X3648753Y-807508D02*
X3667801Y-797984D01*
X3667801Y-797984D02*
X3715420Y-797984D01*
X3715420Y-797984D02*
X3734468Y-807508D01*
X3734468Y-807508D02*
X3743991Y-817031D01*
X3743991Y-817031D02*
X3753515Y-836079D01*
X3753515Y-836079D02*
X3753515Y-855127D01*
X3753515Y-855127D02*
X3743991Y-883698D01*
X3743991Y-883698D02*
X3629706Y-997984D01*
X3629706Y-997984D02*
X3753515Y-997984D01*
X3877325Y-797984D02*
X3896372Y-797984D01*
X3896372Y-797984D02*
X3915420Y-807508D01*
X3915420Y-807508D02*
X3924944Y-817031D01*
X3924944Y-817031D02*
X3934468Y-836079D01*
X3934468Y-836079D02*
X3943991Y-874174D01*
X3943991Y-874174D02*
X3943991Y-921793D01*
X3943991Y-921793D02*
X3934468Y-959888D01*
X3934468Y-959888D02*
X3924944Y-978936D01*
X3924944Y-978936D02*
X3915420Y-988460D01*
X3915420Y-988460D02*
X3896372Y-997984D01*
X3896372Y-997984D02*
X3877325Y-997984D01*
X3877325Y-997984D02*
X3858277Y-988460D01*
X3858277Y-988460D02*
X3848753Y-978936D01*
X3848753Y-978936D02*
X3839229Y-959888D01*
X3839229Y-959888D02*
X3829706Y-921793D01*
X3829706Y-921793D02*
X3829706Y-874174D01*
X3829706Y-874174D02*
X3839229Y-836079D01*
X3839229Y-836079D02*
X3848753Y-817031D01*
X3848753Y-817031D02*
X3858277Y-807508D01*
X3858277Y-807508D02*
X3877325Y-797984D01*
X4182087Y-997984D02*
X4182087Y-797984D01*
X4267801Y-997984D02*
X4267801Y-893222D01*
X4267801Y-893222D02*
X4258277Y-874174D01*
X4258277Y-874174D02*
X4239230Y-864650D01*
X4239230Y-864650D02*
X4210658Y-864650D01*
X4210658Y-864650D02*
X4191610Y-874174D01*
X4191610Y-874174D02*
X4182087Y-883698D01*
X4391611Y-997984D02*
X4372563Y-988460D01*
X4372563Y-988460D02*
X4363039Y-978936D01*
X4363039Y-978936D02*
X4353515Y-959888D01*
X4353515Y-959888D02*
X4353515Y-902746D01*
X4353515Y-902746D02*
X4363039Y-883698D01*
X4363039Y-883698D02*
X4372563Y-874174D01*
X4372563Y-874174D02*
X4391611Y-864650D01*
X4391611Y-864650D02*
X4420182Y-864650D01*
X4420182Y-864650D02*
X4439230Y-874174D01*
X4439230Y-874174D02*
X4448753Y-883698D01*
X4448753Y-883698D02*
X4458277Y-902746D01*
X4458277Y-902746D02*
X4458277Y-959888D01*
X4458277Y-959888D02*
X4448753Y-978936D01*
X4448753Y-978936D02*
X4439230Y-988460D01*
X4439230Y-988460D02*
X4420182Y-997984D01*
X4420182Y-997984D02*
X4391611Y-997984D01*
X4572563Y-997984D02*
X4553515Y-988460D01*
X4553515Y-988460D02*
X4543992Y-969412D01*
X4543992Y-969412D02*
X4543992Y-797984D01*
X4724944Y-988460D02*
X4705896Y-997984D01*
X4705896Y-997984D02*
X4667801Y-997984D01*
X4667801Y-997984D02*
X4648753Y-988460D01*
X4648753Y-988460D02*
X4639230Y-969412D01*
X4639230Y-969412D02*
X4639230Y-893222D01*
X4639230Y-893222D02*
X4648753Y-874174D01*
X4648753Y-874174D02*
X4667801Y-864650D01*
X4667801Y-864650D02*
X4705896Y-864650D01*
X4705896Y-864650D02*
X4724944Y-874174D01*
X4724944Y-874174D02*
X4734468Y-893222D01*
X4734468Y-893222D02*
X4734468Y-912269D01*
X4734468Y-912269D02*
X4639230Y-931317D01*
X4810658Y-988460D02*
X4829706Y-997984D01*
X4829706Y-997984D02*
X4867801Y-997984D01*
X4867801Y-997984D02*
X4886849Y-988460D01*
X4886849Y-988460D02*
X4896373Y-969412D01*
X4896373Y-969412D02*
X4896373Y-959888D01*
X4896373Y-959888D02*
X4886849Y-940841D01*
X4886849Y-940841D02*
X4867801Y-931317D01*
X4867801Y-931317D02*
X4839230Y-931317D01*
X4839230Y-931317D02*
X4820182Y-921793D01*
X4820182Y-921793D02*
X4810658Y-902746D01*
X4810658Y-902746D02*
X4810658Y-893222D01*
X4810658Y-893222D02*
X4820182Y-874174D01*
X4820182Y-874174D02*
X4839230Y-864650D01*
X4839230Y-864650D02*
X4867801Y-864650D01*
X4867801Y-864650D02*
X4886849Y-874174D01*
X4963039Y-1074174D02*
X4972563Y-1064650D01*
X4972563Y-1064650D02*
X4991611Y-1036079D01*
X4991611Y-1036079D02*
X5001134Y-1017031D01*
X5001134Y-1017031D02*
X5010658Y-988460D01*
X5010658Y-988460D02*
X5020182Y-940841D01*
X5020182Y-940841D02*
X5020182Y-902746D01*
X5020182Y-902746D02*
X5010658Y-855127D01*
X5010658Y-855127D02*
X5001134Y-826555D01*
X5001134Y-826555D02*
X4991611Y-807508D01*
X4991611Y-807508D02*
X4972563Y-778936D01*
X4972563Y-778936D02*
X4963039Y-769412D01*
D12*
X-52500Y-1120500D02*
X-52500Y-1220500D01*
X-102500Y-1170500D02*
X-2500Y-1170500D01*
D11*
X363039Y-1261984D02*
X248753Y-1261984D01*
X305896Y-1261984D02*
X305896Y-1061984D01*
X305896Y-1061984D02*
X286848Y-1090555D01*
X286848Y-1090555D02*
X267801Y-1109603D01*
X267801Y-1109603D02*
X248753Y-1119127D01*
X448753Y-1242936D02*
X458277Y-1252460D01*
X458277Y-1252460D02*
X448753Y-1261984D01*
X448753Y-1261984D02*
X439229Y-1252460D01*
X439229Y-1252460D02*
X448753Y-1242936D01*
X448753Y-1242936D02*
X448753Y-1261984D01*
X582086Y-1061984D02*
X601134Y-1061984D01*
X601134Y-1061984D02*
X620182Y-1071508D01*
X620182Y-1071508D02*
X629705Y-1081031D01*
X629705Y-1081031D02*
X639229Y-1100079D01*
X639229Y-1100079D02*
X648753Y-1138174D01*
X648753Y-1138174D02*
X648753Y-1185793D01*
X648753Y-1185793D02*
X639229Y-1223889D01*
X639229Y-1223889D02*
X629705Y-1242936D01*
X629705Y-1242936D02*
X620182Y-1252460D01*
X620182Y-1252460D02*
X601134Y-1261984D01*
X601134Y-1261984D02*
X582086Y-1261984D01*
X582086Y-1261984D02*
X563039Y-1252460D01*
X563039Y-1252460D02*
X553515Y-1242936D01*
X553515Y-1242936D02*
X543991Y-1223889D01*
X543991Y-1223889D02*
X534467Y-1185793D01*
X534467Y-1185793D02*
X534467Y-1138174D01*
X534467Y-1138174D02*
X543991Y-1100079D01*
X543991Y-1100079D02*
X553515Y-1081031D01*
X553515Y-1081031D02*
X563039Y-1071508D01*
X563039Y-1071508D02*
X582086Y-1061984D01*
X772562Y-1061984D02*
X791610Y-1061984D01*
X791610Y-1061984D02*
X810658Y-1071508D01*
X810658Y-1071508D02*
X820182Y-1081031D01*
X820182Y-1081031D02*
X829705Y-1100079D01*
X829705Y-1100079D02*
X839229Y-1138174D01*
X839229Y-1138174D02*
X839229Y-1185793D01*
X839229Y-1185793D02*
X829705Y-1223889D01*
X829705Y-1223889D02*
X820182Y-1242936D01*
X820182Y-1242936D02*
X810658Y-1252460D01*
X810658Y-1252460D02*
X791610Y-1261984D01*
X791610Y-1261984D02*
X772562Y-1261984D01*
X772562Y-1261984D02*
X753515Y-1252460D01*
X753515Y-1252460D02*
X743991Y-1242936D01*
X743991Y-1242936D02*
X734467Y-1223889D01*
X734467Y-1223889D02*
X724943Y-1185793D01*
X724943Y-1185793D02*
X724943Y-1138174D01*
X724943Y-1138174D02*
X734467Y-1100079D01*
X734467Y-1100079D02*
X743991Y-1081031D01*
X743991Y-1081031D02*
X753515Y-1071508D01*
X753515Y-1071508D02*
X772562Y-1061984D01*
X963039Y-1061984D02*
X982086Y-1061984D01*
X982086Y-1061984D02*
X1001134Y-1071508D01*
X1001134Y-1071508D02*
X1010658Y-1081031D01*
X1010658Y-1081031D02*
X1020182Y-1100079D01*
X1020182Y-1100079D02*
X1029705Y-1138174D01*
X1029705Y-1138174D02*
X1029705Y-1185793D01*
X1029705Y-1185793D02*
X1020182Y-1223889D01*
X1020182Y-1223889D02*
X1010658Y-1242936D01*
X1010658Y-1242936D02*
X1001134Y-1252460D01*
X1001134Y-1252460D02*
X982086Y-1261984D01*
X982086Y-1261984D02*
X963039Y-1261984D01*
X963039Y-1261984D02*
X943991Y-1252460D01*
X943991Y-1252460D02*
X934467Y-1242936D01*
X934467Y-1242936D02*
X924943Y-1223889D01*
X924943Y-1223889D02*
X915420Y-1185793D01*
X915420Y-1185793D02*
X915420Y-1138174D01*
X915420Y-1138174D02*
X924943Y-1100079D01*
X924943Y-1100079D02*
X934467Y-1081031D01*
X934467Y-1081031D02*
X943991Y-1071508D01*
X943991Y-1071508D02*
X963039Y-1061984D01*
X1115420Y-1261984D02*
X1115420Y-1128650D01*
X1115420Y-1147698D02*
X1124944Y-1138174D01*
X1124944Y-1138174D02*
X1143991Y-1128650D01*
X1143991Y-1128650D02*
X1172563Y-1128650D01*
X1172563Y-1128650D02*
X1191610Y-1138174D01*
X1191610Y-1138174D02*
X1201134Y-1157222D01*
X1201134Y-1157222D02*
X1201134Y-1261984D01*
X1201134Y-1157222D02*
X1210658Y-1138174D01*
X1210658Y-1138174D02*
X1229705Y-1128650D01*
X1229705Y-1128650D02*
X1258277Y-1128650D01*
X1258277Y-1128650D02*
X1277325Y-1138174D01*
X1277325Y-1138174D02*
X1286848Y-1157222D01*
X1286848Y-1157222D02*
X1286848Y-1261984D01*
X1382086Y-1261984D02*
X1382086Y-1128650D01*
X1382086Y-1147698D02*
X1391610Y-1138174D01*
X1391610Y-1138174D02*
X1410658Y-1128650D01*
X1410658Y-1128650D02*
X1439229Y-1128650D01*
X1439229Y-1128650D02*
X1458277Y-1138174D01*
X1458277Y-1138174D02*
X1467801Y-1157222D01*
X1467801Y-1157222D02*
X1467801Y-1261984D01*
X1467801Y-1157222D02*
X1477324Y-1138174D01*
X1477324Y-1138174D02*
X1496372Y-1128650D01*
X1496372Y-1128650D02*
X1524943Y-1128650D01*
X1524943Y-1128650D02*
X1543991Y-1138174D01*
X1543991Y-1138174D02*
X1553515Y-1157222D01*
X1553515Y-1157222D02*
X1553515Y-1261984D01*
X1943991Y-1052460D02*
X1772563Y-1309603D01*
X2201134Y-1061984D02*
X2220182Y-1061984D01*
X2220182Y-1061984D02*
X2239229Y-1071508D01*
X2239229Y-1071508D02*
X2248753Y-1081031D01*
X2248753Y-1081031D02*
X2258277Y-1100079D01*
X2258277Y-1100079D02*
X2267801Y-1138174D01*
X2267801Y-1138174D02*
X2267801Y-1185793D01*
X2267801Y-1185793D02*
X2258277Y-1223889D01*
X2258277Y-1223889D02*
X2248753Y-1242936D01*
X2248753Y-1242936D02*
X2239229Y-1252460D01*
X2239229Y-1252460D02*
X2220182Y-1261984D01*
X2220182Y-1261984D02*
X2201134Y-1261984D01*
X2201134Y-1261984D02*
X2182087Y-1252460D01*
X2182087Y-1252460D02*
X2172563Y-1242936D01*
X2172563Y-1242936D02*
X2163039Y-1223889D01*
X2163039Y-1223889D02*
X2153515Y-1185793D01*
X2153515Y-1185793D02*
X2153515Y-1138174D01*
X2153515Y-1138174D02*
X2163039Y-1100079D01*
X2163039Y-1100079D02*
X2172563Y-1081031D01*
X2172563Y-1081031D02*
X2182087Y-1071508D01*
X2182087Y-1071508D02*
X2201134Y-1061984D01*
X2353515Y-1242936D02*
X2363039Y-1252460D01*
X2363039Y-1252460D02*
X2353515Y-1261984D01*
X2353515Y-1261984D02*
X2343991Y-1252460D01*
X2343991Y-1252460D02*
X2353515Y-1242936D01*
X2353515Y-1242936D02*
X2353515Y-1261984D01*
X2486848Y-1061984D02*
X2505896Y-1061984D01*
X2505896Y-1061984D02*
X2524944Y-1071508D01*
X2524944Y-1071508D02*
X2534468Y-1081031D01*
X2534468Y-1081031D02*
X2543991Y-1100079D01*
X2543991Y-1100079D02*
X2553515Y-1138174D01*
X2553515Y-1138174D02*
X2553515Y-1185793D01*
X2553515Y-1185793D02*
X2543991Y-1223889D01*
X2543991Y-1223889D02*
X2534468Y-1242936D01*
X2534468Y-1242936D02*
X2524944Y-1252460D01*
X2524944Y-1252460D02*
X2505896Y-1261984D01*
X2505896Y-1261984D02*
X2486848Y-1261984D01*
X2486848Y-1261984D02*
X2467801Y-1252460D01*
X2467801Y-1252460D02*
X2458277Y-1242936D01*
X2458277Y-1242936D02*
X2448753Y-1223889D01*
X2448753Y-1223889D02*
X2439229Y-1185793D01*
X2439229Y-1185793D02*
X2439229Y-1138174D01*
X2439229Y-1138174D02*
X2448753Y-1100079D01*
X2448753Y-1100079D02*
X2458277Y-1081031D01*
X2458277Y-1081031D02*
X2467801Y-1071508D01*
X2467801Y-1071508D02*
X2486848Y-1061984D01*
X2620182Y-1061984D02*
X2743991Y-1061984D01*
X2743991Y-1061984D02*
X2677325Y-1138174D01*
X2677325Y-1138174D02*
X2705896Y-1138174D01*
X2705896Y-1138174D02*
X2724944Y-1147698D01*
X2724944Y-1147698D02*
X2734468Y-1157222D01*
X2734468Y-1157222D02*
X2743991Y-1176270D01*
X2743991Y-1176270D02*
X2743991Y-1223889D01*
X2743991Y-1223889D02*
X2734468Y-1242936D01*
X2734468Y-1242936D02*
X2724944Y-1252460D01*
X2724944Y-1252460D02*
X2705896Y-1261984D01*
X2705896Y-1261984D02*
X2648753Y-1261984D01*
X2648753Y-1261984D02*
X2629706Y-1252460D01*
X2629706Y-1252460D02*
X2620182Y-1242936D01*
X2839229Y-1261984D02*
X2877325Y-1261984D01*
X2877325Y-1261984D02*
X2896372Y-1252460D01*
X2896372Y-1252460D02*
X2905896Y-1242936D01*
X2905896Y-1242936D02*
X2924944Y-1214365D01*
X2924944Y-1214365D02*
X2934467Y-1176270D01*
X2934467Y-1176270D02*
X2934467Y-1100079D01*
X2934467Y-1100079D02*
X2924944Y-1081031D01*
X2924944Y-1081031D02*
X2915420Y-1071508D01*
X2915420Y-1071508D02*
X2896372Y-1061984D01*
X2896372Y-1061984D02*
X2858277Y-1061984D01*
X2858277Y-1061984D02*
X2839229Y-1071508D01*
X2839229Y-1071508D02*
X2829706Y-1081031D01*
X2829706Y-1081031D02*
X2820182Y-1100079D01*
X2820182Y-1100079D02*
X2820182Y-1147698D01*
X2820182Y-1147698D02*
X2829706Y-1166746D01*
X2829706Y-1166746D02*
X2839229Y-1176270D01*
X2839229Y-1176270D02*
X2858277Y-1185793D01*
X2858277Y-1185793D02*
X2896372Y-1185793D01*
X2896372Y-1185793D02*
X2915420Y-1176270D01*
X2915420Y-1176270D02*
X2924944Y-1166746D01*
X2924944Y-1166746D02*
X2934467Y-1147698D01*
X3105896Y-1128650D02*
X3105896Y-1261984D01*
X3058277Y-1052460D02*
X3010658Y-1195317D01*
X3010658Y-1195317D02*
X3134467Y-1195317D01*
X3201134Y-1061984D02*
X3201134Y-1100079D01*
X3277325Y-1061984D02*
X3277325Y-1100079D01*
X3572563Y-1338174D02*
X3563039Y-1328650D01*
X3563039Y-1328650D02*
X3543991Y-1300079D01*
X3543991Y-1300079D02*
X3534468Y-1281031D01*
X3534468Y-1281031D02*
X3524944Y-1252460D01*
X3524944Y-1252460D02*
X3515420Y-1204841D01*
X3515420Y-1204841D02*
X3515420Y-1166746D01*
X3515420Y-1166746D02*
X3524944Y-1119127D01*
X3524944Y-1119127D02*
X3534468Y-1090555D01*
X3534468Y-1090555D02*
X3543991Y-1071508D01*
X3543991Y-1071508D02*
X3563039Y-1042936D01*
X3563039Y-1042936D02*
X3572563Y-1033412D01*
X3734468Y-1128650D02*
X3734468Y-1261984D01*
X3686848Y-1052460D02*
X3639229Y-1195317D01*
X3639229Y-1195317D02*
X3763039Y-1195317D01*
X3877325Y-1061984D02*
X3896372Y-1061984D01*
X3896372Y-1061984D02*
X3915420Y-1071508D01*
X3915420Y-1071508D02*
X3924944Y-1081031D01*
X3924944Y-1081031D02*
X3934468Y-1100079D01*
X3934468Y-1100079D02*
X3943991Y-1138174D01*
X3943991Y-1138174D02*
X3943991Y-1185793D01*
X3943991Y-1185793D02*
X3934468Y-1223889D01*
X3934468Y-1223889D02*
X3924944Y-1242936D01*
X3924944Y-1242936D02*
X3915420Y-1252460D01*
X3915420Y-1252460D02*
X3896372Y-1261984D01*
X3896372Y-1261984D02*
X3877325Y-1261984D01*
X3877325Y-1261984D02*
X3858277Y-1252460D01*
X3858277Y-1252460D02*
X3848753Y-1242936D01*
X3848753Y-1242936D02*
X3839229Y-1223889D01*
X3839229Y-1223889D02*
X3829706Y-1185793D01*
X3829706Y-1185793D02*
X3829706Y-1138174D01*
X3829706Y-1138174D02*
X3839229Y-1100079D01*
X3839229Y-1100079D02*
X3848753Y-1081031D01*
X3848753Y-1081031D02*
X3858277Y-1071508D01*
X3858277Y-1071508D02*
X3877325Y-1061984D01*
X4182087Y-1261984D02*
X4182087Y-1061984D01*
X4267801Y-1261984D02*
X4267801Y-1157222D01*
X4267801Y-1157222D02*
X4258277Y-1138174D01*
X4258277Y-1138174D02*
X4239230Y-1128650D01*
X4239230Y-1128650D02*
X4210658Y-1128650D01*
X4210658Y-1128650D02*
X4191610Y-1138174D01*
X4191610Y-1138174D02*
X4182087Y-1147698D01*
X4391611Y-1261984D02*
X4372563Y-1252460D01*
X4372563Y-1252460D02*
X4363039Y-1242936D01*
X4363039Y-1242936D02*
X4353515Y-1223889D01*
X4353515Y-1223889D02*
X4353515Y-1166746D01*
X4353515Y-1166746D02*
X4363039Y-1147698D01*
X4363039Y-1147698D02*
X4372563Y-1138174D01*
X4372563Y-1138174D02*
X4391611Y-1128650D01*
X4391611Y-1128650D02*
X4420182Y-1128650D01*
X4420182Y-1128650D02*
X4439230Y-1138174D01*
X4439230Y-1138174D02*
X4448753Y-1147698D01*
X4448753Y-1147698D02*
X4458277Y-1166746D01*
X4458277Y-1166746D02*
X4458277Y-1223889D01*
X4458277Y-1223889D02*
X4448753Y-1242936D01*
X4448753Y-1242936D02*
X4439230Y-1252460D01*
X4439230Y-1252460D02*
X4420182Y-1261984D01*
X4420182Y-1261984D02*
X4391611Y-1261984D01*
X4572563Y-1261984D02*
X4553515Y-1252460D01*
X4553515Y-1252460D02*
X4543992Y-1233412D01*
X4543992Y-1233412D02*
X4543992Y-1061984D01*
X4724944Y-1252460D02*
X4705896Y-1261984D01*
X4705896Y-1261984D02*
X4667801Y-1261984D01*
X4667801Y-1261984D02*
X4648753Y-1252460D01*
X4648753Y-1252460D02*
X4639230Y-1233412D01*
X4639230Y-1233412D02*
X4639230Y-1157222D01*
X4639230Y-1157222D02*
X4648753Y-1138174D01*
X4648753Y-1138174D02*
X4667801Y-1128650D01*
X4667801Y-1128650D02*
X4705896Y-1128650D01*
X4705896Y-1128650D02*
X4724944Y-1138174D01*
X4724944Y-1138174D02*
X4734468Y-1157222D01*
X4734468Y-1157222D02*
X4734468Y-1176270D01*
X4734468Y-1176270D02*
X4639230Y-1195317D01*
X4810658Y-1252460D02*
X4829706Y-1261984D01*
X4829706Y-1261984D02*
X4867801Y-1261984D01*
X4867801Y-1261984D02*
X4886849Y-1252460D01*
X4886849Y-1252460D02*
X4896373Y-1233412D01*
X4896373Y-1233412D02*
X4896373Y-1223889D01*
X4896373Y-1223889D02*
X4886849Y-1204841D01*
X4886849Y-1204841D02*
X4867801Y-1195317D01*
X4867801Y-1195317D02*
X4839230Y-1195317D01*
X4839230Y-1195317D02*
X4820182Y-1185793D01*
X4820182Y-1185793D02*
X4810658Y-1166746D01*
X4810658Y-1166746D02*
X4810658Y-1157222D01*
X4810658Y-1157222D02*
X4820182Y-1138174D01*
X4820182Y-1138174D02*
X4839230Y-1128650D01*
X4839230Y-1128650D02*
X4867801Y-1128650D01*
X4867801Y-1128650D02*
X4886849Y-1138174D01*
X4963039Y-1338174D02*
X4972563Y-1328650D01*
X4972563Y-1328650D02*
X4991611Y-1300079D01*
X4991611Y-1300079D02*
X5001134Y-1281031D01*
X5001134Y-1281031D02*
X5010658Y-1252460D01*
X5010658Y-1252460D02*
X5020182Y-1204841D01*
X5020182Y-1204841D02*
X5020182Y-1166746D01*
X5020182Y-1166746D02*
X5010658Y-1119127D01*
X5010658Y-1119127D02*
X5001134Y-1090555D01*
X5001134Y-1090555D02*
X4991611Y-1071508D01*
X4991611Y-1071508D02*
X4972563Y-1042936D01*
X4972563Y-1042936D02*
X4963039Y-1033412D01*
D13*
X-17437Y-1470563D02*
X-17437Y-1398437D01*
X-89563Y-1398437D01*
X-89563Y-1470563D01*
X-17437Y-1470563D01*
D11*
X363039Y-1525984D02*
X248753Y-1525984D01*
X305896Y-1525984D02*
X305896Y-1325984D01*
X305896Y-1325984D02*
X286848Y-1354555D01*
X286848Y-1354555D02*
X267801Y-1373603D01*
X267801Y-1373603D02*
X248753Y-1383127D01*
X448753Y-1506936D02*
X458277Y-1516460D01*
X458277Y-1516460D02*
X448753Y-1525984D01*
X448753Y-1525984D02*
X439229Y-1516460D01*
X439229Y-1516460D02*
X448753Y-1506936D01*
X448753Y-1506936D02*
X448753Y-1525984D01*
X582086Y-1325984D02*
X601134Y-1325984D01*
X601134Y-1325984D02*
X620182Y-1335508D01*
X620182Y-1335508D02*
X629705Y-1345031D01*
X629705Y-1345031D02*
X639229Y-1364079D01*
X639229Y-1364079D02*
X648753Y-1402174D01*
X648753Y-1402174D02*
X648753Y-1449793D01*
X648753Y-1449793D02*
X639229Y-1487888D01*
X639229Y-1487888D02*
X629705Y-1506936D01*
X629705Y-1506936D02*
X620182Y-1516460D01*
X620182Y-1516460D02*
X601134Y-1525984D01*
X601134Y-1525984D02*
X582086Y-1525984D01*
X582086Y-1525984D02*
X563039Y-1516460D01*
X563039Y-1516460D02*
X553515Y-1506936D01*
X553515Y-1506936D02*
X543991Y-1487888D01*
X543991Y-1487888D02*
X534467Y-1449793D01*
X534467Y-1449793D02*
X534467Y-1402174D01*
X534467Y-1402174D02*
X543991Y-1364079D01*
X543991Y-1364079D02*
X553515Y-1345031D01*
X553515Y-1345031D02*
X563039Y-1335508D01*
X563039Y-1335508D02*
X582086Y-1325984D01*
X724943Y-1345031D02*
X734467Y-1335508D01*
X734467Y-1335508D02*
X753515Y-1325984D01*
X753515Y-1325984D02*
X801134Y-1325984D01*
X801134Y-1325984D02*
X820182Y-1335508D01*
X820182Y-1335508D02*
X829705Y-1345031D01*
X829705Y-1345031D02*
X839229Y-1364079D01*
X839229Y-1364079D02*
X839229Y-1383127D01*
X839229Y-1383127D02*
X829705Y-1411698D01*
X829705Y-1411698D02*
X715420Y-1525984D01*
X715420Y-1525984D02*
X839229Y-1525984D01*
X963039Y-1325984D02*
X982086Y-1325984D01*
X982086Y-1325984D02*
X1001134Y-1335508D01*
X1001134Y-1335508D02*
X1010658Y-1345031D01*
X1010658Y-1345031D02*
X1020182Y-1364079D01*
X1020182Y-1364079D02*
X1029705Y-1402174D01*
X1029705Y-1402174D02*
X1029705Y-1449793D01*
X1029705Y-1449793D02*
X1020182Y-1487888D01*
X1020182Y-1487888D02*
X1010658Y-1506936D01*
X1010658Y-1506936D02*
X1001134Y-1516460D01*
X1001134Y-1516460D02*
X982086Y-1525984D01*
X982086Y-1525984D02*
X963039Y-1525984D01*
X963039Y-1525984D02*
X943991Y-1516460D01*
X943991Y-1516460D02*
X934467Y-1506936D01*
X934467Y-1506936D02*
X924943Y-1487888D01*
X924943Y-1487888D02*
X915420Y-1449793D01*
X915420Y-1449793D02*
X915420Y-1402174D01*
X915420Y-1402174D02*
X924943Y-1364079D01*
X924943Y-1364079D02*
X934467Y-1345031D01*
X934467Y-1345031D02*
X943991Y-1335508D01*
X943991Y-1335508D02*
X963039Y-1325984D01*
X1115420Y-1525984D02*
X1115420Y-1392650D01*
X1115420Y-1411698D02*
X1124944Y-1402174D01*
X1124944Y-1402174D02*
X1143991Y-1392650D01*
X1143991Y-1392650D02*
X1172563Y-1392650D01*
X1172563Y-1392650D02*
X1191610Y-1402174D01*
X1191610Y-1402174D02*
X1201134Y-1421222D01*
X1201134Y-1421222D02*
X1201134Y-1525984D01*
X1201134Y-1421222D02*
X1210658Y-1402174D01*
X1210658Y-1402174D02*
X1229705Y-1392650D01*
X1229705Y-1392650D02*
X1258277Y-1392650D01*
X1258277Y-1392650D02*
X1277325Y-1402174D01*
X1277325Y-1402174D02*
X1286848Y-1421222D01*
X1286848Y-1421222D02*
X1286848Y-1525984D01*
X1382086Y-1525984D02*
X1382086Y-1392650D01*
X1382086Y-1411698D02*
X1391610Y-1402174D01*
X1391610Y-1402174D02*
X1410658Y-1392650D01*
X1410658Y-1392650D02*
X1439229Y-1392650D01*
X1439229Y-1392650D02*
X1458277Y-1402174D01*
X1458277Y-1402174D02*
X1467801Y-1421222D01*
X1467801Y-1421222D02*
X1467801Y-1525984D01*
X1467801Y-1421222D02*
X1477324Y-1402174D01*
X1477324Y-1402174D02*
X1496372Y-1392650D01*
X1496372Y-1392650D02*
X1524943Y-1392650D01*
X1524943Y-1392650D02*
X1543991Y-1402174D01*
X1543991Y-1402174D02*
X1553515Y-1421222D01*
X1553515Y-1421222D02*
X1553515Y-1525984D01*
X1943991Y-1316460D02*
X1772563Y-1573603D01*
X2201134Y-1325984D02*
X2220182Y-1325984D01*
X2220182Y-1325984D02*
X2239229Y-1335508D01*
X2239229Y-1335508D02*
X2248753Y-1345031D01*
X2248753Y-1345031D02*
X2258277Y-1364079D01*
X2258277Y-1364079D02*
X2267801Y-1402174D01*
X2267801Y-1402174D02*
X2267801Y-1449793D01*
X2267801Y-1449793D02*
X2258277Y-1487888D01*
X2258277Y-1487888D02*
X2248753Y-1506936D01*
X2248753Y-1506936D02*
X2239229Y-1516460D01*
X2239229Y-1516460D02*
X2220182Y-1525984D01*
X2220182Y-1525984D02*
X2201134Y-1525984D01*
X2201134Y-1525984D02*
X2182087Y-1516460D01*
X2182087Y-1516460D02*
X2172563Y-1506936D01*
X2172563Y-1506936D02*
X2163039Y-1487888D01*
X2163039Y-1487888D02*
X2153515Y-1449793D01*
X2153515Y-1449793D02*
X2153515Y-1402174D01*
X2153515Y-1402174D02*
X2163039Y-1364079D01*
X2163039Y-1364079D02*
X2172563Y-1345031D01*
X2172563Y-1345031D02*
X2182087Y-1335508D01*
X2182087Y-1335508D02*
X2201134Y-1325984D01*
X2353515Y-1506936D02*
X2363039Y-1516460D01*
X2363039Y-1516460D02*
X2353515Y-1525984D01*
X2353515Y-1525984D02*
X2343991Y-1516460D01*
X2343991Y-1516460D02*
X2353515Y-1506936D01*
X2353515Y-1506936D02*
X2353515Y-1525984D01*
X2486848Y-1325984D02*
X2505896Y-1325984D01*
X2505896Y-1325984D02*
X2524944Y-1335508D01*
X2524944Y-1335508D02*
X2534468Y-1345031D01*
X2534468Y-1345031D02*
X2543991Y-1364079D01*
X2543991Y-1364079D02*
X2553515Y-1402174D01*
X2553515Y-1402174D02*
X2553515Y-1449793D01*
X2553515Y-1449793D02*
X2543991Y-1487888D01*
X2543991Y-1487888D02*
X2534468Y-1506936D01*
X2534468Y-1506936D02*
X2524944Y-1516460D01*
X2524944Y-1516460D02*
X2505896Y-1525984D01*
X2505896Y-1525984D02*
X2486848Y-1525984D01*
X2486848Y-1525984D02*
X2467801Y-1516460D01*
X2467801Y-1516460D02*
X2458277Y-1506936D01*
X2458277Y-1506936D02*
X2448753Y-1487888D01*
X2448753Y-1487888D02*
X2439229Y-1449793D01*
X2439229Y-1449793D02*
X2439229Y-1402174D01*
X2439229Y-1402174D02*
X2448753Y-1364079D01*
X2448753Y-1364079D02*
X2458277Y-1345031D01*
X2458277Y-1345031D02*
X2467801Y-1335508D01*
X2467801Y-1335508D02*
X2486848Y-1325984D01*
X2724944Y-1392650D02*
X2724944Y-1525984D01*
X2677325Y-1316460D02*
X2629706Y-1459317D01*
X2629706Y-1459317D02*
X2753515Y-1459317D01*
X2867801Y-1325984D02*
X2886848Y-1325984D01*
X2886848Y-1325984D02*
X2905896Y-1335508D01*
X2905896Y-1335508D02*
X2915420Y-1345031D01*
X2915420Y-1345031D02*
X2924944Y-1364079D01*
X2924944Y-1364079D02*
X2934467Y-1402174D01*
X2934467Y-1402174D02*
X2934467Y-1449793D01*
X2934467Y-1449793D02*
X2924944Y-1487888D01*
X2924944Y-1487888D02*
X2915420Y-1506936D01*
X2915420Y-1506936D02*
X2905896Y-1516460D01*
X2905896Y-1516460D02*
X2886848Y-1525984D01*
X2886848Y-1525984D02*
X2867801Y-1525984D01*
X2867801Y-1525984D02*
X2848753Y-1516460D01*
X2848753Y-1516460D02*
X2839229Y-1506936D01*
X2839229Y-1506936D02*
X2829706Y-1487888D01*
X2829706Y-1487888D02*
X2820182Y-1449793D01*
X2820182Y-1449793D02*
X2820182Y-1402174D01*
X2820182Y-1402174D02*
X2829706Y-1364079D01*
X2829706Y-1364079D02*
X2839229Y-1345031D01*
X2839229Y-1345031D02*
X2848753Y-1335508D01*
X2848753Y-1335508D02*
X2867801Y-1325984D01*
X3010658Y-1345031D02*
X3020182Y-1335508D01*
X3020182Y-1335508D02*
X3039229Y-1325984D01*
X3039229Y-1325984D02*
X3086848Y-1325984D01*
X3086848Y-1325984D02*
X3105896Y-1335508D01*
X3105896Y-1335508D02*
X3115420Y-1345031D01*
X3115420Y-1345031D02*
X3124944Y-1364079D01*
X3124944Y-1364079D02*
X3124944Y-1383127D01*
X3124944Y-1383127D02*
X3115420Y-1411698D01*
X3115420Y-1411698D02*
X3001134Y-1525984D01*
X3001134Y-1525984D02*
X3124944Y-1525984D01*
X3201134Y-1325984D02*
X3201134Y-1364079D01*
X3277325Y-1325984D02*
X3277325Y-1364079D01*
X3572563Y-1602174D02*
X3563039Y-1592650D01*
X3563039Y-1592650D02*
X3543991Y-1564079D01*
X3543991Y-1564079D02*
X3534468Y-1545031D01*
X3534468Y-1545031D02*
X3524944Y-1516460D01*
X3524944Y-1516460D02*
X3515420Y-1468841D01*
X3515420Y-1468841D02*
X3515420Y-1430746D01*
X3515420Y-1430746D02*
X3524944Y-1383127D01*
X3524944Y-1383127D02*
X3534468Y-1354555D01*
X3534468Y-1354555D02*
X3543991Y-1335508D01*
X3543991Y-1335508D02*
X3563039Y-1306936D01*
X3563039Y-1306936D02*
X3572563Y-1297412D01*
X3629706Y-1325984D02*
X3753515Y-1325984D01*
X3753515Y-1325984D02*
X3686848Y-1402174D01*
X3686848Y-1402174D02*
X3715420Y-1402174D01*
X3715420Y-1402174D02*
X3734468Y-1411698D01*
X3734468Y-1411698D02*
X3743991Y-1421222D01*
X3743991Y-1421222D02*
X3753515Y-1440269D01*
X3753515Y-1440269D02*
X3753515Y-1487888D01*
X3753515Y-1487888D02*
X3743991Y-1506936D01*
X3743991Y-1506936D02*
X3734468Y-1516460D01*
X3734468Y-1516460D02*
X3715420Y-1525984D01*
X3715420Y-1525984D02*
X3658277Y-1525984D01*
X3658277Y-1525984D02*
X3639229Y-1516460D01*
X3639229Y-1516460D02*
X3629706Y-1506936D01*
X3877325Y-1325984D02*
X3896372Y-1325984D01*
X3896372Y-1325984D02*
X3915420Y-1335508D01*
X3915420Y-1335508D02*
X3924944Y-1345031D01*
X3924944Y-1345031D02*
X3934468Y-1364079D01*
X3934468Y-1364079D02*
X3943991Y-1402174D01*
X3943991Y-1402174D02*
X3943991Y-1449793D01*
X3943991Y-1449793D02*
X3934468Y-1487888D01*
X3934468Y-1487888D02*
X3924944Y-1506936D01*
X3924944Y-1506936D02*
X3915420Y-1516460D01*
X3915420Y-1516460D02*
X3896372Y-1525984D01*
X3896372Y-1525984D02*
X3877325Y-1525984D01*
X3877325Y-1525984D02*
X3858277Y-1516460D01*
X3858277Y-1516460D02*
X3848753Y-1506936D01*
X3848753Y-1506936D02*
X3839229Y-1487888D01*
X3839229Y-1487888D02*
X3829706Y-1449793D01*
X3829706Y-1449793D02*
X3829706Y-1402174D01*
X3829706Y-1402174D02*
X3839229Y-1364079D01*
X3839229Y-1364079D02*
X3848753Y-1345031D01*
X3848753Y-1345031D02*
X3858277Y-1335508D01*
X3858277Y-1335508D02*
X3877325Y-1325984D01*
X4182087Y-1525984D02*
X4182087Y-1325984D01*
X4267801Y-1525984D02*
X4267801Y-1421222D01*
X4267801Y-1421222D02*
X4258277Y-1402174D01*
X4258277Y-1402174D02*
X4239230Y-1392650D01*
X4239230Y-1392650D02*
X4210658Y-1392650D01*
X4210658Y-1392650D02*
X4191610Y-1402174D01*
X4191610Y-1402174D02*
X4182087Y-1411698D01*
X4391611Y-1525984D02*
X4372563Y-1516460D01*
X4372563Y-1516460D02*
X4363039Y-1506936D01*
X4363039Y-1506936D02*
X4353515Y-1487888D01*
X4353515Y-1487888D02*
X4353515Y-1430746D01*
X4353515Y-1430746D02*
X4363039Y-1411698D01*
X4363039Y-1411698D02*
X4372563Y-1402174D01*
X4372563Y-1402174D02*
X4391611Y-1392650D01*
X4391611Y-1392650D02*
X4420182Y-1392650D01*
X4420182Y-1392650D02*
X4439230Y-1402174D01*
X4439230Y-1402174D02*
X4448753Y-1411698D01*
X4448753Y-1411698D02*
X4458277Y-1430746D01*
X4458277Y-1430746D02*
X4458277Y-1487888D01*
X4458277Y-1487888D02*
X4448753Y-1506936D01*
X4448753Y-1506936D02*
X4439230Y-1516460D01*
X4439230Y-1516460D02*
X4420182Y-1525984D01*
X4420182Y-1525984D02*
X4391611Y-1525984D01*
X4572563Y-1525984D02*
X4553515Y-1516460D01*
X4553515Y-1516460D02*
X4543992Y-1497412D01*
X4543992Y-1497412D02*
X4543992Y-1325984D01*
X4724944Y-1516460D02*
X4705896Y-1525984D01*
X4705896Y-1525984D02*
X4667801Y-1525984D01*
X4667801Y-1525984D02*
X4648753Y-1516460D01*
X4648753Y-1516460D02*
X4639230Y-1497412D01*
X4639230Y-1497412D02*
X4639230Y-1421222D01*
X4639230Y-1421222D02*
X4648753Y-1402174D01*
X4648753Y-1402174D02*
X4667801Y-1392650D01*
X4667801Y-1392650D02*
X4705896Y-1392650D01*
X4705896Y-1392650D02*
X4724944Y-1402174D01*
X4724944Y-1402174D02*
X4734468Y-1421222D01*
X4734468Y-1421222D02*
X4734468Y-1440269D01*
X4734468Y-1440269D02*
X4639230Y-1459317D01*
X4810658Y-1516460D02*
X4829706Y-1525984D01*
X4829706Y-1525984D02*
X4867801Y-1525984D01*
X4867801Y-1525984D02*
X4886849Y-1516460D01*
X4886849Y-1516460D02*
X4896373Y-1497412D01*
X4896373Y-1497412D02*
X4896373Y-1487888D01*
X4896373Y-1487888D02*
X4886849Y-1468841D01*
X4886849Y-1468841D02*
X4867801Y-1459317D01*
X4867801Y-1459317D02*
X4839230Y-1459317D01*
X4839230Y-1459317D02*
X4820182Y-1449793D01*
X4820182Y-1449793D02*
X4810658Y-1430746D01*
X4810658Y-1430746D02*
X4810658Y-1421222D01*
X4810658Y-1421222D02*
X4820182Y-1402174D01*
X4820182Y-1402174D02*
X4839230Y-1392650D01*
X4839230Y-1392650D02*
X4867801Y-1392650D01*
X4867801Y-1392650D02*
X4886849Y-1402174D01*
X4963039Y-1602174D02*
X4972563Y-1592650D01*
X4972563Y-1592650D02*
X4991611Y-1564079D01*
X4991611Y-1564079D02*
X5001134Y-1545031D01*
X5001134Y-1545031D02*
X5010658Y-1516460D01*
X5010658Y-1516460D02*
X5020182Y-1468841D01*
X5020182Y-1468841D02*
X5020182Y-1430746D01*
X5020182Y-1430746D02*
X5010658Y-1383127D01*
X5010658Y-1383127D02*
X5001134Y-1354555D01*
X5001134Y-1354555D02*
X4991611Y-1335508D01*
X4991611Y-1335508D02*
X4972563Y-1306936D01*
X4972563Y-1306936D02*
X4963039Y-1297412D01*
X-102500Y-1798500D02*
X-2500Y-1698500D01*
X-102500Y-1598500D01*
X-202500Y-1698500D01*
X-102500Y-1798500D01*
X239229Y-1589984D02*
X363039Y-1589984D01*
X363039Y-1589984D02*
X296372Y-1666174D01*
X296372Y-1666174D02*
X324944Y-1666174D01*
X324944Y-1666174D02*
X343991Y-1675698D01*
X343991Y-1675698D02*
X353515Y-1685222D01*
X353515Y-1685222D02*
X363039Y-1704269D01*
X363039Y-1704269D02*
X363039Y-1751888D01*
X363039Y-1751888D02*
X353515Y-1770936D01*
X353515Y-1770936D02*
X343991Y-1780460D01*
X343991Y-1780460D02*
X324944Y-1789984D01*
X324944Y-1789984D02*
X267801Y-1789984D01*
X267801Y-1789984D02*
X248753Y-1780460D01*
X248753Y-1780460D02*
X239229Y-1770936D01*
X448753Y-1770936D02*
X458277Y-1780460D01*
X458277Y-1780460D02*
X448753Y-1789984D01*
X448753Y-1789984D02*
X439229Y-1780460D01*
X439229Y-1780460D02*
X448753Y-1770936D01*
X448753Y-1770936D02*
X448753Y-1789984D01*
X534467Y-1609031D02*
X543991Y-1599508D01*
X543991Y-1599508D02*
X563039Y-1589984D01*
X563039Y-1589984D02*
X610658Y-1589984D01*
X610658Y-1589984D02*
X629705Y-1599508D01*
X629705Y-1599508D02*
X639229Y-1609031D01*
X639229Y-1609031D02*
X648753Y-1628079D01*
X648753Y-1628079D02*
X648753Y-1647127D01*
X648753Y-1647127D02*
X639229Y-1675698D01*
X639229Y-1675698D02*
X524944Y-1789984D01*
X524944Y-1789984D02*
X648753Y-1789984D01*
X772562Y-1589984D02*
X791610Y-1589984D01*
X791610Y-1589984D02*
X810658Y-1599508D01*
X810658Y-1599508D02*
X820182Y-1609031D01*
X820182Y-1609031D02*
X829705Y-1628079D01*
X829705Y-1628079D02*
X839229Y-1666174D01*
X839229Y-1666174D02*
X839229Y-1713793D01*
X839229Y-1713793D02*
X829705Y-1751888D01*
X829705Y-1751888D02*
X820182Y-1770936D01*
X820182Y-1770936D02*
X810658Y-1780460D01*
X810658Y-1780460D02*
X791610Y-1789984D01*
X791610Y-1789984D02*
X772562Y-1789984D01*
X772562Y-1789984D02*
X753515Y-1780460D01*
X753515Y-1780460D02*
X743991Y-1770936D01*
X743991Y-1770936D02*
X734467Y-1751888D01*
X734467Y-1751888D02*
X724943Y-1713793D01*
X724943Y-1713793D02*
X724943Y-1666174D01*
X724943Y-1666174D02*
X734467Y-1628079D01*
X734467Y-1628079D02*
X743991Y-1609031D01*
X743991Y-1609031D02*
X753515Y-1599508D01*
X753515Y-1599508D02*
X772562Y-1589984D01*
X963039Y-1589984D02*
X982086Y-1589984D01*
X982086Y-1589984D02*
X1001134Y-1599508D01*
X1001134Y-1599508D02*
X1010658Y-1609031D01*
X1010658Y-1609031D02*
X1020182Y-1628079D01*
X1020182Y-1628079D02*
X1029705Y-1666174D01*
X1029705Y-1666174D02*
X1029705Y-1713793D01*
X1029705Y-1713793D02*
X1020182Y-1751888D01*
X1020182Y-1751888D02*
X1010658Y-1770936D01*
X1010658Y-1770936D02*
X1001134Y-1780460D01*
X1001134Y-1780460D02*
X982086Y-1789984D01*
X982086Y-1789984D02*
X963039Y-1789984D01*
X963039Y-1789984D02*
X943991Y-1780460D01*
X943991Y-1780460D02*
X934467Y-1770936D01*
X934467Y-1770936D02*
X924943Y-1751888D01*
X924943Y-1751888D02*
X915420Y-1713793D01*
X915420Y-1713793D02*
X915420Y-1666174D01*
X915420Y-1666174D02*
X924943Y-1628079D01*
X924943Y-1628079D02*
X934467Y-1609031D01*
X934467Y-1609031D02*
X943991Y-1599508D01*
X943991Y-1599508D02*
X963039Y-1589984D01*
X1115420Y-1789984D02*
X1115420Y-1656650D01*
X1115420Y-1675698D02*
X1124944Y-1666174D01*
X1124944Y-1666174D02*
X1143991Y-1656650D01*
X1143991Y-1656650D02*
X1172563Y-1656650D01*
X1172563Y-1656650D02*
X1191610Y-1666174D01*
X1191610Y-1666174D02*
X1201134Y-1685222D01*
X1201134Y-1685222D02*
X1201134Y-1789984D01*
X1201134Y-1685222D02*
X1210658Y-1666174D01*
X1210658Y-1666174D02*
X1229705Y-1656650D01*
X1229705Y-1656650D02*
X1258277Y-1656650D01*
X1258277Y-1656650D02*
X1277325Y-1666174D01*
X1277325Y-1666174D02*
X1286848Y-1685222D01*
X1286848Y-1685222D02*
X1286848Y-1789984D01*
X1382086Y-1789984D02*
X1382086Y-1656650D01*
X1382086Y-1675698D02*
X1391610Y-1666174D01*
X1391610Y-1666174D02*
X1410658Y-1656650D01*
X1410658Y-1656650D02*
X1439229Y-1656650D01*
X1439229Y-1656650D02*
X1458277Y-1666174D01*
X1458277Y-1666174D02*
X1467801Y-1685222D01*
X1467801Y-1685222D02*
X1467801Y-1789984D01*
X1467801Y-1685222D02*
X1477324Y-1666174D01*
X1477324Y-1666174D02*
X1496372Y-1656650D01*
X1496372Y-1656650D02*
X1524943Y-1656650D01*
X1524943Y-1656650D02*
X1543991Y-1666174D01*
X1543991Y-1666174D02*
X1553515Y-1685222D01*
X1553515Y-1685222D02*
X1553515Y-1789984D01*
X1943991Y-1580460D02*
X1772563Y-1837603D01*
X2201134Y-1589984D02*
X2220182Y-1589984D01*
X2220182Y-1589984D02*
X2239229Y-1599508D01*
X2239229Y-1599508D02*
X2248753Y-1609031D01*
X2248753Y-1609031D02*
X2258277Y-1628079D01*
X2258277Y-1628079D02*
X2267801Y-1666174D01*
X2267801Y-1666174D02*
X2267801Y-1713793D01*
X2267801Y-1713793D02*
X2258277Y-1751888D01*
X2258277Y-1751888D02*
X2248753Y-1770936D01*
X2248753Y-1770936D02*
X2239229Y-1780460D01*
X2239229Y-1780460D02*
X2220182Y-1789984D01*
X2220182Y-1789984D02*
X2201134Y-1789984D01*
X2201134Y-1789984D02*
X2182087Y-1780460D01*
X2182087Y-1780460D02*
X2172563Y-1770936D01*
X2172563Y-1770936D02*
X2163039Y-1751888D01*
X2163039Y-1751888D02*
X2153515Y-1713793D01*
X2153515Y-1713793D02*
X2153515Y-1666174D01*
X2153515Y-1666174D02*
X2163039Y-1628079D01*
X2163039Y-1628079D02*
X2172563Y-1609031D01*
X2172563Y-1609031D02*
X2182087Y-1599508D01*
X2182087Y-1599508D02*
X2201134Y-1589984D01*
X2353515Y-1770936D02*
X2363039Y-1780460D01*
X2363039Y-1780460D02*
X2353515Y-1789984D01*
X2353515Y-1789984D02*
X2343991Y-1780460D01*
X2343991Y-1780460D02*
X2353515Y-1770936D01*
X2353515Y-1770936D02*
X2353515Y-1789984D01*
X2553515Y-1789984D02*
X2439229Y-1789984D01*
X2496372Y-1789984D02*
X2496372Y-1589984D01*
X2496372Y-1589984D02*
X2477325Y-1618555D01*
X2477325Y-1618555D02*
X2458277Y-1637603D01*
X2458277Y-1637603D02*
X2439229Y-1647127D01*
X2629706Y-1609031D02*
X2639229Y-1599508D01*
X2639229Y-1599508D02*
X2658277Y-1589984D01*
X2658277Y-1589984D02*
X2705896Y-1589984D01*
X2705896Y-1589984D02*
X2724944Y-1599508D01*
X2724944Y-1599508D02*
X2734468Y-1609031D01*
X2734468Y-1609031D02*
X2743991Y-1628079D01*
X2743991Y-1628079D02*
X2743991Y-1647127D01*
X2743991Y-1647127D02*
X2734468Y-1675698D01*
X2734468Y-1675698D02*
X2620182Y-1789984D01*
X2620182Y-1789984D02*
X2743991Y-1789984D01*
X2915420Y-1589984D02*
X2877325Y-1589984D01*
X2877325Y-1589984D02*
X2858277Y-1599508D01*
X2858277Y-1599508D02*
X2848753Y-1609031D01*
X2848753Y-1609031D02*
X2829706Y-1637603D01*
X2829706Y-1637603D02*
X2820182Y-1675698D01*
X2820182Y-1675698D02*
X2820182Y-1751888D01*
X2820182Y-1751888D02*
X2829706Y-1770936D01*
X2829706Y-1770936D02*
X2839229Y-1780460D01*
X2839229Y-1780460D02*
X2858277Y-1789984D01*
X2858277Y-1789984D02*
X2896372Y-1789984D01*
X2896372Y-1789984D02*
X2915420Y-1780460D01*
X2915420Y-1780460D02*
X2924944Y-1770936D01*
X2924944Y-1770936D02*
X2934467Y-1751888D01*
X2934467Y-1751888D02*
X2934467Y-1704269D01*
X2934467Y-1704269D02*
X2924944Y-1685222D01*
X2924944Y-1685222D02*
X2915420Y-1675698D01*
X2915420Y-1675698D02*
X2896372Y-1666174D01*
X2896372Y-1666174D02*
X2858277Y-1666174D01*
X2858277Y-1666174D02*
X2839229Y-1675698D01*
X2839229Y-1675698D02*
X2829706Y-1685222D01*
X2829706Y-1685222D02*
X2820182Y-1704269D01*
X3058277Y-1589984D02*
X3077325Y-1589984D01*
X3077325Y-1589984D02*
X3096372Y-1599508D01*
X3096372Y-1599508D02*
X3105896Y-1609031D01*
X3105896Y-1609031D02*
X3115420Y-1628079D01*
X3115420Y-1628079D02*
X3124944Y-1666174D01*
X3124944Y-1666174D02*
X3124944Y-1713793D01*
X3124944Y-1713793D02*
X3115420Y-1751888D01*
X3115420Y-1751888D02*
X3105896Y-1770936D01*
X3105896Y-1770936D02*
X3096372Y-1780460D01*
X3096372Y-1780460D02*
X3077325Y-1789984D01*
X3077325Y-1789984D02*
X3058277Y-1789984D01*
X3058277Y-1789984D02*
X3039229Y-1780460D01*
X3039229Y-1780460D02*
X3029706Y-1770936D01*
X3029706Y-1770936D02*
X3020182Y-1751888D01*
X3020182Y-1751888D02*
X3010658Y-1713793D01*
X3010658Y-1713793D02*
X3010658Y-1666174D01*
X3010658Y-1666174D02*
X3020182Y-1628079D01*
X3020182Y-1628079D02*
X3029706Y-1609031D01*
X3029706Y-1609031D02*
X3039229Y-1599508D01*
X3039229Y-1599508D02*
X3058277Y-1589984D01*
X3201134Y-1589984D02*
X3201134Y-1628079D01*
X3277325Y-1589984D02*
X3277325Y-1628079D01*
X3572563Y-1866174D02*
X3563039Y-1856650D01*
X3563039Y-1856650D02*
X3543991Y-1828079D01*
X3543991Y-1828079D02*
X3534468Y-1809031D01*
X3534468Y-1809031D02*
X3524944Y-1780460D01*
X3524944Y-1780460D02*
X3515420Y-1732841D01*
X3515420Y-1732841D02*
X3515420Y-1694746D01*
X3515420Y-1694746D02*
X3524944Y-1647127D01*
X3524944Y-1647127D02*
X3534468Y-1618555D01*
X3534468Y-1618555D02*
X3543991Y-1599508D01*
X3543991Y-1599508D02*
X3563039Y-1570936D01*
X3563039Y-1570936D02*
X3572563Y-1561412D01*
X3629706Y-1589984D02*
X3753515Y-1589984D01*
X3753515Y-1589984D02*
X3686848Y-1666174D01*
X3686848Y-1666174D02*
X3715420Y-1666174D01*
X3715420Y-1666174D02*
X3734468Y-1675698D01*
X3734468Y-1675698D02*
X3743991Y-1685222D01*
X3743991Y-1685222D02*
X3753515Y-1704269D01*
X3753515Y-1704269D02*
X3753515Y-1751888D01*
X3753515Y-1751888D02*
X3743991Y-1770936D01*
X3743991Y-1770936D02*
X3734468Y-1780460D01*
X3734468Y-1780460D02*
X3715420Y-1789984D01*
X3715420Y-1789984D02*
X3658277Y-1789984D01*
X3658277Y-1789984D02*
X3639229Y-1780460D01*
X3639229Y-1780460D02*
X3629706Y-1770936D01*
X3991610Y-1789984D02*
X3991610Y-1589984D01*
X4077325Y-1789984D02*
X4077325Y-1685222D01*
X4077325Y-1685222D02*
X4067801Y-1666174D01*
X4067801Y-1666174D02*
X4048753Y-1656650D01*
X4048753Y-1656650D02*
X4020182Y-1656650D01*
X4020182Y-1656650D02*
X4001134Y-1666174D01*
X4001134Y-1666174D02*
X3991610Y-1675698D01*
X4201134Y-1789984D02*
X4182087Y-1780460D01*
X4182087Y-1780460D02*
X4172563Y-1770936D01*
X4172563Y-1770936D02*
X4163039Y-1751888D01*
X4163039Y-1751888D02*
X4163039Y-1694746D01*
X4163039Y-1694746D02*
X4172563Y-1675698D01*
X4172563Y-1675698D02*
X4182087Y-1666174D01*
X4182087Y-1666174D02*
X4201134Y-1656650D01*
X4201134Y-1656650D02*
X4229706Y-1656650D01*
X4229706Y-1656650D02*
X4248753Y-1666174D01*
X4248753Y-1666174D02*
X4258277Y-1675698D01*
X4258277Y-1675698D02*
X4267801Y-1694746D01*
X4267801Y-1694746D02*
X4267801Y-1751888D01*
X4267801Y-1751888D02*
X4258277Y-1770936D01*
X4258277Y-1770936D02*
X4248753Y-1780460D01*
X4248753Y-1780460D02*
X4229706Y-1789984D01*
X4229706Y-1789984D02*
X4201134Y-1789984D01*
X4382087Y-1789984D02*
X4363039Y-1780460D01*
X4363039Y-1780460D02*
X4353515Y-1761412D01*
X4353515Y-1761412D02*
X4353515Y-1589984D01*
X4534468Y-1780460D02*
X4515420Y-1789984D01*
X4515420Y-1789984D02*
X4477325Y-1789984D01*
X4477325Y-1789984D02*
X4458277Y-1780460D01*
X4458277Y-1780460D02*
X4448753Y-1761412D01*
X4448753Y-1761412D02*
X4448753Y-1685222D01*
X4448753Y-1685222D02*
X4458277Y-1666174D01*
X4458277Y-1666174D02*
X4477325Y-1656650D01*
X4477325Y-1656650D02*
X4515420Y-1656650D01*
X4515420Y-1656650D02*
X4534468Y-1666174D01*
X4534468Y-1666174D02*
X4543992Y-1685222D01*
X4543992Y-1685222D02*
X4543992Y-1704269D01*
X4543992Y-1704269D02*
X4448753Y-1723317D01*
X4620182Y-1780460D02*
X4639230Y-1789984D01*
X4639230Y-1789984D02*
X4677325Y-1789984D01*
X4677325Y-1789984D02*
X4696373Y-1780460D01*
X4696373Y-1780460D02*
X4705896Y-1761412D01*
X4705896Y-1761412D02*
X4705896Y-1751888D01*
X4705896Y-1751888D02*
X4696373Y-1732841D01*
X4696373Y-1732841D02*
X4677325Y-1723317D01*
X4677325Y-1723317D02*
X4648753Y-1723317D01*
X4648753Y-1723317D02*
X4629706Y-1713793D01*
X4629706Y-1713793D02*
X4620182Y-1694746D01*
X4620182Y-1694746D02*
X4620182Y-1685222D01*
X4620182Y-1685222D02*
X4629706Y-1666174D01*
X4629706Y-1666174D02*
X4648753Y-1656650D01*
X4648753Y-1656650D02*
X4677325Y-1656650D01*
X4677325Y-1656650D02*
X4696373Y-1666174D01*
X4772563Y-1866174D02*
X4782087Y-1856650D01*
X4782087Y-1856650D02*
X4801134Y-1828079D01*
X4801134Y-1828079D02*
X4810658Y-1809031D01*
X4810658Y-1809031D02*
X4820182Y-1780460D01*
X4820182Y-1780460D02*
X4829706Y-1732841D01*
X4829706Y-1732841D02*
X4829706Y-1694746D01*
X4829706Y-1694746D02*
X4820182Y-1647127D01*
X4820182Y-1647127D02*
X4810658Y-1618555D01*
X4810658Y-1618555D02*
X4801134Y-1599508D01*
X4801134Y-1599508D02*
X4782087Y-1570936D01*
X4782087Y-1570936D02*
X4772563Y-1561412D01*
X5134468Y-1866174D02*
X5124944Y-1856650D01*
X5124944Y-1856650D02*
X5105896Y-1828079D01*
X5105896Y-1828079D02*
X5096373Y-1809031D01*
X5096373Y-1809031D02*
X5086849Y-1780460D01*
X5086849Y-1780460D02*
X5077325Y-1732841D01*
X5077325Y-1732841D02*
X5077325Y-1694746D01*
X5077325Y-1694746D02*
X5086849Y-1647127D01*
X5086849Y-1647127D02*
X5096373Y-1618555D01*
X5096373Y-1618555D02*
X5105896Y-1599508D01*
X5105896Y-1599508D02*
X5124944Y-1570936D01*
X5124944Y-1570936D02*
X5134468Y-1561412D01*
X5210658Y-1656650D02*
X5210658Y-1789984D01*
X5210658Y-1675698D02*
X5220182Y-1666174D01*
X5220182Y-1666174D02*
X5239230Y-1656650D01*
X5239230Y-1656650D02*
X5267801Y-1656650D01*
X5267801Y-1656650D02*
X5286849Y-1666174D01*
X5286849Y-1666174D02*
X5296373Y-1685222D01*
X5296373Y-1685222D02*
X5296373Y-1789984D01*
X5420182Y-1789984D02*
X5401134Y-1780460D01*
X5401134Y-1780460D02*
X5391611Y-1770936D01*
X5391611Y-1770936D02*
X5382087Y-1751888D01*
X5382087Y-1751888D02*
X5382087Y-1694746D01*
X5382087Y-1694746D02*
X5391611Y-1675698D01*
X5391611Y-1675698D02*
X5401134Y-1666174D01*
X5401134Y-1666174D02*
X5420182Y-1656650D01*
X5420182Y-1656650D02*
X5448754Y-1656650D01*
X5448754Y-1656650D02*
X5467801Y-1666174D01*
X5467801Y-1666174D02*
X5477325Y-1675698D01*
X5477325Y-1675698D02*
X5486849Y-1694746D01*
X5486849Y-1694746D02*
X5486849Y-1751888D01*
X5486849Y-1751888D02*
X5477325Y-1770936D01*
X5477325Y-1770936D02*
X5467801Y-1780460D01*
X5467801Y-1780460D02*
X5448754Y-1789984D01*
X5448754Y-1789984D02*
X5420182Y-1789984D01*
X5543992Y-1656650D02*
X5620182Y-1656650D01*
X5572563Y-1589984D02*
X5572563Y-1761412D01*
X5572563Y-1761412D02*
X5582087Y-1780460D01*
X5582087Y-1780460D02*
X5601134Y-1789984D01*
X5601134Y-1789984D02*
X5620182Y-1789984D01*
X5839230Y-1656650D02*
X5839230Y-1856650D01*
X5839230Y-1666174D02*
X5858277Y-1656650D01*
X5858277Y-1656650D02*
X5896373Y-1656650D01*
X5896373Y-1656650D02*
X5915420Y-1666174D01*
X5915420Y-1666174D02*
X5924944Y-1675698D01*
X5924944Y-1675698D02*
X5934468Y-1694746D01*
X5934468Y-1694746D02*
X5934468Y-1751888D01*
X5934468Y-1751888D02*
X5924944Y-1770936D01*
X5924944Y-1770936D02*
X5915420Y-1780460D01*
X5915420Y-1780460D02*
X5896373Y-1789984D01*
X5896373Y-1789984D02*
X5858277Y-1789984D01*
X5858277Y-1789984D02*
X5839230Y-1780460D01*
X6048753Y-1789984D02*
X6029706Y-1780460D01*
X6029706Y-1780460D02*
X6020182Y-1761412D01*
X6020182Y-1761412D02*
X6020182Y-1589984D01*
X6210658Y-1789984D02*
X6210658Y-1685222D01*
X6210658Y-1685222D02*
X6201134Y-1666174D01*
X6201134Y-1666174D02*
X6182087Y-1656650D01*
X6182087Y-1656650D02*
X6143992Y-1656650D01*
X6143992Y-1656650D02*
X6124944Y-1666174D01*
X6210658Y-1780460D02*
X6191611Y-1789984D01*
X6191611Y-1789984D02*
X6143992Y-1789984D01*
X6143992Y-1789984D02*
X6124944Y-1780460D01*
X6124944Y-1780460D02*
X6115420Y-1761412D01*
X6115420Y-1761412D02*
X6115420Y-1742365D01*
X6115420Y-1742365D02*
X6124944Y-1723317D01*
X6124944Y-1723317D02*
X6143992Y-1713793D01*
X6143992Y-1713793D02*
X6191611Y-1713793D01*
X6191611Y-1713793D02*
X6210658Y-1704269D01*
X6277325Y-1656650D02*
X6353515Y-1656650D01*
X6305896Y-1589984D02*
X6305896Y-1761412D01*
X6305896Y-1761412D02*
X6315420Y-1780460D01*
X6315420Y-1780460D02*
X6334468Y-1789984D01*
X6334468Y-1789984D02*
X6353515Y-1789984D01*
X6496373Y-1780460D02*
X6477325Y-1789984D01*
X6477325Y-1789984D02*
X6439230Y-1789984D01*
X6439230Y-1789984D02*
X6420182Y-1780460D01*
X6420182Y-1780460D02*
X6410658Y-1761412D01*
X6410658Y-1761412D02*
X6410658Y-1685222D01*
X6410658Y-1685222D02*
X6420182Y-1666174D01*
X6420182Y-1666174D02*
X6439230Y-1656650D01*
X6439230Y-1656650D02*
X6477325Y-1656650D01*
X6477325Y-1656650D02*
X6496373Y-1666174D01*
X6496373Y-1666174D02*
X6505896Y-1685222D01*
X6505896Y-1685222D02*
X6505896Y-1704269D01*
X6505896Y-1704269D02*
X6410658Y-1723317D01*
X6677325Y-1789984D02*
X6677325Y-1589984D01*
X6677325Y-1780460D02*
X6658277Y-1789984D01*
X6658277Y-1789984D02*
X6620182Y-1789984D01*
X6620182Y-1789984D02*
X6601134Y-1780460D01*
X6601134Y-1780460D02*
X6591611Y-1770936D01*
X6591611Y-1770936D02*
X6582087Y-1751888D01*
X6582087Y-1751888D02*
X6582087Y-1694746D01*
X6582087Y-1694746D02*
X6591611Y-1675698D01*
X6591611Y-1675698D02*
X6601134Y-1666174D01*
X6601134Y-1666174D02*
X6620182Y-1656650D01*
X6620182Y-1656650D02*
X6658277Y-1656650D01*
X6658277Y-1656650D02*
X6677325Y-1666174D01*
X6753515Y-1866174D02*
X6763039Y-1856650D01*
X6763039Y-1856650D02*
X6782087Y-1828079D01*
X6782087Y-1828079D02*
X6791611Y-1809031D01*
X6791611Y-1809031D02*
X6801134Y-1780460D01*
X6801134Y-1780460D02*
X6810658Y-1732841D01*
X6810658Y-1732841D02*
X6810658Y-1694746D01*
X6810658Y-1694746D02*
X6801134Y-1647127D01*
X6801134Y-1647127D02*
X6791611Y-1618555D01*
X6791611Y-1618555D02*
X6782087Y-1599508D01*
X6782087Y-1599508D02*
X6763039Y-1570936D01*
X6763039Y-1570936D02*
X6753515Y-1561412D01*
M02*
