G04 #@! TF.GenerationSoftware,KiCad,Pcbnew,8.0.4*
G04 #@! TF.CreationDate,2024-08-27T21:55:02+09:00*
G04 #@! TF.ProjectId,MDC,4d44432e-6b69-4636-9164-5f7063625858,rev?*
G04 #@! TF.SameCoordinates,Original*
G04 #@! TF.FileFunction,Copper,L1,Top*
G04 #@! TF.FilePolarity,Positive*
%FSLAX46Y46*%
G04 Gerber Fmt 4.6, Leading zero omitted, Abs format (unit mm)*
G04 Created by KiCad (PCBNEW 8.0.4) date 2024-08-27 21:55:02*
%MOMM*%
%LPD*%
G01*
G04 APERTURE LIST*
G04 Aperture macros list*
%AMRoundRect*
0 Rectangle with rounded corners*
0 $1 Rounding radius*
0 $2 $3 $4 $5 $6 $7 $8 $9 X,Y pos of 4 corners*
0 Add a 4 corners polygon primitive as box body*
4,1,4,$2,$3,$4,$5,$6,$7,$8,$9,$2,$3,0*
0 Add four circle primitives for the rounded corners*
1,1,$1+$1,$2,$3*
1,1,$1+$1,$4,$5*
1,1,$1+$1,$6,$7*
1,1,$1+$1,$8,$9*
0 Add four rect primitives between the rounded corners*
20,1,$1+$1,$2,$3,$4,$5,0*
20,1,$1+$1,$4,$5,$6,$7,0*
20,1,$1+$1,$6,$7,$8,$9,0*
20,1,$1+$1,$8,$9,$2,$3,0*%
G04 Aperture macros list end*
G04 #@! TA.AperFunction,SMDPad,CuDef*
%ADD10R,0.950000X0.900000*%
G04 #@! TD*
G04 #@! TA.AperFunction,SMDPad,CuDef*
%ADD11RoundRect,0.225000X0.250000X-0.225000X0.250000X0.225000X-0.250000X0.225000X-0.250000X-0.225000X0*%
G04 #@! TD*
G04 #@! TA.AperFunction,SMDPad,CuDef*
%ADD12RoundRect,0.225000X-0.225000X-0.250000X0.225000X-0.250000X0.225000X0.250000X-0.225000X0.250000X0*%
G04 #@! TD*
G04 #@! TA.AperFunction,SMDPad,CuDef*
%ADD13RoundRect,0.225000X0.225000X0.250000X-0.225000X0.250000X-0.225000X-0.250000X0.225000X-0.250000X0*%
G04 #@! TD*
G04 #@! TA.AperFunction,SMDPad,CuDef*
%ADD14R,1.525000X0.650000*%
G04 #@! TD*
G04 #@! TA.AperFunction,SMDPad,CuDef*
%ADD15RoundRect,0.225000X-0.250000X0.225000X-0.250000X-0.225000X0.250000X-0.225000X0.250000X0.225000X0*%
G04 #@! TD*
G04 #@! TA.AperFunction,ComponentPad*
%ADD16RoundRect,0.250000X-0.600000X-0.725000X0.600000X-0.725000X0.600000X0.725000X-0.600000X0.725000X0*%
G04 #@! TD*
G04 #@! TA.AperFunction,ComponentPad*
%ADD17O,1.700000X1.950000*%
G04 #@! TD*
G04 #@! TA.AperFunction,SMDPad,CuDef*
%ADD18R,1.500000X0.650000*%
G04 #@! TD*
G04 #@! TA.AperFunction,ComponentPad*
%ADD19R,1.530000X1.530000*%
G04 #@! TD*
G04 #@! TA.AperFunction,ComponentPad*
%ADD20C,1.530000*%
G04 #@! TD*
G04 #@! TA.AperFunction,ComponentPad*
%ADD21R,1.700000X1.700000*%
G04 #@! TD*
G04 #@! TA.AperFunction,ComponentPad*
%ADD22O,1.700000X1.700000*%
G04 #@! TD*
G04 #@! TA.AperFunction,ComponentPad*
%ADD23RoundRect,0.250000X0.600000X0.725000X-0.600000X0.725000X-0.600000X-0.725000X0.600000X-0.725000X0*%
G04 #@! TD*
G04 #@! TA.AperFunction,ViaPad*
%ADD24C,0.600000*%
G04 #@! TD*
G04 #@! TA.AperFunction,Conductor*
%ADD25C,1.000000*%
G04 #@! TD*
G04 #@! TA.AperFunction,Conductor*
%ADD26C,0.200000*%
G04 #@! TD*
G04 APERTURE END LIST*
D10*
X53000000Y-60725000D03*
X53000000Y-62225000D03*
D11*
X53000000Y-65500000D03*
X53000000Y-63950000D03*
D12*
X66950000Y-64000000D03*
X68500000Y-64000000D03*
D13*
X71500000Y-58000000D03*
X69950000Y-58000000D03*
D10*
X85500000Y-51000000D03*
X85500000Y-52500000D03*
D13*
X139500000Y-64500000D03*
X137950000Y-64500000D03*
D14*
X129788000Y-59095000D03*
X129788000Y-60365000D03*
X129788000Y-61635000D03*
X129788000Y-62905000D03*
X135212000Y-62905000D03*
X135212000Y-61635000D03*
X135212000Y-60365000D03*
X135212000Y-59095000D03*
D11*
X135000000Y-52825000D03*
X135000000Y-51275000D03*
D15*
X145000000Y-59950000D03*
X145000000Y-61500000D03*
D11*
X85500000Y-56050000D03*
X85500000Y-54500000D03*
D16*
X69000000Y-52975000D03*
D17*
X71500000Y-52975000D03*
X74000000Y-52975000D03*
X76500000Y-52975000D03*
X79000000Y-52975000D03*
D18*
X137800000Y-59095000D03*
X137800000Y-60365000D03*
X137800000Y-61635000D03*
X137800000Y-62905000D03*
X143200000Y-62905000D03*
X143200000Y-61635000D03*
X143200000Y-60365000D03*
X143200000Y-59095000D03*
D19*
X125940000Y-53500000D03*
D20*
X123400000Y-53500000D03*
X120860000Y-53500000D03*
X118320000Y-53500000D03*
X115780000Y-53500000D03*
X113240000Y-53500000D03*
X110700000Y-53500000D03*
X108160000Y-53500000D03*
X105620000Y-53500000D03*
X103080000Y-53500000D03*
X100540000Y-53500000D03*
X98000000Y-53500000D03*
X95460000Y-53500000D03*
X92920000Y-53500000D03*
X90380000Y-53500000D03*
D19*
X125940000Y-68740000D03*
D20*
X123400000Y-68740000D03*
X120860000Y-68740000D03*
X118320000Y-68740000D03*
X115780000Y-68740000D03*
X113240000Y-68740000D03*
X110700000Y-68740000D03*
X108160000Y-68740000D03*
X105620000Y-68740000D03*
X103080000Y-68740000D03*
X100540000Y-68740000D03*
X98000000Y-68740000D03*
X95460000Y-68740000D03*
X92920000Y-68740000D03*
X90380000Y-68740000D03*
D21*
X58500000Y-72220000D03*
D22*
X61040000Y-72220000D03*
X58500000Y-74760000D03*
X61040000Y-74760000D03*
X58500000Y-77300000D03*
X61040000Y-77300000D03*
X58500000Y-79840000D03*
X61040000Y-79840000D03*
X58500000Y-82380000D03*
X61040000Y-82380000D03*
X58500000Y-84920000D03*
X61040000Y-84920000D03*
X58500000Y-87460000D03*
X61040000Y-87460000D03*
X58500000Y-90000000D03*
X61040000Y-90000000D03*
X58500000Y-92540000D03*
X61040000Y-92540000D03*
X58500000Y-95080000D03*
X61040000Y-95080000D03*
X58500000Y-97620000D03*
X61040000Y-97620000D03*
X58500000Y-100160000D03*
X61040000Y-100160000D03*
X58500000Y-102700000D03*
X61040000Y-102700000D03*
X58500000Y-105240000D03*
X61040000Y-105240000D03*
X58500000Y-107780000D03*
X61040000Y-107780000D03*
X58500000Y-110320000D03*
X61040000Y-110320000D03*
X58500000Y-112860000D03*
X61040000Y-112860000D03*
X58500000Y-115400000D03*
X61040000Y-115400000D03*
X58500000Y-117940000D03*
X61040000Y-117940000D03*
X58500000Y-120480000D03*
X61040000Y-120480000D03*
D16*
X139250000Y-52975000D03*
D17*
X141750000Y-52975000D03*
X144250000Y-52975000D03*
X146750000Y-52975000D03*
D16*
X53000000Y-53000000D03*
D17*
X55500000Y-53000000D03*
X58000000Y-53000000D03*
X60500000Y-53000000D03*
X63000000Y-53000000D03*
D13*
X135000000Y-57000000D03*
X133450000Y-57000000D03*
X131050000Y-65000000D03*
X129500000Y-65000000D03*
D23*
X79500000Y-69000000D03*
D17*
X77000000Y-69000000D03*
X74500000Y-69000000D03*
X72000000Y-69000000D03*
X69500000Y-69000000D03*
X67000000Y-69000000D03*
D13*
X55050000Y-58000000D03*
X53500000Y-58000000D03*
D24*
X64500000Y-102000000D03*
X129500000Y-53500000D03*
X51500000Y-73500000D03*
X53500000Y-51000000D03*
X59000000Y-59000000D03*
X52000000Y-102000000D03*
X58500000Y-122500000D03*
X51500000Y-127000000D03*
X122000000Y-61000000D03*
X63000000Y-108000000D03*
X63000000Y-95500000D03*
X129500000Y-69500000D03*
X62500000Y-113000000D03*
X63000000Y-87500000D03*
X51000000Y-53000000D03*
X65000000Y-127500000D03*
X95500000Y-61000000D03*
X63000000Y-77500000D03*
X53000000Y-55000000D03*
X64500000Y-72500000D03*
X110000000Y-64500000D03*
X114500000Y-61500000D03*
X86500000Y-69500000D03*
X67000000Y-53500000D03*
X56500000Y-120500000D03*
X115500000Y-56000000D03*
X123500000Y-70500000D03*
X123500000Y-67000000D03*
X81000000Y-69500000D03*
X78500000Y-70500000D03*
X69000000Y-55000000D03*
X119500000Y-55000000D03*
X59500000Y-83500000D03*
X118000000Y-58000000D03*
X58000000Y-70000000D03*
X72000000Y-58500000D03*
X130000000Y-71500000D03*
X91500000Y-51835000D03*
X137000000Y-55500000D03*
X140000000Y-67500000D03*
X133500000Y-57000000D03*
X133500000Y-51000000D03*
X134000000Y-67500000D03*
X145500000Y-51000000D03*
X141500000Y-56500000D03*
X135000000Y-51000000D03*
X143500000Y-59000000D03*
X148000000Y-61000000D03*
X148500000Y-51000000D03*
X138000000Y-60500000D03*
X147000000Y-54500000D03*
X148000000Y-57500000D03*
X136500000Y-51000000D03*
X138000000Y-64500000D03*
X148500000Y-71000000D03*
X135500000Y-71000000D03*
X135000000Y-63000000D03*
X141000000Y-61000000D03*
X129500000Y-60500000D03*
X137800000Y-59095000D03*
X135212000Y-61635000D03*
X96500000Y-64400000D03*
X62400000Y-61600000D03*
X94000000Y-64367157D03*
X62000000Y-60500000D03*
X88500000Y-51000000D03*
X99000000Y-65000000D03*
X63000000Y-62400000D03*
X85500000Y-62000000D03*
X108500000Y-66400000D03*
X105500000Y-66000000D03*
X102500000Y-65600000D03*
X95075899Y-51075899D03*
X98000000Y-51835000D03*
D25*
X56700000Y-51300000D02*
X70300000Y-51300000D01*
X55500000Y-53000000D02*
X55500000Y-57400000D01*
X71500000Y-52500000D02*
X71500000Y-52975000D01*
X55500000Y-57400000D02*
X54900000Y-58000000D01*
X55500000Y-52500000D02*
X56700000Y-51300000D01*
X70300000Y-51300000D02*
X71500000Y-52500000D01*
D26*
X118760000Y-68160000D02*
X118760000Y-68740000D01*
D25*
X118320000Y-58320000D02*
X118000000Y-58000000D01*
X54900000Y-66900000D02*
X58000000Y-70000000D01*
X54900000Y-58000000D02*
X54900000Y-66900000D01*
X72000000Y-58500000D02*
X71500000Y-58000000D01*
X71500000Y-58000000D02*
X71500000Y-52975000D01*
X118320000Y-68740000D02*
X118320000Y-58320000D01*
X55500000Y-53000000D02*
X55500000Y-52500000D01*
X61720000Y-69000000D02*
X67000000Y-69000000D01*
X131005500Y-59095000D02*
X129788000Y-59095000D01*
X130000000Y-71500000D02*
X131250500Y-70249500D01*
X131250500Y-70249500D02*
X131250500Y-59340000D01*
X131250500Y-59340000D02*
X131005500Y-59095000D01*
X67000000Y-69000000D02*
X67000000Y-64000000D01*
X58500000Y-72220000D02*
X61720000Y-69000000D01*
D26*
X91755000Y-52090000D02*
X91755000Y-52335000D01*
X91755000Y-52335000D02*
X92920000Y-53500000D01*
X91500000Y-51835000D02*
X91755000Y-52090000D01*
D25*
X139070000Y-58070000D02*
X139250000Y-58250000D01*
X139250000Y-61250000D02*
X138865000Y-61635000D01*
X135212000Y-59095000D02*
X136237000Y-58070000D01*
X139250000Y-58250000D02*
X139250000Y-61250000D01*
X138865000Y-61635000D02*
X137800000Y-61635000D01*
X139500000Y-62130000D02*
X139500000Y-64500000D01*
X139005000Y-61635000D02*
X139500000Y-62130000D01*
X136237000Y-58070000D02*
X139070000Y-58070000D01*
X139250000Y-52975000D02*
X135025000Y-52975000D01*
X135000000Y-53000000D02*
X135000000Y-58883000D01*
X135000000Y-58883000D02*
X135212000Y-59095000D01*
X137800000Y-61635000D02*
X139005000Y-61635000D01*
X135025000Y-52975000D02*
X135000000Y-53000000D01*
D26*
X137405000Y-62905000D02*
X137800000Y-62905000D01*
X135212000Y-60365000D02*
X135649500Y-60365000D01*
X136500000Y-61215500D02*
X136500000Y-62000000D01*
X136500000Y-62000000D02*
X137405000Y-62905000D01*
X135649500Y-60365000D02*
X136500000Y-61215500D01*
X96500000Y-64700000D02*
X100540000Y-68740000D01*
X62600000Y-56000000D02*
X62600000Y-61400000D01*
X62600000Y-61400000D02*
X62400000Y-61600000D01*
X96500000Y-64400000D02*
X96500000Y-64700000D01*
X60500000Y-53000000D02*
X62600000Y-55100000D01*
X62600000Y-55100000D02*
X62600000Y-56000000D01*
X115780000Y-53500000D02*
X123915000Y-61635000D01*
X123915000Y-61635000D02*
X129788000Y-61635000D01*
X58000000Y-53000000D02*
X59275000Y-54275000D01*
X60976346Y-54275000D02*
X62000000Y-55298654D01*
X94000000Y-64367157D02*
X94000000Y-64740000D01*
X59275000Y-54275000D02*
X60976346Y-54275000D01*
X94000000Y-64740000D02*
X98000000Y-68740000D01*
X62000000Y-55298654D02*
X62000000Y-60500000D01*
X88500000Y-51620000D02*
X90380000Y-53500000D01*
X88500000Y-51000000D02*
X88500000Y-51620000D01*
X63000000Y-53000000D02*
X63000000Y-53500000D01*
X63000000Y-53500000D02*
X63000000Y-62400000D01*
X99340000Y-65000000D02*
X103080000Y-68740000D01*
X99000000Y-65000000D02*
X99340000Y-65000000D01*
X85500000Y-56050000D02*
X85500000Y-62000000D01*
X145775000Y-60725000D02*
X145000000Y-61500000D01*
X143335000Y-61500000D02*
X143200000Y-61635000D01*
X144250000Y-52975000D02*
X145775000Y-54500000D01*
X145000000Y-61500000D02*
X143335000Y-61500000D01*
X145775000Y-54500000D02*
X145775000Y-60725000D01*
X141750000Y-52975000D02*
X145000000Y-56225000D01*
X143615000Y-59950000D02*
X143200000Y-60365000D01*
X145000000Y-59950000D02*
X143615000Y-59950000D01*
X145000000Y-56225000D02*
X145000000Y-59950000D01*
X108500000Y-66540000D02*
X110700000Y-68740000D01*
X108500000Y-66400000D02*
X108500000Y-66540000D01*
X105500000Y-66080000D02*
X108160000Y-68740000D01*
X105500000Y-66000000D02*
X105500000Y-66080000D01*
X102500000Y-65600000D02*
X102500000Y-65620000D01*
X102500000Y-65620000D02*
X105620000Y-68740000D01*
X53000000Y-63950000D02*
X53000000Y-62225000D01*
X53000000Y-65500000D02*
X53000000Y-69260000D01*
X53000000Y-69260000D02*
X58500000Y-74760000D01*
X93995000Y-52156798D02*
X93995000Y-54505000D01*
X82500000Y-66000000D02*
X72500000Y-66000000D01*
X93995000Y-54505000D02*
X82500000Y-66000000D01*
X72500000Y-66000000D02*
X69500000Y-69000000D01*
X95075899Y-51075899D02*
X93995000Y-52156798D01*
X77000000Y-69000000D02*
X78275000Y-67725000D01*
X78275000Y-67725000D02*
X83775000Y-67725000D01*
X83775000Y-67725000D02*
X98000000Y-53500000D01*
X94395000Y-55105000D02*
X94395000Y-52605000D01*
X74500000Y-66500000D02*
X83000000Y-66500000D01*
X94395000Y-52605000D02*
X95765000Y-51235000D01*
X95765000Y-51235000D02*
X98275000Y-51235000D01*
X72000000Y-69000000D02*
X74500000Y-66500000D01*
X98275000Y-51235000D02*
X100540000Y-53500000D01*
X83000000Y-66500000D02*
X94395000Y-55105000D01*
X96935000Y-52900000D02*
X98000000Y-51835000D01*
X75000000Y-69000000D02*
X76675000Y-67325000D01*
X96935000Y-53890000D02*
X96935000Y-52900000D01*
X83500000Y-67325000D02*
X96935000Y-53890000D01*
X76675000Y-67325000D02*
X83500000Y-67325000D01*
X74500000Y-69000000D02*
X75000000Y-69000000D01*
X85500000Y-54500000D02*
X85500000Y-52500000D01*
G04 #@! TA.AperFunction,Conductor*
G36*
X136592006Y-59676211D02*
G01*
X136647938Y-59718081D01*
X136692455Y-59777547D01*
X136807664Y-59863793D01*
X136807671Y-59863797D01*
X136942517Y-59914091D01*
X136942516Y-59914091D01*
X136949444Y-59914835D01*
X137002127Y-59920500D01*
X138125500Y-59920499D01*
X138192539Y-59940184D01*
X138238294Y-59992987D01*
X138249500Y-60044499D01*
X138249500Y-60510500D01*
X138229815Y-60577539D01*
X138177011Y-60623294D01*
X138125500Y-60634500D01*
X137701457Y-60634500D01*
X137508170Y-60672947D01*
X137508160Y-60672950D01*
X137326093Y-60748364D01*
X137326077Y-60748373D01*
X137265867Y-60788603D01*
X137199189Y-60809480D01*
X137196979Y-60809500D01*
X137002108Y-60809500D01*
X137001414Y-60809538D01*
X137001257Y-60809500D01*
X136998808Y-60809501D01*
X136998807Y-60808921D01*
X136933421Y-60793451D01*
X136907131Y-60773395D01*
X136511318Y-60377582D01*
X136477833Y-60316259D01*
X136474999Y-60289901D01*
X136474999Y-59992129D01*
X136474998Y-59992123D01*
X136468591Y-59932518D01*
X136468591Y-59932517D01*
X136432489Y-59835724D01*
X136427506Y-59766035D01*
X136460991Y-59704712D01*
X136522314Y-59671227D01*
X136592006Y-59676211D01*
G37*
G04 #@! TD.AperFunction*
G04 #@! TA.AperFunction,Conductor*
G36*
X149442539Y-50520185D02*
G01*
X149488294Y-50572989D01*
X149499500Y-50624500D01*
X149499500Y-71875500D01*
X149479815Y-71942539D01*
X149427011Y-71988294D01*
X149375500Y-71999500D01*
X135050862Y-71999500D01*
X134983823Y-71979815D01*
X134963181Y-71963181D01*
X132536319Y-69536319D01*
X132502834Y-69474996D01*
X132500000Y-69448638D01*
X132500000Y-67108711D01*
X143999500Y-67108711D01*
X143999500Y-67351288D01*
X144031161Y-67591785D01*
X144093947Y-67826104D01*
X144186773Y-68050205D01*
X144186776Y-68050212D01*
X144308064Y-68260289D01*
X144308066Y-68260292D01*
X144308067Y-68260293D01*
X144455733Y-68452736D01*
X144455739Y-68452743D01*
X144627256Y-68624260D01*
X144627262Y-68624265D01*
X144819711Y-68771936D01*
X145029788Y-68893224D01*
X145253900Y-68986054D01*
X145488211Y-69048838D01*
X145668586Y-69072584D01*
X145728711Y-69080500D01*
X145728712Y-69080500D01*
X145971289Y-69080500D01*
X146019388Y-69074167D01*
X146211789Y-69048838D01*
X146446100Y-68986054D01*
X146670212Y-68893224D01*
X146880289Y-68771936D01*
X147072738Y-68624265D01*
X147244265Y-68452738D01*
X147391936Y-68260289D01*
X147513224Y-68050212D01*
X147606054Y-67826100D01*
X147668838Y-67591789D01*
X147700500Y-67351288D01*
X147700500Y-67108712D01*
X147668838Y-66868211D01*
X147606054Y-66633900D01*
X147513224Y-66409788D01*
X147391936Y-66199711D01*
X147244265Y-66007262D01*
X147244260Y-66007256D01*
X147072743Y-65835739D01*
X147072736Y-65835733D01*
X146880293Y-65688067D01*
X146880292Y-65688066D01*
X146880289Y-65688064D01*
X146670212Y-65566776D01*
X146670205Y-65566773D01*
X146446104Y-65473947D01*
X146328944Y-65442554D01*
X146211789Y-65411162D01*
X146211788Y-65411161D01*
X146211785Y-65411161D01*
X145971289Y-65379500D01*
X145971288Y-65379500D01*
X145728712Y-65379500D01*
X145728711Y-65379500D01*
X145488214Y-65411161D01*
X145253895Y-65473947D01*
X145029794Y-65566773D01*
X145029785Y-65566777D01*
X144819706Y-65688067D01*
X144627263Y-65835733D01*
X144627256Y-65835739D01*
X144455739Y-66007256D01*
X144455733Y-66007263D01*
X144308067Y-66199706D01*
X144186777Y-66409785D01*
X144186773Y-66409794D01*
X144093947Y-66633895D01*
X144031161Y-66868214D01*
X143999500Y-67108711D01*
X132500000Y-67108711D01*
X132500000Y-58722127D01*
X133949000Y-58722127D01*
X133949000Y-58722134D01*
X133949000Y-58722135D01*
X133949000Y-59467870D01*
X133949001Y-59467876D01*
X133955408Y-59527483D01*
X134005702Y-59662328D01*
X134009954Y-59670114D01*
X134006780Y-59671846D01*
X134025159Y-59721302D01*
X134010225Y-59789557D01*
X134009617Y-59790502D01*
X134005702Y-59797671D01*
X133955410Y-59932513D01*
X133955409Y-59932517D01*
X133949000Y-59992127D01*
X133949000Y-59992134D01*
X133949000Y-59992135D01*
X133949000Y-60737870D01*
X133949001Y-60737876D01*
X133955408Y-60797483D01*
X134005702Y-60932328D01*
X134009954Y-60940114D01*
X134006780Y-60941846D01*
X134025159Y-60991302D01*
X134010225Y-61059557D01*
X134009617Y-61060502D01*
X134005702Y-61067671D01*
X133955410Y-61202513D01*
X133955409Y-61202517D01*
X133949000Y-61262127D01*
X133949000Y-61262134D01*
X133949000Y-61262135D01*
X133949000Y-62007870D01*
X133949001Y-62007876D01*
X133955408Y-62067483D01*
X134005702Y-62202328D01*
X134005706Y-62202335D01*
X134091952Y-62317544D01*
X134091955Y-62317547D01*
X134207164Y-62403793D01*
X134207171Y-62403797D01*
X134342017Y-62454091D01*
X134342016Y-62454091D01*
X134348944Y-62454835D01*
X134401627Y-62460500D01*
X136022372Y-62460499D01*
X136022375Y-62460498D01*
X136022385Y-62460498D01*
X136043647Y-62458212D01*
X136112407Y-62470616D01*
X136144585Y-62493820D01*
X136513181Y-62862416D01*
X136546666Y-62923739D01*
X136549500Y-62950097D01*
X136549500Y-63277869D01*
X136549501Y-63277876D01*
X136555908Y-63337483D01*
X136606202Y-63472328D01*
X136606206Y-63472335D01*
X136692452Y-63587544D01*
X136692455Y-63587547D01*
X136807664Y-63673793D01*
X136807671Y-63673797D01*
X136942517Y-63724091D01*
X136942516Y-63724091D01*
X136949444Y-63724835D01*
X137002127Y-63730500D01*
X138375500Y-63730499D01*
X138442539Y-63750184D01*
X138488294Y-63802987D01*
X138499500Y-63854499D01*
X138499500Y-64598541D01*
X138499500Y-64598543D01*
X138499499Y-64598543D01*
X138537948Y-64791833D01*
X138537950Y-64791840D01*
X138545449Y-64809946D01*
X138554244Y-64844789D01*
X138559651Y-64897709D01*
X138612996Y-65058694D01*
X138613001Y-65058705D01*
X138702029Y-65203040D01*
X138702032Y-65203044D01*
X138821955Y-65322967D01*
X138821959Y-65322970D01*
X138966294Y-65411998D01*
X138966297Y-65411999D01*
X138966303Y-65412003D01*
X139127292Y-65465349D01*
X139226655Y-65475500D01*
X139263563Y-65475499D01*
X139287754Y-65477881D01*
X139353596Y-65490979D01*
X139401458Y-65500500D01*
X139401459Y-65500500D01*
X139598543Y-65500500D01*
X139712247Y-65477882D01*
X139736439Y-65475499D01*
X139773338Y-65475499D01*
X139773344Y-65475499D01*
X139773352Y-65475498D01*
X139773355Y-65475498D01*
X139827760Y-65469940D01*
X139872708Y-65465349D01*
X140033697Y-65412003D01*
X140178044Y-65322968D01*
X140297968Y-65203044D01*
X140387003Y-65058697D01*
X140440349Y-64897708D01*
X140445755Y-64844788D01*
X140454550Y-64809942D01*
X140462051Y-64791835D01*
X140500500Y-64598541D01*
X140500500Y-62031459D01*
X140491164Y-61984522D01*
X140462052Y-61838165D01*
X140403173Y-61696020D01*
X140386632Y-61656086D01*
X140386628Y-61656080D01*
X140277139Y-61492217D01*
X140273274Y-61487508D01*
X140274421Y-61486566D01*
X140244464Y-61431704D01*
X140244013Y-61381154D01*
X140250500Y-61348543D01*
X140250500Y-58151456D01*
X140250499Y-58151454D01*
X140214696Y-57971460D01*
X140212051Y-57958164D01*
X140137493Y-57778165D01*
X140137492Y-57778161D01*
X140136634Y-57776089D01*
X140136631Y-57776084D01*
X140027140Y-57612219D01*
X140027139Y-57612218D01*
X139887782Y-57472861D01*
X139887780Y-57472860D01*
X139880714Y-57465793D01*
X139880711Y-57465791D01*
X139847140Y-57432219D01*
X139847139Y-57432218D01*
X139707782Y-57292861D01*
X139707781Y-57292860D01*
X139707780Y-57292859D01*
X139543920Y-57183371D01*
X139543911Y-57183366D01*
X139471315Y-57153296D01*
X139415165Y-57130038D01*
X139361836Y-57107949D01*
X139361832Y-57107948D01*
X139361828Y-57107946D01*
X139265188Y-57088724D01*
X139168544Y-57069500D01*
X139168541Y-57069500D01*
X136138459Y-57069500D01*
X136138450Y-57069500D01*
X136136641Y-57069678D01*
X136135703Y-57069500D01*
X136132367Y-57069500D01*
X136132367Y-57068866D01*
X136067996Y-57056652D01*
X136017291Y-57008582D01*
X136000500Y-56946274D01*
X136000500Y-54099500D01*
X136020185Y-54032461D01*
X136072989Y-53986706D01*
X136124500Y-53975500D01*
X137868942Y-53975500D01*
X137935981Y-53995185D01*
X137974479Y-54034401D01*
X138057288Y-54168656D01*
X138181344Y-54292712D01*
X138330666Y-54384814D01*
X138497203Y-54439999D01*
X138599991Y-54450500D01*
X139900008Y-54450499D01*
X140002797Y-54439999D01*
X140169334Y-54384814D01*
X140318656Y-54292712D01*
X140442712Y-54168656D01*
X140534814Y-54019334D01*
X140534814Y-54019331D01*
X140538178Y-54013879D01*
X140590126Y-53967154D01*
X140659088Y-53955931D01*
X140723170Y-53983774D01*
X140731398Y-53991294D01*
X140870213Y-54130109D01*
X141042179Y-54255048D01*
X141042181Y-54255049D01*
X141042184Y-54255051D01*
X141231588Y-54351557D01*
X141433757Y-54417246D01*
X141643713Y-54450500D01*
X141643714Y-54450500D01*
X141856286Y-54450500D01*
X141856287Y-54450500D01*
X142066243Y-54417246D01*
X142202873Y-54372851D01*
X142272708Y-54370856D01*
X142328867Y-54403102D01*
X144363181Y-56437416D01*
X144396666Y-56498739D01*
X144399500Y-56525097D01*
X144399500Y-59019574D01*
X144379815Y-59086613D01*
X144340598Y-59125112D01*
X144296957Y-59152030D01*
X144177030Y-59271958D01*
X144165535Y-59290596D01*
X144113588Y-59337321D01*
X144059996Y-59349500D01*
X143701670Y-59349500D01*
X143701654Y-59349499D01*
X143694058Y-59349499D01*
X143535943Y-59349499D01*
X143459579Y-59369961D01*
X143383214Y-59390423D01*
X143383209Y-59390426D01*
X143246283Y-59469479D01*
X143212580Y-59503182D01*
X143151257Y-59536667D01*
X143124900Y-59539500D01*
X142402129Y-59539500D01*
X142402123Y-59539501D01*
X142342516Y-59545908D01*
X142207671Y-59596202D01*
X142207664Y-59596206D01*
X142092455Y-59682452D01*
X142092452Y-59682455D01*
X142006206Y-59797664D01*
X142006202Y-59797671D01*
X141955910Y-59932513D01*
X141955909Y-59932517D01*
X141949500Y-59992127D01*
X141949500Y-59992134D01*
X141949500Y-59992135D01*
X141949500Y-60737870D01*
X141949501Y-60737876D01*
X141955908Y-60797483D01*
X142006202Y-60932328D01*
X142010454Y-60940114D01*
X142007280Y-60941846D01*
X142025659Y-60991302D01*
X142010725Y-61059557D01*
X142010117Y-61060502D01*
X142006202Y-61067671D01*
X141955910Y-61202513D01*
X141955909Y-61202517D01*
X141949500Y-61262127D01*
X141949500Y-61262134D01*
X141949500Y-61262135D01*
X141949500Y-62007870D01*
X141949501Y-62007876D01*
X141955908Y-62067483D01*
X142006202Y-62202328D01*
X142010454Y-62210114D01*
X142007280Y-62211846D01*
X142025659Y-62261302D01*
X142010725Y-62329557D01*
X142010117Y-62330502D01*
X142006202Y-62337671D01*
X141956618Y-62470616D01*
X141955909Y-62472517D01*
X141949500Y-62532127D01*
X141949500Y-62532134D01*
X141949500Y-62532135D01*
X141949500Y-63277870D01*
X141949501Y-63277876D01*
X141955908Y-63337483D01*
X142006202Y-63472328D01*
X142006206Y-63472335D01*
X142092452Y-63587544D01*
X142092455Y-63587547D01*
X142207664Y-63673793D01*
X142207671Y-63673797D01*
X142342517Y-63724091D01*
X142342516Y-63724091D01*
X142349444Y-63724835D01*
X142402127Y-63730500D01*
X143997872Y-63730499D01*
X144057483Y-63724091D01*
X144192331Y-63673796D01*
X144307546Y-63587546D01*
X144393796Y-63472331D01*
X144444091Y-63337483D01*
X144450500Y-63277873D01*
X144450499Y-62561208D01*
X144470183Y-62494170D01*
X144522987Y-62448415D01*
X144592146Y-62438471D01*
X144600453Y-62439956D01*
X144602285Y-62440348D01*
X144602290Y-62440348D01*
X144602292Y-62440349D01*
X144701655Y-62450500D01*
X145298344Y-62450499D01*
X145298352Y-62450498D01*
X145298355Y-62450498D01*
X145352760Y-62444940D01*
X145397708Y-62440349D01*
X145558697Y-62387003D01*
X145703044Y-62297968D01*
X145822968Y-62178044D01*
X145912003Y-62033697D01*
X145965349Y-61872708D01*
X145975500Y-61773345D01*
X145975499Y-61425096D01*
X145995183Y-61358058D01*
X146011809Y-61337425D01*
X146255520Y-61093716D01*
X146334577Y-60956784D01*
X146375501Y-60804057D01*
X146375501Y-60645942D01*
X146375501Y-60638347D01*
X146375500Y-60638329D01*
X146375500Y-54589060D01*
X146375501Y-54589047D01*
X146375501Y-54420944D01*
X146375501Y-54420943D01*
X146334577Y-54268216D01*
X146326975Y-54255048D01*
X146255524Y-54131290D01*
X146255518Y-54131282D01*
X145932052Y-53807816D01*
X145608260Y-53484025D01*
X145574776Y-53422703D01*
X145573469Y-53376951D01*
X145600500Y-53206287D01*
X145600500Y-52743713D01*
X145567246Y-52533757D01*
X145501557Y-52331588D01*
X145405051Y-52142184D01*
X145405049Y-52142181D01*
X145405048Y-52142179D01*
X145280109Y-51970213D01*
X145129786Y-51819890D01*
X144957820Y-51694951D01*
X144768414Y-51598444D01*
X144768413Y-51598443D01*
X144768412Y-51598443D01*
X144566243Y-51532754D01*
X144566241Y-51532753D01*
X144566240Y-51532753D01*
X144404957Y-51507208D01*
X144356287Y-51499500D01*
X144143713Y-51499500D01*
X144095042Y-51507208D01*
X143933760Y-51532753D01*
X143731585Y-51598444D01*
X143542179Y-51694951D01*
X143370213Y-51819890D01*
X143219894Y-51970209D01*
X143219890Y-51970214D01*
X143100318Y-52134793D01*
X143044989Y-52177459D01*
X142975375Y-52183438D01*
X142913580Y-52150833D01*
X142899682Y-52134793D01*
X142780109Y-51970214D01*
X142780105Y-51970209D01*
X142629786Y-51819890D01*
X142457820Y-51694951D01*
X142268414Y-51598444D01*
X142268413Y-51598443D01*
X142268412Y-51598443D01*
X142066243Y-51532754D01*
X142066241Y-51532753D01*
X142066240Y-51532753D01*
X141904957Y-51507208D01*
X141856287Y-51499500D01*
X141643713Y-51499500D01*
X141595042Y-51507208D01*
X141433760Y-51532753D01*
X141231585Y-51598444D01*
X141042179Y-51694951D01*
X140870215Y-51819889D01*
X140731398Y-51958706D01*
X140670075Y-51992190D01*
X140600383Y-51987206D01*
X140544450Y-51945334D01*
X140538178Y-51936120D01*
X140442712Y-51781344D01*
X140318657Y-51657289D01*
X140318656Y-51657288D01*
X140169334Y-51565186D01*
X140002797Y-51510001D01*
X140002795Y-51510000D01*
X139900010Y-51499500D01*
X138599998Y-51499500D01*
X138599981Y-51499501D01*
X138497203Y-51510000D01*
X138497200Y-51510001D01*
X138330668Y-51565185D01*
X138330663Y-51565187D01*
X138181342Y-51657289D01*
X138057289Y-51781342D01*
X137974481Y-51915597D01*
X137922533Y-51962321D01*
X137868942Y-51974500D01*
X135653043Y-51974500D01*
X135587946Y-51956038D01*
X135570592Y-51945334D01*
X135558701Y-51937999D01*
X135558698Y-51937997D01*
X135558697Y-51937997D01*
X135491098Y-51915597D01*
X135397709Y-51884651D01*
X135298346Y-51874500D01*
X134701662Y-51874500D01*
X134701644Y-51874501D01*
X134602292Y-51884650D01*
X134602289Y-51884651D01*
X134441305Y-51937996D01*
X134441294Y-51938001D01*
X134296959Y-52027029D01*
X134296955Y-52027032D01*
X134177032Y-52146955D01*
X134177029Y-52146959D01*
X134088001Y-52291294D01*
X134087996Y-52291305D01*
X134034651Y-52452290D01*
X134024500Y-52551647D01*
X134024500Y-52763563D01*
X134022117Y-52787754D01*
X133999500Y-52901455D01*
X133999500Y-58521930D01*
X133991681Y-58565263D01*
X133955409Y-58662517D01*
X133949000Y-58722127D01*
X132500000Y-58722127D01*
X132500000Y-51551362D01*
X132519685Y-51484323D01*
X132536319Y-51463681D01*
X133463181Y-50536819D01*
X133524504Y-50503334D01*
X133550862Y-50500500D01*
X149375500Y-50500500D01*
X149442539Y-50520185D01*
G37*
G04 #@! TD.AperFunction*
G04 #@! TA.AperFunction,Conductor*
G36*
X55852255Y-50520185D02*
G01*
X55898010Y-50572989D01*
X55907954Y-50642147D01*
X55878929Y-50705703D01*
X55872897Y-50712181D01*
X54954798Y-51630280D01*
X54923413Y-51653083D01*
X54792182Y-51719949D01*
X54620213Y-51844890D01*
X54469890Y-51995213D01*
X54344951Y-52167179D01*
X54248444Y-52356585D01*
X54182753Y-52558760D01*
X54149500Y-52768713D01*
X54149500Y-53231286D01*
X54182140Y-53437371D01*
X54182754Y-53441243D01*
X54246938Y-53638781D01*
X54248444Y-53643414D01*
X54344951Y-53832820D01*
X54472759Y-54008734D01*
X54471888Y-54009366D01*
X54498357Y-54068401D01*
X54499500Y-54085199D01*
X54499500Y-56934217D01*
X54479815Y-57001256D01*
X54463181Y-57021898D01*
X54371712Y-57113367D01*
X54262221Y-57222858D01*
X54262218Y-57222861D01*
X54192538Y-57292540D01*
X54122859Y-57362219D01*
X54013368Y-57526085D01*
X54006422Y-57542857D01*
X54006420Y-57542861D01*
X53937949Y-57708163D01*
X53937949Y-57708164D01*
X53924811Y-57774211D01*
X53899500Y-57901455D01*
X53899500Y-61221684D01*
X53879815Y-61288723D01*
X53827011Y-61334478D01*
X53757853Y-61344422D01*
X53725840Y-61333767D01*
X53725641Y-61334303D01*
X53582482Y-61280908D01*
X53582483Y-61280908D01*
X53522883Y-61274501D01*
X53522881Y-61274500D01*
X53522873Y-61274500D01*
X53522864Y-61274500D01*
X52477129Y-61274500D01*
X52477123Y-61274501D01*
X52417516Y-61280908D01*
X52282671Y-61331202D01*
X52282664Y-61331206D01*
X52167455Y-61417452D01*
X52167452Y-61417455D01*
X52081206Y-61532664D01*
X52081202Y-61532671D01*
X52030908Y-61667517D01*
X52024501Y-61727116D01*
X52024500Y-61727135D01*
X52024500Y-62722870D01*
X52024501Y-62722876D01*
X52030908Y-62782483D01*
X52081202Y-62917328D01*
X52081206Y-62917335D01*
X52167452Y-63032544D01*
X52167453Y-63032545D01*
X52195289Y-63053384D01*
X52237159Y-63109318D01*
X52242142Y-63179010D01*
X52208658Y-63240329D01*
X52177032Y-63271954D01*
X52177029Y-63271959D01*
X52088001Y-63416294D01*
X52087996Y-63416305D01*
X52034651Y-63577290D01*
X52024500Y-63676647D01*
X52024500Y-64223337D01*
X52024501Y-64223355D01*
X52034650Y-64322707D01*
X52034651Y-64322710D01*
X52087996Y-64483694D01*
X52088001Y-64483705D01*
X52177029Y-64628040D01*
X52177032Y-64628044D01*
X52186307Y-64637319D01*
X52219792Y-64698642D01*
X52214808Y-64768334D01*
X52186307Y-64812681D01*
X52177032Y-64821955D01*
X52177029Y-64821959D01*
X52088001Y-64966294D01*
X52087996Y-64966305D01*
X52034651Y-65127290D01*
X52024500Y-65226647D01*
X52024500Y-65773337D01*
X52024501Y-65773355D01*
X52034650Y-65872707D01*
X52034651Y-65872710D01*
X52087996Y-66033694D01*
X52088001Y-66033705D01*
X52177029Y-66178040D01*
X52177032Y-66178044D01*
X52296956Y-66297968D01*
X52340597Y-66324886D01*
X52387321Y-66376832D01*
X52399500Y-66430424D01*
X52399500Y-69173330D01*
X52399499Y-69173348D01*
X52399499Y-69339054D01*
X52399498Y-69339054D01*
X52399499Y-69339057D01*
X52440423Y-69491785D01*
X52459546Y-69524906D01*
X52499502Y-69594112D01*
X52519479Y-69628715D01*
X52638349Y-69747585D01*
X52638355Y-69747590D01*
X57167233Y-74276469D01*
X57200718Y-74337792D01*
X57199327Y-74396243D01*
X57164938Y-74524586D01*
X57164936Y-74524596D01*
X57144341Y-74759999D01*
X57144341Y-74760000D01*
X57164936Y-74995403D01*
X57164938Y-74995413D01*
X57226094Y-75223655D01*
X57226096Y-75223659D01*
X57226097Y-75223663D01*
X57230000Y-75232032D01*
X57325965Y-75437830D01*
X57325967Y-75437834D01*
X57434281Y-75592521D01*
X57461501Y-75631396D01*
X57461506Y-75631402D01*
X57628597Y-75798493D01*
X57628603Y-75798498D01*
X57814158Y-75928425D01*
X57857783Y-75983002D01*
X57864977Y-76052500D01*
X57833454Y-76114855D01*
X57814158Y-76131575D01*
X57628597Y-76261505D01*
X57461505Y-76428597D01*
X57325965Y-76622169D01*
X57325964Y-76622171D01*
X57226098Y-76836335D01*
X57226094Y-76836344D01*
X57164938Y-77064586D01*
X57164936Y-77064596D01*
X57144341Y-77299999D01*
X57144341Y-77300000D01*
X57164936Y-77535403D01*
X57164938Y-77535413D01*
X57226094Y-77763655D01*
X57226096Y-77763659D01*
X57226097Y-77763663D01*
X57325965Y-77977830D01*
X57325967Y-77977834D01*
X57461501Y-78171395D01*
X57461506Y-78171402D01*
X57628597Y-78338493D01*
X57628603Y-78338498D01*
X57814158Y-78468425D01*
X57857783Y-78523002D01*
X57864977Y-78592500D01*
X57833454Y-78654855D01*
X57814158Y-78671575D01*
X57628597Y-78801505D01*
X57461505Y-78968597D01*
X57325965Y-79162169D01*
X57325964Y-79162171D01*
X57226098Y-79376335D01*
X57226094Y-79376344D01*
X57164938Y-79604586D01*
X57164936Y-79604596D01*
X57144341Y-79839999D01*
X57144341Y-79840000D01*
X57164936Y-80075403D01*
X57164938Y-80075413D01*
X57226094Y-80303655D01*
X57226096Y-80303659D01*
X57226097Y-80303663D01*
X57230000Y-80312032D01*
X57325965Y-80517830D01*
X57325967Y-80517834D01*
X57434281Y-80672521D01*
X57461505Y-80711401D01*
X57628599Y-80878495D01*
X57725384Y-80946265D01*
X57822165Y-81014032D01*
X57822167Y-81014033D01*
X57822170Y-81014035D01*
X58036337Y-81113903D01*
X58264592Y-81175063D01*
X58452918Y-81191539D01*
X58499999Y-81195659D01*
X58500000Y-81195659D01*
X58500001Y-81195659D01*
X58539234Y-81192226D01*
X58735408Y-81175063D01*
X58963663Y-81113903D01*
X59177830Y-81014035D01*
X59371401Y-80878495D01*
X59538495Y-80711401D01*
X59668425Y-80525842D01*
X59723002Y-80482217D01*
X59792500Y-80475023D01*
X59854855Y-80506546D01*
X59871575Y-80525842D01*
X60001501Y-80711396D01*
X60001506Y-80711402D01*
X60168597Y-80878493D01*
X60168603Y-80878498D01*
X60354158Y-81008425D01*
X60397783Y-81063002D01*
X60404977Y-81132500D01*
X60373454Y-81194855D01*
X60354158Y-81211575D01*
X60168597Y-81341505D01*
X60001505Y-81508597D01*
X59865965Y-81702169D01*
X59865964Y-81702171D01*
X59766098Y-81916335D01*
X59766094Y-81916344D01*
X59704938Y-82144586D01*
X59704936Y-82144596D01*
X59684341Y-82379999D01*
X59684341Y-82380000D01*
X59704936Y-82615403D01*
X59704938Y-82615413D01*
X59766094Y-82843655D01*
X59766096Y-82843659D01*
X59766097Y-82843663D01*
X59865965Y-83057830D01*
X59865967Y-83057834D01*
X60001501Y-83251395D01*
X60001506Y-83251402D01*
X60168597Y-83418493D01*
X60168603Y-83418498D01*
X60354158Y-83548425D01*
X60397783Y-83603002D01*
X60404977Y-83672500D01*
X60373454Y-83734855D01*
X60354158Y-83751575D01*
X60168597Y-83881505D01*
X60001505Y-84048597D01*
X59871575Y-84234158D01*
X59816998Y-84277783D01*
X59747500Y-84284977D01*
X59685145Y-84253454D01*
X59668425Y-84234158D01*
X59538494Y-84048597D01*
X59371402Y-83881506D01*
X59371395Y-83881501D01*
X59177834Y-83745967D01*
X59177830Y-83745965D01*
X59177828Y-83745964D01*
X58963663Y-83646097D01*
X58963659Y-83646096D01*
X58963655Y-83646094D01*
X58735413Y-83584938D01*
X58735403Y-83584936D01*
X58500001Y-83564341D01*
X58499999Y-83564341D01*
X58264596Y-83584936D01*
X58264586Y-83584938D01*
X58036344Y-83646094D01*
X58036335Y-83646098D01*
X57822171Y-83745964D01*
X57822169Y-83745965D01*
X57628597Y-83881505D01*
X57461505Y-84048597D01*
X57325965Y-84242169D01*
X57325964Y-84242171D01*
X57226098Y-84456335D01*
X57226094Y-84456344D01*
X57164938Y-84684586D01*
X57164936Y-84684596D01*
X57144341Y-84919999D01*
X57144341Y-84920000D01*
X57164936Y-85155403D01*
X57164938Y-85155413D01*
X57226094Y-85383655D01*
X57226096Y-85383659D01*
X57226097Y-85383663D01*
X57230000Y-85392032D01*
X57325965Y-85597830D01*
X57325967Y-85597834D01*
X57434281Y-85752521D01*
X57461501Y-85791396D01*
X57461506Y-85791402D01*
X57628597Y-85958493D01*
X57628603Y-85958498D01*
X57814158Y-86088425D01*
X57857783Y-86143002D01*
X57864977Y-86212500D01*
X57833454Y-86274855D01*
X57814158Y-86291575D01*
X57628597Y-86421505D01*
X57461505Y-86588597D01*
X57325965Y-86782169D01*
X57325964Y-86782171D01*
X57226098Y-86996335D01*
X57226094Y-86996344D01*
X57164938Y-87224586D01*
X57164936Y-87224596D01*
X57144341Y-87459999D01*
X57144341Y-87460000D01*
X57164936Y-87695403D01*
X57164938Y-87695413D01*
X57226094Y-87923655D01*
X57226096Y-87923659D01*
X57226097Y-87923663D01*
X57325965Y-88137830D01*
X57325967Y-88137834D01*
X57461501Y-88331395D01*
X57461506Y-88331402D01*
X57628597Y-88498493D01*
X57628603Y-88498498D01*
X57814158Y-88628425D01*
X57857783Y-88683002D01*
X57864977Y-88752500D01*
X57833454Y-88814855D01*
X57814158Y-88831575D01*
X57628597Y-88961505D01*
X57461505Y-89128597D01*
X57325965Y-89322169D01*
X57325964Y-89322171D01*
X57226098Y-89536335D01*
X57226094Y-89536344D01*
X57164938Y-89764586D01*
X57164936Y-89764596D01*
X57144341Y-89999999D01*
X57144341Y-90000000D01*
X57164936Y-90235403D01*
X57164938Y-90235413D01*
X57226094Y-90463655D01*
X57226096Y-90463659D01*
X57226097Y-90463663D01*
X57230000Y-90472032D01*
X57325965Y-90677830D01*
X57325967Y-90677834D01*
X57434281Y-90832521D01*
X57461501Y-90871396D01*
X57461506Y-90871402D01*
X57628597Y-91038493D01*
X57628603Y-91038498D01*
X57814158Y-91168425D01*
X57857783Y-91223002D01*
X57864977Y-91292500D01*
X57833454Y-91354855D01*
X57814158Y-91371575D01*
X57628597Y-91501505D01*
X57461505Y-91668597D01*
X57325965Y-91862169D01*
X57325964Y-91862171D01*
X57226098Y-92076335D01*
X57226094Y-92076344D01*
X57164938Y-92304586D01*
X57164936Y-92304596D01*
X57144341Y-92539999D01*
X57144341Y-92540000D01*
X57164936Y-92775403D01*
X57164938Y-92775413D01*
X57226094Y-93003655D01*
X57226096Y-93003659D01*
X57226097Y-93003663D01*
X57230000Y-93012032D01*
X57325965Y-93217830D01*
X57325967Y-93217834D01*
X57434281Y-93372521D01*
X57461501Y-93411396D01*
X57461506Y-93411402D01*
X57628597Y-93578493D01*
X57628603Y-93578498D01*
X57814158Y-93708425D01*
X57857783Y-93763002D01*
X57864977Y-93832500D01*
X57833454Y-93894855D01*
X57814158Y-93911575D01*
X57628597Y-94041505D01*
X57461505Y-94208597D01*
X57325965Y-94402169D01*
X57325964Y-94402171D01*
X57226098Y-94616335D01*
X57226094Y-94616344D01*
X57164938Y-94844586D01*
X57164936Y-94844596D01*
X57144341Y-95079999D01*
X57144341Y-95080000D01*
X57164936Y-95315403D01*
X57164938Y-95315413D01*
X57226094Y-95543655D01*
X57226096Y-95543659D01*
X57226097Y-95543663D01*
X57325965Y-95757830D01*
X57325967Y-95757834D01*
X57461501Y-95951395D01*
X57461506Y-95951402D01*
X57628597Y-96118493D01*
X57628603Y-96118498D01*
X57814158Y-96248425D01*
X57857783Y-96303002D01*
X57864977Y-96372500D01*
X57833454Y-96434855D01*
X57814158Y-96451575D01*
X57628597Y-96581505D01*
X57461505Y-96748597D01*
X57325965Y-96942169D01*
X57325964Y-96942171D01*
X57226098Y-97156335D01*
X57226094Y-97156344D01*
X57164938Y-97384586D01*
X57164936Y-97384596D01*
X57144341Y-97619999D01*
X57144341Y-97620000D01*
X57164936Y-97855403D01*
X57164938Y-97855413D01*
X57226094Y-98083655D01*
X57226096Y-98083659D01*
X57226097Y-98083663D01*
X57230000Y-98092032D01*
X57325965Y-98297830D01*
X57325967Y-98297834D01*
X57434281Y-98452521D01*
X57461501Y-98491396D01*
X57461506Y-98491402D01*
X57628597Y-98658493D01*
X57628603Y-98658498D01*
X57814158Y-98788425D01*
X57857783Y-98843002D01*
X57864977Y-98912500D01*
X57833454Y-98974855D01*
X57814158Y-98991575D01*
X57628597Y-99121505D01*
X57461505Y-99288597D01*
X57325965Y-99482169D01*
X57325964Y-99482171D01*
X57226098Y-99696335D01*
X57226094Y-99696344D01*
X57164938Y-99924586D01*
X57164936Y-99924596D01*
X57144341Y-100159999D01*
X57144341Y-100160000D01*
X57164936Y-100395403D01*
X57164938Y-100395413D01*
X57226094Y-100623655D01*
X57226096Y-100623659D01*
X57226097Y-100623663D01*
X57230000Y-100632032D01*
X57325965Y-100837830D01*
X57325967Y-100837834D01*
X57434281Y-100992521D01*
X57461505Y-101031401D01*
X57628599Y-101198495D01*
X57725384Y-101266265D01*
X57822165Y-101334032D01*
X57822167Y-101334033D01*
X57822170Y-101334035D01*
X58036337Y-101433903D01*
X58264592Y-101495063D01*
X58452918Y-101511539D01*
X58499999Y-101515659D01*
X58500000Y-101515659D01*
X58500001Y-101515659D01*
X58539234Y-101512226D01*
X58735408Y-101495063D01*
X58963663Y-101433903D01*
X59177830Y-101334035D01*
X59371401Y-101198495D01*
X59538495Y-101031401D01*
X59668425Y-100845842D01*
X59723002Y-100802217D01*
X59792500Y-100795023D01*
X59854855Y-100826546D01*
X59871575Y-100845842D01*
X60001501Y-101031396D01*
X60001506Y-101031402D01*
X60168597Y-101198493D01*
X60168603Y-101198498D01*
X60354158Y-101328425D01*
X60397783Y-101383002D01*
X60404977Y-101452500D01*
X60373454Y-101514855D01*
X60354158Y-101531575D01*
X60168597Y-101661505D01*
X60001505Y-101828597D01*
X59865965Y-102022169D01*
X59865964Y-102022171D01*
X59766098Y-102236335D01*
X59766094Y-102236344D01*
X59704938Y-102464586D01*
X59704936Y-102464596D01*
X59684341Y-102699999D01*
X59684341Y-102700000D01*
X59704936Y-102935403D01*
X59704938Y-102935413D01*
X59766094Y-103163655D01*
X59766096Y-103163659D01*
X59766097Y-103163663D01*
X59865965Y-103377830D01*
X59865967Y-103377834D01*
X60001501Y-103571395D01*
X60001506Y-103571402D01*
X60168597Y-103738493D01*
X60168603Y-103738498D01*
X60354158Y-103868425D01*
X60397783Y-103923002D01*
X60404977Y-103992500D01*
X60373454Y-104054855D01*
X60354158Y-104071575D01*
X60168597Y-104201505D01*
X60001505Y-104368597D01*
X59871575Y-104554158D01*
X59816998Y-104597783D01*
X59747500Y-104604977D01*
X59685145Y-104573454D01*
X59668425Y-104554158D01*
X59538494Y-104368597D01*
X59371402Y-104201506D01*
X59371395Y-104201501D01*
X59177834Y-104065967D01*
X59177830Y-104065965D01*
X59177828Y-104065964D01*
X58963663Y-103966097D01*
X58963659Y-103966096D01*
X58963655Y-103966094D01*
X58735413Y-103904938D01*
X58735403Y-103904936D01*
X58500001Y-103884341D01*
X58499999Y-103884341D01*
X58264596Y-103904936D01*
X58264586Y-103904938D01*
X58036344Y-103966094D01*
X58036335Y-103966098D01*
X57822171Y-104065964D01*
X57822169Y-104065965D01*
X57628597Y-104201505D01*
X57461505Y-104368597D01*
X57325965Y-104562169D01*
X57325964Y-104562171D01*
X57226098Y-104776335D01*
X57226094Y-104776344D01*
X57164938Y-105004586D01*
X57164936Y-105004596D01*
X57144341Y-105239999D01*
X57144341Y-105240000D01*
X57164936Y-105475403D01*
X57164938Y-105475413D01*
X57226094Y-105703655D01*
X57226096Y-105703659D01*
X57226097Y-105703663D01*
X57230000Y-105712032D01*
X57325965Y-105917830D01*
X57325967Y-105917834D01*
X57434281Y-106072521D01*
X57461501Y-106111396D01*
X57461506Y-106111402D01*
X57628597Y-106278493D01*
X57628603Y-106278498D01*
X57814158Y-106408425D01*
X57857783Y-106463002D01*
X57864977Y-106532500D01*
X57833454Y-106594855D01*
X57814158Y-106611575D01*
X57628597Y-106741505D01*
X57461505Y-106908597D01*
X57325965Y-107102169D01*
X57325964Y-107102171D01*
X57226098Y-107316335D01*
X57226094Y-107316344D01*
X57164938Y-107544586D01*
X57164936Y-107544596D01*
X57144341Y-107779999D01*
X57144341Y-107780000D01*
X57164936Y-108015403D01*
X57164938Y-108015413D01*
X57226094Y-108243655D01*
X57226096Y-108243659D01*
X57226097Y-108243663D01*
X57325965Y-108457830D01*
X57325967Y-108457834D01*
X57461501Y-108651395D01*
X57461506Y-108651402D01*
X57628597Y-108818493D01*
X57628603Y-108818498D01*
X57814158Y-108948425D01*
X57857783Y-109003002D01*
X57864977Y-109072500D01*
X57833454Y-109134855D01*
X57814158Y-109151575D01*
X57628597Y-109281505D01*
X57461505Y-109448597D01*
X57325965Y-109642169D01*
X57325964Y-109642171D01*
X57226098Y-109856335D01*
X57226094Y-109856344D01*
X57164938Y-110084586D01*
X57164936Y-110084596D01*
X57144341Y-110319999D01*
X57144341Y-110320000D01*
X57164936Y-110555403D01*
X57164938Y-110555413D01*
X57226094Y-110783655D01*
X57226096Y-110783659D01*
X57226097Y-110783663D01*
X57230000Y-110792032D01*
X57325965Y-110997830D01*
X57325967Y-110997834D01*
X57434281Y-111152521D01*
X57461501Y-111191396D01*
X57461506Y-111191402D01*
X57628597Y-111358493D01*
X57628603Y-111358498D01*
X57814158Y-111488425D01*
X57857783Y-111543002D01*
X57864977Y-111612500D01*
X57833454Y-111674855D01*
X57814158Y-111691575D01*
X57628597Y-111821505D01*
X57461505Y-111988597D01*
X57325965Y-112182169D01*
X57325964Y-112182171D01*
X57226098Y-112396335D01*
X57226094Y-112396344D01*
X57164938Y-112624586D01*
X57164936Y-112624596D01*
X57144341Y-112859999D01*
X57144341Y-112860000D01*
X57164936Y-113095403D01*
X57164938Y-113095413D01*
X57226094Y-113323655D01*
X57226096Y-113323659D01*
X57226097Y-113323663D01*
X57325965Y-113537830D01*
X57325967Y-113537834D01*
X57461501Y-113731395D01*
X57461506Y-113731402D01*
X57628597Y-113898493D01*
X57628603Y-113898498D01*
X57814158Y-114028425D01*
X57857783Y-114083002D01*
X57864977Y-114152500D01*
X57833454Y-114214855D01*
X57814158Y-114231575D01*
X57628597Y-114361505D01*
X57461505Y-114528597D01*
X57325965Y-114722169D01*
X57325964Y-114722171D01*
X57226098Y-114936335D01*
X57226094Y-114936344D01*
X57164938Y-115164586D01*
X57164936Y-115164596D01*
X57144341Y-115399999D01*
X57144341Y-115400000D01*
X57164936Y-115635403D01*
X57164938Y-115635413D01*
X57226094Y-115863655D01*
X57226096Y-115863659D01*
X57226097Y-115863663D01*
X57230000Y-115872032D01*
X57325965Y-116077830D01*
X57325967Y-116077834D01*
X57434281Y-116232521D01*
X57461501Y-116271396D01*
X57461506Y-116271402D01*
X57628597Y-116438493D01*
X57628603Y-116438498D01*
X57814158Y-116568425D01*
X57857783Y-116623002D01*
X57864977Y-116692500D01*
X57833454Y-116754855D01*
X57814158Y-116771575D01*
X57628597Y-116901505D01*
X57461505Y-117068597D01*
X57325965Y-117262169D01*
X57325964Y-117262171D01*
X57226098Y-117476335D01*
X57226094Y-117476344D01*
X57164938Y-117704586D01*
X57164936Y-117704596D01*
X57144341Y-117939999D01*
X57144341Y-117940000D01*
X57164936Y-118175403D01*
X57164938Y-118175413D01*
X57226094Y-118403655D01*
X57226096Y-118403659D01*
X57226097Y-118403663D01*
X57230000Y-118412032D01*
X57325965Y-118617830D01*
X57325967Y-118617834D01*
X57434281Y-118772521D01*
X57461505Y-118811401D01*
X57628599Y-118978495D01*
X57725384Y-119046265D01*
X57822165Y-119114032D01*
X57822167Y-119114033D01*
X57822170Y-119114035D01*
X58036337Y-119213903D01*
X58264592Y-119275063D01*
X58452918Y-119291539D01*
X58499999Y-119295659D01*
X58500000Y-119295659D01*
X58500001Y-119295659D01*
X58539234Y-119292226D01*
X58735408Y-119275063D01*
X58963663Y-119213903D01*
X59177830Y-119114035D01*
X59371401Y-118978495D01*
X59538495Y-118811401D01*
X59668425Y-118625842D01*
X59723002Y-118582217D01*
X59792500Y-118575023D01*
X59854855Y-118606546D01*
X59871575Y-118625842D01*
X60001501Y-118811396D01*
X60001506Y-118811402D01*
X60168597Y-118978493D01*
X60168603Y-118978498D01*
X60354158Y-119108425D01*
X60397783Y-119163002D01*
X60404977Y-119232500D01*
X60373454Y-119294855D01*
X60354158Y-119311575D01*
X60168597Y-119441505D01*
X60001505Y-119608597D01*
X59865965Y-119802169D01*
X59865964Y-119802171D01*
X59766098Y-120016335D01*
X59766094Y-120016344D01*
X59704938Y-120244586D01*
X59704936Y-120244596D01*
X59684341Y-120479999D01*
X59684341Y-120480000D01*
X59704936Y-120715403D01*
X59704938Y-120715413D01*
X59766094Y-120943655D01*
X59766096Y-120943659D01*
X59766097Y-120943663D01*
X59865965Y-121157830D01*
X59865967Y-121157834D01*
X59974281Y-121312521D01*
X60001505Y-121351401D01*
X60168599Y-121518495D01*
X60265384Y-121586265D01*
X60362165Y-121654032D01*
X60362167Y-121654033D01*
X60362170Y-121654035D01*
X60576337Y-121753903D01*
X60804592Y-121815063D01*
X60992918Y-121831539D01*
X61039999Y-121835659D01*
X61040000Y-121835659D01*
X61040001Y-121835659D01*
X61079234Y-121832226D01*
X61275408Y-121815063D01*
X61503663Y-121753903D01*
X61717830Y-121654035D01*
X61911401Y-121518495D01*
X62078495Y-121351401D01*
X62214035Y-121157830D01*
X62313903Y-120943663D01*
X62375063Y-120715408D01*
X62395659Y-120480000D01*
X62375063Y-120244592D01*
X62313903Y-120016337D01*
X62214035Y-119802171D01*
X62078495Y-119608599D01*
X62078494Y-119608597D01*
X61911402Y-119441506D01*
X61911396Y-119441501D01*
X61725842Y-119311575D01*
X61682217Y-119256998D01*
X61675023Y-119187500D01*
X61706546Y-119125145D01*
X61725842Y-119108425D01*
X61748026Y-119092891D01*
X61911401Y-118978495D01*
X62078495Y-118811401D01*
X62214035Y-118617830D01*
X62313903Y-118403663D01*
X62375063Y-118175408D01*
X62395659Y-117940000D01*
X62375063Y-117704592D01*
X62313903Y-117476337D01*
X62214035Y-117262171D01*
X62208425Y-117254158D01*
X62078494Y-117068597D01*
X61911402Y-116901506D01*
X61911396Y-116901501D01*
X61725842Y-116771575D01*
X61682217Y-116716998D01*
X61675023Y-116647500D01*
X61706546Y-116585145D01*
X61725842Y-116568425D01*
X61748026Y-116552891D01*
X61911401Y-116438495D01*
X62078495Y-116271401D01*
X62214035Y-116077830D01*
X62313903Y-115863663D01*
X62375063Y-115635408D01*
X62395659Y-115400000D01*
X62375063Y-115164592D01*
X62313903Y-114936337D01*
X62214035Y-114722171D01*
X62208425Y-114714158D01*
X62078494Y-114528597D01*
X61911402Y-114361506D01*
X61911395Y-114361501D01*
X61717834Y-114225967D01*
X61717830Y-114225965D01*
X61717828Y-114225964D01*
X61503663Y-114126097D01*
X61503659Y-114126096D01*
X61503655Y-114126094D01*
X61275413Y-114064938D01*
X61275403Y-114064936D01*
X61040001Y-114044341D01*
X61039999Y-114044341D01*
X60804596Y-114064936D01*
X60804586Y-114064938D01*
X60576344Y-114126094D01*
X60576335Y-114126098D01*
X60362171Y-114225964D01*
X60362169Y-114225965D01*
X60168597Y-114361505D01*
X60001505Y-114528597D01*
X59871575Y-114714158D01*
X59816998Y-114757783D01*
X59747500Y-114764977D01*
X59685145Y-114733454D01*
X59668425Y-114714158D01*
X59538494Y-114528597D01*
X59371402Y-114361506D01*
X59371396Y-114361501D01*
X59185842Y-114231575D01*
X59142217Y-114176998D01*
X59135023Y-114107500D01*
X59166546Y-114045145D01*
X59185842Y-114028425D01*
X59208026Y-114012891D01*
X59371401Y-113898495D01*
X59538495Y-113731401D01*
X59674035Y-113537830D01*
X59773903Y-113323663D01*
X59835063Y-113095408D01*
X59855659Y-112860000D01*
X59835063Y-112624592D01*
X59773903Y-112396337D01*
X59674035Y-112182171D01*
X59538495Y-111988599D01*
X59538494Y-111988597D01*
X59371402Y-111821506D01*
X59371396Y-111821501D01*
X59185842Y-111691575D01*
X59142217Y-111636998D01*
X59135023Y-111567500D01*
X59166546Y-111505145D01*
X59185842Y-111488425D01*
X59208026Y-111472891D01*
X59371401Y-111358495D01*
X59538495Y-111191401D01*
X59668425Y-111005842D01*
X59723002Y-110962217D01*
X59792500Y-110955023D01*
X59854855Y-110986546D01*
X59871575Y-111005842D01*
X60001500Y-111191395D01*
X60001505Y-111191401D01*
X60168599Y-111358495D01*
X60265384Y-111426265D01*
X60362165Y-111494032D01*
X60362167Y-111494033D01*
X60362170Y-111494035D01*
X60576337Y-111593903D01*
X60804592Y-111655063D01*
X60992918Y-111671539D01*
X61039999Y-111675659D01*
X61040000Y-111675659D01*
X61040001Y-111675659D01*
X61079234Y-111672226D01*
X61275408Y-111655063D01*
X61503663Y-111593903D01*
X61717830Y-111494035D01*
X61911401Y-111358495D01*
X62078495Y-111191401D01*
X62214035Y-110997830D01*
X62313903Y-110783663D01*
X62375063Y-110555408D01*
X62395659Y-110320000D01*
X62375063Y-110084592D01*
X62313903Y-109856337D01*
X62214035Y-109642171D01*
X62208425Y-109634158D01*
X62078494Y-109448597D01*
X61911402Y-109281506D01*
X61911395Y-109281501D01*
X61717834Y-109145967D01*
X61717830Y-109145965D01*
X61717828Y-109145964D01*
X61503663Y-109046097D01*
X61503659Y-109046096D01*
X61503655Y-109046094D01*
X61275413Y-108984938D01*
X61275403Y-108984936D01*
X61040001Y-108964341D01*
X61039999Y-108964341D01*
X60804596Y-108984936D01*
X60804586Y-108984938D01*
X60576344Y-109046094D01*
X60576335Y-109046098D01*
X60362171Y-109145964D01*
X60362169Y-109145965D01*
X60168597Y-109281505D01*
X60001505Y-109448597D01*
X59871575Y-109634158D01*
X59816998Y-109677783D01*
X59747500Y-109684977D01*
X59685145Y-109653454D01*
X59668425Y-109634158D01*
X59538494Y-109448597D01*
X59371402Y-109281506D01*
X59371396Y-109281501D01*
X59185842Y-109151575D01*
X59142217Y-109096998D01*
X59135023Y-109027500D01*
X59166546Y-108965145D01*
X59185842Y-108948425D01*
X59208026Y-108932891D01*
X59371401Y-108818495D01*
X59538495Y-108651401D01*
X59674035Y-108457830D01*
X59773903Y-108243663D01*
X59835063Y-108015408D01*
X59855659Y-107780000D01*
X59835063Y-107544592D01*
X59773903Y-107316337D01*
X59674035Y-107102171D01*
X59538495Y-106908599D01*
X59538494Y-106908597D01*
X59371402Y-106741506D01*
X59371396Y-106741501D01*
X59185842Y-106611575D01*
X59142217Y-106556998D01*
X59135023Y-106487500D01*
X59166546Y-106425145D01*
X59185842Y-106408425D01*
X59208026Y-106392891D01*
X59371401Y-106278495D01*
X59538495Y-106111401D01*
X59668425Y-105925842D01*
X59723002Y-105882217D01*
X59792500Y-105875023D01*
X59854855Y-105906546D01*
X59871575Y-105925842D01*
X60001500Y-106111395D01*
X60001505Y-106111401D01*
X60168599Y-106278495D01*
X60265384Y-106346265D01*
X60362165Y-106414032D01*
X60362167Y-106414033D01*
X60362170Y-106414035D01*
X60576337Y-106513903D01*
X60804592Y-106575063D01*
X60992918Y-106591539D01*
X61039999Y-106595659D01*
X61040000Y-106595659D01*
X61040001Y-106595659D01*
X61079234Y-106592226D01*
X61275408Y-106575063D01*
X61503663Y-106513903D01*
X61717830Y-106414035D01*
X61911401Y-106278495D01*
X62078495Y-106111401D01*
X62214035Y-105917830D01*
X62313903Y-105703663D01*
X62375063Y-105475408D01*
X62395659Y-105240000D01*
X62375063Y-105004592D01*
X62313903Y-104776337D01*
X62214035Y-104562171D01*
X62208425Y-104554158D01*
X62078494Y-104368597D01*
X61911402Y-104201506D01*
X61911396Y-104201501D01*
X61725842Y-104071575D01*
X61682217Y-104016998D01*
X61675023Y-103947500D01*
X61706546Y-103885145D01*
X61725842Y-103868425D01*
X61748026Y-103852891D01*
X61911401Y-103738495D01*
X62078495Y-103571401D01*
X62214035Y-103377830D01*
X62313903Y-103163663D01*
X62375063Y-102935408D01*
X62395659Y-102700000D01*
X62375063Y-102464592D01*
X62313903Y-102236337D01*
X62214035Y-102022171D01*
X62078495Y-101828599D01*
X62078494Y-101828597D01*
X61911402Y-101661506D01*
X61911396Y-101661501D01*
X61725842Y-101531575D01*
X61682217Y-101476998D01*
X61675023Y-101407500D01*
X61706546Y-101345145D01*
X61725842Y-101328425D01*
X61748026Y-101312891D01*
X61911401Y-101198495D01*
X62078495Y-101031401D01*
X62214035Y-100837830D01*
X62313903Y-100623663D01*
X62375063Y-100395408D01*
X62395659Y-100160000D01*
X62375063Y-99924592D01*
X62313903Y-99696337D01*
X62214035Y-99482171D01*
X62208425Y-99474158D01*
X62078494Y-99288597D01*
X61911402Y-99121506D01*
X61911396Y-99121501D01*
X61725842Y-98991575D01*
X61682217Y-98936998D01*
X61675023Y-98867500D01*
X61706546Y-98805145D01*
X61725842Y-98788425D01*
X61748026Y-98772891D01*
X61911401Y-98658495D01*
X62078495Y-98491401D01*
X62214035Y-98297830D01*
X62313903Y-98083663D01*
X62375063Y-97855408D01*
X62395659Y-97620000D01*
X62375063Y-97384592D01*
X62313903Y-97156337D01*
X62214035Y-96942171D01*
X62208425Y-96934158D01*
X62078494Y-96748597D01*
X61911402Y-96581506D01*
X61911395Y-96581501D01*
X61717834Y-96445967D01*
X61717830Y-96445965D01*
X61717828Y-96445964D01*
X61503663Y-96346097D01*
X61503659Y-96346096D01*
X61503655Y-96346094D01*
X61275413Y-96284938D01*
X61275403Y-96284936D01*
X61040001Y-96264341D01*
X61039999Y-96264341D01*
X60804596Y-96284936D01*
X60804586Y-96284938D01*
X60576344Y-96346094D01*
X60576335Y-96346098D01*
X60362171Y-96445964D01*
X60362169Y-96445965D01*
X60168597Y-96581505D01*
X60001505Y-96748597D01*
X59871575Y-96934158D01*
X59816998Y-96977783D01*
X59747500Y-96984977D01*
X59685145Y-96953454D01*
X59668425Y-96934158D01*
X59538494Y-96748597D01*
X59371402Y-96581506D01*
X59371396Y-96581501D01*
X59185842Y-96451575D01*
X59142217Y-96396998D01*
X59135023Y-96327500D01*
X59166546Y-96265145D01*
X59185842Y-96248425D01*
X59208026Y-96232891D01*
X59371401Y-96118495D01*
X59538495Y-95951401D01*
X59674035Y-95757830D01*
X59773903Y-95543663D01*
X59835063Y-95315408D01*
X59855659Y-95080000D01*
X59835063Y-94844592D01*
X59773903Y-94616337D01*
X59674035Y-94402171D01*
X59538495Y-94208599D01*
X59538494Y-94208597D01*
X59371402Y-94041506D01*
X59371396Y-94041501D01*
X59185842Y-93911575D01*
X59142217Y-93856998D01*
X59135023Y-93787500D01*
X59166546Y-93725145D01*
X59185842Y-93708425D01*
X59208026Y-93692891D01*
X59371401Y-93578495D01*
X59538495Y-93411401D01*
X59668425Y-93225842D01*
X59723002Y-93182217D01*
X59792500Y-93175023D01*
X59854855Y-93206546D01*
X59871575Y-93225842D01*
X60001500Y-93411395D01*
X60001505Y-93411401D01*
X60168599Y-93578495D01*
X60265384Y-93646265D01*
X60362165Y-93714032D01*
X60362167Y-93714033D01*
X60362170Y-93714035D01*
X60576337Y-93813903D01*
X60804592Y-93875063D01*
X60992918Y-93891539D01*
X61039999Y-93895659D01*
X61040000Y-93895659D01*
X61040001Y-93895659D01*
X61079234Y-93892226D01*
X61275408Y-93875063D01*
X61503663Y-93813903D01*
X61717830Y-93714035D01*
X61911401Y-93578495D01*
X62078495Y-93411401D01*
X62214035Y-93217830D01*
X62313903Y-93003663D01*
X62375063Y-92775408D01*
X62395659Y-92540000D01*
X62375063Y-92304592D01*
X62313903Y-92076337D01*
X62214035Y-91862171D01*
X62208425Y-91854158D01*
X62078494Y-91668597D01*
X61911402Y-91501506D01*
X61911396Y-91501501D01*
X61725842Y-91371575D01*
X61682217Y-91316998D01*
X61675023Y-91247500D01*
X61706546Y-91185145D01*
X61725842Y-91168425D01*
X61748026Y-91152891D01*
X61911401Y-91038495D01*
X62078495Y-90871401D01*
X62214035Y-90677830D01*
X62313903Y-90463663D01*
X62375063Y-90235408D01*
X62395659Y-90000000D01*
X62375063Y-89764592D01*
X62313903Y-89536337D01*
X62214035Y-89322171D01*
X62208425Y-89314158D01*
X62078494Y-89128597D01*
X61911402Y-88961506D01*
X61911395Y-88961501D01*
X61717834Y-88825967D01*
X61717830Y-88825965D01*
X61717828Y-88825964D01*
X61503663Y-88726097D01*
X61503659Y-88726096D01*
X61503655Y-88726094D01*
X61275413Y-88664938D01*
X61275403Y-88664936D01*
X61040001Y-88644341D01*
X61039999Y-88644341D01*
X60804596Y-88664936D01*
X60804586Y-88664938D01*
X60576344Y-88726094D01*
X60576335Y-88726098D01*
X60362171Y-88825964D01*
X60362169Y-88825965D01*
X60168597Y-88961505D01*
X60001505Y-89128597D01*
X59871575Y-89314158D01*
X59816998Y-89357783D01*
X59747500Y-89364977D01*
X59685145Y-89333454D01*
X59668425Y-89314158D01*
X59538494Y-89128597D01*
X59371402Y-88961506D01*
X59371396Y-88961501D01*
X59185842Y-88831575D01*
X59142217Y-88776998D01*
X59135023Y-88707500D01*
X59166546Y-88645145D01*
X59185842Y-88628425D01*
X59208026Y-88612891D01*
X59371401Y-88498495D01*
X59538495Y-88331401D01*
X59674035Y-88137830D01*
X59773903Y-87923663D01*
X59835063Y-87695408D01*
X59855659Y-87460000D01*
X59835063Y-87224592D01*
X59773903Y-86996337D01*
X59674035Y-86782171D01*
X59538495Y-86588599D01*
X59538494Y-86588597D01*
X59371402Y-86421506D01*
X59371396Y-86421501D01*
X59185842Y-86291575D01*
X59142217Y-86236998D01*
X59135023Y-86167500D01*
X59166546Y-86105145D01*
X59185842Y-86088425D01*
X59208026Y-86072891D01*
X59371401Y-85958495D01*
X59538495Y-85791401D01*
X59668425Y-85605842D01*
X59723002Y-85562217D01*
X59792500Y-85555023D01*
X59854855Y-85586546D01*
X59871575Y-85605842D01*
X60001500Y-85791395D01*
X60001505Y-85791401D01*
X60168599Y-85958495D01*
X60265384Y-86026265D01*
X60362165Y-86094032D01*
X60362167Y-86094033D01*
X60362170Y-86094035D01*
X60576337Y-86193903D01*
X60804592Y-86255063D01*
X60992918Y-86271539D01*
X61039999Y-86275659D01*
X61040000Y-86275659D01*
X61040001Y-86275659D01*
X61079234Y-86272226D01*
X61275408Y-86255063D01*
X61503663Y-86193903D01*
X61717830Y-86094035D01*
X61911401Y-85958495D01*
X62078495Y-85791401D01*
X62214035Y-85597830D01*
X62313903Y-85383663D01*
X62375063Y-85155408D01*
X62395659Y-84920000D01*
X62375063Y-84684592D01*
X62313903Y-84456337D01*
X62214035Y-84242171D01*
X62208425Y-84234158D01*
X62078494Y-84048597D01*
X61911402Y-83881506D01*
X61911396Y-83881501D01*
X61725842Y-83751575D01*
X61682217Y-83696998D01*
X61675023Y-83627500D01*
X61706546Y-83565145D01*
X61725842Y-83548425D01*
X61748026Y-83532891D01*
X61911401Y-83418495D01*
X62078495Y-83251401D01*
X62214035Y-83057830D01*
X62313903Y-82843663D01*
X62375063Y-82615408D01*
X62395659Y-82380000D01*
X62375063Y-82144592D01*
X62313903Y-81916337D01*
X62214035Y-81702171D01*
X62078495Y-81508599D01*
X62078494Y-81508597D01*
X61911402Y-81341506D01*
X61911396Y-81341501D01*
X61725842Y-81211575D01*
X61682217Y-81156998D01*
X61675023Y-81087500D01*
X61706546Y-81025145D01*
X61725842Y-81008425D01*
X61748026Y-80992891D01*
X61911401Y-80878495D01*
X62078495Y-80711401D01*
X62214035Y-80517830D01*
X62313903Y-80303663D01*
X62375063Y-80075408D01*
X62395659Y-79840000D01*
X62375063Y-79604592D01*
X62313903Y-79376337D01*
X62214035Y-79162171D01*
X62208425Y-79154158D01*
X62078494Y-78968597D01*
X61911402Y-78801506D01*
X61911395Y-78801501D01*
X61717834Y-78665967D01*
X61717830Y-78665965D01*
X61717828Y-78665964D01*
X61503663Y-78566097D01*
X61503659Y-78566096D01*
X61503655Y-78566094D01*
X61275413Y-78504938D01*
X61275403Y-78504936D01*
X61040001Y-78484341D01*
X61039999Y-78484341D01*
X60804596Y-78504936D01*
X60804586Y-78504938D01*
X60576344Y-78566094D01*
X60576335Y-78566098D01*
X60362171Y-78665964D01*
X60362169Y-78665965D01*
X60168597Y-78801505D01*
X60001505Y-78968597D01*
X59871575Y-79154158D01*
X59816998Y-79197783D01*
X59747500Y-79204977D01*
X59685145Y-79173454D01*
X59668425Y-79154158D01*
X59538494Y-78968597D01*
X59371402Y-78801506D01*
X59371396Y-78801501D01*
X59185842Y-78671575D01*
X59142217Y-78616998D01*
X59135023Y-78547500D01*
X59166546Y-78485145D01*
X59185842Y-78468425D01*
X59208026Y-78452891D01*
X59371401Y-78338495D01*
X59538495Y-78171401D01*
X59674035Y-77977830D01*
X59773903Y-77763663D01*
X59835063Y-77535408D01*
X59855659Y-77300000D01*
X59835063Y-77064592D01*
X59773903Y-76836337D01*
X59674035Y-76622171D01*
X59538495Y-76428599D01*
X59538494Y-76428597D01*
X59371402Y-76261506D01*
X59371396Y-76261501D01*
X59185842Y-76131575D01*
X59142217Y-76076998D01*
X59135023Y-76007500D01*
X59166546Y-75945145D01*
X59185842Y-75928425D01*
X59208026Y-75912891D01*
X59371401Y-75798495D01*
X59538495Y-75631401D01*
X59668425Y-75445842D01*
X59723002Y-75402217D01*
X59792500Y-75395023D01*
X59854855Y-75426546D01*
X59871575Y-75445842D01*
X60001500Y-75631395D01*
X60001505Y-75631401D01*
X60168599Y-75798495D01*
X60265384Y-75866265D01*
X60362165Y-75934032D01*
X60362167Y-75934033D01*
X60362170Y-75934035D01*
X60576337Y-76033903D01*
X60804592Y-76095063D01*
X60992918Y-76111539D01*
X61039999Y-76115659D01*
X61040000Y-76115659D01*
X61040001Y-76115659D01*
X61079234Y-76112226D01*
X61275408Y-76095063D01*
X61503663Y-76033903D01*
X61717830Y-75934035D01*
X61911401Y-75798495D01*
X62078495Y-75631401D01*
X62214035Y-75437830D01*
X62313903Y-75223663D01*
X62375063Y-74995408D01*
X62395659Y-74760000D01*
X62375063Y-74524592D01*
X62313903Y-74296337D01*
X62214035Y-74082171D01*
X62208425Y-74074158D01*
X62078494Y-73888597D01*
X61911402Y-73721506D01*
X61911396Y-73721501D01*
X61725842Y-73591575D01*
X61682217Y-73536998D01*
X61675023Y-73467500D01*
X61706546Y-73405145D01*
X61725842Y-73388425D01*
X61748026Y-73372891D01*
X61911401Y-73258495D01*
X62078495Y-73091401D01*
X62214035Y-72897830D01*
X62313903Y-72683663D01*
X62375063Y-72455408D01*
X62395659Y-72220000D01*
X62375063Y-71984592D01*
X62313903Y-71756337D01*
X62214035Y-71542171D01*
X62078495Y-71348599D01*
X62078494Y-71348597D01*
X61911402Y-71181506D01*
X61911395Y-71181501D01*
X61717834Y-71045967D01*
X61717830Y-71045965D01*
X61503663Y-70946097D01*
X61503659Y-70946096D01*
X61503655Y-70946094D01*
X61462813Y-70935151D01*
X61403152Y-70898786D01*
X61372623Y-70835939D01*
X61380918Y-70766564D01*
X61407225Y-70727695D01*
X62098102Y-70036819D01*
X62159425Y-70003334D01*
X62185783Y-70000500D01*
X65914242Y-70000500D01*
X65981281Y-70020185D01*
X66001923Y-70036819D01*
X66120213Y-70155109D01*
X66292179Y-70280048D01*
X66292181Y-70280049D01*
X66292184Y-70280051D01*
X66481588Y-70376557D01*
X66683757Y-70442246D01*
X66893713Y-70475500D01*
X66893714Y-70475500D01*
X67106286Y-70475500D01*
X67106287Y-70475500D01*
X67316243Y-70442246D01*
X67518412Y-70376557D01*
X67707816Y-70280051D01*
X67729789Y-70264086D01*
X67879786Y-70155109D01*
X67879788Y-70155106D01*
X67879792Y-70155104D01*
X68030104Y-70004792D01*
X68149683Y-69840204D01*
X68205011Y-69797540D01*
X68274624Y-69791561D01*
X68336420Y-69824166D01*
X68350313Y-69840199D01*
X68429211Y-69948793D01*
X68469896Y-70004792D01*
X68620213Y-70155109D01*
X68792179Y-70280048D01*
X68792181Y-70280049D01*
X68792184Y-70280051D01*
X68981588Y-70376557D01*
X69183757Y-70442246D01*
X69393713Y-70475500D01*
X69393714Y-70475500D01*
X69606286Y-70475500D01*
X69606287Y-70475500D01*
X69816243Y-70442246D01*
X70018412Y-70376557D01*
X70207816Y-70280051D01*
X70229789Y-70264086D01*
X70379786Y-70155109D01*
X70379788Y-70155106D01*
X70379792Y-70155104D01*
X70530104Y-70004792D01*
X70649683Y-69840204D01*
X70705011Y-69797540D01*
X70774624Y-69791561D01*
X70836420Y-69824166D01*
X70850313Y-69840199D01*
X70929211Y-69948793D01*
X70969896Y-70004792D01*
X71120213Y-70155109D01*
X71292179Y-70280048D01*
X71292181Y-70280049D01*
X71292184Y-70280051D01*
X71481588Y-70376557D01*
X71683757Y-70442246D01*
X71893713Y-70475500D01*
X71893714Y-70475500D01*
X72106286Y-70475500D01*
X72106287Y-70475500D01*
X72316243Y-70442246D01*
X72518412Y-70376557D01*
X72707816Y-70280051D01*
X72729789Y-70264086D01*
X72879786Y-70155109D01*
X72879788Y-70155106D01*
X72879792Y-70155104D01*
X73030104Y-70004792D01*
X73149683Y-69840204D01*
X73205011Y-69797540D01*
X73274624Y-69791561D01*
X73336420Y-69824166D01*
X73350313Y-69840199D01*
X73429211Y-69948793D01*
X73469896Y-70004792D01*
X73620213Y-70155109D01*
X73792179Y-70280048D01*
X73792181Y-70280049D01*
X73792184Y-70280051D01*
X73981588Y-70376557D01*
X74183757Y-70442246D01*
X74393713Y-70475500D01*
X74393714Y-70475500D01*
X74606286Y-70475500D01*
X74606287Y-70475500D01*
X74816243Y-70442246D01*
X75018412Y-70376557D01*
X75207816Y-70280051D01*
X75229789Y-70264086D01*
X75379786Y-70155109D01*
X75379788Y-70155106D01*
X75379792Y-70155104D01*
X75530104Y-70004792D01*
X75649683Y-69840204D01*
X75705011Y-69797540D01*
X75774624Y-69791561D01*
X75836420Y-69824166D01*
X75850313Y-69840199D01*
X75929211Y-69948793D01*
X75969896Y-70004792D01*
X76120213Y-70155109D01*
X76292179Y-70280048D01*
X76292181Y-70280049D01*
X76292184Y-70280051D01*
X76481588Y-70376557D01*
X76683757Y-70442246D01*
X76893713Y-70475500D01*
X76893714Y-70475500D01*
X77106286Y-70475500D01*
X77106287Y-70475500D01*
X77316243Y-70442246D01*
X77518412Y-70376557D01*
X77707816Y-70280051D01*
X77729789Y-70264086D01*
X77879786Y-70155109D01*
X77879788Y-70155106D01*
X77879792Y-70155104D01*
X78030104Y-70004792D01*
X78030106Y-70004788D01*
X78030109Y-70004786D01*
X78155048Y-69832820D01*
X78155047Y-69832820D01*
X78155051Y-69832816D01*
X78251557Y-69643412D01*
X78317246Y-69441243D01*
X78350500Y-69231287D01*
X78350500Y-68768713D01*
X78323469Y-68598048D01*
X78332423Y-68528758D01*
X78358256Y-68490978D01*
X78487417Y-68361817D01*
X78548740Y-68328334D01*
X78575097Y-68325500D01*
X83688331Y-68325500D01*
X83688347Y-68325501D01*
X83695943Y-68325501D01*
X83854054Y-68325501D01*
X83854057Y-68325501D01*
X84006785Y-68284577D01*
X84080045Y-68242280D01*
X84143716Y-68205520D01*
X84255520Y-68093716D01*
X84255520Y-68093714D01*
X84265724Y-68083511D01*
X84265728Y-68083506D01*
X97585872Y-54763361D01*
X97647193Y-54729878D01*
X97705646Y-54731270D01*
X97779401Y-54751033D01*
X97779402Y-54751033D01*
X97779409Y-54751035D01*
X97967148Y-54767459D01*
X97999998Y-54770334D01*
X98000000Y-54770334D01*
X98000002Y-54770334D01*
X98055276Y-54765498D01*
X98220591Y-54751035D01*
X98434480Y-54693723D01*
X98635167Y-54600142D01*
X98816555Y-54473132D01*
X98973132Y-54316555D01*
X99100142Y-54135167D01*
X99157618Y-54011907D01*
X99203790Y-53959468D01*
X99270983Y-53940316D01*
X99337864Y-53960531D01*
X99382381Y-54011907D01*
X99439858Y-54135167D01*
X99566868Y-54316555D01*
X99723445Y-54473132D01*
X99904833Y-54600142D01*
X99988967Y-54639374D01*
X100105513Y-54693720D01*
X100105515Y-54693720D01*
X100105520Y-54693723D01*
X100319409Y-54751035D01*
X100476974Y-54764820D01*
X100539998Y-54770334D01*
X100540000Y-54770334D01*
X100540002Y-54770334D01*
X100595276Y-54765498D01*
X100760591Y-54751035D01*
X100974480Y-54693723D01*
X101175167Y-54600142D01*
X101356555Y-54473132D01*
X101513132Y-54316555D01*
X101640142Y-54135167D01*
X101697618Y-54011907D01*
X101743790Y-53959468D01*
X101810983Y-53940316D01*
X101877864Y-53960531D01*
X101922381Y-54011907D01*
X101979858Y-54135167D01*
X102106868Y-54316555D01*
X102263445Y-54473132D01*
X102444833Y-54600142D01*
X102528967Y-54639374D01*
X102645513Y-54693720D01*
X102645515Y-54693720D01*
X102645520Y-54693723D01*
X102859409Y-54751035D01*
X103016974Y-54764820D01*
X103079998Y-54770334D01*
X103080000Y-54770334D01*
X103080002Y-54770334D01*
X103135276Y-54765498D01*
X103300591Y-54751035D01*
X103514480Y-54693723D01*
X103715167Y-54600142D01*
X103896555Y-54473132D01*
X104053132Y-54316555D01*
X104180142Y-54135167D01*
X104237618Y-54011907D01*
X104283790Y-53959468D01*
X104350983Y-53940316D01*
X104417864Y-53960531D01*
X104462381Y-54011907D01*
X104519858Y-54135167D01*
X104646868Y-54316555D01*
X104803445Y-54473132D01*
X104984833Y-54600142D01*
X105068967Y-54639374D01*
X105185513Y-54693720D01*
X105185515Y-54693720D01*
X105185520Y-54693723D01*
X105399409Y-54751035D01*
X105556974Y-54764820D01*
X105619998Y-54770334D01*
X105620000Y-54770334D01*
X105620002Y-54770334D01*
X105675276Y-54765498D01*
X105840591Y-54751035D01*
X106054480Y-54693723D01*
X106255167Y-54600142D01*
X106436555Y-54473132D01*
X106593132Y-54316555D01*
X106720142Y-54135167D01*
X106777618Y-54011907D01*
X106823790Y-53959468D01*
X106890983Y-53940316D01*
X106957864Y-53960531D01*
X107002381Y-54011907D01*
X107059858Y-54135167D01*
X107186868Y-54316555D01*
X107343445Y-54473132D01*
X107524833Y-54600142D01*
X107608967Y-54639374D01*
X107725513Y-54693720D01*
X107725515Y-54693720D01*
X107725520Y-54693723D01*
X107939409Y-54751035D01*
X108096974Y-54764820D01*
X108159998Y-54770334D01*
X108160000Y-54770334D01*
X108160002Y-54770334D01*
X108215276Y-54765498D01*
X108380591Y-54751035D01*
X108594480Y-54693723D01*
X108795167Y-54600142D01*
X108976555Y-54473132D01*
X109133132Y-54316555D01*
X109260142Y-54135167D01*
X109317618Y-54011907D01*
X109363790Y-53959468D01*
X109430983Y-53940316D01*
X109497864Y-53960531D01*
X109542381Y-54011907D01*
X109599858Y-54135167D01*
X109726868Y-54316555D01*
X109883445Y-54473132D01*
X110064833Y-54600142D01*
X110148967Y-54639374D01*
X110265513Y-54693720D01*
X110265515Y-54693720D01*
X110265520Y-54693723D01*
X110479409Y-54751035D01*
X110636974Y-54764820D01*
X110699998Y-54770334D01*
X110700000Y-54770334D01*
X110700002Y-54770334D01*
X110755276Y-54765498D01*
X110920591Y-54751035D01*
X111134480Y-54693723D01*
X111335167Y-54600142D01*
X111516555Y-54473132D01*
X111673132Y-54316555D01*
X111800142Y-54135167D01*
X111857618Y-54011907D01*
X111903790Y-53959468D01*
X111970983Y-53940316D01*
X112037864Y-53960531D01*
X112082381Y-54011907D01*
X112139858Y-54135167D01*
X112266868Y-54316555D01*
X112423445Y-54473132D01*
X112604833Y-54600142D01*
X112688967Y-54639374D01*
X112805513Y-54693720D01*
X112805515Y-54693720D01*
X112805520Y-54693723D01*
X113019409Y-54751035D01*
X113176974Y-54764820D01*
X113239998Y-54770334D01*
X113240000Y-54770334D01*
X113240002Y-54770334D01*
X113295276Y-54765498D01*
X113460591Y-54751035D01*
X113674480Y-54693723D01*
X113875167Y-54600142D01*
X114056555Y-54473132D01*
X114213132Y-54316555D01*
X114340142Y-54135167D01*
X114397618Y-54011907D01*
X114443790Y-53959468D01*
X114510983Y-53940316D01*
X114577864Y-53960531D01*
X114622381Y-54011907D01*
X114679858Y-54135167D01*
X114806868Y-54316555D01*
X114963445Y-54473132D01*
X115144833Y-54600142D01*
X115228967Y-54639374D01*
X115345513Y-54693720D01*
X115345515Y-54693720D01*
X115345520Y-54693723D01*
X115559409Y-54751035D01*
X115716974Y-54764820D01*
X115779998Y-54770334D01*
X115780000Y-54770334D01*
X115780002Y-54770334D01*
X115810575Y-54767659D01*
X116000591Y-54751035D01*
X116000599Y-54751033D01*
X116012171Y-54747932D01*
X116074352Y-54731270D01*
X116144201Y-54732931D01*
X116194128Y-54763363D01*
X118223586Y-56792821D01*
X118257071Y-56854144D01*
X118252087Y-56923836D01*
X118210215Y-56979769D01*
X118144751Y-57004186D01*
X118111719Y-57002120D01*
X118098546Y-56999500D01*
X118098540Y-56999500D01*
X117901460Y-56999500D01*
X117901457Y-56999500D01*
X117708171Y-57037947D01*
X117708163Y-57037949D01*
X117526089Y-57113367D01*
X117526079Y-57113372D01*
X117362219Y-57222860D01*
X117362217Y-57222862D01*
X117222863Y-57362215D01*
X117222860Y-57362219D01*
X117113372Y-57526079D01*
X117113367Y-57526089D01*
X117037949Y-57708163D01*
X117037948Y-57708168D01*
X116999500Y-57901455D01*
X116999500Y-58098544D01*
X117037947Y-58291828D01*
X117037949Y-58291836D01*
X117113367Y-58473910D01*
X117113372Y-58473920D01*
X117222859Y-58637779D01*
X117222860Y-58637780D01*
X117222861Y-58637781D01*
X117283182Y-58698102D01*
X117316666Y-58759423D01*
X117319500Y-58785782D01*
X117319500Y-67923432D01*
X117299815Y-67990471D01*
X117297075Y-67994555D01*
X117219860Y-68104828D01*
X117219856Y-68104836D01*
X117162382Y-68228091D01*
X117116210Y-68280531D01*
X117049017Y-68299683D01*
X116982135Y-68279467D01*
X116937618Y-68228091D01*
X116880143Y-68104836D01*
X116880142Y-68104834D01*
X116880142Y-68104833D01*
X116753132Y-67923445D01*
X116596555Y-67766868D01*
X116415167Y-67639858D01*
X116415163Y-67639856D01*
X116214486Y-67546279D01*
X116214475Y-67546275D01*
X116000592Y-67488965D01*
X116000585Y-67488964D01*
X115780002Y-67469666D01*
X115779998Y-67469666D01*
X115559414Y-67488964D01*
X115559407Y-67488965D01*
X115345524Y-67546275D01*
X115345513Y-67546279D01*
X115144836Y-67639856D01*
X115144834Y-67639857D01*
X114963444Y-67766868D01*
X114806868Y-67923444D01*
X114679857Y-68104834D01*
X114679856Y-68104836D01*
X114622382Y-68228091D01*
X114576210Y-68280531D01*
X114509017Y-68299683D01*
X114442135Y-68279467D01*
X114397618Y-68228091D01*
X114340143Y-68104836D01*
X114340142Y-68104834D01*
X114340142Y-68104833D01*
X114213132Y-67923445D01*
X114056555Y-67766868D01*
X113875167Y-67639858D01*
X113875163Y-67639856D01*
X113674486Y-67546279D01*
X113674475Y-67546275D01*
X113460592Y-67488965D01*
X113460585Y-67488964D01*
X113240002Y-67469666D01*
X113239998Y-67469666D01*
X113019414Y-67488964D01*
X113019407Y-67488965D01*
X112805524Y-67546275D01*
X112805513Y-67546279D01*
X112604836Y-67639856D01*
X112604834Y-67639857D01*
X112423444Y-67766868D01*
X112266868Y-67923444D01*
X112139857Y-68104834D01*
X112139856Y-68104836D01*
X112082382Y-68228091D01*
X112036210Y-68280531D01*
X111969017Y-68299683D01*
X111902135Y-68279467D01*
X111857618Y-68228091D01*
X111800143Y-68104836D01*
X111800142Y-68104834D01*
X111800142Y-68104833D01*
X111673132Y-67923445D01*
X111516555Y-67766868D01*
X111335167Y-67639858D01*
X111335163Y-67639856D01*
X111134486Y-67546279D01*
X111134475Y-67546275D01*
X110920592Y-67488965D01*
X110920585Y-67488964D01*
X110700002Y-67469666D01*
X110699998Y-67469666D01*
X110479414Y-67488964D01*
X110479400Y-67488967D01*
X110405643Y-67508729D01*
X110335793Y-67507065D01*
X110285870Y-67476635D01*
X109338035Y-66528800D01*
X109304550Y-66467477D01*
X109302496Y-66427233D01*
X109303347Y-66419688D01*
X109305565Y-66400000D01*
X109304734Y-66392622D01*
X109285369Y-66220750D01*
X109285368Y-66220745D01*
X109225788Y-66050476D01*
X109129815Y-65897737D01*
X109002262Y-65770184D01*
X108849523Y-65674211D01*
X108679254Y-65614631D01*
X108679249Y-65614630D01*
X108500004Y-65594435D01*
X108499996Y-65594435D01*
X108320750Y-65614630D01*
X108320745Y-65614631D01*
X108150476Y-65674211D01*
X107997737Y-65770184D01*
X107870184Y-65897737D01*
X107774211Y-66050476D01*
X107714631Y-66220745D01*
X107714630Y-66220750D01*
X107694435Y-66399996D01*
X107694435Y-66400003D01*
X107714630Y-66579249D01*
X107714631Y-66579254D01*
X107774211Y-66749523D01*
X107809512Y-66805703D01*
X107870184Y-66902262D01*
X107997738Y-67029816D01*
X108088080Y-67086582D01*
X108123298Y-67108711D01*
X108150478Y-67125789D01*
X108256172Y-67162772D01*
X108302898Y-67192133D01*
X108379838Y-67269073D01*
X108413323Y-67330396D01*
X108408339Y-67400088D01*
X108366467Y-67456021D01*
X108301003Y-67480438D01*
X108281350Y-67480282D01*
X108160002Y-67469666D01*
X108159998Y-67469666D01*
X107939414Y-67488964D01*
X107939400Y-67488967D01*
X107865643Y-67508729D01*
X107795793Y-67507065D01*
X107745870Y-67476635D01*
X106340859Y-66071624D01*
X106307374Y-66010301D01*
X106305320Y-65997826D01*
X106285369Y-65820750D01*
X106285368Y-65820745D01*
X106272447Y-65783820D01*
X106225789Y-65650478D01*
X106203265Y-65614632D01*
X106143474Y-65519475D01*
X106129816Y-65497738D01*
X106002262Y-65370184D01*
X105969379Y-65349522D01*
X105849523Y-65274211D01*
X105679254Y-65214631D01*
X105679249Y-65214630D01*
X105500004Y-65194435D01*
X105499996Y-65194435D01*
X105320750Y-65214630D01*
X105320745Y-65214631D01*
X105150476Y-65274211D01*
X104997737Y-65370184D01*
X104870184Y-65497737D01*
X104774211Y-65650476D01*
X104714631Y-65820745D01*
X104714630Y-65820750D01*
X104694435Y-65999996D01*
X104694435Y-66000003D01*
X104714630Y-66179249D01*
X104714631Y-66179254D01*
X104774211Y-66349523D01*
X104812082Y-66409794D01*
X104870184Y-66502262D01*
X104997738Y-66629816D01*
X105150478Y-66725789D01*
X105320745Y-66785368D01*
X105320749Y-66785368D01*
X105327533Y-66786917D01*
X105327053Y-66789019D01*
X105381898Y-66812049D01*
X105391307Y-66820542D01*
X105839838Y-67269073D01*
X105873323Y-67330396D01*
X105868339Y-67400088D01*
X105826467Y-67456021D01*
X105761003Y-67480438D01*
X105741350Y-67480282D01*
X105620002Y-67469666D01*
X105619998Y-67469666D01*
X105399414Y-67488964D01*
X105399400Y-67488967D01*
X105325643Y-67508729D01*
X105255793Y-67507065D01*
X105205870Y-67476635D01*
X103333240Y-65604005D01*
X103299755Y-65542682D01*
X103297701Y-65530206D01*
X103285369Y-65420750D01*
X103285368Y-65420745D01*
X103242538Y-65298344D01*
X103225789Y-65250478D01*
X103211404Y-65227585D01*
X103148385Y-65127290D01*
X103129816Y-65097738D01*
X103002262Y-64970184D01*
X102986040Y-64959991D01*
X102849523Y-64874211D01*
X102679254Y-64814631D01*
X102679249Y-64814630D01*
X102500004Y-64794435D01*
X102499996Y-64794435D01*
X102320750Y-64814630D01*
X102320745Y-64814631D01*
X102150476Y-64874211D01*
X101997737Y-64970184D01*
X101870184Y-65097737D01*
X101774211Y-65250476D01*
X101714631Y-65420745D01*
X101714630Y-65420750D01*
X101694435Y-65599996D01*
X101694435Y-65600003D01*
X101714630Y-65779249D01*
X101714631Y-65779254D01*
X101774211Y-65949523D01*
X101837646Y-66050478D01*
X101870184Y-66102262D01*
X101997738Y-66229816D01*
X102150478Y-66325789D01*
X102296351Y-66376832D01*
X102320745Y-66385368D01*
X102320750Y-66385369D01*
X102385127Y-66392622D01*
X102449541Y-66419688D01*
X102458926Y-66428161D01*
X103299838Y-67269073D01*
X103333323Y-67330396D01*
X103328339Y-67400088D01*
X103286467Y-67456021D01*
X103221003Y-67480438D01*
X103201350Y-67480282D01*
X103080002Y-67469666D01*
X103079998Y-67469666D01*
X102859414Y-67488964D01*
X102859400Y-67488967D01*
X102785643Y-67508729D01*
X102715793Y-67507065D01*
X102665870Y-67476635D01*
X99827590Y-64638355D01*
X99827588Y-64638352D01*
X99708717Y-64519481D01*
X99708709Y-64519475D01*
X99606936Y-64460717D01*
X99606935Y-64460717D01*
X99587612Y-64449560D01*
X99561935Y-64429857D01*
X99502262Y-64370184D01*
X99349523Y-64274211D01*
X99179254Y-64214631D01*
X99179249Y-64214630D01*
X99000004Y-64194435D01*
X98999996Y-64194435D01*
X98820750Y-64214630D01*
X98820745Y-64214631D01*
X98650476Y-64274211D01*
X98497737Y-64370184D01*
X98370184Y-64497737D01*
X98274211Y-64650476D01*
X98214631Y-64820745D01*
X98214630Y-64820750D01*
X98194435Y-64999996D01*
X98194435Y-65000003D01*
X98214630Y-65179249D01*
X98214631Y-65179254D01*
X98243043Y-65260449D01*
X98246604Y-65330228D01*
X98211875Y-65390856D01*
X98149882Y-65423083D01*
X98080307Y-65416678D01*
X98038320Y-65389085D01*
X97321833Y-64672598D01*
X97288348Y-64611275D01*
X97286294Y-64571033D01*
X97286528Y-64568964D01*
X97305565Y-64400000D01*
X97301864Y-64367153D01*
X97285369Y-64220750D01*
X97285368Y-64220745D01*
X97225788Y-64050476D01*
X97132154Y-63901459D01*
X97129816Y-63897738D01*
X97002262Y-63770184D01*
X96949993Y-63737341D01*
X96849523Y-63674211D01*
X96679254Y-63614631D01*
X96679249Y-63614630D01*
X96500004Y-63594435D01*
X96499996Y-63594435D01*
X96320750Y-63614630D01*
X96320745Y-63614631D01*
X96150476Y-63674211D01*
X95997737Y-63770184D01*
X95870184Y-63897737D01*
X95774211Y-64050476D01*
X95714631Y-64220745D01*
X95714630Y-64220750D01*
X95694435Y-64399996D01*
X95694435Y-64400003D01*
X95714630Y-64579249D01*
X95714631Y-64579254D01*
X95774211Y-64749523D01*
X95870184Y-64902262D01*
X95984497Y-65016575D01*
X96004203Y-65042256D01*
X96019477Y-65068712D01*
X96019481Y-65068717D01*
X96138349Y-65187585D01*
X96138355Y-65187590D01*
X98219837Y-67269073D01*
X98253322Y-67330396D01*
X98248338Y-67400088D01*
X98206466Y-67456021D01*
X98141002Y-67480438D01*
X98121349Y-67480282D01*
X98000002Y-67469666D01*
X97999998Y-67469666D01*
X97779414Y-67488964D01*
X97779400Y-67488967D01*
X97705643Y-67508729D01*
X97635793Y-67507065D01*
X97585870Y-67476635D01*
X94806836Y-64697601D01*
X94773351Y-64636278D01*
X94777475Y-64568965D01*
X94785368Y-64546412D01*
X94785369Y-64546406D01*
X94805565Y-64367160D01*
X94805565Y-64367153D01*
X94785369Y-64187907D01*
X94785368Y-64187902D01*
X94737281Y-64050478D01*
X94725789Y-64017635D01*
X94629816Y-63864895D01*
X94502262Y-63737341D01*
X94445468Y-63701655D01*
X94349523Y-63641368D01*
X94179254Y-63581788D01*
X94179249Y-63581787D01*
X94000004Y-63561592D01*
X93999996Y-63561592D01*
X93820750Y-63581787D01*
X93820745Y-63581788D01*
X93650476Y-63641368D01*
X93497737Y-63737341D01*
X93370184Y-63864894D01*
X93274211Y-64017633D01*
X93214631Y-64187902D01*
X93214630Y-64187907D01*
X93194435Y-64367153D01*
X93194435Y-64367160D01*
X93214630Y-64546406D01*
X93214631Y-64546411D01*
X93274211Y-64716680D01*
X93370184Y-64869419D01*
X93405169Y-64904404D01*
X93437263Y-64959991D01*
X93440423Y-64971787D01*
X93440425Y-64971790D01*
X93467959Y-65019479D01*
X93467960Y-65019480D01*
X93513142Y-65097738D01*
X93519479Y-65108714D01*
X93519481Y-65108717D01*
X93638349Y-65227585D01*
X93638355Y-65227590D01*
X95679838Y-67269073D01*
X95713323Y-67330396D01*
X95708339Y-67400088D01*
X95666467Y-67456021D01*
X95601003Y-67480438D01*
X95581350Y-67480282D01*
X95460002Y-67469666D01*
X95459998Y-67469666D01*
X95239414Y-67488964D01*
X95239407Y-67488965D01*
X95025524Y-67546275D01*
X95025513Y-67546279D01*
X94824836Y-67639856D01*
X94824834Y-67639857D01*
X94643444Y-67766868D01*
X94486868Y-67923444D01*
X94359857Y-68104834D01*
X94359856Y-68104836D01*
X94302382Y-68228091D01*
X94256210Y-68280531D01*
X94189017Y-68299683D01*
X94122135Y-68279467D01*
X94077618Y-68228091D01*
X94020143Y-68104836D01*
X94020142Y-68104834D01*
X94020142Y-68104833D01*
X93893132Y-67923445D01*
X93736555Y-67766868D01*
X93555167Y-67639858D01*
X93555163Y-67639856D01*
X93354486Y-67546279D01*
X93354475Y-67546275D01*
X93140592Y-67488965D01*
X93140585Y-67488964D01*
X92920002Y-67469666D01*
X92919998Y-67469666D01*
X92699414Y-67488964D01*
X92699407Y-67488965D01*
X92485524Y-67546275D01*
X92485513Y-67546279D01*
X92284836Y-67639856D01*
X92284834Y-67639857D01*
X92103444Y-67766868D01*
X91946868Y-67923444D01*
X91819857Y-68104834D01*
X91819856Y-68104836D01*
X91762382Y-68228091D01*
X91716210Y-68280531D01*
X91649017Y-68299683D01*
X91582135Y-68279467D01*
X91537618Y-68228091D01*
X91480143Y-68104836D01*
X91480142Y-68104834D01*
X91480142Y-68104833D01*
X91353132Y-67923445D01*
X91196555Y-67766868D01*
X91015167Y-67639858D01*
X91015163Y-67639856D01*
X90814486Y-67546279D01*
X90814475Y-67546275D01*
X90600592Y-67488965D01*
X90600585Y-67488964D01*
X90380002Y-67469666D01*
X90379998Y-67469666D01*
X90159414Y-67488964D01*
X90159407Y-67488965D01*
X89945524Y-67546275D01*
X89945513Y-67546279D01*
X89744836Y-67639856D01*
X89744834Y-67639857D01*
X89563444Y-67766868D01*
X89406868Y-67923444D01*
X89279857Y-68104834D01*
X89279856Y-68104836D01*
X89186279Y-68305513D01*
X89186275Y-68305524D01*
X89128965Y-68519407D01*
X89128964Y-68519414D01*
X89109666Y-68739998D01*
X89109666Y-68740001D01*
X89128964Y-68960585D01*
X89128965Y-68960592D01*
X89186275Y-69174475D01*
X89186279Y-69174486D01*
X89241161Y-69292181D01*
X89279858Y-69375167D01*
X89406868Y-69556555D01*
X89563445Y-69713132D01*
X89744833Y-69840142D01*
X89865572Y-69896443D01*
X89945513Y-69933720D01*
X89945515Y-69933720D01*
X89945520Y-69933723D01*
X90159409Y-69991035D01*
X90299989Y-70003334D01*
X90379998Y-70010334D01*
X90380000Y-70010334D01*
X90380002Y-70010334D01*
X90443346Y-70004792D01*
X90600591Y-69991035D01*
X90814480Y-69933723D01*
X91015167Y-69840142D01*
X91196555Y-69713132D01*
X91353132Y-69556555D01*
X91480142Y-69375167D01*
X91537618Y-69251907D01*
X91583790Y-69199468D01*
X91650983Y-69180316D01*
X91717864Y-69200531D01*
X91762381Y-69251907D01*
X91819858Y-69375167D01*
X91946868Y-69556555D01*
X92103445Y-69713132D01*
X92284833Y-69840142D01*
X92405572Y-69896443D01*
X92485513Y-69933720D01*
X92485515Y-69933720D01*
X92485520Y-69933723D01*
X92699409Y-69991035D01*
X92839989Y-70003334D01*
X92919998Y-70010334D01*
X92920000Y-70010334D01*
X92920002Y-70010334D01*
X92983346Y-70004792D01*
X93140591Y-69991035D01*
X93354480Y-69933723D01*
X93555167Y-69840142D01*
X93736555Y-69713132D01*
X93893132Y-69556555D01*
X94020142Y-69375167D01*
X94077618Y-69251907D01*
X94123790Y-69199468D01*
X94190983Y-69180316D01*
X94257864Y-69200531D01*
X94302381Y-69251907D01*
X94359858Y-69375167D01*
X94486868Y-69556555D01*
X94643445Y-69713132D01*
X94824833Y-69840142D01*
X94945572Y-69896443D01*
X95025513Y-69933720D01*
X95025515Y-69933720D01*
X95025520Y-69933723D01*
X95239409Y-69991035D01*
X95379989Y-70003334D01*
X95459998Y-70010334D01*
X95460000Y-70010334D01*
X95460002Y-70010334D01*
X95523346Y-70004792D01*
X95680591Y-69991035D01*
X95894480Y-69933723D01*
X96095167Y-69840142D01*
X96276555Y-69713132D01*
X96433132Y-69556555D01*
X96560142Y-69375167D01*
X96617618Y-69251907D01*
X96663790Y-69199468D01*
X96730983Y-69180316D01*
X96797864Y-69200531D01*
X96842381Y-69251907D01*
X96899858Y-69375167D01*
X97026868Y-69556555D01*
X97183445Y-69713132D01*
X97364833Y-69840142D01*
X97485572Y-69896443D01*
X97565513Y-69933720D01*
X97565515Y-69933720D01*
X97565520Y-69933723D01*
X97779409Y-69991035D01*
X97919989Y-70003334D01*
X97999998Y-70010334D01*
X98000000Y-70010334D01*
X98000002Y-70010334D01*
X98063346Y-70004792D01*
X98220591Y-69991035D01*
X98434480Y-69933723D01*
X98635167Y-69840142D01*
X98816555Y-69713132D01*
X98973132Y-69556555D01*
X99100142Y-69375167D01*
X99157618Y-69251907D01*
X99203790Y-69199468D01*
X99270983Y-69180316D01*
X99337864Y-69200531D01*
X99382381Y-69251907D01*
X99439858Y-69375167D01*
X99566868Y-69556555D01*
X99723445Y-69713132D01*
X99904833Y-69840142D01*
X100025572Y-69896443D01*
X100105513Y-69933720D01*
X100105515Y-69933720D01*
X100105520Y-69933723D01*
X100319409Y-69991035D01*
X100459989Y-70003334D01*
X100539998Y-70010334D01*
X100540000Y-70010334D01*
X100540002Y-70010334D01*
X100603346Y-70004792D01*
X100760591Y-69991035D01*
X100974480Y-69933723D01*
X101175167Y-69840142D01*
X101356555Y-69713132D01*
X101513132Y-69556555D01*
X101640142Y-69375167D01*
X101697618Y-69251907D01*
X101743790Y-69199468D01*
X101810983Y-69180316D01*
X101877864Y-69200531D01*
X101922381Y-69251907D01*
X101979858Y-69375167D01*
X102106868Y-69556555D01*
X102263445Y-69713132D01*
X102444833Y-69840142D01*
X102565572Y-69896443D01*
X102645513Y-69933720D01*
X102645515Y-69933720D01*
X102645520Y-69933723D01*
X102859409Y-69991035D01*
X102999989Y-70003334D01*
X103079998Y-70010334D01*
X103080000Y-70010334D01*
X103080002Y-70010334D01*
X103143346Y-70004792D01*
X103300591Y-69991035D01*
X103514480Y-69933723D01*
X103715167Y-69840142D01*
X103896555Y-69713132D01*
X104053132Y-69556555D01*
X104180142Y-69375167D01*
X104237618Y-69251907D01*
X104283790Y-69199468D01*
X104350983Y-69180316D01*
X104417864Y-69200531D01*
X104462381Y-69251907D01*
X104519858Y-69375167D01*
X104646868Y-69556555D01*
X104803445Y-69713132D01*
X104984833Y-69840142D01*
X105105572Y-69896443D01*
X105185513Y-69933720D01*
X105185515Y-69933720D01*
X105185520Y-69933723D01*
X105399409Y-69991035D01*
X105539989Y-70003334D01*
X105619998Y-70010334D01*
X105620000Y-70010334D01*
X105620002Y-70010334D01*
X105683346Y-70004792D01*
X105840591Y-69991035D01*
X106054480Y-69933723D01*
X106255167Y-69840142D01*
X106436555Y-69713132D01*
X106593132Y-69556555D01*
X106720142Y-69375167D01*
X106777618Y-69251907D01*
X106823790Y-69199468D01*
X106890983Y-69180316D01*
X106957864Y-69200531D01*
X107002381Y-69251907D01*
X107059858Y-69375167D01*
X107186868Y-69556555D01*
X107343445Y-69713132D01*
X107524833Y-69840142D01*
X107645572Y-69896443D01*
X107725513Y-69933720D01*
X107725515Y-69933720D01*
X107725520Y-69933723D01*
X107939409Y-69991035D01*
X108079989Y-70003334D01*
X108159998Y-70010334D01*
X108160000Y-70010334D01*
X108160002Y-70010334D01*
X108223346Y-70004792D01*
X108380591Y-69991035D01*
X108594480Y-69933723D01*
X108795167Y-69840142D01*
X108976555Y-69713132D01*
X109133132Y-69556555D01*
X109260142Y-69375167D01*
X109317618Y-69251907D01*
X109363790Y-69199468D01*
X109430983Y-69180316D01*
X109497864Y-69200531D01*
X109542381Y-69251907D01*
X109599858Y-69375167D01*
X109726868Y-69556555D01*
X109883445Y-69713132D01*
X110064833Y-69840142D01*
X110185572Y-69896443D01*
X110265513Y-69933720D01*
X110265515Y-69933720D01*
X110265520Y-69933723D01*
X110479409Y-69991035D01*
X110619989Y-70003334D01*
X110699998Y-70010334D01*
X110700000Y-70010334D01*
X110700002Y-70010334D01*
X110763346Y-70004792D01*
X110920591Y-69991035D01*
X111134480Y-69933723D01*
X111335167Y-69840142D01*
X111516555Y-69713132D01*
X111673132Y-69556555D01*
X111800142Y-69375167D01*
X111857618Y-69251907D01*
X111903790Y-69199468D01*
X111970983Y-69180316D01*
X112037864Y-69200531D01*
X112082381Y-69251907D01*
X112139858Y-69375167D01*
X112266868Y-69556555D01*
X112423445Y-69713132D01*
X112604833Y-69840142D01*
X112725572Y-69896443D01*
X112805513Y-69933720D01*
X112805515Y-69933720D01*
X112805520Y-69933723D01*
X113019409Y-69991035D01*
X113159989Y-70003334D01*
X113239998Y-70010334D01*
X113240000Y-70010334D01*
X113240002Y-70010334D01*
X113303346Y-70004792D01*
X113460591Y-69991035D01*
X113674480Y-69933723D01*
X113875167Y-69840142D01*
X114056555Y-69713132D01*
X114213132Y-69556555D01*
X114340142Y-69375167D01*
X114397618Y-69251907D01*
X114443790Y-69199468D01*
X114510983Y-69180316D01*
X114577864Y-69200531D01*
X114622381Y-69251907D01*
X114679858Y-69375167D01*
X114806868Y-69556555D01*
X114963445Y-69713132D01*
X115144833Y-69840142D01*
X115265572Y-69896443D01*
X115345513Y-69933720D01*
X115345515Y-69933720D01*
X115345520Y-69933723D01*
X115559409Y-69991035D01*
X115699989Y-70003334D01*
X115779998Y-70010334D01*
X115780000Y-70010334D01*
X115780002Y-70010334D01*
X115843346Y-70004792D01*
X116000591Y-69991035D01*
X116214480Y-69933723D01*
X116415167Y-69840142D01*
X116596555Y-69713132D01*
X116753132Y-69556555D01*
X116880142Y-69375167D01*
X116937618Y-69251907D01*
X116983790Y-69199468D01*
X117050983Y-69180316D01*
X117117864Y-69200531D01*
X117162381Y-69251907D01*
X117219858Y-69375167D01*
X117346868Y-69556555D01*
X117503445Y-69713132D01*
X117684833Y-69840142D01*
X117805572Y-69896443D01*
X117885513Y-69933720D01*
X117885515Y-69933720D01*
X117885520Y-69933723D01*
X118099409Y-69991035D01*
X118239989Y-70003334D01*
X118319998Y-70010334D01*
X118320000Y-70010334D01*
X118320002Y-70010334D01*
X118383346Y-70004792D01*
X118540591Y-69991035D01*
X118754480Y-69933723D01*
X118955167Y-69840142D01*
X119136555Y-69713132D01*
X119293132Y-69556555D01*
X119420142Y-69375167D01*
X119477618Y-69251907D01*
X119523790Y-69199468D01*
X119590983Y-69180316D01*
X119657864Y-69200531D01*
X119702381Y-69251907D01*
X119759858Y-69375167D01*
X119886868Y-69556555D01*
X120043445Y-69713132D01*
X120224833Y-69840142D01*
X120345572Y-69896443D01*
X120425513Y-69933720D01*
X120425515Y-69933720D01*
X120425520Y-69933723D01*
X120639409Y-69991035D01*
X120779989Y-70003334D01*
X120859998Y-70010334D01*
X120860000Y-70010334D01*
X120860002Y-70010334D01*
X120923346Y-70004792D01*
X121080591Y-69991035D01*
X121294480Y-69933723D01*
X121495167Y-69840142D01*
X121676555Y-69713132D01*
X121833132Y-69556555D01*
X121960142Y-69375167D01*
X122053723Y-69174480D01*
X122111035Y-68960591D01*
X122130334Y-68740000D01*
X122111035Y-68519409D01*
X122053723Y-68305520D01*
X122041574Y-68279467D01*
X122005665Y-68202459D01*
X121960142Y-68104833D01*
X121835716Y-67927135D01*
X124674500Y-67927135D01*
X124674500Y-69552870D01*
X124674501Y-69552876D01*
X124680908Y-69612483D01*
X124731202Y-69747328D01*
X124731206Y-69747335D01*
X124817452Y-69862544D01*
X124817455Y-69862547D01*
X124932664Y-69948793D01*
X124932671Y-69948797D01*
X125067517Y-69999091D01*
X125067516Y-69999091D01*
X125074444Y-69999835D01*
X125127127Y-70005500D01*
X126752872Y-70005499D01*
X126812483Y-69999091D01*
X126947331Y-69948796D01*
X127062546Y-69862546D01*
X127148796Y-69747331D01*
X127199091Y-69612483D01*
X127205500Y-69552873D01*
X127205499Y-67927128D01*
X127199091Y-67867517D01*
X127184368Y-67828043D01*
X127148797Y-67732671D01*
X127148793Y-67732664D01*
X127062547Y-67617455D01*
X127062544Y-67617452D01*
X126947335Y-67531206D01*
X126947328Y-67531202D01*
X126812482Y-67480908D01*
X126812483Y-67480908D01*
X126752883Y-67474501D01*
X126752881Y-67474500D01*
X126752873Y-67474500D01*
X126752864Y-67474500D01*
X125127129Y-67474500D01*
X125127123Y-67474501D01*
X125067516Y-67480908D01*
X124932671Y-67531202D01*
X124932664Y-67531206D01*
X124817455Y-67617452D01*
X124817452Y-67617455D01*
X124731206Y-67732664D01*
X124731202Y-67732671D01*
X124680908Y-67867517D01*
X124674897Y-67923432D01*
X124674501Y-67927123D01*
X124674500Y-67927135D01*
X121835716Y-67927135D01*
X121833132Y-67923445D01*
X121676555Y-67766868D01*
X121495167Y-67639858D01*
X121495163Y-67639856D01*
X121294486Y-67546279D01*
X121294475Y-67546275D01*
X121080592Y-67488965D01*
X121080585Y-67488964D01*
X120860002Y-67469666D01*
X120859998Y-67469666D01*
X120639414Y-67488964D01*
X120639407Y-67488965D01*
X120425524Y-67546275D01*
X120425513Y-67546279D01*
X120224836Y-67639856D01*
X120224834Y-67639857D01*
X120043444Y-67766868D01*
X119886868Y-67923444D01*
X119759857Y-68104834D01*
X119759856Y-68104836D01*
X119702382Y-68228091D01*
X119656210Y-68280531D01*
X119589017Y-68299683D01*
X119522135Y-68279467D01*
X119477618Y-68228091D01*
X119420143Y-68104836D01*
X119420142Y-68104834D01*
X119420142Y-68104833D01*
X119346437Y-67999573D01*
X119328237Y-67960540D01*
X119324722Y-67947420D01*
X119320500Y-67915336D01*
X119320500Y-58221457D01*
X119317880Y-58208287D01*
X119324107Y-58138695D01*
X119366969Y-58083517D01*
X119432859Y-58060272D01*
X119500856Y-58076339D01*
X119527178Y-58096413D01*
X123430139Y-61999374D01*
X123430149Y-61999385D01*
X123434479Y-62003715D01*
X123434480Y-62003716D01*
X123546284Y-62115520D01*
X123546286Y-62115521D01*
X123546290Y-62115524D01*
X123656677Y-62179255D01*
X123683216Y-62194577D01*
X123795019Y-62224534D01*
X123835942Y-62235500D01*
X123835943Y-62235500D01*
X128544465Y-62235500D01*
X128611504Y-62255185D01*
X128643732Y-62285190D01*
X128667949Y-62317541D01*
X128667952Y-62317544D01*
X128667954Y-62317546D01*
X128667957Y-62317548D01*
X128783164Y-62403793D01*
X128783171Y-62403797D01*
X128918017Y-62454091D01*
X128918016Y-62454091D01*
X128924944Y-62454835D01*
X128977627Y-62460500D01*
X130126000Y-62460499D01*
X130193039Y-62480184D01*
X130238794Y-62532987D01*
X130250000Y-62584499D01*
X130250000Y-64265084D01*
X130231538Y-64330181D01*
X130163001Y-64441294D01*
X130162996Y-64441305D01*
X130109651Y-64602290D01*
X130099500Y-64701647D01*
X130099500Y-65298337D01*
X130099501Y-65298355D01*
X130109650Y-65397707D01*
X130109651Y-65397710D01*
X130134914Y-65473947D01*
X130162997Y-65558697D01*
X130231538Y-65669818D01*
X130250000Y-65734915D01*
X130250000Y-69783717D01*
X130230315Y-69850756D01*
X130213681Y-69871398D01*
X129222863Y-70862215D01*
X129222860Y-70862219D01*
X129113372Y-71026079D01*
X129113367Y-71026089D01*
X129037949Y-71208163D01*
X129037947Y-71208171D01*
X128999500Y-71401455D01*
X128999500Y-71598544D01*
X129037947Y-71791828D01*
X129037950Y-71791840D01*
X129052948Y-71828048D01*
X129060417Y-71897517D01*
X129029141Y-71959996D01*
X128969052Y-71995648D01*
X128938387Y-71999500D01*
X66934108Y-71999500D01*
X66806812Y-72033608D01*
X66692686Y-72099500D01*
X66692683Y-72099502D01*
X66599502Y-72192683D01*
X66599500Y-72192686D01*
X66533608Y-72306812D01*
X66499500Y-72434108D01*
X66499500Y-128375500D01*
X66479815Y-128442539D01*
X66427011Y-128488294D01*
X66375500Y-128499500D01*
X50624500Y-128499500D01*
X50557461Y-128479815D01*
X50511706Y-128427011D01*
X50500500Y-128375500D01*
X50500500Y-125108711D01*
X57999500Y-125108711D01*
X57999500Y-125351288D01*
X58031161Y-125591785D01*
X58093947Y-125826104D01*
X58186773Y-126050205D01*
X58186776Y-126050212D01*
X58308064Y-126260289D01*
X58308066Y-126260292D01*
X58308067Y-126260293D01*
X58455733Y-126452736D01*
X58455739Y-126452743D01*
X58627256Y-126624260D01*
X58627262Y-126624265D01*
X58819711Y-126771936D01*
X59029788Y-126893224D01*
X59253900Y-126986054D01*
X59488211Y-127048838D01*
X59668586Y-127072584D01*
X59728711Y-127080500D01*
X59728712Y-127080500D01*
X59971289Y-127080500D01*
X60019388Y-127074167D01*
X60211789Y-127048838D01*
X60446100Y-126986054D01*
X60670212Y-126893224D01*
X60880289Y-126771936D01*
X61072738Y-126624265D01*
X61244265Y-126452738D01*
X61391936Y-126260289D01*
X61513224Y-126050212D01*
X61606054Y-125826100D01*
X61668838Y-125591789D01*
X61700500Y-125351288D01*
X61700500Y-125108712D01*
X61668838Y-124868211D01*
X61606054Y-124633900D01*
X61513224Y-124409788D01*
X61391936Y-124199711D01*
X61244265Y-124007262D01*
X61244260Y-124007256D01*
X61072743Y-123835739D01*
X61072736Y-123835733D01*
X60880293Y-123688067D01*
X60880292Y-123688066D01*
X60880289Y-123688064D01*
X60670212Y-123566776D01*
X60670205Y-123566773D01*
X60446104Y-123473947D01*
X60211785Y-123411161D01*
X59971289Y-123379500D01*
X59971288Y-123379500D01*
X59728712Y-123379500D01*
X59728711Y-123379500D01*
X59488214Y-123411161D01*
X59253895Y-123473947D01*
X59029794Y-123566773D01*
X59029785Y-123566777D01*
X58819706Y-123688067D01*
X58627263Y-123835733D01*
X58627256Y-123835739D01*
X58455739Y-124007256D01*
X58455733Y-124007263D01*
X58308067Y-124199706D01*
X58186777Y-124409785D01*
X58186773Y-124409794D01*
X58093947Y-124633895D01*
X58031161Y-124868214D01*
X57999500Y-125108711D01*
X50500500Y-125108711D01*
X50500500Y-50624500D01*
X50520185Y-50557461D01*
X50572989Y-50511706D01*
X50624500Y-50500500D01*
X55785216Y-50500500D01*
X55852255Y-50520185D01*
G37*
G04 #@! TD.AperFunction*
G04 #@! TA.AperFunction,Conductor*
G36*
X87718967Y-50520185D02*
G01*
X87764722Y-50572989D01*
X87774666Y-50642147D01*
X87768970Y-50665454D01*
X87714632Y-50820742D01*
X87714630Y-50820750D01*
X87694435Y-50999996D01*
X87694435Y-51000003D01*
X87714630Y-51179249D01*
X87714631Y-51179254D01*
X87774211Y-51349523D01*
X87870182Y-51502259D01*
X87872441Y-51505091D01*
X87873330Y-51507268D01*
X87873889Y-51508158D01*
X87873733Y-51508255D01*
X87898854Y-51569776D01*
X87899499Y-51582410D01*
X87899499Y-51699054D01*
X87899498Y-51699054D01*
X87940423Y-51851785D01*
X87967970Y-51899496D01*
X87967971Y-51899500D01*
X87967972Y-51899500D01*
X88008797Y-51970213D01*
X88019479Y-51988714D01*
X88019481Y-51988717D01*
X88138349Y-52107585D01*
X88138355Y-52107590D01*
X89116635Y-53085870D01*
X89150120Y-53147193D01*
X89148729Y-53205643D01*
X89128967Y-53279400D01*
X89128964Y-53279414D01*
X89109666Y-53499998D01*
X89109666Y-53500001D01*
X89128964Y-53720585D01*
X89128965Y-53720592D01*
X89186275Y-53934475D01*
X89186279Y-53934486D01*
X89276184Y-54127289D01*
X89279858Y-54135167D01*
X89406868Y-54316555D01*
X89563445Y-54473132D01*
X89744833Y-54600142D01*
X89828967Y-54639374D01*
X89945513Y-54693720D01*
X89945515Y-54693720D01*
X89945520Y-54693723D01*
X90159409Y-54751035D01*
X90316974Y-54764820D01*
X90379998Y-54770334D01*
X90380000Y-54770334D01*
X90380002Y-54770334D01*
X90435276Y-54765498D01*
X90600591Y-54751035D01*
X90814480Y-54693723D01*
X91015167Y-54600142D01*
X91196555Y-54473132D01*
X91353132Y-54316555D01*
X91480142Y-54135167D01*
X91537618Y-54011907D01*
X91583790Y-53959468D01*
X91650983Y-53940316D01*
X91717864Y-53960531D01*
X91762381Y-54011907D01*
X91819858Y-54135167D01*
X91946868Y-54316555D01*
X92103445Y-54473132D01*
X92284833Y-54600142D01*
X92368967Y-54639374D01*
X92485513Y-54693720D01*
X92485515Y-54693720D01*
X92485520Y-54693723D01*
X92649941Y-54737780D01*
X92709601Y-54774144D01*
X92740130Y-54836991D01*
X92731835Y-54906366D01*
X92705528Y-54945235D01*
X86312181Y-61338583D01*
X86250858Y-61372068D01*
X86181166Y-61367084D01*
X86125233Y-61325212D01*
X86100816Y-61259748D01*
X86100500Y-61250902D01*
X86100500Y-56980424D01*
X86120185Y-56913385D01*
X86159402Y-56874886D01*
X86203044Y-56847968D01*
X86322968Y-56728044D01*
X86412003Y-56583697D01*
X86465349Y-56422708D01*
X86475500Y-56323345D01*
X86475499Y-55776656D01*
X86465349Y-55677292D01*
X86412003Y-55516303D01*
X86411999Y-55516297D01*
X86411998Y-55516294D01*
X86322970Y-55371959D01*
X86322967Y-55371955D01*
X86313693Y-55362681D01*
X86280208Y-55301358D01*
X86285192Y-55231666D01*
X86313693Y-55187319D01*
X86322968Y-55178044D01*
X86412003Y-55033697D01*
X86465349Y-54872708D01*
X86475500Y-54773345D01*
X86475499Y-54226656D01*
X86468190Y-54155109D01*
X86465349Y-54127292D01*
X86465348Y-54127289D01*
X86451401Y-54085199D01*
X86412003Y-53966303D01*
X86411999Y-53966297D01*
X86411998Y-53966294D01*
X86322970Y-53821959D01*
X86322969Y-53821958D01*
X86322968Y-53821956D01*
X86203044Y-53702032D01*
X86203043Y-53702031D01*
X86203042Y-53702030D01*
X86159402Y-53675112D01*
X86112678Y-53623163D01*
X86100500Y-53569574D01*
X86100500Y-53523466D01*
X86120185Y-53456427D01*
X86172989Y-53410672D01*
X86181156Y-53407288D01*
X86217331Y-53393796D01*
X86332546Y-53307546D01*
X86418796Y-53192331D01*
X86469091Y-53057483D01*
X86475500Y-52997873D01*
X86475499Y-52002128D01*
X86469091Y-51942517D01*
X86468310Y-51940424D01*
X86418797Y-51807671D01*
X86418793Y-51807664D01*
X86332547Y-51692455D01*
X86332544Y-51692452D01*
X86217335Y-51606206D01*
X86217328Y-51606202D01*
X86082482Y-51555908D01*
X86082483Y-51555908D01*
X86022883Y-51549501D01*
X86022881Y-51549500D01*
X86022873Y-51549500D01*
X86022864Y-51549500D01*
X84977129Y-51549500D01*
X84977123Y-51549501D01*
X84917516Y-51555908D01*
X84782671Y-51606202D01*
X84782664Y-51606206D01*
X84667455Y-51692452D01*
X84667452Y-51692455D01*
X84581206Y-51807664D01*
X84581202Y-51807671D01*
X84530908Y-51942517D01*
X84525608Y-51991818D01*
X84524501Y-52002123D01*
X84524500Y-52002135D01*
X84524500Y-52997870D01*
X84524501Y-52997876D01*
X84530908Y-53057483D01*
X84581202Y-53192328D01*
X84581206Y-53192335D01*
X84667452Y-53307544D01*
X84667455Y-53307547D01*
X84782664Y-53393793D01*
X84782669Y-53393796D01*
X84818832Y-53407284D01*
X84874766Y-53449154D01*
X84899184Y-53514618D01*
X84899500Y-53523466D01*
X84899500Y-53569574D01*
X84879815Y-53636613D01*
X84840598Y-53675112D01*
X84796957Y-53702030D01*
X84677029Y-53821959D01*
X84588001Y-53966294D01*
X84587996Y-53966305D01*
X84534651Y-54127290D01*
X84524500Y-54226647D01*
X84524500Y-54773337D01*
X84524501Y-54773355D01*
X84534650Y-54872707D01*
X84534651Y-54872710D01*
X84587996Y-55033694D01*
X84588001Y-55033705D01*
X84677029Y-55178040D01*
X84677032Y-55178044D01*
X84686307Y-55187319D01*
X84719792Y-55248642D01*
X84714808Y-55318334D01*
X84686307Y-55362681D01*
X84677032Y-55371955D01*
X84677029Y-55371959D01*
X84588001Y-55516294D01*
X84587996Y-55516305D01*
X84534651Y-55677290D01*
X84524500Y-55776647D01*
X84524500Y-56323337D01*
X84524501Y-56323355D01*
X84534650Y-56422707D01*
X84534651Y-56422710D01*
X84587996Y-56583694D01*
X84588001Y-56583705D01*
X84677029Y-56728040D01*
X84677032Y-56728044D01*
X84796956Y-56847968D01*
X84840597Y-56874886D01*
X84887321Y-56926832D01*
X84899500Y-56980424D01*
X84899500Y-61417587D01*
X84879815Y-61484626D01*
X84872450Y-61494896D01*
X84870186Y-61497734D01*
X84774211Y-61650476D01*
X84714631Y-61820745D01*
X84714630Y-61820750D01*
X84694435Y-61999996D01*
X84694435Y-62000003D01*
X84714630Y-62179249D01*
X84714631Y-62179254D01*
X84774211Y-62349523D01*
X84870184Y-62502262D01*
X84870185Y-62502263D01*
X84921662Y-62553741D01*
X84955146Y-62615064D01*
X84950161Y-62684756D01*
X84921661Y-62729102D01*
X82287584Y-65363181D01*
X82226261Y-65396666D01*
X82199903Y-65399500D01*
X72586670Y-65399500D01*
X72586654Y-65399499D01*
X72579058Y-65399499D01*
X72420943Y-65399499D01*
X72356832Y-65416678D01*
X72268214Y-65440423D01*
X72268209Y-65440426D01*
X72131290Y-65519475D01*
X72131282Y-65519481D01*
X70078867Y-67571896D01*
X70017544Y-67605381D01*
X69952868Y-67602146D01*
X69816240Y-67557753D01*
X69648601Y-67531202D01*
X69606287Y-67524500D01*
X69393713Y-67524500D01*
X69351399Y-67531202D01*
X69183760Y-67557753D01*
X68981585Y-67623444D01*
X68792179Y-67719951D01*
X68620213Y-67844890D01*
X68469894Y-67995209D01*
X68469890Y-67995214D01*
X68350318Y-68159793D01*
X68294989Y-68202459D01*
X68225375Y-68208438D01*
X68163580Y-68175833D01*
X68149682Y-68159793D01*
X68027241Y-67991266D01*
X68028108Y-67990635D01*
X68001641Y-67931581D01*
X68000500Y-67914800D01*
X68000500Y-63901456D01*
X67962052Y-63708170D01*
X67962051Y-63708169D01*
X67962051Y-63708165D01*
X67962049Y-63708160D01*
X67886635Y-63526092D01*
X67886631Y-63526085D01*
X67853232Y-63476100D01*
X67838630Y-63446215D01*
X67837003Y-63441303D01*
X67836997Y-63441294D01*
X67747970Y-63296959D01*
X67747967Y-63296955D01*
X67628044Y-63177032D01*
X67628040Y-63177029D01*
X67483705Y-63088001D01*
X67483698Y-63087998D01*
X67483697Y-63087997D01*
X67483694Y-63087996D01*
X67483692Y-63087995D01*
X67322706Y-63034650D01*
X67230979Y-63025279D01*
X67219391Y-63023538D01*
X67098545Y-62999500D01*
X67098541Y-62999500D01*
X66901459Y-62999500D01*
X66855185Y-63008704D01*
X66787746Y-63022118D01*
X66763557Y-63024500D01*
X66676663Y-63024500D01*
X66676644Y-63024501D01*
X66577292Y-63034650D01*
X66577289Y-63034651D01*
X66416305Y-63087996D01*
X66416294Y-63088001D01*
X66271959Y-63177029D01*
X66271955Y-63177032D01*
X66152032Y-63296955D01*
X66152029Y-63296959D01*
X66063001Y-63441294D01*
X66062996Y-63441305D01*
X66009651Y-63602290D01*
X65999500Y-63701647D01*
X65999500Y-67875500D01*
X65979815Y-67942539D01*
X65927011Y-67988294D01*
X65875500Y-67999500D01*
X61719808Y-67999500D01*
X61652769Y-67979815D01*
X61607014Y-67927011D01*
X61597070Y-67857853D01*
X61605249Y-67828043D01*
X61606052Y-67826104D01*
X61606054Y-67826100D01*
X61668838Y-67591789D01*
X61700500Y-67351288D01*
X61700500Y-67108712D01*
X61668838Y-66868211D01*
X61606054Y-66633900D01*
X61513224Y-66409788D01*
X61391936Y-66199711D01*
X61277424Y-66050476D01*
X61244266Y-66007263D01*
X61244260Y-66007256D01*
X61072743Y-65835739D01*
X61072736Y-65835733D01*
X60880293Y-65688067D01*
X60880292Y-65688066D01*
X60880289Y-65688064D01*
X60708661Y-65588974D01*
X60670214Y-65566777D01*
X60670205Y-65566773D01*
X60446104Y-65473947D01*
X60256278Y-65423083D01*
X60211789Y-65411162D01*
X60211788Y-65411161D01*
X60211785Y-65411161D01*
X59971289Y-65379500D01*
X59971288Y-65379500D01*
X59728712Y-65379500D01*
X59728711Y-65379500D01*
X59488214Y-65411161D01*
X59253895Y-65473947D01*
X59029794Y-65566773D01*
X59029785Y-65566777D01*
X58819706Y-65688067D01*
X58627263Y-65835733D01*
X58627256Y-65835739D01*
X58455739Y-66007256D01*
X58455733Y-66007263D01*
X58308067Y-66199706D01*
X58186777Y-66409785D01*
X58186773Y-66409794D01*
X58093947Y-66633895D01*
X58031161Y-66868214D01*
X57999500Y-67108711D01*
X57999500Y-67351288D01*
X58025170Y-67546279D01*
X58031162Y-67591789D01*
X58044042Y-67639856D01*
X58093947Y-67826104D01*
X58163993Y-67995209D01*
X58186776Y-68050212D01*
X58308064Y-68260289D01*
X58308066Y-68260292D01*
X58308067Y-68260293D01*
X58455733Y-68452736D01*
X58455739Y-68452743D01*
X58627256Y-68624260D01*
X58627262Y-68624265D01*
X58819711Y-68771936D01*
X59029788Y-68893224D01*
X59253900Y-68986054D01*
X59488211Y-69048838D01*
X59668586Y-69072584D01*
X59728711Y-69080500D01*
X59925217Y-69080500D01*
X59992256Y-69100185D01*
X60038011Y-69152989D01*
X60047955Y-69222147D01*
X60018930Y-69285703D01*
X60012898Y-69292181D01*
X59212181Y-70092897D01*
X59150858Y-70126382D01*
X59081166Y-70121398D01*
X59025233Y-70079526D01*
X59000816Y-70014062D01*
X59000500Y-70005216D01*
X59000500Y-69901457D01*
X59000499Y-69901455D01*
X58992760Y-69862547D01*
X58962051Y-69708164D01*
X58886631Y-69526086D01*
X58886629Y-69526083D01*
X58886627Y-69526079D01*
X58777139Y-69362219D01*
X58777136Y-69362215D01*
X55936819Y-66521898D01*
X55903334Y-66460575D01*
X55900500Y-66434217D01*
X55900500Y-58653043D01*
X55918962Y-58587945D01*
X55937003Y-58558697D01*
X55990349Y-58397708D01*
X55994187Y-58360133D01*
X56020582Y-58295442D01*
X56029855Y-58285063D01*
X56137778Y-58177141D01*
X56137782Y-58177139D01*
X56277139Y-58037782D01*
X56386632Y-57873914D01*
X56455287Y-57708165D01*
X56462051Y-57691836D01*
X56500500Y-57498540D01*
X56500500Y-57301460D01*
X56500500Y-54085199D01*
X56520185Y-54018160D01*
X56529426Y-54005725D01*
X56545403Y-53983734D01*
X56649683Y-53840204D01*
X56705011Y-53797540D01*
X56774624Y-53791561D01*
X56836420Y-53824166D01*
X56850313Y-53840199D01*
X56954597Y-53983734D01*
X56969896Y-54004792D01*
X57120213Y-54155109D01*
X57292179Y-54280048D01*
X57292181Y-54280049D01*
X57292184Y-54280051D01*
X57481588Y-54376557D01*
X57683757Y-54442246D01*
X57893713Y-54475500D01*
X57893714Y-54475500D01*
X58106286Y-54475500D01*
X58106287Y-54475500D01*
X58316243Y-54442246D01*
X58452873Y-54397851D01*
X58522708Y-54395856D01*
X58578867Y-54428102D01*
X58790139Y-54639374D01*
X58790149Y-54639385D01*
X58794479Y-54643715D01*
X58794480Y-54643716D01*
X58906284Y-54755520D01*
X58938543Y-54774144D01*
X58993095Y-54805639D01*
X58993097Y-54805641D01*
X59043213Y-54834576D01*
X59043215Y-54834577D01*
X59195942Y-54875500D01*
X59195943Y-54875500D01*
X60676249Y-54875500D01*
X60743288Y-54895185D01*
X60763930Y-54911819D01*
X61363181Y-55511070D01*
X61396666Y-55572393D01*
X61399500Y-55598751D01*
X61399500Y-59917587D01*
X61379815Y-59984626D01*
X61372450Y-59994896D01*
X61370186Y-59997734D01*
X61274211Y-60150476D01*
X61214631Y-60320745D01*
X61214630Y-60320750D01*
X61194435Y-60499996D01*
X61194435Y-60500003D01*
X61214630Y-60679249D01*
X61214631Y-60679254D01*
X61274211Y-60849523D01*
X61367620Y-60998181D01*
X61370184Y-61002262D01*
X61497738Y-61129816D01*
X61593285Y-61189852D01*
X61639576Y-61242187D01*
X61650224Y-61311240D01*
X61644355Y-61335800D01*
X61614632Y-61420742D01*
X61614630Y-61420750D01*
X61594435Y-61599996D01*
X61594435Y-61600003D01*
X61614630Y-61779249D01*
X61614631Y-61779254D01*
X61674211Y-61949523D01*
X61737646Y-62050478D01*
X61770184Y-62102262D01*
X61897738Y-62229816D01*
X61985865Y-62285190D01*
X62037362Y-62317548D01*
X62050478Y-62325789D01*
X62090264Y-62339710D01*
X62118095Y-62349449D01*
X62174871Y-62390171D01*
X62200361Y-62452607D01*
X62214630Y-62579250D01*
X62214631Y-62579254D01*
X62274211Y-62749523D01*
X62370184Y-62902262D01*
X62497738Y-63029816D01*
X62588080Y-63086582D01*
X62639348Y-63118796D01*
X62650478Y-63125789D01*
X62796914Y-63177029D01*
X62820745Y-63185368D01*
X62820750Y-63185369D01*
X62999996Y-63205565D01*
X63000000Y-63205565D01*
X63000004Y-63205565D01*
X63179249Y-63185369D01*
X63179252Y-63185368D01*
X63179255Y-63185368D01*
X63349522Y-63125789D01*
X63502262Y-63029816D01*
X63629816Y-62902262D01*
X63725789Y-62749522D01*
X63785368Y-62579255D01*
X63796531Y-62480184D01*
X63805565Y-62400003D01*
X63805565Y-62399996D01*
X63785369Y-62220750D01*
X63785368Y-62220745D01*
X63770848Y-62179249D01*
X63725789Y-62050478D01*
X63629816Y-61897738D01*
X63629814Y-61897736D01*
X63629813Y-61897734D01*
X63627550Y-61894896D01*
X63626659Y-61892715D01*
X63626111Y-61891842D01*
X63626264Y-61891745D01*
X63601144Y-61830209D01*
X63600500Y-61817587D01*
X63600500Y-54410718D01*
X63620185Y-54343679D01*
X63668207Y-54300233D01*
X63707815Y-54280052D01*
X63707815Y-54280051D01*
X63707816Y-54280051D01*
X63833120Y-54189013D01*
X63879786Y-54155109D01*
X63879788Y-54155106D01*
X63879792Y-54155104D01*
X64030104Y-54004792D01*
X64030106Y-54004788D01*
X64030109Y-54004786D01*
X64155048Y-53832820D01*
X64155047Y-53832820D01*
X64155051Y-53832816D01*
X64251557Y-53643412D01*
X64317246Y-53441243D01*
X64350500Y-53231287D01*
X64350500Y-52768713D01*
X64317246Y-52558757D01*
X64286072Y-52462816D01*
X64284078Y-52392977D01*
X64320158Y-52333144D01*
X64382859Y-52302316D01*
X64404004Y-52300500D01*
X69834218Y-52300500D01*
X69901257Y-52320185D01*
X69921899Y-52336819D01*
X70129338Y-52544259D01*
X70162823Y-52605582D01*
X70164130Y-52651338D01*
X70149500Y-52743707D01*
X70149500Y-52743713D01*
X70149500Y-53206287D01*
X70153460Y-53231287D01*
X70181871Y-53410672D01*
X70182754Y-53416243D01*
X70232574Y-53569574D01*
X70248444Y-53618414D01*
X70344951Y-53807820D01*
X70472759Y-53983734D01*
X70471888Y-53984366D01*
X70498357Y-54043401D01*
X70499500Y-54060199D01*
X70499500Y-58098544D01*
X70537947Y-58291828D01*
X70537950Y-58291840D01*
X70545448Y-58309942D01*
X70554244Y-58344788D01*
X70559651Y-58397709D01*
X70612996Y-58558694D01*
X70613001Y-58558705D01*
X70702029Y-58703040D01*
X70702032Y-58703044D01*
X70821955Y-58822967D01*
X70821959Y-58822970D01*
X70966294Y-58911998D01*
X70966296Y-58911998D01*
X70966303Y-58912003D01*
X70984442Y-58918013D01*
X71033117Y-58948037D01*
X71362215Y-59277136D01*
X71362219Y-59277139D01*
X71526079Y-59386627D01*
X71526083Y-59386629D01*
X71526086Y-59386631D01*
X71708164Y-59462051D01*
X71901455Y-59500499D01*
X71901458Y-59500500D01*
X71901460Y-59500500D01*
X72098542Y-59500500D01*
X72098543Y-59500499D01*
X72291836Y-59462051D01*
X72473914Y-59386631D01*
X72637781Y-59277139D01*
X72777139Y-59137781D01*
X72886631Y-58973914D01*
X72962051Y-58791836D01*
X73000500Y-58598540D01*
X73000500Y-58401460D01*
X73000500Y-58401457D01*
X73000499Y-58401455D01*
X72985531Y-58326206D01*
X72962051Y-58208164D01*
X72886631Y-58026086D01*
X72886629Y-58026083D01*
X72886627Y-58026079D01*
X72777139Y-57862219D01*
X72777136Y-57862215D01*
X72536819Y-57621898D01*
X72503334Y-57560575D01*
X72500500Y-57534217D01*
X72500500Y-54060199D01*
X72520185Y-53993160D01*
X72529426Y-53980725D01*
X72544870Y-53959468D01*
X72649683Y-53815204D01*
X72705011Y-53772540D01*
X72774624Y-53766561D01*
X72836420Y-53799166D01*
X72850313Y-53815199D01*
X72941215Y-53940316D01*
X72969896Y-53979792D01*
X73120213Y-54130109D01*
X73292179Y-54255048D01*
X73292181Y-54255049D01*
X73292184Y-54255051D01*
X73481588Y-54351557D01*
X73683757Y-54417246D01*
X73893713Y-54450500D01*
X73893714Y-54450500D01*
X74106286Y-54450500D01*
X74106287Y-54450500D01*
X74316243Y-54417246D01*
X74518412Y-54351557D01*
X74707816Y-54255051D01*
X74772150Y-54208310D01*
X74879786Y-54130109D01*
X74879788Y-54130106D01*
X74879792Y-54130104D01*
X75030104Y-53979792D01*
X75149683Y-53815204D01*
X75205011Y-53772540D01*
X75274624Y-53766561D01*
X75336420Y-53799166D01*
X75350313Y-53815199D01*
X75441215Y-53940316D01*
X75469896Y-53979792D01*
X75620213Y-54130109D01*
X75792179Y-54255048D01*
X75792181Y-54255049D01*
X75792184Y-54255051D01*
X75981588Y-54351557D01*
X76183757Y-54417246D01*
X76393713Y-54450500D01*
X76393714Y-54450500D01*
X76606286Y-54450500D01*
X76606287Y-54450500D01*
X76816243Y-54417246D01*
X77018412Y-54351557D01*
X77207816Y-54255051D01*
X77272150Y-54208310D01*
X77379786Y-54130109D01*
X77379788Y-54130106D01*
X77379792Y-54130104D01*
X77530104Y-53979792D01*
X77649683Y-53815204D01*
X77705011Y-53772540D01*
X77774624Y-53766561D01*
X77836420Y-53799166D01*
X77850313Y-53815199D01*
X77941215Y-53940316D01*
X77969896Y-53979792D01*
X78120213Y-54130109D01*
X78292179Y-54255048D01*
X78292181Y-54255049D01*
X78292184Y-54255051D01*
X78481588Y-54351557D01*
X78683757Y-54417246D01*
X78893713Y-54450500D01*
X78893714Y-54450500D01*
X79106286Y-54450500D01*
X79106287Y-54450500D01*
X79316243Y-54417246D01*
X79518412Y-54351557D01*
X79707816Y-54255051D01*
X79772150Y-54208310D01*
X79879786Y-54130109D01*
X79879788Y-54130106D01*
X79879792Y-54130104D01*
X80030104Y-53979792D01*
X80030106Y-53979788D01*
X80030109Y-53979786D01*
X80155048Y-53807820D01*
X80155047Y-53807820D01*
X80155051Y-53807816D01*
X80251557Y-53618412D01*
X80317246Y-53416243D01*
X80350500Y-53206287D01*
X80350500Y-52743713D01*
X80317246Y-52533757D01*
X80251557Y-52331588D01*
X80155051Y-52142184D01*
X80155049Y-52142181D01*
X80155048Y-52142179D01*
X80030109Y-51970213D01*
X79879786Y-51819890D01*
X79707820Y-51694951D01*
X79518414Y-51598444D01*
X79518413Y-51598443D01*
X79518412Y-51598443D01*
X79316243Y-51532754D01*
X79316241Y-51532753D01*
X79316240Y-51532753D01*
X79123725Y-51502262D01*
X79106287Y-51499500D01*
X78893713Y-51499500D01*
X78876275Y-51502262D01*
X78683760Y-51532753D01*
X78481585Y-51598444D01*
X78292179Y-51694951D01*
X78120213Y-51819890D01*
X77969894Y-51970209D01*
X77969890Y-51970214D01*
X77850318Y-52134793D01*
X77794989Y-52177459D01*
X77725375Y-52183438D01*
X77663580Y-52150833D01*
X77649682Y-52134793D01*
X77530109Y-51970214D01*
X77530105Y-51970209D01*
X77379786Y-51819890D01*
X77207820Y-51694951D01*
X77018414Y-51598444D01*
X77018413Y-51598443D01*
X77018412Y-51598443D01*
X76816243Y-51532754D01*
X76816241Y-51532753D01*
X76816240Y-51532753D01*
X76623725Y-51502262D01*
X76606287Y-51499500D01*
X76393713Y-51499500D01*
X76376275Y-51502262D01*
X76183760Y-51532753D01*
X75981585Y-51598444D01*
X75792179Y-51694951D01*
X75620213Y-51819890D01*
X75469894Y-51970209D01*
X75469890Y-51970214D01*
X75350318Y-52134793D01*
X75294989Y-52177459D01*
X75225375Y-52183438D01*
X75163580Y-52150833D01*
X75149682Y-52134793D01*
X75030109Y-51970214D01*
X75030105Y-51970209D01*
X74879786Y-51819890D01*
X74707820Y-51694951D01*
X74518414Y-51598444D01*
X74518413Y-51598443D01*
X74518412Y-51598443D01*
X74316243Y-51532754D01*
X74316241Y-51532753D01*
X74316240Y-51532753D01*
X74123725Y-51502262D01*
X74106287Y-51499500D01*
X73893713Y-51499500D01*
X73876275Y-51502262D01*
X73683760Y-51532753D01*
X73481585Y-51598444D01*
X73292179Y-51694951D01*
X73120213Y-51819890D01*
X72969894Y-51970209D01*
X72969890Y-51970214D01*
X72850318Y-52134793D01*
X72794989Y-52177459D01*
X72725375Y-52183438D01*
X72663580Y-52150833D01*
X72649682Y-52134793D01*
X72530109Y-51970214D01*
X72530105Y-51970209D01*
X72379786Y-51819890D01*
X72207820Y-51694951D01*
X72025617Y-51602114D01*
X71994231Y-51579310D01*
X71127101Y-50712181D01*
X71093616Y-50650858D01*
X71098600Y-50581167D01*
X71140472Y-50525233D01*
X71205936Y-50500816D01*
X71214782Y-50500500D01*
X87651928Y-50500500D01*
X87718967Y-50520185D01*
G37*
G04 #@! TD.AperFunction*
G04 #@! TA.AperFunction,Conductor*
G36*
X128516177Y-50520185D02*
G01*
X128536819Y-50536819D01*
X131463681Y-53463681D01*
X131497166Y-53525004D01*
X131500000Y-53551362D01*
X131500000Y-58031316D01*
X131480315Y-58098355D01*
X131427511Y-58144110D01*
X131358353Y-58154054D01*
X131328548Y-58145877D01*
X131297338Y-58132949D01*
X131297329Y-58132946D01*
X131200688Y-58113724D01*
X131104044Y-58094500D01*
X131104041Y-58094500D01*
X129689459Y-58094500D01*
X129689457Y-58094500D01*
X129496170Y-58132947D01*
X129496160Y-58132950D01*
X129314093Y-58208364D01*
X129314077Y-58208373D01*
X129253867Y-58248603D01*
X129187189Y-58269480D01*
X129184979Y-58269500D01*
X128977630Y-58269500D01*
X128977623Y-58269501D01*
X128918016Y-58275908D01*
X128783171Y-58326202D01*
X128783164Y-58326206D01*
X128667955Y-58412452D01*
X128667952Y-58412455D01*
X128581706Y-58527664D01*
X128581702Y-58527671D01*
X128531410Y-58662513D01*
X128531409Y-58662517D01*
X128525000Y-58722127D01*
X128525000Y-58722134D01*
X128525000Y-58722135D01*
X128525000Y-59467870D01*
X128525001Y-59467876D01*
X128531408Y-59527483D01*
X128581702Y-59662328D01*
X128585954Y-59670114D01*
X128582780Y-59671846D01*
X128601159Y-59721302D01*
X128586225Y-59789557D01*
X128585617Y-59790502D01*
X128581702Y-59797671D01*
X128531410Y-59932513D01*
X128531409Y-59932517D01*
X128525000Y-59992127D01*
X128525000Y-59992134D01*
X128525000Y-59992135D01*
X128525000Y-60737870D01*
X128525001Y-60737876D01*
X128531408Y-60797483D01*
X128557399Y-60867167D01*
X128562383Y-60936859D01*
X128528898Y-60998182D01*
X128467574Y-61031666D01*
X128441217Y-61034500D01*
X124215097Y-61034500D01*
X124148058Y-61014815D01*
X124127416Y-60998181D01*
X117043363Y-53914128D01*
X117009878Y-53852805D01*
X117011270Y-53794351D01*
X117031034Y-53720595D01*
X117031034Y-53720594D01*
X117031035Y-53720591D01*
X117050334Y-53500000D01*
X117050334Y-53499998D01*
X119589666Y-53499998D01*
X119589666Y-53500001D01*
X119608964Y-53720585D01*
X119608965Y-53720592D01*
X119666275Y-53934475D01*
X119666279Y-53934486D01*
X119756184Y-54127289D01*
X119759858Y-54135167D01*
X119886868Y-54316555D01*
X120043445Y-54473132D01*
X120224833Y-54600142D01*
X120308967Y-54639374D01*
X120425513Y-54693720D01*
X120425515Y-54693720D01*
X120425520Y-54693723D01*
X120639409Y-54751035D01*
X120796974Y-54764820D01*
X120859998Y-54770334D01*
X120860000Y-54770334D01*
X120860002Y-54770334D01*
X120915276Y-54765498D01*
X121080591Y-54751035D01*
X121294480Y-54693723D01*
X121495167Y-54600142D01*
X121676555Y-54473132D01*
X121833132Y-54316555D01*
X121960142Y-54135167D01*
X122017618Y-54011907D01*
X122063790Y-53959468D01*
X122130983Y-53940316D01*
X122197864Y-53960531D01*
X122242381Y-54011907D01*
X122299858Y-54135167D01*
X122426868Y-54316555D01*
X122583445Y-54473132D01*
X122764833Y-54600142D01*
X122848967Y-54639374D01*
X122965513Y-54693720D01*
X122965515Y-54693720D01*
X122965520Y-54693723D01*
X123179409Y-54751035D01*
X123336974Y-54764820D01*
X123399998Y-54770334D01*
X123400000Y-54770334D01*
X123400002Y-54770334D01*
X123455276Y-54765498D01*
X123620591Y-54751035D01*
X123834480Y-54693723D01*
X124035167Y-54600142D01*
X124216555Y-54473132D01*
X124373132Y-54316555D01*
X124448928Y-54208307D01*
X124503501Y-54164685D01*
X124573000Y-54157491D01*
X124635355Y-54189013D01*
X124670769Y-54249243D01*
X124674500Y-54279430D01*
X124674500Y-54312868D01*
X124674501Y-54312876D01*
X124680908Y-54372483D01*
X124731202Y-54507328D01*
X124731206Y-54507335D01*
X124817452Y-54622544D01*
X124817455Y-54622547D01*
X124932664Y-54708793D01*
X124932671Y-54708797D01*
X125067517Y-54759091D01*
X125067516Y-54759091D01*
X125074444Y-54759835D01*
X125127127Y-54765500D01*
X126752872Y-54765499D01*
X126812483Y-54759091D01*
X126947331Y-54708796D01*
X127062546Y-54622546D01*
X127148796Y-54507331D01*
X127199091Y-54372483D01*
X127205500Y-54312873D01*
X127205499Y-52687128D01*
X127199091Y-52627517D01*
X127176439Y-52566785D01*
X127148797Y-52492671D01*
X127148793Y-52492664D01*
X127062547Y-52377455D01*
X127062544Y-52377452D01*
X126947335Y-52291206D01*
X126947328Y-52291202D01*
X126812482Y-52240908D01*
X126812483Y-52240908D01*
X126752883Y-52234501D01*
X126752881Y-52234500D01*
X126752873Y-52234500D01*
X126752864Y-52234500D01*
X125127129Y-52234500D01*
X125127123Y-52234501D01*
X125067516Y-52240908D01*
X124932671Y-52291202D01*
X124932664Y-52291206D01*
X124817455Y-52377452D01*
X124817452Y-52377455D01*
X124731206Y-52492664D01*
X124731202Y-52492671D01*
X124680908Y-52627517D01*
X124674896Y-52683441D01*
X124674501Y-52687123D01*
X124674500Y-52687135D01*
X124674500Y-52720564D01*
X124654815Y-52787603D01*
X124602011Y-52833358D01*
X124532853Y-52843302D01*
X124469297Y-52814277D01*
X124448926Y-52791688D01*
X124373137Y-52683452D01*
X124373136Y-52683451D01*
X124373132Y-52683445D01*
X124216555Y-52526868D01*
X124035167Y-52399858D01*
X124020411Y-52392977D01*
X123834486Y-52306279D01*
X123834475Y-52306275D01*
X123620592Y-52248965D01*
X123620585Y-52248964D01*
X123400002Y-52229666D01*
X123399998Y-52229666D01*
X123179414Y-52248964D01*
X123179407Y-52248965D01*
X122965524Y-52306275D01*
X122965513Y-52306279D01*
X122764836Y-52399856D01*
X122764834Y-52399857D01*
X122583444Y-52526868D01*
X122426868Y-52683444D01*
X122299857Y-52864834D01*
X122299856Y-52864836D01*
X122242382Y-52988091D01*
X122196210Y-53040531D01*
X122129017Y-53059683D01*
X122062135Y-53039467D01*
X122017618Y-52988091D01*
X121960143Y-52864836D01*
X121960142Y-52864834D01*
X121960142Y-52864833D01*
X121833132Y-52683445D01*
X121676555Y-52526868D01*
X121495167Y-52399858D01*
X121480411Y-52392977D01*
X121294486Y-52306279D01*
X121294475Y-52306275D01*
X121080592Y-52248965D01*
X121080585Y-52248964D01*
X120860002Y-52229666D01*
X120859998Y-52229666D01*
X120639414Y-52248964D01*
X120639407Y-52248965D01*
X120425524Y-52306275D01*
X120425513Y-52306279D01*
X120224836Y-52399856D01*
X120224834Y-52399857D01*
X120043444Y-52526868D01*
X119886868Y-52683444D01*
X119759857Y-52864834D01*
X119759856Y-52864836D01*
X119666279Y-53065513D01*
X119666275Y-53065524D01*
X119608965Y-53279407D01*
X119608964Y-53279414D01*
X119589666Y-53499998D01*
X117050334Y-53499998D01*
X117031035Y-53279409D01*
X116973723Y-53065520D01*
X116969975Y-53057483D01*
X116936443Y-52985572D01*
X116880142Y-52864833D01*
X116753132Y-52683445D01*
X116596555Y-52526868D01*
X116415167Y-52399858D01*
X116400411Y-52392977D01*
X116214486Y-52306279D01*
X116214475Y-52306275D01*
X116000592Y-52248965D01*
X116000585Y-52248964D01*
X115780002Y-52229666D01*
X115779998Y-52229666D01*
X115559414Y-52248964D01*
X115559407Y-52248965D01*
X115345524Y-52306275D01*
X115345513Y-52306279D01*
X115144836Y-52399856D01*
X115144834Y-52399857D01*
X114963444Y-52526868D01*
X114806868Y-52683444D01*
X114679857Y-52864834D01*
X114679856Y-52864836D01*
X114622382Y-52988091D01*
X114576210Y-53040531D01*
X114509017Y-53059683D01*
X114442135Y-53039467D01*
X114397618Y-52988091D01*
X114340143Y-52864836D01*
X114340142Y-52864834D01*
X114340142Y-52864833D01*
X114213132Y-52683445D01*
X114056555Y-52526868D01*
X113875167Y-52399858D01*
X113860411Y-52392977D01*
X113674486Y-52306279D01*
X113674475Y-52306275D01*
X113460592Y-52248965D01*
X113460585Y-52248964D01*
X113240002Y-52229666D01*
X113239998Y-52229666D01*
X113019414Y-52248964D01*
X113019407Y-52248965D01*
X112805524Y-52306275D01*
X112805513Y-52306279D01*
X112604836Y-52399856D01*
X112604834Y-52399857D01*
X112423444Y-52526868D01*
X112266868Y-52683444D01*
X112139857Y-52864834D01*
X112139856Y-52864836D01*
X112082382Y-52988091D01*
X112036210Y-53040531D01*
X111969017Y-53059683D01*
X111902135Y-53039467D01*
X111857618Y-52988091D01*
X111800143Y-52864836D01*
X111800142Y-52864834D01*
X111800142Y-52864833D01*
X111673132Y-52683445D01*
X111516555Y-52526868D01*
X111335167Y-52399858D01*
X111320411Y-52392977D01*
X111134486Y-52306279D01*
X111134475Y-52306275D01*
X110920592Y-52248965D01*
X110920585Y-52248964D01*
X110700002Y-52229666D01*
X110699998Y-52229666D01*
X110479414Y-52248964D01*
X110479407Y-52248965D01*
X110265524Y-52306275D01*
X110265513Y-52306279D01*
X110064836Y-52399856D01*
X110064834Y-52399857D01*
X109883444Y-52526868D01*
X109726868Y-52683444D01*
X109599857Y-52864834D01*
X109599856Y-52864836D01*
X109542382Y-52988091D01*
X109496210Y-53040531D01*
X109429017Y-53059683D01*
X109362135Y-53039467D01*
X109317618Y-52988091D01*
X109260143Y-52864836D01*
X109260142Y-52864834D01*
X109260142Y-52864833D01*
X109133132Y-52683445D01*
X108976555Y-52526868D01*
X108795167Y-52399858D01*
X108780411Y-52392977D01*
X108594486Y-52306279D01*
X108594475Y-52306275D01*
X108380592Y-52248965D01*
X108380585Y-52248964D01*
X108160002Y-52229666D01*
X108159998Y-52229666D01*
X107939414Y-52248964D01*
X107939407Y-52248965D01*
X107725524Y-52306275D01*
X107725513Y-52306279D01*
X107524836Y-52399856D01*
X107524834Y-52399857D01*
X107343444Y-52526868D01*
X107186868Y-52683444D01*
X107059857Y-52864834D01*
X107059856Y-52864836D01*
X107002382Y-52988091D01*
X106956210Y-53040531D01*
X106889017Y-53059683D01*
X106822135Y-53039467D01*
X106777618Y-52988091D01*
X106720143Y-52864836D01*
X106720142Y-52864834D01*
X106720142Y-52864833D01*
X106593132Y-52683445D01*
X106436555Y-52526868D01*
X106255167Y-52399858D01*
X106240411Y-52392977D01*
X106054486Y-52306279D01*
X106054475Y-52306275D01*
X105840592Y-52248965D01*
X105840585Y-52248964D01*
X105620002Y-52229666D01*
X105619998Y-52229666D01*
X105399414Y-52248964D01*
X105399407Y-52248965D01*
X105185524Y-52306275D01*
X105185513Y-52306279D01*
X104984836Y-52399856D01*
X104984834Y-52399857D01*
X104803444Y-52526868D01*
X104646868Y-52683444D01*
X104519857Y-52864834D01*
X104519856Y-52864836D01*
X104462382Y-52988091D01*
X104416210Y-53040531D01*
X104349017Y-53059683D01*
X104282135Y-53039467D01*
X104237618Y-52988091D01*
X104180143Y-52864836D01*
X104180142Y-52864834D01*
X104180142Y-52864833D01*
X104053132Y-52683445D01*
X103896555Y-52526868D01*
X103715167Y-52399858D01*
X103700411Y-52392977D01*
X103514486Y-52306279D01*
X103514475Y-52306275D01*
X103300592Y-52248965D01*
X103300585Y-52248964D01*
X103080002Y-52229666D01*
X103079998Y-52229666D01*
X102859414Y-52248964D01*
X102859407Y-52248965D01*
X102645524Y-52306275D01*
X102645513Y-52306279D01*
X102444836Y-52399856D01*
X102444834Y-52399857D01*
X102263444Y-52526868D01*
X102106868Y-52683444D01*
X101979857Y-52864834D01*
X101979856Y-52864836D01*
X101922382Y-52988091D01*
X101876210Y-53040531D01*
X101809017Y-53059683D01*
X101742135Y-53039467D01*
X101697618Y-52988091D01*
X101640143Y-52864836D01*
X101640142Y-52864834D01*
X101640142Y-52864833D01*
X101513132Y-52683445D01*
X101356555Y-52526868D01*
X101175167Y-52399858D01*
X101160411Y-52392977D01*
X100974486Y-52306279D01*
X100974475Y-52306275D01*
X100760592Y-52248965D01*
X100760585Y-52248964D01*
X100540002Y-52229666D01*
X100539998Y-52229666D01*
X100319414Y-52248964D01*
X100319400Y-52248967D01*
X100245643Y-52268729D01*
X100175793Y-52267065D01*
X100125870Y-52236635D01*
X98762590Y-50873355D01*
X98762588Y-50873352D01*
X98643717Y-50754481D01*
X98643712Y-50754477D01*
X98604584Y-50731887D01*
X98556369Y-50681321D01*
X98543145Y-50612714D01*
X98569113Y-50547849D01*
X98626027Y-50507320D01*
X98666584Y-50500500D01*
X128449138Y-50500500D01*
X128516177Y-50520185D01*
G37*
G04 #@! TD.AperFunction*
M02*
