G04 #@! TF.GenerationSoftware,KiCad,Pcbnew,8.0.4*
G04 #@! TF.CreationDate,2024-08-27T21:55:02+09:00*
G04 #@! TF.ProjectId,MDC,4d44432e-6b69-4636-9164-5f7063625858,rev?*
G04 #@! TF.SameCoordinates,Original*
G04 #@! TF.FileFunction,Copper,L2,Bot*
G04 #@! TF.FilePolarity,Positive*
%FSLAX46Y46*%
G04 Gerber Fmt 4.6, Leading zero omitted, Abs format (unit mm)*
G04 Created by KiCad (PCBNEW 8.0.4) date 2024-08-27 21:55:02*
%MOMM*%
%LPD*%
G01*
G04 APERTURE LIST*
G04 Aperture macros list*
%AMRoundRect*
0 Rectangle with rounded corners*
0 $1 Rounding radius*
0 $2 $3 $4 $5 $6 $7 $8 $9 X,Y pos of 4 corners*
0 Add a 4 corners polygon primitive as box body*
4,1,4,$2,$3,$4,$5,$6,$7,$8,$9,$2,$3,0*
0 Add four circle primitives for the rounded corners*
1,1,$1+$1,$2,$3*
1,1,$1+$1,$4,$5*
1,1,$1+$1,$6,$7*
1,1,$1+$1,$8,$9*
0 Add four rect primitives between the rounded corners*
20,1,$1+$1,$2,$3,$4,$5,0*
20,1,$1+$1,$4,$5,$6,$7,0*
20,1,$1+$1,$6,$7,$8,$9,0*
20,1,$1+$1,$8,$9,$2,$3,0*%
G04 Aperture macros list end*
G04 #@! TA.AperFunction,ComponentPad*
%ADD10RoundRect,0.250000X-0.600000X-0.725000X0.600000X-0.725000X0.600000X0.725000X-0.600000X0.725000X0*%
G04 #@! TD*
G04 #@! TA.AperFunction,ComponentPad*
%ADD11O,1.700000X1.950000*%
G04 #@! TD*
G04 #@! TA.AperFunction,ComponentPad*
%ADD12R,1.530000X1.530000*%
G04 #@! TD*
G04 #@! TA.AperFunction,ComponentPad*
%ADD13C,1.530000*%
G04 #@! TD*
G04 #@! TA.AperFunction,ComponentPad*
%ADD14R,1.700000X1.700000*%
G04 #@! TD*
G04 #@! TA.AperFunction,ComponentPad*
%ADD15O,1.700000X1.700000*%
G04 #@! TD*
G04 #@! TA.AperFunction,ComponentPad*
%ADD16RoundRect,0.250000X0.600000X0.725000X-0.600000X0.725000X-0.600000X-0.725000X0.600000X-0.725000X0*%
G04 #@! TD*
G04 #@! TA.AperFunction,ViaPad*
%ADD17C,0.600000*%
G04 #@! TD*
G04 #@! TA.AperFunction,Conductor*
%ADD18C,1.000000*%
G04 #@! TD*
G04 #@! TA.AperFunction,Conductor*
%ADD19C,0.200000*%
G04 #@! TD*
G04 APERTURE END LIST*
D10*
X69000000Y-52975000D03*
D11*
X71500000Y-52975000D03*
X74000000Y-52975000D03*
X76500000Y-52975000D03*
X79000000Y-52975000D03*
D12*
X125940000Y-53500000D03*
D13*
X123400000Y-53500000D03*
X120860000Y-53500000D03*
X118320000Y-53500000D03*
X115780000Y-53500000D03*
X113240000Y-53500000D03*
X110700000Y-53500000D03*
X108160000Y-53500000D03*
X105620000Y-53500000D03*
X103080000Y-53500000D03*
X100540000Y-53500000D03*
X98000000Y-53500000D03*
X95460000Y-53500000D03*
X92920000Y-53500000D03*
X90380000Y-53500000D03*
D12*
X125940000Y-68740000D03*
D13*
X123400000Y-68740000D03*
X120860000Y-68740000D03*
X118320000Y-68740000D03*
X115780000Y-68740000D03*
X113240000Y-68740000D03*
X110700000Y-68740000D03*
X108160000Y-68740000D03*
X105620000Y-68740000D03*
X103080000Y-68740000D03*
X100540000Y-68740000D03*
X98000000Y-68740000D03*
X95460000Y-68740000D03*
X92920000Y-68740000D03*
X90380000Y-68740000D03*
D14*
X58500000Y-72220000D03*
D15*
X61040000Y-72220000D03*
X58500000Y-74760000D03*
X61040000Y-74760000D03*
X58500000Y-77300000D03*
X61040000Y-77300000D03*
X58500000Y-79840000D03*
X61040000Y-79840000D03*
X58500000Y-82380000D03*
X61040000Y-82380000D03*
X58500000Y-84920000D03*
X61040000Y-84920000D03*
X58500000Y-87460000D03*
X61040000Y-87460000D03*
X58500000Y-90000000D03*
X61040000Y-90000000D03*
X58500000Y-92540000D03*
X61040000Y-92540000D03*
X58500000Y-95080000D03*
X61040000Y-95080000D03*
X58500000Y-97620000D03*
X61040000Y-97620000D03*
X58500000Y-100160000D03*
X61040000Y-100160000D03*
X58500000Y-102700000D03*
X61040000Y-102700000D03*
X58500000Y-105240000D03*
X61040000Y-105240000D03*
X58500000Y-107780000D03*
X61040000Y-107780000D03*
X58500000Y-110320000D03*
X61040000Y-110320000D03*
X58500000Y-112860000D03*
X61040000Y-112860000D03*
X58500000Y-115400000D03*
X61040000Y-115400000D03*
X58500000Y-117940000D03*
X61040000Y-117940000D03*
X58500000Y-120480000D03*
X61040000Y-120480000D03*
D10*
X139250000Y-52975000D03*
D11*
X141750000Y-52975000D03*
X144250000Y-52975000D03*
X146750000Y-52975000D03*
D10*
X53000000Y-53000000D03*
D11*
X55500000Y-53000000D03*
X58000000Y-53000000D03*
X60500000Y-53000000D03*
X63000000Y-53000000D03*
D16*
X79500000Y-69000000D03*
D11*
X77000000Y-69000000D03*
X74500000Y-69000000D03*
X72000000Y-69000000D03*
X69500000Y-69000000D03*
X67000000Y-69000000D03*
D17*
X64500000Y-102000000D03*
X129500000Y-53500000D03*
X51500000Y-73500000D03*
X53500000Y-51000000D03*
X59000000Y-59000000D03*
X52000000Y-102000000D03*
X58500000Y-122500000D03*
X51500000Y-127000000D03*
X122000000Y-61000000D03*
X63000000Y-108000000D03*
X63000000Y-95500000D03*
X129500000Y-69500000D03*
X62500000Y-113000000D03*
X63000000Y-87500000D03*
X51000000Y-53000000D03*
X65000000Y-127500000D03*
X95500000Y-61000000D03*
X63000000Y-77500000D03*
X53000000Y-55000000D03*
X64500000Y-72500000D03*
X110000000Y-64500000D03*
X114500000Y-61500000D03*
X86500000Y-69500000D03*
X67000000Y-53500000D03*
X56500000Y-120500000D03*
X115500000Y-56000000D03*
X123500000Y-70500000D03*
X123500000Y-67000000D03*
X81000000Y-69500000D03*
X78500000Y-70500000D03*
X69000000Y-55000000D03*
X119500000Y-55000000D03*
X59500000Y-83500000D03*
X118000000Y-58000000D03*
X58000000Y-70000000D03*
X72000000Y-58500000D03*
X130000000Y-71500000D03*
X91500000Y-51835000D03*
X137000000Y-55500000D03*
X140000000Y-67500000D03*
X133500000Y-57000000D03*
X133500000Y-51000000D03*
X134000000Y-67500000D03*
X145500000Y-51000000D03*
X141500000Y-56500000D03*
X135000000Y-51000000D03*
X143500000Y-59000000D03*
X148000000Y-61000000D03*
X148500000Y-51000000D03*
X138000000Y-60500000D03*
X147000000Y-54500000D03*
X148000000Y-57500000D03*
X136500000Y-51000000D03*
X138000000Y-64500000D03*
X148500000Y-71000000D03*
X135500000Y-71000000D03*
X135000000Y-63000000D03*
X141000000Y-61000000D03*
X129500000Y-60500000D03*
X137800000Y-59095000D03*
X135212000Y-61635000D03*
X96500000Y-64400000D03*
X62400000Y-61600000D03*
X94000000Y-64367157D03*
X62000000Y-60500000D03*
X88500000Y-51000000D03*
X99000000Y-65000000D03*
X63000000Y-62400000D03*
X85500000Y-62000000D03*
X108500000Y-66400000D03*
X105500000Y-66000000D03*
X102500000Y-65600000D03*
X95075899Y-51075899D03*
X98000000Y-51835000D03*
D18*
X61040000Y-72220000D02*
X61040000Y-74760000D01*
X60022081Y-70000000D02*
X61040000Y-71017919D01*
X73500000Y-58000000D02*
X118000000Y-58000000D01*
X58000000Y-70000000D02*
X60022081Y-70000000D01*
X61040000Y-71017919D02*
X61040000Y-72220000D01*
X72000000Y-58500000D02*
X73000000Y-58500000D01*
X73000000Y-58500000D02*
X73500000Y-58000000D01*
X92920000Y-71420000D02*
X93000000Y-71500000D01*
X67000000Y-69000000D02*
X69500000Y-71500000D01*
X69500000Y-71500000D02*
X93000000Y-71500000D01*
X93000000Y-71500000D02*
X130000000Y-71500000D01*
X56950000Y-90990000D02*
X58500000Y-92540000D01*
X58500000Y-72220000D02*
X56950000Y-73770000D01*
X92920000Y-68740000D02*
X92920000Y-71420000D01*
X56950000Y-73770000D02*
X56950000Y-90990000D01*
D19*
X91500000Y-51835000D02*
X91365000Y-51700000D01*
X77775000Y-51700000D02*
X76500000Y-52975000D01*
X91365000Y-51700000D02*
X77775000Y-51700000D01*
X99160000Y-57200000D02*
X126200000Y-57200000D01*
X126200000Y-57200000D02*
X129500000Y-60500000D01*
X95460000Y-53500000D02*
X99160000Y-57200000D01*
X79000000Y-52975000D02*
X79540000Y-52435000D01*
X104555000Y-52435000D02*
X105620000Y-53500000D01*
X79540000Y-52435000D02*
X104555000Y-52435000D01*
X135260000Y-61635000D02*
X135212000Y-61635000D01*
X137800000Y-59095000D02*
X135260000Y-61635000D01*
X86532843Y-64967157D02*
X95932843Y-64967157D01*
X83165686Y-61600000D02*
X86532843Y-64967157D01*
X62400000Y-61600000D02*
X83165686Y-61600000D01*
X95932843Y-64967157D02*
X96500000Y-64400000D01*
X93800000Y-64567157D02*
X94000000Y-64367157D01*
X82932843Y-60500000D02*
X87000000Y-64567157D01*
X62000000Y-60500000D02*
X82932843Y-60500000D01*
X87000000Y-64567157D02*
X93800000Y-64567157D01*
X75975000Y-51000000D02*
X88500000Y-51000000D01*
X74000000Y-52975000D02*
X75975000Y-51000000D01*
X86000000Y-65000000D02*
X86400000Y-65400000D01*
X86400000Y-65400000D02*
X98600000Y-65400000D01*
X63000000Y-62400000D02*
X83400000Y-62400000D01*
X98600000Y-65400000D02*
X99000000Y-65000000D01*
X83400000Y-62400000D02*
X86000000Y-65000000D01*
X92900000Y-63767157D02*
X110807157Y-63767157D01*
X110807157Y-63767157D02*
X115780000Y-68740000D01*
X87667157Y-64167157D02*
X92500000Y-64167157D01*
X85500000Y-62000000D02*
X87667157Y-64167157D01*
X92500000Y-64167157D02*
X92900000Y-63767157D01*
X55334314Y-64100000D02*
X55100000Y-64334314D01*
X55100000Y-94220000D02*
X58500000Y-97620000D01*
X55100000Y-64334314D02*
X55100000Y-94220000D01*
X82775430Y-64100000D02*
X55334314Y-64100000D01*
X108500000Y-66400000D02*
X108300000Y-66600000D01*
X108300000Y-66600000D02*
X85275430Y-66600000D01*
X85275430Y-66600000D02*
X82775430Y-64100000D01*
X105300000Y-66200000D02*
X105500000Y-66000000D01*
X54800000Y-63700000D02*
X54500000Y-64000000D01*
X54500000Y-64000000D02*
X54500000Y-96160000D01*
X85441116Y-66200000D02*
X82941116Y-63700000D01*
X82941116Y-63700000D02*
X54800000Y-63700000D01*
X85441116Y-66200000D02*
X105300000Y-66200000D01*
X54500000Y-96160000D02*
X58500000Y-100160000D01*
X54000000Y-63934314D02*
X54000000Y-97500000D01*
X54000000Y-97500000D02*
X57810000Y-101310000D01*
X57810000Y-101310000D02*
X59890000Y-101310000D01*
X54934314Y-63000000D02*
X54000000Y-63934314D01*
X102500000Y-65600000D02*
X102300000Y-65800000D01*
X83000000Y-63000000D02*
X54934314Y-63000000D01*
X102300000Y-65800000D02*
X85800000Y-65800000D01*
X59890000Y-101310000D02*
X61040000Y-100160000D01*
X85800000Y-65800000D02*
X83000000Y-63000000D01*
X85109744Y-67000000D02*
X112000000Y-67000000D01*
X57900000Y-66422284D02*
X59042284Y-65280000D01*
X58500000Y-95080000D02*
X55500000Y-92080000D01*
X112000000Y-67000000D02*
X113240000Y-68240000D01*
X55500000Y-92080000D02*
X55500000Y-64500000D01*
X59042284Y-65280000D02*
X83389744Y-65280000D01*
X57900000Y-66900000D02*
X57900000Y-66422284D01*
X113240000Y-68240000D02*
X113240000Y-68740000D01*
X55500000Y-64500000D02*
X57900000Y-66900000D01*
X83389744Y-65280000D02*
X85109744Y-67000000D01*
X95352654Y-50799144D02*
X123239144Y-50799144D01*
X95075899Y-51075899D02*
X95352654Y-50799144D01*
X123239144Y-50799144D02*
X125940000Y-53500000D01*
X98000000Y-51835000D02*
X121735000Y-51835000D01*
X121735000Y-51835000D02*
X123400000Y-53500000D01*
G04 #@! TA.AperFunction,Conductor*
G36*
X149442539Y-50520185D02*
G01*
X149488294Y-50572989D01*
X149499500Y-50624500D01*
X149499500Y-71875500D01*
X149479815Y-71942539D01*
X149427011Y-71988294D01*
X149375500Y-71999500D01*
X135050862Y-71999500D01*
X134983823Y-71979815D01*
X134963181Y-71963181D01*
X132536319Y-69536319D01*
X132502834Y-69474996D01*
X132500000Y-69448638D01*
X132500000Y-67108711D01*
X143999500Y-67108711D01*
X143999500Y-67351288D01*
X144031161Y-67591785D01*
X144093947Y-67826104D01*
X144186773Y-68050205D01*
X144186776Y-68050212D01*
X144308064Y-68260289D01*
X144308066Y-68260292D01*
X144308067Y-68260293D01*
X144455733Y-68452736D01*
X144455739Y-68452743D01*
X144627256Y-68624260D01*
X144627262Y-68624265D01*
X144819711Y-68771936D01*
X145029788Y-68893224D01*
X145253900Y-68986054D01*
X145488211Y-69048838D01*
X145668586Y-69072584D01*
X145728711Y-69080500D01*
X145728712Y-69080500D01*
X145971289Y-69080500D01*
X146019388Y-69074167D01*
X146211789Y-69048838D01*
X146446100Y-68986054D01*
X146670212Y-68893224D01*
X146880289Y-68771936D01*
X147072738Y-68624265D01*
X147244265Y-68452738D01*
X147391936Y-68260289D01*
X147513224Y-68050212D01*
X147606054Y-67826100D01*
X147668838Y-67591789D01*
X147700500Y-67351288D01*
X147700500Y-67108712D01*
X147668838Y-66868211D01*
X147606054Y-66633900D01*
X147513224Y-66409788D01*
X147391936Y-66199711D01*
X147244265Y-66007262D01*
X147244260Y-66007256D01*
X147072743Y-65835739D01*
X147072736Y-65835733D01*
X146880293Y-65688067D01*
X146880292Y-65688066D01*
X146880289Y-65688064D01*
X146670212Y-65566776D01*
X146670205Y-65566773D01*
X146446104Y-65473947D01*
X146211785Y-65411161D01*
X145971289Y-65379500D01*
X145971288Y-65379500D01*
X145728712Y-65379500D01*
X145728711Y-65379500D01*
X145488214Y-65411161D01*
X145253895Y-65473947D01*
X145029794Y-65566773D01*
X145029785Y-65566777D01*
X144819706Y-65688067D01*
X144627263Y-65835733D01*
X144627256Y-65835739D01*
X144455739Y-66007256D01*
X144455733Y-66007263D01*
X144308067Y-66199706D01*
X144186777Y-66409785D01*
X144186773Y-66409794D01*
X144093947Y-66633895D01*
X144031161Y-66868214D01*
X143999500Y-67108711D01*
X132500000Y-67108711D01*
X132500000Y-61634996D01*
X134406435Y-61634996D01*
X134406435Y-61635003D01*
X134426630Y-61814249D01*
X134426631Y-61814254D01*
X134486211Y-61984523D01*
X134582184Y-62137262D01*
X134709738Y-62264816D01*
X134862478Y-62360789D01*
X135032745Y-62420368D01*
X135032750Y-62420369D01*
X135211996Y-62440565D01*
X135212000Y-62440565D01*
X135212004Y-62440565D01*
X135391249Y-62420369D01*
X135391252Y-62420368D01*
X135391255Y-62420368D01*
X135561522Y-62360789D01*
X135714262Y-62264816D01*
X135841816Y-62137262D01*
X135937789Y-61984522D01*
X135997368Y-61814255D01*
X136001066Y-61781426D01*
X136028130Y-61717015D01*
X136036595Y-61707638D01*
X137818535Y-59925698D01*
X137879856Y-59892215D01*
X137892311Y-59890163D01*
X137979255Y-59880368D01*
X138149522Y-59820789D01*
X138302262Y-59724816D01*
X138429816Y-59597262D01*
X138525789Y-59444522D01*
X138585368Y-59274255D01*
X138605565Y-59095000D01*
X138602419Y-59067082D01*
X138585369Y-58915750D01*
X138585368Y-58915745D01*
X138525788Y-58745476D01*
X138429815Y-58592737D01*
X138302262Y-58465184D01*
X138149523Y-58369211D01*
X137979254Y-58309631D01*
X137979249Y-58309630D01*
X137800004Y-58289435D01*
X137799996Y-58289435D01*
X137620750Y-58309630D01*
X137620745Y-58309631D01*
X137450476Y-58369211D01*
X137297737Y-58465184D01*
X137170184Y-58592737D01*
X137074210Y-58745478D01*
X137014630Y-58915750D01*
X137004837Y-59002668D01*
X136977770Y-59067082D01*
X136969298Y-59076465D01*
X135247560Y-60798203D01*
X135186237Y-60831688D01*
X135173763Y-60833742D01*
X135032749Y-60849630D01*
X135032745Y-60849631D01*
X134862476Y-60909211D01*
X134709737Y-61005184D01*
X134582184Y-61132737D01*
X134486211Y-61285476D01*
X134426631Y-61455745D01*
X134426630Y-61455750D01*
X134406435Y-61634996D01*
X132500000Y-61634996D01*
X132500000Y-52199983D01*
X137899500Y-52199983D01*
X137899500Y-53750001D01*
X137899501Y-53750018D01*
X137910000Y-53852796D01*
X137910001Y-53852799D01*
X137955894Y-53991294D01*
X137965186Y-54019334D01*
X138057288Y-54168656D01*
X138181344Y-54292712D01*
X138330666Y-54384814D01*
X138497203Y-54439999D01*
X138599991Y-54450500D01*
X139900008Y-54450499D01*
X140002797Y-54439999D01*
X140169334Y-54384814D01*
X140318656Y-54292712D01*
X140442712Y-54168656D01*
X140534814Y-54019334D01*
X140534814Y-54019331D01*
X140538178Y-54013879D01*
X140590126Y-53967154D01*
X140659088Y-53955931D01*
X140723170Y-53983774D01*
X140731398Y-53991294D01*
X140870213Y-54130109D01*
X141042179Y-54255048D01*
X141042181Y-54255049D01*
X141042184Y-54255051D01*
X141231588Y-54351557D01*
X141433757Y-54417246D01*
X141643713Y-54450500D01*
X141643714Y-54450500D01*
X141856286Y-54450500D01*
X141856287Y-54450500D01*
X142066243Y-54417246D01*
X142268412Y-54351557D01*
X142457816Y-54255051D01*
X142479789Y-54239086D01*
X142629786Y-54130109D01*
X142629788Y-54130106D01*
X142629792Y-54130104D01*
X142780104Y-53979792D01*
X142899683Y-53815204D01*
X142955011Y-53772540D01*
X143024624Y-53766561D01*
X143086420Y-53799166D01*
X143100313Y-53815199D01*
X143202560Y-53955931D01*
X143219896Y-53979792D01*
X143370213Y-54130109D01*
X143542179Y-54255048D01*
X143542181Y-54255049D01*
X143542184Y-54255051D01*
X143731588Y-54351557D01*
X143933757Y-54417246D01*
X144143713Y-54450500D01*
X144143714Y-54450500D01*
X144356286Y-54450500D01*
X144356287Y-54450500D01*
X144566243Y-54417246D01*
X144768412Y-54351557D01*
X144957816Y-54255051D01*
X144979789Y-54239086D01*
X145129786Y-54130109D01*
X145129788Y-54130106D01*
X145129792Y-54130104D01*
X145280104Y-53979792D01*
X145280106Y-53979788D01*
X145280109Y-53979786D01*
X145405048Y-53807820D01*
X145405047Y-53807820D01*
X145405051Y-53807816D01*
X145501557Y-53618412D01*
X145567246Y-53416243D01*
X145600500Y-53206287D01*
X145600500Y-52743713D01*
X145567246Y-52533757D01*
X145501557Y-52331588D01*
X145405051Y-52142184D01*
X145405049Y-52142181D01*
X145405048Y-52142179D01*
X145280109Y-51970213D01*
X145129786Y-51819890D01*
X144957820Y-51694951D01*
X144768414Y-51598444D01*
X144768413Y-51598443D01*
X144768412Y-51598443D01*
X144566243Y-51532754D01*
X144566241Y-51532753D01*
X144566240Y-51532753D01*
X144404957Y-51507208D01*
X144356287Y-51499500D01*
X144143713Y-51499500D01*
X144095042Y-51507208D01*
X143933760Y-51532753D01*
X143731585Y-51598444D01*
X143542179Y-51694951D01*
X143370213Y-51819890D01*
X143219894Y-51970209D01*
X143219890Y-51970214D01*
X143100318Y-52134793D01*
X143044989Y-52177459D01*
X142975375Y-52183438D01*
X142913580Y-52150833D01*
X142899682Y-52134793D01*
X142780109Y-51970214D01*
X142780105Y-51970209D01*
X142629786Y-51819890D01*
X142457820Y-51694951D01*
X142268414Y-51598444D01*
X142268413Y-51598443D01*
X142268412Y-51598443D01*
X142066243Y-51532754D01*
X142066241Y-51532753D01*
X142066240Y-51532753D01*
X141904957Y-51507208D01*
X141856287Y-51499500D01*
X141643713Y-51499500D01*
X141595042Y-51507208D01*
X141433760Y-51532753D01*
X141231585Y-51598444D01*
X141042179Y-51694951D01*
X140870215Y-51819889D01*
X140731398Y-51958706D01*
X140670075Y-51992190D01*
X140600383Y-51987206D01*
X140544450Y-51945334D01*
X140538178Y-51936120D01*
X140442712Y-51781344D01*
X140318657Y-51657289D01*
X140318656Y-51657288D01*
X140169334Y-51565186D01*
X140002797Y-51510001D01*
X140002795Y-51510000D01*
X139900010Y-51499500D01*
X138599998Y-51499500D01*
X138599981Y-51499501D01*
X138497203Y-51510000D01*
X138497200Y-51510001D01*
X138330668Y-51565185D01*
X138330663Y-51565187D01*
X138181342Y-51657289D01*
X138057289Y-51781342D01*
X137965187Y-51930663D01*
X137965185Y-51930668D01*
X137960325Y-51945334D01*
X137910001Y-52097203D01*
X137910001Y-52097204D01*
X137910000Y-52097204D01*
X137899500Y-52199983D01*
X132500000Y-52199983D01*
X132500000Y-51551362D01*
X132519685Y-51484323D01*
X132536319Y-51463681D01*
X133463181Y-50536819D01*
X133524504Y-50503334D01*
X133550862Y-50500500D01*
X149375500Y-50500500D01*
X149442539Y-50520185D01*
G37*
G04 #@! TD.AperFunction*
G04 #@! TA.AperFunction,Conductor*
G36*
X75392941Y-50520185D02*
G01*
X75438696Y-50572989D01*
X75448640Y-50642147D01*
X75419615Y-50705703D01*
X75413583Y-50712181D01*
X74578867Y-51546896D01*
X74517544Y-51580381D01*
X74452868Y-51577146D01*
X74316240Y-51532753D01*
X74154957Y-51507208D01*
X74106287Y-51499500D01*
X73893713Y-51499500D01*
X73845042Y-51507208D01*
X73683760Y-51532753D01*
X73481585Y-51598444D01*
X73292179Y-51694951D01*
X73120213Y-51819890D01*
X72969894Y-51970209D01*
X72969890Y-51970214D01*
X72850318Y-52134793D01*
X72794989Y-52177459D01*
X72725375Y-52183438D01*
X72663580Y-52150833D01*
X72649682Y-52134793D01*
X72530109Y-51970214D01*
X72530105Y-51970209D01*
X72379786Y-51819890D01*
X72207820Y-51694951D01*
X72018414Y-51598444D01*
X72018413Y-51598443D01*
X72018412Y-51598443D01*
X71816243Y-51532754D01*
X71816241Y-51532753D01*
X71816240Y-51532753D01*
X71654957Y-51507208D01*
X71606287Y-51499500D01*
X71393713Y-51499500D01*
X71345042Y-51507208D01*
X71183760Y-51532753D01*
X70981585Y-51598444D01*
X70792179Y-51694951D01*
X70620213Y-51819890D01*
X70469890Y-51970213D01*
X70344951Y-52142179D01*
X70248444Y-52331585D01*
X70182753Y-52533760D01*
X70158463Y-52687123D01*
X70149500Y-52743713D01*
X70149500Y-53206287D01*
X70153460Y-53231287D01*
X70161080Y-53279403D01*
X70182754Y-53416243D01*
X70209968Y-53500000D01*
X70248444Y-53618414D01*
X70344951Y-53807820D01*
X70469890Y-53979786D01*
X70620213Y-54130109D01*
X70792179Y-54255048D01*
X70792181Y-54255049D01*
X70792184Y-54255051D01*
X70981588Y-54351557D01*
X71183757Y-54417246D01*
X71393713Y-54450500D01*
X71393714Y-54450500D01*
X71606286Y-54450500D01*
X71606287Y-54450500D01*
X71816243Y-54417246D01*
X72018412Y-54351557D01*
X72207816Y-54255051D01*
X72272150Y-54208310D01*
X72379786Y-54130109D01*
X72379788Y-54130106D01*
X72379792Y-54130104D01*
X72530104Y-53979792D01*
X72649683Y-53815204D01*
X72705011Y-53772540D01*
X72774624Y-53766561D01*
X72836420Y-53799166D01*
X72850313Y-53815199D01*
X72941215Y-53940316D01*
X72969896Y-53979792D01*
X73120213Y-54130109D01*
X73292179Y-54255048D01*
X73292181Y-54255049D01*
X73292184Y-54255051D01*
X73481588Y-54351557D01*
X73683757Y-54417246D01*
X73893713Y-54450500D01*
X73893714Y-54450500D01*
X74106286Y-54450500D01*
X74106287Y-54450500D01*
X74316243Y-54417246D01*
X74518412Y-54351557D01*
X74707816Y-54255051D01*
X74772150Y-54208310D01*
X74879786Y-54130109D01*
X74879788Y-54130106D01*
X74879792Y-54130104D01*
X75030104Y-53979792D01*
X75149683Y-53815204D01*
X75205011Y-53772540D01*
X75274624Y-53766561D01*
X75336420Y-53799166D01*
X75350313Y-53815199D01*
X75441215Y-53940316D01*
X75469896Y-53979792D01*
X75620213Y-54130109D01*
X75792179Y-54255048D01*
X75792181Y-54255049D01*
X75792184Y-54255051D01*
X75981588Y-54351557D01*
X76183757Y-54417246D01*
X76393713Y-54450500D01*
X76393714Y-54450500D01*
X76606286Y-54450500D01*
X76606287Y-54450500D01*
X76816243Y-54417246D01*
X77018412Y-54351557D01*
X77207816Y-54255051D01*
X77272150Y-54208310D01*
X77379786Y-54130109D01*
X77379788Y-54130106D01*
X77379792Y-54130104D01*
X77530104Y-53979792D01*
X77649683Y-53815204D01*
X77705011Y-53772540D01*
X77774624Y-53766561D01*
X77836420Y-53799166D01*
X77850313Y-53815199D01*
X77941215Y-53940316D01*
X77969896Y-53979792D01*
X78120213Y-54130109D01*
X78292179Y-54255048D01*
X78292181Y-54255049D01*
X78292184Y-54255051D01*
X78481588Y-54351557D01*
X78683757Y-54417246D01*
X78893713Y-54450500D01*
X78893714Y-54450500D01*
X79106286Y-54450500D01*
X79106287Y-54450500D01*
X79316243Y-54417246D01*
X79518412Y-54351557D01*
X79707816Y-54255051D01*
X79772150Y-54208310D01*
X79879786Y-54130109D01*
X79879788Y-54130106D01*
X79879792Y-54130104D01*
X80030104Y-53979792D01*
X80030106Y-53979788D01*
X80030109Y-53979786D01*
X80155048Y-53807820D01*
X80155047Y-53807820D01*
X80155051Y-53807816D01*
X80251557Y-53618412D01*
X80317246Y-53416243D01*
X80350500Y-53206287D01*
X80350500Y-53159500D01*
X80370185Y-53092461D01*
X80422989Y-53046706D01*
X80474500Y-53035500D01*
X89032720Y-53035500D01*
X89099759Y-53055185D01*
X89145514Y-53107989D01*
X89155458Y-53177147D01*
X89152495Y-53191593D01*
X89128966Y-53279403D01*
X89128964Y-53279414D01*
X89109666Y-53499998D01*
X89109666Y-53500001D01*
X89128964Y-53720585D01*
X89128965Y-53720592D01*
X89186275Y-53934475D01*
X89186279Y-53934486D01*
X89240938Y-54051703D01*
X89279858Y-54135167D01*
X89406868Y-54316555D01*
X89563445Y-54473132D01*
X89744833Y-54600142D01*
X89828296Y-54639061D01*
X89945513Y-54693720D01*
X89945515Y-54693720D01*
X89945520Y-54693723D01*
X90159409Y-54751035D01*
X90316974Y-54764820D01*
X90379998Y-54770334D01*
X90380000Y-54770334D01*
X90380002Y-54770334D01*
X90435276Y-54765498D01*
X90600591Y-54751035D01*
X90814480Y-54693723D01*
X91015167Y-54600142D01*
X91196555Y-54473132D01*
X91353132Y-54316555D01*
X91480142Y-54135167D01*
X91537618Y-54011907D01*
X91583790Y-53959468D01*
X91650983Y-53940316D01*
X91717864Y-53960531D01*
X91762381Y-54011907D01*
X91819858Y-54135167D01*
X91946868Y-54316555D01*
X92103445Y-54473132D01*
X92284833Y-54600142D01*
X92368296Y-54639061D01*
X92485513Y-54693720D01*
X92485515Y-54693720D01*
X92485520Y-54693723D01*
X92699409Y-54751035D01*
X92856974Y-54764820D01*
X92919998Y-54770334D01*
X92920000Y-54770334D01*
X92920002Y-54770334D01*
X92975276Y-54765498D01*
X93140591Y-54751035D01*
X93354480Y-54693723D01*
X93555167Y-54600142D01*
X93736555Y-54473132D01*
X93893132Y-54316555D01*
X94020142Y-54135167D01*
X94077618Y-54011907D01*
X94123790Y-53959468D01*
X94190983Y-53940316D01*
X94257864Y-53960531D01*
X94302381Y-54011907D01*
X94359858Y-54135167D01*
X94486868Y-54316555D01*
X94643445Y-54473132D01*
X94824833Y-54600142D01*
X94908296Y-54639061D01*
X95025513Y-54693720D01*
X95025515Y-54693720D01*
X95025520Y-54693723D01*
X95239409Y-54751035D01*
X95396974Y-54764820D01*
X95459998Y-54770334D01*
X95460000Y-54770334D01*
X95460002Y-54770334D01*
X95490575Y-54767659D01*
X95680591Y-54751035D01*
X95754352Y-54731270D01*
X95824201Y-54732931D01*
X95874128Y-54763363D01*
X97898584Y-56787819D01*
X97932069Y-56849142D01*
X97927085Y-56918834D01*
X97885213Y-56974767D01*
X97819749Y-56999184D01*
X97810903Y-56999500D01*
X73401455Y-56999500D01*
X73304812Y-57018724D01*
X73208167Y-57037947D01*
X73208161Y-57037949D01*
X73154834Y-57060037D01*
X73154834Y-57060038D01*
X73109315Y-57078892D01*
X73026089Y-57113366D01*
X73026079Y-57113371D01*
X72862219Y-57222859D01*
X72792540Y-57292538D01*
X72722861Y-57362218D01*
X72621898Y-57463181D01*
X72560575Y-57496666D01*
X72534217Y-57499500D01*
X71901457Y-57499500D01*
X71708170Y-57537947D01*
X71708160Y-57537950D01*
X71526092Y-57613364D01*
X71526079Y-57613371D01*
X71362218Y-57722860D01*
X71362214Y-57722863D01*
X71222863Y-57862214D01*
X71222860Y-57862218D01*
X71113371Y-58026079D01*
X71113364Y-58026092D01*
X71037950Y-58208160D01*
X71037947Y-58208170D01*
X70999500Y-58401456D01*
X70999500Y-58401459D01*
X70999500Y-58598541D01*
X70999500Y-58598543D01*
X70999499Y-58598543D01*
X71037947Y-58791829D01*
X71037950Y-58791839D01*
X71113364Y-58973907D01*
X71113371Y-58973920D01*
X71222860Y-59137781D01*
X71222863Y-59137785D01*
X71362214Y-59277136D01*
X71362218Y-59277139D01*
X71526079Y-59386628D01*
X71526092Y-59386635D01*
X71708160Y-59462049D01*
X71708165Y-59462051D01*
X71708169Y-59462051D01*
X71708170Y-59462052D01*
X71901456Y-59500500D01*
X71901459Y-59500500D01*
X73098542Y-59500500D01*
X73117870Y-59496655D01*
X73195188Y-59481275D01*
X73291836Y-59462051D01*
X73345165Y-59439961D01*
X73473914Y-59386632D01*
X73637782Y-59277139D01*
X73777139Y-59137782D01*
X73777140Y-59137779D01*
X73784206Y-59130714D01*
X73784210Y-59130709D01*
X73878103Y-59036818D01*
X73939426Y-59003334D01*
X73965783Y-59000500D01*
X118098543Y-59000500D01*
X118232196Y-58973914D01*
X118291835Y-58962051D01*
X118473914Y-58886632D01*
X118637782Y-58777139D01*
X118777139Y-58637782D01*
X118886632Y-58473914D01*
X118962051Y-58291835D01*
X119000500Y-58098541D01*
X119000500Y-57924500D01*
X119020185Y-57857461D01*
X119072989Y-57811706D01*
X119124500Y-57800500D01*
X125899903Y-57800500D01*
X125966942Y-57820185D01*
X125987584Y-57836819D01*
X128669298Y-60518534D01*
X128702783Y-60579857D01*
X128704837Y-60592331D01*
X128714630Y-60679249D01*
X128774210Y-60849521D01*
X128870184Y-61002262D01*
X128997738Y-61129816D01*
X129088080Y-61186582D01*
X129132721Y-61214632D01*
X129150478Y-61225789D01*
X129288860Y-61274211D01*
X129320745Y-61285368D01*
X129320750Y-61285369D01*
X129499996Y-61305565D01*
X129500000Y-61305565D01*
X129500004Y-61305565D01*
X129679249Y-61285369D01*
X129679252Y-61285368D01*
X129679255Y-61285368D01*
X129849522Y-61225789D01*
X130002262Y-61129816D01*
X130129816Y-61002262D01*
X130225789Y-60849522D01*
X130285368Y-60679255D01*
X130295162Y-60592331D01*
X130305565Y-60500003D01*
X130305565Y-60499996D01*
X130285369Y-60320750D01*
X130285368Y-60320745D01*
X130225788Y-60150476D01*
X130129815Y-59997737D01*
X130002262Y-59870184D01*
X129849521Y-59774210D01*
X129679249Y-59714630D01*
X129592331Y-59704837D01*
X129527917Y-59677770D01*
X129518534Y-59669298D01*
X126687590Y-56838355D01*
X126687588Y-56838352D01*
X126568717Y-56719481D01*
X126568716Y-56719480D01*
X126481904Y-56669360D01*
X126481904Y-56669359D01*
X126481900Y-56669358D01*
X126431785Y-56640423D01*
X126279057Y-56599499D01*
X126120943Y-56599499D01*
X126113347Y-56599499D01*
X126113331Y-56599500D01*
X99460097Y-56599500D01*
X99393058Y-56579815D01*
X99372416Y-56563181D01*
X97780161Y-54970926D01*
X97746676Y-54909603D01*
X97751660Y-54839911D01*
X97793532Y-54783978D01*
X97858996Y-54759561D01*
X97878645Y-54759716D01*
X97976648Y-54768291D01*
X97999999Y-54770334D01*
X98000000Y-54770334D01*
X98000002Y-54770334D01*
X98055276Y-54765498D01*
X98220591Y-54751035D01*
X98434480Y-54693723D01*
X98635167Y-54600142D01*
X98816555Y-54473132D01*
X98973132Y-54316555D01*
X99100142Y-54135167D01*
X99157618Y-54011907D01*
X99203790Y-53959468D01*
X99270983Y-53940316D01*
X99337864Y-53960531D01*
X99382381Y-54011907D01*
X99439858Y-54135167D01*
X99566868Y-54316555D01*
X99723445Y-54473132D01*
X99904833Y-54600142D01*
X99988296Y-54639061D01*
X100105513Y-54693720D01*
X100105515Y-54693720D01*
X100105520Y-54693723D01*
X100319409Y-54751035D01*
X100476974Y-54764820D01*
X100539998Y-54770334D01*
X100540000Y-54770334D01*
X100540002Y-54770334D01*
X100595276Y-54765498D01*
X100760591Y-54751035D01*
X100974480Y-54693723D01*
X101175167Y-54600142D01*
X101356555Y-54473132D01*
X101513132Y-54316555D01*
X101640142Y-54135167D01*
X101697618Y-54011907D01*
X101743790Y-53959468D01*
X101810983Y-53940316D01*
X101877864Y-53960531D01*
X101922381Y-54011907D01*
X101979858Y-54135167D01*
X102106868Y-54316555D01*
X102263445Y-54473132D01*
X102444833Y-54600142D01*
X102528296Y-54639061D01*
X102645513Y-54693720D01*
X102645515Y-54693720D01*
X102645520Y-54693723D01*
X102859409Y-54751035D01*
X103016974Y-54764820D01*
X103079998Y-54770334D01*
X103080000Y-54770334D01*
X103080002Y-54770334D01*
X103135276Y-54765498D01*
X103300591Y-54751035D01*
X103514480Y-54693723D01*
X103715167Y-54600142D01*
X103896555Y-54473132D01*
X104053132Y-54316555D01*
X104180142Y-54135167D01*
X104237618Y-54011907D01*
X104283790Y-53959468D01*
X104350983Y-53940316D01*
X104417864Y-53960531D01*
X104462381Y-54011907D01*
X104519858Y-54135167D01*
X104646868Y-54316555D01*
X104803445Y-54473132D01*
X104984833Y-54600142D01*
X105068296Y-54639061D01*
X105185513Y-54693720D01*
X105185515Y-54693720D01*
X105185520Y-54693723D01*
X105399409Y-54751035D01*
X105556974Y-54764820D01*
X105619998Y-54770334D01*
X105620000Y-54770334D01*
X105620002Y-54770334D01*
X105675276Y-54765498D01*
X105840591Y-54751035D01*
X106054480Y-54693723D01*
X106255167Y-54600142D01*
X106436555Y-54473132D01*
X106593132Y-54316555D01*
X106720142Y-54135167D01*
X106777618Y-54011907D01*
X106823790Y-53959468D01*
X106890983Y-53940316D01*
X106957864Y-53960531D01*
X107002381Y-54011907D01*
X107059858Y-54135167D01*
X107186868Y-54316555D01*
X107343445Y-54473132D01*
X107524833Y-54600142D01*
X107608296Y-54639061D01*
X107725513Y-54693720D01*
X107725515Y-54693720D01*
X107725520Y-54693723D01*
X107939409Y-54751035D01*
X108096974Y-54764820D01*
X108159998Y-54770334D01*
X108160000Y-54770334D01*
X108160002Y-54770334D01*
X108215276Y-54765498D01*
X108380591Y-54751035D01*
X108594480Y-54693723D01*
X108795167Y-54600142D01*
X108976555Y-54473132D01*
X109133132Y-54316555D01*
X109260142Y-54135167D01*
X109317618Y-54011907D01*
X109363790Y-53959468D01*
X109430983Y-53940316D01*
X109497864Y-53960531D01*
X109542381Y-54011907D01*
X109599858Y-54135167D01*
X109726868Y-54316555D01*
X109883445Y-54473132D01*
X110064833Y-54600142D01*
X110148296Y-54639061D01*
X110265513Y-54693720D01*
X110265515Y-54693720D01*
X110265520Y-54693723D01*
X110479409Y-54751035D01*
X110636974Y-54764820D01*
X110699998Y-54770334D01*
X110700000Y-54770334D01*
X110700002Y-54770334D01*
X110755276Y-54765498D01*
X110920591Y-54751035D01*
X111134480Y-54693723D01*
X111335167Y-54600142D01*
X111516555Y-54473132D01*
X111673132Y-54316555D01*
X111800142Y-54135167D01*
X111857618Y-54011907D01*
X111903790Y-53959468D01*
X111970983Y-53940316D01*
X112037864Y-53960531D01*
X112082381Y-54011907D01*
X112139858Y-54135167D01*
X112266868Y-54316555D01*
X112423445Y-54473132D01*
X112604833Y-54600142D01*
X112688296Y-54639061D01*
X112805513Y-54693720D01*
X112805515Y-54693720D01*
X112805520Y-54693723D01*
X113019409Y-54751035D01*
X113176974Y-54764820D01*
X113239998Y-54770334D01*
X113240000Y-54770334D01*
X113240002Y-54770334D01*
X113295276Y-54765498D01*
X113460591Y-54751035D01*
X113674480Y-54693723D01*
X113875167Y-54600142D01*
X114056555Y-54473132D01*
X114213132Y-54316555D01*
X114340142Y-54135167D01*
X114397618Y-54011907D01*
X114443790Y-53959468D01*
X114510983Y-53940316D01*
X114577864Y-53960531D01*
X114622381Y-54011907D01*
X114679858Y-54135167D01*
X114806868Y-54316555D01*
X114963445Y-54473132D01*
X115144833Y-54600142D01*
X115228296Y-54639061D01*
X115345513Y-54693720D01*
X115345515Y-54693720D01*
X115345520Y-54693723D01*
X115559409Y-54751035D01*
X115716974Y-54764820D01*
X115779998Y-54770334D01*
X115780000Y-54770334D01*
X115780002Y-54770334D01*
X115835276Y-54765498D01*
X116000591Y-54751035D01*
X116214480Y-54693723D01*
X116415167Y-54600142D01*
X116596555Y-54473132D01*
X116753132Y-54316555D01*
X116880142Y-54135167D01*
X116973723Y-53934480D01*
X117031035Y-53720591D01*
X117050334Y-53500000D01*
X117031035Y-53279409D01*
X116973723Y-53065520D01*
X116961574Y-53039467D01*
X116880143Y-52864836D01*
X116880142Y-52864834D01*
X116880142Y-52864833D01*
X116753132Y-52683445D01*
X116716868Y-52647181D01*
X116683383Y-52585858D01*
X116688367Y-52516166D01*
X116730239Y-52460233D01*
X116795703Y-52435816D01*
X116804549Y-52435500D01*
X119835451Y-52435500D01*
X119902490Y-52455185D01*
X119948245Y-52507989D01*
X119958189Y-52577147D01*
X119929164Y-52640703D01*
X119923132Y-52647181D01*
X119886871Y-52683441D01*
X119886868Y-52683444D01*
X119759857Y-52864834D01*
X119759856Y-52864836D01*
X119666279Y-53065513D01*
X119666275Y-53065524D01*
X119608965Y-53279407D01*
X119608964Y-53279414D01*
X119589666Y-53499998D01*
X119589666Y-53500001D01*
X119608964Y-53720585D01*
X119608965Y-53720592D01*
X119666275Y-53934475D01*
X119666279Y-53934486D01*
X119720938Y-54051703D01*
X119759858Y-54135167D01*
X119886868Y-54316555D01*
X120043445Y-54473132D01*
X120224833Y-54600142D01*
X120308296Y-54639061D01*
X120425513Y-54693720D01*
X120425515Y-54693720D01*
X120425520Y-54693723D01*
X120639409Y-54751035D01*
X120796974Y-54764820D01*
X120859998Y-54770334D01*
X120860000Y-54770334D01*
X120860002Y-54770334D01*
X120915276Y-54765498D01*
X121080591Y-54751035D01*
X121294480Y-54693723D01*
X121495167Y-54600142D01*
X121676555Y-54473132D01*
X121833132Y-54316555D01*
X121960142Y-54135167D01*
X122017618Y-54011907D01*
X122063790Y-53959468D01*
X122130983Y-53940316D01*
X122197864Y-53960531D01*
X122242381Y-54011907D01*
X122299858Y-54135167D01*
X122426868Y-54316555D01*
X122583445Y-54473132D01*
X122764833Y-54600142D01*
X122848296Y-54639061D01*
X122965513Y-54693720D01*
X122965515Y-54693720D01*
X122965520Y-54693723D01*
X123179409Y-54751035D01*
X123336974Y-54764820D01*
X123399998Y-54770334D01*
X123400000Y-54770334D01*
X123400002Y-54770334D01*
X123455276Y-54765498D01*
X123620591Y-54751035D01*
X123834480Y-54693723D01*
X124035167Y-54600142D01*
X124216555Y-54473132D01*
X124373132Y-54316555D01*
X124448928Y-54208307D01*
X124503501Y-54164685D01*
X124573000Y-54157491D01*
X124635355Y-54189013D01*
X124670769Y-54249243D01*
X124674500Y-54279430D01*
X124674500Y-54312868D01*
X124674501Y-54312876D01*
X124680908Y-54372483D01*
X124731202Y-54507328D01*
X124731206Y-54507335D01*
X124817452Y-54622544D01*
X124817455Y-54622547D01*
X124932664Y-54708793D01*
X124932671Y-54708797D01*
X125067517Y-54759091D01*
X125067516Y-54759091D01*
X125071888Y-54759561D01*
X125127127Y-54765500D01*
X126752872Y-54765499D01*
X126812483Y-54759091D01*
X126947331Y-54708796D01*
X127062546Y-54622546D01*
X127148796Y-54507331D01*
X127199091Y-54372483D01*
X127205500Y-54312873D01*
X127205499Y-52687128D01*
X127199091Y-52627517D01*
X127183553Y-52585858D01*
X127148797Y-52492671D01*
X127148793Y-52492664D01*
X127062547Y-52377455D01*
X127062544Y-52377452D01*
X126947335Y-52291206D01*
X126947328Y-52291202D01*
X126812482Y-52240908D01*
X126812483Y-52240908D01*
X126752883Y-52234501D01*
X126752881Y-52234500D01*
X126752873Y-52234500D01*
X126752865Y-52234500D01*
X125575097Y-52234500D01*
X125508058Y-52214815D01*
X125487416Y-52198181D01*
X124001416Y-50712181D01*
X123967931Y-50650858D01*
X123972915Y-50581166D01*
X124014787Y-50525233D01*
X124080251Y-50500816D01*
X124089097Y-50500500D01*
X128449138Y-50500500D01*
X128516177Y-50520185D01*
X128536819Y-50536819D01*
X131463681Y-53463681D01*
X131497166Y-53525004D01*
X131500000Y-53551362D01*
X131500000Y-70448637D01*
X131480315Y-70515676D01*
X131463681Y-70536318D01*
X131028432Y-70971567D01*
X130967109Y-71005052D01*
X130897417Y-71000068D01*
X130841484Y-70958196D01*
X130837649Y-70952777D01*
X130777139Y-70862218D01*
X130777136Y-70862214D01*
X130637785Y-70722863D01*
X130637781Y-70722860D01*
X130473920Y-70613371D01*
X130473907Y-70613364D01*
X130291839Y-70537950D01*
X130291829Y-70537947D01*
X130098543Y-70499500D01*
X130098541Y-70499500D01*
X94044500Y-70499500D01*
X93977461Y-70479815D01*
X93931706Y-70427011D01*
X93920500Y-70375500D01*
X93920500Y-69556565D01*
X93940185Y-69489526D01*
X93942898Y-69485480D01*
X94020142Y-69375167D01*
X94077618Y-69251907D01*
X94123790Y-69199468D01*
X94190983Y-69180316D01*
X94257864Y-69200531D01*
X94302381Y-69251907D01*
X94359858Y-69375167D01*
X94486868Y-69556555D01*
X94643445Y-69713132D01*
X94824833Y-69840142D01*
X94945572Y-69896443D01*
X95025513Y-69933720D01*
X95025515Y-69933720D01*
X95025520Y-69933723D01*
X95239409Y-69991035D01*
X95396585Y-70004786D01*
X95459998Y-70010334D01*
X95460000Y-70010334D01*
X95460002Y-70010334D01*
X95523346Y-70004792D01*
X95680591Y-69991035D01*
X95894480Y-69933723D01*
X96095167Y-69840142D01*
X96276555Y-69713132D01*
X96433132Y-69556555D01*
X96560142Y-69375167D01*
X96617618Y-69251907D01*
X96663790Y-69199468D01*
X96730983Y-69180316D01*
X96797864Y-69200531D01*
X96842381Y-69251907D01*
X96899858Y-69375167D01*
X97026868Y-69556555D01*
X97183445Y-69713132D01*
X97364833Y-69840142D01*
X97485572Y-69896443D01*
X97565513Y-69933720D01*
X97565515Y-69933720D01*
X97565520Y-69933723D01*
X97779409Y-69991035D01*
X97936585Y-70004786D01*
X97999998Y-70010334D01*
X98000000Y-70010334D01*
X98000002Y-70010334D01*
X98063346Y-70004792D01*
X98220591Y-69991035D01*
X98434480Y-69933723D01*
X98635167Y-69840142D01*
X98816555Y-69713132D01*
X98973132Y-69556555D01*
X99100142Y-69375167D01*
X99157618Y-69251907D01*
X99203790Y-69199468D01*
X99270983Y-69180316D01*
X99337864Y-69200531D01*
X99382381Y-69251907D01*
X99439858Y-69375167D01*
X99566868Y-69556555D01*
X99723445Y-69713132D01*
X99904833Y-69840142D01*
X100025572Y-69896443D01*
X100105513Y-69933720D01*
X100105515Y-69933720D01*
X100105520Y-69933723D01*
X100319409Y-69991035D01*
X100476585Y-70004786D01*
X100539998Y-70010334D01*
X100540000Y-70010334D01*
X100540002Y-70010334D01*
X100603346Y-70004792D01*
X100760591Y-69991035D01*
X100974480Y-69933723D01*
X101175167Y-69840142D01*
X101356555Y-69713132D01*
X101513132Y-69556555D01*
X101640142Y-69375167D01*
X101697618Y-69251907D01*
X101743790Y-69199468D01*
X101810983Y-69180316D01*
X101877864Y-69200531D01*
X101922381Y-69251907D01*
X101979858Y-69375167D01*
X102106868Y-69556555D01*
X102263445Y-69713132D01*
X102444833Y-69840142D01*
X102565572Y-69896443D01*
X102645513Y-69933720D01*
X102645515Y-69933720D01*
X102645520Y-69933723D01*
X102859409Y-69991035D01*
X103016585Y-70004786D01*
X103079998Y-70010334D01*
X103080000Y-70010334D01*
X103080002Y-70010334D01*
X103143346Y-70004792D01*
X103300591Y-69991035D01*
X103514480Y-69933723D01*
X103715167Y-69840142D01*
X103896555Y-69713132D01*
X104053132Y-69556555D01*
X104180142Y-69375167D01*
X104237618Y-69251907D01*
X104283790Y-69199468D01*
X104350983Y-69180316D01*
X104417864Y-69200531D01*
X104462381Y-69251907D01*
X104519858Y-69375167D01*
X104646868Y-69556555D01*
X104803445Y-69713132D01*
X104984833Y-69840142D01*
X105105572Y-69896443D01*
X105185513Y-69933720D01*
X105185515Y-69933720D01*
X105185520Y-69933723D01*
X105399409Y-69991035D01*
X105556585Y-70004786D01*
X105619998Y-70010334D01*
X105620000Y-70010334D01*
X105620002Y-70010334D01*
X105683346Y-70004792D01*
X105840591Y-69991035D01*
X106054480Y-69933723D01*
X106255167Y-69840142D01*
X106436555Y-69713132D01*
X106593132Y-69556555D01*
X106720142Y-69375167D01*
X106777618Y-69251907D01*
X106823790Y-69199468D01*
X106890983Y-69180316D01*
X106957864Y-69200531D01*
X107002381Y-69251907D01*
X107059858Y-69375167D01*
X107186868Y-69556555D01*
X107343445Y-69713132D01*
X107524833Y-69840142D01*
X107645572Y-69896443D01*
X107725513Y-69933720D01*
X107725515Y-69933720D01*
X107725520Y-69933723D01*
X107939409Y-69991035D01*
X108096585Y-70004786D01*
X108159998Y-70010334D01*
X108160000Y-70010334D01*
X108160002Y-70010334D01*
X108223346Y-70004792D01*
X108380591Y-69991035D01*
X108594480Y-69933723D01*
X108795167Y-69840142D01*
X108976555Y-69713132D01*
X109133132Y-69556555D01*
X109260142Y-69375167D01*
X109317618Y-69251907D01*
X109363790Y-69199468D01*
X109430983Y-69180316D01*
X109497864Y-69200531D01*
X109542381Y-69251907D01*
X109599858Y-69375167D01*
X109726868Y-69556555D01*
X109883445Y-69713132D01*
X110064833Y-69840142D01*
X110185572Y-69896443D01*
X110265513Y-69933720D01*
X110265515Y-69933720D01*
X110265520Y-69933723D01*
X110479409Y-69991035D01*
X110636585Y-70004786D01*
X110699998Y-70010334D01*
X110700000Y-70010334D01*
X110700002Y-70010334D01*
X110763346Y-70004792D01*
X110920591Y-69991035D01*
X111134480Y-69933723D01*
X111335167Y-69840142D01*
X111516555Y-69713132D01*
X111673132Y-69556555D01*
X111800142Y-69375167D01*
X111857618Y-69251907D01*
X111903790Y-69199468D01*
X111970983Y-69180316D01*
X112037864Y-69200531D01*
X112082381Y-69251907D01*
X112139858Y-69375167D01*
X112266868Y-69556555D01*
X112423445Y-69713132D01*
X112604833Y-69840142D01*
X112725572Y-69896443D01*
X112805513Y-69933720D01*
X112805515Y-69933720D01*
X112805520Y-69933723D01*
X113019409Y-69991035D01*
X113176585Y-70004786D01*
X113239998Y-70010334D01*
X113240000Y-70010334D01*
X113240002Y-70010334D01*
X113303346Y-70004792D01*
X113460591Y-69991035D01*
X113674480Y-69933723D01*
X113875167Y-69840142D01*
X114056555Y-69713132D01*
X114213132Y-69556555D01*
X114340142Y-69375167D01*
X114397618Y-69251907D01*
X114443790Y-69199468D01*
X114510983Y-69180316D01*
X114577864Y-69200531D01*
X114622381Y-69251907D01*
X114679858Y-69375167D01*
X114806868Y-69556555D01*
X114963445Y-69713132D01*
X115144833Y-69840142D01*
X115265572Y-69896443D01*
X115345513Y-69933720D01*
X115345515Y-69933720D01*
X115345520Y-69933723D01*
X115559409Y-69991035D01*
X115716585Y-70004786D01*
X115779998Y-70010334D01*
X115780000Y-70010334D01*
X115780002Y-70010334D01*
X115843346Y-70004792D01*
X116000591Y-69991035D01*
X116214480Y-69933723D01*
X116415167Y-69840142D01*
X116596555Y-69713132D01*
X116753132Y-69556555D01*
X116880142Y-69375167D01*
X116937618Y-69251907D01*
X116983790Y-69199468D01*
X117050983Y-69180316D01*
X117117864Y-69200531D01*
X117162381Y-69251907D01*
X117219858Y-69375167D01*
X117346868Y-69556555D01*
X117503445Y-69713132D01*
X117684833Y-69840142D01*
X117805572Y-69896443D01*
X117885513Y-69933720D01*
X117885515Y-69933720D01*
X117885520Y-69933723D01*
X118099409Y-69991035D01*
X118256585Y-70004786D01*
X118319998Y-70010334D01*
X118320000Y-70010334D01*
X118320002Y-70010334D01*
X118383346Y-70004792D01*
X118540591Y-69991035D01*
X118754480Y-69933723D01*
X118955167Y-69840142D01*
X119136555Y-69713132D01*
X119293132Y-69556555D01*
X119420142Y-69375167D01*
X119477618Y-69251907D01*
X119523790Y-69199468D01*
X119590983Y-69180316D01*
X119657864Y-69200531D01*
X119702381Y-69251907D01*
X119759858Y-69375167D01*
X119886868Y-69556555D01*
X120043445Y-69713132D01*
X120224833Y-69840142D01*
X120345572Y-69896443D01*
X120425513Y-69933720D01*
X120425515Y-69933720D01*
X120425520Y-69933723D01*
X120639409Y-69991035D01*
X120796585Y-70004786D01*
X120859998Y-70010334D01*
X120860000Y-70010334D01*
X120860002Y-70010334D01*
X120923346Y-70004792D01*
X121080591Y-69991035D01*
X121294480Y-69933723D01*
X121495167Y-69840142D01*
X121676555Y-69713132D01*
X121833132Y-69556555D01*
X121960142Y-69375167D01*
X122053723Y-69174480D01*
X122111035Y-68960591D01*
X122130334Y-68740000D01*
X122111035Y-68519409D01*
X122053723Y-68305520D01*
X122041574Y-68279467D01*
X121999061Y-68188296D01*
X121960142Y-68104833D01*
X121835716Y-67927135D01*
X124674500Y-67927135D01*
X124674500Y-69552870D01*
X124674501Y-69552876D01*
X124680908Y-69612483D01*
X124731202Y-69747328D01*
X124731206Y-69747335D01*
X124817452Y-69862544D01*
X124817455Y-69862547D01*
X124932664Y-69948793D01*
X124932671Y-69948797D01*
X125067517Y-69999091D01*
X125067516Y-69999091D01*
X125074444Y-69999835D01*
X125127127Y-70005500D01*
X126752872Y-70005499D01*
X126812483Y-69999091D01*
X126947331Y-69948796D01*
X127062546Y-69862546D01*
X127148796Y-69747331D01*
X127199091Y-69612483D01*
X127205500Y-69552873D01*
X127205499Y-67927128D01*
X127199091Y-67867517D01*
X127183643Y-67826100D01*
X127148797Y-67732671D01*
X127148793Y-67732664D01*
X127062547Y-67617455D01*
X127062544Y-67617452D01*
X126947335Y-67531206D01*
X126947328Y-67531202D01*
X126812482Y-67480908D01*
X126812483Y-67480908D01*
X126752883Y-67474501D01*
X126752881Y-67474500D01*
X126752873Y-67474500D01*
X126752864Y-67474500D01*
X125127129Y-67474500D01*
X125127123Y-67474501D01*
X125067516Y-67480908D01*
X124932671Y-67531202D01*
X124932664Y-67531206D01*
X124817455Y-67617452D01*
X124817452Y-67617455D01*
X124731206Y-67732664D01*
X124731202Y-67732671D01*
X124680908Y-67867517D01*
X124674896Y-67923441D01*
X124674501Y-67927123D01*
X124674500Y-67927135D01*
X121835716Y-67927135D01*
X121833132Y-67923445D01*
X121676555Y-67766868D01*
X121495167Y-67639858D01*
X121488650Y-67636819D01*
X121294486Y-67546279D01*
X121294475Y-67546275D01*
X121080592Y-67488965D01*
X121080585Y-67488964D01*
X120860002Y-67469666D01*
X120859998Y-67469666D01*
X120639414Y-67488964D01*
X120639407Y-67488965D01*
X120425524Y-67546275D01*
X120425513Y-67546279D01*
X120224836Y-67639856D01*
X120224834Y-67639857D01*
X120043444Y-67766868D01*
X119886868Y-67923444D01*
X119759857Y-68104834D01*
X119759856Y-68104836D01*
X119702382Y-68228091D01*
X119656210Y-68280531D01*
X119589017Y-68299683D01*
X119522135Y-68279467D01*
X119477618Y-68228091D01*
X119420143Y-68104836D01*
X119420142Y-68104834D01*
X119420142Y-68104833D01*
X119293132Y-67923445D01*
X119136555Y-67766868D01*
X118955167Y-67639858D01*
X118948650Y-67636819D01*
X118754486Y-67546279D01*
X118754475Y-67546275D01*
X118540592Y-67488965D01*
X118540585Y-67488964D01*
X118320002Y-67469666D01*
X118319998Y-67469666D01*
X118099414Y-67488964D01*
X118099407Y-67488965D01*
X117885524Y-67546275D01*
X117885513Y-67546279D01*
X117684836Y-67639856D01*
X117684834Y-67639857D01*
X117503444Y-67766868D01*
X117346868Y-67923444D01*
X117219857Y-68104834D01*
X117219856Y-68104836D01*
X117162382Y-68228091D01*
X117116210Y-68280531D01*
X117049017Y-68299683D01*
X116982135Y-68279467D01*
X116937618Y-68228091D01*
X116880143Y-68104836D01*
X116880142Y-68104834D01*
X116880142Y-68104833D01*
X116753132Y-67923445D01*
X116596555Y-67766868D01*
X116415167Y-67639858D01*
X116408650Y-67636819D01*
X116214486Y-67546279D01*
X116214475Y-67546275D01*
X116000592Y-67488965D01*
X116000585Y-67488964D01*
X115780002Y-67469666D01*
X115779998Y-67469666D01*
X115559414Y-67488964D01*
X115559400Y-67488967D01*
X115485643Y-67508729D01*
X115415793Y-67507065D01*
X115365870Y-67476635D01*
X111294747Y-63405512D01*
X111294745Y-63405509D01*
X111175874Y-63286638D01*
X111175873Y-63286637D01*
X111080864Y-63231784D01*
X111038942Y-63207580D01*
X110886214Y-63166656D01*
X110728100Y-63166656D01*
X110720504Y-63166656D01*
X110720488Y-63166657D01*
X92820940Y-63166657D01*
X92780019Y-63177621D01*
X92780019Y-63177622D01*
X92742751Y-63187608D01*
X92668214Y-63207580D01*
X92668209Y-63207583D01*
X92531290Y-63286632D01*
X92531282Y-63286638D01*
X92287583Y-63530338D01*
X92226260Y-63563823D01*
X92199902Y-63566657D01*
X87967254Y-63566657D01*
X87900215Y-63546972D01*
X87879573Y-63530338D01*
X86330700Y-61981465D01*
X86297215Y-61920142D01*
X86295163Y-61907686D01*
X86285368Y-61820745D01*
X86225789Y-61650478D01*
X86129816Y-61497738D01*
X86002262Y-61370184D01*
X86002260Y-61370183D01*
X85849523Y-61274211D01*
X85679254Y-61214631D01*
X85679249Y-61214630D01*
X85500004Y-61194435D01*
X85499996Y-61194435D01*
X85320750Y-61214630D01*
X85320745Y-61214631D01*
X85150476Y-61274211D01*
X84997739Y-61370183D01*
X84912681Y-61455241D01*
X84851357Y-61488725D01*
X84781666Y-61483741D01*
X84737319Y-61455240D01*
X83420433Y-60138355D01*
X83420431Y-60138352D01*
X83301560Y-60019481D01*
X83301552Y-60019475D01*
X83199779Y-59960717D01*
X83199777Y-59960716D01*
X83164633Y-59940425D01*
X83164632Y-59940424D01*
X83152106Y-59937067D01*
X83011900Y-59899499D01*
X82853786Y-59899499D01*
X82846190Y-59899499D01*
X82846174Y-59899500D01*
X62582412Y-59899500D01*
X62515373Y-59879815D01*
X62505097Y-59872445D01*
X62502263Y-59870185D01*
X62502262Y-59870184D01*
X62445496Y-59834515D01*
X62349523Y-59774211D01*
X62179254Y-59714631D01*
X62179249Y-59714630D01*
X62000004Y-59694435D01*
X61999996Y-59694435D01*
X61820750Y-59714630D01*
X61820745Y-59714631D01*
X61650476Y-59774211D01*
X61497737Y-59870184D01*
X61370184Y-59997737D01*
X61274211Y-60150476D01*
X61214631Y-60320745D01*
X61214630Y-60320750D01*
X61194435Y-60499996D01*
X61194435Y-60500003D01*
X61214630Y-60679249D01*
X61214631Y-60679254D01*
X61274211Y-60849523D01*
X61370184Y-61002262D01*
X61497738Y-61129816D01*
X61593285Y-61189852D01*
X61639576Y-61242187D01*
X61650224Y-61311240D01*
X61644355Y-61335800D01*
X61614632Y-61420742D01*
X61614630Y-61420750D01*
X61594435Y-61599996D01*
X61594435Y-61600003D01*
X61614630Y-61779249D01*
X61614631Y-61779254D01*
X61674211Y-61949523D01*
X61770184Y-62102262D01*
X61855741Y-62187819D01*
X61889226Y-62249142D01*
X61884242Y-62318834D01*
X61842370Y-62374767D01*
X61776906Y-62399184D01*
X61768060Y-62399500D01*
X55020984Y-62399500D01*
X55020968Y-62399499D01*
X55013372Y-62399499D01*
X54855257Y-62399499D01*
X54778893Y-62419961D01*
X54702528Y-62440423D01*
X54702523Y-62440426D01*
X54565604Y-62519475D01*
X54565596Y-62519481D01*
X53519479Y-63565598D01*
X53497613Y-63603472D01*
X53488371Y-63619481D01*
X53440423Y-63702529D01*
X53399499Y-63855257D01*
X53399499Y-63855259D01*
X53399499Y-64023360D01*
X53399500Y-64023373D01*
X53399500Y-97413330D01*
X53399499Y-97413348D01*
X53399499Y-97579054D01*
X53399498Y-97579054D01*
X53410470Y-97620000D01*
X53440423Y-97731785D01*
X53460482Y-97766528D01*
X53469358Y-97781900D01*
X53469359Y-97781904D01*
X53469360Y-97781904D01*
X53519479Y-97868714D01*
X53519481Y-97868717D01*
X53638349Y-97987585D01*
X53638354Y-97987589D01*
X57441284Y-101790520D01*
X57441286Y-101790521D01*
X57441290Y-101790524D01*
X57507239Y-101828599D01*
X57578216Y-101869577D01*
X57730943Y-101910501D01*
X57730945Y-101910501D01*
X57896654Y-101910501D01*
X57896670Y-101910500D01*
X59723397Y-101910500D01*
X59790436Y-101930185D01*
X59836191Y-101982989D01*
X59846135Y-102052147D01*
X59835779Y-102086905D01*
X59766097Y-102236335D01*
X59766094Y-102236344D01*
X59704938Y-102464586D01*
X59704936Y-102464596D01*
X59684341Y-102699999D01*
X59684341Y-102700000D01*
X59704936Y-102935403D01*
X59704938Y-102935413D01*
X59766094Y-103163655D01*
X59766096Y-103163659D01*
X59766097Y-103163663D01*
X59865965Y-103377830D01*
X59865967Y-103377834D01*
X60001501Y-103571395D01*
X60001506Y-103571402D01*
X60168597Y-103738493D01*
X60168603Y-103738498D01*
X60354158Y-103868425D01*
X60397783Y-103923002D01*
X60404977Y-103992500D01*
X60373454Y-104054855D01*
X60354158Y-104071575D01*
X60168597Y-104201505D01*
X60001505Y-104368597D01*
X59871575Y-104554158D01*
X59816998Y-104597783D01*
X59747500Y-104604977D01*
X59685145Y-104573454D01*
X59668425Y-104554158D01*
X59538494Y-104368597D01*
X59371402Y-104201506D01*
X59371395Y-104201501D01*
X59177834Y-104065967D01*
X59177830Y-104065965D01*
X59177828Y-104065964D01*
X58963663Y-103966097D01*
X58963659Y-103966096D01*
X58963655Y-103966094D01*
X58735413Y-103904938D01*
X58735403Y-103904936D01*
X58500001Y-103884341D01*
X58499999Y-103884341D01*
X58264596Y-103904936D01*
X58264586Y-103904938D01*
X58036344Y-103966094D01*
X58036335Y-103966098D01*
X57822171Y-104065964D01*
X57822169Y-104065965D01*
X57628597Y-104201505D01*
X57461505Y-104368597D01*
X57325965Y-104562169D01*
X57325964Y-104562171D01*
X57226098Y-104776335D01*
X57226094Y-104776344D01*
X57164938Y-105004586D01*
X57164936Y-105004596D01*
X57144341Y-105239999D01*
X57144341Y-105240000D01*
X57164936Y-105475403D01*
X57164938Y-105475413D01*
X57226094Y-105703655D01*
X57226096Y-105703659D01*
X57226097Y-105703663D01*
X57230000Y-105712032D01*
X57325965Y-105917830D01*
X57325967Y-105917834D01*
X57434281Y-106072521D01*
X57461501Y-106111396D01*
X57461506Y-106111402D01*
X57628597Y-106278493D01*
X57628603Y-106278498D01*
X57814158Y-106408425D01*
X57857783Y-106463002D01*
X57864977Y-106532500D01*
X57833454Y-106594855D01*
X57814158Y-106611575D01*
X57628597Y-106741505D01*
X57461505Y-106908597D01*
X57325965Y-107102169D01*
X57325964Y-107102171D01*
X57226098Y-107316335D01*
X57226094Y-107316344D01*
X57164938Y-107544586D01*
X57164936Y-107544596D01*
X57144341Y-107779999D01*
X57144341Y-107780000D01*
X57164936Y-108015403D01*
X57164938Y-108015413D01*
X57226094Y-108243655D01*
X57226096Y-108243659D01*
X57226097Y-108243663D01*
X57325965Y-108457830D01*
X57325967Y-108457834D01*
X57461501Y-108651395D01*
X57461506Y-108651402D01*
X57628597Y-108818493D01*
X57628603Y-108818498D01*
X57814158Y-108948425D01*
X57857783Y-109003002D01*
X57864977Y-109072500D01*
X57833454Y-109134855D01*
X57814158Y-109151575D01*
X57628597Y-109281505D01*
X57461505Y-109448597D01*
X57325965Y-109642169D01*
X57325964Y-109642171D01*
X57226098Y-109856335D01*
X57226094Y-109856344D01*
X57164938Y-110084586D01*
X57164936Y-110084596D01*
X57144341Y-110319999D01*
X57144341Y-110320000D01*
X57164936Y-110555403D01*
X57164938Y-110555413D01*
X57226094Y-110783655D01*
X57226096Y-110783659D01*
X57226097Y-110783663D01*
X57230000Y-110792032D01*
X57325965Y-110997830D01*
X57325967Y-110997834D01*
X57434281Y-111152521D01*
X57461501Y-111191396D01*
X57461506Y-111191402D01*
X57628597Y-111358493D01*
X57628603Y-111358498D01*
X57814158Y-111488425D01*
X57857783Y-111543002D01*
X57864977Y-111612500D01*
X57833454Y-111674855D01*
X57814158Y-111691575D01*
X57628597Y-111821505D01*
X57461505Y-111988597D01*
X57325965Y-112182169D01*
X57325964Y-112182171D01*
X57226098Y-112396335D01*
X57226094Y-112396344D01*
X57164938Y-112624586D01*
X57164936Y-112624596D01*
X57144341Y-112859999D01*
X57144341Y-112860000D01*
X57164936Y-113095403D01*
X57164938Y-113095413D01*
X57226094Y-113323655D01*
X57226096Y-113323659D01*
X57226097Y-113323663D01*
X57325965Y-113537830D01*
X57325967Y-113537834D01*
X57461501Y-113731395D01*
X57461506Y-113731402D01*
X57628597Y-113898493D01*
X57628603Y-113898498D01*
X57814158Y-114028425D01*
X57857783Y-114083002D01*
X57864977Y-114152500D01*
X57833454Y-114214855D01*
X57814158Y-114231575D01*
X57628597Y-114361505D01*
X57461505Y-114528597D01*
X57325965Y-114722169D01*
X57325964Y-114722171D01*
X57226098Y-114936335D01*
X57226094Y-114936344D01*
X57164938Y-115164586D01*
X57164936Y-115164596D01*
X57144341Y-115399999D01*
X57144341Y-115400000D01*
X57164936Y-115635403D01*
X57164938Y-115635413D01*
X57226094Y-115863655D01*
X57226096Y-115863659D01*
X57226097Y-115863663D01*
X57230000Y-115872032D01*
X57325965Y-116077830D01*
X57325967Y-116077834D01*
X57434281Y-116232521D01*
X57461501Y-116271396D01*
X57461506Y-116271402D01*
X57628597Y-116438493D01*
X57628603Y-116438498D01*
X57814158Y-116568425D01*
X57857783Y-116623002D01*
X57864977Y-116692500D01*
X57833454Y-116754855D01*
X57814158Y-116771575D01*
X57628597Y-116901505D01*
X57461505Y-117068597D01*
X57325965Y-117262169D01*
X57325964Y-117262171D01*
X57226098Y-117476335D01*
X57226094Y-117476344D01*
X57164938Y-117704586D01*
X57164936Y-117704596D01*
X57144341Y-117939999D01*
X57144341Y-117940000D01*
X57164936Y-118175403D01*
X57164938Y-118175413D01*
X57226094Y-118403655D01*
X57226096Y-118403659D01*
X57226097Y-118403663D01*
X57230000Y-118412032D01*
X57325965Y-118617830D01*
X57325967Y-118617834D01*
X57434281Y-118772521D01*
X57461505Y-118811401D01*
X57628599Y-118978495D01*
X57725384Y-119046265D01*
X57822165Y-119114032D01*
X57822167Y-119114033D01*
X57822170Y-119114035D01*
X58036337Y-119213903D01*
X58264592Y-119275063D01*
X58452918Y-119291539D01*
X58499999Y-119295659D01*
X58500000Y-119295659D01*
X58500001Y-119295659D01*
X58539234Y-119292226D01*
X58735408Y-119275063D01*
X58963663Y-119213903D01*
X59177830Y-119114035D01*
X59371401Y-118978495D01*
X59538495Y-118811401D01*
X59668425Y-118625842D01*
X59723002Y-118582217D01*
X59792500Y-118575023D01*
X59854855Y-118606546D01*
X59871575Y-118625842D01*
X60001501Y-118811396D01*
X60001506Y-118811402D01*
X60168597Y-118978493D01*
X60168603Y-118978498D01*
X60354158Y-119108425D01*
X60397783Y-119163002D01*
X60404977Y-119232500D01*
X60373454Y-119294855D01*
X60354158Y-119311575D01*
X60168597Y-119441505D01*
X60001505Y-119608597D01*
X59865965Y-119802169D01*
X59865964Y-119802171D01*
X59766098Y-120016335D01*
X59766094Y-120016344D01*
X59704938Y-120244586D01*
X59704936Y-120244596D01*
X59684341Y-120479999D01*
X59684341Y-120480000D01*
X59704936Y-120715403D01*
X59704938Y-120715413D01*
X59766094Y-120943655D01*
X59766096Y-120943659D01*
X59766097Y-120943663D01*
X59865965Y-121157830D01*
X59865967Y-121157834D01*
X59974281Y-121312521D01*
X60001505Y-121351401D01*
X60168599Y-121518495D01*
X60265384Y-121586265D01*
X60362165Y-121654032D01*
X60362167Y-121654033D01*
X60362170Y-121654035D01*
X60576337Y-121753903D01*
X60804592Y-121815063D01*
X60992918Y-121831539D01*
X61039999Y-121835659D01*
X61040000Y-121835659D01*
X61040001Y-121835659D01*
X61079234Y-121832226D01*
X61275408Y-121815063D01*
X61503663Y-121753903D01*
X61717830Y-121654035D01*
X61911401Y-121518495D01*
X62078495Y-121351401D01*
X62214035Y-121157830D01*
X62313903Y-120943663D01*
X62375063Y-120715408D01*
X62395659Y-120480000D01*
X62375063Y-120244592D01*
X62313903Y-120016337D01*
X62214035Y-119802171D01*
X62078495Y-119608599D01*
X62078494Y-119608597D01*
X61911402Y-119441506D01*
X61911396Y-119441501D01*
X61725842Y-119311575D01*
X61682217Y-119256998D01*
X61675023Y-119187500D01*
X61706546Y-119125145D01*
X61725842Y-119108425D01*
X61748026Y-119092891D01*
X61911401Y-118978495D01*
X62078495Y-118811401D01*
X62214035Y-118617830D01*
X62313903Y-118403663D01*
X62375063Y-118175408D01*
X62395659Y-117940000D01*
X62375063Y-117704592D01*
X62313903Y-117476337D01*
X62214035Y-117262171D01*
X62208425Y-117254158D01*
X62078494Y-117068597D01*
X61911402Y-116901506D01*
X61911396Y-116901501D01*
X61725842Y-116771575D01*
X61682217Y-116716998D01*
X61675023Y-116647500D01*
X61706546Y-116585145D01*
X61725842Y-116568425D01*
X61748026Y-116552891D01*
X61911401Y-116438495D01*
X62078495Y-116271401D01*
X62214035Y-116077830D01*
X62313903Y-115863663D01*
X62375063Y-115635408D01*
X62395659Y-115400000D01*
X62375063Y-115164592D01*
X62313903Y-114936337D01*
X62214035Y-114722171D01*
X62208425Y-114714158D01*
X62078494Y-114528597D01*
X61911402Y-114361506D01*
X61911395Y-114361501D01*
X61717834Y-114225967D01*
X61717830Y-114225965D01*
X61717828Y-114225964D01*
X61503663Y-114126097D01*
X61503659Y-114126096D01*
X61503655Y-114126094D01*
X61275413Y-114064938D01*
X61275403Y-114064936D01*
X61040001Y-114044341D01*
X61039999Y-114044341D01*
X60804596Y-114064936D01*
X60804586Y-114064938D01*
X60576344Y-114126094D01*
X60576335Y-114126098D01*
X60362171Y-114225964D01*
X60362169Y-114225965D01*
X60168597Y-114361505D01*
X60001505Y-114528597D01*
X59871575Y-114714158D01*
X59816998Y-114757783D01*
X59747500Y-114764977D01*
X59685145Y-114733454D01*
X59668425Y-114714158D01*
X59538494Y-114528597D01*
X59371402Y-114361506D01*
X59371396Y-114361501D01*
X59185842Y-114231575D01*
X59142217Y-114176998D01*
X59135023Y-114107500D01*
X59166546Y-114045145D01*
X59185842Y-114028425D01*
X59208026Y-114012891D01*
X59371401Y-113898495D01*
X59538495Y-113731401D01*
X59674035Y-113537830D01*
X59773903Y-113323663D01*
X59835063Y-113095408D01*
X59855659Y-112860000D01*
X59835063Y-112624592D01*
X59773903Y-112396337D01*
X59674035Y-112182171D01*
X59538495Y-111988599D01*
X59538494Y-111988597D01*
X59371402Y-111821506D01*
X59371396Y-111821501D01*
X59185842Y-111691575D01*
X59142217Y-111636998D01*
X59135023Y-111567500D01*
X59166546Y-111505145D01*
X59185842Y-111488425D01*
X59208026Y-111472891D01*
X59371401Y-111358495D01*
X59538495Y-111191401D01*
X59668425Y-111005842D01*
X59723002Y-110962217D01*
X59792500Y-110955023D01*
X59854855Y-110986546D01*
X59871575Y-111005842D01*
X60001500Y-111191395D01*
X60001505Y-111191401D01*
X60168599Y-111358495D01*
X60265384Y-111426265D01*
X60362165Y-111494032D01*
X60362167Y-111494033D01*
X60362170Y-111494035D01*
X60576337Y-111593903D01*
X60804592Y-111655063D01*
X60992918Y-111671539D01*
X61039999Y-111675659D01*
X61040000Y-111675659D01*
X61040001Y-111675659D01*
X61079234Y-111672226D01*
X61275408Y-111655063D01*
X61503663Y-111593903D01*
X61717830Y-111494035D01*
X61911401Y-111358495D01*
X62078495Y-111191401D01*
X62214035Y-110997830D01*
X62313903Y-110783663D01*
X62375063Y-110555408D01*
X62395659Y-110320000D01*
X62375063Y-110084592D01*
X62313903Y-109856337D01*
X62214035Y-109642171D01*
X62208425Y-109634158D01*
X62078494Y-109448597D01*
X61911402Y-109281506D01*
X61911395Y-109281501D01*
X61717834Y-109145967D01*
X61717830Y-109145965D01*
X61717828Y-109145964D01*
X61503663Y-109046097D01*
X61503659Y-109046096D01*
X61503655Y-109046094D01*
X61275413Y-108984938D01*
X61275403Y-108984936D01*
X61040001Y-108964341D01*
X61039999Y-108964341D01*
X60804596Y-108984936D01*
X60804586Y-108984938D01*
X60576344Y-109046094D01*
X60576335Y-109046098D01*
X60362171Y-109145964D01*
X60362169Y-109145965D01*
X60168597Y-109281505D01*
X60001505Y-109448597D01*
X59871575Y-109634158D01*
X59816998Y-109677783D01*
X59747500Y-109684977D01*
X59685145Y-109653454D01*
X59668425Y-109634158D01*
X59538494Y-109448597D01*
X59371402Y-109281506D01*
X59371396Y-109281501D01*
X59185842Y-109151575D01*
X59142217Y-109096998D01*
X59135023Y-109027500D01*
X59166546Y-108965145D01*
X59185842Y-108948425D01*
X59208026Y-108932891D01*
X59371401Y-108818495D01*
X59538495Y-108651401D01*
X59674035Y-108457830D01*
X59773903Y-108243663D01*
X59835063Y-108015408D01*
X59855659Y-107780000D01*
X59835063Y-107544592D01*
X59773903Y-107316337D01*
X59674035Y-107102171D01*
X59538495Y-106908599D01*
X59538494Y-106908597D01*
X59371402Y-106741506D01*
X59371396Y-106741501D01*
X59185842Y-106611575D01*
X59142217Y-106556998D01*
X59135023Y-106487500D01*
X59166546Y-106425145D01*
X59185842Y-106408425D01*
X59208026Y-106392891D01*
X59371401Y-106278495D01*
X59538495Y-106111401D01*
X59668425Y-105925842D01*
X59723002Y-105882217D01*
X59792500Y-105875023D01*
X59854855Y-105906546D01*
X59871575Y-105925842D01*
X60001500Y-106111395D01*
X60001505Y-106111401D01*
X60168599Y-106278495D01*
X60265384Y-106346265D01*
X60362165Y-106414032D01*
X60362167Y-106414033D01*
X60362170Y-106414035D01*
X60576337Y-106513903D01*
X60804592Y-106575063D01*
X60992918Y-106591539D01*
X61039999Y-106595659D01*
X61040000Y-106595659D01*
X61040001Y-106595659D01*
X61079234Y-106592226D01*
X61275408Y-106575063D01*
X61503663Y-106513903D01*
X61717830Y-106414035D01*
X61911401Y-106278495D01*
X62078495Y-106111401D01*
X62214035Y-105917830D01*
X62313903Y-105703663D01*
X62375063Y-105475408D01*
X62395659Y-105240000D01*
X62375063Y-105004592D01*
X62313903Y-104776337D01*
X62214035Y-104562171D01*
X62208425Y-104554158D01*
X62078494Y-104368597D01*
X61911402Y-104201506D01*
X61911396Y-104201501D01*
X61725842Y-104071575D01*
X61682217Y-104016998D01*
X61675023Y-103947500D01*
X61706546Y-103885145D01*
X61725842Y-103868425D01*
X61748026Y-103852891D01*
X61911401Y-103738495D01*
X62078495Y-103571401D01*
X62214035Y-103377830D01*
X62313903Y-103163663D01*
X62375063Y-102935408D01*
X62395659Y-102700000D01*
X62375063Y-102464592D01*
X62313903Y-102236337D01*
X62214035Y-102022171D01*
X62135844Y-101910501D01*
X62078494Y-101828597D01*
X61911402Y-101661506D01*
X61911396Y-101661501D01*
X61725842Y-101531575D01*
X61682217Y-101476998D01*
X61675023Y-101407500D01*
X61706546Y-101345145D01*
X61725842Y-101328425D01*
X61748026Y-101312891D01*
X61911401Y-101198495D01*
X62078495Y-101031401D01*
X62214035Y-100837830D01*
X62313903Y-100623663D01*
X62375063Y-100395408D01*
X62395659Y-100160000D01*
X62375063Y-99924592D01*
X62313903Y-99696337D01*
X62214035Y-99482171D01*
X62208425Y-99474158D01*
X62078494Y-99288597D01*
X61911402Y-99121506D01*
X61911396Y-99121501D01*
X61725842Y-98991575D01*
X61682217Y-98936998D01*
X61675023Y-98867500D01*
X61706546Y-98805145D01*
X61725842Y-98788425D01*
X61748026Y-98772891D01*
X61911401Y-98658495D01*
X62078495Y-98491401D01*
X62214035Y-98297830D01*
X62313903Y-98083663D01*
X62375063Y-97855408D01*
X62395659Y-97620000D01*
X62375063Y-97384592D01*
X62313903Y-97156337D01*
X62214035Y-96942171D01*
X62208425Y-96934158D01*
X62078494Y-96748597D01*
X61911402Y-96581506D01*
X61911395Y-96581501D01*
X61717834Y-96445967D01*
X61717830Y-96445965D01*
X61612820Y-96396998D01*
X61503663Y-96346097D01*
X61503659Y-96346096D01*
X61503655Y-96346094D01*
X61275413Y-96284938D01*
X61275403Y-96284936D01*
X61040001Y-96264341D01*
X61039999Y-96264341D01*
X60804596Y-96284936D01*
X60804586Y-96284938D01*
X60576344Y-96346094D01*
X60576335Y-96346098D01*
X60362171Y-96445964D01*
X60362169Y-96445965D01*
X60168597Y-96581505D01*
X60001505Y-96748597D01*
X59871575Y-96934158D01*
X59816998Y-96977783D01*
X59747500Y-96984977D01*
X59685145Y-96953454D01*
X59668425Y-96934158D01*
X59538494Y-96748597D01*
X59371402Y-96581506D01*
X59371396Y-96581501D01*
X59185842Y-96451575D01*
X59142217Y-96396998D01*
X59135023Y-96327500D01*
X59166546Y-96265145D01*
X59185842Y-96248425D01*
X59208026Y-96232891D01*
X59371401Y-96118495D01*
X59538495Y-95951401D01*
X59674035Y-95757830D01*
X59773903Y-95543663D01*
X59835063Y-95315408D01*
X59855659Y-95080000D01*
X59835063Y-94844592D01*
X59773903Y-94616337D01*
X59674035Y-94402171D01*
X59538495Y-94208599D01*
X59538494Y-94208597D01*
X59371402Y-94041506D01*
X59371396Y-94041501D01*
X59185842Y-93911575D01*
X59142217Y-93856998D01*
X59135023Y-93787500D01*
X59166546Y-93725145D01*
X59185842Y-93708425D01*
X59208026Y-93692891D01*
X59371401Y-93578495D01*
X59538495Y-93411401D01*
X59668425Y-93225842D01*
X59723002Y-93182217D01*
X59792500Y-93175023D01*
X59854855Y-93206546D01*
X59871575Y-93225842D01*
X60001500Y-93411395D01*
X60001505Y-93411401D01*
X60168599Y-93578495D01*
X60265384Y-93646265D01*
X60362165Y-93714032D01*
X60362167Y-93714033D01*
X60362170Y-93714035D01*
X60576337Y-93813903D01*
X60804592Y-93875063D01*
X60992918Y-93891539D01*
X61039999Y-93895659D01*
X61040000Y-93895659D01*
X61040001Y-93895659D01*
X61079234Y-93892226D01*
X61275408Y-93875063D01*
X61503663Y-93813903D01*
X61717830Y-93714035D01*
X61911401Y-93578495D01*
X62078495Y-93411401D01*
X62214035Y-93217830D01*
X62313903Y-93003663D01*
X62375063Y-92775408D01*
X62395659Y-92540000D01*
X62375063Y-92304592D01*
X62313903Y-92076337D01*
X62214035Y-91862171D01*
X62208425Y-91854158D01*
X62078494Y-91668597D01*
X61911402Y-91501506D01*
X61911396Y-91501501D01*
X61725842Y-91371575D01*
X61682217Y-91316998D01*
X61675023Y-91247500D01*
X61706546Y-91185145D01*
X61725842Y-91168425D01*
X61748026Y-91152891D01*
X61911401Y-91038495D01*
X62078495Y-90871401D01*
X62214035Y-90677830D01*
X62313903Y-90463663D01*
X62375063Y-90235408D01*
X62395659Y-90000000D01*
X62375063Y-89764592D01*
X62313903Y-89536337D01*
X62214035Y-89322171D01*
X62208425Y-89314158D01*
X62078494Y-89128597D01*
X61911402Y-88961506D01*
X61911395Y-88961501D01*
X61717834Y-88825967D01*
X61717830Y-88825965D01*
X61612820Y-88776998D01*
X61503663Y-88726097D01*
X61503659Y-88726096D01*
X61503655Y-88726094D01*
X61275413Y-88664938D01*
X61275403Y-88664936D01*
X61040001Y-88644341D01*
X61039999Y-88644341D01*
X60804596Y-88664936D01*
X60804586Y-88664938D01*
X60576344Y-88726094D01*
X60576335Y-88726098D01*
X60362171Y-88825964D01*
X60362169Y-88825965D01*
X60168597Y-88961505D01*
X60001505Y-89128597D01*
X59871575Y-89314158D01*
X59816998Y-89357783D01*
X59747500Y-89364977D01*
X59685145Y-89333454D01*
X59668425Y-89314158D01*
X59538494Y-89128597D01*
X59371402Y-88961506D01*
X59371396Y-88961501D01*
X59185842Y-88831575D01*
X59142217Y-88776998D01*
X59135023Y-88707500D01*
X59166546Y-88645145D01*
X59185842Y-88628425D01*
X59208026Y-88612891D01*
X59371401Y-88498495D01*
X59538495Y-88331401D01*
X59674035Y-88137830D01*
X59773903Y-87923663D01*
X59835063Y-87695408D01*
X59855659Y-87460000D01*
X59835063Y-87224592D01*
X59773903Y-86996337D01*
X59674035Y-86782171D01*
X59538495Y-86588599D01*
X59538494Y-86588597D01*
X59371402Y-86421506D01*
X59371396Y-86421501D01*
X59185842Y-86291575D01*
X59142217Y-86236998D01*
X59135023Y-86167500D01*
X59166546Y-86105145D01*
X59185842Y-86088425D01*
X59208026Y-86072891D01*
X59371401Y-85958495D01*
X59538495Y-85791401D01*
X59668425Y-85605842D01*
X59723002Y-85562217D01*
X59792500Y-85555023D01*
X59854855Y-85586546D01*
X59871575Y-85605842D01*
X60001500Y-85791395D01*
X60001505Y-85791401D01*
X60168599Y-85958495D01*
X60265384Y-86026265D01*
X60362165Y-86094032D01*
X60362167Y-86094033D01*
X60362170Y-86094035D01*
X60576337Y-86193903D01*
X60804592Y-86255063D01*
X60992918Y-86271539D01*
X61039999Y-86275659D01*
X61040000Y-86275659D01*
X61040001Y-86275659D01*
X61079234Y-86272226D01*
X61275408Y-86255063D01*
X61503663Y-86193903D01*
X61717830Y-86094035D01*
X61911401Y-85958495D01*
X62078495Y-85791401D01*
X62214035Y-85597830D01*
X62313903Y-85383663D01*
X62375063Y-85155408D01*
X62395659Y-84920000D01*
X62375063Y-84684592D01*
X62313903Y-84456337D01*
X62214035Y-84242171D01*
X62208425Y-84234158D01*
X62078494Y-84048597D01*
X61911402Y-83881506D01*
X61911396Y-83881501D01*
X61725842Y-83751575D01*
X61682217Y-83696998D01*
X61675023Y-83627500D01*
X61706546Y-83565145D01*
X61725842Y-83548425D01*
X61763272Y-83522216D01*
X61911401Y-83418495D01*
X62078495Y-83251401D01*
X62214035Y-83057830D01*
X62313903Y-82843663D01*
X62375063Y-82615408D01*
X62395659Y-82380000D01*
X62375063Y-82144592D01*
X62313903Y-81916337D01*
X62214035Y-81702171D01*
X62078495Y-81508599D01*
X62078494Y-81508597D01*
X61911402Y-81341506D01*
X61911396Y-81341501D01*
X61725842Y-81211575D01*
X61682217Y-81156998D01*
X61675023Y-81087500D01*
X61706546Y-81025145D01*
X61725842Y-81008425D01*
X61748026Y-80992891D01*
X61911401Y-80878495D01*
X62078495Y-80711401D01*
X62214035Y-80517830D01*
X62313903Y-80303663D01*
X62375063Y-80075408D01*
X62395659Y-79840000D01*
X62375063Y-79604592D01*
X62313903Y-79376337D01*
X62214035Y-79162171D01*
X62208425Y-79154158D01*
X62078494Y-78968597D01*
X61911402Y-78801506D01*
X61911395Y-78801501D01*
X61717834Y-78665967D01*
X61717830Y-78665965D01*
X61612820Y-78616998D01*
X61503663Y-78566097D01*
X61503659Y-78566096D01*
X61503655Y-78566094D01*
X61275413Y-78504938D01*
X61275403Y-78504936D01*
X61040001Y-78484341D01*
X61039999Y-78484341D01*
X60804596Y-78504936D01*
X60804586Y-78504938D01*
X60576344Y-78566094D01*
X60576335Y-78566098D01*
X60362171Y-78665964D01*
X60362169Y-78665965D01*
X60168597Y-78801505D01*
X60001505Y-78968597D01*
X59871575Y-79154158D01*
X59816998Y-79197783D01*
X59747500Y-79204977D01*
X59685145Y-79173454D01*
X59668425Y-79154158D01*
X59538494Y-78968597D01*
X59371402Y-78801506D01*
X59371396Y-78801501D01*
X59185842Y-78671575D01*
X59142217Y-78616998D01*
X59135023Y-78547500D01*
X59166546Y-78485145D01*
X59185842Y-78468425D01*
X59208026Y-78452891D01*
X59371401Y-78338495D01*
X59538495Y-78171401D01*
X59674035Y-77977830D01*
X59773903Y-77763663D01*
X59835063Y-77535408D01*
X59855659Y-77300000D01*
X59835063Y-77064592D01*
X59773903Y-76836337D01*
X59674035Y-76622171D01*
X59538495Y-76428599D01*
X59538494Y-76428597D01*
X59371402Y-76261506D01*
X59371396Y-76261501D01*
X59185842Y-76131575D01*
X59142217Y-76076998D01*
X59135023Y-76007500D01*
X59166546Y-75945145D01*
X59185842Y-75928425D01*
X59208026Y-75912891D01*
X59371401Y-75798495D01*
X59538495Y-75631401D01*
X59668425Y-75445842D01*
X59723002Y-75402217D01*
X59792500Y-75395023D01*
X59854855Y-75426546D01*
X59871575Y-75445842D01*
X60001500Y-75631395D01*
X60001505Y-75631401D01*
X60168599Y-75798495D01*
X60265384Y-75866265D01*
X60362165Y-75934032D01*
X60362167Y-75934033D01*
X60362170Y-75934035D01*
X60576337Y-76033903D01*
X60804592Y-76095063D01*
X60992918Y-76111539D01*
X61039999Y-76115659D01*
X61040000Y-76115659D01*
X61040001Y-76115659D01*
X61079234Y-76112226D01*
X61275408Y-76095063D01*
X61503663Y-76033903D01*
X61717830Y-75934035D01*
X61911401Y-75798495D01*
X62078495Y-75631401D01*
X62214035Y-75437830D01*
X62313903Y-75223663D01*
X62375063Y-74995408D01*
X62395659Y-74760000D01*
X62375063Y-74524592D01*
X62313903Y-74296337D01*
X62214035Y-74082171D01*
X62208425Y-74074158D01*
X62078494Y-73888597D01*
X62076819Y-73886922D01*
X62076315Y-73886000D01*
X62075014Y-73884449D01*
X62075325Y-73884187D01*
X62043334Y-73825599D01*
X62040500Y-73799241D01*
X62040500Y-73180758D01*
X62060185Y-73113719D01*
X62076819Y-73093077D01*
X62078495Y-73091401D01*
X62214035Y-72897830D01*
X62313903Y-72683663D01*
X62375063Y-72455408D01*
X62395659Y-72220000D01*
X62375063Y-71984592D01*
X62323415Y-71791835D01*
X62313905Y-71756344D01*
X62313904Y-71756343D01*
X62313903Y-71756337D01*
X62214035Y-71542171D01*
X62078495Y-71348599D01*
X62078494Y-71348597D01*
X62076819Y-71346922D01*
X62076315Y-71346000D01*
X62075014Y-71344449D01*
X62075325Y-71344187D01*
X62043334Y-71285599D01*
X62040500Y-71259241D01*
X62040500Y-70919375D01*
X62017861Y-70805566D01*
X62017861Y-70805565D01*
X62002052Y-70726089D01*
X62002051Y-70726083D01*
X61965475Y-70637781D01*
X61965475Y-70637780D01*
X61926635Y-70544011D01*
X61926628Y-70543998D01*
X61817139Y-70380137D01*
X61817136Y-70380133D01*
X61674686Y-70237683D01*
X61674655Y-70237654D01*
X60803560Y-69366559D01*
X60803540Y-69366537D01*
X60659863Y-69222860D01*
X60552169Y-69150902D01*
X60507364Y-69097290D01*
X60498657Y-69027965D01*
X60528811Y-68964938D01*
X60573608Y-68933239D01*
X60670200Y-68893229D01*
X60670200Y-68893228D01*
X60670212Y-68893224D01*
X60880289Y-68771936D01*
X61072738Y-68624265D01*
X61244265Y-68452738D01*
X61391936Y-68260289D01*
X61513224Y-68050212D01*
X61606054Y-67826100D01*
X61668838Y-67591789D01*
X61700500Y-67351288D01*
X61700500Y-67108712D01*
X61668838Y-66868211D01*
X61606054Y-66633900D01*
X61513224Y-66409788D01*
X61391936Y-66199711D01*
X61300068Y-66079986D01*
X61274874Y-66014817D01*
X61288912Y-65946372D01*
X61337726Y-65896383D01*
X61398444Y-65880500D01*
X83089647Y-65880500D01*
X83156686Y-65900185D01*
X83177328Y-65916819D01*
X84624883Y-67364374D01*
X84624893Y-67364385D01*
X84629223Y-67368715D01*
X84629224Y-67368716D01*
X84741028Y-67480520D01*
X84741030Y-67480521D01*
X84741034Y-67480524D01*
X84854927Y-67546279D01*
X84877960Y-67559577D01*
X84989763Y-67589534D01*
X85030686Y-67600500D01*
X85030687Y-67600500D01*
X89430451Y-67600500D01*
X89497490Y-67620185D01*
X89543245Y-67672989D01*
X89553189Y-67742147D01*
X89524164Y-67805703D01*
X89518132Y-67812181D01*
X89406871Y-67923441D01*
X89406868Y-67923444D01*
X89279857Y-68104834D01*
X89279856Y-68104836D01*
X89186279Y-68305513D01*
X89186275Y-68305524D01*
X89128965Y-68519407D01*
X89128964Y-68519414D01*
X89109666Y-68739998D01*
X89109666Y-68740001D01*
X89128964Y-68960585D01*
X89128965Y-68960592D01*
X89186275Y-69174475D01*
X89186279Y-69174486D01*
X89273818Y-69362214D01*
X89279858Y-69375167D01*
X89406868Y-69556555D01*
X89563445Y-69713132D01*
X89744833Y-69840142D01*
X89865572Y-69896443D01*
X89945513Y-69933720D01*
X89945515Y-69933720D01*
X89945520Y-69933723D01*
X90159409Y-69991035D01*
X90316585Y-70004786D01*
X90379998Y-70010334D01*
X90380000Y-70010334D01*
X90380002Y-70010334D01*
X90443346Y-70004792D01*
X90600591Y-69991035D01*
X90814480Y-69933723D01*
X91015167Y-69840142D01*
X91196555Y-69713132D01*
X91353132Y-69556555D01*
X91480142Y-69375167D01*
X91537618Y-69251907D01*
X91583790Y-69199468D01*
X91650983Y-69180316D01*
X91717864Y-69200531D01*
X91762381Y-69251907D01*
X91819858Y-69375167D01*
X91897075Y-69485443D01*
X91919402Y-69551646D01*
X91919500Y-69556565D01*
X91919500Y-70375500D01*
X91899815Y-70442539D01*
X91847011Y-70488294D01*
X91795500Y-70499500D01*
X77787404Y-70499500D01*
X77720365Y-70479815D01*
X77674610Y-70427011D01*
X77664666Y-70357853D01*
X77693691Y-70294297D01*
X77714519Y-70275182D01*
X77879785Y-70155109D01*
X77879783Y-70155109D01*
X77879792Y-70155104D01*
X78030104Y-70004792D01*
X78030106Y-70004788D01*
X78030109Y-70004786D01*
X78155048Y-69832820D01*
X78155047Y-69832820D01*
X78155051Y-69832816D01*
X78251557Y-69643412D01*
X78317246Y-69441243D01*
X78350500Y-69231287D01*
X78350500Y-68768713D01*
X78317246Y-68558757D01*
X78251557Y-68356588D01*
X78155051Y-68167184D01*
X78155049Y-68167181D01*
X78155048Y-68167179D01*
X78030109Y-67995213D01*
X77879786Y-67844890D01*
X77707820Y-67719951D01*
X77518414Y-67623444D01*
X77518413Y-67623443D01*
X77518412Y-67623443D01*
X77316243Y-67557754D01*
X77316241Y-67557753D01*
X77316240Y-67557753D01*
X77148601Y-67531202D01*
X77106287Y-67524500D01*
X76893713Y-67524500D01*
X76851399Y-67531202D01*
X76683760Y-67557753D01*
X76481585Y-67623444D01*
X76292179Y-67719951D01*
X76120213Y-67844890D01*
X75969894Y-67995209D01*
X75969890Y-67995214D01*
X75850318Y-68159793D01*
X75794989Y-68202459D01*
X75725375Y-68208438D01*
X75663580Y-68175833D01*
X75649682Y-68159793D01*
X75530109Y-67995214D01*
X75530105Y-67995209D01*
X75379786Y-67844890D01*
X75207820Y-67719951D01*
X75018414Y-67623444D01*
X75018413Y-67623443D01*
X75018412Y-67623443D01*
X74816243Y-67557754D01*
X74816241Y-67557753D01*
X74816240Y-67557753D01*
X74648601Y-67531202D01*
X74606287Y-67524500D01*
X74393713Y-67524500D01*
X74351399Y-67531202D01*
X74183760Y-67557753D01*
X73981585Y-67623444D01*
X73792179Y-67719951D01*
X73620213Y-67844890D01*
X73469894Y-67995209D01*
X73469890Y-67995214D01*
X73350318Y-68159793D01*
X73294989Y-68202459D01*
X73225375Y-68208438D01*
X73163580Y-68175833D01*
X73149682Y-68159793D01*
X73030109Y-67995214D01*
X73030105Y-67995209D01*
X72879786Y-67844890D01*
X72707820Y-67719951D01*
X72518414Y-67623444D01*
X72518413Y-67623443D01*
X72518412Y-67623443D01*
X72316243Y-67557754D01*
X72316241Y-67557753D01*
X72316240Y-67557753D01*
X72148601Y-67531202D01*
X72106287Y-67524500D01*
X71893713Y-67524500D01*
X71851399Y-67531202D01*
X71683760Y-67557753D01*
X71481585Y-67623444D01*
X71292179Y-67719951D01*
X71120213Y-67844890D01*
X70969894Y-67995209D01*
X70969890Y-67995214D01*
X70850318Y-68159793D01*
X70794989Y-68202459D01*
X70725375Y-68208438D01*
X70663580Y-68175833D01*
X70649682Y-68159793D01*
X70530109Y-67995214D01*
X70530105Y-67995209D01*
X70379786Y-67844890D01*
X70207820Y-67719951D01*
X70018414Y-67623444D01*
X70018413Y-67623443D01*
X70018412Y-67623443D01*
X69816243Y-67557754D01*
X69816241Y-67557753D01*
X69816240Y-67557753D01*
X69648601Y-67531202D01*
X69606287Y-67524500D01*
X69393713Y-67524500D01*
X69351399Y-67531202D01*
X69183760Y-67557753D01*
X68981585Y-67623444D01*
X68792179Y-67719951D01*
X68620213Y-67844890D01*
X68469894Y-67995209D01*
X68469890Y-67995214D01*
X68350318Y-68159793D01*
X68294989Y-68202459D01*
X68225375Y-68208438D01*
X68163580Y-68175833D01*
X68149682Y-68159793D01*
X68030109Y-67995214D01*
X68030105Y-67995209D01*
X67879786Y-67844890D01*
X67707820Y-67719951D01*
X67518414Y-67623444D01*
X67518413Y-67623443D01*
X67518412Y-67623443D01*
X67316243Y-67557754D01*
X67316241Y-67557753D01*
X67316240Y-67557753D01*
X67148601Y-67531202D01*
X67106287Y-67524500D01*
X66893713Y-67524500D01*
X66851399Y-67531202D01*
X66683760Y-67557753D01*
X66481585Y-67623444D01*
X66292179Y-67719951D01*
X66120213Y-67844890D01*
X65969890Y-67995213D01*
X65844951Y-68167179D01*
X65748444Y-68356585D01*
X65682753Y-68558760D01*
X65649500Y-68768713D01*
X65649500Y-69231286D01*
X65672288Y-69375167D01*
X65682754Y-69441243D01*
X65738393Y-69612482D01*
X65748444Y-69643414D01*
X65844951Y-69832820D01*
X65969890Y-70004786D01*
X66120213Y-70155109D01*
X66292179Y-70280048D01*
X66292181Y-70280049D01*
X66292184Y-70280051D01*
X66481588Y-70376557D01*
X66683757Y-70442246D01*
X66893713Y-70475500D01*
X67009218Y-70475500D01*
X67076257Y-70495185D01*
X67096899Y-70511819D01*
X68372899Y-71787819D01*
X68406384Y-71849142D01*
X68401400Y-71918834D01*
X68359528Y-71974767D01*
X68294064Y-71999184D01*
X68285218Y-71999500D01*
X66934108Y-71999500D01*
X66806812Y-72033608D01*
X66692686Y-72099500D01*
X66692683Y-72099502D01*
X66599502Y-72192683D01*
X66599500Y-72192686D01*
X66533608Y-72306812D01*
X66499500Y-72434108D01*
X66499500Y-128375500D01*
X66479815Y-128442539D01*
X66427011Y-128488294D01*
X66375500Y-128499500D01*
X50624500Y-128499500D01*
X50557461Y-128479815D01*
X50511706Y-128427011D01*
X50500500Y-128375500D01*
X50500500Y-125108711D01*
X57999500Y-125108711D01*
X57999500Y-125351288D01*
X58031161Y-125591785D01*
X58093947Y-125826104D01*
X58186773Y-126050205D01*
X58186776Y-126050212D01*
X58308064Y-126260289D01*
X58308066Y-126260292D01*
X58308067Y-126260293D01*
X58455733Y-126452736D01*
X58455739Y-126452743D01*
X58627256Y-126624260D01*
X58627262Y-126624265D01*
X58819711Y-126771936D01*
X59029788Y-126893224D01*
X59253900Y-126986054D01*
X59488211Y-127048838D01*
X59668586Y-127072584D01*
X59728711Y-127080500D01*
X59728712Y-127080500D01*
X59971289Y-127080500D01*
X60019388Y-127074167D01*
X60211789Y-127048838D01*
X60446100Y-126986054D01*
X60670212Y-126893224D01*
X60880289Y-126771936D01*
X61072738Y-126624265D01*
X61244265Y-126452738D01*
X61391936Y-126260289D01*
X61513224Y-126050212D01*
X61606054Y-125826100D01*
X61668838Y-125591789D01*
X61700500Y-125351288D01*
X61700500Y-125108712D01*
X61668838Y-124868211D01*
X61606054Y-124633900D01*
X61513224Y-124409788D01*
X61391936Y-124199711D01*
X61244265Y-124007262D01*
X61244260Y-124007256D01*
X61072743Y-123835739D01*
X61072736Y-123835733D01*
X60880293Y-123688067D01*
X60880292Y-123688066D01*
X60880289Y-123688064D01*
X60670212Y-123566776D01*
X60670205Y-123566773D01*
X60446104Y-123473947D01*
X60211785Y-123411161D01*
X59971289Y-123379500D01*
X59971288Y-123379500D01*
X59728712Y-123379500D01*
X59728711Y-123379500D01*
X59488214Y-123411161D01*
X59253895Y-123473947D01*
X59029794Y-123566773D01*
X59029785Y-123566777D01*
X58819706Y-123688067D01*
X58627263Y-123835733D01*
X58627256Y-123835739D01*
X58455739Y-124007256D01*
X58455733Y-124007263D01*
X58308067Y-124199706D01*
X58186777Y-124409785D01*
X58186773Y-124409794D01*
X58093947Y-124633895D01*
X58031161Y-124868214D01*
X57999500Y-125108711D01*
X50500500Y-125108711D01*
X50500500Y-52768713D01*
X54149500Y-52768713D01*
X54149500Y-53231286D01*
X54178793Y-53416239D01*
X54182754Y-53441243D01*
X54201845Y-53500000D01*
X54248444Y-53643414D01*
X54344951Y-53832820D01*
X54469890Y-54004786D01*
X54620213Y-54155109D01*
X54792179Y-54280048D01*
X54792181Y-54280049D01*
X54792184Y-54280051D01*
X54981588Y-54376557D01*
X55183757Y-54442246D01*
X55393713Y-54475500D01*
X55393714Y-54475500D01*
X55606286Y-54475500D01*
X55606287Y-54475500D01*
X55816243Y-54442246D01*
X56018412Y-54376557D01*
X56207816Y-54280051D01*
X56306560Y-54208310D01*
X56379786Y-54155109D01*
X56379788Y-54155106D01*
X56379792Y-54155104D01*
X56530104Y-54004792D01*
X56649683Y-53840204D01*
X56705011Y-53797540D01*
X56774624Y-53791561D01*
X56836420Y-53824166D01*
X56850313Y-53840199D01*
X56937739Y-53960531D01*
X56969896Y-54004792D01*
X57120213Y-54155109D01*
X57292179Y-54280048D01*
X57292181Y-54280049D01*
X57292184Y-54280051D01*
X57481588Y-54376557D01*
X57683757Y-54442246D01*
X57893713Y-54475500D01*
X57893714Y-54475500D01*
X58106286Y-54475500D01*
X58106287Y-54475500D01*
X58316243Y-54442246D01*
X58518412Y-54376557D01*
X58707816Y-54280051D01*
X58806560Y-54208310D01*
X58879786Y-54155109D01*
X58879788Y-54155106D01*
X58879792Y-54155104D01*
X59030104Y-54004792D01*
X59149683Y-53840204D01*
X59205011Y-53797540D01*
X59274624Y-53791561D01*
X59336420Y-53824166D01*
X59350313Y-53840199D01*
X59437739Y-53960531D01*
X59469896Y-54004792D01*
X59620213Y-54155109D01*
X59792179Y-54280048D01*
X59792181Y-54280049D01*
X59792184Y-54280051D01*
X59981588Y-54376557D01*
X60183757Y-54442246D01*
X60393713Y-54475500D01*
X60393714Y-54475500D01*
X60606286Y-54475500D01*
X60606287Y-54475500D01*
X60816243Y-54442246D01*
X61018412Y-54376557D01*
X61207816Y-54280051D01*
X61306560Y-54208310D01*
X61379786Y-54155109D01*
X61379788Y-54155106D01*
X61379792Y-54155104D01*
X61530104Y-54004792D01*
X61649683Y-53840204D01*
X61705011Y-53797540D01*
X61774624Y-53791561D01*
X61836420Y-53824166D01*
X61850313Y-53840199D01*
X61937739Y-53960531D01*
X61969896Y-54004792D01*
X62120213Y-54155109D01*
X62292179Y-54280048D01*
X62292181Y-54280049D01*
X62292184Y-54280051D01*
X62481588Y-54376557D01*
X62683757Y-54442246D01*
X62893713Y-54475500D01*
X62893714Y-54475500D01*
X63106286Y-54475500D01*
X63106287Y-54475500D01*
X63316243Y-54442246D01*
X63518412Y-54376557D01*
X63707816Y-54280051D01*
X63806560Y-54208310D01*
X63879786Y-54155109D01*
X63879788Y-54155106D01*
X63879792Y-54155104D01*
X64030104Y-54004792D01*
X64030106Y-54004788D01*
X64030109Y-54004786D01*
X64155048Y-53832820D01*
X64155047Y-53832820D01*
X64155051Y-53832816D01*
X64251557Y-53643412D01*
X64317246Y-53441243D01*
X64350500Y-53231287D01*
X64350500Y-52768713D01*
X64317246Y-52558757D01*
X64251557Y-52356588D01*
X64155051Y-52167184D01*
X64155049Y-52167181D01*
X64155048Y-52167179D01*
X64030109Y-51995213D01*
X63879786Y-51844890D01*
X63707820Y-51719951D01*
X63518414Y-51623444D01*
X63518413Y-51623443D01*
X63518412Y-51623443D01*
X63316243Y-51557754D01*
X63316241Y-51557753D01*
X63316240Y-51557753D01*
X63154957Y-51532208D01*
X63106287Y-51524500D01*
X62893713Y-51524500D01*
X62845042Y-51532208D01*
X62683760Y-51557753D01*
X62683757Y-51557754D01*
X62483509Y-51622819D01*
X62481585Y-51623444D01*
X62292179Y-51719951D01*
X62120213Y-51844890D01*
X61969894Y-51995209D01*
X61969890Y-51995214D01*
X61850318Y-52159793D01*
X61794989Y-52202459D01*
X61725375Y-52208438D01*
X61663580Y-52175833D01*
X61649682Y-52159793D01*
X61530109Y-51995214D01*
X61530105Y-51995209D01*
X61379786Y-51844890D01*
X61207820Y-51719951D01*
X61018414Y-51623444D01*
X61018413Y-51623443D01*
X61018412Y-51623443D01*
X60816243Y-51557754D01*
X60816241Y-51557753D01*
X60816240Y-51557753D01*
X60654957Y-51532208D01*
X60606287Y-51524500D01*
X60393713Y-51524500D01*
X60345042Y-51532208D01*
X60183760Y-51557753D01*
X60183757Y-51557754D01*
X59983509Y-51622819D01*
X59981585Y-51623444D01*
X59792179Y-51719951D01*
X59620213Y-51844890D01*
X59469894Y-51995209D01*
X59469890Y-51995214D01*
X59350318Y-52159793D01*
X59294989Y-52202459D01*
X59225375Y-52208438D01*
X59163580Y-52175833D01*
X59149682Y-52159793D01*
X59030109Y-51995214D01*
X59030105Y-51995209D01*
X58879786Y-51844890D01*
X58707820Y-51719951D01*
X58518414Y-51623444D01*
X58518413Y-51623443D01*
X58518412Y-51623443D01*
X58316243Y-51557754D01*
X58316241Y-51557753D01*
X58316240Y-51557753D01*
X58154957Y-51532208D01*
X58106287Y-51524500D01*
X57893713Y-51524500D01*
X57845042Y-51532208D01*
X57683760Y-51557753D01*
X57683757Y-51557754D01*
X57483509Y-51622819D01*
X57481585Y-51623444D01*
X57292179Y-51719951D01*
X57120213Y-51844890D01*
X56969894Y-51995209D01*
X56969890Y-51995214D01*
X56850318Y-52159793D01*
X56794989Y-52202459D01*
X56725375Y-52208438D01*
X56663580Y-52175833D01*
X56649682Y-52159793D01*
X56530109Y-51995214D01*
X56530105Y-51995209D01*
X56379786Y-51844890D01*
X56207820Y-51719951D01*
X56018414Y-51623444D01*
X56018413Y-51623443D01*
X56018412Y-51623443D01*
X55816243Y-51557754D01*
X55816241Y-51557753D01*
X55816240Y-51557753D01*
X55654957Y-51532208D01*
X55606287Y-51524500D01*
X55393713Y-51524500D01*
X55345042Y-51532208D01*
X55183760Y-51557753D01*
X55183757Y-51557754D01*
X54983509Y-51622819D01*
X54981585Y-51623444D01*
X54792179Y-51719951D01*
X54620213Y-51844890D01*
X54469890Y-51995213D01*
X54344951Y-52167179D01*
X54248444Y-52356585D01*
X54182753Y-52558760D01*
X54149500Y-52768713D01*
X50500500Y-52768713D01*
X50500500Y-50624500D01*
X50520185Y-50557461D01*
X50572989Y-50511706D01*
X50624500Y-50500500D01*
X75325902Y-50500500D01*
X75392941Y-50520185D01*
G37*
G04 #@! TD.AperFunction*
G04 #@! TA.AperFunction,Conductor*
G36*
X59854855Y-80506546D02*
G01*
X59871575Y-80525842D01*
X60001501Y-80711396D01*
X60001506Y-80711402D01*
X60168597Y-80878493D01*
X60168603Y-80878498D01*
X60354158Y-81008425D01*
X60397783Y-81063002D01*
X60404977Y-81132500D01*
X60373454Y-81194855D01*
X60354158Y-81211575D01*
X60168597Y-81341505D01*
X60001505Y-81508597D01*
X59865965Y-81702169D01*
X59865964Y-81702171D01*
X59766098Y-81916335D01*
X59766094Y-81916344D01*
X59704938Y-82144586D01*
X59704936Y-82144596D01*
X59684341Y-82379999D01*
X59684341Y-82380000D01*
X59704936Y-82615403D01*
X59704938Y-82615413D01*
X59766094Y-82843655D01*
X59766096Y-82843659D01*
X59766097Y-82843663D01*
X59865965Y-83057830D01*
X59865967Y-83057834D01*
X60001501Y-83251395D01*
X60001506Y-83251402D01*
X60168597Y-83418493D01*
X60168603Y-83418498D01*
X60354158Y-83548425D01*
X60397783Y-83603002D01*
X60404977Y-83672500D01*
X60373454Y-83734855D01*
X60354158Y-83751575D01*
X60168597Y-83881505D01*
X60001505Y-84048597D01*
X59871575Y-84234158D01*
X59816998Y-84277783D01*
X59747500Y-84284977D01*
X59685145Y-84253454D01*
X59668425Y-84234158D01*
X59538494Y-84048597D01*
X59371402Y-83881506D01*
X59371395Y-83881501D01*
X59177834Y-83745967D01*
X59177830Y-83745965D01*
X58963663Y-83646097D01*
X58963659Y-83646096D01*
X58963655Y-83646094D01*
X58735413Y-83584938D01*
X58735403Y-83584936D01*
X58500001Y-83564341D01*
X58499999Y-83564341D01*
X58264596Y-83584936D01*
X58264583Y-83584939D01*
X58106592Y-83627271D01*
X58036742Y-83625608D01*
X57978880Y-83586445D01*
X57951377Y-83522216D01*
X57950500Y-83507496D01*
X57950500Y-81252503D01*
X57970185Y-81185464D01*
X58022989Y-81139709D01*
X58092147Y-81129765D01*
X58106593Y-81132728D01*
X58132647Y-81139709D01*
X58264592Y-81175063D01*
X58452918Y-81191539D01*
X58499999Y-81195659D01*
X58500000Y-81195659D01*
X58500001Y-81195659D01*
X58539234Y-81192226D01*
X58735408Y-81175063D01*
X58963663Y-81113903D01*
X59177830Y-81014035D01*
X59371401Y-80878495D01*
X59538495Y-80711401D01*
X59668425Y-80525842D01*
X59723002Y-80482217D01*
X59792500Y-80475023D01*
X59854855Y-80506546D01*
G37*
G04 #@! TD.AperFunction*
G04 #@! TA.AperFunction,Conductor*
G36*
X110574099Y-64387342D02*
G01*
X110594741Y-64403976D01*
X112510777Y-66320012D01*
X112544262Y-66381335D01*
X112539278Y-66451027D01*
X112497406Y-66506960D01*
X112431942Y-66531377D01*
X112363669Y-66516525D01*
X112361097Y-66515081D01*
X112281904Y-66469360D01*
X112281904Y-66469359D01*
X112281900Y-66469358D01*
X112231785Y-66440423D01*
X112079057Y-66399499D01*
X111920943Y-66399499D01*
X111913347Y-66399499D01*
X111913331Y-66399500D01*
X109416322Y-66399500D01*
X109349283Y-66379815D01*
X109303528Y-66327011D01*
X109293102Y-66289383D01*
X109285369Y-66220750D01*
X109285368Y-66220748D01*
X109285368Y-66220745D01*
X109225789Y-66050478D01*
X109129816Y-65897738D01*
X109002262Y-65770184D01*
X108929119Y-65724225D01*
X108849523Y-65674211D01*
X108679254Y-65614631D01*
X108679249Y-65614630D01*
X108500004Y-65594435D01*
X108499996Y-65594435D01*
X108320750Y-65614630D01*
X108320745Y-65614631D01*
X108150476Y-65674211D01*
X107997737Y-65770184D01*
X107870182Y-65897739D01*
X107842703Y-65941473D01*
X107790369Y-65987763D01*
X107737710Y-65999500D01*
X106416322Y-65999500D01*
X106349283Y-65979815D01*
X106303528Y-65927011D01*
X106293102Y-65889383D01*
X106285369Y-65820750D01*
X106285368Y-65820748D01*
X106285368Y-65820745D01*
X106225789Y-65650478D01*
X106129816Y-65497738D01*
X106002262Y-65370184D01*
X105849523Y-65274211D01*
X105679254Y-65214631D01*
X105679249Y-65214630D01*
X105500004Y-65194435D01*
X105499996Y-65194435D01*
X105320750Y-65214630D01*
X105320745Y-65214631D01*
X105150476Y-65274211D01*
X104997737Y-65370184D01*
X104870182Y-65497739D01*
X104842703Y-65541473D01*
X104790369Y-65587763D01*
X104737710Y-65599500D01*
X103416322Y-65599500D01*
X103349283Y-65579815D01*
X103303528Y-65527011D01*
X103293102Y-65489383D01*
X103285369Y-65420750D01*
X103285368Y-65420748D01*
X103285368Y-65420745D01*
X103225789Y-65250478D01*
X103129816Y-65097738D01*
X103002262Y-64970184D01*
X102909951Y-64912181D01*
X102849523Y-64874211D01*
X102679254Y-64814631D01*
X102679249Y-64814630D01*
X102500004Y-64794435D01*
X102499996Y-64794435D01*
X102320750Y-64814630D01*
X102320745Y-64814631D01*
X102150476Y-64874211D01*
X101997737Y-64970184D01*
X101870182Y-65097739D01*
X101842703Y-65141473D01*
X101790369Y-65187763D01*
X101737710Y-65199500D01*
X99921843Y-65199500D01*
X99854804Y-65179815D01*
X99809049Y-65127011D01*
X99798623Y-65061617D01*
X99805565Y-65000003D01*
X99805565Y-64999996D01*
X99785369Y-64820750D01*
X99785368Y-64820745D01*
X99750264Y-64720423D01*
X99725789Y-64650478D01*
X99667447Y-64557628D01*
X99648448Y-64490393D01*
X99668816Y-64423557D01*
X99722083Y-64378343D01*
X99772442Y-64367657D01*
X110507060Y-64367657D01*
X110574099Y-64387342D01*
G37*
G04 #@! TD.AperFunction*
M02*
