G04 #@! TF.GenerationSoftware,KiCad,Pcbnew,8.0.4*
G04 #@! TF.CreationDate,2024-08-27T21:55:02+09:00*
G04 #@! TF.ProjectId,MDC,4d44432e-6b69-4636-9164-5f7063625858,rev?*
G04 #@! TF.SameCoordinates,Original*
G04 #@! TF.FileFunction,Soldermask,Top*
G04 #@! TF.FilePolarity,Negative*
%FSLAX46Y46*%
G04 Gerber Fmt 4.6, Leading zero omitted, Abs format (unit mm)*
G04 Created by KiCad (PCBNEW 8.0.4) date 2024-08-27 21:55:02*
%MOMM*%
%LPD*%
G01*
G04 APERTURE LIST*
G04 Aperture macros list*
%AMRoundRect*
0 Rectangle with rounded corners*
0 $1 Rounding radius*
0 $2 $3 $4 $5 $6 $7 $8 $9 X,Y pos of 4 corners*
0 Add a 4 corners polygon primitive as box body*
4,1,4,$2,$3,$4,$5,$6,$7,$8,$9,$2,$3,0*
0 Add four circle primitives for the rounded corners*
1,1,$1+$1,$2,$3*
1,1,$1+$1,$4,$5*
1,1,$1+$1,$6,$7*
1,1,$1+$1,$8,$9*
0 Add four rect primitives between the rounded corners*
20,1,$1+$1,$2,$3,$4,$5,0*
20,1,$1+$1,$4,$5,$6,$7,0*
20,1,$1+$1,$6,$7,$8,$9,0*
20,1,$1+$1,$8,$9,$2,$3,0*%
G04 Aperture macros list end*
%ADD10RoundRect,0.100000X-0.475000X0.450000X-0.475000X-0.450000X0.475000X-0.450000X0.475000X0.450000X0*%
%ADD11RoundRect,0.275000X0.300000X-0.275000X0.300000X0.275000X-0.300000X0.275000X-0.300000X-0.275000X0*%
%ADD12RoundRect,0.275000X-0.275000X-0.300000X0.275000X-0.300000X0.275000X0.300000X-0.275000X0.300000X0*%
%ADD13RoundRect,0.275000X0.275000X0.300000X-0.275000X0.300000X-0.275000X-0.300000X0.275000X-0.300000X0*%
%ADD14C,3.400000*%
%ADD15RoundRect,0.100000X0.762500X-0.325000X0.762500X0.325000X-0.762500X0.325000X-0.762500X-0.325000X0*%
%ADD16RoundRect,0.275000X-0.300000X0.275000X-0.300000X-0.275000X0.300000X-0.275000X0.300000X0.275000X0*%
%ADD17RoundRect,0.279412X-0.670588X-0.795588X0.670588X-0.795588X0.670588X0.795588X-0.670588X0.795588X0*%
%ADD18O,1.900000X2.150000*%
%ADD19RoundRect,0.100000X0.750000X-0.325000X0.750000X0.325000X-0.750000X0.325000X-0.750000X-0.325000X0*%
%ADD20RoundRect,0.102000X-0.765000X0.765000X-0.765000X-0.765000X0.765000X-0.765000X0.765000X0.765000X0*%
%ADD21C,1.734000*%
%ADD22RoundRect,0.100000X-0.850000X-0.850000X0.850000X-0.850000X0.850000X0.850000X-0.850000X0.850000X0*%
%ADD23O,1.900000X1.900000*%
%ADD24RoundRect,0.279412X0.670588X0.795588X-0.670588X0.795588X-0.670588X-0.795588X0.670588X-0.795588X0*%
G04 APERTURE END LIST*
D10*
X53000000Y-60725000D03*
X53000000Y-62225000D03*
D11*
X53000000Y-65500000D03*
X53000000Y-63950000D03*
D12*
X66950000Y-64000000D03*
X68500000Y-64000000D03*
D13*
X71500000Y-58000000D03*
X69950000Y-58000000D03*
D10*
X85500000Y-51000000D03*
X85500000Y-52500000D03*
D14*
X145850000Y-67230000D03*
D13*
X139500000Y-64500000D03*
X137950000Y-64500000D03*
D15*
X129788000Y-59095000D03*
X129788000Y-60365000D03*
X129788000Y-61635000D03*
X129788000Y-62905000D03*
X135212000Y-62905000D03*
X135212000Y-61635000D03*
X135212000Y-60365000D03*
X135212000Y-59095000D03*
D11*
X135000000Y-52825000D03*
X135000000Y-51275000D03*
D16*
X145000000Y-59950000D03*
X145000000Y-61500000D03*
D11*
X85500000Y-56050000D03*
X85500000Y-54500000D03*
D17*
X69000000Y-52975000D03*
D18*
X71500000Y-52975000D03*
X74000000Y-52975000D03*
X76500000Y-52975000D03*
X79000000Y-52975000D03*
D19*
X137800000Y-59095000D03*
X137800000Y-60365000D03*
X137800000Y-61635000D03*
X137800000Y-62905000D03*
X143200000Y-62905000D03*
X143200000Y-61635000D03*
X143200000Y-60365000D03*
X143200000Y-59095000D03*
D20*
X125940000Y-53500000D03*
D21*
X123400000Y-53500000D03*
X120860000Y-53500000D03*
X118320000Y-53500000D03*
X115780000Y-53500000D03*
X113240000Y-53500000D03*
X110700000Y-53500000D03*
X108160000Y-53500000D03*
X105620000Y-53500000D03*
X103080000Y-53500000D03*
X100540000Y-53500000D03*
X98000000Y-53500000D03*
X95460000Y-53500000D03*
X92920000Y-53500000D03*
X90380000Y-53500000D03*
D20*
X125940000Y-68740000D03*
D21*
X123400000Y-68740000D03*
X120860000Y-68740000D03*
X118320000Y-68740000D03*
X115780000Y-68740000D03*
X113240000Y-68740000D03*
X110700000Y-68740000D03*
X108160000Y-68740000D03*
X105620000Y-68740000D03*
X103080000Y-68740000D03*
X100540000Y-68740000D03*
X98000000Y-68740000D03*
X95460000Y-68740000D03*
X92920000Y-68740000D03*
X90380000Y-68740000D03*
D22*
X58500000Y-72220000D03*
D23*
X61040000Y-72220000D03*
X58500000Y-74760000D03*
X61040000Y-74760000D03*
X58500000Y-77300000D03*
X61040000Y-77300000D03*
X58500000Y-79840000D03*
X61040000Y-79840000D03*
X58500000Y-82380000D03*
X61040000Y-82380000D03*
X58500000Y-84920000D03*
X61040000Y-84920000D03*
X58500000Y-87460000D03*
X61040000Y-87460000D03*
X58500000Y-90000000D03*
X61040000Y-90000000D03*
X58500000Y-92540000D03*
X61040000Y-92540000D03*
X58500000Y-95080000D03*
X61040000Y-95080000D03*
X58500000Y-97620000D03*
X61040000Y-97620000D03*
X58500000Y-100160000D03*
X61040000Y-100160000D03*
X58500000Y-102700000D03*
X61040000Y-102700000D03*
X58500000Y-105240000D03*
X61040000Y-105240000D03*
X58500000Y-107780000D03*
X61040000Y-107780000D03*
X58500000Y-110320000D03*
X61040000Y-110320000D03*
X58500000Y-112860000D03*
X61040000Y-112860000D03*
X58500000Y-115400000D03*
X61040000Y-115400000D03*
X58500000Y-117940000D03*
X61040000Y-117940000D03*
X58500000Y-120480000D03*
X61040000Y-120480000D03*
D17*
X139250000Y-52975000D03*
D18*
X141750000Y-52975000D03*
X144250000Y-52975000D03*
X146750000Y-52975000D03*
D17*
X53000000Y-53000000D03*
D18*
X55500000Y-53000000D03*
X58000000Y-53000000D03*
X60500000Y-53000000D03*
X63000000Y-53000000D03*
D14*
X59850000Y-67230000D03*
D13*
X135000000Y-57000000D03*
X133450000Y-57000000D03*
X131050000Y-65000000D03*
X129500000Y-65000000D03*
D24*
X79500000Y-69000000D03*
D18*
X77000000Y-69000000D03*
X74500000Y-69000000D03*
X72000000Y-69000000D03*
X69500000Y-69000000D03*
X67000000Y-69000000D03*
D13*
X55050000Y-58000000D03*
X53500000Y-58000000D03*
D14*
X59850000Y-125230000D03*
M02*
