G04 #@! TF.GenerationSoftware,KiCad,Pcbnew,8.0.4*
G04 #@! TF.CreationDate,2024-08-27T21:55:02+09:00*
G04 #@! TF.ProjectId,MDC,4d44432e-6b69-4636-9164-5f7063625858,rev?*
G04 #@! TF.SameCoordinates,Original*
G04 #@! TF.FileFunction,Legend,Top*
G04 #@! TF.FilePolarity,Positive*
%FSLAX46Y46*%
G04 Gerber Fmt 4.6, Leading zero omitted, Abs format (unit mm)*
G04 Created by KiCad (PCBNEW 8.0.4) date 2024-08-27 21:55:02*
%MOMM*%
%LPD*%
G01*
G04 APERTURE LIST*
%ADD10C,0.254000*%
%ADD11C,0.150000*%
%ADD12C,0.200000*%
%ADD13C,0.120000*%
%ADD14C,0.127000*%
%ADD15C,0.400000*%
G04 APERTURE END LIST*
D10*
X51574318Y-62437381D02*
X50304318Y-62437381D01*
X50304318Y-62437381D02*
X50304318Y-62135000D01*
X50304318Y-62135000D02*
X50364794Y-61953571D01*
X50364794Y-61953571D02*
X50485746Y-61832619D01*
X50485746Y-61832619D02*
X50606699Y-61772142D01*
X50606699Y-61772142D02*
X50848603Y-61711666D01*
X50848603Y-61711666D02*
X51030032Y-61711666D01*
X51030032Y-61711666D02*
X51271937Y-61772142D01*
X51271937Y-61772142D02*
X51392889Y-61832619D01*
X51392889Y-61832619D02*
X51513842Y-61953571D01*
X51513842Y-61953571D02*
X51574318Y-62135000D01*
X51574318Y-62135000D02*
X51574318Y-62437381D01*
X51574318Y-60502142D02*
X51574318Y-61227857D01*
X51574318Y-60865000D02*
X50304318Y-60865000D01*
X50304318Y-60865000D02*
X50485746Y-60985952D01*
X50485746Y-60985952D02*
X50606699Y-61106904D01*
X50606699Y-61106904D02*
X50667175Y-61227857D01*
D11*
X52024819Y-64891666D02*
X51548628Y-65224999D01*
X52024819Y-65463094D02*
X51024819Y-65463094D01*
X51024819Y-65463094D02*
X51024819Y-65082142D01*
X51024819Y-65082142D02*
X51072438Y-64986904D01*
X51072438Y-64986904D02*
X51120057Y-64939285D01*
X51120057Y-64939285D02*
X51215295Y-64891666D01*
X51215295Y-64891666D02*
X51358152Y-64891666D01*
X51358152Y-64891666D02*
X51453390Y-64939285D01*
X51453390Y-64939285D02*
X51501009Y-64986904D01*
X51501009Y-64986904D02*
X51548628Y-65082142D01*
X51548628Y-65082142D02*
X51548628Y-65463094D01*
X51120057Y-64510713D02*
X51072438Y-64463094D01*
X51072438Y-64463094D02*
X51024819Y-64367856D01*
X51024819Y-64367856D02*
X51024819Y-64129761D01*
X51024819Y-64129761D02*
X51072438Y-64034523D01*
X51072438Y-64034523D02*
X51120057Y-63986904D01*
X51120057Y-63986904D02*
X51215295Y-63939285D01*
X51215295Y-63939285D02*
X51310533Y-63939285D01*
X51310533Y-63939285D02*
X51453390Y-63986904D01*
X51453390Y-63986904D02*
X52024819Y-64558332D01*
X52024819Y-64558332D02*
X52024819Y-63939285D01*
X67558333Y-62929580D02*
X67510714Y-62977200D01*
X67510714Y-62977200D02*
X67367857Y-63024819D01*
X67367857Y-63024819D02*
X67272619Y-63024819D01*
X67272619Y-63024819D02*
X67129762Y-62977200D01*
X67129762Y-62977200D02*
X67034524Y-62881961D01*
X67034524Y-62881961D02*
X66986905Y-62786723D01*
X66986905Y-62786723D02*
X66939286Y-62596247D01*
X66939286Y-62596247D02*
X66939286Y-62453390D01*
X66939286Y-62453390D02*
X66986905Y-62262914D01*
X66986905Y-62262914D02*
X67034524Y-62167676D01*
X67034524Y-62167676D02*
X67129762Y-62072438D01*
X67129762Y-62072438D02*
X67272619Y-62024819D01*
X67272619Y-62024819D02*
X67367857Y-62024819D01*
X67367857Y-62024819D02*
X67510714Y-62072438D01*
X67510714Y-62072438D02*
X67558333Y-62120057D01*
X67891667Y-62024819D02*
X68558333Y-62024819D01*
X68558333Y-62024819D02*
X68129762Y-63024819D01*
X70558333Y-59789580D02*
X70510714Y-59837200D01*
X70510714Y-59837200D02*
X70367857Y-59884819D01*
X70367857Y-59884819D02*
X70272619Y-59884819D01*
X70272619Y-59884819D02*
X70129762Y-59837200D01*
X70129762Y-59837200D02*
X70034524Y-59741961D01*
X70034524Y-59741961D02*
X69986905Y-59646723D01*
X69986905Y-59646723D02*
X69939286Y-59456247D01*
X69939286Y-59456247D02*
X69939286Y-59313390D01*
X69939286Y-59313390D02*
X69986905Y-59122914D01*
X69986905Y-59122914D02*
X70034524Y-59027676D01*
X70034524Y-59027676D02*
X70129762Y-58932438D01*
X70129762Y-58932438D02*
X70272619Y-58884819D01*
X70272619Y-58884819D02*
X70367857Y-58884819D01*
X70367857Y-58884819D02*
X70510714Y-58932438D01*
X70510714Y-58932438D02*
X70558333Y-58980057D01*
X70939286Y-58980057D02*
X70986905Y-58932438D01*
X70986905Y-58932438D02*
X71082143Y-58884819D01*
X71082143Y-58884819D02*
X71320238Y-58884819D01*
X71320238Y-58884819D02*
X71415476Y-58932438D01*
X71415476Y-58932438D02*
X71463095Y-58980057D01*
X71463095Y-58980057D02*
X71510714Y-59075295D01*
X71510714Y-59075295D02*
X71510714Y-59170533D01*
X71510714Y-59170533D02*
X71463095Y-59313390D01*
X71463095Y-59313390D02*
X70891667Y-59884819D01*
X70891667Y-59884819D02*
X71510714Y-59884819D01*
D10*
X88074318Y-53437381D02*
X86804318Y-53437381D01*
X86804318Y-53437381D02*
X86804318Y-53135000D01*
X86804318Y-53135000D02*
X86864794Y-52953571D01*
X86864794Y-52953571D02*
X86985746Y-52832619D01*
X86985746Y-52832619D02*
X87106699Y-52772142D01*
X87106699Y-52772142D02*
X87348603Y-52711666D01*
X87348603Y-52711666D02*
X87530032Y-52711666D01*
X87530032Y-52711666D02*
X87771937Y-52772142D01*
X87771937Y-52772142D02*
X87892889Y-52832619D01*
X87892889Y-52832619D02*
X88013842Y-52953571D01*
X88013842Y-52953571D02*
X88074318Y-53135000D01*
X88074318Y-53135000D02*
X88074318Y-53437381D01*
X86925270Y-52227857D02*
X86864794Y-52167381D01*
X86864794Y-52167381D02*
X86804318Y-52046428D01*
X86804318Y-52046428D02*
X86804318Y-51744047D01*
X86804318Y-51744047D02*
X86864794Y-51623095D01*
X86864794Y-51623095D02*
X86925270Y-51562619D01*
X86925270Y-51562619D02*
X87046222Y-51502142D01*
X87046222Y-51502142D02*
X87167175Y-51502142D01*
X87167175Y-51502142D02*
X87348603Y-51562619D01*
X87348603Y-51562619D02*
X88074318Y-52288333D01*
X88074318Y-52288333D02*
X88074318Y-51502142D01*
D11*
X142238095Y-71954819D02*
X142238095Y-70954819D01*
X142238095Y-71431009D02*
X142809523Y-71431009D01*
X142809523Y-71954819D02*
X142809523Y-70954819D01*
X143809523Y-71954819D02*
X143238095Y-71954819D01*
X143523809Y-71954819D02*
X143523809Y-70954819D01*
X143523809Y-70954819D02*
X143428571Y-71097676D01*
X143428571Y-71097676D02*
X143333333Y-71192914D01*
X143333333Y-71192914D02*
X143238095Y-71240533D01*
X138558333Y-66289580D02*
X138510714Y-66337200D01*
X138510714Y-66337200D02*
X138367857Y-66384819D01*
X138367857Y-66384819D02*
X138272619Y-66384819D01*
X138272619Y-66384819D02*
X138129762Y-66337200D01*
X138129762Y-66337200D02*
X138034524Y-66241961D01*
X138034524Y-66241961D02*
X137986905Y-66146723D01*
X137986905Y-66146723D02*
X137939286Y-65956247D01*
X137939286Y-65956247D02*
X137939286Y-65813390D01*
X137939286Y-65813390D02*
X137986905Y-65622914D01*
X137986905Y-65622914D02*
X138034524Y-65527676D01*
X138034524Y-65527676D02*
X138129762Y-65432438D01*
X138129762Y-65432438D02*
X138272619Y-65384819D01*
X138272619Y-65384819D02*
X138367857Y-65384819D01*
X138367857Y-65384819D02*
X138510714Y-65432438D01*
X138510714Y-65432438D02*
X138558333Y-65480057D01*
X139463095Y-65384819D02*
X138986905Y-65384819D01*
X138986905Y-65384819D02*
X138939286Y-65861009D01*
X138939286Y-65861009D02*
X138986905Y-65813390D01*
X138986905Y-65813390D02*
X139082143Y-65765771D01*
X139082143Y-65765771D02*
X139320238Y-65765771D01*
X139320238Y-65765771D02*
X139415476Y-65813390D01*
X139415476Y-65813390D02*
X139463095Y-65861009D01*
X139463095Y-65861009D02*
X139510714Y-65956247D01*
X139510714Y-65956247D02*
X139510714Y-66194342D01*
X139510714Y-66194342D02*
X139463095Y-66289580D01*
X139463095Y-66289580D02*
X139415476Y-66337200D01*
X139415476Y-66337200D02*
X139320238Y-66384819D01*
X139320238Y-66384819D02*
X139082143Y-66384819D01*
X139082143Y-66384819D02*
X138986905Y-66337200D01*
X138986905Y-66337200D02*
X138939286Y-66289580D01*
D10*
X131260237Y-61574318D02*
X131260237Y-60304318D01*
X132590714Y-61453365D02*
X132530238Y-61513842D01*
X132530238Y-61513842D02*
X132348809Y-61574318D01*
X132348809Y-61574318D02*
X132227857Y-61574318D01*
X132227857Y-61574318D02*
X132046428Y-61513842D01*
X132046428Y-61513842D02*
X131925476Y-61392889D01*
X131925476Y-61392889D02*
X131864999Y-61271937D01*
X131864999Y-61271937D02*
X131804523Y-61030032D01*
X131804523Y-61030032D02*
X131804523Y-60848603D01*
X131804523Y-60848603D02*
X131864999Y-60606699D01*
X131864999Y-60606699D02*
X131925476Y-60485746D01*
X131925476Y-60485746D02*
X132046428Y-60364794D01*
X132046428Y-60364794D02*
X132227857Y-60304318D01*
X132227857Y-60304318D02*
X132348809Y-60304318D01*
X132348809Y-60304318D02*
X132530238Y-60364794D01*
X132530238Y-60364794D02*
X132590714Y-60425270D01*
X133800238Y-61574318D02*
X133074523Y-61574318D01*
X133437380Y-61574318D02*
X133437380Y-60304318D01*
X133437380Y-60304318D02*
X133316428Y-60485746D01*
X133316428Y-60485746D02*
X133195476Y-60606699D01*
X133195476Y-60606699D02*
X133074523Y-60667175D01*
D11*
X133929580Y-52216666D02*
X133977200Y-52264285D01*
X133977200Y-52264285D02*
X134024819Y-52407142D01*
X134024819Y-52407142D02*
X134024819Y-52502380D01*
X134024819Y-52502380D02*
X133977200Y-52645237D01*
X133977200Y-52645237D02*
X133881961Y-52740475D01*
X133881961Y-52740475D02*
X133786723Y-52788094D01*
X133786723Y-52788094D02*
X133596247Y-52835713D01*
X133596247Y-52835713D02*
X133453390Y-52835713D01*
X133453390Y-52835713D02*
X133262914Y-52788094D01*
X133262914Y-52788094D02*
X133167676Y-52740475D01*
X133167676Y-52740475D02*
X133072438Y-52645237D01*
X133072438Y-52645237D02*
X133024819Y-52502380D01*
X133024819Y-52502380D02*
X133024819Y-52407142D01*
X133024819Y-52407142D02*
X133072438Y-52264285D01*
X133072438Y-52264285D02*
X133120057Y-52216666D01*
X133024819Y-51359523D02*
X133024819Y-51549999D01*
X133024819Y-51549999D02*
X133072438Y-51645237D01*
X133072438Y-51645237D02*
X133120057Y-51692856D01*
X133120057Y-51692856D02*
X133262914Y-51788094D01*
X133262914Y-51788094D02*
X133453390Y-51835713D01*
X133453390Y-51835713D02*
X133834342Y-51835713D01*
X133834342Y-51835713D02*
X133929580Y-51788094D01*
X133929580Y-51788094D02*
X133977200Y-51740475D01*
X133977200Y-51740475D02*
X134024819Y-51645237D01*
X134024819Y-51645237D02*
X134024819Y-51454761D01*
X134024819Y-51454761D02*
X133977200Y-51359523D01*
X133977200Y-51359523D02*
X133929580Y-51311904D01*
X133929580Y-51311904D02*
X133834342Y-51264285D01*
X133834342Y-51264285D02*
X133596247Y-51264285D01*
X133596247Y-51264285D02*
X133501009Y-51311904D01*
X133501009Y-51311904D02*
X133453390Y-51359523D01*
X133453390Y-51359523D02*
X133405771Y-51454761D01*
X133405771Y-51454761D02*
X133405771Y-51645237D01*
X133405771Y-51645237D02*
X133453390Y-51740475D01*
X133453390Y-51740475D02*
X133501009Y-51788094D01*
X133501009Y-51788094D02*
X133596247Y-51835713D01*
X146884819Y-60891666D02*
X146408628Y-61224999D01*
X146884819Y-61463094D02*
X145884819Y-61463094D01*
X145884819Y-61463094D02*
X145884819Y-61082142D01*
X145884819Y-61082142D02*
X145932438Y-60986904D01*
X145932438Y-60986904D02*
X145980057Y-60939285D01*
X145980057Y-60939285D02*
X146075295Y-60891666D01*
X146075295Y-60891666D02*
X146218152Y-60891666D01*
X146218152Y-60891666D02*
X146313390Y-60939285D01*
X146313390Y-60939285D02*
X146361009Y-60986904D01*
X146361009Y-60986904D02*
X146408628Y-61082142D01*
X146408628Y-61082142D02*
X146408628Y-61463094D01*
X146884819Y-59939285D02*
X146884819Y-60510713D01*
X146884819Y-60224999D02*
X145884819Y-60224999D01*
X145884819Y-60224999D02*
X146027676Y-60320237D01*
X146027676Y-60320237D02*
X146122914Y-60415475D01*
X146122914Y-60415475D02*
X146170533Y-60510713D01*
X84524819Y-55441666D02*
X84048628Y-55774999D01*
X84524819Y-56013094D02*
X83524819Y-56013094D01*
X83524819Y-56013094D02*
X83524819Y-55632142D01*
X83524819Y-55632142D02*
X83572438Y-55536904D01*
X83572438Y-55536904D02*
X83620057Y-55489285D01*
X83620057Y-55489285D02*
X83715295Y-55441666D01*
X83715295Y-55441666D02*
X83858152Y-55441666D01*
X83858152Y-55441666D02*
X83953390Y-55489285D01*
X83953390Y-55489285D02*
X84001009Y-55536904D01*
X84001009Y-55536904D02*
X84048628Y-55632142D01*
X84048628Y-55632142D02*
X84048628Y-56013094D01*
X83524819Y-55108332D02*
X83524819Y-54489285D01*
X83524819Y-54489285D02*
X83905771Y-54822618D01*
X83905771Y-54822618D02*
X83905771Y-54679761D01*
X83905771Y-54679761D02*
X83953390Y-54584523D01*
X83953390Y-54584523D02*
X84001009Y-54536904D01*
X84001009Y-54536904D02*
X84096247Y-54489285D01*
X84096247Y-54489285D02*
X84334342Y-54489285D01*
X84334342Y-54489285D02*
X84429580Y-54536904D01*
X84429580Y-54536904D02*
X84477200Y-54584523D01*
X84477200Y-54584523D02*
X84524819Y-54679761D01*
X84524819Y-54679761D02*
X84524819Y-54965475D01*
X84524819Y-54965475D02*
X84477200Y-55060713D01*
X84477200Y-55060713D02*
X84429580Y-55108332D01*
X66666666Y-57954819D02*
X66666666Y-58669104D01*
X66666666Y-58669104D02*
X66619047Y-58811961D01*
X66619047Y-58811961D02*
X66523809Y-58907200D01*
X66523809Y-58907200D02*
X66380952Y-58954819D01*
X66380952Y-58954819D02*
X66285714Y-58954819D01*
X67095238Y-58050057D02*
X67142857Y-58002438D01*
X67142857Y-58002438D02*
X67238095Y-57954819D01*
X67238095Y-57954819D02*
X67476190Y-57954819D01*
X67476190Y-57954819D02*
X67571428Y-58002438D01*
X67571428Y-58002438D02*
X67619047Y-58050057D01*
X67619047Y-58050057D02*
X67666666Y-58145295D01*
X67666666Y-58145295D02*
X67666666Y-58240533D01*
X67666666Y-58240533D02*
X67619047Y-58383390D01*
X67619047Y-58383390D02*
X67047619Y-58954819D01*
X67047619Y-58954819D02*
X67666666Y-58954819D01*
D10*
X139260237Y-61574318D02*
X139260237Y-60304318D01*
X140590714Y-61453365D02*
X140530238Y-61513842D01*
X140530238Y-61513842D02*
X140348809Y-61574318D01*
X140348809Y-61574318D02*
X140227857Y-61574318D01*
X140227857Y-61574318D02*
X140046428Y-61513842D01*
X140046428Y-61513842D02*
X139925476Y-61392889D01*
X139925476Y-61392889D02*
X139864999Y-61271937D01*
X139864999Y-61271937D02*
X139804523Y-61030032D01*
X139804523Y-61030032D02*
X139804523Y-60848603D01*
X139804523Y-60848603D02*
X139864999Y-60606699D01*
X139864999Y-60606699D02*
X139925476Y-60485746D01*
X139925476Y-60485746D02*
X140046428Y-60364794D01*
X140046428Y-60364794D02*
X140227857Y-60304318D01*
X140227857Y-60304318D02*
X140348809Y-60304318D01*
X140348809Y-60304318D02*
X140530238Y-60364794D01*
X140530238Y-60364794D02*
X140590714Y-60425270D01*
X141074523Y-60425270D02*
X141134999Y-60364794D01*
X141134999Y-60364794D02*
X141255952Y-60304318D01*
X141255952Y-60304318D02*
X141558333Y-60304318D01*
X141558333Y-60304318D02*
X141679285Y-60364794D01*
X141679285Y-60364794D02*
X141739761Y-60425270D01*
X141739761Y-60425270D02*
X141800238Y-60546222D01*
X141800238Y-60546222D02*
X141800238Y-60667175D01*
X141800238Y-60667175D02*
X141739761Y-60848603D01*
X141739761Y-60848603D02*
X141014047Y-61574318D01*
X141014047Y-61574318D02*
X141800238Y-61574318D01*
D11*
X131178588Y-54308478D02*
X132313847Y-54308478D01*
X132313847Y-54308478D02*
X132447407Y-54241698D01*
X132447407Y-54241698D02*
X132514187Y-54174918D01*
X132514187Y-54174918D02*
X132580966Y-54041358D01*
X132580966Y-54041358D02*
X132580966Y-53774239D01*
X132580966Y-53774239D02*
X132514187Y-53640679D01*
X132514187Y-53640679D02*
X132447407Y-53573899D01*
X132447407Y-53573899D02*
X132313847Y-53507119D01*
X132313847Y-53507119D02*
X131178588Y-53507119D01*
X132580966Y-52104741D02*
X132580966Y-52906100D01*
X132580966Y-52505420D02*
X131178588Y-52505420D01*
X131178588Y-52505420D02*
X131378928Y-52638980D01*
X131378928Y-52638980D02*
X131512488Y-52772540D01*
X131512488Y-52772540D02*
X131579268Y-52906100D01*
X59436666Y-69344819D02*
X59436666Y-70059104D01*
X59436666Y-70059104D02*
X59389047Y-70201961D01*
X59389047Y-70201961D02*
X59293809Y-70297200D01*
X59293809Y-70297200D02*
X59150952Y-70344819D01*
X59150952Y-70344819D02*
X59055714Y-70344819D01*
X59817619Y-69344819D02*
X60436666Y-69344819D01*
X60436666Y-69344819D02*
X60103333Y-69725771D01*
X60103333Y-69725771D02*
X60246190Y-69725771D01*
X60246190Y-69725771D02*
X60341428Y-69773390D01*
X60341428Y-69773390D02*
X60389047Y-69821009D01*
X60389047Y-69821009D02*
X60436666Y-69916247D01*
X60436666Y-69916247D02*
X60436666Y-70154342D01*
X60436666Y-70154342D02*
X60389047Y-70249580D01*
X60389047Y-70249580D02*
X60341428Y-70297200D01*
X60341428Y-70297200D02*
X60246190Y-70344819D01*
X60246190Y-70344819D02*
X59960476Y-70344819D01*
X59960476Y-70344819D02*
X59865238Y-70297200D01*
X59865238Y-70297200D02*
X59817619Y-70249580D01*
X142666666Y-48879819D02*
X142666666Y-49594104D01*
X142666666Y-49594104D02*
X142619047Y-49736961D01*
X142619047Y-49736961D02*
X142523809Y-49832200D01*
X142523809Y-49832200D02*
X142380952Y-49879819D01*
X142380952Y-49879819D02*
X142285714Y-49879819D01*
X143571428Y-49213152D02*
X143571428Y-49879819D01*
X143333333Y-48832200D02*
X143095238Y-49546485D01*
X143095238Y-49546485D02*
X143714285Y-49546485D01*
X50666666Y-57454819D02*
X50666666Y-58169104D01*
X50666666Y-58169104D02*
X50619047Y-58311961D01*
X50619047Y-58311961D02*
X50523809Y-58407200D01*
X50523809Y-58407200D02*
X50380952Y-58454819D01*
X50380952Y-58454819D02*
X50285714Y-58454819D01*
X51666666Y-58454819D02*
X51095238Y-58454819D01*
X51380952Y-58454819D02*
X51380952Y-57454819D01*
X51380952Y-57454819D02*
X51285714Y-57597676D01*
X51285714Y-57597676D02*
X51190476Y-57692914D01*
X51190476Y-57692914D02*
X51095238Y-57740533D01*
X134333333Y-55859580D02*
X134285714Y-55907200D01*
X134285714Y-55907200D02*
X134142857Y-55954819D01*
X134142857Y-55954819D02*
X134047619Y-55954819D01*
X134047619Y-55954819D02*
X133904762Y-55907200D01*
X133904762Y-55907200D02*
X133809524Y-55811961D01*
X133809524Y-55811961D02*
X133761905Y-55716723D01*
X133761905Y-55716723D02*
X133714286Y-55526247D01*
X133714286Y-55526247D02*
X133714286Y-55383390D01*
X133714286Y-55383390D02*
X133761905Y-55192914D01*
X133761905Y-55192914D02*
X133809524Y-55097676D01*
X133809524Y-55097676D02*
X133904762Y-55002438D01*
X133904762Y-55002438D02*
X134047619Y-54954819D01*
X134047619Y-54954819D02*
X134142857Y-54954819D01*
X134142857Y-54954819D02*
X134285714Y-55002438D01*
X134285714Y-55002438D02*
X134333333Y-55050057D01*
X135190476Y-55288152D02*
X135190476Y-55954819D01*
X134952381Y-54907200D02*
X134714286Y-55621485D01*
X134714286Y-55621485D02*
X135333333Y-55621485D01*
X130108333Y-66789580D02*
X130060714Y-66837200D01*
X130060714Y-66837200D02*
X129917857Y-66884819D01*
X129917857Y-66884819D02*
X129822619Y-66884819D01*
X129822619Y-66884819D02*
X129679762Y-66837200D01*
X129679762Y-66837200D02*
X129584524Y-66741961D01*
X129584524Y-66741961D02*
X129536905Y-66646723D01*
X129536905Y-66646723D02*
X129489286Y-66456247D01*
X129489286Y-66456247D02*
X129489286Y-66313390D01*
X129489286Y-66313390D02*
X129536905Y-66122914D01*
X129536905Y-66122914D02*
X129584524Y-66027676D01*
X129584524Y-66027676D02*
X129679762Y-65932438D01*
X129679762Y-65932438D02*
X129822619Y-65884819D01*
X129822619Y-65884819D02*
X129917857Y-65884819D01*
X129917857Y-65884819D02*
X130060714Y-65932438D01*
X130060714Y-65932438D02*
X130108333Y-65980057D01*
X130441667Y-65884819D02*
X131060714Y-65884819D01*
X131060714Y-65884819D02*
X130727381Y-66265771D01*
X130727381Y-66265771D02*
X130870238Y-66265771D01*
X130870238Y-66265771D02*
X130965476Y-66313390D01*
X130965476Y-66313390D02*
X131013095Y-66361009D01*
X131013095Y-66361009D02*
X131060714Y-66456247D01*
X131060714Y-66456247D02*
X131060714Y-66694342D01*
X131060714Y-66694342D02*
X131013095Y-66789580D01*
X131013095Y-66789580D02*
X130965476Y-66837200D01*
X130965476Y-66837200D02*
X130870238Y-66884819D01*
X130870238Y-66884819D02*
X130584524Y-66884819D01*
X130584524Y-66884819D02*
X130489286Y-66837200D01*
X130489286Y-66837200D02*
X130441667Y-66789580D01*
X80666666Y-63954819D02*
X80666666Y-64669104D01*
X80666666Y-64669104D02*
X80619047Y-64811961D01*
X80619047Y-64811961D02*
X80523809Y-64907200D01*
X80523809Y-64907200D02*
X80380952Y-64954819D01*
X80380952Y-64954819D02*
X80285714Y-64954819D01*
X81619047Y-63954819D02*
X81142857Y-63954819D01*
X81142857Y-63954819D02*
X81095238Y-64431009D01*
X81095238Y-64431009D02*
X81142857Y-64383390D01*
X81142857Y-64383390D02*
X81238095Y-64335771D01*
X81238095Y-64335771D02*
X81476190Y-64335771D01*
X81476190Y-64335771D02*
X81571428Y-64383390D01*
X81571428Y-64383390D02*
X81619047Y-64431009D01*
X81619047Y-64431009D02*
X81666666Y-64526247D01*
X81666666Y-64526247D02*
X81666666Y-64764342D01*
X81666666Y-64764342D02*
X81619047Y-64859580D01*
X81619047Y-64859580D02*
X81571428Y-64907200D01*
X81571428Y-64907200D02*
X81476190Y-64954819D01*
X81476190Y-64954819D02*
X81238095Y-64954819D01*
X81238095Y-64954819D02*
X81142857Y-64907200D01*
X81142857Y-64907200D02*
X81095238Y-64859580D01*
X56833333Y-58359580D02*
X56785714Y-58407200D01*
X56785714Y-58407200D02*
X56642857Y-58454819D01*
X56642857Y-58454819D02*
X56547619Y-58454819D01*
X56547619Y-58454819D02*
X56404762Y-58407200D01*
X56404762Y-58407200D02*
X56309524Y-58311961D01*
X56309524Y-58311961D02*
X56261905Y-58216723D01*
X56261905Y-58216723D02*
X56214286Y-58026247D01*
X56214286Y-58026247D02*
X56214286Y-57883390D01*
X56214286Y-57883390D02*
X56261905Y-57692914D01*
X56261905Y-57692914D02*
X56309524Y-57597676D01*
X56309524Y-57597676D02*
X56404762Y-57502438D01*
X56404762Y-57502438D02*
X56547619Y-57454819D01*
X56547619Y-57454819D02*
X56642857Y-57454819D01*
X56642857Y-57454819D02*
X56785714Y-57502438D01*
X56785714Y-57502438D02*
X56833333Y-57550057D01*
X57785714Y-58454819D02*
X57214286Y-58454819D01*
X57500000Y-58454819D02*
X57500000Y-57454819D01*
X57500000Y-57454819D02*
X57404762Y-57597676D01*
X57404762Y-57597676D02*
X57309524Y-57692914D01*
X57309524Y-57692914D02*
X57214286Y-57740533D01*
D12*
X52175000Y-59925000D02*
X52175000Y-62225000D01*
X53825000Y-59925000D02*
X52175000Y-59925000D01*
X53825000Y-62225000D02*
X53825000Y-59925000D01*
D13*
X52490000Y-64865580D02*
X52490000Y-64584420D01*
X53510000Y-64865580D02*
X53510000Y-64584420D01*
X67584420Y-63490000D02*
X67865580Y-63490000D01*
X67584420Y-64510000D02*
X67865580Y-64510000D01*
X70865580Y-57490000D02*
X70584420Y-57490000D01*
X70865580Y-58510000D02*
X70584420Y-58510000D01*
D12*
X84675000Y-50200000D02*
X84675000Y-52500000D01*
X86325000Y-50200000D02*
X84675000Y-50200000D01*
X86325000Y-52500000D02*
X86325000Y-50200000D01*
D13*
X138865580Y-63990000D02*
X138584420Y-63990000D01*
X138865580Y-65010000D02*
X138584420Y-65010000D01*
D12*
X129025000Y-58420000D02*
X130550000Y-58420000D01*
X130900000Y-58550000D02*
X134100000Y-58550000D01*
X130900000Y-63450000D02*
X130900000Y-58550000D01*
X134100000Y-58550000D02*
X134100000Y-63450000D01*
X134100000Y-63450000D02*
X130900000Y-63450000D01*
D13*
X134490000Y-52190580D02*
X134490000Y-51909420D01*
X135510000Y-52190580D02*
X135510000Y-51909420D01*
X144490000Y-60584420D02*
X144490000Y-60865580D01*
X145510000Y-60584420D02*
X145510000Y-60865580D01*
X84990000Y-55415580D02*
X84990000Y-55134420D01*
X86010000Y-55415580D02*
X86010000Y-55134420D01*
X66150000Y-50225000D02*
X66150000Y-51475000D01*
X66440000Y-50515000D02*
X66440000Y-56485000D01*
X66440000Y-56485000D02*
X81560000Y-56485000D01*
X66450000Y-50525000D02*
X66450000Y-51275000D01*
X66450000Y-51275000D02*
X68250000Y-51275000D01*
X66450000Y-52775000D02*
X67200000Y-52775000D01*
X67200000Y-52775000D02*
X67200000Y-55725000D01*
X67200000Y-55725000D02*
X74000000Y-55725000D01*
X67400000Y-50225000D02*
X66150000Y-50225000D01*
X68250000Y-50525000D02*
X66450000Y-50525000D01*
X68250000Y-51275000D02*
X68250000Y-50525000D01*
X69750000Y-50525000D02*
X69750000Y-51275000D01*
X69750000Y-51275000D02*
X78250000Y-51275000D01*
X78250000Y-50525000D02*
X69750000Y-50525000D01*
X78250000Y-51275000D02*
X78250000Y-50525000D01*
X79750000Y-50525000D02*
X79750000Y-51275000D01*
X79750000Y-51275000D02*
X81550000Y-51275000D01*
X80800000Y-52775000D02*
X80800000Y-55725000D01*
X80800000Y-55725000D02*
X74000000Y-55725000D01*
X81550000Y-50525000D02*
X79750000Y-50525000D01*
X81550000Y-51275000D02*
X81550000Y-50525000D01*
X81550000Y-52775000D02*
X80800000Y-52775000D01*
X81560000Y-50515000D02*
X66440000Y-50515000D01*
X81560000Y-56485000D02*
X81560000Y-50515000D01*
D12*
X137050000Y-58420000D02*
X138550000Y-58420000D01*
X138900000Y-58550000D02*
X142100000Y-58550000D01*
X138900000Y-63450000D02*
X138900000Y-58550000D01*
X142100000Y-58550000D02*
X142100000Y-63450000D01*
X142100000Y-63450000D02*
X138900000Y-63450000D01*
D14*
X83015000Y-70390000D02*
X83015000Y-51850000D01*
X133305000Y-70390000D02*
X83015000Y-70390000D01*
D15*
X126140000Y-50960000D02*
G75*
G02*
X125740000Y-50960000I-200000J0D01*
G01*
X125740000Y-50960000D02*
G75*
G02*
X126140000Y-50960000I200000J0D01*
G01*
D13*
X57170000Y-70890000D02*
X58500000Y-70890000D01*
X57170000Y-72220000D02*
X57170000Y-70890000D01*
X57170000Y-73490000D02*
X57170000Y-121810000D01*
X57170000Y-73490000D02*
X59770000Y-73490000D01*
X57170000Y-121810000D02*
X62370000Y-121810000D01*
X59770000Y-70890000D02*
X62370000Y-70890000D01*
X59770000Y-73490000D02*
X59770000Y-70890000D01*
X62370000Y-70890000D02*
X62370000Y-121810000D01*
X136400000Y-50225000D02*
X136400000Y-51475000D01*
X136690000Y-50515000D02*
X136690000Y-56485000D01*
X136690000Y-56485000D02*
X149310000Y-56485000D01*
X136700000Y-50525000D02*
X136700000Y-51275000D01*
X136700000Y-51275000D02*
X138500000Y-51275000D01*
X136700000Y-52775000D02*
X137450000Y-52775000D01*
X137450000Y-52775000D02*
X137450000Y-55725000D01*
X137450000Y-55725000D02*
X143000000Y-55725000D01*
X137650000Y-50225000D02*
X136400000Y-50225000D01*
X138500000Y-50525000D02*
X136700000Y-50525000D01*
X138500000Y-51275000D02*
X138500000Y-50525000D01*
X140000000Y-50525000D02*
X140000000Y-51275000D01*
X140000000Y-51275000D02*
X146000000Y-51275000D01*
X146000000Y-50525000D02*
X140000000Y-50525000D01*
X146000000Y-51275000D02*
X146000000Y-50525000D01*
X147500000Y-50525000D02*
X147500000Y-51275000D01*
X147500000Y-51275000D02*
X149300000Y-51275000D01*
X148550000Y-52775000D02*
X148550000Y-55725000D01*
X148550000Y-55725000D02*
X143000000Y-55725000D01*
X149300000Y-50525000D02*
X147500000Y-50525000D01*
X149300000Y-51275000D02*
X149300000Y-50525000D01*
X149300000Y-52775000D02*
X148550000Y-52775000D01*
X149310000Y-50515000D02*
X136690000Y-50515000D01*
X149310000Y-56485000D02*
X149310000Y-50515000D01*
X50150000Y-50250000D02*
X50150000Y-51500000D01*
X50440000Y-50540000D02*
X50440000Y-56510000D01*
X50440000Y-56510000D02*
X65560000Y-56510000D01*
X50450000Y-50550000D02*
X50450000Y-51300000D01*
X50450000Y-51300000D02*
X52250000Y-51300000D01*
X50450000Y-52800000D02*
X51200000Y-52800000D01*
X51200000Y-52800000D02*
X51200000Y-55750000D01*
X51200000Y-55750000D02*
X58000000Y-55750000D01*
X51400000Y-50250000D02*
X50150000Y-50250000D01*
X52250000Y-50550000D02*
X50450000Y-50550000D01*
X52250000Y-51300000D02*
X52250000Y-50550000D01*
X53750000Y-50550000D02*
X53750000Y-51300000D01*
X53750000Y-51300000D02*
X62250000Y-51300000D01*
X62250000Y-50550000D02*
X53750000Y-50550000D01*
X62250000Y-51300000D02*
X62250000Y-50550000D01*
X63750000Y-50550000D02*
X63750000Y-51300000D01*
X63750000Y-51300000D02*
X65550000Y-51300000D01*
X64800000Y-52800000D02*
X64800000Y-55750000D01*
X64800000Y-55750000D02*
X58000000Y-55750000D01*
X65550000Y-50550000D02*
X63750000Y-50550000D01*
X65550000Y-51300000D02*
X65550000Y-50550000D01*
X65550000Y-52800000D02*
X64800000Y-52800000D01*
X65560000Y-50540000D02*
X50440000Y-50540000D01*
X65560000Y-56510000D02*
X65560000Y-50540000D01*
X134365580Y-56490000D02*
X134084420Y-56490000D01*
X134365580Y-57510000D02*
X134084420Y-57510000D01*
X130415580Y-64490000D02*
X130134420Y-64490000D01*
X130415580Y-65510000D02*
X130134420Y-65510000D01*
X64440000Y-65490000D02*
X64440000Y-71460000D01*
X64440000Y-71460000D02*
X82060000Y-71460000D01*
X64450000Y-69200000D02*
X65200000Y-69200000D01*
X64450000Y-70700000D02*
X64450000Y-71450000D01*
X64450000Y-71450000D02*
X66250000Y-71450000D01*
X65200000Y-66250000D02*
X73250000Y-66250000D01*
X65200000Y-69200000D02*
X65200000Y-66250000D01*
X66250000Y-70700000D02*
X64450000Y-70700000D01*
X66250000Y-71450000D02*
X66250000Y-70700000D01*
X67750000Y-70700000D02*
X67750000Y-71450000D01*
X67750000Y-71450000D02*
X78750000Y-71450000D01*
X78750000Y-70700000D02*
X67750000Y-70700000D01*
X78750000Y-71450000D02*
X78750000Y-70700000D01*
X80250000Y-70700000D02*
X80250000Y-71450000D01*
X80250000Y-71450000D02*
X82050000Y-71450000D01*
X81100000Y-71750000D02*
X82350000Y-71750000D01*
X81300000Y-66250000D02*
X73250000Y-66250000D01*
X81300000Y-69200000D02*
X81300000Y-66250000D01*
X82050000Y-69200000D02*
X81300000Y-69200000D01*
X82050000Y-70700000D02*
X80250000Y-70700000D01*
X82050000Y-71450000D02*
X82050000Y-70700000D01*
X82060000Y-65490000D02*
X64440000Y-65490000D01*
X82060000Y-71460000D02*
X82060000Y-65490000D01*
X82350000Y-71750000D02*
X82350000Y-70500000D01*
X54415580Y-57490000D02*
X54134420Y-57490000D01*
X54415580Y-58510000D02*
X54134420Y-58510000D01*
M02*
