M48
; DRILL file {KiCad 8.0.4} date 2024-08-27T21:56:13+0900
; FORMAT={3:3/ absolute / metric / suppress leading zeros}
; #@! TF.CreationDate,2024-08-27T21:56:13+09:00
; #@! TF.GenerationSoftware,Kicad,Pcbnew,8.0.4
; #@! TF.FileFunction,MixedPlating,1,2
FMAT,2
METRIC,TZ
; #@! TA.AperFunction,Plated,PTH,ViaDrill
T1C0.300
; #@! TA.AperFunction,Plated,PTH,ComponentDrill
T2C0.950
; #@! TA.AperFunction,Plated,PTH,ComponentDrill
T3C1.000
; #@! TA.AperFunction,Plated,PTH,ComponentDrill
T4C1.020
; #@! TA.AperFunction,NonPlated,NPTH,ComponentDrill
T5C3.200
%
G90
G05
T1
X1000Y76000
X1500Y55500
X1500Y2000
X2000Y27000
X3000Y74000
X3500Y78000
X6500Y8500
X8000Y59000
X8500Y6500
X9000Y70000
X9500Y45500
X12000Y68500
X12400Y67400
X12500Y16000
X13000Y66600
X13000Y51500
X13000Y41500
X13000Y33500
X13000Y21000
X14500Y56500
X14500Y27000
X15000Y1500
X17000Y75500
X19000Y74000
X22000Y70500
X28500Y58500
X31000Y59500
X35500Y67000
X36500Y59500
X38500Y78000
X41500Y77165
X44000Y64633
X45076Y77924
X45500Y68000
X46500Y64600
X48000Y77165
X49000Y64000
X52500Y63400
X55500Y63000
X58500Y62600
X60000Y64500
X64500Y67500
X65500Y73000
X68000Y71000
X69500Y74000
X72000Y68000
X73500Y62000
X73500Y58500
X79500Y75500
X79500Y68500
X79500Y59500
X80000Y57500
X83500Y78000
X83500Y72000
X84000Y61500
X85000Y78000
X85000Y66000
X85212Y67365
X85500Y58000
X86500Y78000
X87000Y73500
X87800Y69905
X88000Y68500
X88000Y64500
X90000Y61500
X91000Y68000
X91500Y72500
X93500Y70000
X95500Y78000
X97000Y74500
X98000Y71500
X98000Y68000
X98500Y78000
X98500Y58000
T2
X3000Y76000
X5500Y76000
X8000Y76000
X10500Y76000
X13000Y76000
X17000Y60000
X19000Y76025
X19500Y60000
X21500Y76025
X22000Y60000
X24000Y76025
X24500Y60000
X26500Y76025
X27000Y60000
X29000Y76025
X29500Y60000
X89250Y76025
X91750Y76025
X94250Y76025
X96750Y76025
T3
X8500Y56780
X8500Y54240
X8500Y51700
X8500Y49160
X8500Y46620
X8500Y44080
X8500Y41540
X8500Y39000
X8500Y36460
X8500Y33920
X8500Y31380
X8500Y28840
X8500Y26300
X8500Y23760
X8500Y21220
X8500Y18680
X8500Y16140
X8500Y13600
X8500Y11060
X8500Y8520
X11040Y56780
X11040Y54240
X11040Y51700
X11040Y49160
X11040Y46620
X11040Y44080
X11040Y41540
X11040Y39000
X11040Y36460
X11040Y33920
X11040Y31380
X11040Y28840
X11040Y26300
X11040Y23760
X11040Y21220
X11040Y18680
X11040Y16140
X11040Y13600
X11040Y11060
X11040Y8520
T4
X40380Y75500
X40380Y60260
X42920Y75500
X42920Y60260
X45460Y75500
X45460Y60260
X48000Y75500
X48000Y60260
X50540Y75500
X50540Y60260
X53080Y75500
X53080Y60260
X55620Y75500
X55620Y60260
X58160Y75500
X58160Y60260
X60700Y75500
X60700Y60260
X63240Y75500
X63240Y60260
X65780Y75500
X65780Y60260
X68320Y75500
X68320Y60260
X70860Y75500
X70860Y60260
X73400Y75500
X73400Y60260
X75940Y75500
X75940Y60260
T5
X9850Y61770
X9850Y3770
X95850Y61770
M30
