%TF.GenerationSoftware,KiCad,Pcbnew,8.0.1*%
%TF.CreationDate,2024-06-27T20:22:44+09:00*%
%TF.ProjectId,GPIO_board,4750494f-5f62-46f6-9172-642e6b696361,rev?*%
%TF.SameCoordinates,Original*%
%TF.FileFunction,Copper,L1,Top*%
%TF.FilePolarity,Positive*%
%FSLAX46Y46*%
G04 Gerber Fmt 4.6, Leading zero omitted, Abs format (unit mm)*
G04 Created by KiCad (PCBNEW 8.0.1) date 2024-06-27 20:22:44*
%MOMM*%
%LPD*%
G01*
G04 APERTURE LIST*
G04 Aperture macros list*
%AMRoundRect*
0 Rectangle with rounded corners*
0 $1 Rounding radius*
0 $2 $3 $4 $5 $6 $7 $8 $9 X,Y pos of 4 corners*
0 Add a 4 corners polygon primitive as box body*
4,1,4,$2,$3,$4,$5,$6,$7,$8,$9,$2,$3,0*
0 Add four circle primitives for the rounded corners*
1,1,$1+$1,$2,$3*
1,1,$1+$1,$4,$5*
1,1,$1+$1,$6,$7*
1,1,$1+$1,$8,$9*
0 Add four rect primitives between the rounded corners*
20,1,$1+$1,$2,$3,$4,$5,0*
20,1,$1+$1,$4,$5,$6,$7,0*
20,1,$1+$1,$6,$7,$8,$9,0*
20,1,$1+$1,$8,$9,$2,$3,0*%
G04 Aperture macros list end*
%TA.AperFunction,SMDPad,CuDef*%
%ADD10RoundRect,0.225000X-0.250000X0.225000X-0.250000X-0.225000X0.250000X-0.225000X0.250000X0.225000X0*%
%TD*%
%TA.AperFunction,ComponentPad*%
%ADD11RoundRect,0.250000X-0.600000X-0.725000X0.600000X-0.725000X0.600000X0.725000X-0.600000X0.725000X0*%
%TD*%
%TA.AperFunction,ComponentPad*%
%ADD12O,1.700000X1.950000*%
%TD*%
%TA.AperFunction,SMDPad,CuDef*%
%ADD13RoundRect,0.250000X0.250000X0.475000X-0.250000X0.475000X-0.250000X-0.475000X0.250000X-0.475000X0*%
%TD*%
%TA.AperFunction,SMDPad,CuDef*%
%ADD14R,0.650000X1.550000*%
%TD*%
%TA.AperFunction,ComponentPad*%
%ADD15R,1.700000X1.700000*%
%TD*%
%TA.AperFunction,ComponentPad*%
%ADD16O,1.700000X1.700000*%
%TD*%
%TA.AperFunction,SMDPad,CuDef*%
%ADD17RoundRect,0.225000X0.250000X-0.225000X0.250000X0.225000X-0.250000X0.225000X-0.250000X-0.225000X0*%
%TD*%
%TA.AperFunction,SMDPad,CuDef*%
%ADD18RoundRect,0.250000X-0.262500X-0.450000X0.262500X-0.450000X0.262500X0.450000X-0.262500X0.450000X0*%
%TD*%
%TA.AperFunction,SMDPad,CuDef*%
%ADD19R,0.900000X0.950000*%
%TD*%
%TA.AperFunction,ViaPad*%
%ADD20C,0.600000*%
%TD*%
%TA.AperFunction,Conductor*%
%ADD21C,0.200000*%
%TD*%
%TA.AperFunction,Conductor*%
%ADD22C,0.500000*%
%TD*%
%TA.AperFunction,Conductor*%
%ADD23C,1.500000*%
%TD*%
%TA.AperFunction,Conductor*%
%ADD24C,1.000000*%
%TD*%
G04 APERTURE END LIST*
D10*
%TO.P,C3,1*%
%TO.N,GND*%
X93325000Y-67175000D03*
%TO.P,C3,2*%
%TO.N,+5V*%
X93325000Y-68725000D03*
%TD*%
D11*
%TO.P,J1,1,Pin_1*%
%TO.N,GND*%
X120000000Y-54975000D03*
D12*
%TO.P,J1,2,Pin_2*%
%TO.N,+5V*%
X122500000Y-54975000D03*
%TO.P,J1,3,Pin_3*%
%TO.N,Net-(IC1-AIN)*%
X125000000Y-54975000D03*
%TO.P,J1,4,Pin_4*%
%TO.N,Net-(IC1-BIN)*%
X127500000Y-54975000D03*
%TO.P,J1,5,Pin_5*%
%TO.N,Net-(IC1-CIN)*%
X130000000Y-54975000D03*
%TD*%
D11*
%TO.P,J3,1,Pin_1*%
%TO.N,GND*%
X62500000Y-54500000D03*
D12*
%TO.P,J3,2,Pin_2*%
%TO.N,DIR_RIGHT*%
X65000000Y-54500000D03*
%TO.P,J3,3,Pin_3*%
%TO.N,PWM_RIGHT*%
X67500000Y-54500000D03*
%TO.P,J3,4,Pin_4*%
%TO.N,DIR_LEFT*%
X70000000Y-54500000D03*
%TO.P,J3,5,Pin_5*%
%TO.N,PWM_LEFT*%
X72500000Y-54500000D03*
%TO.P,J3,6,Pin_6*%
%TO.N,+3.3V*%
X75000000Y-54500000D03*
%TD*%
D13*
%TO.P,C5,1*%
%TO.N,+3.3V*%
X74900000Y-61500000D03*
%TO.P,C5,2*%
%TO.N,GND*%
X73000000Y-61500000D03*
%TD*%
%TO.P,C4,1*%
%TO.N,+5V*%
X122000000Y-62000000D03*
%TO.P,C4,2*%
%TO.N,GND*%
X120100000Y-62000000D03*
%TD*%
D14*
%TO.P,IC1,1,VCC*%
%TO.N,+3.3V*%
X90445000Y-63275000D03*
%TO.P,IC1,2,AOUT*%
%TO.N,enc_L_A*%
X89175000Y-63275000D03*
%TO.P,IC1,3,AIN*%
%TO.N,Net-(IC1-AIN)*%
X87905000Y-63275000D03*
%TO.P,IC1,4,BOUT*%
%TO.N,enc_L_B*%
X86635000Y-63275000D03*
%TO.P,IC1,5,BIN*%
%TO.N,Net-(IC1-BIN)*%
X85365000Y-63275000D03*
%TO.P,IC1,6,COUT*%
%TO.N,enc_L_Z*%
X84095000Y-63275000D03*
%TO.P,IC1,7,CIN*%
%TO.N,Net-(IC1-CIN)*%
X82825000Y-63275000D03*
%TO.P,IC1,8,VSS*%
%TO.N,GND*%
X81555000Y-63275000D03*
%TO.P,IC1,9,DIN*%
%TO.N,Net-(IC1-DIN)*%
X81555000Y-68725000D03*
%TO.P,IC1,10,DOUT*%
%TO.N,enc_R_A*%
X82825000Y-68725000D03*
%TO.P,IC1,11,EIN*%
%TO.N,Net-(IC1-EIN)*%
X84095000Y-68725000D03*
%TO.P,IC1,12,EOUT*%
%TO.N,enc_R_B*%
X85365000Y-68725000D03*
%TO.P,IC1,13,MODE*%
%TO.N,GND*%
X86635000Y-68725000D03*
%TO.P,IC1,14,FIN*%
%TO.N,Net-(IC1-FIN)*%
X87905000Y-68725000D03*
%TO.P,IC1,15,FOUT*%
%TO.N,enc_R_Z*%
X89175000Y-68725000D03*
%TO.P,IC1,16,VDD*%
%TO.N,+5V*%
X90445000Y-68725000D03*
%TD*%
D15*
%TO.P,J4,1,Pin_1*%
%TO.N,+3.3V*%
X58500000Y-72000000D03*
D16*
%TO.P,J4,2,Pin_2*%
%TO.N,+5V*%
X61040000Y-72000000D03*
%TO.P,J4,3,Pin_3*%
%TO.N,STATE_LED*%
X58500000Y-74540000D03*
%TO.P,J4,4,Pin_4*%
%TO.N,+5V*%
X61040000Y-74540000D03*
%TO.P,J4,5,Pin_5*%
%TO.N,unconnected-(J4-Pin_5-Pad5)*%
X58500000Y-77080000D03*
%TO.P,J4,6,Pin_6*%
%TO.N,GND*%
X61040000Y-77080000D03*
%TO.P,J4,7,Pin_7*%
%TO.N,unconnected-(J4-Pin_7-Pad7)*%
X58500000Y-79620000D03*
%TO.P,J4,8,Pin_8*%
%TO.N,unconnected-(J4-Pin_8-Pad8)*%
X61040000Y-79620000D03*
%TO.P,J4,9,Pin_9*%
%TO.N,GND*%
X58500000Y-82160000D03*
%TO.P,J4,10,Pin_10*%
%TO.N,unconnected-(J4-Pin_10-Pad10)*%
X61040000Y-82160000D03*
%TO.P,J4,11,Pin_11*%
%TO.N,enc_R_A*%
X58500000Y-84700000D03*
%TO.P,J4,12,Pin_12*%
%TO.N,DIR_LEFT*%
X61040000Y-84700000D03*
%TO.P,J4,13,Pin_13*%
%TO.N,enc_R_B*%
X58500000Y-87240000D03*
%TO.P,J4,14,Pin_14*%
%TO.N,GND*%
X61040000Y-87240000D03*
%TO.P,J4,15,Pin_15*%
%TO.N,enc_R_Z*%
X58500000Y-89780000D03*
%TO.P,J4,16,Pin_16*%
%TO.N,DIR_RIGHT*%
X61040000Y-89780000D03*
%TO.P,J4,17,Pin_17*%
%TO.N,+3.3V*%
X58500000Y-92320000D03*
%TO.P,J4,18,Pin_18*%
%TO.N,unconnected-(J4-Pin_18-Pad18)*%
X61040000Y-92320000D03*
%TO.P,J4,19,Pin_19*%
%TO.N,unconnected-(J4-Pin_19-Pad19)*%
X58500000Y-94860000D03*
%TO.P,J4,20,Pin_20*%
%TO.N,GND*%
X61040000Y-94860000D03*
%TO.P,J4,21,Pin_21*%
%TO.N,unconnected-(J4-Pin_21-Pad21)*%
X58500000Y-97400000D03*
%TO.P,J4,22,Pin_22*%
%TO.N,unconnected-(J4-Pin_22-Pad22)*%
X61040000Y-97400000D03*
%TO.P,J4,23,Pin_23*%
%TO.N,unconnected-(J4-Pin_23-Pad23)*%
X58500000Y-99940000D03*
%TO.P,J4,24,Pin_24*%
%TO.N,unconnected-(J4-Pin_24-Pad24)*%
X61040000Y-99940000D03*
%TO.P,J4,25,Pin_25*%
%TO.N,GND*%
X58500000Y-102480000D03*
%TO.P,J4,26,Pin_26*%
%TO.N,unconnected-(J4-Pin_26-Pad26)*%
X61040000Y-102480000D03*
%TO.P,J4,27,Pin_27*%
%TO.N,unconnected-(J4-Pin_27-Pad27)*%
X58500000Y-105020000D03*
%TO.P,J4,28,Pin_28*%
%TO.N,unconnected-(J4-Pin_28-Pad28)*%
X61040000Y-105020000D03*
%TO.P,J4,29,Pin_29*%
%TO.N,unconnected-(J4-Pin_29-Pad29)*%
X58500000Y-107560000D03*
%TO.P,J4,30,Pin_30*%
%TO.N,GND*%
X61040000Y-107560000D03*
%TO.P,J4,31,Pin_31*%
%TO.N,unconnected-(J4-Pin_31-Pad31)*%
X58500000Y-110100000D03*
%TO.P,J4,32,Pin_32*%
%TO.N,PWM_LEFT*%
X61040000Y-110100000D03*
%TO.P,J4,33,Pin_33*%
%TO.N,PWM_RIGHT*%
X58500000Y-112640000D03*
%TO.P,J4,34,Pin_34*%
%TO.N,GND*%
X61040000Y-112640000D03*
%TO.P,J4,35,Pin_35*%
%TO.N,unconnected-(J4-Pin_35-Pad35)*%
X58500000Y-115180000D03*
%TO.P,J4,36,Pin_36*%
%TO.N,enc_L_A*%
X61040000Y-115180000D03*
%TO.P,J4,37,Pin_37*%
%TO.N,unconnected-(J4-Pin_37-Pad37)*%
X58500000Y-117720000D03*
%TO.P,J4,38,Pin_38*%
%TO.N,enc_L_B*%
X61040000Y-117720000D03*
%TO.P,J4,39,Pin_39*%
%TO.N,GND*%
X58500000Y-120260000D03*
%TO.P,J4,40,Pin_40*%
%TO.N,enc_L_Z*%
X61040000Y-120260000D03*
%TD*%
D13*
%TO.P,C1,1*%
%TO.N,+5V*%
X102500000Y-62500000D03*
%TO.P,C1,2*%
%TO.N,GND*%
X100600000Y-62500000D03*
%TD*%
D17*
%TO.P,C2,1*%
%TO.N,GND*%
X93325000Y-64775000D03*
%TO.P,C2,2*%
%TO.N,+3.3V*%
X93325000Y-63225000D03*
%TD*%
D18*
%TO.P,R1,1*%
%TO.N,STATE_LED*%
X82500000Y-55500000D03*
%TO.P,R1,2*%
%TO.N,Net-(D1-A)*%
X84325000Y-55500000D03*
%TD*%
D11*
%TO.P,J2,1,Pin_1*%
%TO.N,GND*%
X100500000Y-55000000D03*
D12*
%TO.P,J2,2,Pin_2*%
%TO.N,+5V*%
X103000000Y-55000000D03*
%TO.P,J2,3,Pin_3*%
%TO.N,Net-(IC1-DIN)*%
X105500000Y-55000000D03*
%TO.P,J2,4,Pin_4*%
%TO.N,Net-(IC1-EIN)*%
X108000000Y-55000000D03*
%TO.P,J2,5,Pin_5*%
%TO.N,Net-(IC1-FIN)*%
X110500000Y-55000000D03*
%TD*%
D19*
%TO.P,D1,1,K*%
%TO.N,GND*%
X82500000Y-52000000D03*
%TO.P,D1,2,A*%
%TO.N,Net-(D1-A)*%
X84000000Y-52000000D03*
%TD*%
D20*
%TO.N,GND*%
X55500000Y-89000000D03*
X56500000Y-107000000D03*
X56000000Y-95000000D03*
%TO.N,enc_R_A*%
X56025000Y-83975000D03*
%TO.N,enc_R_B*%
X55950000Y-85468856D03*
%TO.N,enc_R_Z*%
X55500000Y-86780000D03*
%TO.N,STATE_LED*%
X74500000Y-63500000D03*
%TO.N,Net-(IC1-FIN)*%
X87905000Y-68725000D03*
%TO.N,Net-(IC1-EIN)*%
X84095000Y-68725000D03*
%TO.N,Net-(IC1-DIN)*%
X81555000Y-68725000D03*
%TO.N,DIR_RIGHT*%
X51000000Y-82000000D03*
%TO.N,DIR_LEFT*%
X52400000Y-81919101D03*
%TO.N,PWM_LEFT*%
X52500000Y-107500000D03*
%TO.N,PWM_RIGHT*%
X51500000Y-109000000D03*
%TO.N,GND*%
X52000000Y-57500000D03*
X97000000Y-61000000D03*
X109000000Y-65500000D03*
X92500000Y-57000000D03*
X94500000Y-71000000D03*
X64500000Y-84000000D03*
X116500000Y-63000000D03*
X129500000Y-68000000D03*
X56000000Y-120500000D03*
X79000000Y-56000000D03*
X125500000Y-62500000D03*
X87500000Y-53500000D03*
X121000000Y-71500000D03*
X148000000Y-52000000D03*
X86500000Y-70000000D03*
X65000000Y-111500000D03*
X64500000Y-80500000D03*
X53500000Y-128000000D03*
X122500000Y-66000000D03*
X64000000Y-95000000D03*
X65500000Y-52000000D03*
X133000000Y-60500000D03*
X64500000Y-68500000D03*
X136000000Y-52000000D03*
X71500000Y-59500000D03*
X52500000Y-52000000D03*
X115500000Y-56000000D03*
X71500000Y-63000000D03*
X137000000Y-66000000D03*
X118000000Y-60500000D03*
X89500000Y-56500000D03*
X81000000Y-60500000D03*
X140500000Y-60500000D03*
X148000000Y-56500000D03*
X99000000Y-57000000D03*
X53500000Y-118500000D03*
X89000000Y-66000000D03*
X107500000Y-61000000D03*
X77500000Y-69500000D03*
X65000000Y-63500000D03*
%TO.N,+3.3V*%
X92000000Y-61500000D03*
X75000000Y-61500000D03*
%TD*%
D21*
%TO.N,GND*%
X57050000Y-108950000D02*
X56500000Y-109500000D01*
X59550000Y-108950000D02*
X57050000Y-108950000D01*
X60940000Y-107560000D02*
X59550000Y-108950000D01*
X61040000Y-107560000D02*
X60940000Y-107560000D01*
X59890000Y-103870000D02*
X58500000Y-102480000D01*
X59890000Y-106410000D02*
X59890000Y-103870000D01*
X61040000Y-107560000D02*
X59890000Y-106410000D01*
X59890000Y-101090000D02*
X58500000Y-102480000D01*
X59890000Y-96010000D02*
X59890000Y-101090000D01*
X61040000Y-94860000D02*
X59890000Y-96010000D01*
X57290000Y-93710000D02*
X56000000Y-95000000D01*
X59890000Y-93710000D02*
X57290000Y-93710000D01*
X61040000Y-94860000D02*
X59890000Y-93710000D01*
%TO.N,enc_R_A*%
X82825000Y-68275000D02*
X82825000Y-68725000D01*
X57500000Y-63000000D02*
X62500000Y-63000000D01*
X82050000Y-67500000D02*
X82825000Y-68275000D01*
X56000000Y-64500000D02*
X57500000Y-63000000D01*
X56000000Y-83950000D02*
X56000000Y-64500000D01*
X56050000Y-84000000D02*
X56000000Y-83950000D01*
X62500000Y-63000000D02*
X67000000Y-67500000D01*
X67000000Y-67500000D02*
X82050000Y-67500000D01*
D22*
%TO.N,+3.3V*%
X57200000Y-91020000D02*
X57200000Y-73300000D01*
X57200000Y-73300000D02*
X58500000Y-72000000D01*
X58500000Y-92320000D02*
X57200000Y-91020000D01*
D21*
%TO.N,enc_R_B*%
X85365000Y-68275000D02*
X85365000Y-68725000D01*
X62665686Y-62600000D02*
X67165686Y-67100000D01*
X67165686Y-67100000D02*
X84190000Y-67100000D01*
X57334315Y-62600000D02*
X62665686Y-62600000D01*
X84190000Y-67100000D02*
X85365000Y-68275000D01*
X55400000Y-64534315D02*
X57334315Y-62600000D01*
X55400000Y-84918856D02*
X55400000Y-64534315D01*
X55950000Y-85468856D02*
X55400000Y-84918856D01*
%TO.N,enc_R_Z*%
X62831372Y-62200000D02*
X67331371Y-66700000D01*
X67331371Y-66700000D02*
X87600000Y-66700000D01*
X57168629Y-62200000D02*
X62831372Y-62200000D01*
X55000000Y-64368629D02*
X57168629Y-62200000D01*
X87600000Y-66700000D02*
X89175000Y-68275000D01*
X55000000Y-86280000D02*
X55000000Y-64368629D01*
X55500000Y-86780000D02*
X55000000Y-86280000D01*
X89175000Y-68275000D02*
X89175000Y-68725000D01*
%TO.N,STATE_LED*%
X82500000Y-55500000D02*
X74500000Y-63500000D01*
%TO.N,PWM_RIGHT*%
X65000000Y-57000000D02*
X67500000Y-54500000D01*
X55628678Y-57000000D02*
X65000000Y-57000000D01*
X52000000Y-60628678D02*
X55628678Y-57000000D01*
X51800000Y-81670572D02*
X52000000Y-81470572D01*
X52000000Y-81470572D02*
X52000000Y-60628678D01*
X51800000Y-82167630D02*
X51800000Y-81670572D01*
X52000000Y-82367630D02*
X51800000Y-82167630D01*
X51900000Y-107251471D02*
X52000000Y-107151471D01*
X52000000Y-107151471D02*
X52000000Y-82367630D01*
X52000000Y-107848529D02*
X51900000Y-107748529D01*
X52000000Y-108500000D02*
X52000000Y-107848529D01*
X51900000Y-107748529D02*
X51900000Y-107251471D01*
X51500000Y-109000000D02*
X52000000Y-108500000D01*
%TO.N,DIR_LEFT*%
X56000000Y-58000000D02*
X66500000Y-58000000D01*
X52500000Y-61500000D02*
X56000000Y-58000000D01*
X52500000Y-81819101D02*
X52500000Y-61500000D01*
X52400000Y-81919101D02*
X52500000Y-81819101D01*
X66500000Y-58000000D02*
X70000000Y-54500000D01*
%TO.N,PWM_LEFT*%
X56212992Y-59100000D02*
X67900000Y-59100000D01*
X67900000Y-59100000D02*
X72500000Y-54500000D01*
X53000000Y-107000000D02*
X53000000Y-62312992D01*
X53000000Y-62312992D02*
X56212992Y-59100000D01*
X52500000Y-107500000D02*
X53000000Y-107000000D01*
%TO.N,GND*%
X59650000Y-78470000D02*
X61040000Y-77080000D01*
X58500000Y-82160000D02*
X59650000Y-81010000D01*
X59413654Y-82160000D02*
X60563654Y-83310000D01*
D23*
X61040000Y-87240000D02*
X62242081Y-87240000D01*
X62242081Y-107560000D02*
X61040000Y-107560000D01*
X59437919Y-122400000D02*
X58500000Y-121462081D01*
X56980000Y-102480000D02*
X56500000Y-102000000D01*
X62242081Y-94860000D02*
X63000000Y-95617919D01*
X58500000Y-121462081D02*
X58500000Y-120260000D01*
X62242081Y-87240000D02*
X62840000Y-87837919D01*
D22*
X67500000Y-66000000D02*
X65000000Y-63500000D01*
D21*
X58500000Y-82160000D02*
X59890000Y-80770000D01*
D23*
X62242081Y-112640000D02*
X62840000Y-113237919D01*
X62240000Y-94860000D02*
X61040000Y-94860000D01*
D24*
X86635000Y-69865000D02*
X86500000Y-70000000D01*
D21*
X62530000Y-83310000D02*
X62840000Y-83000000D01*
X59650000Y-81010000D02*
X59650000Y-78470000D01*
D23*
X62840000Y-83000000D02*
X62840000Y-85445585D01*
X58500000Y-102480000D02*
X56980000Y-102480000D01*
X61040000Y-112640000D02*
X62242081Y-112640000D01*
X61045585Y-87240000D02*
X61040000Y-87240000D01*
D21*
X59890000Y-80770000D02*
X62570000Y-80770000D01*
D23*
X61040000Y-77080000D02*
X61080000Y-77080000D01*
X61080000Y-77080000D02*
X62840000Y-78840000D01*
D21*
X58500000Y-82160000D02*
X59413654Y-82160000D01*
X62570000Y-80770000D02*
X62840000Y-80500000D01*
D23*
X62840000Y-87837919D02*
X62840000Y-94260000D01*
X61445585Y-122400000D02*
X59437919Y-122400000D01*
X63000000Y-106802081D02*
X62242081Y-107560000D01*
D21*
X60563654Y-83310000D02*
X62530000Y-83310000D01*
D23*
X62840000Y-85445585D02*
X61045585Y-87240000D01*
X62840000Y-113237919D02*
X62840000Y-121005585D01*
D22*
X88000000Y-66000000D02*
X74000000Y-66000000D01*
D23*
X62840000Y-78840000D02*
X62840000Y-80500000D01*
X63000000Y-95617919D02*
X63000000Y-106802081D01*
D22*
X74000000Y-66000000D02*
X67500000Y-66000000D01*
D23*
X62840000Y-121005585D02*
X61445585Y-122400000D01*
X62840000Y-80500000D02*
X62840000Y-83000000D01*
D24*
X86635000Y-68725000D02*
X86635000Y-69865000D01*
D23*
X61040000Y-94860000D02*
X62242081Y-94860000D01*
X62840000Y-94260000D02*
X62240000Y-94860000D01*
D24*
%TO.N,+5V*%
X102500000Y-63500000D02*
X102500000Y-62500000D01*
X97275000Y-68725000D02*
X102500000Y-63500000D01*
X102500000Y-62500000D02*
X102500000Y-55500000D01*
X61540000Y-71500000D02*
X90550000Y-71500000D01*
X93325000Y-68725000D02*
X97275000Y-68725000D01*
X93325000Y-68725000D02*
X116000000Y-68725000D01*
X61040000Y-72000000D02*
X61540000Y-71500000D01*
X116000000Y-68725000D02*
X122000000Y-62725000D01*
X122000000Y-55500000D02*
X122500000Y-55000000D01*
X122000000Y-62000000D02*
X122000000Y-55500000D01*
X122000000Y-62725000D02*
X122000000Y-62000000D01*
X61040000Y-74540000D02*
X61040000Y-72000000D01*
X102500000Y-55500000D02*
X103000000Y-55000000D01*
X90445000Y-68725000D02*
X93325000Y-68725000D01*
X90550000Y-71500000D02*
X93325000Y-68725000D01*
%TO.N,+3.3V*%
X93275000Y-63275000D02*
X93325000Y-63225000D01*
X93325000Y-62825000D02*
X92000000Y-61500000D01*
X90445000Y-63275000D02*
X93275000Y-63275000D01*
X93325000Y-63225000D02*
X93325000Y-62825000D01*
X75000000Y-55000000D02*
X75000000Y-61500000D01*
X75000000Y-54500000D02*
X75000000Y-55000000D01*
D21*
%TO.N,Net-(IC1-CIN)*%
X126000000Y-51000000D02*
X93860000Y-51000000D01*
X82825000Y-62035000D02*
X82825000Y-63275000D01*
X130000000Y-55000000D02*
X126000000Y-51000000D01*
X93860000Y-51000000D02*
X82825000Y-62035000D01*
%TO.N,Net-(IC1-DIN)*%
X81555000Y-68055000D02*
X81500000Y-68000000D01*
X81555000Y-68725000D02*
X81555000Y-68055000D01*
%TO.N,Net-(IC1-BIN)*%
X127500000Y-55000000D02*
X124000000Y-51500000D01*
X124000000Y-51500000D02*
X96690000Y-51500000D01*
X96690000Y-51500000D02*
X85365000Y-62825000D01*
X85365000Y-62825000D02*
X85365000Y-63275000D01*
%TO.N,enc_L_B*%
X56834314Y-60600000D02*
X54100000Y-63334315D01*
X57350000Y-115656346D02*
X58263654Y-116570000D01*
X58263654Y-116570000D02*
X59890000Y-116570000D01*
X54100000Y-63334315D02*
X54100000Y-110665686D01*
X85460000Y-64900000D02*
X67965686Y-64900000D01*
X63665685Y-60600000D02*
X56834314Y-60600000D01*
X54100000Y-110665686D02*
X57350000Y-113915686D01*
X67965686Y-64900000D02*
X63665685Y-60600000D01*
X86635000Y-63725000D02*
X85460000Y-64900000D01*
X59890000Y-116570000D02*
X61040000Y-117720000D01*
X57350000Y-113915686D02*
X57350000Y-115656346D01*
X86635000Y-63275000D02*
X86635000Y-63725000D01*
%TO.N,Net-(IC1-AIN)*%
X87905000Y-62825000D02*
X98830000Y-51900000D01*
X122000000Y-52000000D02*
X125000000Y-55000000D01*
X122000000Y-51900000D02*
X122000000Y-52000000D01*
X87905000Y-63275000D02*
X87905000Y-62825000D01*
X98830000Y-51900000D02*
X122000000Y-51900000D01*
%TO.N,enc_L_A*%
X59890000Y-114030000D02*
X61040000Y-115180000D01*
X57000000Y-61000000D02*
X54500000Y-63500000D01*
X87600000Y-65300000D02*
X67800000Y-65300000D01*
X89175000Y-63725000D02*
X87600000Y-65300000D01*
X54500000Y-63500000D02*
X54500000Y-110500000D01*
X89175000Y-63275000D02*
X89175000Y-63725000D01*
X54500000Y-110500000D02*
X58030000Y-114030000D01*
X63500000Y-61000000D02*
X57000000Y-61000000D01*
X58030000Y-114030000D02*
X59890000Y-114030000D01*
X67800000Y-65300000D02*
X63500000Y-61000000D01*
%TO.N,enc_L_Z*%
X68131372Y-64500000D02*
X63831370Y-60200000D01*
X58023654Y-118870000D02*
X59650000Y-118870000D01*
X63831370Y-60200000D02*
X56668628Y-60200000D01*
X56950000Y-114081372D02*
X56950000Y-117796346D01*
X53700000Y-110831372D02*
X56950000Y-114081372D01*
X84095000Y-63275000D02*
X84095000Y-63725000D01*
X56668628Y-60200000D02*
X53700000Y-63168630D01*
X56950000Y-117796346D02*
X58023654Y-118870000D01*
X83320000Y-64500000D02*
X68131372Y-64500000D01*
X53700000Y-63168630D02*
X53700000Y-110831372D01*
X59650000Y-118870000D02*
X61040000Y-120260000D01*
X84095000Y-63725000D02*
X83320000Y-64500000D01*
%TO.N,DIR_RIGHT*%
X65000000Y-54500000D02*
X62900000Y-56600000D01*
X51000000Y-61000000D02*
X51000000Y-61500000D01*
X62900000Y-56600000D02*
X55400000Y-56600000D01*
X51000000Y-61500000D02*
X51000000Y-82000000D01*
X55400000Y-56600000D02*
X51000000Y-61000000D01*
%TO.N,Net-(D1-A)*%
X84000000Y-55175000D02*
X84325000Y-55500000D01*
X84000000Y-52000000D02*
X84000000Y-55175000D01*
%TD*%
%TA.AperFunction,Conductor*%
%TO.N,GND*%
G36*
X66442539Y-72520185D02*
G01*
X66488294Y-72572989D01*
X66499500Y-72624500D01*
X66499500Y-128375500D01*
X66479815Y-128442539D01*
X66427011Y-128488294D01*
X66375500Y-128499500D01*
X50624500Y-128499500D01*
X50557461Y-128479815D01*
X50511706Y-128427011D01*
X50500500Y-128375500D01*
X50500500Y-125351288D01*
X57999500Y-125351288D01*
X58031161Y-125591785D01*
X58093947Y-125826104D01*
X58186773Y-126050205D01*
X58186776Y-126050212D01*
X58308064Y-126260289D01*
X58308066Y-126260292D01*
X58308067Y-126260293D01*
X58455733Y-126452736D01*
X58455739Y-126452743D01*
X58627256Y-126624260D01*
X58627262Y-126624265D01*
X58819711Y-126771936D01*
X59029788Y-126893224D01*
X59253900Y-126986054D01*
X59488211Y-127048838D01*
X59668586Y-127072584D01*
X59728711Y-127080500D01*
X59728712Y-127080500D01*
X59971289Y-127080500D01*
X60019388Y-127074167D01*
X60211789Y-127048838D01*
X60446100Y-126986054D01*
X60670212Y-126893224D01*
X60880289Y-126771936D01*
X61072738Y-126624265D01*
X61244265Y-126452738D01*
X61391936Y-126260289D01*
X61513224Y-126050212D01*
X61606054Y-125826100D01*
X61668838Y-125591789D01*
X61700500Y-125351288D01*
X61700500Y-125108712D01*
X61668838Y-124868211D01*
X61606054Y-124633900D01*
X61513224Y-124409788D01*
X61391936Y-124199711D01*
X61244265Y-124007262D01*
X61244260Y-124007256D01*
X61072743Y-123835739D01*
X61072736Y-123835733D01*
X60880293Y-123688067D01*
X60880292Y-123688066D01*
X60880289Y-123688064D01*
X60670212Y-123566776D01*
X60670205Y-123566773D01*
X60446104Y-123473947D01*
X60211785Y-123411161D01*
X59971289Y-123379500D01*
X59971288Y-123379500D01*
X59728712Y-123379500D01*
X59728711Y-123379500D01*
X59488214Y-123411161D01*
X59253895Y-123473947D01*
X59029794Y-123566773D01*
X59029785Y-123566777D01*
X58819706Y-123688067D01*
X58627263Y-123835733D01*
X58627256Y-123835739D01*
X58455739Y-124007256D01*
X58455733Y-124007263D01*
X58308067Y-124199706D01*
X58186777Y-124409785D01*
X58186773Y-124409794D01*
X58093947Y-124633895D01*
X58031161Y-124868214D01*
X57999500Y-125108711D01*
X57999500Y-125351288D01*
X50500500Y-125351288D01*
X50500500Y-109297114D01*
X50520185Y-109230075D01*
X50572989Y-109184320D01*
X50642147Y-109174376D01*
X50705703Y-109203401D01*
X50741542Y-109256160D01*
X50774210Y-109349521D01*
X50819858Y-109422169D01*
X50870184Y-109502262D01*
X50997738Y-109629816D01*
X51150478Y-109725789D01*
X51320745Y-109785368D01*
X51320750Y-109785369D01*
X51499996Y-109805565D01*
X51500000Y-109805565D01*
X51500004Y-109805565D01*
X51679249Y-109785369D01*
X51679252Y-109785368D01*
X51679255Y-109785368D01*
X51849522Y-109725789D01*
X52002262Y-109629816D01*
X52129816Y-109502262D01*
X52225789Y-109349522D01*
X52285368Y-109179255D01*
X52295161Y-109092330D01*
X52322226Y-109027920D01*
X52330700Y-109018534D01*
X52480520Y-108868716D01*
X52559577Y-108731784D01*
X52600501Y-108579057D01*
X52600501Y-108420942D01*
X52600501Y-108413347D01*
X52600500Y-108413329D01*
X52600500Y-108400908D01*
X52620185Y-108333869D01*
X52672989Y-108288114D01*
X52683536Y-108283869D01*
X52849522Y-108225789D01*
X52909527Y-108188084D01*
X52976763Y-108169084D01*
X53043599Y-108189451D01*
X53088813Y-108242718D01*
X53099500Y-108293078D01*
X53099500Y-110744702D01*
X53099499Y-110744720D01*
X53099499Y-110910426D01*
X53099498Y-110910426D01*
X53099499Y-110910429D01*
X53140423Y-111063157D01*
X53161983Y-111100500D01*
X53219477Y-111200084D01*
X53219481Y-111200089D01*
X53338349Y-111318957D01*
X53338355Y-111318962D01*
X56313181Y-114293788D01*
X56346666Y-114355111D01*
X56349500Y-114381469D01*
X56349500Y-117709676D01*
X56349499Y-117709694D01*
X56349499Y-117875400D01*
X56349498Y-117875400D01*
X56390423Y-118028131D01*
X56419358Y-118078246D01*
X56419359Y-118078250D01*
X56419360Y-118078250D01*
X56469479Y-118165060D01*
X56469481Y-118165063D01*
X56588349Y-118283931D01*
X56588355Y-118283936D01*
X57489934Y-119185515D01*
X57523419Y-119246838D01*
X57518435Y-119316530D01*
X57489936Y-119360876D01*
X57461886Y-119388926D01*
X57326400Y-119582420D01*
X57326399Y-119582422D01*
X57226570Y-119796507D01*
X57226567Y-119796513D01*
X57169364Y-120009999D01*
X57169364Y-120010000D01*
X58066988Y-120010000D01*
X58034075Y-120067007D01*
X58000000Y-120194174D01*
X58000000Y-120325826D01*
X58034075Y-120452993D01*
X58066988Y-120510000D01*
X57169364Y-120510000D01*
X57226567Y-120723486D01*
X57226570Y-120723492D01*
X57326399Y-120937578D01*
X57461894Y-121131082D01*
X57628917Y-121298105D01*
X57822421Y-121433600D01*
X58036507Y-121533429D01*
X58036516Y-121533433D01*
X58250000Y-121590634D01*
X58250000Y-120693012D01*
X58307007Y-120725925D01*
X58434174Y-120760000D01*
X58565826Y-120760000D01*
X58692993Y-120725925D01*
X58750000Y-120693012D01*
X58750000Y-121590633D01*
X58963483Y-121533433D01*
X58963492Y-121533429D01*
X59177578Y-121433600D01*
X59371082Y-121298105D01*
X59538105Y-121131082D01*
X59668119Y-120945405D01*
X59722696Y-120901781D01*
X59792195Y-120894588D01*
X59854549Y-120926110D01*
X59871269Y-120945405D01*
X60001505Y-121131401D01*
X60168599Y-121298495D01*
X60265384Y-121366265D01*
X60362165Y-121434032D01*
X60362167Y-121434033D01*
X60362170Y-121434035D01*
X60576337Y-121533903D01*
X60804592Y-121595063D01*
X60992918Y-121611539D01*
X61039999Y-121615659D01*
X61040000Y-121615659D01*
X61040001Y-121615659D01*
X61079234Y-121612226D01*
X61275408Y-121595063D01*
X61503663Y-121533903D01*
X61717830Y-121434035D01*
X61911401Y-121298495D01*
X62078495Y-121131401D01*
X62214035Y-120937830D01*
X62313903Y-120723663D01*
X62375063Y-120495408D01*
X62395659Y-120260000D01*
X62375063Y-120024592D01*
X62313903Y-119796337D01*
X62214035Y-119582171D01*
X62135844Y-119470501D01*
X62078494Y-119388597D01*
X61911402Y-119221506D01*
X61911396Y-119221501D01*
X61725842Y-119091575D01*
X61682217Y-119036998D01*
X61675023Y-118967500D01*
X61706546Y-118905145D01*
X61725842Y-118888425D01*
X61748026Y-118872891D01*
X61911401Y-118758495D01*
X62078495Y-118591401D01*
X62214035Y-118397830D01*
X62313903Y-118183663D01*
X62375063Y-117955408D01*
X62395659Y-117720000D01*
X62395421Y-117717285D01*
X62375063Y-117484596D01*
X62375063Y-117484592D01*
X62313903Y-117256337D01*
X62214035Y-117042171D01*
X62078495Y-116848599D01*
X62078494Y-116848597D01*
X61911402Y-116681506D01*
X61911396Y-116681501D01*
X61725842Y-116551575D01*
X61682217Y-116496998D01*
X61675023Y-116427500D01*
X61706546Y-116365145D01*
X61725842Y-116348425D01*
X61748026Y-116332891D01*
X61911401Y-116218495D01*
X62078495Y-116051401D01*
X62214035Y-115857830D01*
X62313903Y-115643663D01*
X62375063Y-115415408D01*
X62395659Y-115180000D01*
X62375063Y-114944592D01*
X62313903Y-114716337D01*
X62214035Y-114502171D01*
X62078495Y-114308599D01*
X62078494Y-114308597D01*
X61911402Y-114141506D01*
X61911401Y-114141505D01*
X61725405Y-114011269D01*
X61681781Y-113956692D01*
X61674588Y-113887193D01*
X61706110Y-113824839D01*
X61725405Y-113808119D01*
X61911082Y-113678105D01*
X62078105Y-113511082D01*
X62213600Y-113317578D01*
X62313429Y-113103492D01*
X62313432Y-113103486D01*
X62370636Y-112890000D01*
X61473012Y-112890000D01*
X61505925Y-112832993D01*
X61540000Y-112705826D01*
X61540000Y-112574174D01*
X61505925Y-112447007D01*
X61473012Y-112390000D01*
X62370636Y-112390000D01*
X62370635Y-112389999D01*
X62313432Y-112176513D01*
X62313429Y-112176507D01*
X62213600Y-111962422D01*
X62213599Y-111962420D01*
X62078113Y-111768926D01*
X62078108Y-111768920D01*
X61911078Y-111601890D01*
X61725405Y-111471879D01*
X61681780Y-111417302D01*
X61674588Y-111347804D01*
X61706110Y-111285449D01*
X61725406Y-111268730D01*
X61725842Y-111268425D01*
X61911401Y-111138495D01*
X62078495Y-110971401D01*
X62214035Y-110777830D01*
X62313903Y-110563663D01*
X62375063Y-110335408D01*
X62395659Y-110100000D01*
X62375063Y-109864592D01*
X62313903Y-109636337D01*
X62214035Y-109422171D01*
X62208425Y-109414158D01*
X62078494Y-109228597D01*
X61911402Y-109061506D01*
X61911401Y-109061505D01*
X61725405Y-108931269D01*
X61681781Y-108876692D01*
X61674588Y-108807193D01*
X61706110Y-108744839D01*
X61725405Y-108728119D01*
X61911082Y-108598105D01*
X62078105Y-108431082D01*
X62213600Y-108237578D01*
X62313429Y-108023492D01*
X62313432Y-108023486D01*
X62370636Y-107810000D01*
X61473012Y-107810000D01*
X61505925Y-107752993D01*
X61540000Y-107625826D01*
X61540000Y-107494174D01*
X61505925Y-107367007D01*
X61473012Y-107310000D01*
X62370636Y-107310000D01*
X62370635Y-107309999D01*
X62313432Y-107096513D01*
X62313429Y-107096507D01*
X62213600Y-106882422D01*
X62213599Y-106882420D01*
X62078113Y-106688926D01*
X62078108Y-106688920D01*
X61911078Y-106521890D01*
X61725405Y-106391879D01*
X61681780Y-106337302D01*
X61674588Y-106267804D01*
X61706110Y-106205449D01*
X61725406Y-106188730D01*
X61725842Y-106188425D01*
X61911401Y-106058495D01*
X62078495Y-105891401D01*
X62214035Y-105697830D01*
X62313903Y-105483663D01*
X62375063Y-105255408D01*
X62395659Y-105020000D01*
X62375063Y-104784592D01*
X62313903Y-104556337D01*
X62214035Y-104342171D01*
X62208425Y-104334158D01*
X62078494Y-104148597D01*
X61911402Y-103981506D01*
X61911396Y-103981501D01*
X61725842Y-103851575D01*
X61682217Y-103796998D01*
X61675023Y-103727500D01*
X61706546Y-103665145D01*
X61725842Y-103648425D01*
X61748026Y-103632891D01*
X61911401Y-103518495D01*
X62078495Y-103351401D01*
X62214035Y-103157830D01*
X62313903Y-102943663D01*
X62375063Y-102715408D01*
X62395659Y-102480000D01*
X62375063Y-102244592D01*
X62313903Y-102016337D01*
X62214035Y-101802171D01*
X62208731Y-101794595D01*
X62078494Y-101608597D01*
X61911402Y-101441506D01*
X61911396Y-101441501D01*
X61725842Y-101311575D01*
X61682217Y-101256998D01*
X61675023Y-101187500D01*
X61706546Y-101125145D01*
X61725842Y-101108425D01*
X61748026Y-101092891D01*
X61911401Y-100978495D01*
X62078495Y-100811401D01*
X62214035Y-100617830D01*
X62313903Y-100403663D01*
X62375063Y-100175408D01*
X62395659Y-99940000D01*
X62375063Y-99704592D01*
X62313903Y-99476337D01*
X62214035Y-99262171D01*
X62208425Y-99254158D01*
X62078494Y-99068597D01*
X61911402Y-98901506D01*
X61911396Y-98901501D01*
X61725842Y-98771575D01*
X61682217Y-98716998D01*
X61675023Y-98647500D01*
X61706546Y-98585145D01*
X61725842Y-98568425D01*
X61748026Y-98552891D01*
X61911401Y-98438495D01*
X62078495Y-98271401D01*
X62214035Y-98077830D01*
X62313903Y-97863663D01*
X62375063Y-97635408D01*
X62395659Y-97400000D01*
X62375063Y-97164592D01*
X62313903Y-96936337D01*
X62214035Y-96722171D01*
X62208425Y-96714158D01*
X62078494Y-96528597D01*
X61911402Y-96361506D01*
X61911401Y-96361505D01*
X61725405Y-96231269D01*
X61681781Y-96176692D01*
X61674588Y-96107193D01*
X61706110Y-96044839D01*
X61725405Y-96028119D01*
X61911082Y-95898105D01*
X62078105Y-95731082D01*
X62213600Y-95537578D01*
X62313429Y-95323492D01*
X62313432Y-95323486D01*
X62370636Y-95110000D01*
X61473012Y-95110000D01*
X61505925Y-95052993D01*
X61540000Y-94925826D01*
X61540000Y-94794174D01*
X61505925Y-94667007D01*
X61473012Y-94610000D01*
X62370636Y-94610000D01*
X62370635Y-94609999D01*
X62313432Y-94396513D01*
X62313429Y-94396507D01*
X62213600Y-94182422D01*
X62213599Y-94182420D01*
X62078113Y-93988926D01*
X62078108Y-93988920D01*
X61911078Y-93821890D01*
X61725405Y-93691879D01*
X61681780Y-93637302D01*
X61674588Y-93567804D01*
X61706110Y-93505449D01*
X61725406Y-93488730D01*
X61725842Y-93488425D01*
X61911401Y-93358495D01*
X62078495Y-93191401D01*
X62214035Y-92997830D01*
X62313903Y-92783663D01*
X62375063Y-92555408D01*
X62395659Y-92320000D01*
X62375063Y-92084592D01*
X62313903Y-91856337D01*
X62214035Y-91642171D01*
X62208425Y-91634158D01*
X62078494Y-91448597D01*
X61911402Y-91281506D01*
X61911396Y-91281501D01*
X61725842Y-91151575D01*
X61682217Y-91096998D01*
X61675023Y-91027500D01*
X61706546Y-90965145D01*
X61725842Y-90948425D01*
X61748026Y-90932891D01*
X61911401Y-90818495D01*
X62078495Y-90651401D01*
X62214035Y-90457830D01*
X62313903Y-90243663D01*
X62375063Y-90015408D01*
X62395659Y-89780000D01*
X62375063Y-89544592D01*
X62313903Y-89316337D01*
X62214035Y-89102171D01*
X62208425Y-89094158D01*
X62078494Y-88908597D01*
X61911402Y-88741506D01*
X61911401Y-88741505D01*
X61725405Y-88611269D01*
X61681781Y-88556692D01*
X61674588Y-88487193D01*
X61706110Y-88424839D01*
X61725405Y-88408119D01*
X61911082Y-88278105D01*
X62078105Y-88111082D01*
X62213600Y-87917578D01*
X62313429Y-87703492D01*
X62313432Y-87703486D01*
X62370636Y-87490000D01*
X61473012Y-87490000D01*
X61505925Y-87432993D01*
X61540000Y-87305826D01*
X61540000Y-87174174D01*
X61505925Y-87047007D01*
X61473012Y-86990000D01*
X62370636Y-86990000D01*
X62370635Y-86989999D01*
X62313432Y-86776513D01*
X62313429Y-86776507D01*
X62213600Y-86562422D01*
X62213599Y-86562420D01*
X62078113Y-86368926D01*
X62078108Y-86368920D01*
X61911078Y-86201890D01*
X61725405Y-86071879D01*
X61681780Y-86017302D01*
X61674588Y-85947804D01*
X61706110Y-85885449D01*
X61725406Y-85868730D01*
X61725842Y-85868425D01*
X61911401Y-85738495D01*
X62078495Y-85571401D01*
X62214035Y-85377830D01*
X62313903Y-85163663D01*
X62375063Y-84935408D01*
X62395659Y-84700000D01*
X62375063Y-84464592D01*
X62313903Y-84236337D01*
X62214035Y-84022171D01*
X62208425Y-84014158D01*
X62078494Y-83828597D01*
X61911402Y-83661506D01*
X61911396Y-83661501D01*
X61725842Y-83531575D01*
X61682217Y-83476998D01*
X61675023Y-83407500D01*
X61706546Y-83345145D01*
X61725842Y-83328425D01*
X61748026Y-83312891D01*
X61911401Y-83198495D01*
X62078495Y-83031401D01*
X62214035Y-82837830D01*
X62313903Y-82623663D01*
X62375063Y-82395408D01*
X62395659Y-82160000D01*
X62375063Y-81924592D01*
X62313903Y-81696337D01*
X62214035Y-81482171D01*
X62208731Y-81474595D01*
X62078494Y-81288597D01*
X61911402Y-81121506D01*
X61911396Y-81121501D01*
X61725842Y-80991575D01*
X61682217Y-80936998D01*
X61675023Y-80867500D01*
X61706546Y-80805145D01*
X61725842Y-80788425D01*
X61748026Y-80772891D01*
X61911401Y-80658495D01*
X62078495Y-80491401D01*
X62214035Y-80297830D01*
X62313903Y-80083663D01*
X62375063Y-79855408D01*
X62395659Y-79620000D01*
X62375063Y-79384592D01*
X62313903Y-79156337D01*
X62214035Y-78942171D01*
X62208425Y-78934158D01*
X62078494Y-78748597D01*
X61911402Y-78581506D01*
X61911401Y-78581505D01*
X61725405Y-78451269D01*
X61681781Y-78396692D01*
X61674588Y-78327193D01*
X61706110Y-78264839D01*
X61725405Y-78248119D01*
X61911082Y-78118105D01*
X62078105Y-77951082D01*
X62213600Y-77757578D01*
X62313429Y-77543492D01*
X62313432Y-77543486D01*
X62370636Y-77330000D01*
X61473012Y-77330000D01*
X61505925Y-77272993D01*
X61540000Y-77145826D01*
X61540000Y-77014174D01*
X61505925Y-76887007D01*
X61473012Y-76830000D01*
X62370636Y-76830000D01*
X62370635Y-76829999D01*
X62313432Y-76616513D01*
X62313429Y-76616507D01*
X62213600Y-76402422D01*
X62213599Y-76402420D01*
X62078113Y-76208926D01*
X62078108Y-76208920D01*
X61911078Y-76041890D01*
X61725405Y-75911879D01*
X61681780Y-75857302D01*
X61674588Y-75787804D01*
X61706110Y-75725449D01*
X61725406Y-75708730D01*
X61725842Y-75708425D01*
X61911401Y-75578495D01*
X62078495Y-75411401D01*
X62214035Y-75217830D01*
X62313903Y-75003663D01*
X62375063Y-74775408D01*
X62395659Y-74540000D01*
X62375063Y-74304592D01*
X62313903Y-74076337D01*
X62214035Y-73862171D01*
X62208425Y-73854158D01*
X62078494Y-73668597D01*
X62076819Y-73666922D01*
X62076315Y-73666000D01*
X62075014Y-73664449D01*
X62075325Y-73664187D01*
X62043334Y-73605599D01*
X62040500Y-73579241D01*
X62040500Y-72960758D01*
X62060185Y-72893719D01*
X62076819Y-72873077D01*
X62078495Y-72871401D01*
X62214035Y-72677830D01*
X62262924Y-72572989D01*
X62263341Y-72572095D01*
X62309514Y-72519656D01*
X62375723Y-72500500D01*
X66375500Y-72500500D01*
X66442539Y-72520185D01*
G37*
%TD.AperFunction*%
%TA.AperFunction,Conductor*%
G36*
X56405743Y-87109366D02*
G01*
X56444115Y-87167756D01*
X56449500Y-87203902D01*
X56449500Y-91093918D01*
X56449500Y-91093920D01*
X56449499Y-91093920D01*
X56478340Y-91238907D01*
X56478343Y-91238917D01*
X56534914Y-91375492D01*
X56567812Y-91424727D01*
X56567813Y-91424730D01*
X56617046Y-91498414D01*
X56617052Y-91498421D01*
X57127130Y-92008497D01*
X57160615Y-92069820D01*
X57162977Y-92106985D01*
X57144341Y-92319997D01*
X57144341Y-92320000D01*
X57164936Y-92555403D01*
X57164938Y-92555413D01*
X57226094Y-92783655D01*
X57226096Y-92783659D01*
X57226097Y-92783663D01*
X57230000Y-92792032D01*
X57325965Y-92997830D01*
X57325967Y-92997834D01*
X57434281Y-93152521D01*
X57461501Y-93191396D01*
X57461506Y-93191402D01*
X57628597Y-93358493D01*
X57628603Y-93358498D01*
X57814158Y-93488425D01*
X57857783Y-93543002D01*
X57864977Y-93612500D01*
X57833454Y-93674855D01*
X57814158Y-93691575D01*
X57628597Y-93821505D01*
X57461505Y-93988597D01*
X57325965Y-94182169D01*
X57325964Y-94182171D01*
X57226098Y-94396335D01*
X57226094Y-94396344D01*
X57164938Y-94624586D01*
X57164936Y-94624596D01*
X57144341Y-94859999D01*
X57144341Y-94860000D01*
X57164936Y-95095403D01*
X57164938Y-95095413D01*
X57226094Y-95323655D01*
X57226096Y-95323659D01*
X57226097Y-95323663D01*
X57309155Y-95501781D01*
X57325965Y-95537830D01*
X57325967Y-95537834D01*
X57434281Y-95692521D01*
X57461501Y-95731396D01*
X57461506Y-95731402D01*
X57628597Y-95898493D01*
X57628603Y-95898498D01*
X57814158Y-96028425D01*
X57857783Y-96083002D01*
X57864977Y-96152500D01*
X57833454Y-96214855D01*
X57814158Y-96231575D01*
X57628597Y-96361505D01*
X57461505Y-96528597D01*
X57325965Y-96722169D01*
X57325964Y-96722171D01*
X57226098Y-96936335D01*
X57226094Y-96936344D01*
X57164938Y-97164586D01*
X57164936Y-97164596D01*
X57144341Y-97399999D01*
X57144341Y-97400000D01*
X57164936Y-97635403D01*
X57164938Y-97635413D01*
X57226094Y-97863655D01*
X57226096Y-97863659D01*
X57226097Y-97863663D01*
X57230000Y-97872032D01*
X57325965Y-98077830D01*
X57325967Y-98077834D01*
X57434281Y-98232521D01*
X57461501Y-98271396D01*
X57461506Y-98271402D01*
X57628597Y-98438493D01*
X57628603Y-98438498D01*
X57814158Y-98568425D01*
X57857783Y-98623002D01*
X57864977Y-98692500D01*
X57833454Y-98754855D01*
X57814158Y-98771575D01*
X57628597Y-98901505D01*
X57461505Y-99068597D01*
X57325965Y-99262169D01*
X57325964Y-99262171D01*
X57226098Y-99476335D01*
X57226094Y-99476344D01*
X57164938Y-99704586D01*
X57164936Y-99704596D01*
X57144341Y-99939999D01*
X57144341Y-99940000D01*
X57164936Y-100175403D01*
X57164938Y-100175413D01*
X57226094Y-100403655D01*
X57226096Y-100403659D01*
X57226097Y-100403663D01*
X57230000Y-100412032D01*
X57325965Y-100617830D01*
X57325967Y-100617834D01*
X57434281Y-100772521D01*
X57461501Y-100811396D01*
X57461506Y-100811402D01*
X57628597Y-100978493D01*
X57628603Y-100978498D01*
X57814594Y-101108730D01*
X57858219Y-101163307D01*
X57865413Y-101232805D01*
X57833890Y-101295160D01*
X57814595Y-101311880D01*
X57628922Y-101441890D01*
X57628920Y-101441891D01*
X57461891Y-101608920D01*
X57461886Y-101608926D01*
X57326400Y-101802420D01*
X57326399Y-101802422D01*
X57226570Y-102016507D01*
X57226567Y-102016513D01*
X57169364Y-102229999D01*
X57169364Y-102230000D01*
X58066988Y-102230000D01*
X58034075Y-102287007D01*
X58000000Y-102414174D01*
X58000000Y-102545826D01*
X58034075Y-102672993D01*
X58066988Y-102730000D01*
X57169364Y-102730000D01*
X57226567Y-102943486D01*
X57226570Y-102943492D01*
X57326399Y-103157578D01*
X57461894Y-103351082D01*
X57628917Y-103518105D01*
X57814595Y-103648119D01*
X57858219Y-103702696D01*
X57865412Y-103772195D01*
X57833890Y-103834549D01*
X57814595Y-103851269D01*
X57628594Y-103981508D01*
X57461505Y-104148597D01*
X57325965Y-104342169D01*
X57325964Y-104342171D01*
X57226098Y-104556335D01*
X57226094Y-104556344D01*
X57164938Y-104784586D01*
X57164936Y-104784596D01*
X57144341Y-105019999D01*
X57144341Y-105020000D01*
X57164936Y-105255403D01*
X57164938Y-105255413D01*
X57226094Y-105483655D01*
X57226096Y-105483659D01*
X57226097Y-105483663D01*
X57230000Y-105492032D01*
X57325965Y-105697830D01*
X57325967Y-105697834D01*
X57434281Y-105852521D01*
X57461501Y-105891396D01*
X57461506Y-105891402D01*
X57628597Y-106058493D01*
X57628603Y-106058498D01*
X57814158Y-106188425D01*
X57857783Y-106243002D01*
X57864977Y-106312500D01*
X57833454Y-106374855D01*
X57814158Y-106391575D01*
X57628597Y-106521505D01*
X57461505Y-106688597D01*
X57325965Y-106882169D01*
X57325964Y-106882171D01*
X57226098Y-107096335D01*
X57226094Y-107096344D01*
X57164938Y-107324586D01*
X57164936Y-107324596D01*
X57144341Y-107559999D01*
X57144341Y-107560000D01*
X57164936Y-107795403D01*
X57164938Y-107795413D01*
X57226094Y-108023655D01*
X57226096Y-108023659D01*
X57226097Y-108023663D01*
X57309155Y-108201781D01*
X57325965Y-108237830D01*
X57325967Y-108237834D01*
X57359251Y-108285368D01*
X57461501Y-108431396D01*
X57461506Y-108431402D01*
X57628597Y-108598493D01*
X57628603Y-108598498D01*
X57814158Y-108728425D01*
X57857783Y-108783002D01*
X57864977Y-108852500D01*
X57833454Y-108914855D01*
X57814158Y-108931575D01*
X57628597Y-109061505D01*
X57461505Y-109228597D01*
X57325965Y-109422169D01*
X57325964Y-109422171D01*
X57226098Y-109636335D01*
X57226094Y-109636344D01*
X57164938Y-109864586D01*
X57164936Y-109864596D01*
X57144341Y-110099999D01*
X57144341Y-110100000D01*
X57164936Y-110335403D01*
X57164938Y-110335413D01*
X57226094Y-110563655D01*
X57226096Y-110563659D01*
X57226097Y-110563663D01*
X57230000Y-110572032D01*
X57325965Y-110777830D01*
X57325967Y-110777834D01*
X57418810Y-110910426D01*
X57461501Y-110971396D01*
X57461506Y-110971402D01*
X57628597Y-111138493D01*
X57628603Y-111138498D01*
X57814158Y-111268425D01*
X57857783Y-111323002D01*
X57864977Y-111392500D01*
X57833454Y-111454855D01*
X57814158Y-111471575D01*
X57628597Y-111601505D01*
X57461505Y-111768597D01*
X57325965Y-111962169D01*
X57325964Y-111962171D01*
X57237168Y-112152594D01*
X57190995Y-112205033D01*
X57123802Y-112224185D01*
X57056921Y-112203969D01*
X57037105Y-112187870D01*
X55136819Y-110287584D01*
X55103334Y-110226261D01*
X55100500Y-110199903D01*
X55100500Y-87663062D01*
X55120185Y-87596023D01*
X55172989Y-87550268D01*
X55242147Y-87540324D01*
X55265448Y-87546018D01*
X55320745Y-87565368D01*
X55320748Y-87565368D01*
X55320750Y-87565369D01*
X55499996Y-87585565D01*
X55500000Y-87585565D01*
X55500004Y-87585565D01*
X55679249Y-87565369D01*
X55679252Y-87565368D01*
X55679255Y-87565368D01*
X55849522Y-87505789D01*
X56002262Y-87409816D01*
X56129816Y-87282262D01*
X56220506Y-87137930D01*
X56272841Y-87091639D01*
X56341895Y-87080991D01*
X56405743Y-87109366D01*
G37*
%TD.AperFunction*%
%TA.AperFunction,Conductor*%
G36*
X59855160Y-108226110D02*
G01*
X59871879Y-108245405D01*
X60001890Y-108431078D01*
X60168917Y-108598105D01*
X60354595Y-108728119D01*
X60398219Y-108782696D01*
X60405412Y-108852195D01*
X60373890Y-108914549D01*
X60354595Y-108931269D01*
X60168594Y-109061508D01*
X60001505Y-109228597D01*
X59871575Y-109414158D01*
X59816998Y-109457783D01*
X59747500Y-109464977D01*
X59685145Y-109433454D01*
X59668425Y-109414158D01*
X59538494Y-109228597D01*
X59371402Y-109061506D01*
X59371396Y-109061501D01*
X59185842Y-108931575D01*
X59142217Y-108876998D01*
X59135023Y-108807500D01*
X59166546Y-108745145D01*
X59185842Y-108728425D01*
X59222317Y-108702885D01*
X59371401Y-108598495D01*
X59538495Y-108431401D01*
X59668730Y-108245405D01*
X59723307Y-108201781D01*
X59792805Y-108194587D01*
X59855160Y-108226110D01*
G37*
%TD.AperFunction*%
%TA.AperFunction,Conductor*%
G36*
X59854855Y-105686546D02*
G01*
X59871575Y-105705842D01*
X60001501Y-105891396D01*
X60001506Y-105891402D01*
X60168597Y-106058493D01*
X60168603Y-106058498D01*
X60354594Y-106188730D01*
X60398219Y-106243307D01*
X60405413Y-106312805D01*
X60373890Y-106375160D01*
X60354595Y-106391880D01*
X60168922Y-106521890D01*
X60168920Y-106521891D01*
X60001891Y-106688920D01*
X60001890Y-106688922D01*
X59871880Y-106874595D01*
X59817303Y-106918219D01*
X59747804Y-106925412D01*
X59685450Y-106893890D01*
X59668730Y-106874594D01*
X59538494Y-106688597D01*
X59371402Y-106521506D01*
X59371396Y-106521501D01*
X59185842Y-106391575D01*
X59142217Y-106336998D01*
X59135023Y-106267500D01*
X59166546Y-106205145D01*
X59185842Y-106188425D01*
X59208026Y-106172891D01*
X59371401Y-106058495D01*
X59538495Y-105891401D01*
X59668425Y-105705842D01*
X59723002Y-105662217D01*
X59792500Y-105655023D01*
X59854855Y-105686546D01*
G37*
%TD.AperFunction*%
%TA.AperFunction,Conductor*%
G36*
X59854549Y-103146110D02*
G01*
X59871269Y-103165405D01*
X60001505Y-103351401D01*
X60001506Y-103351402D01*
X60168597Y-103518493D01*
X60168603Y-103518498D01*
X60354158Y-103648425D01*
X60397783Y-103703002D01*
X60404977Y-103772500D01*
X60373454Y-103834855D01*
X60354158Y-103851575D01*
X60168597Y-103981505D01*
X60001505Y-104148597D01*
X59871575Y-104334158D01*
X59816998Y-104377783D01*
X59747500Y-104384977D01*
X59685145Y-104353454D01*
X59668425Y-104334158D01*
X59538494Y-104148597D01*
X59371402Y-103981506D01*
X59371401Y-103981505D01*
X59185405Y-103851269D01*
X59141781Y-103796692D01*
X59134588Y-103727193D01*
X59166110Y-103664839D01*
X59185405Y-103648119D01*
X59371082Y-103518105D01*
X59538105Y-103351082D01*
X59668119Y-103165405D01*
X59722696Y-103121781D01*
X59792195Y-103114588D01*
X59854549Y-103146110D01*
G37*
%TD.AperFunction*%
%TA.AperFunction,Conductor*%
G36*
X59854855Y-100606546D02*
G01*
X59871575Y-100625842D01*
X60001501Y-100811396D01*
X60001506Y-100811402D01*
X60168597Y-100978493D01*
X60168603Y-100978498D01*
X60354158Y-101108425D01*
X60397783Y-101163002D01*
X60404977Y-101232500D01*
X60373454Y-101294855D01*
X60354158Y-101311575D01*
X60168597Y-101441505D01*
X60001508Y-101608594D01*
X59871269Y-101794595D01*
X59816692Y-101838219D01*
X59747193Y-101845412D01*
X59684839Y-101813890D01*
X59668119Y-101794594D01*
X59538113Y-101608926D01*
X59538108Y-101608920D01*
X59371078Y-101441890D01*
X59185405Y-101311879D01*
X59141780Y-101257302D01*
X59134588Y-101187804D01*
X59166110Y-101125449D01*
X59185406Y-101108730D01*
X59185842Y-101108425D01*
X59371401Y-100978495D01*
X59538495Y-100811401D01*
X59668425Y-100625842D01*
X59723002Y-100582217D01*
X59792500Y-100575023D01*
X59854855Y-100606546D01*
G37*
%TD.AperFunction*%
%TA.AperFunction,Conductor*%
G36*
X59854855Y-98066546D02*
G01*
X59871575Y-98085842D01*
X60001501Y-98271396D01*
X60001506Y-98271402D01*
X60168597Y-98438493D01*
X60168603Y-98438498D01*
X60354158Y-98568425D01*
X60397783Y-98623002D01*
X60404977Y-98692500D01*
X60373454Y-98754855D01*
X60354158Y-98771575D01*
X60168597Y-98901505D01*
X60001505Y-99068597D01*
X59871575Y-99254158D01*
X59816998Y-99297783D01*
X59747500Y-99304977D01*
X59685145Y-99273454D01*
X59668425Y-99254158D01*
X59538494Y-99068597D01*
X59371402Y-98901506D01*
X59371396Y-98901501D01*
X59185842Y-98771575D01*
X59142217Y-98716998D01*
X59135023Y-98647500D01*
X59166546Y-98585145D01*
X59185842Y-98568425D01*
X59208026Y-98552891D01*
X59371401Y-98438495D01*
X59538495Y-98271401D01*
X59668425Y-98085842D01*
X59723002Y-98042217D01*
X59792500Y-98035023D01*
X59854855Y-98066546D01*
G37*
%TD.AperFunction*%
%TA.AperFunction,Conductor*%
G36*
X59855160Y-95526110D02*
G01*
X59871879Y-95545405D01*
X60001890Y-95731078D01*
X60168917Y-95898105D01*
X60354595Y-96028119D01*
X60398219Y-96082696D01*
X60405412Y-96152195D01*
X60373890Y-96214549D01*
X60354595Y-96231269D01*
X60168594Y-96361508D01*
X60001505Y-96528597D01*
X59871575Y-96714158D01*
X59816998Y-96757783D01*
X59747500Y-96764977D01*
X59685145Y-96733454D01*
X59668425Y-96714158D01*
X59538494Y-96528597D01*
X59371402Y-96361506D01*
X59371396Y-96361501D01*
X59185842Y-96231575D01*
X59142217Y-96176998D01*
X59135023Y-96107500D01*
X59166546Y-96045145D01*
X59185842Y-96028425D01*
X59208026Y-96012891D01*
X59371401Y-95898495D01*
X59538495Y-95731401D01*
X59668730Y-95545405D01*
X59723307Y-95501781D01*
X59792805Y-95494587D01*
X59855160Y-95526110D01*
G37*
%TD.AperFunction*%
%TA.AperFunction,Conductor*%
G36*
X59854855Y-92986546D02*
G01*
X59871575Y-93005842D01*
X60001501Y-93191396D01*
X60001506Y-93191402D01*
X60168597Y-93358493D01*
X60168603Y-93358498D01*
X60354594Y-93488730D01*
X60398219Y-93543307D01*
X60405413Y-93612805D01*
X60373890Y-93675160D01*
X60354595Y-93691880D01*
X60168922Y-93821890D01*
X60168920Y-93821891D01*
X60001891Y-93988920D01*
X60001890Y-93988922D01*
X59871880Y-94174595D01*
X59817303Y-94218219D01*
X59747804Y-94225412D01*
X59685450Y-94193890D01*
X59668730Y-94174594D01*
X59538494Y-93988597D01*
X59371402Y-93821506D01*
X59371396Y-93821501D01*
X59185842Y-93691575D01*
X59142217Y-93636998D01*
X59135023Y-93567500D01*
X59166546Y-93505145D01*
X59185842Y-93488425D01*
X59208026Y-93472891D01*
X59371401Y-93358495D01*
X59538495Y-93191401D01*
X59668425Y-93005842D01*
X59723002Y-92962217D01*
X59792500Y-92955023D01*
X59854855Y-92986546D01*
G37*
%TD.AperFunction*%
%TA.AperFunction,Conductor*%
G36*
X59854855Y-80286546D02*
G01*
X59871575Y-80305842D01*
X60001501Y-80491396D01*
X60001506Y-80491402D01*
X60168597Y-80658493D01*
X60168603Y-80658498D01*
X60354158Y-80788425D01*
X60397783Y-80843002D01*
X60404977Y-80912500D01*
X60373454Y-80974855D01*
X60354158Y-80991575D01*
X60168597Y-81121505D01*
X60001508Y-81288594D01*
X59871269Y-81474595D01*
X59816692Y-81518219D01*
X59747193Y-81525412D01*
X59684839Y-81493890D01*
X59668119Y-81474594D01*
X59538113Y-81288926D01*
X59538108Y-81288920D01*
X59371078Y-81121890D01*
X59185405Y-80991879D01*
X59141780Y-80937302D01*
X59134588Y-80867804D01*
X59166110Y-80805449D01*
X59185406Y-80788730D01*
X59185842Y-80788425D01*
X59371401Y-80658495D01*
X59538495Y-80491401D01*
X59668425Y-80305842D01*
X59723002Y-80262217D01*
X59792500Y-80255023D01*
X59854855Y-80286546D01*
G37*
%TD.AperFunction*%
%TA.AperFunction,Conductor*%
G36*
X59855160Y-77746110D02*
G01*
X59871879Y-77765405D01*
X60001890Y-77951078D01*
X60168917Y-78118105D01*
X60354595Y-78248119D01*
X60398219Y-78302696D01*
X60405412Y-78372195D01*
X60373890Y-78434549D01*
X60354595Y-78451269D01*
X60168594Y-78581508D01*
X60001505Y-78748597D01*
X59871575Y-78934158D01*
X59816998Y-78977783D01*
X59747500Y-78984977D01*
X59685145Y-78953454D01*
X59668425Y-78934158D01*
X59538494Y-78748597D01*
X59371402Y-78581506D01*
X59371396Y-78581501D01*
X59185842Y-78451575D01*
X59142217Y-78396998D01*
X59135023Y-78327500D01*
X59166546Y-78265145D01*
X59185842Y-78248425D01*
X59208026Y-78232891D01*
X59371401Y-78118495D01*
X59538495Y-77951401D01*
X59668730Y-77765405D01*
X59723307Y-77721781D01*
X59792805Y-77714587D01*
X59855160Y-77746110D01*
G37*
%TD.AperFunction*%
%TA.AperFunction,Conductor*%
G36*
X62266942Y-63620185D02*
G01*
X62287584Y-63636819D01*
X66515139Y-67864374D01*
X66515149Y-67864385D01*
X66519479Y-67868715D01*
X66519480Y-67868716D01*
X66631284Y-67980520D01*
X66718095Y-68030639D01*
X66718097Y-68030641D01*
X66751983Y-68050205D01*
X66768215Y-68059577D01*
X66920943Y-68100501D01*
X66920946Y-68100501D01*
X67086653Y-68100501D01*
X67086669Y-68100500D01*
X80605500Y-68100500D01*
X80672539Y-68120185D01*
X80718294Y-68172989D01*
X80729500Y-68224500D01*
X80729500Y-69547870D01*
X80729501Y-69547876D01*
X80735908Y-69607483D01*
X80786202Y-69742328D01*
X80786206Y-69742335D01*
X80872452Y-69857544D01*
X80872455Y-69857547D01*
X80987664Y-69943793D01*
X80987671Y-69943797D01*
X81032618Y-69960561D01*
X81122517Y-69994091D01*
X81182127Y-70000500D01*
X81927872Y-70000499D01*
X81987483Y-69994091D01*
X81988807Y-69993597D01*
X82122329Y-69943797D01*
X82130112Y-69939547D01*
X82131865Y-69942757D01*
X82180999Y-69924361D01*
X82249291Y-69939127D01*
X82250263Y-69939752D01*
X82257670Y-69943797D01*
X82332155Y-69971577D01*
X82392517Y-69994091D01*
X82452127Y-70000500D01*
X83197872Y-70000499D01*
X83257483Y-69994091D01*
X83258807Y-69993597D01*
X83392329Y-69943797D01*
X83400112Y-69939547D01*
X83401865Y-69942757D01*
X83450999Y-69924361D01*
X83519291Y-69939127D01*
X83520263Y-69939752D01*
X83527670Y-69943797D01*
X83602155Y-69971577D01*
X83662517Y-69994091D01*
X83722127Y-70000500D01*
X84467872Y-70000499D01*
X84527483Y-69994091D01*
X84528807Y-69993597D01*
X84662329Y-69943797D01*
X84670112Y-69939547D01*
X84671865Y-69942757D01*
X84720999Y-69924361D01*
X84789291Y-69939127D01*
X84790263Y-69939752D01*
X84797670Y-69943797D01*
X84872155Y-69971577D01*
X84932517Y-69994091D01*
X84992127Y-70000500D01*
X85737872Y-70000499D01*
X85797483Y-69994091D01*
X85932331Y-69943796D01*
X85932335Y-69943792D01*
X85940118Y-69939544D01*
X85941799Y-69942622D01*
X85991436Y-69924048D01*
X86059725Y-69938825D01*
X86060332Y-69939215D01*
X86067904Y-69943349D01*
X86202623Y-69993597D01*
X86202627Y-69993598D01*
X86262155Y-69999999D01*
X86262172Y-70000000D01*
X86385000Y-70000000D01*
X86385000Y-68599000D01*
X86404685Y-68531961D01*
X86457489Y-68486206D01*
X86509000Y-68475000D01*
X86761000Y-68475000D01*
X86828039Y-68494685D01*
X86873794Y-68547489D01*
X86885000Y-68599000D01*
X86885000Y-70000000D01*
X87007828Y-70000000D01*
X87007844Y-69999999D01*
X87067372Y-69993598D01*
X87067376Y-69993597D01*
X87202093Y-69943350D01*
X87209876Y-69939101D01*
X87211665Y-69942378D01*
X87260485Y-69924056D01*
X87328788Y-69938769D01*
X87330644Y-69939960D01*
X87337670Y-69943797D01*
X87412155Y-69971577D01*
X87472517Y-69994091D01*
X87532127Y-70000500D01*
X88277872Y-70000499D01*
X88337483Y-69994091D01*
X88338807Y-69993597D01*
X88472329Y-69943797D01*
X88480112Y-69939547D01*
X88481865Y-69942757D01*
X88530999Y-69924361D01*
X88599291Y-69939127D01*
X88600263Y-69939752D01*
X88607670Y-69943797D01*
X88682155Y-69971577D01*
X88742517Y-69994091D01*
X88802127Y-70000500D01*
X89547872Y-70000499D01*
X89607483Y-69994091D01*
X89608807Y-69993597D01*
X89742329Y-69943797D01*
X89750112Y-69939547D01*
X89751865Y-69942757D01*
X89800999Y-69924361D01*
X89869291Y-69939127D01*
X89870263Y-69939752D01*
X89877670Y-69943797D01*
X89952155Y-69971577D01*
X90012517Y-69994091D01*
X90072127Y-70000500D01*
X90335218Y-70000499D01*
X90402256Y-70020183D01*
X90448011Y-70072987D01*
X90457955Y-70142146D01*
X90428930Y-70205701D01*
X90422899Y-70212180D01*
X90171897Y-70463182D01*
X90110577Y-70496666D01*
X90084218Y-70499500D01*
X61441455Y-70499500D01*
X61344812Y-70518724D01*
X61248167Y-70537947D01*
X61248161Y-70537949D01*
X61194834Y-70560037D01*
X61194834Y-70560038D01*
X61141505Y-70582127D01*
X61066087Y-70613367D01*
X61043098Y-70628727D01*
X60985020Y-70649150D01*
X60804595Y-70664936D01*
X60804586Y-70664938D01*
X60576344Y-70726094D01*
X60576335Y-70726098D01*
X60362171Y-70825964D01*
X60362169Y-70825965D01*
X60168600Y-70961503D01*
X60046673Y-71083430D01*
X59985350Y-71116914D01*
X59915658Y-71111930D01*
X59859725Y-71070058D01*
X59842810Y-71039081D01*
X59793797Y-70907671D01*
X59793793Y-70907664D01*
X59707547Y-70792455D01*
X59707544Y-70792452D01*
X59592335Y-70706206D01*
X59592328Y-70706202D01*
X59457482Y-70655908D01*
X59457483Y-70655908D01*
X59397883Y-70649501D01*
X59397881Y-70649500D01*
X59397873Y-70649500D01*
X59397864Y-70649500D01*
X57602129Y-70649500D01*
X57602123Y-70649501D01*
X57542516Y-70655908D01*
X57407671Y-70706202D01*
X57407664Y-70706206D01*
X57292455Y-70792452D01*
X57292452Y-70792455D01*
X57206206Y-70907664D01*
X57206202Y-70907671D01*
X57155908Y-71042517D01*
X57149501Y-71102116D01*
X57149500Y-71102135D01*
X57149500Y-72237769D01*
X57129815Y-72304808D01*
X57113181Y-72325450D01*
X56812181Y-72626450D01*
X56750858Y-72659935D01*
X56681166Y-72654951D01*
X56625233Y-72613079D01*
X56600816Y-72547615D01*
X56600500Y-72538769D01*
X56600500Y-67351288D01*
X57999500Y-67351288D01*
X58031161Y-67591785D01*
X58093947Y-67826104D01*
X58178669Y-68030641D01*
X58186776Y-68050212D01*
X58308064Y-68260289D01*
X58308066Y-68260292D01*
X58308067Y-68260293D01*
X58455733Y-68452736D01*
X58455739Y-68452743D01*
X58627256Y-68624260D01*
X58627262Y-68624265D01*
X58819711Y-68771936D01*
X59029788Y-68893224D01*
X59253900Y-68986054D01*
X59488211Y-69048838D01*
X59668586Y-69072584D01*
X59728711Y-69080500D01*
X59728712Y-69080500D01*
X59971289Y-69080500D01*
X60019388Y-69074167D01*
X60211789Y-69048838D01*
X60446100Y-68986054D01*
X60670212Y-68893224D01*
X60880289Y-68771936D01*
X61072738Y-68624265D01*
X61244265Y-68452738D01*
X61391936Y-68260289D01*
X61513224Y-68050212D01*
X61606054Y-67826100D01*
X61668838Y-67591789D01*
X61700500Y-67351288D01*
X61700500Y-67108712D01*
X61668838Y-66868211D01*
X61606054Y-66633900D01*
X61513224Y-66409788D01*
X61391936Y-66199711D01*
X61244265Y-66007262D01*
X61244260Y-66007256D01*
X61072743Y-65835739D01*
X61072736Y-65835733D01*
X60880293Y-65688067D01*
X60880292Y-65688066D01*
X60880289Y-65688064D01*
X60670212Y-65566776D01*
X60670205Y-65566773D01*
X60446104Y-65473947D01*
X60211785Y-65411161D01*
X59971289Y-65379500D01*
X59971288Y-65379500D01*
X59728712Y-65379500D01*
X59728711Y-65379500D01*
X59488214Y-65411161D01*
X59253895Y-65473947D01*
X59029794Y-65566773D01*
X59029785Y-65566777D01*
X58819706Y-65688067D01*
X58627263Y-65835733D01*
X58627256Y-65835739D01*
X58455739Y-66007256D01*
X58455733Y-66007263D01*
X58308067Y-66199706D01*
X58186777Y-66409785D01*
X58186773Y-66409794D01*
X58093947Y-66633895D01*
X58031161Y-66868214D01*
X57999500Y-67108711D01*
X57999500Y-67351288D01*
X56600500Y-67351288D01*
X56600500Y-64800097D01*
X56620185Y-64733058D01*
X56636819Y-64712416D01*
X57712416Y-63636819D01*
X57773739Y-63603334D01*
X57800097Y-63600500D01*
X62199903Y-63600500D01*
X62266942Y-63620185D01*
G37*
%TD.AperFunction*%
%TA.AperFunction,Conductor*%
G36*
X149442539Y-50520185D02*
G01*
X149488294Y-50572989D01*
X149499500Y-50624500D01*
X149499500Y-71875500D01*
X149479815Y-71942539D01*
X149427011Y-71988294D01*
X149375500Y-71999500D01*
X91764782Y-71999500D01*
X91697743Y-71979815D01*
X91651988Y-71927011D01*
X91642044Y-71857853D01*
X91671069Y-71794297D01*
X91677101Y-71787819D01*
X92638956Y-70825965D01*
X93703102Y-69761819D01*
X93764425Y-69728334D01*
X93790783Y-69725500D01*
X116098542Y-69725500D01*
X116117870Y-69721655D01*
X116195188Y-69706275D01*
X116291836Y-69687051D01*
X116345165Y-69664961D01*
X116473914Y-69611632D01*
X116637782Y-69502139D01*
X116777139Y-69362782D01*
X116777139Y-69362780D01*
X116787347Y-69352573D01*
X116787348Y-69352570D01*
X118788631Y-67351288D01*
X143999500Y-67351288D01*
X144031161Y-67591785D01*
X144093947Y-67826104D01*
X144178669Y-68030641D01*
X144186776Y-68050212D01*
X144308064Y-68260289D01*
X144308066Y-68260292D01*
X144308067Y-68260293D01*
X144455733Y-68452736D01*
X144455739Y-68452743D01*
X144627256Y-68624260D01*
X144627262Y-68624265D01*
X144819711Y-68771936D01*
X145029788Y-68893224D01*
X145253900Y-68986054D01*
X145488211Y-69048838D01*
X145668586Y-69072584D01*
X145728711Y-69080500D01*
X145728712Y-69080500D01*
X145971289Y-69080500D01*
X146019388Y-69074167D01*
X146211789Y-69048838D01*
X146446100Y-68986054D01*
X146670212Y-68893224D01*
X146880289Y-68771936D01*
X147072738Y-68624265D01*
X147244265Y-68452738D01*
X147391936Y-68260289D01*
X147513224Y-68050212D01*
X147606054Y-67826100D01*
X147668838Y-67591789D01*
X147700500Y-67351288D01*
X147700500Y-67108712D01*
X147668838Y-66868211D01*
X147606054Y-66633900D01*
X147513224Y-66409788D01*
X147391936Y-66199711D01*
X147244265Y-66007262D01*
X147244260Y-66007256D01*
X147072743Y-65835739D01*
X147072736Y-65835733D01*
X146880293Y-65688067D01*
X146880292Y-65688066D01*
X146880289Y-65688064D01*
X146670212Y-65566776D01*
X146670205Y-65566773D01*
X146446104Y-65473947D01*
X146211785Y-65411161D01*
X145971289Y-65379500D01*
X145971288Y-65379500D01*
X145728712Y-65379500D01*
X145728711Y-65379500D01*
X145488214Y-65411161D01*
X145253895Y-65473947D01*
X145029794Y-65566773D01*
X145029785Y-65566777D01*
X144819706Y-65688067D01*
X144627263Y-65835733D01*
X144627256Y-65835739D01*
X144455739Y-66007256D01*
X144455733Y-66007263D01*
X144308067Y-66199706D01*
X144186777Y-66409785D01*
X144186773Y-66409794D01*
X144093947Y-66633895D01*
X144031161Y-66868214D01*
X143999500Y-67108711D01*
X143999500Y-67351288D01*
X118788631Y-67351288D01*
X122777139Y-63362782D01*
X122805227Y-63320745D01*
X122840326Y-63268217D01*
X122840326Y-63268216D01*
X122851631Y-63251297D01*
X122886632Y-63198914D01*
X122916644Y-63126459D01*
X122951124Y-63043217D01*
X122962049Y-63016840D01*
X122962051Y-63016836D01*
X123000500Y-62823541D01*
X123000500Y-62626460D01*
X123000500Y-61901459D01*
X123000500Y-56436670D01*
X123020185Y-56369631D01*
X123068204Y-56326186D01*
X123207816Y-56255051D01*
X123259255Y-56217678D01*
X123379786Y-56130109D01*
X123379788Y-56130106D01*
X123379792Y-56130104D01*
X123530104Y-55979792D01*
X123649683Y-55815204D01*
X123705011Y-55772540D01*
X123774624Y-55766561D01*
X123836420Y-55799166D01*
X123850313Y-55815199D01*
X123969892Y-55979786D01*
X123969896Y-55979792D01*
X124120213Y-56130109D01*
X124292179Y-56255048D01*
X124292181Y-56255049D01*
X124292184Y-56255051D01*
X124481588Y-56351557D01*
X124683757Y-56417246D01*
X124893713Y-56450500D01*
X124893714Y-56450500D01*
X125106286Y-56450500D01*
X125106287Y-56450500D01*
X125316243Y-56417246D01*
X125518412Y-56351557D01*
X125707816Y-56255051D01*
X125729789Y-56239086D01*
X125879786Y-56130109D01*
X125879788Y-56130106D01*
X125879792Y-56130104D01*
X126030104Y-55979792D01*
X126149683Y-55815204D01*
X126205011Y-55772540D01*
X126274624Y-55766561D01*
X126336420Y-55799166D01*
X126350313Y-55815199D01*
X126469892Y-55979786D01*
X126469896Y-55979792D01*
X126620213Y-56130109D01*
X126792179Y-56255048D01*
X126792181Y-56255049D01*
X126792184Y-56255051D01*
X126981588Y-56351557D01*
X127183757Y-56417246D01*
X127393713Y-56450500D01*
X127393714Y-56450500D01*
X127606286Y-56450500D01*
X127606287Y-56450500D01*
X127816243Y-56417246D01*
X128018412Y-56351557D01*
X128207816Y-56255051D01*
X128229789Y-56239086D01*
X128379786Y-56130109D01*
X128379788Y-56130106D01*
X128379792Y-56130104D01*
X128530104Y-55979792D01*
X128649683Y-55815204D01*
X128705011Y-55772540D01*
X128774624Y-55766561D01*
X128836420Y-55799166D01*
X128850313Y-55815199D01*
X128969892Y-55979786D01*
X128969896Y-55979792D01*
X129120213Y-56130109D01*
X129292179Y-56255048D01*
X129292181Y-56255049D01*
X129292184Y-56255051D01*
X129481588Y-56351557D01*
X129683757Y-56417246D01*
X129893713Y-56450500D01*
X129893714Y-56450500D01*
X130106286Y-56450500D01*
X130106287Y-56450500D01*
X130316243Y-56417246D01*
X130518412Y-56351557D01*
X130707816Y-56255051D01*
X130729789Y-56239086D01*
X130879786Y-56130109D01*
X130879788Y-56130106D01*
X130879792Y-56130104D01*
X131030104Y-55979792D01*
X131030106Y-55979788D01*
X131030109Y-55979786D01*
X131155048Y-55807820D01*
X131155047Y-55807820D01*
X131155051Y-55807816D01*
X131251557Y-55618412D01*
X131317246Y-55416243D01*
X131350500Y-55206287D01*
X131350500Y-54743713D01*
X131317246Y-54533757D01*
X131251557Y-54331588D01*
X131155051Y-54142184D01*
X131155049Y-54142181D01*
X131155048Y-54142179D01*
X131030109Y-53970213D01*
X130879786Y-53819890D01*
X130707820Y-53694951D01*
X130518414Y-53598444D01*
X130518413Y-53598443D01*
X130518412Y-53598443D01*
X130316243Y-53532754D01*
X130316241Y-53532753D01*
X130316240Y-53532753D01*
X130154957Y-53507208D01*
X130106287Y-53499500D01*
X129893713Y-53499500D01*
X129854202Y-53505757D01*
X129683759Y-53532753D01*
X129683755Y-53532754D01*
X129528260Y-53583277D01*
X129458419Y-53585272D01*
X129402262Y-53553027D01*
X126561416Y-50712181D01*
X126527931Y-50650858D01*
X126532915Y-50581166D01*
X126574787Y-50525233D01*
X126640251Y-50500816D01*
X126649097Y-50500500D01*
X149375500Y-50500500D01*
X149442539Y-50520185D01*
G37*
%TD.AperFunction*%
%TA.AperFunction,Conductor*%
G36*
X121666942Y-52520185D02*
G01*
X121687584Y-52536819D01*
X122443102Y-53292338D01*
X122476587Y-53353661D01*
X122471603Y-53423353D01*
X122429731Y-53479286D01*
X122374819Y-53502492D01*
X122183760Y-53532753D01*
X121981585Y-53598444D01*
X121792179Y-53694951D01*
X121620215Y-53819889D01*
X121481035Y-53959069D01*
X121419712Y-53992553D01*
X121350020Y-53987569D01*
X121294087Y-53945697D01*
X121287815Y-53936484D01*
X121192315Y-53781654D01*
X121068345Y-53657684D01*
X120919124Y-53565643D01*
X120919119Y-53565641D01*
X120752697Y-53510494D01*
X120752690Y-53510493D01*
X120649986Y-53500000D01*
X120250000Y-53500000D01*
X120250000Y-54570854D01*
X120183343Y-54532370D01*
X120062535Y-54500000D01*
X119937465Y-54500000D01*
X119816657Y-54532370D01*
X119750000Y-54570854D01*
X119750000Y-53500000D01*
X119350028Y-53500000D01*
X119350012Y-53500001D01*
X119247302Y-53510494D01*
X119080880Y-53565641D01*
X119080875Y-53565643D01*
X118931654Y-53657684D01*
X118807684Y-53781654D01*
X118715643Y-53930875D01*
X118715641Y-53930880D01*
X118660494Y-54097302D01*
X118660493Y-54097309D01*
X118650000Y-54200013D01*
X118650000Y-54725000D01*
X119595854Y-54725000D01*
X119557370Y-54791657D01*
X119525000Y-54912465D01*
X119525000Y-55037535D01*
X119557370Y-55158343D01*
X119595854Y-55225000D01*
X118650001Y-55225000D01*
X118650001Y-55749986D01*
X118660494Y-55852697D01*
X118715641Y-56019119D01*
X118715643Y-56019124D01*
X118807684Y-56168345D01*
X118931654Y-56292315D01*
X119080875Y-56384356D01*
X119080880Y-56384358D01*
X119247302Y-56439505D01*
X119247309Y-56439506D01*
X119350019Y-56449999D01*
X119749999Y-56449999D01*
X119750000Y-56449998D01*
X119750000Y-55379145D01*
X119816657Y-55417630D01*
X119937465Y-55450000D01*
X120062535Y-55450000D01*
X120183343Y-55417630D01*
X120250000Y-55379145D01*
X120250000Y-56449999D01*
X120649972Y-56449999D01*
X120649986Y-56449998D01*
X120752695Y-56439506D01*
X120836495Y-56411737D01*
X120906324Y-56409335D01*
X120966366Y-56445066D01*
X120997559Y-56507587D01*
X120999500Y-56529443D01*
X120999500Y-60822246D01*
X120979815Y-60889285D01*
X120927011Y-60935040D01*
X120857853Y-60944984D01*
X120810403Y-60927785D01*
X120669124Y-60840643D01*
X120669119Y-60840641D01*
X120502697Y-60785494D01*
X120502690Y-60785493D01*
X120399986Y-60775000D01*
X120350000Y-60775000D01*
X120350000Y-62126000D01*
X120330315Y-62193039D01*
X120277511Y-62238794D01*
X120226000Y-62250000D01*
X119100001Y-62250000D01*
X119100001Y-62524986D01*
X119110494Y-62627697D01*
X119165641Y-62794119D01*
X119165643Y-62794124D01*
X119257684Y-62943345D01*
X119381654Y-63067315D01*
X119530875Y-63159356D01*
X119530880Y-63159358D01*
X119697302Y-63214505D01*
X119697310Y-63214506D01*
X119799058Y-63224901D01*
X119863750Y-63251297D01*
X119903901Y-63308477D01*
X119906765Y-63378288D01*
X119874137Y-63435940D01*
X115621899Y-67688181D01*
X115560576Y-67721666D01*
X115534218Y-67724500D01*
X99989782Y-67724500D01*
X99922743Y-67704815D01*
X99876988Y-67652011D01*
X99867044Y-67582853D01*
X99896069Y-67519297D01*
X99902101Y-67512819D01*
X100612528Y-66802392D01*
X103137778Y-64277141D01*
X103137782Y-64277139D01*
X103277139Y-64137782D01*
X103386632Y-63973914D01*
X103454920Y-63809052D01*
X103462051Y-63791836D01*
X103465301Y-63775500D01*
X103492886Y-63636819D01*
X103500500Y-63598540D01*
X103500500Y-63401460D01*
X103500500Y-62401459D01*
X103500500Y-61750000D01*
X119100000Y-61750000D01*
X119850000Y-61750000D01*
X119850000Y-60775000D01*
X119849999Y-60774999D01*
X119800029Y-60775000D01*
X119800011Y-60775001D01*
X119697302Y-60785494D01*
X119530880Y-60840641D01*
X119530875Y-60840643D01*
X119381654Y-60932684D01*
X119257684Y-61056654D01*
X119165643Y-61205875D01*
X119165641Y-61205880D01*
X119110494Y-61372302D01*
X119110493Y-61372309D01*
X119100000Y-61475013D01*
X119100000Y-61750000D01*
X103500500Y-61750000D01*
X103500500Y-56461670D01*
X103520185Y-56394631D01*
X103568204Y-56351186D01*
X103707816Y-56280051D01*
X103759255Y-56242678D01*
X103879786Y-56155109D01*
X103879788Y-56155106D01*
X103879792Y-56155104D01*
X104030104Y-56004792D01*
X104149683Y-55840204D01*
X104205011Y-55797540D01*
X104274624Y-55791561D01*
X104336420Y-55824166D01*
X104350313Y-55840199D01*
X104448082Y-55974767D01*
X104469896Y-56004792D01*
X104620213Y-56155109D01*
X104792179Y-56280048D01*
X104792181Y-56280049D01*
X104792184Y-56280051D01*
X104981588Y-56376557D01*
X105183757Y-56442246D01*
X105393713Y-56475500D01*
X105393714Y-56475500D01*
X105606286Y-56475500D01*
X105606287Y-56475500D01*
X105816243Y-56442246D01*
X106018412Y-56376557D01*
X106207816Y-56280051D01*
X106242230Y-56255048D01*
X106379786Y-56155109D01*
X106379788Y-56155106D01*
X106379792Y-56155104D01*
X106530104Y-56004792D01*
X106649683Y-55840204D01*
X106705011Y-55797540D01*
X106774624Y-55791561D01*
X106836420Y-55824166D01*
X106850313Y-55840199D01*
X106948082Y-55974767D01*
X106969896Y-56004792D01*
X107120213Y-56155109D01*
X107292179Y-56280048D01*
X107292181Y-56280049D01*
X107292184Y-56280051D01*
X107481588Y-56376557D01*
X107683757Y-56442246D01*
X107893713Y-56475500D01*
X107893714Y-56475500D01*
X108106286Y-56475500D01*
X108106287Y-56475500D01*
X108316243Y-56442246D01*
X108518412Y-56376557D01*
X108707816Y-56280051D01*
X108742230Y-56255048D01*
X108879786Y-56155109D01*
X108879788Y-56155106D01*
X108879792Y-56155104D01*
X109030104Y-56004792D01*
X109149683Y-55840204D01*
X109205011Y-55797540D01*
X109274624Y-55791561D01*
X109336420Y-55824166D01*
X109350313Y-55840199D01*
X109448082Y-55974767D01*
X109469896Y-56004792D01*
X109620213Y-56155109D01*
X109792179Y-56280048D01*
X109792181Y-56280049D01*
X109792184Y-56280051D01*
X109981588Y-56376557D01*
X110183757Y-56442246D01*
X110393713Y-56475500D01*
X110393714Y-56475500D01*
X110606286Y-56475500D01*
X110606287Y-56475500D01*
X110816243Y-56442246D01*
X111018412Y-56376557D01*
X111207816Y-56280051D01*
X111242230Y-56255048D01*
X111379786Y-56155109D01*
X111379788Y-56155106D01*
X111379792Y-56155104D01*
X111530104Y-56004792D01*
X111530106Y-56004788D01*
X111530109Y-56004786D01*
X111655048Y-55832820D01*
X111655047Y-55832820D01*
X111655051Y-55832816D01*
X111751557Y-55643412D01*
X111817246Y-55441243D01*
X111850500Y-55231287D01*
X111850500Y-54768713D01*
X111817246Y-54558757D01*
X111751557Y-54356588D01*
X111655051Y-54167184D01*
X111655049Y-54167181D01*
X111655048Y-54167179D01*
X111530109Y-53995213D01*
X111379786Y-53844890D01*
X111207820Y-53719951D01*
X111018414Y-53623444D01*
X111018413Y-53623443D01*
X111018412Y-53623443D01*
X110816243Y-53557754D01*
X110816241Y-53557753D01*
X110816240Y-53557753D01*
X110654957Y-53532208D01*
X110606287Y-53524500D01*
X110393713Y-53524500D01*
X110345042Y-53532208D01*
X110183760Y-53557753D01*
X109981585Y-53623444D01*
X109792179Y-53719951D01*
X109620213Y-53844890D01*
X109469894Y-53995209D01*
X109469890Y-53995214D01*
X109350318Y-54159793D01*
X109294989Y-54202459D01*
X109225375Y-54208438D01*
X109163580Y-54175833D01*
X109149682Y-54159793D01*
X109030109Y-53995214D01*
X109030105Y-53995209D01*
X108879786Y-53844890D01*
X108707820Y-53719951D01*
X108518414Y-53623444D01*
X108518413Y-53623443D01*
X108518412Y-53623443D01*
X108316243Y-53557754D01*
X108316241Y-53557753D01*
X108316240Y-53557753D01*
X108154957Y-53532208D01*
X108106287Y-53524500D01*
X107893713Y-53524500D01*
X107845042Y-53532208D01*
X107683760Y-53557753D01*
X107481585Y-53623444D01*
X107292179Y-53719951D01*
X107120213Y-53844890D01*
X106969894Y-53995209D01*
X106969890Y-53995214D01*
X106850318Y-54159793D01*
X106794989Y-54202459D01*
X106725375Y-54208438D01*
X106663580Y-54175833D01*
X106649682Y-54159793D01*
X106530109Y-53995214D01*
X106530105Y-53995209D01*
X106379786Y-53844890D01*
X106207820Y-53719951D01*
X106018414Y-53623444D01*
X106018413Y-53623443D01*
X106018412Y-53623443D01*
X105816243Y-53557754D01*
X105816241Y-53557753D01*
X105816240Y-53557753D01*
X105654957Y-53532208D01*
X105606287Y-53524500D01*
X105393713Y-53524500D01*
X105345042Y-53532208D01*
X105183760Y-53557753D01*
X104981585Y-53623444D01*
X104792179Y-53719951D01*
X104620213Y-53844890D01*
X104469894Y-53995209D01*
X104469890Y-53995214D01*
X104350318Y-54159793D01*
X104294989Y-54202459D01*
X104225375Y-54208438D01*
X104163580Y-54175833D01*
X104149682Y-54159793D01*
X104030109Y-53995214D01*
X104030105Y-53995209D01*
X103879786Y-53844890D01*
X103707820Y-53719951D01*
X103518414Y-53623444D01*
X103518413Y-53623443D01*
X103518412Y-53623443D01*
X103316243Y-53557754D01*
X103316241Y-53557753D01*
X103316240Y-53557753D01*
X103154957Y-53532208D01*
X103106287Y-53524500D01*
X102893713Y-53524500D01*
X102845042Y-53532208D01*
X102683760Y-53557753D01*
X102481585Y-53623444D01*
X102292179Y-53719951D01*
X102120215Y-53844889D01*
X101981035Y-53984069D01*
X101919712Y-54017553D01*
X101850020Y-54012569D01*
X101794087Y-53970697D01*
X101787815Y-53961484D01*
X101692315Y-53806654D01*
X101568345Y-53682684D01*
X101419124Y-53590643D01*
X101419119Y-53590641D01*
X101252697Y-53535494D01*
X101252690Y-53535493D01*
X101149986Y-53525000D01*
X100750000Y-53525000D01*
X100750000Y-54595854D01*
X100683343Y-54557370D01*
X100562535Y-54525000D01*
X100437465Y-54525000D01*
X100316657Y-54557370D01*
X100250000Y-54595854D01*
X100250000Y-53525000D01*
X99850028Y-53525000D01*
X99850012Y-53525001D01*
X99747302Y-53535494D01*
X99580880Y-53590641D01*
X99580875Y-53590643D01*
X99431654Y-53682684D01*
X99307684Y-53806654D01*
X99215643Y-53955875D01*
X99215641Y-53955880D01*
X99160494Y-54122302D01*
X99160493Y-54122309D01*
X99150000Y-54225013D01*
X99150000Y-54750000D01*
X100095854Y-54750000D01*
X100057370Y-54816657D01*
X100025000Y-54937465D01*
X100025000Y-55062535D01*
X100057370Y-55183343D01*
X100095854Y-55250000D01*
X99150001Y-55250000D01*
X99150001Y-55774986D01*
X99160494Y-55877697D01*
X99215641Y-56044119D01*
X99215643Y-56044124D01*
X99307684Y-56193345D01*
X99431654Y-56317315D01*
X99580875Y-56409356D01*
X99580880Y-56409358D01*
X99747302Y-56464505D01*
X99747309Y-56464506D01*
X99850019Y-56474999D01*
X100249999Y-56474999D01*
X100250000Y-56474998D01*
X100250000Y-55404145D01*
X100316657Y-55442630D01*
X100437465Y-55475000D01*
X100562535Y-55475000D01*
X100683343Y-55442630D01*
X100750000Y-55404145D01*
X100750000Y-56474999D01*
X101149972Y-56474999D01*
X101149986Y-56474998D01*
X101252695Y-56464506D01*
X101336495Y-56436737D01*
X101406324Y-56434335D01*
X101466366Y-56470066D01*
X101497559Y-56532587D01*
X101499500Y-56554443D01*
X101499500Y-61322246D01*
X101479815Y-61389285D01*
X101427011Y-61435040D01*
X101357853Y-61444984D01*
X101310403Y-61427785D01*
X101169124Y-61340643D01*
X101169119Y-61340641D01*
X101002697Y-61285494D01*
X101002690Y-61285493D01*
X100899986Y-61275000D01*
X100850000Y-61275000D01*
X100850000Y-63683717D01*
X100830315Y-63750756D01*
X100813681Y-63771398D01*
X96896899Y-67688181D01*
X96835576Y-67721666D01*
X96809218Y-67724500D01*
X94402960Y-67724500D01*
X94335921Y-67704815D01*
X94290166Y-67652011D01*
X94280222Y-67582853D01*
X94285253Y-67561498D01*
X94289856Y-67547606D01*
X94299999Y-67448322D01*
X94300000Y-67448309D01*
X94300000Y-67425000D01*
X92350001Y-67425000D01*
X92350001Y-67448322D01*
X92360144Y-67547606D01*
X92364747Y-67561498D01*
X92367147Y-67631327D01*
X92331414Y-67691368D01*
X92268893Y-67722559D01*
X92247040Y-67724500D01*
X91288465Y-67724500D01*
X91221426Y-67704815D01*
X91189198Y-67674811D01*
X91172130Y-67652011D01*
X91127546Y-67592454D01*
X91067637Y-67547606D01*
X91012335Y-67506206D01*
X91012328Y-67506202D01*
X90877486Y-67455910D01*
X90877485Y-67455909D01*
X90877483Y-67455909D01*
X90817873Y-67449500D01*
X90817863Y-67449500D01*
X90072129Y-67449500D01*
X90072123Y-67449501D01*
X90012516Y-67455908D01*
X89877671Y-67506202D01*
X89869886Y-67510454D01*
X89868153Y-67507280D01*
X89818698Y-67525659D01*
X89750443Y-67510725D01*
X89749497Y-67510117D01*
X89742328Y-67506202D01*
X89607482Y-67455908D01*
X89607483Y-67455908D01*
X89547883Y-67449501D01*
X89547881Y-67449500D01*
X89547873Y-67449500D01*
X89547865Y-67449500D01*
X89250097Y-67449500D01*
X89183058Y-67429815D01*
X89162416Y-67413181D01*
X88674235Y-66925000D01*
X92350000Y-66925000D01*
X93075000Y-66925000D01*
X93075000Y-66225000D01*
X93575000Y-66225000D01*
X93575000Y-66925000D01*
X94299999Y-66925000D01*
X94299999Y-66901692D01*
X94299998Y-66901677D01*
X94289855Y-66802392D01*
X94236547Y-66641518D01*
X94236542Y-66641507D01*
X94147575Y-66497271D01*
X94147572Y-66497267D01*
X94027732Y-66377427D01*
X94027728Y-66377424D01*
X93883492Y-66288457D01*
X93883481Y-66288452D01*
X93722606Y-66235144D01*
X93623322Y-66225000D01*
X93575000Y-66225000D01*
X93075000Y-66225000D01*
X93074999Y-66224999D01*
X93026693Y-66225000D01*
X93026675Y-66225001D01*
X92927392Y-66235144D01*
X92766518Y-66288452D01*
X92766507Y-66288457D01*
X92622271Y-66377424D01*
X92622267Y-66377427D01*
X92502427Y-66497267D01*
X92502424Y-66497271D01*
X92413457Y-66641507D01*
X92413452Y-66641518D01*
X92360144Y-66802393D01*
X92350000Y-66901677D01*
X92350000Y-66925000D01*
X88674235Y-66925000D01*
X88087590Y-66338355D01*
X88087588Y-66338352D01*
X87968717Y-66219481D01*
X87968716Y-66219480D01*
X87881904Y-66169360D01*
X87881904Y-66169359D01*
X87881900Y-66169358D01*
X87831785Y-66140423D01*
X87754723Y-66119774D01*
X87695064Y-66083410D01*
X87664535Y-66020563D01*
X87672830Y-65951188D01*
X87717315Y-65897310D01*
X87754722Y-65880226D01*
X87831785Y-65859577D01*
X87881904Y-65830639D01*
X87968716Y-65780520D01*
X88080520Y-65668716D01*
X88080520Y-65668714D01*
X88090728Y-65658507D01*
X88090730Y-65658504D01*
X88724234Y-65025000D01*
X92350001Y-65025000D01*
X92350001Y-65048322D01*
X92360144Y-65147607D01*
X92413452Y-65308481D01*
X92413457Y-65308492D01*
X92502424Y-65452728D01*
X92502427Y-65452732D01*
X92622267Y-65572572D01*
X92622271Y-65572575D01*
X92766507Y-65661542D01*
X92766518Y-65661547D01*
X92927393Y-65714855D01*
X93026683Y-65724999D01*
X93074999Y-65724998D01*
X93075000Y-65724998D01*
X93075000Y-65025000D01*
X93575000Y-65025000D01*
X93575000Y-65724999D01*
X93623308Y-65724999D01*
X93623322Y-65724998D01*
X93722607Y-65714855D01*
X93883481Y-65661547D01*
X93883492Y-65661542D01*
X94027728Y-65572575D01*
X94027732Y-65572572D01*
X94147572Y-65452732D01*
X94147575Y-65452728D01*
X94236542Y-65308492D01*
X94236547Y-65308481D01*
X94289855Y-65147606D01*
X94299999Y-65048322D01*
X94300000Y-65048309D01*
X94300000Y-65025000D01*
X93575000Y-65025000D01*
X93075000Y-65025000D01*
X92350001Y-65025000D01*
X88724234Y-65025000D01*
X89162416Y-64586818D01*
X89223739Y-64553333D01*
X89250097Y-64550499D01*
X89547871Y-64550499D01*
X89547872Y-64550499D01*
X89607483Y-64544091D01*
X89721161Y-64501692D01*
X89742329Y-64493797D01*
X89750112Y-64489547D01*
X89751865Y-64492757D01*
X89800999Y-64474361D01*
X89869291Y-64489127D01*
X89870263Y-64489752D01*
X89877670Y-64493797D01*
X89952155Y-64521577D01*
X90012517Y-64544091D01*
X90072127Y-64550500D01*
X90817872Y-64550499D01*
X90877483Y-64544091D01*
X91012331Y-64493796D01*
X91127546Y-64407546D01*
X91189199Y-64325188D01*
X91245132Y-64283318D01*
X91288465Y-64275500D01*
X92235794Y-64275500D01*
X92302833Y-64295185D01*
X92348588Y-64347989D01*
X92359152Y-64412103D01*
X92350000Y-64501677D01*
X92350000Y-64525000D01*
X94299999Y-64525000D01*
X94299999Y-64501692D01*
X94299998Y-64501677D01*
X94289855Y-64402392D01*
X94236547Y-64241518D01*
X94236542Y-64241507D01*
X94147575Y-64097271D01*
X94147572Y-64097267D01*
X94138339Y-64088034D01*
X94104854Y-64026711D01*
X94109838Y-63957019D01*
X94138343Y-63912668D01*
X94147968Y-63903044D01*
X94237003Y-63758697D01*
X94290349Y-63597708D01*
X94300500Y-63498345D01*
X94300499Y-63461437D01*
X94302882Y-63437245D01*
X94325500Y-63323542D01*
X94325500Y-62750000D01*
X99600001Y-62750000D01*
X99600001Y-63024986D01*
X99610494Y-63127697D01*
X99665641Y-63294119D01*
X99665643Y-63294124D01*
X99757684Y-63443345D01*
X99881654Y-63567315D01*
X100030875Y-63659356D01*
X100030880Y-63659358D01*
X100197302Y-63714505D01*
X100197309Y-63714506D01*
X100300019Y-63724999D01*
X100349999Y-63724998D01*
X100350000Y-63724998D01*
X100350000Y-62750000D01*
X99600001Y-62750000D01*
X94325500Y-62750000D01*
X94325500Y-62726456D01*
X94325499Y-62726454D01*
X94287053Y-62533173D01*
X94287050Y-62533163D01*
X94283706Y-62525089D01*
X94283696Y-62525067D01*
X94283672Y-62525008D01*
X94255206Y-62456284D01*
X94211632Y-62351086D01*
X94149376Y-62257913D01*
X94144089Y-62250000D01*
X99600000Y-62250000D01*
X100350000Y-62250000D01*
X100350000Y-61275000D01*
X100349999Y-61274999D01*
X100300029Y-61275000D01*
X100300011Y-61275001D01*
X100197302Y-61285494D01*
X100030880Y-61340641D01*
X100030875Y-61340643D01*
X99881654Y-61432684D01*
X99757684Y-61556654D01*
X99665643Y-61705875D01*
X99665641Y-61705880D01*
X99610494Y-61872302D01*
X99610493Y-61872309D01*
X99600000Y-61975013D01*
X99600000Y-62250000D01*
X94144089Y-62250000D01*
X94102139Y-62187217D01*
X93959686Y-62044764D01*
X93959655Y-62044735D01*
X92637784Y-60722863D01*
X92637780Y-60722860D01*
X92473920Y-60613372D01*
X92473910Y-60613367D01*
X92291836Y-60537949D01*
X92291828Y-60537947D01*
X92098543Y-60499500D01*
X92098540Y-60499500D01*
X91901460Y-60499500D01*
X91901457Y-60499500D01*
X91708171Y-60537947D01*
X91708163Y-60537949D01*
X91526089Y-60613367D01*
X91526079Y-60613372D01*
X91362219Y-60722860D01*
X91362215Y-60722863D01*
X91222863Y-60862215D01*
X91222860Y-60862219D01*
X91113372Y-61026079D01*
X91113367Y-61026089D01*
X91037949Y-61208163D01*
X91037947Y-61208171D01*
X90999500Y-61401455D01*
X90999500Y-61598544D01*
X91037947Y-61791828D01*
X91037950Y-61791840D01*
X91063128Y-61852625D01*
X91070597Y-61922094D01*
X91039321Y-61984573D01*
X90979232Y-62020225D01*
X90909407Y-62017731D01*
X90905235Y-62016259D01*
X90877488Y-62005910D01*
X90877484Y-62005909D01*
X90877483Y-62005909D01*
X90817873Y-61999500D01*
X90817863Y-61999500D01*
X90072129Y-61999500D01*
X90072123Y-61999501D01*
X90012516Y-62005908D01*
X89877671Y-62056202D01*
X89869886Y-62060454D01*
X89868153Y-62057280D01*
X89818698Y-62075659D01*
X89750443Y-62060725D01*
X89749495Y-62060116D01*
X89745869Y-62058136D01*
X89744888Y-62057155D01*
X89735808Y-62051320D01*
X89735350Y-62050978D01*
X89736786Y-62049054D01*
X89696462Y-62008731D01*
X89681609Y-61940459D01*
X89706024Y-61874994D01*
X89717605Y-61861628D01*
X99042416Y-52536819D01*
X99103739Y-52503334D01*
X99130097Y-52500500D01*
X121599903Y-52500500D01*
X121666942Y-52520185D01*
G37*
%TD.AperFunction*%
%TA.AperFunction,Conductor*%
G36*
X73836420Y-55324166D02*
G01*
X73850313Y-55340199D01*
X73924733Y-55442630D01*
X73972760Y-55508734D01*
X73971888Y-55509367D01*
X73998357Y-55568401D01*
X73999500Y-55585199D01*
X73999500Y-60414477D01*
X73979815Y-60481516D01*
X73927011Y-60527271D01*
X73857853Y-60537215D01*
X73794297Y-60508190D01*
X73787819Y-60502158D01*
X73718345Y-60432684D01*
X73569124Y-60340643D01*
X73569119Y-60340641D01*
X73402697Y-60285494D01*
X73402690Y-60285493D01*
X73299986Y-60275000D01*
X73250000Y-60275000D01*
X73250000Y-62724999D01*
X73299972Y-62724999D01*
X73299986Y-62724998D01*
X73402697Y-62714505D01*
X73569119Y-62659358D01*
X73569124Y-62659356D01*
X73718345Y-62567315D01*
X73842318Y-62443342D01*
X73844165Y-62440348D01*
X73845969Y-62438724D01*
X73846798Y-62437677D01*
X73846976Y-62437818D01*
X73896110Y-62393621D01*
X73965073Y-62382396D01*
X74029156Y-62410236D01*
X74055243Y-62440341D01*
X74057288Y-62443656D01*
X74057289Y-62443657D01*
X74186451Y-62572819D01*
X74184322Y-62574947D01*
X74216840Y-62620898D01*
X74219959Y-62690698D01*
X74184846Y-62751104D01*
X74153351Y-62772826D01*
X74150484Y-62774206D01*
X73997737Y-62870184D01*
X73870184Y-62997737D01*
X73774211Y-63150476D01*
X73714631Y-63320745D01*
X73714630Y-63320750D01*
X73694435Y-63499996D01*
X73694435Y-63500003D01*
X73714630Y-63679249D01*
X73714633Y-63679262D01*
X73733978Y-63734545D01*
X73737540Y-63804324D01*
X73702812Y-63864951D01*
X73640818Y-63897179D01*
X73616937Y-63899500D01*
X68431469Y-63899500D01*
X68364430Y-63879815D01*
X68343788Y-63863181D01*
X66230606Y-61750000D01*
X72000001Y-61750000D01*
X72000001Y-62024986D01*
X72010494Y-62127697D01*
X72065641Y-62294119D01*
X72065643Y-62294124D01*
X72157684Y-62443345D01*
X72281654Y-62567315D01*
X72430875Y-62659356D01*
X72430880Y-62659358D01*
X72597302Y-62714505D01*
X72597309Y-62714506D01*
X72700019Y-62724999D01*
X72749999Y-62724998D01*
X72750000Y-62724998D01*
X72750000Y-61750000D01*
X72000001Y-61750000D01*
X66230606Y-61750000D01*
X65730606Y-61250000D01*
X72000000Y-61250000D01*
X72750000Y-61250000D01*
X72750000Y-60275000D01*
X72749999Y-60274999D01*
X72700029Y-60275000D01*
X72700011Y-60275001D01*
X72597302Y-60285494D01*
X72430880Y-60340641D01*
X72430875Y-60340643D01*
X72281654Y-60432684D01*
X72157684Y-60556654D01*
X72065643Y-60705875D01*
X72065641Y-60705880D01*
X72010494Y-60872302D01*
X72010493Y-60872309D01*
X72000000Y-60975013D01*
X72000000Y-61250000D01*
X65730606Y-61250000D01*
X65405818Y-60925212D01*
X64392785Y-59912180D01*
X64359301Y-59850858D01*
X64364285Y-59781166D01*
X64406157Y-59725233D01*
X64471621Y-59700816D01*
X64480467Y-59700500D01*
X67813331Y-59700500D01*
X67813347Y-59700501D01*
X67820943Y-59700501D01*
X67979054Y-59700501D01*
X67979057Y-59700501D01*
X68131785Y-59659577D01*
X68181904Y-59630639D01*
X68268716Y-59580520D01*
X68380520Y-59468716D01*
X68380520Y-59468714D01*
X68390728Y-59458507D01*
X68390730Y-59458504D01*
X71921133Y-55928100D01*
X71982454Y-55894617D01*
X72047126Y-55897851D01*
X72183757Y-55942246D01*
X72393713Y-55975500D01*
X72393714Y-55975500D01*
X72606286Y-55975500D01*
X72606287Y-55975500D01*
X72816243Y-55942246D01*
X73018412Y-55876557D01*
X73207816Y-55780051D01*
X73249197Y-55749986D01*
X73379786Y-55655109D01*
X73379788Y-55655106D01*
X73379792Y-55655104D01*
X73530104Y-55504792D01*
X73649683Y-55340204D01*
X73705011Y-55297540D01*
X73774624Y-55291561D01*
X73836420Y-55324166D01*
G37*
%TD.AperFunction*%
%TA.AperFunction,Conductor*%
G36*
X93277941Y-50520185D02*
G01*
X93323696Y-50572989D01*
X93333640Y-50642147D01*
X93304615Y-50705703D01*
X93298583Y-50712181D01*
X82344481Y-61666282D01*
X82344480Y-61666284D01*
X82313768Y-61719480D01*
X82294361Y-61753094D01*
X82294359Y-61753096D01*
X82265425Y-61803209D01*
X82265423Y-61803213D01*
X82265423Y-61803215D01*
X82250783Y-61857853D01*
X82225966Y-61950468D01*
X82189600Y-62010128D01*
X82126753Y-62040656D01*
X82062858Y-62034555D01*
X81987379Y-62006403D01*
X81987372Y-62006401D01*
X81927844Y-62000000D01*
X81805000Y-62000000D01*
X81805000Y-63401000D01*
X81785315Y-63468039D01*
X81732511Y-63513794D01*
X81681000Y-63525000D01*
X80730000Y-63525000D01*
X80730000Y-63775500D01*
X80710315Y-63842539D01*
X80657511Y-63888294D01*
X80606000Y-63899500D01*
X75383063Y-63899500D01*
X75316024Y-63879815D01*
X75270269Y-63827011D01*
X75260325Y-63757853D01*
X75266021Y-63734546D01*
X75273033Y-63714505D01*
X75285368Y-63679255D01*
X75295161Y-63592329D01*
X75322226Y-63527918D01*
X75330690Y-63518543D01*
X75824233Y-63025000D01*
X80730000Y-63025000D01*
X81305000Y-63025000D01*
X81305000Y-62000000D01*
X81182155Y-62000000D01*
X81122627Y-62006401D01*
X81122620Y-62006403D01*
X80987913Y-62056645D01*
X80987906Y-62056649D01*
X80872812Y-62142809D01*
X80872809Y-62142812D01*
X80786649Y-62257906D01*
X80786645Y-62257913D01*
X80736403Y-62392620D01*
X80736401Y-62392627D01*
X80730000Y-62452155D01*
X80730000Y-63025000D01*
X75824233Y-63025000D01*
X82112417Y-56736816D01*
X82173738Y-56703333D01*
X82200086Y-56700499D01*
X82812508Y-56700499D01*
X82812516Y-56700498D01*
X82812519Y-56700498D01*
X82868802Y-56694748D01*
X82915297Y-56689999D01*
X83081834Y-56634814D01*
X83231156Y-56542712D01*
X83324819Y-56449049D01*
X83386142Y-56415564D01*
X83455834Y-56420548D01*
X83500181Y-56449049D01*
X83593844Y-56542712D01*
X83743166Y-56634814D01*
X83909703Y-56689999D01*
X84012491Y-56700500D01*
X84637508Y-56700499D01*
X84637516Y-56700498D01*
X84637519Y-56700498D01*
X84693802Y-56694748D01*
X84740297Y-56689999D01*
X84906834Y-56634814D01*
X85056156Y-56542712D01*
X85180212Y-56418656D01*
X85272314Y-56269334D01*
X85327499Y-56102797D01*
X85338000Y-56000009D01*
X85337999Y-54999992D01*
X85334061Y-54961446D01*
X85327499Y-54897203D01*
X85327498Y-54897200D01*
X85321830Y-54880095D01*
X85272314Y-54730666D01*
X85180212Y-54581344D01*
X85056156Y-54457288D01*
X84906834Y-54365186D01*
X84740297Y-54310001D01*
X84730732Y-54309023D01*
X84711895Y-54307099D01*
X84647204Y-54280701D01*
X84607054Y-54223520D01*
X84600500Y-54183741D01*
X84600500Y-53039141D01*
X84620185Y-52972102D01*
X84672989Y-52926347D01*
X84681149Y-52922966D01*
X84692331Y-52918796D01*
X84692922Y-52918354D01*
X84730447Y-52890261D01*
X84807546Y-52832546D01*
X84893796Y-52717331D01*
X84944091Y-52582483D01*
X84950500Y-52522873D01*
X84950499Y-51477128D01*
X84944091Y-51417517D01*
X84893884Y-51282906D01*
X84893797Y-51282671D01*
X84893793Y-51282664D01*
X84807547Y-51167455D01*
X84807544Y-51167452D01*
X84692335Y-51081206D01*
X84692328Y-51081202D01*
X84557482Y-51030908D01*
X84557483Y-51030908D01*
X84497883Y-51024501D01*
X84497881Y-51024500D01*
X84497873Y-51024500D01*
X84497864Y-51024500D01*
X83502129Y-51024500D01*
X83502123Y-51024501D01*
X83442516Y-51030908D01*
X83299359Y-51084303D01*
X83298774Y-51082734D01*
X83240624Y-51095383D01*
X83200794Y-51083686D01*
X83200399Y-51084746D01*
X83057379Y-51031403D01*
X83057372Y-51031401D01*
X82997844Y-51025000D01*
X82750000Y-51025000D01*
X82750000Y-52975000D01*
X82997828Y-52975000D01*
X82997844Y-52974999D01*
X83057372Y-52968598D01*
X83057376Y-52968597D01*
X83200398Y-52915253D01*
X83201076Y-52917070D01*
X83258306Y-52904615D01*
X83299030Y-52916571D01*
X83299357Y-52915696D01*
X83307669Y-52918796D01*
X83318825Y-52922957D01*
X83318831Y-52922959D01*
X83374766Y-52964830D01*
X83399184Y-53030294D01*
X83399500Y-53039142D01*
X83399500Y-54338949D01*
X83379815Y-54405988D01*
X83327011Y-54451743D01*
X83257853Y-54461687D01*
X83210404Y-54444488D01*
X83081840Y-54365189D01*
X83081835Y-54365187D01*
X83081834Y-54365186D01*
X82915297Y-54310001D01*
X82915295Y-54310000D01*
X82812510Y-54299500D01*
X82187498Y-54299500D01*
X82187480Y-54299501D01*
X82084703Y-54310000D01*
X82084700Y-54310001D01*
X81918168Y-54365185D01*
X81918163Y-54365187D01*
X81768842Y-54457289D01*
X81644789Y-54581342D01*
X81552687Y-54730663D01*
X81552685Y-54730668D01*
X81524849Y-54814670D01*
X81497501Y-54897203D01*
X81497501Y-54897204D01*
X81497500Y-54897204D01*
X81487000Y-54999983D01*
X81487000Y-55612402D01*
X81467315Y-55679441D01*
X81450681Y-55700083D01*
X76212181Y-60938583D01*
X76150858Y-60972068D01*
X76081166Y-60967084D01*
X76025233Y-60925212D01*
X76000816Y-60859748D01*
X76000500Y-60850902D01*
X76000500Y-55585199D01*
X76020185Y-55518160D01*
X76029471Y-55505664D01*
X76155048Y-55332820D01*
X76155047Y-55332820D01*
X76155051Y-55332816D01*
X76251557Y-55143412D01*
X76317246Y-54941243D01*
X76350500Y-54731287D01*
X76350500Y-54268713D01*
X76317246Y-54058757D01*
X76251557Y-53856588D01*
X76155051Y-53667184D01*
X76155049Y-53667181D01*
X76155048Y-53667179D01*
X76030109Y-53495213D01*
X75879786Y-53344890D01*
X75707820Y-53219951D01*
X75518414Y-53123444D01*
X75518413Y-53123443D01*
X75518412Y-53123443D01*
X75316243Y-53057754D01*
X75316241Y-53057753D01*
X75316240Y-53057753D01*
X75154957Y-53032208D01*
X75106287Y-53024500D01*
X74893713Y-53024500D01*
X74845042Y-53032208D01*
X74683760Y-53057753D01*
X74481585Y-53123444D01*
X74292179Y-53219951D01*
X74120213Y-53344890D01*
X73969894Y-53495209D01*
X73969890Y-53495214D01*
X73850318Y-53659793D01*
X73794989Y-53702459D01*
X73725375Y-53708438D01*
X73663580Y-53675833D01*
X73649682Y-53659793D01*
X73530109Y-53495214D01*
X73530105Y-53495209D01*
X73379786Y-53344890D01*
X73207820Y-53219951D01*
X73018414Y-53123444D01*
X73018413Y-53123443D01*
X73018412Y-53123443D01*
X72816243Y-53057754D01*
X72816241Y-53057753D01*
X72816240Y-53057753D01*
X72654957Y-53032208D01*
X72606287Y-53024500D01*
X72393713Y-53024500D01*
X72345042Y-53032208D01*
X72183760Y-53057753D01*
X71981585Y-53123444D01*
X71792179Y-53219951D01*
X71620213Y-53344890D01*
X71469894Y-53495209D01*
X71469890Y-53495214D01*
X71350318Y-53659793D01*
X71294989Y-53702459D01*
X71225375Y-53708438D01*
X71163580Y-53675833D01*
X71149682Y-53659793D01*
X71030109Y-53495214D01*
X71030105Y-53495209D01*
X70879786Y-53344890D01*
X70707820Y-53219951D01*
X70518414Y-53123444D01*
X70518413Y-53123443D01*
X70518412Y-53123443D01*
X70316243Y-53057754D01*
X70316241Y-53057753D01*
X70316240Y-53057753D01*
X70154957Y-53032208D01*
X70106287Y-53024500D01*
X69893713Y-53024500D01*
X69845042Y-53032208D01*
X69683760Y-53057753D01*
X69481585Y-53123444D01*
X69292179Y-53219951D01*
X69120213Y-53344890D01*
X68969894Y-53495209D01*
X68969890Y-53495214D01*
X68850318Y-53659793D01*
X68794989Y-53702459D01*
X68725375Y-53708438D01*
X68663580Y-53675833D01*
X68649682Y-53659793D01*
X68530109Y-53495214D01*
X68530105Y-53495209D01*
X68379786Y-53344890D01*
X68207820Y-53219951D01*
X68018414Y-53123444D01*
X68018413Y-53123443D01*
X68018412Y-53123443D01*
X67816243Y-53057754D01*
X67816241Y-53057753D01*
X67816240Y-53057753D01*
X67654957Y-53032208D01*
X67606287Y-53024500D01*
X67393713Y-53024500D01*
X67345042Y-53032208D01*
X67183760Y-53057753D01*
X66981585Y-53123444D01*
X66792179Y-53219951D01*
X66620213Y-53344890D01*
X66469894Y-53495209D01*
X66469890Y-53495214D01*
X66350318Y-53659793D01*
X66294989Y-53702459D01*
X66225375Y-53708438D01*
X66163580Y-53675833D01*
X66149682Y-53659793D01*
X66030109Y-53495214D01*
X66030105Y-53495209D01*
X65879786Y-53344890D01*
X65707820Y-53219951D01*
X65518414Y-53123444D01*
X65518413Y-53123443D01*
X65518412Y-53123443D01*
X65316243Y-53057754D01*
X65316241Y-53057753D01*
X65316240Y-53057753D01*
X65154957Y-53032208D01*
X65106287Y-53024500D01*
X64893713Y-53024500D01*
X64845042Y-53032208D01*
X64683760Y-53057753D01*
X64481585Y-53123444D01*
X64292179Y-53219951D01*
X64120215Y-53344889D01*
X63981035Y-53484069D01*
X63919712Y-53517553D01*
X63850020Y-53512569D01*
X63794087Y-53470697D01*
X63787815Y-53461484D01*
X63692315Y-53306654D01*
X63568345Y-53182684D01*
X63419124Y-53090643D01*
X63419119Y-53090641D01*
X63252697Y-53035494D01*
X63252690Y-53035493D01*
X63149986Y-53025000D01*
X62750000Y-53025000D01*
X62750000Y-54095854D01*
X62683343Y-54057370D01*
X62562535Y-54025000D01*
X62437465Y-54025000D01*
X62316657Y-54057370D01*
X62250000Y-54095854D01*
X62250000Y-53025000D01*
X61850028Y-53025000D01*
X61850012Y-53025001D01*
X61747302Y-53035494D01*
X61580880Y-53090641D01*
X61580875Y-53090643D01*
X61431654Y-53182684D01*
X61307684Y-53306654D01*
X61215643Y-53455875D01*
X61215641Y-53455880D01*
X61160494Y-53622302D01*
X61160493Y-53622309D01*
X61150000Y-53725013D01*
X61150000Y-54250000D01*
X62095854Y-54250000D01*
X62057370Y-54316657D01*
X62025000Y-54437465D01*
X62025000Y-54562535D01*
X62057370Y-54683343D01*
X62095854Y-54750000D01*
X61150001Y-54750000D01*
X61150001Y-55274986D01*
X61160494Y-55377697D01*
X61215641Y-55544119D01*
X61215643Y-55544124D01*
X61307684Y-55693345D01*
X61402158Y-55787819D01*
X61435643Y-55849142D01*
X61430659Y-55918834D01*
X61388787Y-55974767D01*
X61323323Y-55999184D01*
X61314477Y-55999500D01*
X55486670Y-55999500D01*
X55486654Y-55999499D01*
X55479058Y-55999499D01*
X55320943Y-55999499D01*
X55247722Y-56019119D01*
X55168214Y-56040423D01*
X55168209Y-56040426D01*
X55031290Y-56119475D01*
X55031282Y-56119481D01*
X50712181Y-60438583D01*
X50650858Y-60472068D01*
X50581166Y-60467084D01*
X50525233Y-60425212D01*
X50500816Y-60359748D01*
X50500500Y-60350902D01*
X50500500Y-52250000D01*
X81550000Y-52250000D01*
X81550000Y-52522844D01*
X81556401Y-52582372D01*
X81556403Y-52582379D01*
X81606645Y-52717086D01*
X81606649Y-52717093D01*
X81692809Y-52832187D01*
X81692812Y-52832190D01*
X81807906Y-52918350D01*
X81807913Y-52918354D01*
X81942620Y-52968596D01*
X81942627Y-52968598D01*
X82002155Y-52974999D01*
X82002172Y-52975000D01*
X82250000Y-52975000D01*
X82250000Y-52250000D01*
X81550000Y-52250000D01*
X50500500Y-52250000D01*
X50500500Y-51750000D01*
X81550000Y-51750000D01*
X82250000Y-51750000D01*
X82250000Y-51025000D01*
X82002155Y-51025000D01*
X81942627Y-51031401D01*
X81942620Y-51031403D01*
X81807913Y-51081645D01*
X81807906Y-51081649D01*
X81692812Y-51167809D01*
X81692809Y-51167812D01*
X81606649Y-51282906D01*
X81606645Y-51282913D01*
X81556403Y-51417620D01*
X81556401Y-51417627D01*
X81550000Y-51477155D01*
X81550000Y-51750000D01*
X50500500Y-51750000D01*
X50500500Y-50624500D01*
X50520185Y-50557461D01*
X50572989Y-50511706D01*
X50624500Y-50500500D01*
X93210902Y-50500500D01*
X93277941Y-50520185D01*
G37*
%TD.AperFunction*%
%TA.AperFunction,Conductor*%
G36*
X95507941Y-51620185D02*
G01*
X95553696Y-51672989D01*
X95563640Y-51742147D01*
X95534615Y-51805703D01*
X95528583Y-51812181D01*
X85377582Y-61963181D01*
X85316259Y-61996666D01*
X85289901Y-61999500D01*
X84992130Y-61999500D01*
X84992123Y-61999501D01*
X84932516Y-62005908D01*
X84797671Y-62056202D01*
X84789886Y-62060454D01*
X84788153Y-62057280D01*
X84738698Y-62075659D01*
X84670443Y-62060725D01*
X84669497Y-62060117D01*
X84662328Y-62056202D01*
X84527486Y-62005910D01*
X84527485Y-62005909D01*
X84527483Y-62005909D01*
X84467873Y-61999500D01*
X84467864Y-61999500D01*
X84009095Y-61999500D01*
X83942056Y-61979815D01*
X83896301Y-61927011D01*
X83886357Y-61857853D01*
X83915382Y-61794297D01*
X83921399Y-61787834D01*
X94072417Y-51636819D01*
X94133740Y-51603334D01*
X94160098Y-51600500D01*
X95440902Y-51600500D01*
X95507941Y-51620185D01*
G37*
%TD.AperFunction*%
%TA.AperFunction,Conductor*%
G36*
X97547942Y-52120185D02*
G01*
X97593697Y-52172989D01*
X97603641Y-52242147D01*
X97574616Y-52305703D01*
X97568584Y-52312181D01*
X87917582Y-61963181D01*
X87856259Y-61996666D01*
X87829901Y-61999500D01*
X87532130Y-61999500D01*
X87532123Y-61999501D01*
X87472516Y-62005908D01*
X87337671Y-62056202D01*
X87329886Y-62060454D01*
X87328153Y-62057280D01*
X87278698Y-62075659D01*
X87210443Y-62060725D01*
X87209494Y-62060115D01*
X87205859Y-62058130D01*
X87204877Y-62057148D01*
X87195808Y-62051320D01*
X87195350Y-62050978D01*
X87196785Y-62049055D01*
X87156457Y-62008721D01*
X87141611Y-61940447D01*
X87166032Y-61874984D01*
X87177606Y-61861628D01*
X96902417Y-52136819D01*
X96963740Y-52103334D01*
X96990098Y-52100500D01*
X97480903Y-52100500D01*
X97547942Y-52120185D01*
G37*
%TD.AperFunction*%
%TD*%
M02*
