%TF.GenerationSoftware,KiCad,Pcbnew,8.0.1*%
%TF.CreationDate,2024-06-27T20:22:44+09:00*%
%TF.ProjectId,GPIO_board,4750494f-5f62-46f6-9172-642e6b696361,rev?*%
%TF.SameCoordinates,Original*%
%TF.FileFunction,Legend,Top*%
%TF.FilePolarity,Positive*%
%FSLAX46Y46*%
G04 Gerber Fmt 4.6, Leading zero omitted, Abs format (unit mm)*
G04 Created by KiCad (PCBNEW 8.0.1) date 2024-06-27 20:22:44*
%MOMM*%
%LPD*%
G01*
G04 APERTURE LIST*
%ADD10C,0.100000*%
%ADD11C,0.150000*%
%ADD12C,0.254000*%
%ADD13C,0.120000*%
%ADD14C,0.200000*%
G04 APERTURE END LIST*
D10*
X64327693Y-76420038D02*
X64232455Y-76372419D01*
X64232455Y-76372419D02*
X64089598Y-76372419D01*
X64089598Y-76372419D02*
X63946741Y-76420038D01*
X63946741Y-76420038D02*
X63851503Y-76515276D01*
X63851503Y-76515276D02*
X63803884Y-76610514D01*
X63803884Y-76610514D02*
X63756265Y-76800990D01*
X63756265Y-76800990D02*
X63756265Y-76943847D01*
X63756265Y-76943847D02*
X63803884Y-77134323D01*
X63803884Y-77134323D02*
X63851503Y-77229561D01*
X63851503Y-77229561D02*
X63946741Y-77324800D01*
X63946741Y-77324800D02*
X64089598Y-77372419D01*
X64089598Y-77372419D02*
X64184836Y-77372419D01*
X64184836Y-77372419D02*
X64327693Y-77324800D01*
X64327693Y-77324800D02*
X64375312Y-77277180D01*
X64375312Y-77277180D02*
X64375312Y-76943847D01*
X64375312Y-76943847D02*
X64184836Y-76943847D01*
X64803884Y-77372419D02*
X64803884Y-76372419D01*
X64803884Y-76372419D02*
X65375312Y-77372419D01*
X65375312Y-77372419D02*
X65375312Y-76372419D01*
X65851503Y-77372419D02*
X65851503Y-76372419D01*
X65851503Y-76372419D02*
X66089598Y-76372419D01*
X66089598Y-76372419D02*
X66232455Y-76420038D01*
X66232455Y-76420038D02*
X66327693Y-76515276D01*
X66327693Y-76515276D02*
X66375312Y-76610514D01*
X66375312Y-76610514D02*
X66422931Y-76800990D01*
X66422931Y-76800990D02*
X66422931Y-76943847D01*
X66422931Y-76943847D02*
X66375312Y-77134323D01*
X66375312Y-77134323D02*
X66327693Y-77229561D01*
X66327693Y-77229561D02*
X66232455Y-77324800D01*
X66232455Y-77324800D02*
X66089598Y-77372419D01*
X66089598Y-77372419D02*
X65851503Y-77372419D01*
X63780074Y-73872419D02*
X63303884Y-73872419D01*
X63303884Y-73872419D02*
X63256265Y-74348609D01*
X63256265Y-74348609D02*
X63303884Y-74300990D01*
X63303884Y-74300990D02*
X63399122Y-74253371D01*
X63399122Y-74253371D02*
X63637217Y-74253371D01*
X63637217Y-74253371D02*
X63732455Y-74300990D01*
X63732455Y-74300990D02*
X63780074Y-74348609D01*
X63780074Y-74348609D02*
X63827693Y-74443847D01*
X63827693Y-74443847D02*
X63827693Y-74681942D01*
X63827693Y-74681942D02*
X63780074Y-74777180D01*
X63780074Y-74777180D02*
X63732455Y-74824800D01*
X63732455Y-74824800D02*
X63637217Y-74872419D01*
X63637217Y-74872419D02*
X63399122Y-74872419D01*
X63399122Y-74872419D02*
X63303884Y-74824800D01*
X63303884Y-74824800D02*
X63256265Y-74777180D01*
X64113408Y-73872419D02*
X64446741Y-74872419D01*
X64446741Y-74872419D02*
X64780074Y-73872419D01*
X52875312Y-112872419D02*
X52541979Y-112396228D01*
X52303884Y-112872419D02*
X52303884Y-111872419D01*
X52303884Y-111872419D02*
X52684836Y-111872419D01*
X52684836Y-111872419D02*
X52780074Y-111920038D01*
X52780074Y-111920038D02*
X52827693Y-111967657D01*
X52827693Y-111967657D02*
X52875312Y-112062895D01*
X52875312Y-112062895D02*
X52875312Y-112205752D01*
X52875312Y-112205752D02*
X52827693Y-112300990D01*
X52827693Y-112300990D02*
X52780074Y-112348609D01*
X52780074Y-112348609D02*
X52684836Y-112396228D01*
X52684836Y-112396228D02*
X52303884Y-112396228D01*
X53065789Y-112967657D02*
X53827693Y-112967657D01*
X54065789Y-112872419D02*
X54065789Y-111872419D01*
X54065789Y-111872419D02*
X54446741Y-111872419D01*
X54446741Y-111872419D02*
X54541979Y-111920038D01*
X54541979Y-111920038D02*
X54589598Y-111967657D01*
X54589598Y-111967657D02*
X54637217Y-112062895D01*
X54637217Y-112062895D02*
X54637217Y-112205752D01*
X54637217Y-112205752D02*
X54589598Y-112300990D01*
X54589598Y-112300990D02*
X54541979Y-112348609D01*
X54541979Y-112348609D02*
X54446741Y-112396228D01*
X54446741Y-112396228D02*
X54065789Y-112396228D01*
X54970551Y-111872419D02*
X55208646Y-112872419D01*
X55208646Y-112872419D02*
X55399122Y-112158133D01*
X55399122Y-112158133D02*
X55589598Y-112872419D01*
X55589598Y-112872419D02*
X55827694Y-111872419D01*
X56208646Y-112872419D02*
X56208646Y-111872419D01*
X56208646Y-111872419D02*
X56541979Y-112586704D01*
X56541979Y-112586704D02*
X56875312Y-111872419D01*
X56875312Y-111872419D02*
X56875312Y-112872419D01*
X63327693Y-112420038D02*
X63232455Y-112372419D01*
X63232455Y-112372419D02*
X63089598Y-112372419D01*
X63089598Y-112372419D02*
X62946741Y-112420038D01*
X62946741Y-112420038D02*
X62851503Y-112515276D01*
X62851503Y-112515276D02*
X62803884Y-112610514D01*
X62803884Y-112610514D02*
X62756265Y-112800990D01*
X62756265Y-112800990D02*
X62756265Y-112943847D01*
X62756265Y-112943847D02*
X62803884Y-113134323D01*
X62803884Y-113134323D02*
X62851503Y-113229561D01*
X62851503Y-113229561D02*
X62946741Y-113324800D01*
X62946741Y-113324800D02*
X63089598Y-113372419D01*
X63089598Y-113372419D02*
X63184836Y-113372419D01*
X63184836Y-113372419D02*
X63327693Y-113324800D01*
X63327693Y-113324800D02*
X63375312Y-113277180D01*
X63375312Y-113277180D02*
X63375312Y-112943847D01*
X63375312Y-112943847D02*
X63184836Y-112943847D01*
X63803884Y-113372419D02*
X63803884Y-112372419D01*
X63803884Y-112372419D02*
X64375312Y-113372419D01*
X64375312Y-113372419D02*
X64375312Y-112372419D01*
X64851503Y-113372419D02*
X64851503Y-112372419D01*
X64851503Y-112372419D02*
X65089598Y-112372419D01*
X65089598Y-112372419D02*
X65232455Y-112420038D01*
X65232455Y-112420038D02*
X65327693Y-112515276D01*
X65327693Y-112515276D02*
X65375312Y-112610514D01*
X65375312Y-112610514D02*
X65422931Y-112800990D01*
X65422931Y-112800990D02*
X65422931Y-112943847D01*
X65422931Y-112943847D02*
X65375312Y-113134323D01*
X65375312Y-113134323D02*
X65327693Y-113229561D01*
X65327693Y-113229561D02*
X65232455Y-113324800D01*
X65232455Y-113324800D02*
X65089598Y-113372419D01*
X65089598Y-113372419D02*
X64851503Y-113372419D01*
X63780074Y-118372419D02*
X63303884Y-118372419D01*
X63303884Y-118372419D02*
X63303884Y-117372419D01*
X63875313Y-118467657D02*
X64637217Y-118467657D01*
X65208646Y-117848609D02*
X65351503Y-117896228D01*
X65351503Y-117896228D02*
X65399122Y-117943847D01*
X65399122Y-117943847D02*
X65446741Y-118039085D01*
X65446741Y-118039085D02*
X65446741Y-118181942D01*
X65446741Y-118181942D02*
X65399122Y-118277180D01*
X65399122Y-118277180D02*
X65351503Y-118324800D01*
X65351503Y-118324800D02*
X65256265Y-118372419D01*
X65256265Y-118372419D02*
X64875313Y-118372419D01*
X64875313Y-118372419D02*
X64875313Y-117372419D01*
X64875313Y-117372419D02*
X65208646Y-117372419D01*
X65208646Y-117372419D02*
X65303884Y-117420038D01*
X65303884Y-117420038D02*
X65351503Y-117467657D01*
X65351503Y-117467657D02*
X65399122Y-117562895D01*
X65399122Y-117562895D02*
X65399122Y-117658133D01*
X65399122Y-117658133D02*
X65351503Y-117753371D01*
X65351503Y-117753371D02*
X65303884Y-117800990D01*
X65303884Y-117800990D02*
X65208646Y-117848609D01*
X65208646Y-117848609D02*
X64875313Y-117848609D01*
X63827693Y-106920038D02*
X63732455Y-106872419D01*
X63732455Y-106872419D02*
X63589598Y-106872419D01*
X63589598Y-106872419D02*
X63446741Y-106920038D01*
X63446741Y-106920038D02*
X63351503Y-107015276D01*
X63351503Y-107015276D02*
X63303884Y-107110514D01*
X63303884Y-107110514D02*
X63256265Y-107300990D01*
X63256265Y-107300990D02*
X63256265Y-107443847D01*
X63256265Y-107443847D02*
X63303884Y-107634323D01*
X63303884Y-107634323D02*
X63351503Y-107729561D01*
X63351503Y-107729561D02*
X63446741Y-107824800D01*
X63446741Y-107824800D02*
X63589598Y-107872419D01*
X63589598Y-107872419D02*
X63684836Y-107872419D01*
X63684836Y-107872419D02*
X63827693Y-107824800D01*
X63827693Y-107824800D02*
X63875312Y-107777180D01*
X63875312Y-107777180D02*
X63875312Y-107443847D01*
X63875312Y-107443847D02*
X63684836Y-107443847D01*
X64303884Y-107872419D02*
X64303884Y-106872419D01*
X64303884Y-106872419D02*
X64875312Y-107872419D01*
X64875312Y-107872419D02*
X64875312Y-106872419D01*
X65351503Y-107872419D02*
X65351503Y-106872419D01*
X65351503Y-106872419D02*
X65589598Y-106872419D01*
X65589598Y-106872419D02*
X65732455Y-106920038D01*
X65732455Y-106920038D02*
X65827693Y-107015276D01*
X65827693Y-107015276D02*
X65875312Y-107110514D01*
X65875312Y-107110514D02*
X65922931Y-107300990D01*
X65922931Y-107300990D02*
X65922931Y-107443847D01*
X65922931Y-107443847D02*
X65875312Y-107634323D01*
X65875312Y-107634323D02*
X65827693Y-107729561D01*
X65827693Y-107729561D02*
X65732455Y-107824800D01*
X65732455Y-107824800D02*
X65589598Y-107872419D01*
X65589598Y-107872419D02*
X65351503Y-107872419D01*
X63780074Y-115872419D02*
X63303884Y-115872419D01*
X63303884Y-115872419D02*
X63303884Y-114872419D01*
X63875313Y-115967657D02*
X64637217Y-115967657D01*
X64827694Y-115586704D02*
X65303884Y-115586704D01*
X64732456Y-115872419D02*
X65065789Y-114872419D01*
X65065789Y-114872419D02*
X65399122Y-115872419D01*
X54208646Y-71872419D02*
X54827693Y-71872419D01*
X54827693Y-71872419D02*
X54494360Y-72253371D01*
X54494360Y-72253371D02*
X54637217Y-72253371D01*
X54637217Y-72253371D02*
X54732455Y-72300990D01*
X54732455Y-72300990D02*
X54780074Y-72348609D01*
X54780074Y-72348609D02*
X54827693Y-72443847D01*
X54827693Y-72443847D02*
X54827693Y-72681942D01*
X54827693Y-72681942D02*
X54780074Y-72777180D01*
X54780074Y-72777180D02*
X54732455Y-72824800D01*
X54732455Y-72824800D02*
X54637217Y-72872419D01*
X54637217Y-72872419D02*
X54351503Y-72872419D01*
X54351503Y-72872419D02*
X54256265Y-72824800D01*
X54256265Y-72824800D02*
X54208646Y-72777180D01*
X55113408Y-71872419D02*
X55446741Y-72872419D01*
X55446741Y-72872419D02*
X55780074Y-71872419D01*
X56018170Y-71872419D02*
X56637217Y-71872419D01*
X56637217Y-71872419D02*
X56303884Y-72253371D01*
X56303884Y-72253371D02*
X56446741Y-72253371D01*
X56446741Y-72253371D02*
X56541979Y-72300990D01*
X56541979Y-72300990D02*
X56589598Y-72348609D01*
X56589598Y-72348609D02*
X56637217Y-72443847D01*
X56637217Y-72443847D02*
X56637217Y-72681942D01*
X56637217Y-72681942D02*
X56589598Y-72777180D01*
X56589598Y-72777180D02*
X56541979Y-72824800D01*
X56541979Y-72824800D02*
X56446741Y-72872419D01*
X56446741Y-72872419D02*
X56161027Y-72872419D01*
X56161027Y-72872419D02*
X56065789Y-72824800D01*
X56065789Y-72824800D02*
X56018170Y-72777180D01*
X54827693Y-101920038D02*
X54732455Y-101872419D01*
X54732455Y-101872419D02*
X54589598Y-101872419D01*
X54589598Y-101872419D02*
X54446741Y-101920038D01*
X54446741Y-101920038D02*
X54351503Y-102015276D01*
X54351503Y-102015276D02*
X54303884Y-102110514D01*
X54303884Y-102110514D02*
X54256265Y-102300990D01*
X54256265Y-102300990D02*
X54256265Y-102443847D01*
X54256265Y-102443847D02*
X54303884Y-102634323D01*
X54303884Y-102634323D02*
X54351503Y-102729561D01*
X54351503Y-102729561D02*
X54446741Y-102824800D01*
X54446741Y-102824800D02*
X54589598Y-102872419D01*
X54589598Y-102872419D02*
X54684836Y-102872419D01*
X54684836Y-102872419D02*
X54827693Y-102824800D01*
X54827693Y-102824800D02*
X54875312Y-102777180D01*
X54875312Y-102777180D02*
X54875312Y-102443847D01*
X54875312Y-102443847D02*
X54684836Y-102443847D01*
X55303884Y-102872419D02*
X55303884Y-101872419D01*
X55303884Y-101872419D02*
X55875312Y-102872419D01*
X55875312Y-102872419D02*
X55875312Y-101872419D01*
X56351503Y-102872419D02*
X56351503Y-101872419D01*
X56351503Y-101872419D02*
X56589598Y-101872419D01*
X56589598Y-101872419D02*
X56732455Y-101920038D01*
X56732455Y-101920038D02*
X56827693Y-102015276D01*
X56827693Y-102015276D02*
X56875312Y-102110514D01*
X56875312Y-102110514D02*
X56922931Y-102300990D01*
X56922931Y-102300990D02*
X56922931Y-102443847D01*
X56922931Y-102443847D02*
X56875312Y-102634323D01*
X56875312Y-102634323D02*
X56827693Y-102729561D01*
X56827693Y-102729561D02*
X56732455Y-102824800D01*
X56732455Y-102824800D02*
X56589598Y-102872419D01*
X56589598Y-102872419D02*
X56351503Y-102872419D01*
X104480262Y-61672306D02*
X104432643Y-61767544D01*
X104432643Y-61767544D02*
X104432643Y-61910401D01*
X104432643Y-61910401D02*
X104480262Y-62053258D01*
X104480262Y-62053258D02*
X104575500Y-62148496D01*
X104575500Y-62148496D02*
X104670738Y-62196115D01*
X104670738Y-62196115D02*
X104861214Y-62243734D01*
X104861214Y-62243734D02*
X105004071Y-62243734D01*
X105004071Y-62243734D02*
X105194547Y-62196115D01*
X105194547Y-62196115D02*
X105289785Y-62148496D01*
X105289785Y-62148496D02*
X105385024Y-62053258D01*
X105385024Y-62053258D02*
X105432643Y-61910401D01*
X105432643Y-61910401D02*
X105432643Y-61815163D01*
X105432643Y-61815163D02*
X105385024Y-61672306D01*
X105385024Y-61672306D02*
X105337404Y-61624687D01*
X105337404Y-61624687D02*
X105004071Y-61624687D01*
X105004071Y-61624687D02*
X105004071Y-61815163D01*
X105432643Y-61196115D02*
X104432643Y-61196115D01*
X104432643Y-61196115D02*
X105432643Y-60624687D01*
X105432643Y-60624687D02*
X104432643Y-60624687D01*
X105432643Y-60148496D02*
X104432643Y-60148496D01*
X104432643Y-60148496D02*
X104432643Y-59910401D01*
X104432643Y-59910401D02*
X104480262Y-59767544D01*
X104480262Y-59767544D02*
X104575500Y-59672306D01*
X104575500Y-59672306D02*
X104670738Y-59624687D01*
X104670738Y-59624687D02*
X104861214Y-59577068D01*
X104861214Y-59577068D02*
X105004071Y-59577068D01*
X105004071Y-59577068D02*
X105194547Y-59624687D01*
X105194547Y-59624687D02*
X105289785Y-59672306D01*
X105289785Y-59672306D02*
X105385024Y-59767544D01*
X105385024Y-59767544D02*
X105432643Y-59910401D01*
X105432643Y-59910401D02*
X105432643Y-60148496D01*
X106042587Y-61719925D02*
X106042587Y-62196115D01*
X106042587Y-62196115D02*
X106518777Y-62243734D01*
X106518777Y-62243734D02*
X106471158Y-62196115D01*
X106471158Y-62196115D02*
X106423539Y-62100877D01*
X106423539Y-62100877D02*
X106423539Y-61862782D01*
X106423539Y-61862782D02*
X106471158Y-61767544D01*
X106471158Y-61767544D02*
X106518777Y-61719925D01*
X106518777Y-61719925D02*
X106614015Y-61672306D01*
X106614015Y-61672306D02*
X106852110Y-61672306D01*
X106852110Y-61672306D02*
X106947348Y-61719925D01*
X106947348Y-61719925D02*
X106994968Y-61767544D01*
X106994968Y-61767544D02*
X107042587Y-61862782D01*
X107042587Y-61862782D02*
X107042587Y-62100877D01*
X107042587Y-62100877D02*
X106994968Y-62196115D01*
X106994968Y-62196115D02*
X106947348Y-62243734D01*
X106042587Y-61386591D02*
X107042587Y-61053258D01*
X107042587Y-61053258D02*
X106042587Y-60719925D01*
X108366816Y-62243734D02*
X108366816Y-61767544D01*
X108652531Y-62338972D02*
X107652531Y-62005639D01*
X107652531Y-62005639D02*
X108652531Y-61672306D01*
X109738665Y-61862782D02*
X109786284Y-61719925D01*
X109786284Y-61719925D02*
X109833903Y-61672306D01*
X109833903Y-61672306D02*
X109929141Y-61624687D01*
X109929141Y-61624687D02*
X110071998Y-61624687D01*
X110071998Y-61624687D02*
X110167236Y-61672306D01*
X110167236Y-61672306D02*
X110214856Y-61719925D01*
X110214856Y-61719925D02*
X110262475Y-61815163D01*
X110262475Y-61815163D02*
X110262475Y-62196115D01*
X110262475Y-62196115D02*
X109262475Y-62196115D01*
X109262475Y-62196115D02*
X109262475Y-61862782D01*
X109262475Y-61862782D02*
X109310094Y-61767544D01*
X109310094Y-61767544D02*
X109357713Y-61719925D01*
X109357713Y-61719925D02*
X109452951Y-61672306D01*
X109452951Y-61672306D02*
X109548189Y-61672306D01*
X109548189Y-61672306D02*
X109643427Y-61719925D01*
X109643427Y-61719925D02*
X109691046Y-61767544D01*
X109691046Y-61767544D02*
X109738665Y-61862782D01*
X109738665Y-61862782D02*
X109738665Y-62196115D01*
X110872419Y-62291353D02*
X110872419Y-61624687D01*
X110872419Y-61624687D02*
X111872419Y-62291353D01*
X111872419Y-62291353D02*
X111872419Y-61624687D01*
X54875312Y-87872419D02*
X54541979Y-87396228D01*
X54303884Y-87872419D02*
X54303884Y-86872419D01*
X54303884Y-86872419D02*
X54684836Y-86872419D01*
X54684836Y-86872419D02*
X54780074Y-86920038D01*
X54780074Y-86920038D02*
X54827693Y-86967657D01*
X54827693Y-86967657D02*
X54875312Y-87062895D01*
X54875312Y-87062895D02*
X54875312Y-87205752D01*
X54875312Y-87205752D02*
X54827693Y-87300990D01*
X54827693Y-87300990D02*
X54780074Y-87348609D01*
X54780074Y-87348609D02*
X54684836Y-87396228D01*
X54684836Y-87396228D02*
X54303884Y-87396228D01*
X55065789Y-87967657D02*
X55827693Y-87967657D01*
X56399122Y-87348609D02*
X56541979Y-87396228D01*
X56541979Y-87396228D02*
X56589598Y-87443847D01*
X56589598Y-87443847D02*
X56637217Y-87539085D01*
X56637217Y-87539085D02*
X56637217Y-87681942D01*
X56637217Y-87681942D02*
X56589598Y-87777180D01*
X56589598Y-87777180D02*
X56541979Y-87824800D01*
X56541979Y-87824800D02*
X56446741Y-87872419D01*
X56446741Y-87872419D02*
X56065789Y-87872419D01*
X56065789Y-87872419D02*
X56065789Y-86872419D01*
X56065789Y-86872419D02*
X56399122Y-86872419D01*
X56399122Y-86872419D02*
X56494360Y-86920038D01*
X56494360Y-86920038D02*
X56541979Y-86967657D01*
X56541979Y-86967657D02*
X56589598Y-87062895D01*
X56589598Y-87062895D02*
X56589598Y-87158133D01*
X56589598Y-87158133D02*
X56541979Y-87253371D01*
X56541979Y-87253371D02*
X56494360Y-87300990D01*
X56494360Y-87300990D02*
X56399122Y-87348609D01*
X56399122Y-87348609D02*
X56065789Y-87348609D01*
X54208646Y-91872419D02*
X54827693Y-91872419D01*
X54827693Y-91872419D02*
X54494360Y-92253371D01*
X54494360Y-92253371D02*
X54637217Y-92253371D01*
X54637217Y-92253371D02*
X54732455Y-92300990D01*
X54732455Y-92300990D02*
X54780074Y-92348609D01*
X54780074Y-92348609D02*
X54827693Y-92443847D01*
X54827693Y-92443847D02*
X54827693Y-92681942D01*
X54827693Y-92681942D02*
X54780074Y-92777180D01*
X54780074Y-92777180D02*
X54732455Y-92824800D01*
X54732455Y-92824800D02*
X54637217Y-92872419D01*
X54637217Y-92872419D02*
X54351503Y-92872419D01*
X54351503Y-92872419D02*
X54256265Y-92824800D01*
X54256265Y-92824800D02*
X54208646Y-92777180D01*
X55113408Y-91872419D02*
X55446741Y-92872419D01*
X55446741Y-92872419D02*
X55780074Y-91872419D01*
X56018170Y-91872419D02*
X56637217Y-91872419D01*
X56637217Y-91872419D02*
X56303884Y-92253371D01*
X56303884Y-92253371D02*
X56446741Y-92253371D01*
X56446741Y-92253371D02*
X56541979Y-92300990D01*
X56541979Y-92300990D02*
X56589598Y-92348609D01*
X56589598Y-92348609D02*
X56637217Y-92443847D01*
X56637217Y-92443847D02*
X56637217Y-92681942D01*
X56637217Y-92681942D02*
X56589598Y-92777180D01*
X56589598Y-92777180D02*
X56541979Y-92824800D01*
X56541979Y-92824800D02*
X56446741Y-92872419D01*
X56446741Y-92872419D02*
X56161027Y-92872419D01*
X56161027Y-92872419D02*
X56065789Y-92824800D01*
X56065789Y-92824800D02*
X56018170Y-92777180D01*
X63780074Y-71372419D02*
X63303884Y-71372419D01*
X63303884Y-71372419D02*
X63256265Y-71848609D01*
X63256265Y-71848609D02*
X63303884Y-71800990D01*
X63303884Y-71800990D02*
X63399122Y-71753371D01*
X63399122Y-71753371D02*
X63637217Y-71753371D01*
X63637217Y-71753371D02*
X63732455Y-71800990D01*
X63732455Y-71800990D02*
X63780074Y-71848609D01*
X63780074Y-71848609D02*
X63827693Y-71943847D01*
X63827693Y-71943847D02*
X63827693Y-72181942D01*
X63827693Y-72181942D02*
X63780074Y-72277180D01*
X63780074Y-72277180D02*
X63732455Y-72324800D01*
X63732455Y-72324800D02*
X63637217Y-72372419D01*
X63637217Y-72372419D02*
X63399122Y-72372419D01*
X63399122Y-72372419D02*
X63303884Y-72324800D01*
X63303884Y-72324800D02*
X63256265Y-72277180D01*
X64113408Y-71372419D02*
X64446741Y-72372419D01*
X64446741Y-72372419D02*
X64780074Y-71372419D01*
X95848609Y-57696115D02*
X95848609Y-57362782D01*
X96372419Y-57219925D02*
X96372419Y-57696115D01*
X96372419Y-57696115D02*
X95372419Y-57696115D01*
X95372419Y-57696115D02*
X95372419Y-57219925D01*
X96372419Y-56791353D02*
X95372419Y-56791353D01*
X95372419Y-56791353D02*
X96372419Y-56219925D01*
X96372419Y-56219925D02*
X95372419Y-56219925D01*
X96277180Y-55172306D02*
X96324800Y-55219925D01*
X96324800Y-55219925D02*
X96372419Y-55362782D01*
X96372419Y-55362782D02*
X96372419Y-55458020D01*
X96372419Y-55458020D02*
X96324800Y-55600877D01*
X96324800Y-55600877D02*
X96229561Y-55696115D01*
X96229561Y-55696115D02*
X96134323Y-55743734D01*
X96134323Y-55743734D02*
X95943847Y-55791353D01*
X95943847Y-55791353D02*
X95800990Y-55791353D01*
X95800990Y-55791353D02*
X95610514Y-55743734D01*
X95610514Y-55743734D02*
X95515276Y-55696115D01*
X95515276Y-55696115D02*
X95420038Y-55600877D01*
X95420038Y-55600877D02*
X95372419Y-55458020D01*
X95372419Y-55458020D02*
X95372419Y-55362782D01*
X95372419Y-55362782D02*
X95420038Y-55219925D01*
X95420038Y-55219925D02*
X95467657Y-55172306D01*
X96467657Y-54981830D02*
X96467657Y-54219925D01*
X96372419Y-53410401D02*
X95896228Y-53743734D01*
X96372419Y-53981829D02*
X95372419Y-53981829D01*
X95372419Y-53981829D02*
X95372419Y-53600877D01*
X95372419Y-53600877D02*
X95420038Y-53505639D01*
X95420038Y-53505639D02*
X95467657Y-53458020D01*
X95467657Y-53458020D02*
X95562895Y-53410401D01*
X95562895Y-53410401D02*
X95705752Y-53410401D01*
X95705752Y-53410401D02*
X95800990Y-53458020D01*
X95800990Y-53458020D02*
X95848609Y-53505639D01*
X95848609Y-53505639D02*
X95896228Y-53600877D01*
X95896228Y-53600877D02*
X95896228Y-53981829D01*
X54875312Y-90372419D02*
X54541979Y-89896228D01*
X54303884Y-90372419D02*
X54303884Y-89372419D01*
X54303884Y-89372419D02*
X54684836Y-89372419D01*
X54684836Y-89372419D02*
X54780074Y-89420038D01*
X54780074Y-89420038D02*
X54827693Y-89467657D01*
X54827693Y-89467657D02*
X54875312Y-89562895D01*
X54875312Y-89562895D02*
X54875312Y-89705752D01*
X54875312Y-89705752D02*
X54827693Y-89800990D01*
X54827693Y-89800990D02*
X54780074Y-89848609D01*
X54780074Y-89848609D02*
X54684836Y-89896228D01*
X54684836Y-89896228D02*
X54303884Y-89896228D01*
X55065789Y-90467657D02*
X55827693Y-90467657D01*
X55970551Y-89372419D02*
X56637217Y-89372419D01*
X56637217Y-89372419D02*
X55970551Y-90372419D01*
X55970551Y-90372419D02*
X56637217Y-90372419D01*
X63827693Y-86920038D02*
X63732455Y-86872419D01*
X63732455Y-86872419D02*
X63589598Y-86872419D01*
X63589598Y-86872419D02*
X63446741Y-86920038D01*
X63446741Y-86920038D02*
X63351503Y-87015276D01*
X63351503Y-87015276D02*
X63303884Y-87110514D01*
X63303884Y-87110514D02*
X63256265Y-87300990D01*
X63256265Y-87300990D02*
X63256265Y-87443847D01*
X63256265Y-87443847D02*
X63303884Y-87634323D01*
X63303884Y-87634323D02*
X63351503Y-87729561D01*
X63351503Y-87729561D02*
X63446741Y-87824800D01*
X63446741Y-87824800D02*
X63589598Y-87872419D01*
X63589598Y-87872419D02*
X63684836Y-87872419D01*
X63684836Y-87872419D02*
X63827693Y-87824800D01*
X63827693Y-87824800D02*
X63875312Y-87777180D01*
X63875312Y-87777180D02*
X63875312Y-87443847D01*
X63875312Y-87443847D02*
X63684836Y-87443847D01*
X64303884Y-87872419D02*
X64303884Y-86872419D01*
X64303884Y-86872419D02*
X64875312Y-87872419D01*
X64875312Y-87872419D02*
X64875312Y-86872419D01*
X65351503Y-87872419D02*
X65351503Y-86872419D01*
X65351503Y-86872419D02*
X65589598Y-86872419D01*
X65589598Y-86872419D02*
X65732455Y-86920038D01*
X65732455Y-86920038D02*
X65827693Y-87015276D01*
X65827693Y-87015276D02*
X65875312Y-87110514D01*
X65875312Y-87110514D02*
X65922931Y-87300990D01*
X65922931Y-87300990D02*
X65922931Y-87443847D01*
X65922931Y-87443847D02*
X65875312Y-87634323D01*
X65875312Y-87634323D02*
X65827693Y-87729561D01*
X65827693Y-87729561D02*
X65732455Y-87824800D01*
X65732455Y-87824800D02*
X65589598Y-87872419D01*
X65589598Y-87872419D02*
X65351503Y-87872419D01*
X115348609Y-57196115D02*
X115348609Y-56862782D01*
X115872419Y-56719925D02*
X115872419Y-57196115D01*
X115872419Y-57196115D02*
X114872419Y-57196115D01*
X114872419Y-57196115D02*
X114872419Y-56719925D01*
X115872419Y-56291353D02*
X114872419Y-56291353D01*
X114872419Y-56291353D02*
X115872419Y-55719925D01*
X115872419Y-55719925D02*
X114872419Y-55719925D01*
X115777180Y-54672306D02*
X115824800Y-54719925D01*
X115824800Y-54719925D02*
X115872419Y-54862782D01*
X115872419Y-54862782D02*
X115872419Y-54958020D01*
X115872419Y-54958020D02*
X115824800Y-55100877D01*
X115824800Y-55100877D02*
X115729561Y-55196115D01*
X115729561Y-55196115D02*
X115634323Y-55243734D01*
X115634323Y-55243734D02*
X115443847Y-55291353D01*
X115443847Y-55291353D02*
X115300990Y-55291353D01*
X115300990Y-55291353D02*
X115110514Y-55243734D01*
X115110514Y-55243734D02*
X115015276Y-55196115D01*
X115015276Y-55196115D02*
X114920038Y-55100877D01*
X114920038Y-55100877D02*
X114872419Y-54958020D01*
X114872419Y-54958020D02*
X114872419Y-54862782D01*
X114872419Y-54862782D02*
X114920038Y-54719925D01*
X114920038Y-54719925D02*
X114967657Y-54672306D01*
X115967657Y-54481830D02*
X115967657Y-53719925D01*
X115872419Y-53005639D02*
X115872419Y-53481829D01*
X115872419Y-53481829D02*
X114872419Y-53481829D01*
X63780074Y-120872419D02*
X63303884Y-120872419D01*
X63303884Y-120872419D02*
X63303884Y-119872419D01*
X63875313Y-120967657D02*
X64637217Y-120967657D01*
X64780075Y-119872419D02*
X65446741Y-119872419D01*
X65446741Y-119872419D02*
X64780075Y-120872419D01*
X64780075Y-120872419D02*
X65446741Y-120872419D01*
X54875312Y-85372419D02*
X54541979Y-84896228D01*
X54303884Y-85372419D02*
X54303884Y-84372419D01*
X54303884Y-84372419D02*
X54684836Y-84372419D01*
X54684836Y-84372419D02*
X54780074Y-84420038D01*
X54780074Y-84420038D02*
X54827693Y-84467657D01*
X54827693Y-84467657D02*
X54875312Y-84562895D01*
X54875312Y-84562895D02*
X54875312Y-84705752D01*
X54875312Y-84705752D02*
X54827693Y-84800990D01*
X54827693Y-84800990D02*
X54780074Y-84848609D01*
X54780074Y-84848609D02*
X54684836Y-84896228D01*
X54684836Y-84896228D02*
X54303884Y-84896228D01*
X55065789Y-85467657D02*
X55827693Y-85467657D01*
X56018170Y-85086704D02*
X56494360Y-85086704D01*
X55922932Y-85372419D02*
X56256265Y-84372419D01*
X56256265Y-84372419D02*
X56589598Y-85372419D01*
X62803884Y-109705752D02*
X62803884Y-110705752D01*
X62803884Y-109753371D02*
X62899122Y-109705752D01*
X62899122Y-109705752D02*
X63089598Y-109705752D01*
X63089598Y-109705752D02*
X63184836Y-109753371D01*
X63184836Y-109753371D02*
X63232455Y-109800990D01*
X63232455Y-109800990D02*
X63280074Y-109896228D01*
X63280074Y-109896228D02*
X63280074Y-110181942D01*
X63280074Y-110181942D02*
X63232455Y-110277180D01*
X63232455Y-110277180D02*
X63184836Y-110324800D01*
X63184836Y-110324800D02*
X63089598Y-110372419D01*
X63089598Y-110372419D02*
X62899122Y-110372419D01*
X62899122Y-110372419D02*
X62803884Y-110324800D01*
X63613408Y-109705752D02*
X63803884Y-110372419D01*
X63803884Y-110372419D02*
X63994360Y-109896228D01*
X63994360Y-109896228D02*
X64184836Y-110372419D01*
X64184836Y-110372419D02*
X64375312Y-109705752D01*
X64756265Y-110372419D02*
X64756265Y-109705752D01*
X64756265Y-109800990D02*
X64803884Y-109753371D01*
X64803884Y-109753371D02*
X64899122Y-109705752D01*
X64899122Y-109705752D02*
X65041979Y-109705752D01*
X65041979Y-109705752D02*
X65137217Y-109753371D01*
X65137217Y-109753371D02*
X65184836Y-109848609D01*
X65184836Y-109848609D02*
X65184836Y-110372419D01*
X65184836Y-109848609D02*
X65232455Y-109753371D01*
X65232455Y-109753371D02*
X65327693Y-109705752D01*
X65327693Y-109705752D02*
X65470550Y-109705752D01*
X65470550Y-109705752D02*
X65565789Y-109753371D01*
X65565789Y-109753371D02*
X65613408Y-109848609D01*
X65613408Y-109848609D02*
X65613408Y-110372419D01*
X66565788Y-110372419D02*
X66089598Y-110372419D01*
X66089598Y-110372419D02*
X66089598Y-109372419D01*
X54327693Y-119920038D02*
X54232455Y-119872419D01*
X54232455Y-119872419D02*
X54089598Y-119872419D01*
X54089598Y-119872419D02*
X53946741Y-119920038D01*
X53946741Y-119920038D02*
X53851503Y-120015276D01*
X53851503Y-120015276D02*
X53803884Y-120110514D01*
X53803884Y-120110514D02*
X53756265Y-120300990D01*
X53756265Y-120300990D02*
X53756265Y-120443847D01*
X53756265Y-120443847D02*
X53803884Y-120634323D01*
X53803884Y-120634323D02*
X53851503Y-120729561D01*
X53851503Y-120729561D02*
X53946741Y-120824800D01*
X53946741Y-120824800D02*
X54089598Y-120872419D01*
X54089598Y-120872419D02*
X54184836Y-120872419D01*
X54184836Y-120872419D02*
X54327693Y-120824800D01*
X54327693Y-120824800D02*
X54375312Y-120777180D01*
X54375312Y-120777180D02*
X54375312Y-120443847D01*
X54375312Y-120443847D02*
X54184836Y-120443847D01*
X54803884Y-120872419D02*
X54803884Y-119872419D01*
X54803884Y-119872419D02*
X55375312Y-120872419D01*
X55375312Y-120872419D02*
X55375312Y-119872419D01*
X55851503Y-120872419D02*
X55851503Y-119872419D01*
X55851503Y-119872419D02*
X56089598Y-119872419D01*
X56089598Y-119872419D02*
X56232455Y-119920038D01*
X56232455Y-119920038D02*
X56327693Y-120015276D01*
X56327693Y-120015276D02*
X56375312Y-120110514D01*
X56375312Y-120110514D02*
X56422931Y-120300990D01*
X56422931Y-120300990D02*
X56422931Y-120443847D01*
X56422931Y-120443847D02*
X56375312Y-120634323D01*
X56375312Y-120634323D02*
X56327693Y-120729561D01*
X56327693Y-120729561D02*
X56232455Y-120824800D01*
X56232455Y-120824800D02*
X56089598Y-120872419D01*
X56089598Y-120872419D02*
X55851503Y-120872419D01*
X54780074Y-75372419D02*
X54303884Y-75372419D01*
X54303884Y-75372419D02*
X54303884Y-74372419D01*
X55113408Y-74848609D02*
X55446741Y-74848609D01*
X55589598Y-75372419D02*
X55113408Y-75372419D01*
X55113408Y-75372419D02*
X55113408Y-74372419D01*
X55113408Y-74372419D02*
X55589598Y-74372419D01*
X56018170Y-75372419D02*
X56018170Y-74372419D01*
X56018170Y-74372419D02*
X56256265Y-74372419D01*
X56256265Y-74372419D02*
X56399122Y-74420038D01*
X56399122Y-74420038D02*
X56494360Y-74515276D01*
X56494360Y-74515276D02*
X56541979Y-74610514D01*
X56541979Y-74610514D02*
X56589598Y-74800990D01*
X56589598Y-74800990D02*
X56589598Y-74943847D01*
X56589598Y-74943847D02*
X56541979Y-75134323D01*
X56541979Y-75134323D02*
X56494360Y-75229561D01*
X56494360Y-75229561D02*
X56399122Y-75324800D01*
X56399122Y-75324800D02*
X56256265Y-75372419D01*
X56256265Y-75372419D02*
X56018170Y-75372419D01*
X61870318Y-62672306D02*
X61822699Y-62767544D01*
X61822699Y-62767544D02*
X61822699Y-62910401D01*
X61822699Y-62910401D02*
X61870318Y-63053258D01*
X61870318Y-63053258D02*
X61965556Y-63148496D01*
X61965556Y-63148496D02*
X62060794Y-63196115D01*
X62060794Y-63196115D02*
X62251270Y-63243734D01*
X62251270Y-63243734D02*
X62394127Y-63243734D01*
X62394127Y-63243734D02*
X62584603Y-63196115D01*
X62584603Y-63196115D02*
X62679841Y-63148496D01*
X62679841Y-63148496D02*
X62775080Y-63053258D01*
X62775080Y-63053258D02*
X62822699Y-62910401D01*
X62822699Y-62910401D02*
X62822699Y-62815163D01*
X62822699Y-62815163D02*
X62775080Y-62672306D01*
X62775080Y-62672306D02*
X62727460Y-62624687D01*
X62727460Y-62624687D02*
X62394127Y-62624687D01*
X62394127Y-62624687D02*
X62394127Y-62815163D01*
X62822699Y-62196115D02*
X61822699Y-62196115D01*
X61822699Y-62196115D02*
X62822699Y-61624687D01*
X62822699Y-61624687D02*
X61822699Y-61624687D01*
X62822699Y-61148496D02*
X61822699Y-61148496D01*
X61822699Y-61148496D02*
X61822699Y-60910401D01*
X61822699Y-60910401D02*
X61870318Y-60767544D01*
X61870318Y-60767544D02*
X61965556Y-60672306D01*
X61965556Y-60672306D02*
X62060794Y-60624687D01*
X62060794Y-60624687D02*
X62251270Y-60577068D01*
X62251270Y-60577068D02*
X62394127Y-60577068D01*
X62394127Y-60577068D02*
X62584603Y-60624687D01*
X62584603Y-60624687D02*
X62679841Y-60672306D01*
X62679841Y-60672306D02*
X62775080Y-60767544D01*
X62775080Y-60767544D02*
X62822699Y-60910401D01*
X62822699Y-60910401D02*
X62822699Y-61148496D01*
X64432643Y-63196115D02*
X63432643Y-63196115D01*
X63432643Y-63196115D02*
X63432643Y-62958020D01*
X63432643Y-62958020D02*
X63480262Y-62815163D01*
X63480262Y-62815163D02*
X63575500Y-62719925D01*
X63575500Y-62719925D02*
X63670738Y-62672306D01*
X63670738Y-62672306D02*
X63861214Y-62624687D01*
X63861214Y-62624687D02*
X64004071Y-62624687D01*
X64004071Y-62624687D02*
X64194547Y-62672306D01*
X64194547Y-62672306D02*
X64289785Y-62719925D01*
X64289785Y-62719925D02*
X64385024Y-62815163D01*
X64385024Y-62815163D02*
X64432643Y-62958020D01*
X64432643Y-62958020D02*
X64432643Y-63196115D01*
X64432643Y-62196115D02*
X63432643Y-62196115D01*
X64432643Y-61148497D02*
X63956452Y-61481830D01*
X64432643Y-61719925D02*
X63432643Y-61719925D01*
X63432643Y-61719925D02*
X63432643Y-61338973D01*
X63432643Y-61338973D02*
X63480262Y-61243735D01*
X63480262Y-61243735D02*
X63527881Y-61196116D01*
X63527881Y-61196116D02*
X63623119Y-61148497D01*
X63623119Y-61148497D02*
X63765976Y-61148497D01*
X63765976Y-61148497D02*
X63861214Y-61196116D01*
X63861214Y-61196116D02*
X63908833Y-61243735D01*
X63908833Y-61243735D02*
X63956452Y-61338973D01*
X63956452Y-61338973D02*
X63956452Y-61719925D01*
X64527881Y-60958021D02*
X64527881Y-60196116D01*
X64432643Y-59386592D02*
X63956452Y-59719925D01*
X64432643Y-59958020D02*
X63432643Y-59958020D01*
X63432643Y-59958020D02*
X63432643Y-59577068D01*
X63432643Y-59577068D02*
X63480262Y-59481830D01*
X63480262Y-59481830D02*
X63527881Y-59434211D01*
X63527881Y-59434211D02*
X63623119Y-59386592D01*
X63623119Y-59386592D02*
X63765976Y-59386592D01*
X63765976Y-59386592D02*
X63861214Y-59434211D01*
X63861214Y-59434211D02*
X63908833Y-59481830D01*
X63908833Y-59481830D02*
X63956452Y-59577068D01*
X63956452Y-59577068D02*
X63956452Y-59958020D01*
X66042587Y-63196115D02*
X65042587Y-63196115D01*
X65042587Y-63196115D02*
X65042587Y-62815163D01*
X65042587Y-62815163D02*
X65090206Y-62719925D01*
X65090206Y-62719925D02*
X65137825Y-62672306D01*
X65137825Y-62672306D02*
X65233063Y-62624687D01*
X65233063Y-62624687D02*
X65375920Y-62624687D01*
X65375920Y-62624687D02*
X65471158Y-62672306D01*
X65471158Y-62672306D02*
X65518777Y-62719925D01*
X65518777Y-62719925D02*
X65566396Y-62815163D01*
X65566396Y-62815163D02*
X65566396Y-63196115D01*
X65042587Y-62291353D02*
X66042587Y-62053258D01*
X66042587Y-62053258D02*
X65328301Y-61862782D01*
X65328301Y-61862782D02*
X66042587Y-61672306D01*
X66042587Y-61672306D02*
X65042587Y-61434211D01*
X66042587Y-61053258D02*
X65042587Y-61053258D01*
X65042587Y-61053258D02*
X65756872Y-60719925D01*
X65756872Y-60719925D02*
X65042587Y-60386592D01*
X65042587Y-60386592D02*
X66042587Y-60386592D01*
X66137825Y-60148497D02*
X66137825Y-59386592D01*
X66042587Y-58577068D02*
X65566396Y-58910401D01*
X66042587Y-59148496D02*
X65042587Y-59148496D01*
X65042587Y-59148496D02*
X65042587Y-58767544D01*
X65042587Y-58767544D02*
X65090206Y-58672306D01*
X65090206Y-58672306D02*
X65137825Y-58624687D01*
X65137825Y-58624687D02*
X65233063Y-58577068D01*
X65233063Y-58577068D02*
X65375920Y-58577068D01*
X65375920Y-58577068D02*
X65471158Y-58624687D01*
X65471158Y-58624687D02*
X65518777Y-58672306D01*
X65518777Y-58672306D02*
X65566396Y-58767544D01*
X65566396Y-58767544D02*
X65566396Y-59148496D01*
X67652531Y-63196115D02*
X66652531Y-63196115D01*
X66652531Y-63196115D02*
X66652531Y-62958020D01*
X66652531Y-62958020D02*
X66700150Y-62815163D01*
X66700150Y-62815163D02*
X66795388Y-62719925D01*
X66795388Y-62719925D02*
X66890626Y-62672306D01*
X66890626Y-62672306D02*
X67081102Y-62624687D01*
X67081102Y-62624687D02*
X67223959Y-62624687D01*
X67223959Y-62624687D02*
X67414435Y-62672306D01*
X67414435Y-62672306D02*
X67509673Y-62719925D01*
X67509673Y-62719925D02*
X67604912Y-62815163D01*
X67604912Y-62815163D02*
X67652531Y-62958020D01*
X67652531Y-62958020D02*
X67652531Y-63196115D01*
X67652531Y-62196115D02*
X66652531Y-62196115D01*
X67652531Y-61148497D02*
X67176340Y-61481830D01*
X67652531Y-61719925D02*
X66652531Y-61719925D01*
X66652531Y-61719925D02*
X66652531Y-61338973D01*
X66652531Y-61338973D02*
X66700150Y-61243735D01*
X66700150Y-61243735D02*
X66747769Y-61196116D01*
X66747769Y-61196116D02*
X66843007Y-61148497D01*
X66843007Y-61148497D02*
X66985864Y-61148497D01*
X66985864Y-61148497D02*
X67081102Y-61196116D01*
X67081102Y-61196116D02*
X67128721Y-61243735D01*
X67128721Y-61243735D02*
X67176340Y-61338973D01*
X67176340Y-61338973D02*
X67176340Y-61719925D01*
X67747769Y-60958021D02*
X67747769Y-60196116D01*
X67652531Y-59481830D02*
X67652531Y-59958020D01*
X67652531Y-59958020D02*
X66652531Y-59958020D01*
X69262475Y-63196115D02*
X68262475Y-63196115D01*
X68262475Y-63196115D02*
X68262475Y-62815163D01*
X68262475Y-62815163D02*
X68310094Y-62719925D01*
X68310094Y-62719925D02*
X68357713Y-62672306D01*
X68357713Y-62672306D02*
X68452951Y-62624687D01*
X68452951Y-62624687D02*
X68595808Y-62624687D01*
X68595808Y-62624687D02*
X68691046Y-62672306D01*
X68691046Y-62672306D02*
X68738665Y-62719925D01*
X68738665Y-62719925D02*
X68786284Y-62815163D01*
X68786284Y-62815163D02*
X68786284Y-63196115D01*
X68262475Y-62291353D02*
X69262475Y-62053258D01*
X69262475Y-62053258D02*
X68548189Y-61862782D01*
X68548189Y-61862782D02*
X69262475Y-61672306D01*
X69262475Y-61672306D02*
X68262475Y-61434211D01*
X69262475Y-61053258D02*
X68262475Y-61053258D01*
X68262475Y-61053258D02*
X68976760Y-60719925D01*
X68976760Y-60719925D02*
X68262475Y-60386592D01*
X68262475Y-60386592D02*
X69262475Y-60386592D01*
X69357713Y-60148497D02*
X69357713Y-59386592D01*
X69262475Y-58672306D02*
X69262475Y-59148496D01*
X69262475Y-59148496D02*
X68262475Y-59148496D01*
X69872419Y-63291353D02*
X69872419Y-62672306D01*
X69872419Y-62672306D02*
X70253371Y-63005639D01*
X70253371Y-63005639D02*
X70253371Y-62862782D01*
X70253371Y-62862782D02*
X70300990Y-62767544D01*
X70300990Y-62767544D02*
X70348609Y-62719925D01*
X70348609Y-62719925D02*
X70443847Y-62672306D01*
X70443847Y-62672306D02*
X70681942Y-62672306D01*
X70681942Y-62672306D02*
X70777180Y-62719925D01*
X70777180Y-62719925D02*
X70824800Y-62767544D01*
X70824800Y-62767544D02*
X70872419Y-62862782D01*
X70872419Y-62862782D02*
X70872419Y-63148496D01*
X70872419Y-63148496D02*
X70824800Y-63243734D01*
X70824800Y-63243734D02*
X70777180Y-63291353D01*
X69872419Y-62386591D02*
X70872419Y-62053258D01*
X70872419Y-62053258D02*
X69872419Y-61719925D01*
X69872419Y-61481829D02*
X69872419Y-60862782D01*
X69872419Y-60862782D02*
X70253371Y-61196115D01*
X70253371Y-61196115D02*
X70253371Y-61053258D01*
X70253371Y-61053258D02*
X70300990Y-60958020D01*
X70300990Y-60958020D02*
X70348609Y-60910401D01*
X70348609Y-60910401D02*
X70443847Y-60862782D01*
X70443847Y-60862782D02*
X70681942Y-60862782D01*
X70681942Y-60862782D02*
X70777180Y-60910401D01*
X70777180Y-60910401D02*
X70824800Y-60958020D01*
X70824800Y-60958020D02*
X70872419Y-61053258D01*
X70872419Y-61053258D02*
X70872419Y-61338972D01*
X70872419Y-61338972D02*
X70824800Y-61434210D01*
X70824800Y-61434210D02*
X70777180Y-61481829D01*
X54327693Y-81420038D02*
X54232455Y-81372419D01*
X54232455Y-81372419D02*
X54089598Y-81372419D01*
X54089598Y-81372419D02*
X53946741Y-81420038D01*
X53946741Y-81420038D02*
X53851503Y-81515276D01*
X53851503Y-81515276D02*
X53803884Y-81610514D01*
X53803884Y-81610514D02*
X53756265Y-81800990D01*
X53756265Y-81800990D02*
X53756265Y-81943847D01*
X53756265Y-81943847D02*
X53803884Y-82134323D01*
X53803884Y-82134323D02*
X53851503Y-82229561D01*
X53851503Y-82229561D02*
X53946741Y-82324800D01*
X53946741Y-82324800D02*
X54089598Y-82372419D01*
X54089598Y-82372419D02*
X54184836Y-82372419D01*
X54184836Y-82372419D02*
X54327693Y-82324800D01*
X54327693Y-82324800D02*
X54375312Y-82277180D01*
X54375312Y-82277180D02*
X54375312Y-81943847D01*
X54375312Y-81943847D02*
X54184836Y-81943847D01*
X54803884Y-82372419D02*
X54803884Y-81372419D01*
X54803884Y-81372419D02*
X55375312Y-82372419D01*
X55375312Y-82372419D02*
X55375312Y-81372419D01*
X55851503Y-82372419D02*
X55851503Y-81372419D01*
X55851503Y-81372419D02*
X56089598Y-81372419D01*
X56089598Y-81372419D02*
X56232455Y-81420038D01*
X56232455Y-81420038D02*
X56327693Y-81515276D01*
X56327693Y-81515276D02*
X56375312Y-81610514D01*
X56375312Y-81610514D02*
X56422931Y-81800990D01*
X56422931Y-81800990D02*
X56422931Y-81943847D01*
X56422931Y-81943847D02*
X56375312Y-82134323D01*
X56375312Y-82134323D02*
X56327693Y-82229561D01*
X56327693Y-82229561D02*
X56232455Y-82324800D01*
X56232455Y-82324800D02*
X56089598Y-82372419D01*
X56089598Y-82372419D02*
X55851503Y-82372419D01*
X62803884Y-85372419D02*
X62803884Y-84372419D01*
X62803884Y-84372419D02*
X63041979Y-84372419D01*
X63041979Y-84372419D02*
X63184836Y-84420038D01*
X63184836Y-84420038D02*
X63280074Y-84515276D01*
X63280074Y-84515276D02*
X63327693Y-84610514D01*
X63327693Y-84610514D02*
X63375312Y-84800990D01*
X63375312Y-84800990D02*
X63375312Y-84943847D01*
X63375312Y-84943847D02*
X63327693Y-85134323D01*
X63327693Y-85134323D02*
X63280074Y-85229561D01*
X63280074Y-85229561D02*
X63184836Y-85324800D01*
X63184836Y-85324800D02*
X63041979Y-85372419D01*
X63041979Y-85372419D02*
X62803884Y-85372419D01*
X63803884Y-85372419D02*
X63803884Y-84372419D01*
X64851502Y-85372419D02*
X64518169Y-84896228D01*
X64280074Y-85372419D02*
X64280074Y-84372419D01*
X64280074Y-84372419D02*
X64661026Y-84372419D01*
X64661026Y-84372419D02*
X64756264Y-84420038D01*
X64756264Y-84420038D02*
X64803883Y-84467657D01*
X64803883Y-84467657D02*
X64851502Y-84562895D01*
X64851502Y-84562895D02*
X64851502Y-84705752D01*
X64851502Y-84705752D02*
X64803883Y-84800990D01*
X64803883Y-84800990D02*
X64756264Y-84848609D01*
X64756264Y-84848609D02*
X64661026Y-84896228D01*
X64661026Y-84896228D02*
X64280074Y-84896228D01*
X65041979Y-85467657D02*
X65803883Y-85467657D01*
X66518169Y-85372419D02*
X66041979Y-85372419D01*
X66041979Y-85372419D02*
X66041979Y-84372419D01*
X88756265Y-52324800D02*
X88851503Y-52372419D01*
X88851503Y-52372419D02*
X89041979Y-52372419D01*
X89041979Y-52372419D02*
X89137217Y-52324800D01*
X89137217Y-52324800D02*
X89184836Y-52229561D01*
X89184836Y-52229561D02*
X89184836Y-52181942D01*
X89184836Y-52181942D02*
X89137217Y-52086704D01*
X89137217Y-52086704D02*
X89041979Y-52039085D01*
X89041979Y-52039085D02*
X88899122Y-52039085D01*
X88899122Y-52039085D02*
X88803884Y-51991466D01*
X88803884Y-51991466D02*
X88756265Y-51896228D01*
X88756265Y-51896228D02*
X88756265Y-51848609D01*
X88756265Y-51848609D02*
X88803884Y-51753371D01*
X88803884Y-51753371D02*
X88899122Y-51705752D01*
X88899122Y-51705752D02*
X89041979Y-51705752D01*
X89041979Y-51705752D02*
X89137217Y-51753371D01*
X89470551Y-51705752D02*
X89851503Y-51705752D01*
X89613408Y-51372419D02*
X89613408Y-52229561D01*
X89613408Y-52229561D02*
X89661027Y-52324800D01*
X89661027Y-52324800D02*
X89756265Y-52372419D01*
X89756265Y-52372419D02*
X89851503Y-52372419D01*
X90613408Y-52372419D02*
X90613408Y-51848609D01*
X90613408Y-51848609D02*
X90565789Y-51753371D01*
X90565789Y-51753371D02*
X90470551Y-51705752D01*
X90470551Y-51705752D02*
X90280075Y-51705752D01*
X90280075Y-51705752D02*
X90184837Y-51753371D01*
X90613408Y-52324800D02*
X90518170Y-52372419D01*
X90518170Y-52372419D02*
X90280075Y-52372419D01*
X90280075Y-52372419D02*
X90184837Y-52324800D01*
X90184837Y-52324800D02*
X90137218Y-52229561D01*
X90137218Y-52229561D02*
X90137218Y-52134323D01*
X90137218Y-52134323D02*
X90184837Y-52039085D01*
X90184837Y-52039085D02*
X90280075Y-51991466D01*
X90280075Y-51991466D02*
X90518170Y-51991466D01*
X90518170Y-51991466D02*
X90613408Y-51943847D01*
X90946742Y-51705752D02*
X91327694Y-51705752D01*
X91089599Y-51372419D02*
X91089599Y-52229561D01*
X91089599Y-52229561D02*
X91137218Y-52324800D01*
X91137218Y-52324800D02*
X91232456Y-52372419D01*
X91232456Y-52372419D02*
X91327694Y-52372419D01*
X92089599Y-51705752D02*
X92089599Y-52372419D01*
X91661028Y-51705752D02*
X91661028Y-52229561D01*
X91661028Y-52229561D02*
X91708647Y-52324800D01*
X91708647Y-52324800D02*
X91803885Y-52372419D01*
X91803885Y-52372419D02*
X91946742Y-52372419D01*
X91946742Y-52372419D02*
X92041980Y-52324800D01*
X92041980Y-52324800D02*
X92089599Y-52277180D01*
X92518171Y-52324800D02*
X92613409Y-52372419D01*
X92613409Y-52372419D02*
X92803885Y-52372419D01*
X92803885Y-52372419D02*
X92899123Y-52324800D01*
X92899123Y-52324800D02*
X92946742Y-52229561D01*
X92946742Y-52229561D02*
X92946742Y-52181942D01*
X92946742Y-52181942D02*
X92899123Y-52086704D01*
X92899123Y-52086704D02*
X92803885Y-52039085D01*
X92803885Y-52039085D02*
X92661028Y-52039085D01*
X92661028Y-52039085D02*
X92565790Y-51991466D01*
X92565790Y-51991466D02*
X92518171Y-51896228D01*
X92518171Y-51896228D02*
X92518171Y-51848609D01*
X92518171Y-51848609D02*
X92565790Y-51753371D01*
X92565790Y-51753371D02*
X92661028Y-51705752D01*
X92661028Y-51705752D02*
X92803885Y-51705752D01*
X92803885Y-51705752D02*
X92899123Y-51753371D01*
X62803884Y-90372419D02*
X62803884Y-89372419D01*
X62803884Y-89372419D02*
X63041979Y-89372419D01*
X63041979Y-89372419D02*
X63184836Y-89420038D01*
X63184836Y-89420038D02*
X63280074Y-89515276D01*
X63280074Y-89515276D02*
X63327693Y-89610514D01*
X63327693Y-89610514D02*
X63375312Y-89800990D01*
X63375312Y-89800990D02*
X63375312Y-89943847D01*
X63375312Y-89943847D02*
X63327693Y-90134323D01*
X63327693Y-90134323D02*
X63280074Y-90229561D01*
X63280074Y-90229561D02*
X63184836Y-90324800D01*
X63184836Y-90324800D02*
X63041979Y-90372419D01*
X63041979Y-90372419D02*
X62803884Y-90372419D01*
X63803884Y-90372419D02*
X63803884Y-89372419D01*
X64851502Y-90372419D02*
X64518169Y-89896228D01*
X64280074Y-90372419D02*
X64280074Y-89372419D01*
X64280074Y-89372419D02*
X64661026Y-89372419D01*
X64661026Y-89372419D02*
X64756264Y-89420038D01*
X64756264Y-89420038D02*
X64803883Y-89467657D01*
X64803883Y-89467657D02*
X64851502Y-89562895D01*
X64851502Y-89562895D02*
X64851502Y-89705752D01*
X64851502Y-89705752D02*
X64803883Y-89800990D01*
X64803883Y-89800990D02*
X64756264Y-89848609D01*
X64756264Y-89848609D02*
X64661026Y-89896228D01*
X64661026Y-89896228D02*
X64280074Y-89896228D01*
X65041979Y-90467657D02*
X65803883Y-90467657D01*
X66613407Y-90372419D02*
X66280074Y-89896228D01*
X66041979Y-90372419D02*
X66041979Y-89372419D01*
X66041979Y-89372419D02*
X66422931Y-89372419D01*
X66422931Y-89372419D02*
X66518169Y-89420038D01*
X66518169Y-89420038D02*
X66565788Y-89467657D01*
X66565788Y-89467657D02*
X66613407Y-89562895D01*
X66613407Y-89562895D02*
X66613407Y-89705752D01*
X66613407Y-89705752D02*
X66565788Y-89800990D01*
X66565788Y-89800990D02*
X66518169Y-89848609D01*
X66518169Y-89848609D02*
X66422931Y-89896228D01*
X66422931Y-89896228D02*
X66041979Y-89896228D01*
X63827693Y-94420038D02*
X63732455Y-94372419D01*
X63732455Y-94372419D02*
X63589598Y-94372419D01*
X63589598Y-94372419D02*
X63446741Y-94420038D01*
X63446741Y-94420038D02*
X63351503Y-94515276D01*
X63351503Y-94515276D02*
X63303884Y-94610514D01*
X63303884Y-94610514D02*
X63256265Y-94800990D01*
X63256265Y-94800990D02*
X63256265Y-94943847D01*
X63256265Y-94943847D02*
X63303884Y-95134323D01*
X63303884Y-95134323D02*
X63351503Y-95229561D01*
X63351503Y-95229561D02*
X63446741Y-95324800D01*
X63446741Y-95324800D02*
X63589598Y-95372419D01*
X63589598Y-95372419D02*
X63684836Y-95372419D01*
X63684836Y-95372419D02*
X63827693Y-95324800D01*
X63827693Y-95324800D02*
X63875312Y-95277180D01*
X63875312Y-95277180D02*
X63875312Y-94943847D01*
X63875312Y-94943847D02*
X63684836Y-94943847D01*
X64303884Y-95372419D02*
X64303884Y-94372419D01*
X64303884Y-94372419D02*
X64875312Y-95372419D01*
X64875312Y-95372419D02*
X64875312Y-94372419D01*
X65351503Y-95372419D02*
X65351503Y-94372419D01*
X65351503Y-94372419D02*
X65589598Y-94372419D01*
X65589598Y-94372419D02*
X65732455Y-94420038D01*
X65732455Y-94420038D02*
X65827693Y-94515276D01*
X65827693Y-94515276D02*
X65875312Y-94610514D01*
X65875312Y-94610514D02*
X65922931Y-94800990D01*
X65922931Y-94800990D02*
X65922931Y-94943847D01*
X65922931Y-94943847D02*
X65875312Y-95134323D01*
X65875312Y-95134323D02*
X65827693Y-95229561D01*
X65827693Y-95229561D02*
X65732455Y-95324800D01*
X65732455Y-95324800D02*
X65589598Y-95372419D01*
X65589598Y-95372419D02*
X65351503Y-95372419D01*
D11*
X95114580Y-68116666D02*
X95162200Y-68164285D01*
X95162200Y-68164285D02*
X95209819Y-68307142D01*
X95209819Y-68307142D02*
X95209819Y-68402380D01*
X95209819Y-68402380D02*
X95162200Y-68545237D01*
X95162200Y-68545237D02*
X95066961Y-68640475D01*
X95066961Y-68640475D02*
X94971723Y-68688094D01*
X94971723Y-68688094D02*
X94781247Y-68735713D01*
X94781247Y-68735713D02*
X94638390Y-68735713D01*
X94638390Y-68735713D02*
X94447914Y-68688094D01*
X94447914Y-68688094D02*
X94352676Y-68640475D01*
X94352676Y-68640475D02*
X94257438Y-68545237D01*
X94257438Y-68545237D02*
X94209819Y-68402380D01*
X94209819Y-68402380D02*
X94209819Y-68307142D01*
X94209819Y-68307142D02*
X94257438Y-68164285D01*
X94257438Y-68164285D02*
X94305057Y-68116666D01*
X94209819Y-67783332D02*
X94209819Y-67164285D01*
X94209819Y-67164285D02*
X94590771Y-67497618D01*
X94590771Y-67497618D02*
X94590771Y-67354761D01*
X94590771Y-67354761D02*
X94638390Y-67259523D01*
X94638390Y-67259523D02*
X94686009Y-67211904D01*
X94686009Y-67211904D02*
X94781247Y-67164285D01*
X94781247Y-67164285D02*
X95019342Y-67164285D01*
X95019342Y-67164285D02*
X95114580Y-67211904D01*
X95114580Y-67211904D02*
X95162200Y-67259523D01*
X95162200Y-67259523D02*
X95209819Y-67354761D01*
X95209819Y-67354761D02*
X95209819Y-67640475D01*
X95209819Y-67640475D02*
X95162200Y-67735713D01*
X95162200Y-67735713D02*
X95114580Y-67783332D01*
X124666666Y-50879819D02*
X124666666Y-51594104D01*
X124666666Y-51594104D02*
X124619047Y-51736961D01*
X124619047Y-51736961D02*
X124523809Y-51832200D01*
X124523809Y-51832200D02*
X124380952Y-51879819D01*
X124380952Y-51879819D02*
X124285714Y-51879819D01*
X125666666Y-51879819D02*
X125095238Y-51879819D01*
X125380952Y-51879819D02*
X125380952Y-50879819D01*
X125380952Y-50879819D02*
X125285714Y-51022676D01*
X125285714Y-51022676D02*
X125190476Y-51117914D01*
X125190476Y-51117914D02*
X125095238Y-51165533D01*
X68416666Y-50404819D02*
X68416666Y-51119104D01*
X68416666Y-51119104D02*
X68369047Y-51261961D01*
X68369047Y-51261961D02*
X68273809Y-51357200D01*
X68273809Y-51357200D02*
X68130952Y-51404819D01*
X68130952Y-51404819D02*
X68035714Y-51404819D01*
X68797619Y-50404819D02*
X69416666Y-50404819D01*
X69416666Y-50404819D02*
X69083333Y-50785771D01*
X69083333Y-50785771D02*
X69226190Y-50785771D01*
X69226190Y-50785771D02*
X69321428Y-50833390D01*
X69321428Y-50833390D02*
X69369047Y-50881009D01*
X69369047Y-50881009D02*
X69416666Y-50976247D01*
X69416666Y-50976247D02*
X69416666Y-51214342D01*
X69416666Y-51214342D02*
X69369047Y-51309580D01*
X69369047Y-51309580D02*
X69321428Y-51357200D01*
X69321428Y-51357200D02*
X69226190Y-51404819D01*
X69226190Y-51404819D02*
X68940476Y-51404819D01*
X68940476Y-51404819D02*
X68845238Y-51357200D01*
X68845238Y-51357200D02*
X68797619Y-51309580D01*
X145088095Y-63484819D02*
X145088095Y-62484819D01*
X145088095Y-62961009D02*
X145659523Y-62961009D01*
X145659523Y-63484819D02*
X145659523Y-62484819D01*
X146659523Y-63484819D02*
X146088095Y-63484819D01*
X146373809Y-63484819D02*
X146373809Y-62484819D01*
X146373809Y-62484819D02*
X146278571Y-62627676D01*
X146278571Y-62627676D02*
X146183333Y-62722914D01*
X146183333Y-62722914D02*
X146088095Y-62770533D01*
X73783333Y-63539580D02*
X73735714Y-63587200D01*
X73735714Y-63587200D02*
X73592857Y-63634819D01*
X73592857Y-63634819D02*
X73497619Y-63634819D01*
X73497619Y-63634819D02*
X73354762Y-63587200D01*
X73354762Y-63587200D02*
X73259524Y-63491961D01*
X73259524Y-63491961D02*
X73211905Y-63396723D01*
X73211905Y-63396723D02*
X73164286Y-63206247D01*
X73164286Y-63206247D02*
X73164286Y-63063390D01*
X73164286Y-63063390D02*
X73211905Y-62872914D01*
X73211905Y-62872914D02*
X73259524Y-62777676D01*
X73259524Y-62777676D02*
X73354762Y-62682438D01*
X73354762Y-62682438D02*
X73497619Y-62634819D01*
X73497619Y-62634819D02*
X73592857Y-62634819D01*
X73592857Y-62634819D02*
X73735714Y-62682438D01*
X73735714Y-62682438D02*
X73783333Y-62730057D01*
X74688095Y-62634819D02*
X74211905Y-62634819D01*
X74211905Y-62634819D02*
X74164286Y-63111009D01*
X74164286Y-63111009D02*
X74211905Y-63063390D01*
X74211905Y-63063390D02*
X74307143Y-63015771D01*
X74307143Y-63015771D02*
X74545238Y-63015771D01*
X74545238Y-63015771D02*
X74640476Y-63063390D01*
X74640476Y-63063390D02*
X74688095Y-63111009D01*
X74688095Y-63111009D02*
X74735714Y-63206247D01*
X74735714Y-63206247D02*
X74735714Y-63444342D01*
X74735714Y-63444342D02*
X74688095Y-63539580D01*
X74688095Y-63539580D02*
X74640476Y-63587200D01*
X74640476Y-63587200D02*
X74545238Y-63634819D01*
X74545238Y-63634819D02*
X74307143Y-63634819D01*
X74307143Y-63634819D02*
X74211905Y-63587200D01*
X74211905Y-63587200D02*
X74164286Y-63539580D01*
X120883333Y-64039580D02*
X120835714Y-64087200D01*
X120835714Y-64087200D02*
X120692857Y-64134819D01*
X120692857Y-64134819D02*
X120597619Y-64134819D01*
X120597619Y-64134819D02*
X120454762Y-64087200D01*
X120454762Y-64087200D02*
X120359524Y-63991961D01*
X120359524Y-63991961D02*
X120311905Y-63896723D01*
X120311905Y-63896723D02*
X120264286Y-63706247D01*
X120264286Y-63706247D02*
X120264286Y-63563390D01*
X120264286Y-63563390D02*
X120311905Y-63372914D01*
X120311905Y-63372914D02*
X120359524Y-63277676D01*
X120359524Y-63277676D02*
X120454762Y-63182438D01*
X120454762Y-63182438D02*
X120597619Y-63134819D01*
X120597619Y-63134819D02*
X120692857Y-63134819D01*
X120692857Y-63134819D02*
X120835714Y-63182438D01*
X120835714Y-63182438D02*
X120883333Y-63230057D01*
X121740476Y-63468152D02*
X121740476Y-64134819D01*
X121502381Y-63087200D02*
X121264286Y-63801485D01*
X121264286Y-63801485D02*
X121883333Y-63801485D01*
D12*
X86574318Y-67239762D02*
X85304318Y-67239762D01*
X86453365Y-65909285D02*
X86513842Y-65969761D01*
X86513842Y-65969761D02*
X86574318Y-66151190D01*
X86574318Y-66151190D02*
X86574318Y-66272142D01*
X86574318Y-66272142D02*
X86513842Y-66453571D01*
X86513842Y-66453571D02*
X86392889Y-66574523D01*
X86392889Y-66574523D02*
X86271937Y-66635000D01*
X86271937Y-66635000D02*
X86030032Y-66695476D01*
X86030032Y-66695476D02*
X85848603Y-66695476D01*
X85848603Y-66695476D02*
X85606699Y-66635000D01*
X85606699Y-66635000D02*
X85485746Y-66574523D01*
X85485746Y-66574523D02*
X85364794Y-66453571D01*
X85364794Y-66453571D02*
X85304318Y-66272142D01*
X85304318Y-66272142D02*
X85304318Y-66151190D01*
X85304318Y-66151190D02*
X85364794Y-65969761D01*
X85364794Y-65969761D02*
X85425270Y-65909285D01*
X86574318Y-64699761D02*
X86574318Y-65425476D01*
X86574318Y-65062619D02*
X85304318Y-65062619D01*
X85304318Y-65062619D02*
X85485746Y-65183571D01*
X85485746Y-65183571D02*
X85606699Y-65304523D01*
X85606699Y-65304523D02*
X85667175Y-65425476D01*
D11*
X59436666Y-69124819D02*
X59436666Y-69839104D01*
X59436666Y-69839104D02*
X59389047Y-69981961D01*
X59389047Y-69981961D02*
X59293809Y-70077200D01*
X59293809Y-70077200D02*
X59150952Y-70124819D01*
X59150952Y-70124819D02*
X59055714Y-70124819D01*
X60341428Y-69458152D02*
X60341428Y-70124819D01*
X60103333Y-69077200D02*
X59865238Y-69791485D01*
X59865238Y-69791485D02*
X60484285Y-69791485D01*
X101383333Y-64539580D02*
X101335714Y-64587200D01*
X101335714Y-64587200D02*
X101192857Y-64634819D01*
X101192857Y-64634819D02*
X101097619Y-64634819D01*
X101097619Y-64634819D02*
X100954762Y-64587200D01*
X100954762Y-64587200D02*
X100859524Y-64491961D01*
X100859524Y-64491961D02*
X100811905Y-64396723D01*
X100811905Y-64396723D02*
X100764286Y-64206247D01*
X100764286Y-64206247D02*
X100764286Y-64063390D01*
X100764286Y-64063390D02*
X100811905Y-63872914D01*
X100811905Y-63872914D02*
X100859524Y-63777676D01*
X100859524Y-63777676D02*
X100954762Y-63682438D01*
X100954762Y-63682438D02*
X101097619Y-63634819D01*
X101097619Y-63634819D02*
X101192857Y-63634819D01*
X101192857Y-63634819D02*
X101335714Y-63682438D01*
X101335714Y-63682438D02*
X101383333Y-63730057D01*
X102335714Y-64634819D02*
X101764286Y-64634819D01*
X102050000Y-64634819D02*
X102050000Y-63634819D01*
X102050000Y-63634819D02*
X101954762Y-63777676D01*
X101954762Y-63777676D02*
X101859524Y-63872914D01*
X101859524Y-63872914D02*
X101764286Y-63920533D01*
X95184580Y-64166666D02*
X95232200Y-64214285D01*
X95232200Y-64214285D02*
X95279819Y-64357142D01*
X95279819Y-64357142D02*
X95279819Y-64452380D01*
X95279819Y-64452380D02*
X95232200Y-64595237D01*
X95232200Y-64595237D02*
X95136961Y-64690475D01*
X95136961Y-64690475D02*
X95041723Y-64738094D01*
X95041723Y-64738094D02*
X94851247Y-64785713D01*
X94851247Y-64785713D02*
X94708390Y-64785713D01*
X94708390Y-64785713D02*
X94517914Y-64738094D01*
X94517914Y-64738094D02*
X94422676Y-64690475D01*
X94422676Y-64690475D02*
X94327438Y-64595237D01*
X94327438Y-64595237D02*
X94279819Y-64452380D01*
X94279819Y-64452380D02*
X94279819Y-64357142D01*
X94279819Y-64357142D02*
X94327438Y-64214285D01*
X94327438Y-64214285D02*
X94375057Y-64166666D01*
X94375057Y-63785713D02*
X94327438Y-63738094D01*
X94327438Y-63738094D02*
X94279819Y-63642856D01*
X94279819Y-63642856D02*
X94279819Y-63404761D01*
X94279819Y-63404761D02*
X94327438Y-63309523D01*
X94327438Y-63309523D02*
X94375057Y-63261904D01*
X94375057Y-63261904D02*
X94470295Y-63214285D01*
X94470295Y-63214285D02*
X94565533Y-63214285D01*
X94565533Y-63214285D02*
X94708390Y-63261904D01*
X94708390Y-63261904D02*
X95279819Y-63833332D01*
X95279819Y-63833332D02*
X95279819Y-63214285D01*
X83245833Y-54304819D02*
X82912500Y-53828628D01*
X82674405Y-54304819D02*
X82674405Y-53304819D01*
X82674405Y-53304819D02*
X83055357Y-53304819D01*
X83055357Y-53304819D02*
X83150595Y-53352438D01*
X83150595Y-53352438D02*
X83198214Y-53400057D01*
X83198214Y-53400057D02*
X83245833Y-53495295D01*
X83245833Y-53495295D02*
X83245833Y-53638152D01*
X83245833Y-53638152D02*
X83198214Y-53733390D01*
X83198214Y-53733390D02*
X83150595Y-53781009D01*
X83150595Y-53781009D02*
X83055357Y-53828628D01*
X83055357Y-53828628D02*
X82674405Y-53828628D01*
X84198214Y-54304819D02*
X83626786Y-54304819D01*
X83912500Y-54304819D02*
X83912500Y-53304819D01*
X83912500Y-53304819D02*
X83817262Y-53447676D01*
X83817262Y-53447676D02*
X83722024Y-53542914D01*
X83722024Y-53542914D02*
X83626786Y-53590533D01*
X105166666Y-50904819D02*
X105166666Y-51619104D01*
X105166666Y-51619104D02*
X105119047Y-51761961D01*
X105119047Y-51761961D02*
X105023809Y-51857200D01*
X105023809Y-51857200D02*
X104880952Y-51904819D01*
X104880952Y-51904819D02*
X104785714Y-51904819D01*
X105595238Y-51000057D02*
X105642857Y-50952438D01*
X105642857Y-50952438D02*
X105738095Y-50904819D01*
X105738095Y-50904819D02*
X105976190Y-50904819D01*
X105976190Y-50904819D02*
X106071428Y-50952438D01*
X106071428Y-50952438D02*
X106119047Y-51000057D01*
X106119047Y-51000057D02*
X106166666Y-51095295D01*
X106166666Y-51095295D02*
X106166666Y-51190533D01*
X106166666Y-51190533D02*
X106119047Y-51333390D01*
X106119047Y-51333390D02*
X105547619Y-51904819D01*
X105547619Y-51904819D02*
X106166666Y-51904819D01*
X59088095Y-63484819D02*
X59088095Y-62484819D01*
X59088095Y-62961009D02*
X59659523Y-62961009D01*
X59659523Y-63484819D02*
X59659523Y-62484819D01*
X60088095Y-62580057D02*
X60135714Y-62532438D01*
X60135714Y-62532438D02*
X60230952Y-62484819D01*
X60230952Y-62484819D02*
X60469047Y-62484819D01*
X60469047Y-62484819D02*
X60564285Y-62532438D01*
X60564285Y-62532438D02*
X60611904Y-62580057D01*
X60611904Y-62580057D02*
X60659523Y-62675295D01*
X60659523Y-62675295D02*
X60659523Y-62770533D01*
X60659523Y-62770533D02*
X60611904Y-62913390D01*
X60611904Y-62913390D02*
X60040476Y-63484819D01*
X60040476Y-63484819D02*
X60659523Y-63484819D01*
D12*
X85562618Y-52574318D02*
X85562618Y-51304318D01*
X85562618Y-51304318D02*
X85864999Y-51304318D01*
X85864999Y-51304318D02*
X86046428Y-51364794D01*
X86046428Y-51364794D02*
X86167380Y-51485746D01*
X86167380Y-51485746D02*
X86227857Y-51606699D01*
X86227857Y-51606699D02*
X86288333Y-51848603D01*
X86288333Y-51848603D02*
X86288333Y-52030032D01*
X86288333Y-52030032D02*
X86227857Y-52271937D01*
X86227857Y-52271937D02*
X86167380Y-52392889D01*
X86167380Y-52392889D02*
X86046428Y-52513842D01*
X86046428Y-52513842D02*
X85864999Y-52574318D01*
X85864999Y-52574318D02*
X85562618Y-52574318D01*
X87497857Y-52574318D02*
X86772142Y-52574318D01*
X87134999Y-52574318D02*
X87134999Y-51304318D01*
X87134999Y-51304318D02*
X87014047Y-51485746D01*
X87014047Y-51485746D02*
X86893095Y-51606699D01*
X86893095Y-51606699D02*
X86772142Y-51667175D01*
D11*
X54088095Y-125684819D02*
X54088095Y-124684819D01*
X54088095Y-125161009D02*
X54659523Y-125161009D01*
X54659523Y-125684819D02*
X54659523Y-124684819D01*
X55040476Y-124684819D02*
X55659523Y-124684819D01*
X55659523Y-124684819D02*
X55326190Y-125065771D01*
X55326190Y-125065771D02*
X55469047Y-125065771D01*
X55469047Y-125065771D02*
X55564285Y-125113390D01*
X55564285Y-125113390D02*
X55611904Y-125161009D01*
X55611904Y-125161009D02*
X55659523Y-125256247D01*
X55659523Y-125256247D02*
X55659523Y-125494342D01*
X55659523Y-125494342D02*
X55611904Y-125589580D01*
X55611904Y-125589580D02*
X55564285Y-125637200D01*
X55564285Y-125637200D02*
X55469047Y-125684819D01*
X55469047Y-125684819D02*
X55183333Y-125684819D01*
X55183333Y-125684819D02*
X55088095Y-125637200D01*
X55088095Y-125637200D02*
X55040476Y-125589580D01*
D13*
%TO.C,C3*%
X92815000Y-67809420D02*
X92815000Y-68090580D01*
X93835000Y-67809420D02*
X93835000Y-68090580D01*
%TO.C,J1*%
X117150000Y-52225000D02*
X117150000Y-53475000D01*
X117440000Y-52515000D02*
X117440000Y-58485000D01*
X117440000Y-58485000D02*
X132560000Y-58485000D01*
X117450000Y-52525000D02*
X117450000Y-53275000D01*
X117450000Y-53275000D02*
X119250000Y-53275000D01*
X117450000Y-54775000D02*
X118200000Y-54775000D01*
X118200000Y-54775000D02*
X118200000Y-57725000D01*
X118200000Y-57725000D02*
X125000000Y-57725000D01*
X118400000Y-52225000D02*
X117150000Y-52225000D01*
X119250000Y-52525000D02*
X117450000Y-52525000D01*
X119250000Y-53275000D02*
X119250000Y-52525000D01*
X120750000Y-52525000D02*
X120750000Y-53275000D01*
X120750000Y-53275000D02*
X129250000Y-53275000D01*
X129250000Y-52525000D02*
X120750000Y-52525000D01*
X129250000Y-53275000D02*
X129250000Y-52525000D01*
X130750000Y-52525000D02*
X130750000Y-53275000D01*
X130750000Y-53275000D02*
X132550000Y-53275000D01*
X131800000Y-54775000D02*
X131800000Y-57725000D01*
X131800000Y-57725000D02*
X125000000Y-57725000D01*
X132550000Y-52525000D02*
X130750000Y-52525000D01*
X132550000Y-53275000D02*
X132550000Y-52525000D01*
X132550000Y-54775000D02*
X131800000Y-54775000D01*
X132560000Y-52515000D02*
X117440000Y-52515000D01*
X132560000Y-58485000D02*
X132560000Y-52515000D01*
%TO.C,J3*%
X59650000Y-51750000D02*
X59650000Y-53000000D01*
X59940000Y-52040000D02*
X59940000Y-58010000D01*
X59940000Y-58010000D02*
X77560000Y-58010000D01*
X59950000Y-52050000D02*
X59950000Y-52800000D01*
X59950000Y-52800000D02*
X61750000Y-52800000D01*
X59950000Y-54300000D02*
X60700000Y-54300000D01*
X60700000Y-54300000D02*
X60700000Y-57250000D01*
X60700000Y-57250000D02*
X68750000Y-57250000D01*
X60900000Y-51750000D02*
X59650000Y-51750000D01*
X61750000Y-52050000D02*
X59950000Y-52050000D01*
X61750000Y-52800000D02*
X61750000Y-52050000D01*
X63250000Y-52050000D02*
X63250000Y-52800000D01*
X63250000Y-52800000D02*
X74250000Y-52800000D01*
X74250000Y-52050000D02*
X63250000Y-52050000D01*
X74250000Y-52800000D02*
X74250000Y-52050000D01*
X75750000Y-52050000D02*
X75750000Y-52800000D01*
X75750000Y-52800000D02*
X77550000Y-52800000D01*
X76800000Y-54300000D02*
X76800000Y-57250000D01*
X76800000Y-57250000D02*
X68750000Y-57250000D01*
X77550000Y-52050000D02*
X75750000Y-52050000D01*
X77550000Y-52800000D02*
X77550000Y-52050000D01*
X77550000Y-54300000D02*
X76800000Y-54300000D01*
X77560000Y-52040000D02*
X59940000Y-52040000D01*
X77560000Y-58010000D02*
X77560000Y-52040000D01*
%TO.C,C5*%
X74211252Y-60765000D02*
X73688748Y-60765000D01*
X74211252Y-62235000D02*
X73688748Y-62235000D01*
%TO.C,C4*%
X121311252Y-61265000D02*
X120788748Y-61265000D01*
X121311252Y-62735000D02*
X120788748Y-62735000D01*
D14*
%TO.C,IC1*%
X81050000Y-64400000D02*
X90950000Y-64400000D01*
X81050000Y-67600000D02*
X81050000Y-64400000D01*
X90950000Y-64400000D02*
X90950000Y-67600000D01*
X90950000Y-67600000D02*
X81050000Y-67600000D01*
X91120000Y-62500000D02*
X91120000Y-64050000D01*
D13*
%TO.C,J4*%
X57170000Y-70670000D02*
X58500000Y-70670000D01*
X57170000Y-72000000D02*
X57170000Y-70670000D01*
X57170000Y-73270000D02*
X57170000Y-121590000D01*
X57170000Y-73270000D02*
X59770000Y-73270000D01*
X57170000Y-121590000D02*
X62370000Y-121590000D01*
X59770000Y-70670000D02*
X62370000Y-70670000D01*
X59770000Y-73270000D02*
X59770000Y-70670000D01*
X62370000Y-70670000D02*
X62370000Y-121590000D01*
%TO.C,C1*%
X101811252Y-61765000D02*
X101288748Y-61765000D01*
X101811252Y-63235000D02*
X101288748Y-63235000D01*
%TO.C,C2*%
X92815000Y-64140580D02*
X92815000Y-63859420D01*
X93835000Y-64140580D02*
X93835000Y-63859420D01*
%TO.C,R1*%
X83185436Y-54765000D02*
X83639564Y-54765000D01*
X83185436Y-56235000D02*
X83639564Y-56235000D01*
%TO.C,J2*%
X97650000Y-52250000D02*
X97650000Y-53500000D01*
X97940000Y-52540000D02*
X97940000Y-58510000D01*
X97940000Y-58510000D02*
X113060000Y-58510000D01*
X97950000Y-52550000D02*
X97950000Y-53300000D01*
X97950000Y-53300000D02*
X99750000Y-53300000D01*
X97950000Y-54800000D02*
X98700000Y-54800000D01*
X98700000Y-54800000D02*
X98700000Y-57750000D01*
X98700000Y-57750000D02*
X105500000Y-57750000D01*
X98900000Y-52250000D02*
X97650000Y-52250000D01*
X99750000Y-52550000D02*
X97950000Y-52550000D01*
X99750000Y-53300000D02*
X99750000Y-52550000D01*
X101250000Y-52550000D02*
X101250000Y-53300000D01*
X101250000Y-53300000D02*
X109750000Y-53300000D01*
X109750000Y-52550000D02*
X101250000Y-52550000D01*
X109750000Y-53300000D02*
X109750000Y-52550000D01*
X111250000Y-52550000D02*
X111250000Y-53300000D01*
X111250000Y-53300000D02*
X113050000Y-53300000D01*
X112300000Y-54800000D02*
X112300000Y-57750000D01*
X112300000Y-57750000D02*
X105500000Y-57750000D01*
X113050000Y-52550000D02*
X111250000Y-52550000D01*
X113050000Y-53300000D02*
X113050000Y-52550000D01*
X113050000Y-54800000D02*
X112300000Y-54800000D01*
X113060000Y-52540000D02*
X97940000Y-52540000D01*
X113060000Y-58510000D02*
X113060000Y-52540000D01*
D14*
%TO.C,D1*%
X81700000Y-51175000D02*
X81700000Y-52825000D01*
X81700000Y-52825000D02*
X84000000Y-52825000D01*
X84000000Y-51175000D02*
X81700000Y-51175000D01*
%TD*%
M02*
