%TF.GenerationSoftware,KiCad,Pcbnew,8.0.1*%
%TF.CreationDate,2024-06-27T20:22:44+09:00*%
%TF.ProjectId,GPIO_board,4750494f-5f62-46f6-9172-642e6b696361,rev?*%
%TF.SameCoordinates,Original*%
%TF.FileFunction,Soldermask,Top*%
%TF.FilePolarity,Negative*%
%FSLAX46Y46*%
G04 Gerber Fmt 4.6, Leading zero omitted, Abs format (unit mm)*
G04 Created by KiCad (PCBNEW 8.0.1) date 2024-06-27 20:22:44*
%MOMM*%
%LPD*%
G01*
G04 APERTURE LIST*
G04 Aperture macros list*
%AMRoundRect*
0 Rectangle with rounded corners*
0 $1 Rounding radius*
0 $2 $3 $4 $5 $6 $7 $8 $9 X,Y pos of 4 corners*
0 Add a 4 corners polygon primitive as box body*
4,1,4,$2,$3,$4,$5,$6,$7,$8,$9,$2,$3,0*
0 Add four circle primitives for the rounded corners*
1,1,$1+$1,$2,$3*
1,1,$1+$1,$4,$5*
1,1,$1+$1,$6,$7*
1,1,$1+$1,$8,$9*
0 Add four rect primitives between the rounded corners*
20,1,$1+$1,$2,$3,$4,$5,0*
20,1,$1+$1,$4,$5,$6,$7,0*
20,1,$1+$1,$6,$7,$8,$9,0*
20,1,$1+$1,$8,$9,$2,$3,0*%
G04 Aperture macros list end*
%ADD10RoundRect,0.225000X-0.250000X0.225000X-0.250000X-0.225000X0.250000X-0.225000X0.250000X0.225000X0*%
%ADD11RoundRect,0.250000X-0.600000X-0.725000X0.600000X-0.725000X0.600000X0.725000X-0.600000X0.725000X0*%
%ADD12O,1.700000X1.950000*%
%ADD13C,3.200000*%
%ADD14RoundRect,0.250000X0.250000X0.475000X-0.250000X0.475000X-0.250000X-0.475000X0.250000X-0.475000X0*%
%ADD15R,0.650000X1.550000*%
%ADD16R,1.700000X1.700000*%
%ADD17O,1.700000X1.700000*%
%ADD18RoundRect,0.225000X0.250000X-0.225000X0.250000X0.225000X-0.250000X0.225000X-0.250000X-0.225000X0*%
%ADD19RoundRect,0.250000X-0.262500X-0.450000X0.262500X-0.450000X0.262500X0.450000X-0.262500X0.450000X0*%
%ADD20R,0.900000X0.950000*%
G04 APERTURE END LIST*
D10*
%TO.C,C3*%
X93325000Y-67175000D03*
X93325000Y-68725000D03*
%TD*%
D11*
%TO.C,J1*%
X120000000Y-54975000D03*
D12*
X122500000Y-54975000D03*
X125000000Y-54975000D03*
X127500000Y-54975000D03*
X130000000Y-54975000D03*
%TD*%
D11*
%TO.C,J3*%
X62500000Y-54500000D03*
D12*
X65000000Y-54500000D03*
X67500000Y-54500000D03*
X70000000Y-54500000D03*
X72500000Y-54500000D03*
X75000000Y-54500000D03*
%TD*%
D13*
%TO.C,H1*%
X145850000Y-67230000D03*
%TD*%
D14*
%TO.C,C5*%
X74900000Y-61500000D03*
X73000000Y-61500000D03*
%TD*%
%TO.C,C4*%
X122000000Y-62000000D03*
X120100000Y-62000000D03*
%TD*%
D15*
%TO.C,IC1*%
X90445000Y-63275000D03*
X89175000Y-63275000D03*
X87905000Y-63275000D03*
X86635000Y-63275000D03*
X85365000Y-63275000D03*
X84095000Y-63275000D03*
X82825000Y-63275000D03*
X81555000Y-63275000D03*
X81555000Y-68725000D03*
X82825000Y-68725000D03*
X84095000Y-68725000D03*
X85365000Y-68725000D03*
X86635000Y-68725000D03*
X87905000Y-68725000D03*
X89175000Y-68725000D03*
X90445000Y-68725000D03*
%TD*%
D16*
%TO.C,J4*%
X58500000Y-72000000D03*
D17*
X61040000Y-72000000D03*
X58500000Y-74540000D03*
X61040000Y-74540000D03*
X58500000Y-77080000D03*
X61040000Y-77080000D03*
X58500000Y-79620000D03*
X61040000Y-79620000D03*
X58500000Y-82160000D03*
X61040000Y-82160000D03*
X58500000Y-84700000D03*
X61040000Y-84700000D03*
X58500000Y-87240000D03*
X61040000Y-87240000D03*
X58500000Y-89780000D03*
X61040000Y-89780000D03*
X58500000Y-92320000D03*
X61040000Y-92320000D03*
X58500000Y-94860000D03*
X61040000Y-94860000D03*
X58500000Y-97400000D03*
X61040000Y-97400000D03*
X58500000Y-99940000D03*
X61040000Y-99940000D03*
X58500000Y-102480000D03*
X61040000Y-102480000D03*
X58500000Y-105020000D03*
X61040000Y-105020000D03*
X58500000Y-107560000D03*
X61040000Y-107560000D03*
X58500000Y-110100000D03*
X61040000Y-110100000D03*
X58500000Y-112640000D03*
X61040000Y-112640000D03*
X58500000Y-115180000D03*
X61040000Y-115180000D03*
X58500000Y-117720000D03*
X61040000Y-117720000D03*
X58500000Y-120260000D03*
X61040000Y-120260000D03*
%TD*%
D14*
%TO.C,C1*%
X102500000Y-62500000D03*
X100600000Y-62500000D03*
%TD*%
D18*
%TO.C,C2*%
X93325000Y-64775000D03*
X93325000Y-63225000D03*
%TD*%
D19*
%TO.C,R1*%
X82500000Y-55500000D03*
X84325000Y-55500000D03*
%TD*%
D11*
%TO.C,J2*%
X100500000Y-55000000D03*
D12*
X103000000Y-55000000D03*
X105500000Y-55000000D03*
X108000000Y-55000000D03*
X110500000Y-55000000D03*
%TD*%
D13*
%TO.C,H2*%
X59850000Y-67230000D03*
%TD*%
D20*
%TO.C,D1*%
X82500000Y-52000000D03*
X84000000Y-52000000D03*
%TD*%
D13*
%TO.C,H3*%
X59850000Y-125230000D03*
%TD*%
M02*
