M48
; DRILL file {KiCad 8.0.1} date 2024-06-27T20:22:51+0900
; FORMAT={-:-/ absolute / metric / decimal}
; #@! TF.CreationDate,2024-06-27T20:22:51+09:00
; #@! TF.GenerationSoftware,Kicad,Pcbnew,8.0.1
; #@! TF.FileFunction,MixedPlating,1,2
FMAT,2
METRIC
; #@! TA.AperFunction,Plated,PTH,ViaDrill
T1C0.300
; #@! TA.AperFunction,Plated,PTH,ComponentDrill
T2C0.950
; #@! TA.AperFunction,Plated,PTH,ComponentDrill
T3C1.000
; #@! TA.AperFunction,NonPlated,NPTH,ComponentDrill
T4C3.200
%
G90
G05
T1
X51.0Y-82.0
X51.5Y-109.0
X52.0Y-57.5
X52.4Y-81.919
X52.5Y-52.0
X52.5Y-107.5
X53.5Y-118.5
X53.5Y-128.0
X55.5Y-86.78
X55.5Y-89.0
X55.95Y-85.469
X56.0Y-95.0
X56.0Y-120.5
X56.025Y-83.975
X56.5Y-107.0
X64.0Y-95.0
X64.5Y-68.5
X64.5Y-80.5
X64.5Y-84.0
X65.0Y-63.5
X65.0Y-111.5
X65.5Y-52.0
X71.5Y-59.5
X71.5Y-63.0
X74.5Y-63.5
X75.0Y-61.5
X77.5Y-69.5
X79.0Y-56.0
X81.0Y-60.5
X81.555Y-68.725
X84.095Y-68.725
X86.5Y-70.0
X87.5Y-53.5
X87.905Y-68.725
X89.0Y-66.0
X89.5Y-56.5
X92.0Y-61.5
X92.5Y-57.0
X94.5Y-71.0
X97.0Y-61.0
X99.0Y-57.0
X107.5Y-61.0
X109.0Y-65.5
X115.5Y-56.0
X116.5Y-63.0
X118.0Y-60.5
X121.0Y-71.5
X122.5Y-66.0
X125.5Y-62.5
X129.5Y-68.0
X133.0Y-60.5
X136.0Y-52.0
X137.0Y-66.0
X140.5Y-60.5
X148.0Y-52.0
X148.0Y-56.5
T2
X62.5Y-54.5
X65.0Y-54.5
X67.5Y-54.5
X70.0Y-54.5
X72.5Y-54.5
X75.0Y-54.5
X100.5Y-55.0
X103.0Y-55.0
X105.5Y-55.0
X108.0Y-55.0
X110.5Y-55.0
X120.0Y-54.975
X122.5Y-54.975
X125.0Y-54.975
X127.5Y-54.975
X130.0Y-54.975
T3
X58.5Y-72.0
X58.5Y-74.54
X58.5Y-77.08
X58.5Y-79.62
X58.5Y-82.16
X58.5Y-84.7
X58.5Y-87.24
X58.5Y-89.78
X58.5Y-92.32
X58.5Y-94.86
X58.5Y-97.4
X58.5Y-99.94
X58.5Y-102.48
X58.5Y-105.02
X58.5Y-107.56
X58.5Y-110.1
X58.5Y-112.64
X58.5Y-115.18
X58.5Y-117.72
X58.5Y-120.26
X61.04Y-72.0
X61.04Y-74.54
X61.04Y-77.08
X61.04Y-79.62
X61.04Y-82.16
X61.04Y-84.7
X61.04Y-87.24
X61.04Y-89.78
X61.04Y-92.32
X61.04Y-94.86
X61.04Y-97.4
X61.04Y-99.94
X61.04Y-102.48
X61.04Y-105.02
X61.04Y-107.56
X61.04Y-110.1
X61.04Y-112.64
X61.04Y-115.18
X61.04Y-117.72
X61.04Y-120.26
T4
X59.85Y-67.23
X59.85Y-125.23
X145.85Y-67.23
M30
