%TF.GenerationSoftware,KiCad,Pcbnew,8.0.1*%
%TF.CreationDate,2024-06-27T20:22:44+09:00*%
%TF.ProjectId,GPIO_board,4750494f-5f62-46f6-9172-642e6b696361,rev?*%
%TF.SameCoordinates,Original*%
%TF.FileFunction,Copper,L2,Bot*%
%TF.FilePolarity,Positive*%
%FSLAX46Y46*%
G04 Gerber Fmt 4.6, Leading zero omitted, Abs format (unit mm)*
G04 Created by KiCad (PCBNEW 8.0.1) date 2024-06-27 20:22:44*
%MOMM*%
%LPD*%
G01*
G04 APERTURE LIST*
G04 Aperture macros list*
%AMRoundRect*
0 Rectangle with rounded corners*
0 $1 Rounding radius*
0 $2 $3 $4 $5 $6 $7 $8 $9 X,Y pos of 4 corners*
0 Add a 4 corners polygon primitive as box body*
4,1,4,$2,$3,$4,$5,$6,$7,$8,$9,$2,$3,0*
0 Add four circle primitives for the rounded corners*
1,1,$1+$1,$2,$3*
1,1,$1+$1,$4,$5*
1,1,$1+$1,$6,$7*
1,1,$1+$1,$8,$9*
0 Add four rect primitives between the rounded corners*
20,1,$1+$1,$2,$3,$4,$5,0*
20,1,$1+$1,$4,$5,$6,$7,0*
20,1,$1+$1,$6,$7,$8,$9,0*
20,1,$1+$1,$8,$9,$2,$3,0*%
G04 Aperture macros list end*
%TA.AperFunction,ComponentPad*%
%ADD10RoundRect,0.250000X-0.600000X-0.725000X0.600000X-0.725000X0.600000X0.725000X-0.600000X0.725000X0*%
%TD*%
%TA.AperFunction,ComponentPad*%
%ADD11O,1.700000X1.950000*%
%TD*%
%TA.AperFunction,ComponentPad*%
%ADD12R,1.700000X1.700000*%
%TD*%
%TA.AperFunction,ComponentPad*%
%ADD13O,1.700000X1.700000*%
%TD*%
%TA.AperFunction,ViaPad*%
%ADD14C,0.600000*%
%TD*%
%TA.AperFunction,Conductor*%
%ADD15C,1.500000*%
%TD*%
%TA.AperFunction,Conductor*%
%ADD16C,0.200000*%
%TD*%
%TA.AperFunction,Conductor*%
%ADD17C,1.000000*%
%TD*%
G04 APERTURE END LIST*
D10*
%TO.P,J1,1,Pin_1*%
%TO.N,GND*%
X120000000Y-54975000D03*
D11*
%TO.P,J1,2,Pin_2*%
%TO.N,+5V*%
X122500000Y-54975000D03*
%TO.P,J1,3,Pin_3*%
%TO.N,Net-(IC1-AIN)*%
X125000000Y-54975000D03*
%TO.P,J1,4,Pin_4*%
%TO.N,Net-(IC1-BIN)*%
X127500000Y-54975000D03*
%TO.P,J1,5,Pin_5*%
%TO.N,Net-(IC1-CIN)*%
X130000000Y-54975000D03*
%TD*%
D10*
%TO.P,J3,1,Pin_1*%
%TO.N,GND*%
X62500000Y-54500000D03*
D11*
%TO.P,J3,2,Pin_2*%
%TO.N,DIR_RIGHT*%
X65000000Y-54500000D03*
%TO.P,J3,3,Pin_3*%
%TO.N,PWM_RIGHT*%
X67500000Y-54500000D03*
%TO.P,J3,4,Pin_4*%
%TO.N,DIR_LEFT*%
X70000000Y-54500000D03*
%TO.P,J3,5,Pin_5*%
%TO.N,PWM_LEFT*%
X72500000Y-54500000D03*
%TO.P,J3,6,Pin_6*%
%TO.N,+3.3V*%
X75000000Y-54500000D03*
%TD*%
D12*
%TO.P,J4,1,Pin_1*%
%TO.N,+3.3V*%
X58500000Y-72000000D03*
D13*
%TO.P,J4,2,Pin_2*%
%TO.N,+5V*%
X61040000Y-72000000D03*
%TO.P,J4,3,Pin_3*%
%TO.N,STATE_LED*%
X58500000Y-74540000D03*
%TO.P,J4,4,Pin_4*%
%TO.N,+5V*%
X61040000Y-74540000D03*
%TO.P,J4,5,Pin_5*%
%TO.N,unconnected-(J4-Pin_5-Pad5)*%
X58500000Y-77080000D03*
%TO.P,J4,6,Pin_6*%
%TO.N,GND*%
X61040000Y-77080000D03*
%TO.P,J4,7,Pin_7*%
%TO.N,unconnected-(J4-Pin_7-Pad7)*%
X58500000Y-79620000D03*
%TO.P,J4,8,Pin_8*%
%TO.N,unconnected-(J4-Pin_8-Pad8)*%
X61040000Y-79620000D03*
%TO.P,J4,9,Pin_9*%
%TO.N,GND*%
X58500000Y-82160000D03*
%TO.P,J4,10,Pin_10*%
%TO.N,unconnected-(J4-Pin_10-Pad10)*%
X61040000Y-82160000D03*
%TO.P,J4,11,Pin_11*%
%TO.N,enc_R_A*%
X58500000Y-84700000D03*
%TO.P,J4,12,Pin_12*%
%TO.N,DIR_LEFT*%
X61040000Y-84700000D03*
%TO.P,J4,13,Pin_13*%
%TO.N,enc_R_B*%
X58500000Y-87240000D03*
%TO.P,J4,14,Pin_14*%
%TO.N,GND*%
X61040000Y-87240000D03*
%TO.P,J4,15,Pin_15*%
%TO.N,enc_R_Z*%
X58500000Y-89780000D03*
%TO.P,J4,16,Pin_16*%
%TO.N,DIR_RIGHT*%
X61040000Y-89780000D03*
%TO.P,J4,17,Pin_17*%
%TO.N,+3.3V*%
X58500000Y-92320000D03*
%TO.P,J4,18,Pin_18*%
%TO.N,unconnected-(J4-Pin_18-Pad18)*%
X61040000Y-92320000D03*
%TO.P,J4,19,Pin_19*%
%TO.N,unconnected-(J4-Pin_19-Pad19)*%
X58500000Y-94860000D03*
%TO.P,J4,20,Pin_20*%
%TO.N,GND*%
X61040000Y-94860000D03*
%TO.P,J4,21,Pin_21*%
%TO.N,unconnected-(J4-Pin_21-Pad21)*%
X58500000Y-97400000D03*
%TO.P,J4,22,Pin_22*%
%TO.N,unconnected-(J4-Pin_22-Pad22)*%
X61040000Y-97400000D03*
%TO.P,J4,23,Pin_23*%
%TO.N,unconnected-(J4-Pin_23-Pad23)*%
X58500000Y-99940000D03*
%TO.P,J4,24,Pin_24*%
%TO.N,unconnected-(J4-Pin_24-Pad24)*%
X61040000Y-99940000D03*
%TO.P,J4,25,Pin_25*%
%TO.N,GND*%
X58500000Y-102480000D03*
%TO.P,J4,26,Pin_26*%
%TO.N,unconnected-(J4-Pin_26-Pad26)*%
X61040000Y-102480000D03*
%TO.P,J4,27,Pin_27*%
%TO.N,unconnected-(J4-Pin_27-Pad27)*%
X58500000Y-105020000D03*
%TO.P,J4,28,Pin_28*%
%TO.N,unconnected-(J4-Pin_28-Pad28)*%
X61040000Y-105020000D03*
%TO.P,J4,29,Pin_29*%
%TO.N,unconnected-(J4-Pin_29-Pad29)*%
X58500000Y-107560000D03*
%TO.P,J4,30,Pin_30*%
%TO.N,GND*%
X61040000Y-107560000D03*
%TO.P,J4,31,Pin_31*%
%TO.N,unconnected-(J4-Pin_31-Pad31)*%
X58500000Y-110100000D03*
%TO.P,J4,32,Pin_32*%
%TO.N,PWM_LEFT*%
X61040000Y-110100000D03*
%TO.P,J4,33,Pin_33*%
%TO.N,PWM_RIGHT*%
X58500000Y-112640000D03*
%TO.P,J4,34,Pin_34*%
%TO.N,GND*%
X61040000Y-112640000D03*
%TO.P,J4,35,Pin_35*%
%TO.N,unconnected-(J4-Pin_35-Pad35)*%
X58500000Y-115180000D03*
%TO.P,J4,36,Pin_36*%
%TO.N,enc_L_A*%
X61040000Y-115180000D03*
%TO.P,J4,37,Pin_37*%
%TO.N,unconnected-(J4-Pin_37-Pad37)*%
X58500000Y-117720000D03*
%TO.P,J4,38,Pin_38*%
%TO.N,enc_L_B*%
X61040000Y-117720000D03*
%TO.P,J4,39,Pin_39*%
%TO.N,GND*%
X58500000Y-120260000D03*
%TO.P,J4,40,Pin_40*%
%TO.N,enc_L_Z*%
X61040000Y-120260000D03*
%TD*%
D10*
%TO.P,J2,1,Pin_1*%
%TO.N,GND*%
X100500000Y-55000000D03*
D11*
%TO.P,J2,2,Pin_2*%
%TO.N,+5V*%
X103000000Y-55000000D03*
%TO.P,J2,3,Pin_3*%
%TO.N,Net-(IC1-DIN)*%
X105500000Y-55000000D03*
%TO.P,J2,4,Pin_4*%
%TO.N,Net-(IC1-EIN)*%
X108000000Y-55000000D03*
%TO.P,J2,5,Pin_5*%
%TO.N,Net-(IC1-FIN)*%
X110500000Y-55000000D03*
%TD*%
D14*
%TO.N,GND*%
X55500000Y-89000000D03*
X56500000Y-107000000D03*
X56000000Y-95000000D03*
%TO.N,enc_R_A*%
X56025000Y-83975000D03*
%TO.N,enc_R_B*%
X55950000Y-85468856D03*
%TO.N,enc_R_Z*%
X55500000Y-86780000D03*
%TO.N,STATE_LED*%
X74500000Y-63500000D03*
%TO.N,Net-(IC1-FIN)*%
X87905000Y-68725000D03*
%TO.N,Net-(IC1-EIN)*%
X84095000Y-68725000D03*
%TO.N,Net-(IC1-DIN)*%
X81555000Y-68725000D03*
%TO.N,DIR_RIGHT*%
X51000000Y-82000000D03*
%TO.N,DIR_LEFT*%
X52400000Y-81919101D03*
%TO.N,PWM_LEFT*%
X52500000Y-107500000D03*
%TO.N,PWM_RIGHT*%
X51500000Y-109000000D03*
%TO.N,GND*%
X52000000Y-57500000D03*
X97000000Y-61000000D03*
X109000000Y-65500000D03*
X92500000Y-57000000D03*
X94500000Y-71000000D03*
X64500000Y-84000000D03*
X116500000Y-63000000D03*
X129500000Y-68000000D03*
X56000000Y-120500000D03*
X79000000Y-56000000D03*
X125500000Y-62500000D03*
X87500000Y-53500000D03*
X121000000Y-71500000D03*
X148000000Y-52000000D03*
X86500000Y-70000000D03*
X65000000Y-111500000D03*
X64500000Y-80500000D03*
X53500000Y-128000000D03*
X122500000Y-66000000D03*
X64000000Y-95000000D03*
X65500000Y-52000000D03*
X133000000Y-60500000D03*
X64500000Y-68500000D03*
X136000000Y-52000000D03*
X71500000Y-59500000D03*
X52500000Y-52000000D03*
X115500000Y-56000000D03*
X71500000Y-63000000D03*
X137000000Y-66000000D03*
X118000000Y-60500000D03*
X89500000Y-56500000D03*
X81000000Y-60500000D03*
X140500000Y-60500000D03*
X148000000Y-56500000D03*
X99000000Y-57000000D03*
X53500000Y-118500000D03*
X89000000Y-66000000D03*
X107500000Y-61000000D03*
X77500000Y-69500000D03*
X65000000Y-63500000D03*
%TO.N,+3.3V*%
X92000000Y-61500000D03*
X75000000Y-61500000D03*
%TD*%
D15*
%TO.N,GND*%
X62260000Y-87240000D02*
X62500000Y-87000000D01*
X61040000Y-87240000D02*
X62260000Y-87240000D01*
D16*
%TO.N,enc_R_Z*%
X58500000Y-89780000D02*
X55500000Y-86780000D01*
%TO.N,DIR_RIGHT*%
X51568529Y-82000000D02*
X51000000Y-82000000D01*
X59890000Y-88630000D02*
X58198529Y-88630000D01*
X61040000Y-89780000D02*
X59890000Y-88630000D01*
X58198529Y-88630000D02*
X51568529Y-82000000D01*
%TO.N,enc_R_B*%
X56728856Y-85468856D02*
X55950000Y-85468856D01*
X58500000Y-87240000D02*
X56728856Y-85468856D01*
D15*
%TO.N,GND*%
X56520000Y-102480000D02*
X56500000Y-102500000D01*
X58500000Y-102480000D02*
X56520000Y-102480000D01*
D16*
%TO.N,STATE_LED*%
X59890000Y-73150000D02*
X64850000Y-73150000D01*
X58500000Y-74540000D02*
X59890000Y-73150000D01*
X64850000Y-73150000D02*
X74500000Y-63500000D01*
%TO.N,Net-(IC1-EIN)*%
X84500000Y-67050000D02*
X95950000Y-67050000D01*
X95950000Y-67050000D02*
X108000000Y-55000000D01*
X84095000Y-68725000D02*
X84095000Y-67455000D01*
X84095000Y-67455000D02*
X84500000Y-67050000D01*
%TO.N,Net-(IC1-FIN)*%
X98000000Y-67500000D02*
X88500000Y-67500000D01*
X110500000Y-55000000D02*
X98000000Y-67500000D01*
X88500000Y-67500000D02*
X87905000Y-68095000D01*
X87905000Y-68095000D02*
X87905000Y-68725000D01*
%TO.N,Net-(IC1-DIN)*%
X81500000Y-68670000D02*
X81555000Y-68725000D01*
X81500000Y-68000000D02*
X81500000Y-68670000D01*
%TO.N,DIR_LEFT*%
X52400000Y-81919101D02*
X52419101Y-81919101D01*
X52419101Y-81919101D02*
X53810000Y-83310000D01*
D15*
%TO.N,GND*%
X58500000Y-82160000D02*
X56660000Y-82160000D01*
X56660000Y-82160000D02*
X56500000Y-82000000D01*
D17*
%TO.N,+3.3V*%
X58500000Y-72000000D02*
X55000000Y-68500000D01*
X55000000Y-64000000D02*
X57500000Y-61500000D01*
X57500000Y-61500000D02*
X92000000Y-61500000D01*
X55000000Y-68500000D02*
X55000000Y-64000000D01*
D16*
%TO.N,Net-(IC1-DIN)*%
X81500000Y-68000000D02*
X82850000Y-66650000D01*
X93850000Y-66650000D02*
X105500000Y-55000000D01*
X82850000Y-66650000D02*
X93850000Y-66650000D01*
%TO.N,enc_R_A*%
X56050000Y-84000000D02*
X57800000Y-84000000D01*
X57800000Y-84000000D02*
X58500000Y-84700000D01*
%TO.N,PWM_LEFT*%
X52500000Y-107500000D02*
X53710000Y-108710000D01*
X59650000Y-108710000D02*
X61040000Y-110100000D01*
X53710000Y-108710000D02*
X59650000Y-108710000D01*
%TO.N,PWM_RIGHT*%
X51500000Y-109000000D02*
X53000000Y-110500000D01*
X53000000Y-110500000D02*
X56360000Y-110500000D01*
X56360000Y-110500000D02*
X58500000Y-112640000D01*
%TO.N,DIR_LEFT*%
X59650000Y-83310000D02*
X61040000Y-84700000D01*
X53810000Y-83310000D02*
X59650000Y-83310000D01*
%TD*%
%TA.AperFunction,Conductor*%
%TO.N,GND*%
G36*
X66418834Y-72532914D02*
G01*
X66474767Y-72574786D01*
X66499184Y-72640250D01*
X66499500Y-72649096D01*
X66499500Y-128375500D01*
X66479815Y-128442539D01*
X66427011Y-128488294D01*
X66375500Y-128499500D01*
X50624500Y-128499500D01*
X50557461Y-128479815D01*
X50511706Y-128427011D01*
X50500500Y-128375500D01*
X50500500Y-125351288D01*
X57999500Y-125351288D01*
X58031161Y-125591785D01*
X58093947Y-125826104D01*
X58186773Y-126050205D01*
X58186776Y-126050212D01*
X58308064Y-126260289D01*
X58308066Y-126260292D01*
X58308067Y-126260293D01*
X58455733Y-126452736D01*
X58455739Y-126452743D01*
X58627256Y-126624260D01*
X58627262Y-126624265D01*
X58819711Y-126771936D01*
X59029788Y-126893224D01*
X59253900Y-126986054D01*
X59488211Y-127048838D01*
X59668586Y-127072584D01*
X59728711Y-127080500D01*
X59728712Y-127080500D01*
X59971289Y-127080500D01*
X60019388Y-127074167D01*
X60211789Y-127048838D01*
X60446100Y-126986054D01*
X60670212Y-126893224D01*
X60880289Y-126771936D01*
X61072738Y-126624265D01*
X61244265Y-126452738D01*
X61391936Y-126260289D01*
X61513224Y-126050212D01*
X61606054Y-125826100D01*
X61668838Y-125591789D01*
X61700500Y-125351288D01*
X61700500Y-125108712D01*
X61668838Y-124868211D01*
X61606054Y-124633900D01*
X61513224Y-124409788D01*
X61391936Y-124199711D01*
X61244265Y-124007262D01*
X61244260Y-124007256D01*
X61072743Y-123835739D01*
X61072736Y-123835733D01*
X60880293Y-123688067D01*
X60880292Y-123688066D01*
X60880289Y-123688064D01*
X60670212Y-123566776D01*
X60670205Y-123566773D01*
X60446104Y-123473947D01*
X60211785Y-123411161D01*
X59971289Y-123379500D01*
X59971288Y-123379500D01*
X59728712Y-123379500D01*
X59728711Y-123379500D01*
X59488214Y-123411161D01*
X59253895Y-123473947D01*
X59029794Y-123566773D01*
X59029785Y-123566777D01*
X58819706Y-123688067D01*
X58627263Y-123835733D01*
X58627256Y-123835739D01*
X58455739Y-124007256D01*
X58455733Y-124007263D01*
X58308067Y-124199706D01*
X58186777Y-124409785D01*
X58186773Y-124409794D01*
X58093947Y-124633895D01*
X58031161Y-124868214D01*
X57999500Y-125108711D01*
X57999500Y-125351288D01*
X50500500Y-125351288D01*
X50500500Y-109297114D01*
X50520185Y-109230075D01*
X50572989Y-109184320D01*
X50642147Y-109174376D01*
X50705703Y-109203401D01*
X50741542Y-109256160D01*
X50774210Y-109349521D01*
X50819858Y-109422169D01*
X50870184Y-109502262D01*
X50997738Y-109629816D01*
X51150478Y-109725789D01*
X51320745Y-109785368D01*
X51407669Y-109795161D01*
X51472080Y-109822226D01*
X51481465Y-109830700D01*
X52515139Y-110864374D01*
X52515149Y-110864385D01*
X52519479Y-110868715D01*
X52519480Y-110868716D01*
X52631284Y-110980520D01*
X52631286Y-110980521D01*
X52631290Y-110980524D01*
X52768209Y-111059573D01*
X52768216Y-111059577D01*
X52880019Y-111089534D01*
X52920942Y-111100500D01*
X52920943Y-111100500D01*
X56059903Y-111100500D01*
X56126942Y-111120185D01*
X56147584Y-111136819D01*
X57167233Y-112156468D01*
X57200718Y-112217791D01*
X57199327Y-112276241D01*
X57164939Y-112404583D01*
X57164936Y-112404596D01*
X57144341Y-112639999D01*
X57144341Y-112640000D01*
X57164936Y-112875403D01*
X57164938Y-112875413D01*
X57226094Y-113103655D01*
X57226096Y-113103659D01*
X57226097Y-113103663D01*
X57309155Y-113281781D01*
X57325965Y-113317830D01*
X57325967Y-113317834D01*
X57434281Y-113472521D01*
X57461501Y-113511396D01*
X57461506Y-113511402D01*
X57628597Y-113678493D01*
X57628603Y-113678498D01*
X57814158Y-113808425D01*
X57857783Y-113863002D01*
X57864977Y-113932500D01*
X57833454Y-113994855D01*
X57814158Y-114011575D01*
X57628597Y-114141505D01*
X57461505Y-114308597D01*
X57325965Y-114502169D01*
X57325964Y-114502171D01*
X57226098Y-114716335D01*
X57226094Y-114716344D01*
X57164938Y-114944586D01*
X57164936Y-114944596D01*
X57144341Y-115179999D01*
X57144341Y-115180000D01*
X57164936Y-115415403D01*
X57164938Y-115415413D01*
X57226094Y-115643655D01*
X57226096Y-115643659D01*
X57226097Y-115643663D01*
X57230000Y-115652032D01*
X57325965Y-115857830D01*
X57325967Y-115857834D01*
X57434281Y-116012521D01*
X57461501Y-116051396D01*
X57461506Y-116051402D01*
X57628597Y-116218493D01*
X57628603Y-116218498D01*
X57814158Y-116348425D01*
X57857783Y-116403002D01*
X57864977Y-116472500D01*
X57833454Y-116534855D01*
X57814158Y-116551575D01*
X57628597Y-116681505D01*
X57461505Y-116848597D01*
X57325965Y-117042169D01*
X57325964Y-117042171D01*
X57226098Y-117256335D01*
X57226094Y-117256344D01*
X57164938Y-117484586D01*
X57164936Y-117484596D01*
X57144341Y-117719999D01*
X57144341Y-117720000D01*
X57164936Y-117955403D01*
X57164938Y-117955413D01*
X57226094Y-118183655D01*
X57226096Y-118183659D01*
X57226097Y-118183663D01*
X57230000Y-118192032D01*
X57325965Y-118397830D01*
X57325967Y-118397834D01*
X57434281Y-118552521D01*
X57461501Y-118591396D01*
X57461506Y-118591402D01*
X57628597Y-118758493D01*
X57628603Y-118758498D01*
X57814594Y-118888730D01*
X57858219Y-118943307D01*
X57865413Y-119012805D01*
X57833890Y-119075160D01*
X57814595Y-119091880D01*
X57628922Y-119221890D01*
X57628920Y-119221891D01*
X57461891Y-119388920D01*
X57461886Y-119388926D01*
X57326400Y-119582420D01*
X57326399Y-119582422D01*
X57226570Y-119796507D01*
X57226567Y-119796513D01*
X57169364Y-120009999D01*
X57169364Y-120010000D01*
X58066988Y-120010000D01*
X58034075Y-120067007D01*
X58000000Y-120194174D01*
X58000000Y-120325826D01*
X58034075Y-120452993D01*
X58066988Y-120510000D01*
X57169364Y-120510000D01*
X57226567Y-120723486D01*
X57226570Y-120723492D01*
X57326399Y-120937578D01*
X57461894Y-121131082D01*
X57628917Y-121298105D01*
X57822421Y-121433600D01*
X58036507Y-121533429D01*
X58036516Y-121533433D01*
X58250000Y-121590634D01*
X58250000Y-120693012D01*
X58307007Y-120725925D01*
X58434174Y-120760000D01*
X58565826Y-120760000D01*
X58692993Y-120725925D01*
X58750000Y-120693012D01*
X58750000Y-121590633D01*
X58963483Y-121533433D01*
X58963492Y-121533429D01*
X59177578Y-121433600D01*
X59371082Y-121298105D01*
X59538105Y-121131082D01*
X59668119Y-120945405D01*
X59722696Y-120901781D01*
X59792195Y-120894588D01*
X59854549Y-120926110D01*
X59871269Y-120945405D01*
X60001505Y-121131401D01*
X60168599Y-121298495D01*
X60265384Y-121366265D01*
X60362165Y-121434032D01*
X60362167Y-121434033D01*
X60362170Y-121434035D01*
X60576337Y-121533903D01*
X60804592Y-121595063D01*
X60992918Y-121611539D01*
X61039999Y-121615659D01*
X61040000Y-121615659D01*
X61040001Y-121615659D01*
X61079234Y-121612226D01*
X61275408Y-121595063D01*
X61503663Y-121533903D01*
X61717830Y-121434035D01*
X61911401Y-121298495D01*
X62078495Y-121131401D01*
X62214035Y-120937830D01*
X62313903Y-120723663D01*
X62375063Y-120495408D01*
X62395659Y-120260000D01*
X62375063Y-120024592D01*
X62313903Y-119796337D01*
X62214035Y-119582171D01*
X62208731Y-119574595D01*
X62078494Y-119388597D01*
X61911402Y-119221506D01*
X61911396Y-119221501D01*
X61725842Y-119091575D01*
X61682217Y-119036998D01*
X61675023Y-118967500D01*
X61706546Y-118905145D01*
X61725842Y-118888425D01*
X61748026Y-118872891D01*
X61911401Y-118758495D01*
X62078495Y-118591401D01*
X62214035Y-118397830D01*
X62313903Y-118183663D01*
X62375063Y-117955408D01*
X62395659Y-117720000D01*
X62375063Y-117484592D01*
X62313903Y-117256337D01*
X62214035Y-117042171D01*
X62208425Y-117034158D01*
X62078494Y-116848597D01*
X61911402Y-116681506D01*
X61911396Y-116681501D01*
X61725842Y-116551575D01*
X61682217Y-116496998D01*
X61675023Y-116427500D01*
X61706546Y-116365145D01*
X61725842Y-116348425D01*
X61748026Y-116332891D01*
X61911401Y-116218495D01*
X62078495Y-116051401D01*
X62214035Y-115857830D01*
X62313903Y-115643663D01*
X62375063Y-115415408D01*
X62395659Y-115180000D01*
X62375063Y-114944592D01*
X62313903Y-114716337D01*
X62214035Y-114502171D01*
X62208425Y-114494158D01*
X62078494Y-114308597D01*
X61911402Y-114141506D01*
X61911401Y-114141505D01*
X61725405Y-114011269D01*
X61681781Y-113956692D01*
X61674588Y-113887193D01*
X61706110Y-113824839D01*
X61725405Y-113808119D01*
X61911082Y-113678105D01*
X62078105Y-113511082D01*
X62213600Y-113317578D01*
X62313429Y-113103492D01*
X62313432Y-113103486D01*
X62370636Y-112890000D01*
X61473012Y-112890000D01*
X61505925Y-112832993D01*
X61540000Y-112705826D01*
X61540000Y-112574174D01*
X61505925Y-112447007D01*
X61473012Y-112390000D01*
X62370636Y-112390000D01*
X62370635Y-112389999D01*
X62313432Y-112176513D01*
X62313429Y-112176507D01*
X62213600Y-111962422D01*
X62213599Y-111962420D01*
X62078113Y-111768926D01*
X62078108Y-111768920D01*
X61911078Y-111601890D01*
X61725405Y-111471879D01*
X61681780Y-111417302D01*
X61674588Y-111347804D01*
X61706110Y-111285449D01*
X61725406Y-111268730D01*
X61725842Y-111268425D01*
X61911401Y-111138495D01*
X62078495Y-110971401D01*
X62214035Y-110777830D01*
X62313903Y-110563663D01*
X62375063Y-110335408D01*
X62395659Y-110100000D01*
X62375063Y-109864592D01*
X62313903Y-109636337D01*
X62214035Y-109422171D01*
X62163166Y-109349521D01*
X62078494Y-109228597D01*
X61911402Y-109061506D01*
X61911401Y-109061505D01*
X61725405Y-108931269D01*
X61681781Y-108876692D01*
X61674588Y-108807193D01*
X61706110Y-108744839D01*
X61725405Y-108728119D01*
X61911082Y-108598105D01*
X62078105Y-108431082D01*
X62213600Y-108237578D01*
X62313429Y-108023492D01*
X62313432Y-108023486D01*
X62370636Y-107810000D01*
X61473012Y-107810000D01*
X61505925Y-107752993D01*
X61540000Y-107625826D01*
X61540000Y-107494174D01*
X61505925Y-107367007D01*
X61473012Y-107310000D01*
X62370636Y-107310000D01*
X62370635Y-107309999D01*
X62313432Y-107096513D01*
X62313429Y-107096507D01*
X62213600Y-106882422D01*
X62213599Y-106882420D01*
X62078113Y-106688926D01*
X62078108Y-106688920D01*
X61911078Y-106521890D01*
X61725405Y-106391879D01*
X61681780Y-106337302D01*
X61674588Y-106267804D01*
X61706110Y-106205449D01*
X61725406Y-106188730D01*
X61725842Y-106188425D01*
X61911401Y-106058495D01*
X62078495Y-105891401D01*
X62214035Y-105697830D01*
X62313903Y-105483663D01*
X62375063Y-105255408D01*
X62395659Y-105020000D01*
X62375063Y-104784592D01*
X62313903Y-104556337D01*
X62214035Y-104342171D01*
X62208425Y-104334158D01*
X62078494Y-104148597D01*
X61911402Y-103981506D01*
X61911396Y-103981501D01*
X61725842Y-103851575D01*
X61682217Y-103796998D01*
X61675023Y-103727500D01*
X61706546Y-103665145D01*
X61725842Y-103648425D01*
X61748026Y-103632891D01*
X61911401Y-103518495D01*
X62078495Y-103351401D01*
X62214035Y-103157830D01*
X62313903Y-102943663D01*
X62375063Y-102715408D01*
X62395659Y-102480000D01*
X62375063Y-102244592D01*
X62313903Y-102016337D01*
X62214035Y-101802171D01*
X62208731Y-101794595D01*
X62078494Y-101608597D01*
X61911402Y-101441506D01*
X61911396Y-101441501D01*
X61725842Y-101311575D01*
X61682217Y-101256998D01*
X61675023Y-101187500D01*
X61706546Y-101125145D01*
X61725842Y-101108425D01*
X61748026Y-101092891D01*
X61911401Y-100978495D01*
X62078495Y-100811401D01*
X62214035Y-100617830D01*
X62313903Y-100403663D01*
X62375063Y-100175408D01*
X62395659Y-99940000D01*
X62375063Y-99704592D01*
X62313903Y-99476337D01*
X62214035Y-99262171D01*
X62208425Y-99254158D01*
X62078494Y-99068597D01*
X61911402Y-98901506D01*
X61911396Y-98901501D01*
X61725842Y-98771575D01*
X61682217Y-98716998D01*
X61675023Y-98647500D01*
X61706546Y-98585145D01*
X61725842Y-98568425D01*
X61748026Y-98552891D01*
X61911401Y-98438495D01*
X62078495Y-98271401D01*
X62214035Y-98077830D01*
X62313903Y-97863663D01*
X62375063Y-97635408D01*
X62395659Y-97400000D01*
X62375063Y-97164592D01*
X62313903Y-96936337D01*
X62214035Y-96722171D01*
X62208425Y-96714158D01*
X62078494Y-96528597D01*
X61911402Y-96361506D01*
X61911401Y-96361505D01*
X61725405Y-96231269D01*
X61681781Y-96176692D01*
X61674588Y-96107193D01*
X61706110Y-96044839D01*
X61725405Y-96028119D01*
X61911082Y-95898105D01*
X62078105Y-95731082D01*
X62213600Y-95537578D01*
X62313429Y-95323492D01*
X62313432Y-95323486D01*
X62370636Y-95110000D01*
X61473012Y-95110000D01*
X61505925Y-95052993D01*
X61540000Y-94925826D01*
X61540000Y-94794174D01*
X61505925Y-94667007D01*
X61473012Y-94610000D01*
X62370636Y-94610000D01*
X62370635Y-94609999D01*
X62313432Y-94396513D01*
X62313429Y-94396507D01*
X62213600Y-94182422D01*
X62213599Y-94182420D01*
X62078113Y-93988926D01*
X62078108Y-93988920D01*
X61911078Y-93821890D01*
X61725405Y-93691879D01*
X61681780Y-93637302D01*
X61674588Y-93567804D01*
X61706110Y-93505449D01*
X61725406Y-93488730D01*
X61725842Y-93488425D01*
X61911401Y-93358495D01*
X62078495Y-93191401D01*
X62214035Y-92997830D01*
X62313903Y-92783663D01*
X62375063Y-92555408D01*
X62395659Y-92320000D01*
X62375063Y-92084592D01*
X62313903Y-91856337D01*
X62214035Y-91642171D01*
X62208425Y-91634158D01*
X62078494Y-91448597D01*
X61911402Y-91281506D01*
X61911396Y-91281501D01*
X61725842Y-91151575D01*
X61682217Y-91096998D01*
X61675023Y-91027500D01*
X61706546Y-90965145D01*
X61725842Y-90948425D01*
X61748026Y-90932891D01*
X61911401Y-90818495D01*
X62078495Y-90651401D01*
X62214035Y-90457830D01*
X62313903Y-90243663D01*
X62375063Y-90015408D01*
X62395659Y-89780000D01*
X62375063Y-89544592D01*
X62313903Y-89316337D01*
X62214035Y-89102171D01*
X62078495Y-88908599D01*
X62078494Y-88908597D01*
X61911402Y-88741506D01*
X61911401Y-88741505D01*
X61725405Y-88611269D01*
X61681781Y-88556692D01*
X61674588Y-88487193D01*
X61706110Y-88424839D01*
X61725405Y-88408119D01*
X61911082Y-88278105D01*
X62078105Y-88111082D01*
X62213600Y-87917578D01*
X62313429Y-87703492D01*
X62313432Y-87703486D01*
X62370636Y-87490000D01*
X61473012Y-87490000D01*
X61505925Y-87432993D01*
X61540000Y-87305826D01*
X61540000Y-87174174D01*
X61505925Y-87047007D01*
X61473012Y-86990000D01*
X62370636Y-86990000D01*
X62370635Y-86989999D01*
X62313432Y-86776513D01*
X62313429Y-86776507D01*
X62213600Y-86562422D01*
X62213599Y-86562420D01*
X62078113Y-86368926D01*
X62078108Y-86368920D01*
X61911078Y-86201890D01*
X61725405Y-86071879D01*
X61681780Y-86017302D01*
X61674588Y-85947804D01*
X61706110Y-85885449D01*
X61725406Y-85868730D01*
X61725842Y-85868425D01*
X61911401Y-85738495D01*
X62078495Y-85571401D01*
X62214035Y-85377830D01*
X62313903Y-85163663D01*
X62375063Y-84935408D01*
X62395659Y-84700000D01*
X62375063Y-84464592D01*
X62313903Y-84236337D01*
X62214035Y-84022171D01*
X62212947Y-84020616D01*
X62078494Y-83828597D01*
X61911402Y-83661506D01*
X61911396Y-83661501D01*
X61725842Y-83531575D01*
X61682217Y-83476998D01*
X61675023Y-83407500D01*
X61706546Y-83345145D01*
X61725842Y-83328425D01*
X61748026Y-83312891D01*
X61911401Y-83198495D01*
X62078495Y-83031401D01*
X62214035Y-82837830D01*
X62313903Y-82623663D01*
X62375063Y-82395408D01*
X62395659Y-82160000D01*
X62375063Y-81924592D01*
X62313903Y-81696337D01*
X62214035Y-81482171D01*
X62208731Y-81474595D01*
X62078494Y-81288597D01*
X61911402Y-81121506D01*
X61911396Y-81121501D01*
X61725842Y-80991575D01*
X61682217Y-80936998D01*
X61675023Y-80867500D01*
X61706546Y-80805145D01*
X61725842Y-80788425D01*
X61748026Y-80772891D01*
X61911401Y-80658495D01*
X62078495Y-80491401D01*
X62214035Y-80297830D01*
X62313903Y-80083663D01*
X62375063Y-79855408D01*
X62395659Y-79620000D01*
X62375063Y-79384592D01*
X62313903Y-79156337D01*
X62214035Y-78942171D01*
X62208425Y-78934158D01*
X62078494Y-78748597D01*
X61911402Y-78581506D01*
X61911401Y-78581505D01*
X61725405Y-78451269D01*
X61681781Y-78396692D01*
X61674588Y-78327193D01*
X61706110Y-78264839D01*
X61725405Y-78248119D01*
X61911082Y-78118105D01*
X62078105Y-77951082D01*
X62213600Y-77757578D01*
X62313429Y-77543492D01*
X62313432Y-77543486D01*
X62370636Y-77330000D01*
X61473012Y-77330000D01*
X61505925Y-77272993D01*
X61540000Y-77145826D01*
X61540000Y-77014174D01*
X61505925Y-76887007D01*
X61473012Y-76830000D01*
X62370636Y-76830000D01*
X62370635Y-76829999D01*
X62313432Y-76616513D01*
X62313429Y-76616507D01*
X62213600Y-76402422D01*
X62213599Y-76402420D01*
X62078113Y-76208926D01*
X62078108Y-76208920D01*
X61911078Y-76041890D01*
X61725405Y-75911879D01*
X61681780Y-75857302D01*
X61674588Y-75787804D01*
X61706110Y-75725449D01*
X61725406Y-75708730D01*
X61725842Y-75708425D01*
X61911401Y-75578495D01*
X62078495Y-75411401D01*
X62214035Y-75217830D01*
X62313903Y-75003663D01*
X62375063Y-74775408D01*
X62395659Y-74540000D01*
X62375063Y-74304592D01*
X62313903Y-74076337D01*
X62244220Y-73926904D01*
X62233729Y-73857828D01*
X62262249Y-73794044D01*
X62320725Y-73755804D01*
X62356603Y-73750500D01*
X64763331Y-73750500D01*
X64763347Y-73750501D01*
X64770943Y-73750501D01*
X64929054Y-73750501D01*
X64929057Y-73750501D01*
X65081785Y-73709577D01*
X65131904Y-73680639D01*
X65218716Y-73630520D01*
X65330520Y-73518716D01*
X65330520Y-73518714D01*
X65340728Y-73508507D01*
X65340730Y-73508504D01*
X66287819Y-72561415D01*
X66349142Y-72527930D01*
X66418834Y-72532914D01*
G37*
%TD.AperFunction*%
%TA.AperFunction,Conductor*%
G36*
X51475406Y-82756112D02*
G01*
X54849208Y-86129914D01*
X54882693Y-86191237D01*
X54877709Y-86260929D01*
X54866521Y-86283567D01*
X54774211Y-86430476D01*
X54714631Y-86600745D01*
X54714630Y-86600750D01*
X54694435Y-86779996D01*
X54694435Y-86780003D01*
X54714630Y-86959249D01*
X54714631Y-86959254D01*
X54774211Y-87129523D01*
X54843629Y-87240000D01*
X54870184Y-87282262D01*
X54997738Y-87409816D01*
X55150478Y-87505789D01*
X55320745Y-87565368D01*
X55407669Y-87575161D01*
X55472080Y-87602226D01*
X55481465Y-87610700D01*
X57167233Y-89296469D01*
X57200718Y-89357792D01*
X57199327Y-89416243D01*
X57164938Y-89544586D01*
X57164936Y-89544596D01*
X57144341Y-89779999D01*
X57144341Y-89780000D01*
X57164936Y-90015403D01*
X57164938Y-90015413D01*
X57226094Y-90243655D01*
X57226096Y-90243659D01*
X57226097Y-90243663D01*
X57230000Y-90252032D01*
X57325965Y-90457830D01*
X57325967Y-90457834D01*
X57434281Y-90612521D01*
X57461501Y-90651396D01*
X57461506Y-90651402D01*
X57628597Y-90818493D01*
X57628603Y-90818498D01*
X57814158Y-90948425D01*
X57857783Y-91003002D01*
X57864977Y-91072500D01*
X57833454Y-91134855D01*
X57814158Y-91151575D01*
X57628597Y-91281505D01*
X57461505Y-91448597D01*
X57325965Y-91642169D01*
X57325964Y-91642171D01*
X57226098Y-91856335D01*
X57226094Y-91856344D01*
X57164938Y-92084586D01*
X57164936Y-92084596D01*
X57144341Y-92319999D01*
X57144341Y-92320000D01*
X57164936Y-92555403D01*
X57164938Y-92555413D01*
X57226094Y-92783655D01*
X57226096Y-92783659D01*
X57226097Y-92783663D01*
X57230000Y-92792032D01*
X57325965Y-92997830D01*
X57325967Y-92997834D01*
X57434281Y-93152521D01*
X57461501Y-93191396D01*
X57461506Y-93191402D01*
X57628597Y-93358493D01*
X57628603Y-93358498D01*
X57814158Y-93488425D01*
X57857783Y-93543002D01*
X57864977Y-93612500D01*
X57833454Y-93674855D01*
X57814158Y-93691575D01*
X57628597Y-93821505D01*
X57461505Y-93988597D01*
X57325965Y-94182169D01*
X57325964Y-94182171D01*
X57226098Y-94396335D01*
X57226094Y-94396344D01*
X57164938Y-94624586D01*
X57164936Y-94624596D01*
X57144341Y-94859999D01*
X57144341Y-94860000D01*
X57164936Y-95095403D01*
X57164938Y-95095413D01*
X57226094Y-95323655D01*
X57226096Y-95323659D01*
X57226097Y-95323663D01*
X57309155Y-95501781D01*
X57325965Y-95537830D01*
X57325967Y-95537834D01*
X57434281Y-95692521D01*
X57461501Y-95731396D01*
X57461506Y-95731402D01*
X57628597Y-95898493D01*
X57628603Y-95898498D01*
X57814158Y-96028425D01*
X57857783Y-96083002D01*
X57864977Y-96152500D01*
X57833454Y-96214855D01*
X57814158Y-96231575D01*
X57628597Y-96361505D01*
X57461505Y-96528597D01*
X57325965Y-96722169D01*
X57325964Y-96722171D01*
X57226098Y-96936335D01*
X57226094Y-96936344D01*
X57164938Y-97164586D01*
X57164936Y-97164596D01*
X57144341Y-97399999D01*
X57144341Y-97400000D01*
X57164936Y-97635403D01*
X57164938Y-97635413D01*
X57226094Y-97863655D01*
X57226096Y-97863659D01*
X57226097Y-97863663D01*
X57230000Y-97872032D01*
X57325965Y-98077830D01*
X57325967Y-98077834D01*
X57434281Y-98232521D01*
X57461501Y-98271396D01*
X57461506Y-98271402D01*
X57628597Y-98438493D01*
X57628603Y-98438498D01*
X57814158Y-98568425D01*
X57857783Y-98623002D01*
X57864977Y-98692500D01*
X57833454Y-98754855D01*
X57814158Y-98771575D01*
X57628597Y-98901505D01*
X57461505Y-99068597D01*
X57325965Y-99262169D01*
X57325964Y-99262171D01*
X57226098Y-99476335D01*
X57226094Y-99476344D01*
X57164938Y-99704586D01*
X57164936Y-99704596D01*
X57144341Y-99939999D01*
X57144341Y-99940000D01*
X57164936Y-100175403D01*
X57164938Y-100175413D01*
X57226094Y-100403655D01*
X57226096Y-100403659D01*
X57226097Y-100403663D01*
X57230000Y-100412032D01*
X57325965Y-100617830D01*
X57325967Y-100617834D01*
X57434281Y-100772521D01*
X57461501Y-100811396D01*
X57461506Y-100811402D01*
X57628597Y-100978493D01*
X57628603Y-100978498D01*
X57814594Y-101108730D01*
X57858219Y-101163307D01*
X57865413Y-101232805D01*
X57833890Y-101295160D01*
X57814595Y-101311880D01*
X57628922Y-101441890D01*
X57628920Y-101441891D01*
X57461891Y-101608920D01*
X57461886Y-101608926D01*
X57326400Y-101802420D01*
X57326399Y-101802422D01*
X57226570Y-102016507D01*
X57226567Y-102016513D01*
X57169364Y-102229999D01*
X57169364Y-102230000D01*
X58066988Y-102230000D01*
X58034075Y-102287007D01*
X58000000Y-102414174D01*
X58000000Y-102545826D01*
X58034075Y-102672993D01*
X58066988Y-102730000D01*
X57169364Y-102730000D01*
X57226567Y-102943486D01*
X57226570Y-102943492D01*
X57326399Y-103157578D01*
X57461894Y-103351082D01*
X57628917Y-103518105D01*
X57814595Y-103648119D01*
X57858219Y-103702696D01*
X57865412Y-103772195D01*
X57833890Y-103834549D01*
X57814595Y-103851269D01*
X57628594Y-103981508D01*
X57461505Y-104148597D01*
X57325965Y-104342169D01*
X57325964Y-104342171D01*
X57226098Y-104556335D01*
X57226094Y-104556344D01*
X57164938Y-104784586D01*
X57164936Y-104784596D01*
X57144341Y-105019999D01*
X57144341Y-105020000D01*
X57164936Y-105255403D01*
X57164938Y-105255413D01*
X57226094Y-105483655D01*
X57226096Y-105483659D01*
X57226097Y-105483663D01*
X57230000Y-105492032D01*
X57325965Y-105697830D01*
X57325967Y-105697834D01*
X57434281Y-105852521D01*
X57461501Y-105891396D01*
X57461506Y-105891402D01*
X57628597Y-106058493D01*
X57628603Y-106058498D01*
X57814158Y-106188425D01*
X57857783Y-106243002D01*
X57864977Y-106312500D01*
X57833454Y-106374855D01*
X57814158Y-106391575D01*
X57628597Y-106521505D01*
X57461505Y-106688597D01*
X57325965Y-106882169D01*
X57325964Y-106882171D01*
X57226098Y-107096335D01*
X57226094Y-107096344D01*
X57164938Y-107324586D01*
X57164936Y-107324596D01*
X57144341Y-107559999D01*
X57144341Y-107560000D01*
X57164936Y-107795403D01*
X57164938Y-107795413D01*
X57207272Y-107953407D01*
X57205609Y-108023257D01*
X57166446Y-108081119D01*
X57102218Y-108108623D01*
X57087497Y-108109500D01*
X54010097Y-108109500D01*
X53943058Y-108089815D01*
X53922416Y-108073181D01*
X53330700Y-107481465D01*
X53297215Y-107420142D01*
X53295163Y-107407686D01*
X53285368Y-107320745D01*
X53225789Y-107150478D01*
X53129816Y-106997738D01*
X53002262Y-106870184D01*
X52849523Y-106774211D01*
X52679254Y-106714631D01*
X52679249Y-106714630D01*
X52500004Y-106694435D01*
X52499996Y-106694435D01*
X52320750Y-106714630D01*
X52320745Y-106714631D01*
X52150476Y-106774211D01*
X51997737Y-106870184D01*
X51870184Y-106997737D01*
X51774211Y-107150476D01*
X51714631Y-107320745D01*
X51714630Y-107320750D01*
X51694435Y-107499996D01*
X51694435Y-107500003D01*
X51714630Y-107679249D01*
X51714631Y-107679254D01*
X51774211Y-107849523D01*
X51870184Y-108002262D01*
X51915476Y-108047554D01*
X51948961Y-108108877D01*
X51943977Y-108178569D01*
X51902105Y-108234502D01*
X51836641Y-108258919D01*
X51786841Y-108252277D01*
X51679257Y-108214632D01*
X51679249Y-108214630D01*
X51500004Y-108194435D01*
X51499996Y-108194435D01*
X51320750Y-108214630D01*
X51320745Y-108214631D01*
X51150476Y-108274211D01*
X50997737Y-108370184D01*
X50870184Y-108497737D01*
X50774209Y-108650480D01*
X50741541Y-108743840D01*
X50700820Y-108800616D01*
X50635867Y-108826363D01*
X50567305Y-108812907D01*
X50516903Y-108764519D01*
X50500500Y-108702885D01*
X50500500Y-82848071D01*
X50520185Y-82781032D01*
X50572989Y-82735277D01*
X50642147Y-82725333D01*
X50665455Y-82731030D01*
X50820737Y-82785366D01*
X50820743Y-82785367D01*
X50820745Y-82785368D01*
X50820746Y-82785368D01*
X50820750Y-82785369D01*
X50999996Y-82805565D01*
X51000000Y-82805565D01*
X51000004Y-82805565D01*
X51179249Y-82785369D01*
X51179251Y-82785368D01*
X51179255Y-82785368D01*
X51179258Y-82785366D01*
X51179262Y-82785366D01*
X51346770Y-82726752D01*
X51416549Y-82723190D01*
X51475406Y-82756112D01*
G37*
%TD.AperFunction*%
%TA.AperFunction,Conductor*%
G36*
X149442539Y-50520185D02*
G01*
X149488294Y-50572989D01*
X149499500Y-50624500D01*
X149499500Y-71875500D01*
X149479815Y-71942539D01*
X149427011Y-71988294D01*
X149375500Y-71999500D01*
X67149096Y-71999500D01*
X67082057Y-71979815D01*
X67036302Y-71927011D01*
X67026358Y-71857853D01*
X67055383Y-71794297D01*
X67061415Y-71787819D01*
X70124234Y-68725000D01*
X80749435Y-68725000D01*
X80769630Y-68904249D01*
X80769631Y-68904254D01*
X80829211Y-69074523D01*
X80868960Y-69137782D01*
X80925184Y-69227262D01*
X81052738Y-69354816D01*
X81205478Y-69450789D01*
X81375745Y-69510368D01*
X81375750Y-69510369D01*
X81554996Y-69530565D01*
X81555000Y-69530565D01*
X81555004Y-69530565D01*
X81734249Y-69510369D01*
X81734252Y-69510368D01*
X81734255Y-69510368D01*
X81904522Y-69450789D01*
X82057262Y-69354816D01*
X82184816Y-69227262D01*
X82280789Y-69074522D01*
X82340368Y-68904255D01*
X82360565Y-68725000D01*
X82349215Y-68624266D01*
X82340369Y-68545750D01*
X82340368Y-68545745D01*
X82280788Y-68375476D01*
X82214922Y-68270651D01*
X82195922Y-68203414D01*
X82216290Y-68136579D01*
X82232230Y-68117003D01*
X83062416Y-67286819D01*
X83123739Y-67253334D01*
X83150097Y-67250500D01*
X83370499Y-67250500D01*
X83437538Y-67270185D01*
X83483293Y-67322989D01*
X83494499Y-67374500D01*
X83494499Y-67544046D01*
X83494500Y-67544059D01*
X83494500Y-68142587D01*
X83474815Y-68209626D01*
X83467450Y-68219896D01*
X83465186Y-68222734D01*
X83369211Y-68375476D01*
X83309631Y-68545745D01*
X83309630Y-68545750D01*
X83289435Y-68724996D01*
X83289435Y-68725000D01*
X83309630Y-68904249D01*
X83309631Y-68904254D01*
X83369211Y-69074523D01*
X83408960Y-69137782D01*
X83465184Y-69227262D01*
X83592738Y-69354816D01*
X83745478Y-69450789D01*
X83915745Y-69510368D01*
X83915750Y-69510369D01*
X84094996Y-69530565D01*
X84095000Y-69530565D01*
X84095004Y-69530565D01*
X84274249Y-69510369D01*
X84274252Y-69510368D01*
X84274255Y-69510368D01*
X84444522Y-69450789D01*
X84597262Y-69354816D01*
X84724816Y-69227262D01*
X84820789Y-69074522D01*
X84880368Y-68904255D01*
X84900565Y-68725000D01*
X84889215Y-68624266D01*
X84880369Y-68545750D01*
X84880368Y-68545745D01*
X84820788Y-68375476D01*
X84769505Y-68293860D01*
X84724816Y-68222738D01*
X84724814Y-68222736D01*
X84724813Y-68222734D01*
X84722550Y-68219896D01*
X84721659Y-68217715D01*
X84721111Y-68216842D01*
X84721264Y-68216745D01*
X84696144Y-68155209D01*
X84695500Y-68142587D01*
X84695500Y-67774500D01*
X84715185Y-67707461D01*
X84767989Y-67661706D01*
X84819500Y-67650500D01*
X87253460Y-67650500D01*
X87320499Y-67670185D01*
X87366254Y-67722989D01*
X87376198Y-67792147D01*
X87360846Y-67836502D01*
X87345424Y-67863212D01*
X87345423Y-67863214D01*
X87345423Y-67863215D01*
X87304499Y-68015943D01*
X87304499Y-68015945D01*
X87304499Y-68142589D01*
X87284814Y-68209628D01*
X87277445Y-68219903D01*
X87275184Y-68222737D01*
X87179211Y-68375476D01*
X87119631Y-68545745D01*
X87119630Y-68545750D01*
X87099435Y-68724996D01*
X87099435Y-68725000D01*
X87119630Y-68904249D01*
X87119631Y-68904254D01*
X87179211Y-69074523D01*
X87218960Y-69137782D01*
X87275184Y-69227262D01*
X87402738Y-69354816D01*
X87555478Y-69450789D01*
X87725745Y-69510368D01*
X87725750Y-69510369D01*
X87904996Y-69530565D01*
X87905000Y-69530565D01*
X87905004Y-69530565D01*
X88084249Y-69510369D01*
X88084252Y-69510368D01*
X88084255Y-69510368D01*
X88254522Y-69450789D01*
X88407262Y-69354816D01*
X88534816Y-69227262D01*
X88630789Y-69074522D01*
X88690368Y-68904255D01*
X88710565Y-68725000D01*
X88699215Y-68624266D01*
X88690369Y-68545750D01*
X88690368Y-68545745D01*
X88630788Y-68375475D01*
X88622805Y-68362771D01*
X88603804Y-68295535D01*
X88624171Y-68228699D01*
X88640110Y-68209123D01*
X88712417Y-68136817D01*
X88773740Y-68103334D01*
X88800097Y-68100500D01*
X97913331Y-68100500D01*
X97913347Y-68100501D01*
X97920943Y-68100501D01*
X98079054Y-68100501D01*
X98079057Y-68100501D01*
X98231785Y-68059577D01*
X98281904Y-68030639D01*
X98368716Y-67980520D01*
X98480520Y-67868716D01*
X98480520Y-67868714D01*
X98490728Y-67858507D01*
X98490729Y-67858504D01*
X98997945Y-67351288D01*
X143999500Y-67351288D01*
X144031161Y-67591785D01*
X144093947Y-67826104D01*
X144178670Y-68030642D01*
X144186776Y-68050212D01*
X144308064Y-68260289D01*
X144308066Y-68260292D01*
X144308067Y-68260293D01*
X144455733Y-68452736D01*
X144455739Y-68452743D01*
X144627256Y-68624260D01*
X144627262Y-68624265D01*
X144819711Y-68771936D01*
X145029788Y-68893224D01*
X145253900Y-68986054D01*
X145488211Y-69048838D01*
X145668586Y-69072584D01*
X145728711Y-69080500D01*
X145728712Y-69080500D01*
X145971289Y-69080500D01*
X146019388Y-69074167D01*
X146211789Y-69048838D01*
X146446100Y-68986054D01*
X146670212Y-68893224D01*
X146880289Y-68771936D01*
X147072738Y-68624265D01*
X147244265Y-68452738D01*
X147391936Y-68260289D01*
X147513224Y-68050212D01*
X147606054Y-67826100D01*
X147668838Y-67591789D01*
X147700500Y-67351288D01*
X147700500Y-67108712D01*
X147668838Y-66868211D01*
X147606054Y-66633900D01*
X147513224Y-66409788D01*
X147391936Y-66199711D01*
X147244265Y-66007262D01*
X147244260Y-66007256D01*
X147072743Y-65835739D01*
X147072736Y-65835733D01*
X146880293Y-65688067D01*
X146880292Y-65688066D01*
X146880289Y-65688064D01*
X146670212Y-65566776D01*
X146670205Y-65566773D01*
X146446104Y-65473947D01*
X146211785Y-65411161D01*
X145971289Y-65379500D01*
X145971288Y-65379500D01*
X145728712Y-65379500D01*
X145728711Y-65379500D01*
X145488214Y-65411161D01*
X145253895Y-65473947D01*
X145029794Y-65566773D01*
X145029785Y-65566777D01*
X144819706Y-65688067D01*
X144627263Y-65835733D01*
X144627256Y-65835739D01*
X144455739Y-66007256D01*
X144455733Y-66007263D01*
X144308067Y-66199706D01*
X144186777Y-66409785D01*
X144186773Y-66409794D01*
X144093947Y-66633895D01*
X144031161Y-66868214D01*
X143999500Y-67108711D01*
X143999500Y-67351288D01*
X98997945Y-67351288D01*
X109921134Y-56428100D01*
X109982455Y-56394617D01*
X110047126Y-56397851D01*
X110183757Y-56442246D01*
X110393713Y-56475500D01*
X110393714Y-56475500D01*
X110606286Y-56475500D01*
X110606287Y-56475500D01*
X110816243Y-56442246D01*
X111018412Y-56376557D01*
X111207816Y-56280051D01*
X111242230Y-56255048D01*
X111379786Y-56155109D01*
X111379788Y-56155106D01*
X111379792Y-56155104D01*
X111530104Y-56004792D01*
X111530106Y-56004788D01*
X111530109Y-56004786D01*
X111655048Y-55832820D01*
X111655047Y-55832820D01*
X111655051Y-55832816D01*
X111751557Y-55643412D01*
X111817246Y-55441243D01*
X111850500Y-55231287D01*
X111850500Y-54768713D01*
X111843576Y-54725000D01*
X118650000Y-54725000D01*
X119595854Y-54725000D01*
X119557370Y-54791657D01*
X119525000Y-54912465D01*
X119525000Y-55037535D01*
X119557370Y-55158343D01*
X119595854Y-55225000D01*
X118650001Y-55225000D01*
X118650001Y-55749986D01*
X118660494Y-55852697D01*
X118715641Y-56019119D01*
X118715643Y-56019124D01*
X118807684Y-56168345D01*
X118931654Y-56292315D01*
X119080875Y-56384356D01*
X119080880Y-56384358D01*
X119247302Y-56439505D01*
X119247309Y-56439506D01*
X119350019Y-56449999D01*
X119749999Y-56449999D01*
X119750000Y-56449998D01*
X119750000Y-55379145D01*
X119816657Y-55417630D01*
X119937465Y-55450000D01*
X120062535Y-55450000D01*
X120183343Y-55417630D01*
X120250000Y-55379145D01*
X120250000Y-56449999D01*
X120649972Y-56449999D01*
X120649986Y-56449998D01*
X120752697Y-56439505D01*
X120919119Y-56384358D01*
X120919124Y-56384356D01*
X121068345Y-56292315D01*
X121192317Y-56168343D01*
X121287815Y-56013516D01*
X121339763Y-55966791D01*
X121408725Y-55955568D01*
X121472808Y-55983412D01*
X121481035Y-55990931D01*
X121620213Y-56130109D01*
X121792179Y-56255048D01*
X121792181Y-56255049D01*
X121792184Y-56255051D01*
X121981588Y-56351557D01*
X122183757Y-56417246D01*
X122393713Y-56450500D01*
X122393714Y-56450500D01*
X122606286Y-56450500D01*
X122606287Y-56450500D01*
X122816243Y-56417246D01*
X123018412Y-56351557D01*
X123207816Y-56255051D01*
X123292748Y-56193345D01*
X123379786Y-56130109D01*
X123379788Y-56130106D01*
X123379792Y-56130104D01*
X123530104Y-55979792D01*
X123649683Y-55815204D01*
X123705011Y-55772540D01*
X123774624Y-55766561D01*
X123836420Y-55799166D01*
X123850313Y-55815199D01*
X123958790Y-55964506D01*
X123969896Y-55979792D01*
X124120213Y-56130109D01*
X124292179Y-56255048D01*
X124292181Y-56255049D01*
X124292184Y-56255051D01*
X124481588Y-56351557D01*
X124683757Y-56417246D01*
X124893713Y-56450500D01*
X124893714Y-56450500D01*
X125106286Y-56450500D01*
X125106287Y-56450500D01*
X125316243Y-56417246D01*
X125518412Y-56351557D01*
X125707816Y-56255051D01*
X125792748Y-56193345D01*
X125879786Y-56130109D01*
X125879788Y-56130106D01*
X125879792Y-56130104D01*
X126030104Y-55979792D01*
X126149683Y-55815204D01*
X126205011Y-55772540D01*
X126274624Y-55766561D01*
X126336420Y-55799166D01*
X126350313Y-55815199D01*
X126458790Y-55964506D01*
X126469896Y-55979792D01*
X126620213Y-56130109D01*
X126792179Y-56255048D01*
X126792181Y-56255049D01*
X126792184Y-56255051D01*
X126981588Y-56351557D01*
X127183757Y-56417246D01*
X127393713Y-56450500D01*
X127393714Y-56450500D01*
X127606286Y-56450500D01*
X127606287Y-56450500D01*
X127816243Y-56417246D01*
X128018412Y-56351557D01*
X128207816Y-56255051D01*
X128292748Y-56193345D01*
X128379786Y-56130109D01*
X128379788Y-56130106D01*
X128379792Y-56130104D01*
X128530104Y-55979792D01*
X128649683Y-55815204D01*
X128705011Y-55772540D01*
X128774624Y-55766561D01*
X128836420Y-55799166D01*
X128850313Y-55815199D01*
X128958790Y-55964506D01*
X128969896Y-55979792D01*
X129120213Y-56130109D01*
X129292179Y-56255048D01*
X129292181Y-56255049D01*
X129292184Y-56255051D01*
X129481588Y-56351557D01*
X129683757Y-56417246D01*
X129893713Y-56450500D01*
X129893714Y-56450500D01*
X130106286Y-56450500D01*
X130106287Y-56450500D01*
X130316243Y-56417246D01*
X130518412Y-56351557D01*
X130707816Y-56255051D01*
X130792748Y-56193345D01*
X130879786Y-56130109D01*
X130879788Y-56130106D01*
X130879792Y-56130104D01*
X131030104Y-55979792D01*
X131030106Y-55979788D01*
X131030109Y-55979786D01*
X131155048Y-55807820D01*
X131155047Y-55807820D01*
X131155051Y-55807816D01*
X131251557Y-55618412D01*
X131317246Y-55416243D01*
X131350500Y-55206287D01*
X131350500Y-54743713D01*
X131317246Y-54533757D01*
X131251557Y-54331588D01*
X131155051Y-54142184D01*
X131155049Y-54142181D01*
X131155048Y-54142179D01*
X131030109Y-53970213D01*
X130879786Y-53819890D01*
X130707820Y-53694951D01*
X130518414Y-53598444D01*
X130518413Y-53598443D01*
X130518412Y-53598443D01*
X130316243Y-53532754D01*
X130316241Y-53532753D01*
X130316240Y-53532753D01*
X130154957Y-53507208D01*
X130106287Y-53499500D01*
X129893713Y-53499500D01*
X129845042Y-53507208D01*
X129683760Y-53532753D01*
X129481585Y-53598444D01*
X129292179Y-53694951D01*
X129120213Y-53819890D01*
X128969894Y-53970209D01*
X128969890Y-53970214D01*
X128850318Y-54134793D01*
X128794989Y-54177459D01*
X128725375Y-54183438D01*
X128663580Y-54150833D01*
X128649682Y-54134793D01*
X128530109Y-53970214D01*
X128530105Y-53970209D01*
X128379786Y-53819890D01*
X128207820Y-53694951D01*
X128018414Y-53598444D01*
X128018413Y-53598443D01*
X128018412Y-53598443D01*
X127816243Y-53532754D01*
X127816241Y-53532753D01*
X127816240Y-53532753D01*
X127654957Y-53507208D01*
X127606287Y-53499500D01*
X127393713Y-53499500D01*
X127345042Y-53507208D01*
X127183760Y-53532753D01*
X126981585Y-53598444D01*
X126792179Y-53694951D01*
X126620213Y-53819890D01*
X126469894Y-53970209D01*
X126469890Y-53970214D01*
X126350318Y-54134793D01*
X126294989Y-54177459D01*
X126225375Y-54183438D01*
X126163580Y-54150833D01*
X126149682Y-54134793D01*
X126030109Y-53970214D01*
X126030105Y-53970209D01*
X125879786Y-53819890D01*
X125707820Y-53694951D01*
X125518414Y-53598444D01*
X125518413Y-53598443D01*
X125518412Y-53598443D01*
X125316243Y-53532754D01*
X125316241Y-53532753D01*
X125316240Y-53532753D01*
X125154957Y-53507208D01*
X125106287Y-53499500D01*
X124893713Y-53499500D01*
X124845042Y-53507208D01*
X124683760Y-53532753D01*
X124481585Y-53598444D01*
X124292179Y-53694951D01*
X124120213Y-53819890D01*
X123969894Y-53970209D01*
X123969890Y-53970214D01*
X123850318Y-54134793D01*
X123794989Y-54177459D01*
X123725375Y-54183438D01*
X123663580Y-54150833D01*
X123649682Y-54134793D01*
X123530109Y-53970214D01*
X123530105Y-53970209D01*
X123379786Y-53819890D01*
X123207820Y-53694951D01*
X123018414Y-53598444D01*
X123018413Y-53598443D01*
X123018412Y-53598443D01*
X122816243Y-53532754D01*
X122816241Y-53532753D01*
X122816240Y-53532753D01*
X122654957Y-53507208D01*
X122606287Y-53499500D01*
X122393713Y-53499500D01*
X122345042Y-53507208D01*
X122183760Y-53532753D01*
X121981585Y-53598444D01*
X121792179Y-53694951D01*
X121620215Y-53819889D01*
X121481035Y-53959069D01*
X121419712Y-53992553D01*
X121350020Y-53987569D01*
X121294087Y-53945697D01*
X121287815Y-53936484D01*
X121192315Y-53781654D01*
X121068345Y-53657684D01*
X120919124Y-53565643D01*
X120919119Y-53565641D01*
X120752697Y-53510494D01*
X120752690Y-53510493D01*
X120649986Y-53500000D01*
X120250000Y-53500000D01*
X120250000Y-54570854D01*
X120183343Y-54532370D01*
X120062535Y-54500000D01*
X119937465Y-54500000D01*
X119816657Y-54532370D01*
X119750000Y-54570854D01*
X119750000Y-53500000D01*
X119350028Y-53500000D01*
X119350012Y-53500001D01*
X119247302Y-53510494D01*
X119080880Y-53565641D01*
X119080875Y-53565643D01*
X118931654Y-53657684D01*
X118807684Y-53781654D01*
X118715643Y-53930875D01*
X118715641Y-53930880D01*
X118660494Y-54097302D01*
X118660493Y-54097309D01*
X118650000Y-54200013D01*
X118650000Y-54725000D01*
X111843576Y-54725000D01*
X111817246Y-54558757D01*
X111751557Y-54356588D01*
X111655051Y-54167184D01*
X111655049Y-54167181D01*
X111655048Y-54167179D01*
X111530109Y-53995213D01*
X111379786Y-53844890D01*
X111207820Y-53719951D01*
X111018414Y-53623444D01*
X111018413Y-53623443D01*
X111018412Y-53623443D01*
X110816243Y-53557754D01*
X110816241Y-53557753D01*
X110816240Y-53557753D01*
X110654957Y-53532208D01*
X110606287Y-53524500D01*
X110393713Y-53524500D01*
X110345042Y-53532208D01*
X110183760Y-53557753D01*
X109981585Y-53623444D01*
X109792179Y-53719951D01*
X109620213Y-53844890D01*
X109469894Y-53995209D01*
X109469890Y-53995214D01*
X109350318Y-54159793D01*
X109294989Y-54202459D01*
X109225375Y-54208438D01*
X109163580Y-54175833D01*
X109149682Y-54159793D01*
X109030109Y-53995214D01*
X109030105Y-53995209D01*
X108879786Y-53844890D01*
X108707820Y-53719951D01*
X108518414Y-53623444D01*
X108518413Y-53623443D01*
X108518412Y-53623443D01*
X108316243Y-53557754D01*
X108316241Y-53557753D01*
X108316240Y-53557753D01*
X108154957Y-53532208D01*
X108106287Y-53524500D01*
X107893713Y-53524500D01*
X107845042Y-53532208D01*
X107683760Y-53557753D01*
X107481585Y-53623444D01*
X107292179Y-53719951D01*
X107120213Y-53844890D01*
X106969894Y-53995209D01*
X106969890Y-53995214D01*
X106850318Y-54159793D01*
X106794989Y-54202459D01*
X106725375Y-54208438D01*
X106663580Y-54175833D01*
X106649682Y-54159793D01*
X106530109Y-53995214D01*
X106530105Y-53995209D01*
X106379786Y-53844890D01*
X106207820Y-53719951D01*
X106018414Y-53623444D01*
X106018413Y-53623443D01*
X106018412Y-53623443D01*
X105816243Y-53557754D01*
X105816241Y-53557753D01*
X105816240Y-53557753D01*
X105654957Y-53532208D01*
X105606287Y-53524500D01*
X105393713Y-53524500D01*
X105345042Y-53532208D01*
X105183760Y-53557753D01*
X104981585Y-53623444D01*
X104792179Y-53719951D01*
X104620213Y-53844890D01*
X104469894Y-53995209D01*
X104469890Y-53995214D01*
X104350318Y-54159793D01*
X104294989Y-54202459D01*
X104225375Y-54208438D01*
X104163580Y-54175833D01*
X104149682Y-54159793D01*
X104030109Y-53995214D01*
X104030105Y-53995209D01*
X103879786Y-53844890D01*
X103707820Y-53719951D01*
X103518414Y-53623444D01*
X103518413Y-53623443D01*
X103518412Y-53623443D01*
X103316243Y-53557754D01*
X103316241Y-53557753D01*
X103316240Y-53557753D01*
X103154957Y-53532208D01*
X103106287Y-53524500D01*
X102893713Y-53524500D01*
X102845042Y-53532208D01*
X102683760Y-53557753D01*
X102481585Y-53623444D01*
X102292179Y-53719951D01*
X102120215Y-53844889D01*
X101981035Y-53984069D01*
X101919712Y-54017553D01*
X101850020Y-54012569D01*
X101794087Y-53970697D01*
X101787815Y-53961484D01*
X101692315Y-53806654D01*
X101568345Y-53682684D01*
X101419124Y-53590643D01*
X101419119Y-53590641D01*
X101252697Y-53535494D01*
X101252690Y-53535493D01*
X101149986Y-53525000D01*
X100750000Y-53525000D01*
X100750000Y-54595854D01*
X100683343Y-54557370D01*
X100562535Y-54525000D01*
X100437465Y-54525000D01*
X100316657Y-54557370D01*
X100250000Y-54595854D01*
X100250000Y-53525000D01*
X99850028Y-53525000D01*
X99850012Y-53525001D01*
X99747302Y-53535494D01*
X99580880Y-53590641D01*
X99580875Y-53590643D01*
X99431654Y-53682684D01*
X99307684Y-53806654D01*
X99215643Y-53955875D01*
X99215641Y-53955880D01*
X99160494Y-54122302D01*
X99160493Y-54122309D01*
X99150000Y-54225013D01*
X99150000Y-54750000D01*
X100095854Y-54750000D01*
X100057370Y-54816657D01*
X100025000Y-54937465D01*
X100025000Y-55062535D01*
X100057370Y-55183343D01*
X100095854Y-55250000D01*
X99150001Y-55250000D01*
X99150001Y-55774986D01*
X99160494Y-55877697D01*
X99215641Y-56044119D01*
X99215643Y-56044124D01*
X99307684Y-56193345D01*
X99431654Y-56317315D01*
X99580875Y-56409356D01*
X99580880Y-56409358D01*
X99747302Y-56464505D01*
X99747309Y-56464506D01*
X99850019Y-56474999D01*
X100249999Y-56474999D01*
X100250000Y-56474998D01*
X100250000Y-55404145D01*
X100316657Y-55442630D01*
X100437465Y-55475000D01*
X100562535Y-55475000D01*
X100683343Y-55442630D01*
X100750000Y-55404145D01*
X100750000Y-56474999D01*
X101149972Y-56474999D01*
X101149986Y-56474998D01*
X101252697Y-56464505D01*
X101419119Y-56409358D01*
X101419124Y-56409356D01*
X101568345Y-56317315D01*
X101692317Y-56193343D01*
X101787815Y-56038516D01*
X101839763Y-55991791D01*
X101908725Y-55980568D01*
X101972808Y-56008412D01*
X101981035Y-56015931D01*
X102120213Y-56155109D01*
X102292179Y-56280048D01*
X102292181Y-56280049D01*
X102292184Y-56280051D01*
X102481588Y-56376557D01*
X102683757Y-56442246D01*
X102893713Y-56475500D01*
X102893718Y-56475500D01*
X102896401Y-56475925D01*
X102959535Y-56505854D01*
X102996467Y-56565165D01*
X102995469Y-56635028D01*
X102964684Y-56686079D01*
X93637584Y-66013181D01*
X93576261Y-66046666D01*
X93549903Y-66049500D01*
X82929057Y-66049500D01*
X82770942Y-66049500D01*
X82618215Y-66090423D01*
X82618214Y-66090423D01*
X82618212Y-66090424D01*
X82618209Y-66090425D01*
X82568096Y-66119359D01*
X82568095Y-66119360D01*
X82524689Y-66144420D01*
X82481285Y-66169479D01*
X82481282Y-66169481D01*
X81019479Y-67631284D01*
X81001916Y-67661706D01*
X80987437Y-67686785D01*
X80940423Y-67768215D01*
X80899499Y-67920943D01*
X80899499Y-67920945D01*
X80899499Y-68089046D01*
X80899500Y-68089059D01*
X80899500Y-68227889D01*
X80880494Y-68293860D01*
X80829209Y-68375479D01*
X80769633Y-68545737D01*
X80769630Y-68545750D01*
X80749435Y-68724996D01*
X80749435Y-68725000D01*
X70124234Y-68725000D01*
X70789658Y-68059576D01*
X74518535Y-64330698D01*
X74579856Y-64297215D01*
X74592311Y-64295163D01*
X74679255Y-64285368D01*
X74849522Y-64225789D01*
X75002262Y-64129816D01*
X75129816Y-64002262D01*
X75225789Y-63849522D01*
X75285368Y-63679255D01*
X75285369Y-63679249D01*
X75305565Y-63500003D01*
X75305565Y-63499996D01*
X75285369Y-63320750D01*
X75285368Y-63320745D01*
X75225788Y-63150476D01*
X75129815Y-62997737D01*
X75002262Y-62870184D01*
X74849521Y-62774210D01*
X74756160Y-62741542D01*
X74699383Y-62700820D01*
X74673636Y-62635867D01*
X74687092Y-62567306D01*
X74735479Y-62516903D01*
X74797114Y-62500500D01*
X92098543Y-62500500D01*
X92228582Y-62474632D01*
X92291835Y-62462051D01*
X92473914Y-62386632D01*
X92637782Y-62277139D01*
X92777139Y-62137782D01*
X92886632Y-61973914D01*
X92962051Y-61791835D01*
X93000500Y-61598541D01*
X93000500Y-61401459D01*
X93000500Y-61401456D01*
X92962052Y-61208170D01*
X92962051Y-61208169D01*
X92962051Y-61208165D01*
X92962049Y-61208160D01*
X92886635Y-61026092D01*
X92886628Y-61026079D01*
X92777139Y-60862218D01*
X92777136Y-60862214D01*
X92637785Y-60722863D01*
X92637781Y-60722860D01*
X92473920Y-60613371D01*
X92473907Y-60613364D01*
X92291839Y-60537950D01*
X92291829Y-60537947D01*
X92098543Y-60499500D01*
X92098541Y-60499500D01*
X57401459Y-60499500D01*
X57401455Y-60499500D01*
X57304812Y-60518724D01*
X57208167Y-60537947D01*
X57208161Y-60537949D01*
X57154834Y-60560037D01*
X57154834Y-60560038D01*
X57109315Y-60578892D01*
X57026089Y-60613366D01*
X57026079Y-60613371D01*
X56862219Y-60722859D01*
X56792540Y-60792538D01*
X56722861Y-60862218D01*
X56722858Y-60862221D01*
X54362221Y-63222858D01*
X54362218Y-63222861D01*
X54292538Y-63292540D01*
X54222859Y-63362219D01*
X54113371Y-63526080D01*
X54113366Y-63526089D01*
X54091427Y-63579057D01*
X54037949Y-63708163D01*
X54037947Y-63708170D01*
X54018782Y-63804523D01*
X54018782Y-63804524D01*
X53999500Y-63901456D01*
X53999500Y-68598544D01*
X54024654Y-68725000D01*
X54037947Y-68791829D01*
X54037949Y-68791837D01*
X54113364Y-68973907D01*
X54113371Y-68973920D01*
X54222859Y-69137780D01*
X54222860Y-69137781D01*
X54222861Y-69137782D01*
X54362218Y-69277139D01*
X54362219Y-69277139D01*
X54369286Y-69284206D01*
X54369285Y-69284206D01*
X54369289Y-69284209D01*
X57113181Y-72028102D01*
X57146666Y-72089425D01*
X57149500Y-72115783D01*
X57149500Y-72897870D01*
X57149501Y-72897876D01*
X57155908Y-72957483D01*
X57206202Y-73092328D01*
X57206206Y-73092335D01*
X57292452Y-73207544D01*
X57292455Y-73207547D01*
X57407664Y-73293793D01*
X57407671Y-73293797D01*
X57539081Y-73342810D01*
X57595015Y-73384681D01*
X57619432Y-73450145D01*
X57604580Y-73518418D01*
X57583430Y-73546673D01*
X57461503Y-73668600D01*
X57325965Y-73862169D01*
X57325964Y-73862171D01*
X57226098Y-74076335D01*
X57226094Y-74076344D01*
X57164938Y-74304586D01*
X57164936Y-74304596D01*
X57144341Y-74539999D01*
X57144341Y-74540000D01*
X57164936Y-74775403D01*
X57164938Y-74775413D01*
X57226094Y-75003655D01*
X57226096Y-75003659D01*
X57226097Y-75003663D01*
X57230000Y-75012032D01*
X57325965Y-75217830D01*
X57325967Y-75217834D01*
X57434281Y-75372521D01*
X57461501Y-75411396D01*
X57461506Y-75411402D01*
X57628597Y-75578493D01*
X57628603Y-75578498D01*
X57814158Y-75708425D01*
X57857783Y-75763002D01*
X57864977Y-75832500D01*
X57833454Y-75894855D01*
X57814158Y-75911575D01*
X57628597Y-76041505D01*
X57461505Y-76208597D01*
X57325965Y-76402169D01*
X57325964Y-76402171D01*
X57226098Y-76616335D01*
X57226094Y-76616344D01*
X57164938Y-76844586D01*
X57164936Y-76844596D01*
X57144341Y-77079999D01*
X57144341Y-77080000D01*
X57164936Y-77315403D01*
X57164938Y-77315413D01*
X57226094Y-77543655D01*
X57226096Y-77543659D01*
X57226097Y-77543663D01*
X57309155Y-77721781D01*
X57325965Y-77757830D01*
X57325967Y-77757834D01*
X57434281Y-77912521D01*
X57461501Y-77951396D01*
X57461506Y-77951402D01*
X57628597Y-78118493D01*
X57628603Y-78118498D01*
X57814158Y-78248425D01*
X57857783Y-78303002D01*
X57864977Y-78372500D01*
X57833454Y-78434855D01*
X57814158Y-78451575D01*
X57628597Y-78581505D01*
X57461505Y-78748597D01*
X57325965Y-78942169D01*
X57325964Y-78942171D01*
X57226098Y-79156335D01*
X57226094Y-79156344D01*
X57164938Y-79384586D01*
X57164936Y-79384596D01*
X57144341Y-79619999D01*
X57144341Y-79620000D01*
X57164936Y-79855403D01*
X57164938Y-79855413D01*
X57226094Y-80083655D01*
X57226096Y-80083659D01*
X57226097Y-80083663D01*
X57230000Y-80092032D01*
X57325965Y-80297830D01*
X57325967Y-80297834D01*
X57434281Y-80452521D01*
X57461501Y-80491396D01*
X57461506Y-80491402D01*
X57628597Y-80658493D01*
X57628603Y-80658498D01*
X57814594Y-80788730D01*
X57858219Y-80843307D01*
X57865413Y-80912805D01*
X57833890Y-80975160D01*
X57814595Y-80991880D01*
X57628922Y-81121890D01*
X57628920Y-81121891D01*
X57461891Y-81288920D01*
X57461886Y-81288926D01*
X57326400Y-81482420D01*
X57326399Y-81482422D01*
X57226570Y-81696507D01*
X57226567Y-81696513D01*
X57169364Y-81909999D01*
X57169364Y-81910000D01*
X58066988Y-81910000D01*
X58034075Y-81967007D01*
X58000000Y-82094174D01*
X58000000Y-82225826D01*
X58034075Y-82352993D01*
X58066988Y-82410000D01*
X57169364Y-82410000D01*
X57207790Y-82553406D01*
X57206127Y-82623256D01*
X57166965Y-82681119D01*
X57102736Y-82708623D01*
X57088015Y-82709500D01*
X54110097Y-82709500D01*
X54043058Y-82689815D01*
X54022416Y-82673181D01*
X53228275Y-81879040D01*
X53194790Y-81817717D01*
X53192738Y-81805259D01*
X53185368Y-81739846D01*
X53125789Y-81569579D01*
X53029816Y-81416839D01*
X52902262Y-81289285D01*
X52869931Y-81268970D01*
X52749523Y-81193312D01*
X52579254Y-81133732D01*
X52579249Y-81133731D01*
X52400004Y-81113536D01*
X52399996Y-81113536D01*
X52220750Y-81133731D01*
X52220745Y-81133732D01*
X52050476Y-81193312D01*
X51897739Y-81289284D01*
X51808574Y-81378449D01*
X51747250Y-81411933D01*
X51688801Y-81410542D01*
X51647587Y-81399499D01*
X51647586Y-81399499D01*
X51582411Y-81399499D01*
X51515372Y-81379814D01*
X51505097Y-81372445D01*
X51502262Y-81370184D01*
X51349523Y-81274211D01*
X51179254Y-81214631D01*
X51179249Y-81214630D01*
X51000004Y-81194435D01*
X50999996Y-81194435D01*
X50820750Y-81214630D01*
X50820742Y-81214632D01*
X50665454Y-81268970D01*
X50595676Y-81272531D01*
X50535048Y-81237802D01*
X50502821Y-81175809D01*
X50500500Y-81151928D01*
X50500500Y-54250000D01*
X61150000Y-54250000D01*
X62095854Y-54250000D01*
X62057370Y-54316657D01*
X62025000Y-54437465D01*
X62025000Y-54562535D01*
X62057370Y-54683343D01*
X62095854Y-54750000D01*
X61150001Y-54750000D01*
X61150001Y-55274986D01*
X61160494Y-55377697D01*
X61215641Y-55544119D01*
X61215643Y-55544124D01*
X61307684Y-55693345D01*
X61431654Y-55817315D01*
X61580875Y-55909356D01*
X61580880Y-55909358D01*
X61747302Y-55964505D01*
X61747309Y-55964506D01*
X61850019Y-55974999D01*
X62249999Y-55974999D01*
X62250000Y-55974998D01*
X62250000Y-54904145D01*
X62316657Y-54942630D01*
X62437465Y-54975000D01*
X62562535Y-54975000D01*
X62683343Y-54942630D01*
X62750000Y-54904145D01*
X62750000Y-55974999D01*
X63149972Y-55974999D01*
X63149986Y-55974998D01*
X63252697Y-55964505D01*
X63419119Y-55909358D01*
X63419124Y-55909356D01*
X63568345Y-55817315D01*
X63692317Y-55693343D01*
X63787815Y-55538516D01*
X63839763Y-55491791D01*
X63908725Y-55480568D01*
X63972808Y-55508412D01*
X63981035Y-55515931D01*
X64120213Y-55655109D01*
X64292179Y-55780048D01*
X64292181Y-55780049D01*
X64292184Y-55780051D01*
X64481588Y-55876557D01*
X64683757Y-55942246D01*
X64893713Y-55975500D01*
X64893714Y-55975500D01*
X65106286Y-55975500D01*
X65106287Y-55975500D01*
X65316243Y-55942246D01*
X65518412Y-55876557D01*
X65707816Y-55780051D01*
X65749197Y-55749986D01*
X65879786Y-55655109D01*
X65879788Y-55655106D01*
X65879792Y-55655104D01*
X66030104Y-55504792D01*
X66149683Y-55340204D01*
X66205011Y-55297540D01*
X66274624Y-55291561D01*
X66336420Y-55324166D01*
X66350313Y-55340199D01*
X66424733Y-55442630D01*
X66469896Y-55504792D01*
X66620213Y-55655109D01*
X66792179Y-55780048D01*
X66792181Y-55780049D01*
X66792184Y-55780051D01*
X66981588Y-55876557D01*
X67183757Y-55942246D01*
X67393713Y-55975500D01*
X67393714Y-55975500D01*
X67606286Y-55975500D01*
X67606287Y-55975500D01*
X67816243Y-55942246D01*
X68018412Y-55876557D01*
X68207816Y-55780051D01*
X68249197Y-55749986D01*
X68379786Y-55655109D01*
X68379788Y-55655106D01*
X68379792Y-55655104D01*
X68530104Y-55504792D01*
X68649683Y-55340204D01*
X68705011Y-55297540D01*
X68774624Y-55291561D01*
X68836420Y-55324166D01*
X68850313Y-55340199D01*
X68924733Y-55442630D01*
X68969896Y-55504792D01*
X69120213Y-55655109D01*
X69292179Y-55780048D01*
X69292181Y-55780049D01*
X69292184Y-55780051D01*
X69481588Y-55876557D01*
X69683757Y-55942246D01*
X69893713Y-55975500D01*
X69893714Y-55975500D01*
X70106286Y-55975500D01*
X70106287Y-55975500D01*
X70316243Y-55942246D01*
X70518412Y-55876557D01*
X70707816Y-55780051D01*
X70749197Y-55749986D01*
X70879786Y-55655109D01*
X70879788Y-55655106D01*
X70879792Y-55655104D01*
X71030104Y-55504792D01*
X71149683Y-55340204D01*
X71205011Y-55297540D01*
X71274624Y-55291561D01*
X71336420Y-55324166D01*
X71350313Y-55340199D01*
X71424733Y-55442630D01*
X71469896Y-55504792D01*
X71620213Y-55655109D01*
X71792179Y-55780048D01*
X71792181Y-55780049D01*
X71792184Y-55780051D01*
X71981588Y-55876557D01*
X72183757Y-55942246D01*
X72393713Y-55975500D01*
X72393714Y-55975500D01*
X72606286Y-55975500D01*
X72606287Y-55975500D01*
X72816243Y-55942246D01*
X73018412Y-55876557D01*
X73207816Y-55780051D01*
X73249197Y-55749986D01*
X73379786Y-55655109D01*
X73379788Y-55655106D01*
X73379792Y-55655104D01*
X73530104Y-55504792D01*
X73649683Y-55340204D01*
X73705011Y-55297540D01*
X73774624Y-55291561D01*
X73836420Y-55324166D01*
X73850313Y-55340199D01*
X73924733Y-55442630D01*
X73969896Y-55504792D01*
X74120213Y-55655109D01*
X74292179Y-55780048D01*
X74292181Y-55780049D01*
X74292184Y-55780051D01*
X74481588Y-55876557D01*
X74683757Y-55942246D01*
X74893713Y-55975500D01*
X74893714Y-55975500D01*
X75106286Y-55975500D01*
X75106287Y-55975500D01*
X75316243Y-55942246D01*
X75518412Y-55876557D01*
X75707816Y-55780051D01*
X75749197Y-55749986D01*
X75879786Y-55655109D01*
X75879788Y-55655106D01*
X75879792Y-55655104D01*
X76030104Y-55504792D01*
X76030106Y-55504788D01*
X76030109Y-55504786D01*
X76155048Y-55332820D01*
X76155047Y-55332820D01*
X76155051Y-55332816D01*
X76251557Y-55143412D01*
X76317246Y-54941243D01*
X76350500Y-54731287D01*
X76350500Y-54268713D01*
X76317246Y-54058757D01*
X76251557Y-53856588D01*
X76155051Y-53667184D01*
X76155049Y-53667181D01*
X76155048Y-53667179D01*
X76030109Y-53495213D01*
X75879786Y-53344890D01*
X75707820Y-53219951D01*
X75518414Y-53123444D01*
X75518413Y-53123443D01*
X75518412Y-53123443D01*
X75316243Y-53057754D01*
X75316241Y-53057753D01*
X75316240Y-53057753D01*
X75154957Y-53032208D01*
X75106287Y-53024500D01*
X74893713Y-53024500D01*
X74845042Y-53032208D01*
X74683760Y-53057753D01*
X74481585Y-53123444D01*
X74292179Y-53219951D01*
X74120213Y-53344890D01*
X73969894Y-53495209D01*
X73969890Y-53495214D01*
X73850318Y-53659793D01*
X73794989Y-53702459D01*
X73725375Y-53708438D01*
X73663580Y-53675833D01*
X73649682Y-53659793D01*
X73530109Y-53495214D01*
X73530105Y-53495209D01*
X73379786Y-53344890D01*
X73207820Y-53219951D01*
X73018414Y-53123444D01*
X73018413Y-53123443D01*
X73018412Y-53123443D01*
X72816243Y-53057754D01*
X72816241Y-53057753D01*
X72816240Y-53057753D01*
X72654957Y-53032208D01*
X72606287Y-53024500D01*
X72393713Y-53024500D01*
X72345042Y-53032208D01*
X72183760Y-53057753D01*
X71981585Y-53123444D01*
X71792179Y-53219951D01*
X71620213Y-53344890D01*
X71469894Y-53495209D01*
X71469890Y-53495214D01*
X71350318Y-53659793D01*
X71294989Y-53702459D01*
X71225375Y-53708438D01*
X71163580Y-53675833D01*
X71149682Y-53659793D01*
X71030109Y-53495214D01*
X71030105Y-53495209D01*
X70879786Y-53344890D01*
X70707820Y-53219951D01*
X70518414Y-53123444D01*
X70518413Y-53123443D01*
X70518412Y-53123443D01*
X70316243Y-53057754D01*
X70316241Y-53057753D01*
X70316240Y-53057753D01*
X70154957Y-53032208D01*
X70106287Y-53024500D01*
X69893713Y-53024500D01*
X69845042Y-53032208D01*
X69683760Y-53057753D01*
X69481585Y-53123444D01*
X69292179Y-53219951D01*
X69120213Y-53344890D01*
X68969894Y-53495209D01*
X68969890Y-53495214D01*
X68850318Y-53659793D01*
X68794989Y-53702459D01*
X68725375Y-53708438D01*
X68663580Y-53675833D01*
X68649682Y-53659793D01*
X68530109Y-53495214D01*
X68530105Y-53495209D01*
X68379786Y-53344890D01*
X68207820Y-53219951D01*
X68018414Y-53123444D01*
X68018413Y-53123443D01*
X68018412Y-53123443D01*
X67816243Y-53057754D01*
X67816241Y-53057753D01*
X67816240Y-53057753D01*
X67654957Y-53032208D01*
X67606287Y-53024500D01*
X67393713Y-53024500D01*
X67345042Y-53032208D01*
X67183760Y-53057753D01*
X66981585Y-53123444D01*
X66792179Y-53219951D01*
X66620213Y-53344890D01*
X66469894Y-53495209D01*
X66469890Y-53495214D01*
X66350318Y-53659793D01*
X66294989Y-53702459D01*
X66225375Y-53708438D01*
X66163580Y-53675833D01*
X66149682Y-53659793D01*
X66030109Y-53495214D01*
X66030105Y-53495209D01*
X65879786Y-53344890D01*
X65707820Y-53219951D01*
X65518414Y-53123444D01*
X65518413Y-53123443D01*
X65518412Y-53123443D01*
X65316243Y-53057754D01*
X65316241Y-53057753D01*
X65316240Y-53057753D01*
X65154957Y-53032208D01*
X65106287Y-53024500D01*
X64893713Y-53024500D01*
X64845042Y-53032208D01*
X64683760Y-53057753D01*
X64481585Y-53123444D01*
X64292179Y-53219951D01*
X64120215Y-53344889D01*
X63981035Y-53484069D01*
X63919712Y-53517553D01*
X63850020Y-53512569D01*
X63794087Y-53470697D01*
X63787815Y-53461484D01*
X63692315Y-53306654D01*
X63568345Y-53182684D01*
X63419124Y-53090643D01*
X63419119Y-53090641D01*
X63252697Y-53035494D01*
X63252690Y-53035493D01*
X63149986Y-53025000D01*
X62750000Y-53025000D01*
X62750000Y-54095854D01*
X62683343Y-54057370D01*
X62562535Y-54025000D01*
X62437465Y-54025000D01*
X62316657Y-54057370D01*
X62250000Y-54095854D01*
X62250000Y-53025000D01*
X61850028Y-53025000D01*
X61850012Y-53025001D01*
X61747302Y-53035494D01*
X61580880Y-53090641D01*
X61580875Y-53090643D01*
X61431654Y-53182684D01*
X61307684Y-53306654D01*
X61215643Y-53455875D01*
X61215641Y-53455880D01*
X61160494Y-53622302D01*
X61160493Y-53622309D01*
X61150000Y-53725013D01*
X61150000Y-54250000D01*
X50500500Y-54250000D01*
X50500500Y-50624500D01*
X50520185Y-50557461D01*
X50572989Y-50511706D01*
X50624500Y-50500500D01*
X149375500Y-50500500D01*
X149442539Y-50520185D01*
G37*
%TD.AperFunction*%
%TA.AperFunction,Conductor*%
G36*
X74269925Y-62520185D02*
G01*
X74315680Y-62572989D01*
X74325624Y-62642147D01*
X74296599Y-62705703D01*
X74243840Y-62741542D01*
X74150478Y-62774210D01*
X73997737Y-62870184D01*
X73870184Y-62997737D01*
X73774210Y-63150478D01*
X73714630Y-63320750D01*
X73704837Y-63407668D01*
X73677770Y-63472082D01*
X73669298Y-63481465D01*
X64637584Y-72513181D01*
X64576261Y-72546666D01*
X64549903Y-72549500D01*
X62452503Y-72549500D01*
X62385464Y-72529815D01*
X62339709Y-72477011D01*
X62329765Y-72407853D01*
X62332728Y-72393407D01*
X62342195Y-72358072D01*
X62375063Y-72235408D01*
X62395659Y-72000000D01*
X62375063Y-71764592D01*
X62313903Y-71536337D01*
X62214035Y-71322171D01*
X62078495Y-71128599D01*
X62078494Y-71128597D01*
X61911402Y-70961506D01*
X61911395Y-70961501D01*
X61717834Y-70825967D01*
X61717830Y-70825965D01*
X61717828Y-70825964D01*
X61503663Y-70726097D01*
X61503659Y-70726096D01*
X61503655Y-70726094D01*
X61275413Y-70664938D01*
X61275403Y-70664936D01*
X61040001Y-70644341D01*
X61039999Y-70644341D01*
X60804596Y-70664936D01*
X60804586Y-70664938D01*
X60576344Y-70726094D01*
X60576335Y-70726098D01*
X60362171Y-70825964D01*
X60362169Y-70825965D01*
X60168600Y-70961503D01*
X60046673Y-71083430D01*
X59985350Y-71116914D01*
X59915658Y-71111930D01*
X59859725Y-71070058D01*
X59842810Y-71039081D01*
X59793797Y-70907671D01*
X59793793Y-70907664D01*
X59707547Y-70792455D01*
X59707544Y-70792452D01*
X59592335Y-70706206D01*
X59592328Y-70706202D01*
X59457482Y-70655908D01*
X59457483Y-70655908D01*
X59397883Y-70649501D01*
X59397881Y-70649500D01*
X59397873Y-70649500D01*
X59397865Y-70649500D01*
X58615783Y-70649500D01*
X58548744Y-70629815D01*
X58528102Y-70613181D01*
X56036819Y-68121898D01*
X56003334Y-68060575D01*
X56000500Y-68034217D01*
X56000500Y-67351288D01*
X57999500Y-67351288D01*
X58031161Y-67591785D01*
X58093947Y-67826104D01*
X58178670Y-68030642D01*
X58186776Y-68050212D01*
X58308064Y-68260289D01*
X58308066Y-68260292D01*
X58308067Y-68260293D01*
X58455733Y-68452736D01*
X58455739Y-68452743D01*
X58627256Y-68624260D01*
X58627262Y-68624265D01*
X58819711Y-68771936D01*
X59029788Y-68893224D01*
X59253900Y-68986054D01*
X59488211Y-69048838D01*
X59668586Y-69072584D01*
X59728711Y-69080500D01*
X59728712Y-69080500D01*
X59971289Y-69080500D01*
X60019388Y-69074167D01*
X60211789Y-69048838D01*
X60446100Y-68986054D01*
X60670212Y-68893224D01*
X60880289Y-68771936D01*
X61072738Y-68624265D01*
X61244265Y-68452738D01*
X61391936Y-68260289D01*
X61513224Y-68050212D01*
X61606054Y-67826100D01*
X61668838Y-67591789D01*
X61700500Y-67351288D01*
X61700500Y-67108712D01*
X61668838Y-66868211D01*
X61606054Y-66633900D01*
X61513224Y-66409788D01*
X61391936Y-66199711D01*
X61244265Y-66007262D01*
X61244260Y-66007256D01*
X61072743Y-65835739D01*
X61072736Y-65835733D01*
X60880293Y-65688067D01*
X60880292Y-65688066D01*
X60880289Y-65688064D01*
X60670212Y-65566776D01*
X60670205Y-65566773D01*
X60446104Y-65473947D01*
X60211785Y-65411161D01*
X59971289Y-65379500D01*
X59971288Y-65379500D01*
X59728712Y-65379500D01*
X59728711Y-65379500D01*
X59488214Y-65411161D01*
X59253895Y-65473947D01*
X59029794Y-65566773D01*
X59029785Y-65566777D01*
X58819706Y-65688067D01*
X58627263Y-65835733D01*
X58627256Y-65835739D01*
X58455739Y-66007256D01*
X58455733Y-66007263D01*
X58308067Y-66199706D01*
X58186777Y-66409785D01*
X58186773Y-66409794D01*
X58093947Y-66633895D01*
X58031161Y-66868214D01*
X57999500Y-67108711D01*
X57999500Y-67351288D01*
X56000500Y-67351288D01*
X56000500Y-64465782D01*
X56020185Y-64398743D01*
X56036819Y-64378101D01*
X57878101Y-62536819D01*
X57939424Y-62503334D01*
X57965782Y-62500500D01*
X74202886Y-62500500D01*
X74269925Y-62520185D01*
G37*
%TD.AperFunction*%
%TD*%
M02*
