%TF.GenerationSoftware,KiCad,Pcbnew,8.0.1*%
%TF.CreationDate,2024-05-22T17:07:33+09:00*%
%TF.ProjectId,power_bord,706f7765-725f-4626-9f72-642e6b696361,rev?*%
%TF.SameCoordinates,Original*%
%TF.FileFunction,Soldermask,Top*%
%TF.FilePolarity,Negative*%
%FSLAX46Y46*%
G04 Gerber Fmt 4.6, Leading zero omitted, Abs format (unit mm)*
G04 Created by KiCad (PCBNEW 8.0.1) date 2024-05-22 17:07:33*
%MOMM*%
%LPD*%
G01*
G04 APERTURE LIST*
G04 Aperture macros list*
%AMRoundRect*
0 Rectangle with rounded corners*
0 $1 Rounding radius*
0 $2 $3 $4 $5 $6 $7 $8 $9 X,Y pos of 4 corners*
0 Add a 4 corners polygon primitive as box body*
4,1,4,$2,$3,$4,$5,$6,$7,$8,$9,$2,$3,0*
0 Add four circle primitives for the rounded corners*
1,1,$1+$1,$2,$3*
1,1,$1+$1,$4,$5*
1,1,$1+$1,$6,$7*
1,1,$1+$1,$8,$9*
0 Add four rect primitives between the rounded corners*
20,1,$1+$1,$2,$3,$4,$5,0*
20,1,$1+$1,$4,$5,$6,$7,0*
20,1,$1+$1,$6,$7,$8,$9,0*
20,1,$1+$1,$8,$9,$2,$3,0*%
G04 Aperture macros list end*
%ADD10C,1.700000*%
%ADD11RoundRect,0.100000X-1.268730X0.759460X-1.268730X-0.759460X1.268730X-0.759460X1.268730X0.759460X0*%
%ADD12RoundRect,0.100000X1.268730X-0.759460X1.268730X0.759460X-1.268730X0.759460X-1.268730X-0.759460X0*%
%ADD13C,4.200000*%
%ADD14C,3.200000*%
%ADD15RoundRect,0.100000X-0.450000X-1.000000X0.450000X-1.000000X0.450000X1.000000X-0.450000X1.000000X0*%
%ADD16RoundRect,1.075000X-1.075000X-1.075000X1.075000X-1.075000X1.075000X1.075000X-1.075000X1.075000X0*%
%ADD17C,4.300000*%
%ADD18C,3.400000*%
%ADD19C,1.000000*%
%ADD20C,6.600000*%
%ADD21RoundRect,0.298780X0.313720X0.501220X-0.313720X0.501220X-0.313720X-0.501220X0.313720X-0.501220X0*%
%ADD22RoundRect,0.300000X-0.300000X-0.525000X0.300000X-0.525000X0.300000X0.525000X-0.300000X0.525000X0*%
%ADD23RoundRect,0.100000X-0.650000X-0.800000X0.650000X-0.800000X0.650000X0.800000X-0.650000X0.800000X0*%
%ADD24RoundRect,0.100000X0.575000X-0.575000X0.575000X0.575000X-0.575000X0.575000X-0.575000X-0.575000X0*%
%ADD25C,1.350000*%
%ADD26RoundRect,0.300000X0.300000X0.525000X-0.300000X0.525000X-0.300000X-0.525000X0.300000X-0.525000X0*%
%ADD27C,1.400000*%
%ADD28RoundRect,0.279412X-0.670588X-0.820588X0.670588X-0.820588X0.670588X0.820588X-0.670588X0.820588X0*%
%ADD29O,1.900000X2.200000*%
%ADD30RoundRect,0.298780X0.501220X-0.313720X0.501220X0.313720X-0.501220X0.313720X-0.501220X-0.313720X0*%
%ADD31C,2.450000*%
%ADD32C,1.300000*%
%ADD33RoundRect,0.100000X-0.575000X0.575000X-0.575000X-0.575000X0.575000X-0.575000X0.575000X0.575000X0*%
%ADD34RoundRect,0.298780X-0.313720X-0.501220X0.313720X-0.501220X0.313720X0.501220X-0.313720X0.501220X0*%
%ADD35RoundRect,0.100000X0.637500X-0.637500X0.637500X0.637500X-0.637500X0.637500X-0.637500X-0.637500X0*%
%ADD36C,1.475000*%
%ADD37RoundRect,0.300000X0.525000X-0.300000X0.525000X0.300000X-0.525000X0.300000X-0.525000X-0.300000X0*%
%ADD38RoundRect,0.100000X-0.690500X-0.690500X0.690500X-0.690500X0.690500X0.690500X-0.690500X0.690500X0*%
%ADD39C,1.581000*%
%ADD40RoundRect,0.100000X0.800000X-0.800000X0.800000X0.800000X-0.800000X0.800000X-0.800000X-0.800000X0*%
%ADD41O,1.800000X1.800000*%
%ADD42RoundRect,0.100000X0.637500X0.637500X-0.637500X0.637500X-0.637500X-0.637500X0.637500X-0.637500X0*%
G04 APERTURE END LIST*
D10*
%TO.C,Q2*%
X86000000Y-37500000D03*
X84730000Y-38800000D03*
X83460000Y-37500000D03*
%TD*%
D11*
%TO.C,U1*%
X79379460Y-78692540D03*
X79379460Y-81232540D03*
X79379460Y-83767460D03*
X79379460Y-86307460D03*
D12*
X62620540Y-86307460D03*
X62620540Y-83767460D03*
X62620540Y-81232540D03*
X62620540Y-78692540D03*
%TD*%
D10*
%TO.C,Q1*%
X89158000Y-84230000D03*
X90458000Y-85500000D03*
X89158000Y-86770000D03*
%TD*%
D13*
%TO.C,K1*%
X96350000Y-64500000D03*
X83650000Y-59500000D03*
X83650000Y-69500000D03*
D14*
X93850000Y-69500000D03*
X93850000Y-59500000D03*
%TD*%
D15*
%TO.C,J2*%
X127750000Y-45650000D03*
X141250000Y-45650000D03*
D16*
X130900000Y-51650000D03*
D17*
X138100000Y-51650000D03*
%TD*%
D18*
%TO.C,H10*%
X150000000Y-110000000D03*
%TD*%
D19*
%TO.C,H1*%
X63800000Y-69500000D03*
X63097056Y-71197056D03*
X63097056Y-67802944D03*
X61400000Y-71900000D03*
D20*
X61400000Y-69500000D03*
D19*
X61400000Y-67100000D03*
X59702944Y-71197056D03*
X59702944Y-67802944D03*
X59000000Y-69500000D03*
%TD*%
D15*
%TO.C,J3*%
X106750000Y-45650000D03*
X120250000Y-45650000D03*
D16*
X109900000Y-51650000D03*
D17*
X117100000Y-51650000D03*
%TD*%
D21*
%TO.C,R6*%
X88912500Y-76000000D03*
X87087500Y-76000000D03*
%TD*%
D22*
%TO.C,C5*%
X83550000Y-87500000D03*
X85450000Y-87500000D03*
%TD*%
D23*
%TO.C,C8*%
X116300000Y-112500000D03*
X120700000Y-112500000D03*
%TD*%
D24*
%TO.C,C10*%
X113500000Y-62750000D03*
D25*
X113500000Y-60250000D03*
%TD*%
D26*
%TO.C,C3*%
X64000000Y-90500000D03*
X62100000Y-90500000D03*
%TD*%
D27*
%TO.C,J1*%
X90650000Y-40000000D03*
D28*
X92250000Y-38000000D03*
D29*
X94750000Y-38000000D03*
%TD*%
D30*
%TO.C,R2*%
X58000000Y-86325000D03*
X58000000Y-84500000D03*
%TD*%
D18*
%TO.C,H7*%
X60000000Y-40000000D03*
%TD*%
D19*
%TO.C,H2*%
X63300000Y-53500000D03*
X62597056Y-55197056D03*
X62597056Y-51802944D03*
X60900000Y-55900000D03*
D20*
X60900000Y-53500000D03*
D19*
X60900000Y-51100000D03*
X59202944Y-55197056D03*
X59202944Y-51802944D03*
X58500000Y-53500000D03*
%TD*%
D31*
%TO.C,PS1*%
X109220000Y-84800000D03*
X109220000Y-92420000D03*
X109220000Y-97500000D03*
X129540000Y-105120000D03*
X129540000Y-94960000D03*
X129540000Y-84800000D03*
%TD*%
D32*
%TO.C,R3*%
X75750000Y-51310000D03*
X83250000Y-51310000D03*
X83250000Y-47500000D03*
X75750000Y-47500000D03*
%TD*%
D33*
%TO.C,C12*%
X138500000Y-106000000D03*
D25*
X138500000Y-108500000D03*
%TD*%
D34*
%TO.C,R4*%
X83500000Y-84000000D03*
X85325000Y-84000000D03*
%TD*%
D19*
%TO.C,H6*%
X152300000Y-60000000D03*
X151597056Y-61697056D03*
X151597056Y-58302944D03*
X149900000Y-62400000D03*
D20*
X149900000Y-60000000D03*
D19*
X149900000Y-57600000D03*
X148202944Y-61697056D03*
X148202944Y-58302944D03*
X147500000Y-60000000D03*
%TD*%
D35*
%TO.C,C11*%
X124500000Y-63500000D03*
D36*
X124500000Y-58500000D03*
%TD*%
D23*
%TO.C,C7*%
X116300000Y-78000000D03*
X120700000Y-78000000D03*
%TD*%
D37*
%TO.C,C6*%
X101500000Y-96000000D03*
X101500000Y-94100000D03*
%TD*%
D18*
%TO.C,H9*%
X60000000Y-110000000D03*
%TD*%
D38*
%TO.C,L1*%
X81500000Y-98000000D03*
D39*
X86500000Y-98000000D03*
%TD*%
D40*
%TO.C,D1*%
X101000000Y-71350000D03*
D41*
X101000000Y-58650000D03*
%TD*%
D18*
%TO.C,H8*%
X150000000Y-40000000D03*
%TD*%
D14*
%TO.C,J4*%
X141000000Y-96500000D03*
X147000000Y-96500000D03*
X144000000Y-91800000D03*
%TD*%
D30*
%TO.C,R1*%
X58000000Y-81325000D03*
X58000000Y-79500000D03*
%TD*%
D35*
%TO.C,C1*%
X73500000Y-66500000D03*
D36*
X73500000Y-61500000D03*
%TD*%
D37*
%TO.C,C9*%
X106500000Y-62400000D03*
X106500000Y-60500000D03*
%TD*%
D35*
%TO.C,C4*%
X96000000Y-108500000D03*
D36*
X96000000Y-103500000D03*
%TD*%
D42*
%TO.C,C2*%
X68000000Y-98000000D03*
D36*
X63000000Y-98000000D03*
%TD*%
D30*
%TO.C,R5*%
X85500000Y-80325000D03*
X85500000Y-78500000D03*
%TD*%
D19*
%TO.C,H5*%
X152300000Y-71652944D03*
X151597056Y-73350000D03*
X151597056Y-69955888D03*
X149900000Y-74052944D03*
D20*
X149900000Y-71652944D03*
D19*
X149900000Y-69252944D03*
X148202944Y-73350000D03*
X148202944Y-69955888D03*
X147500000Y-71652944D03*
%TD*%
M02*
