M48
; DRILL file {KiCad 8.0.1} date 2024-05-22T17:09:21+0900
; FORMAT={-:-/ absolute / metric / decimal}
; #@! TF.CreationDate,2024-05-22T17:09:21+09:00
; #@! TF.GenerationSoftware,Kicad,Pcbnew,8.0.1
; #@! TF.FileFunction,MixedPlating,1,2
FMAT,2
METRIC
; #@! TA.AperFunction,Plated,PTH,ViaDrill
T1C0.300
; #@! TA.AperFunction,Plated,PTH,ComponentDrill
T2C0.500
; #@! TA.AperFunction,Plated,PTH,ComponentDrill
T3C0.600
; #@! TA.AperFunction,Plated,PTH,ComponentDrill
T4C0.750
; #@! TA.AperFunction,Plated,PTH,ComponentDrill
T5C0.800
; #@! TA.AperFunction,Plated,PTH,ComponentDrill
T6C0.850
; #@! TA.AperFunction,Plated,PTH,ComponentDrill
T7C1.000
; #@! TA.AperFunction,Plated,PTH,ComponentDrill
T8C1.500
; #@! TA.AperFunction,Plated,PTH,ComponentDrill
T9C1.900
; #@! TA.AperFunction,Plated,PTH,ComponentDrill
T10C2.700
; #@! TA.AperFunction,Plated,PTH,ComponentDrill
T11C3.200
; #@! TA.AperFunction,NonPlated,NPTH,ComponentDrill
T12C1.200
; #@! TA.AperFunction,NonPlated,NPTH,ComponentDrill
T13C3.200
%
G90
G05
T1
X56.5Y-48.0
X56.5Y-53.5
X57.0Y-59.0
X58.0Y-86.5
X61.0Y-48.0
X61.0Y-59.0
X62.0Y-90.5
X62.5Y-86.5
X65.0Y-48.0
X65.0Y-59.0
X65.5Y-54.0
X70.0Y-39.5
X70.5Y-61.5
X73.5Y-47.0
X73.5Y-51.0
X73.5Y-59.0
X74.5Y-84.5
X75.0Y-88.5
X76.5Y-61.5
X76.5Y-84.5
X81.0Y-37.5
X81.5Y-89.0
X82.0Y-85.0
X84.0Y-81.5
X85.0Y-75.5
X85.5Y-86.0
X87.5Y-83.0
X88.0Y-79.0
X89.0Y-60.5
X89.0Y-74.0
X91.0Y-63.5
X91.0Y-75.0
X91.5Y-42.5
X91.5Y-51.5
X91.5Y-80.5
X96.5Y-85.5
X100.5Y-75.0
X100.5Y-81.5
X101.0Y-54.0
X101.5Y-94.0
X102.5Y-42.5
X102.5Y-90.5
X106.5Y-60.5
X107.5Y-93.5
X108.0Y-91.0
X109.5Y-40.5
X111.0Y-91.5
X111.5Y-74.5
X111.5Y-93.5
X112.0Y-80.5
X115.0Y-88.5
X116.0Y-41.5
X116.0Y-76.5
X116.0Y-79.5
X120.5Y-76.5
X120.5Y-79.5
X122.0Y-85.5
X123.5Y-91.5
X123.5Y-97.0
X124.0Y-40.0
X127.5Y-85.0
X129.0Y-77.5
X129.5Y-83.0
X129.5Y-86.5
X130.5Y-90.5
X131.5Y-85.0
X134.0Y-41.0
X134.5Y-82.5
X138.5Y-97.0
X139.5Y-88.5
X140.0Y-94.0
X142.0Y-92.0
X143.5Y-41.0
X144.0Y-89.5
X144.0Y-94.5
X144.0Y-97.0
X146.0Y-56.5
X146.5Y-92.0
X149.5Y-49.5
X153.0Y-56.5
X153.0Y-92.0
X153.5Y-62.5
T2
X58.5Y-53.5
X59.0Y-69.5
X59.203Y-51.803
X59.203Y-55.197
X59.703Y-67.803
X59.703Y-71.197
X60.9Y-51.1
X60.9Y-55.9
X61.4Y-67.1
X61.4Y-71.9
X62.597Y-51.803
X62.597Y-55.197
X63.097Y-67.803
X63.097Y-71.197
X63.3Y-53.5
X63.8Y-69.5
X147.5Y-60.0
X147.5Y-71.653
X148.203Y-58.303
X148.203Y-61.697
X148.203Y-69.956
X148.203Y-73.35
X149.9Y-57.6
X149.9Y-62.4
X149.9Y-69.253
X149.9Y-74.053
X151.597Y-58.303
X151.597Y-61.697
X151.597Y-69.956
X151.597Y-73.35
X152.3Y-60.0
X152.3Y-71.653
T3
X75.75Y-47.5
X75.75Y-51.31
X83.25Y-47.5
X83.25Y-51.31
T4
X113.5Y-60.25
X113.5Y-62.75
X138.5Y-106.0
X138.5Y-108.5
T5
X101.0Y-58.65
X101.0Y-71.35
T6
X63.0Y-98.0
X68.0Y-98.0
X73.5Y-61.5
X73.5Y-66.5
X81.5Y-98.0
X86.5Y-98.0
X96.0Y-103.5
X96.0Y-108.5
X124.5Y-58.5
X124.5Y-63.5
T7
X83.46Y-37.5
X84.73Y-38.8
X86.0Y-37.5
X89.158Y-84.23
X89.158Y-86.77
X90.458Y-85.5
X92.25Y-38.0
X94.75Y-38.0
T8
X83.65Y-59.5
X83.65Y-69.5
X93.85Y-59.5
X93.85Y-69.5
X96.35Y-64.5
X109.22Y-84.8
X109.22Y-92.42
X109.22Y-97.5
X129.54Y-84.8
X129.54Y-94.96
X129.54Y-105.12
T9
X141.0Y-96.5
X144.0Y-91.8
X147.0Y-96.5
T10
X109.9Y-51.65
X117.1Y-51.65
X130.9Y-51.65
X138.1Y-51.65
T11
X60.9Y-53.5
X61.4Y-69.5
X149.9Y-60.0
X149.9Y-71.653
T12
X90.65Y-40.0
T13
X60.0Y-40.0
X60.0Y-110.0
X150.0Y-40.0
X150.0Y-110.0
T3
G00X106.75Y-45.1
M15
G01X106.75Y-46.2
M16
G05
G00X120.25Y-45.1
M15
G01X120.25Y-46.2
M16
G05
G00X127.75Y-45.1
M15
G01X127.75Y-46.2
M16
G05
G00X141.25Y-45.1
M15
G01X141.25Y-46.2
M16
G05
M30
