%TF.GenerationSoftware,KiCad,Pcbnew,8.0.1*%
%TF.CreationDate,2024-05-22T17:07:33+09:00*%
%TF.ProjectId,power_bord,706f7765-725f-4626-9f72-642e6b696361,rev?*%
%TF.SameCoordinates,Original*%
%TF.FileFunction,Copper,L2,Bot*%
%TF.FilePolarity,Positive*%
%FSLAX46Y46*%
G04 Gerber Fmt 4.6, Leading zero omitted, Abs format (unit mm)*
G04 Created by KiCad (PCBNEW 8.0.1) date 2024-05-22 17:07:33*
%MOMM*%
%LPD*%
G01*
G04 APERTURE LIST*
G04 Aperture macros list*
%AMRoundRect*
0 Rectangle with rounded corners*
0 $1 Rounding radius*
0 $2 $3 $4 $5 $6 $7 $8 $9 X,Y pos of 4 corners*
0 Add a 4 corners polygon primitive as box body*
4,1,4,$2,$3,$4,$5,$6,$7,$8,$9,$2,$3,0*
0 Add four circle primitives for the rounded corners*
1,1,$1+$1,$2,$3*
1,1,$1+$1,$4,$5*
1,1,$1+$1,$6,$7*
1,1,$1+$1,$8,$9*
0 Add four rect primitives between the rounded corners*
20,1,$1+$1,$2,$3,$4,$5,0*
20,1,$1+$1,$4,$5,$6,$7,0*
20,1,$1+$1,$6,$7,$8,$9,0*
20,1,$1+$1,$8,$9,$2,$3,0*%
G04 Aperture macros list end*
%TA.AperFunction,ComponentPad*%
%ADD10C,1.500000*%
%TD*%
%TA.AperFunction,ComponentPad*%
%ADD11C,4.000000*%
%TD*%
%TA.AperFunction,ComponentPad*%
%ADD12C,3.000000*%
%TD*%
%TA.AperFunction,ComponentPad*%
%ADD13R,0.900000X2.000000*%
%TD*%
%TA.AperFunction,ComponentPad*%
%ADD14RoundRect,1.025000X-1.025000X-1.025000X1.025000X-1.025000X1.025000X1.025000X-1.025000X1.025000X0*%
%TD*%
%TA.AperFunction,ComponentPad*%
%ADD15C,4.100000*%
%TD*%
%TA.AperFunction,ComponentPad*%
%ADD16C,0.800000*%
%TD*%
%TA.AperFunction,ComponentPad*%
%ADD17C,6.400000*%
%TD*%
%TA.AperFunction,ComponentPad*%
%ADD18R,1.150000X1.150000*%
%TD*%
%TA.AperFunction,ComponentPad*%
%ADD19C,1.150000*%
%TD*%
%TA.AperFunction,ComponentPad*%
%ADD20RoundRect,0.250000X-0.600000X-0.750000X0.600000X-0.750000X0.600000X0.750000X-0.600000X0.750000X0*%
%TD*%
%TA.AperFunction,ComponentPad*%
%ADD21O,1.700000X2.000000*%
%TD*%
%TA.AperFunction,ComponentPad*%
%ADD22C,2.250000*%
%TD*%
%TA.AperFunction,ComponentPad*%
%ADD23C,1.100000*%
%TD*%
%TA.AperFunction,ComponentPad*%
%ADD24R,1.275000X1.275000*%
%TD*%
%TA.AperFunction,ComponentPad*%
%ADD25C,1.275000*%
%TD*%
%TA.AperFunction,ComponentPad*%
%ADD26R,1.381000X1.381000*%
%TD*%
%TA.AperFunction,ComponentPad*%
%ADD27C,1.381000*%
%TD*%
%TA.AperFunction,ComponentPad*%
%ADD28R,1.600000X1.600000*%
%TD*%
%TA.AperFunction,ComponentPad*%
%ADD29O,1.600000X1.600000*%
%TD*%
%TA.AperFunction,ViaPad*%
%ADD30C,0.600000*%
%TD*%
%TA.AperFunction,Conductor*%
%ADD31C,0.200000*%
%TD*%
G04 APERTURE END LIST*
D10*
%TO.P,Q2,1,D*%
%TO.N,Net-(J1-Pin_1)*%
X86000000Y-37500000D03*
%TO.P,Q2,2,G*%
%TO.N,Net-(Q1-D)*%
X84730000Y-38800000D03*
%TO.P,Q2,3,S*%
%TO.N,GND*%
X83460000Y-37500000D03*
%TD*%
%TO.P,Q1,1,D*%
%TO.N,Net-(Q1-D)*%
X89158000Y-84230000D03*
%TO.P,Q1,2,G*%
%TO.N,Net-(Q1-G)*%
X90458000Y-85500000D03*
%TO.P,Q1,3,S*%
%TO.N,GND*%
X89158000Y-86770000D03*
%TD*%
D11*
%TO.P,K1,11*%
%TO.N,Net-(J2-Pin_2)*%
X96350000Y-64500000D03*
%TO.P,K1,12*%
%TO.N,Net-(K1-Pad12)*%
X83650000Y-59500000D03*
%TO.P,K1,14*%
%TO.N,VCC*%
X83650000Y-69500000D03*
D12*
%TO.P,K1,A1*%
X93850000Y-69500000D03*
%TO.P,K1,A2*%
%TO.N,Net-(D1-A)*%
X93850000Y-59500000D03*
%TD*%
D13*
%TO.P,J2,*%
%TO.N,*%
X127750000Y-45650000D03*
X141250000Y-45650000D03*
D14*
%TO.P,J2,1,Pin_1*%
%TO.N,GND*%
X130900000Y-51650000D03*
D15*
%TO.P,J2,2,Pin_2*%
%TO.N,Net-(J2-Pin_2)*%
X138100000Y-51650000D03*
%TD*%
D16*
%TO.P,H1,1,1*%
%TO.N,VCC*%
X63800000Y-69500000D03*
X63097056Y-71197056D03*
X63097056Y-67802944D03*
X61400000Y-71900000D03*
D17*
X61400000Y-69500000D03*
D16*
X61400000Y-67100000D03*
X59702944Y-71197056D03*
X59702944Y-67802944D03*
X59000000Y-69500000D03*
%TD*%
D13*
%TO.P,J3,*%
%TO.N,*%
X106750000Y-45650000D03*
X120250000Y-45650000D03*
D14*
%TO.P,J3,1,Pin_1*%
%TO.N,GND*%
X109900000Y-51650000D03*
D15*
%TO.P,J3,2,Pin_2*%
%TO.N,Net-(J2-Pin_2)*%
X117100000Y-51650000D03*
%TD*%
D18*
%TO.P,C10,1*%
%TO.N,Net-(J2-Pin_2)*%
X113500000Y-62750000D03*
D19*
%TO.P,C10,2*%
%TO.N,GND*%
X113500000Y-60250000D03*
%TD*%
D20*
%TO.P,J1,1,Pin_1*%
%TO.N,Net-(J1-Pin_1)*%
X92250000Y-38000000D03*
D21*
%TO.P,J1,2,Pin_2*%
%TO.N,Net-(D1-A)*%
X94750000Y-38000000D03*
%TD*%
D16*
%TO.P,H2,1,1*%
%TO.N,GND*%
X63300000Y-53500000D03*
X62597056Y-55197056D03*
X62597056Y-51802944D03*
X60900000Y-55900000D03*
D17*
X60900000Y-53500000D03*
D16*
X60900000Y-51100000D03*
X59202944Y-55197056D03*
X59202944Y-51802944D03*
X58500000Y-53500000D03*
%TD*%
D22*
%TO.P,PS1,1,CTRL*%
%TO.N,unconnected-(PS1-CTRL-Pad1)*%
X109220000Y-84800000D03*
%TO.P,PS1,2,GND*%
%TO.N,GND*%
X109220000Y-92420000D03*
%TO.P,PS1,3,VIN*%
%TO.N,Net-(PS1-VIN)*%
X109220000Y-97500000D03*
%TO.P,PS1,4,+VO*%
%TO.N,Net-(PS1-+VO)*%
X129540000Y-105120000D03*
%TO.P,PS1,5,TRIM*%
%TO.N,unconnected-(PS1-TRIM-Pad5)*%
X129540000Y-94960000D03*
%TO.P,PS1,6,0V*%
%TO.N,Net-(PS1-0V)*%
X129540000Y-84800000D03*
%TD*%
D23*
%TO.P,R3,1,1*%
%TO.N,GND*%
X75750000Y-51310000D03*
%TO.P,R3,2,2*%
%TO.N,Net-(K1-Pad12)*%
X83250000Y-51310000D03*
%TO.P,R3,3,3*%
X83250000Y-47500000D03*
%TO.P,R3,4,4*%
%TO.N,GND*%
X75750000Y-47500000D03*
%TD*%
D18*
%TO.P,C12,1*%
%TO.N,Net-(PS1-+VO)*%
X138500000Y-106000000D03*
D19*
%TO.P,C12,2*%
%TO.N,Net-(PS1-0V)*%
X138500000Y-108500000D03*
%TD*%
D16*
%TO.P,H6,1,1*%
%TO.N,GND*%
X152300000Y-60000000D03*
X151597056Y-61697056D03*
X151597056Y-58302944D03*
X149900000Y-62400000D03*
D17*
X149900000Y-60000000D03*
D16*
X149900000Y-57600000D03*
X148202944Y-61697056D03*
X148202944Y-58302944D03*
X147500000Y-60000000D03*
%TD*%
D24*
%TO.P,C11,1*%
%TO.N,Net-(J2-Pin_2)*%
X124500000Y-63500000D03*
D25*
%TO.P,C11,2*%
%TO.N,GND*%
X124500000Y-58500000D03*
%TD*%
D26*
%TO.P,L1,1,1*%
%TO.N,VCC*%
X81500000Y-98000000D03*
D27*
%TO.P,L1,2,2*%
%TO.N,Net-(PS1-VIN)*%
X86500000Y-98000000D03*
%TD*%
D28*
%TO.P,D1,1,K*%
%TO.N,VCC*%
X101000000Y-71350000D03*
D29*
%TO.P,D1,2,A*%
%TO.N,Net-(D1-A)*%
X101000000Y-58650000D03*
%TD*%
D12*
%TO.P,J4,1,1*%
%TO.N,Net-(PS1-0V)*%
X141000000Y-96500000D03*
%TO.P,J4,2,2*%
%TO.N,Net-(PS1-+VO)*%
X147000000Y-96500000D03*
%TO.P,J4,3,3*%
%TO.N,Net-(PS1-0V)*%
X144000000Y-91800000D03*
%TD*%
D24*
%TO.P,C1,1*%
%TO.N,VCC*%
X73500000Y-66500000D03*
D25*
%TO.P,C1,2*%
%TO.N,GND*%
X73500000Y-61500000D03*
%TD*%
D24*
%TO.P,C4,1*%
%TO.N,Net-(PS1-VIN)*%
X96000000Y-108500000D03*
D25*
%TO.P,C4,2*%
%TO.N,GND*%
X96000000Y-103500000D03*
%TD*%
D24*
%TO.P,C2,1*%
%TO.N,VCC*%
X68000000Y-98000000D03*
D25*
%TO.P,C2,2*%
%TO.N,GND*%
X63000000Y-98000000D03*
%TD*%
D16*
%TO.P,H5,1,1*%
%TO.N,Net-(J2-Pin_2)*%
X152300000Y-71652944D03*
X151597056Y-73350000D03*
X151597056Y-69955888D03*
X149900000Y-74052944D03*
D17*
X149900000Y-71652944D03*
D16*
X149900000Y-69252944D03*
X148202944Y-73350000D03*
X148202944Y-69955888D03*
X147500000Y-71652944D03*
%TD*%
D30*
%TO.N,GND*%
X88000000Y-79000000D03*
X61000000Y-48000000D03*
X115000000Y-88500000D03*
X62000000Y-90500000D03*
X153000000Y-56500000D03*
X91000000Y-63500000D03*
X102500000Y-90500000D03*
X116000000Y-76500000D03*
X57000000Y-59000000D03*
X73500000Y-47000000D03*
X153500000Y-62500000D03*
X143500000Y-41000000D03*
X146000000Y-56500000D03*
X70500000Y-61500000D03*
X116000000Y-79500000D03*
X62500000Y-86500000D03*
X100500000Y-81500000D03*
X116000000Y-41500000D03*
X96500000Y-85500000D03*
X107500000Y-93500000D03*
X111500000Y-93500000D03*
X84000000Y-81500000D03*
X85500000Y-86000000D03*
X87500000Y-83000000D03*
X85000000Y-75500000D03*
X81000000Y-37500000D03*
X76500000Y-61500000D03*
X82000000Y-85000000D03*
X100500000Y-75000000D03*
X149500000Y-49500000D03*
X91500000Y-51500000D03*
X65000000Y-48000000D03*
X106500000Y-60500000D03*
X101500000Y-94000000D03*
X58000000Y-86500000D03*
X70000000Y-39500000D03*
X108000000Y-91000000D03*
X81500000Y-89000000D03*
X65500000Y-54000000D03*
X101000000Y-54000000D03*
X61000000Y-59000000D03*
X73500000Y-51000000D03*
X74500000Y-84500000D03*
X56500000Y-53500000D03*
X112000000Y-80500000D03*
X91000000Y-75000000D03*
X91500000Y-42500000D03*
X102500000Y-42500000D03*
X73500000Y-59000000D03*
X109500000Y-40500000D03*
X75000000Y-88500000D03*
X91500000Y-80500000D03*
X134000000Y-41000000D03*
X111000000Y-91500000D03*
X76500000Y-84500000D03*
X111500000Y-74500000D03*
X124000000Y-40000000D03*
X56500000Y-48000000D03*
X65000000Y-59000000D03*
%TO.N,Net-(PS1-0V)*%
X140000000Y-94000000D03*
X122000000Y-85500000D03*
X130500000Y-90500000D03*
X129500000Y-83000000D03*
X153000000Y-92000000D03*
X120500000Y-76500000D03*
X142000000Y-92000000D03*
X129000000Y-77500000D03*
X129500000Y-86500000D03*
X131500000Y-85000000D03*
X144000000Y-89500000D03*
X139500000Y-88500000D03*
X123500000Y-91500000D03*
X134500000Y-82500000D03*
X127500000Y-85000000D03*
X138500000Y-97000000D03*
X144000000Y-97000000D03*
X120500000Y-79500000D03*
X144000000Y-94500000D03*
X123500000Y-97000000D03*
X146500000Y-92000000D03*
%TO.N,Net-(Q1-D)*%
X89000000Y-60500000D03*
X89000000Y-74000000D03*
%TD*%
D31*
%TO.N,Net-(Q1-D)*%
X89000000Y-60500000D02*
X89000000Y-73000000D01*
X89000000Y-73000000D02*
X89000000Y-74000000D01*
%TD*%
%TA.AperFunction,Conductor*%
%TO.N,Net-(J2-Pin_2)*%
G36*
X145015677Y-62019685D02*
G01*
X145036319Y-62036319D01*
X149000000Y-66000000D01*
X154375500Y-66000000D01*
X154442539Y-66019685D01*
X154488294Y-66072489D01*
X154499500Y-66124000D01*
X154499500Y-85876000D01*
X154479815Y-85943039D01*
X154427011Y-85988794D01*
X154375500Y-86000000D01*
X146551362Y-86000000D01*
X146484323Y-85980315D01*
X146463681Y-85963681D01*
X132500000Y-72000000D01*
X104051362Y-72000000D01*
X103984323Y-71980315D01*
X103963681Y-71963681D01*
X101000000Y-69000000D01*
X97066363Y-69000000D01*
X96999324Y-68980315D01*
X96963189Y-68944783D01*
X96020826Y-67531239D01*
X96000018Y-67464540D01*
X96000000Y-67462456D01*
X96000000Y-62124000D01*
X96019685Y-62056961D01*
X96072489Y-62011206D01*
X96124000Y-62000000D01*
X144948638Y-62000000D01*
X145015677Y-62019685D01*
G37*
%TD.AperFunction*%
%TD*%
%TA.AperFunction,Conductor*%
%TO.N,GND*%
G36*
X145947483Y-35520185D02*
G01*
X145993238Y-35572989D01*
X146004441Y-35623617D01*
X146063637Y-43936362D01*
X146141068Y-43936880D01*
X154376332Y-43991999D01*
X154443236Y-44012132D01*
X154488637Y-44065241D01*
X154499500Y-44115996D01*
X154499500Y-63376000D01*
X154479815Y-63443039D01*
X154427011Y-63488794D01*
X154375500Y-63500000D01*
X149051362Y-63500000D01*
X148984323Y-63480315D01*
X148963681Y-63463681D01*
X146500000Y-61000000D01*
X95473769Y-61000000D01*
X95406730Y-60980315D01*
X95360975Y-60927511D01*
X95351031Y-60858353D01*
X95374502Y-60801690D01*
X95472118Y-60671288D01*
X95537226Y-60584315D01*
X95674367Y-60333161D01*
X95774369Y-60065046D01*
X95835196Y-59785428D01*
X95855610Y-59500000D01*
X95835196Y-59214572D01*
X95828979Y-59185995D01*
X95774371Y-58934962D01*
X95774370Y-58934960D01*
X95774369Y-58934954D01*
X95674367Y-58666839D01*
X95665173Y-58650001D01*
X99694532Y-58650001D01*
X99714364Y-58876686D01*
X99714366Y-58876697D01*
X99773258Y-59096488D01*
X99773261Y-59096497D01*
X99869431Y-59302732D01*
X99869432Y-59302734D01*
X99999954Y-59489141D01*
X100160858Y-59650045D01*
X100160861Y-59650047D01*
X100347266Y-59780568D01*
X100553504Y-59876739D01*
X100773308Y-59935635D01*
X100935230Y-59949801D01*
X100999998Y-59955468D01*
X101000000Y-59955468D01*
X101000002Y-59955468D01*
X101056673Y-59950509D01*
X101226692Y-59935635D01*
X101446496Y-59876739D01*
X101652734Y-59780568D01*
X101839139Y-59650047D01*
X102000047Y-59489139D01*
X102130568Y-59302734D01*
X102226739Y-59096496D01*
X102285635Y-58876692D01*
X102305468Y-58650000D01*
X102285635Y-58423308D01*
X102226739Y-58203504D01*
X102130568Y-57997266D01*
X102001387Y-57812775D01*
X102000045Y-57810858D01*
X101839141Y-57649954D01*
X101652734Y-57519432D01*
X101652732Y-57519431D01*
X101446497Y-57423261D01*
X101446488Y-57423258D01*
X101226697Y-57364366D01*
X101226693Y-57364365D01*
X101226692Y-57364365D01*
X101226691Y-57364364D01*
X101226686Y-57364364D01*
X101000002Y-57344532D01*
X100999998Y-57344532D01*
X100773313Y-57364364D01*
X100773302Y-57364366D01*
X100553511Y-57423258D01*
X100553502Y-57423261D01*
X100347267Y-57519431D01*
X100347265Y-57519432D01*
X100160858Y-57649954D01*
X99999954Y-57810858D01*
X99869432Y-57997265D01*
X99869431Y-57997267D01*
X99773261Y-58203502D01*
X99773258Y-58203511D01*
X99714366Y-58423302D01*
X99714364Y-58423313D01*
X99694532Y-58649998D01*
X99694532Y-58650001D01*
X95665173Y-58650001D01*
X95541388Y-58423308D01*
X95537229Y-58415690D01*
X95537224Y-58415682D01*
X95365745Y-58186612D01*
X95365729Y-58186594D01*
X95163405Y-57984270D01*
X95163387Y-57984254D01*
X94934317Y-57812775D01*
X94934309Y-57812770D01*
X94683166Y-57675635D01*
X94683167Y-57675635D01*
X94575915Y-57635632D01*
X94415046Y-57575631D01*
X94415043Y-57575630D01*
X94415037Y-57575628D01*
X94135433Y-57514804D01*
X93850001Y-57494390D01*
X93849999Y-57494390D01*
X93564566Y-57514804D01*
X93284962Y-57575628D01*
X93016833Y-57675635D01*
X92765690Y-57812770D01*
X92765682Y-57812775D01*
X92536612Y-57984254D01*
X92536594Y-57984270D01*
X92334270Y-58186594D01*
X92334254Y-58186612D01*
X92162775Y-58415682D01*
X92162770Y-58415690D01*
X92025635Y-58666833D01*
X91925628Y-58934962D01*
X91864804Y-59214566D01*
X91844390Y-59499998D01*
X91844390Y-59500001D01*
X91864804Y-59785433D01*
X91925628Y-60065037D01*
X91925630Y-60065043D01*
X91925631Y-60065046D01*
X91947278Y-60123083D01*
X92025635Y-60333166D01*
X92162770Y-60584309D01*
X92162775Y-60584317D01*
X92334254Y-60813387D01*
X92334270Y-60813405D01*
X92536594Y-61015729D01*
X92536612Y-61015745D01*
X92765682Y-61187224D01*
X92765690Y-61187229D01*
X93016833Y-61324364D01*
X93016832Y-61324364D01*
X93016836Y-61324365D01*
X93016839Y-61324367D01*
X93284954Y-61424369D01*
X93284960Y-61424370D01*
X93284962Y-61424371D01*
X93564566Y-61485195D01*
X93564568Y-61485195D01*
X93564572Y-61485196D01*
X93818220Y-61503337D01*
X93849999Y-61505610D01*
X93850000Y-61505610D01*
X93850001Y-61505610D01*
X93878595Y-61503564D01*
X94135428Y-61485196D01*
X94135433Y-61485195D01*
X94207621Y-61469492D01*
X94277312Y-61474476D01*
X94333246Y-61516347D01*
X94357663Y-61581812D01*
X94342811Y-61650085D01*
X94321660Y-61678339D01*
X93000000Y-62999999D01*
X93000000Y-67500000D01*
X93002420Y-67502420D01*
X93035905Y-67563743D01*
X93030921Y-67633435D01*
X92989049Y-67689368D01*
X92974166Y-67698933D01*
X92765690Y-67812770D01*
X92765682Y-67812775D01*
X92536612Y-67984254D01*
X92536594Y-67984270D01*
X92334270Y-68186594D01*
X92334254Y-68186612D01*
X92162775Y-68415682D01*
X92162770Y-68415690D01*
X92025635Y-68666833D01*
X91925628Y-68934962D01*
X91864804Y-69214566D01*
X91844390Y-69499998D01*
X91844390Y-69500001D01*
X91864804Y-69785433D01*
X91925628Y-70065037D01*
X91925630Y-70065043D01*
X91925631Y-70065046D01*
X92002235Y-70270429D01*
X92025635Y-70333166D01*
X92162770Y-70584309D01*
X92162775Y-70584317D01*
X92334254Y-70813387D01*
X92334270Y-70813405D01*
X92536594Y-71015729D01*
X92536612Y-71015745D01*
X92765682Y-71187224D01*
X92765690Y-71187229D01*
X93016833Y-71324364D01*
X93016832Y-71324364D01*
X93016836Y-71324365D01*
X93016839Y-71324367D01*
X93284954Y-71424369D01*
X93284960Y-71424370D01*
X93284962Y-71424371D01*
X93564566Y-71485195D01*
X93564568Y-71485195D01*
X93564572Y-71485196D01*
X93818220Y-71503337D01*
X93849999Y-71505610D01*
X93850000Y-71505610D01*
X93850001Y-71505610D01*
X93878595Y-71503564D01*
X94135428Y-71485196D01*
X94386964Y-71430478D01*
X94415037Y-71424371D01*
X94415037Y-71424370D01*
X94415046Y-71424369D01*
X94683161Y-71324367D01*
X94934315Y-71187226D01*
X95163395Y-71015739D01*
X95365739Y-70813395D01*
X95537226Y-70584315D01*
X95651066Y-70375832D01*
X95700471Y-70326428D01*
X95768744Y-70311576D01*
X95834208Y-70335993D01*
X95847579Y-70347579D01*
X96500000Y-71000000D01*
X99575500Y-71000000D01*
X99642539Y-71019685D01*
X99688294Y-71072489D01*
X99699500Y-71124000D01*
X99699500Y-72197870D01*
X99699501Y-72197876D01*
X99705908Y-72257483D01*
X99756202Y-72392328D01*
X99756206Y-72392335D01*
X99842452Y-72507544D01*
X99842455Y-72507547D01*
X99957664Y-72593793D01*
X99957671Y-72593797D01*
X100092517Y-72644091D01*
X100092516Y-72644091D01*
X100099444Y-72644835D01*
X100152127Y-72650500D01*
X101847872Y-72650499D01*
X101907483Y-72644091D01*
X102005152Y-72607662D01*
X102074841Y-72602679D01*
X102136164Y-72636164D01*
X103000000Y-73500000D01*
X116448638Y-73500000D01*
X116515677Y-73519685D01*
X116536319Y-73536319D01*
X116963681Y-73963681D01*
X116997166Y-74025004D01*
X117000000Y-74051362D01*
X117000000Y-113948638D01*
X116980315Y-114015677D01*
X116963681Y-114036319D01*
X116536819Y-114463181D01*
X116475496Y-114496666D01*
X116449138Y-114499500D01*
X64118089Y-114499500D01*
X64051050Y-114479815D01*
X64005295Y-114427011D01*
X63994095Y-114376675D01*
X63949204Y-109637999D01*
X63944916Y-109185370D01*
X94862000Y-109185370D01*
X94862001Y-109185376D01*
X94868408Y-109244983D01*
X94918702Y-109379828D01*
X94918706Y-109379835D01*
X95004952Y-109495044D01*
X95004955Y-109495047D01*
X95120164Y-109581293D01*
X95120171Y-109581297D01*
X95255017Y-109631591D01*
X95255016Y-109631591D01*
X95261944Y-109632335D01*
X95314627Y-109638000D01*
X96685372Y-109637999D01*
X96744983Y-109631591D01*
X96879831Y-109581296D01*
X96995046Y-109495046D01*
X97081296Y-109379831D01*
X97131591Y-109244983D01*
X97138000Y-109185373D01*
X97137999Y-107814628D01*
X97131591Y-107755017D01*
X97081296Y-107620169D01*
X97081295Y-107620168D01*
X97081293Y-107620164D01*
X96995047Y-107504955D01*
X96995044Y-107504952D01*
X96879835Y-107418706D01*
X96879828Y-107418702D01*
X96744982Y-107368408D01*
X96744983Y-107368408D01*
X96685383Y-107362001D01*
X96685381Y-107362000D01*
X96685373Y-107362000D01*
X96685364Y-107362000D01*
X95314629Y-107362000D01*
X95314623Y-107362001D01*
X95255016Y-107368408D01*
X95120171Y-107418702D01*
X95120164Y-107418706D01*
X95004955Y-107504952D01*
X95004952Y-107504955D01*
X94918706Y-107620164D01*
X94918702Y-107620171D01*
X94868408Y-107755017D01*
X94862001Y-107814616D01*
X94862001Y-107814623D01*
X94862000Y-107814635D01*
X94862000Y-109185370D01*
X63944916Y-109185370D01*
X63915541Y-106084459D01*
X63915540Y-106084458D01*
X55623325Y-106005868D01*
X55556475Y-105985549D01*
X55511223Y-105932314D01*
X55500500Y-105881874D01*
X55500500Y-98685370D01*
X66862000Y-98685370D01*
X66862001Y-98685376D01*
X66868408Y-98744983D01*
X66918702Y-98879828D01*
X66918706Y-98879835D01*
X67004952Y-98995044D01*
X67004955Y-98995047D01*
X67120164Y-99081293D01*
X67120171Y-99081297D01*
X67255017Y-99131591D01*
X67255016Y-99131591D01*
X67261944Y-99132335D01*
X67314627Y-99138000D01*
X68685372Y-99137999D01*
X68744983Y-99131591D01*
X68879831Y-99081296D01*
X68995046Y-98995046D01*
X69081296Y-98879831D01*
X69131591Y-98744983D01*
X69132302Y-98738370D01*
X80309000Y-98738370D01*
X80309001Y-98738376D01*
X80315408Y-98797983D01*
X80365702Y-98932828D01*
X80365706Y-98932835D01*
X80451952Y-99048044D01*
X80451955Y-99048047D01*
X80567164Y-99134293D01*
X80567171Y-99134297D01*
X80702017Y-99184591D01*
X80702016Y-99184591D01*
X80708944Y-99185335D01*
X80761627Y-99191000D01*
X82238372Y-99190999D01*
X82297983Y-99184591D01*
X82432831Y-99134296D01*
X82548046Y-99048046D01*
X82634296Y-98932831D01*
X82684591Y-98797983D01*
X82691000Y-98738373D01*
X82690999Y-98000000D01*
X85303898Y-98000000D01*
X85324263Y-98219778D01*
X85324263Y-98219780D01*
X85324264Y-98219783D01*
X85384668Y-98432082D01*
X85384669Y-98432085D01*
X85483054Y-98629667D01*
X85616071Y-98805811D01*
X85697273Y-98879835D01*
X85779188Y-98954510D01*
X85966851Y-99070707D01*
X86172671Y-99150442D01*
X86389638Y-99191000D01*
X86389640Y-99191000D01*
X86610360Y-99191000D01*
X86610362Y-99191000D01*
X86827329Y-99150442D01*
X87033149Y-99070707D01*
X87220812Y-98954510D01*
X87383930Y-98805809D01*
X87516946Y-98629667D01*
X87615332Y-98432082D01*
X87675736Y-98219783D01*
X87696102Y-98000000D01*
X87675736Y-97780217D01*
X87615332Y-97567918D01*
X87581513Y-97500000D01*
X107589474Y-97500000D01*
X107609547Y-97755064D01*
X107609547Y-97755067D01*
X107609548Y-97755070D01*
X107616822Y-97785368D01*
X107669279Y-98003864D01*
X107767188Y-98240239D01*
X107767190Y-98240242D01*
X107900875Y-98458396D01*
X107900878Y-98458401D01*
X107941199Y-98505610D01*
X108067044Y-98652956D01*
X108174793Y-98744982D01*
X108261598Y-98819121D01*
X108261603Y-98819124D01*
X108479757Y-98952809D01*
X108479760Y-98952811D01*
X108709682Y-99048047D01*
X108716140Y-99050722D01*
X108964930Y-99110452D01*
X109220000Y-99130526D01*
X109475070Y-99110452D01*
X109723860Y-99050722D01*
X109842051Y-99001765D01*
X109960239Y-98952811D01*
X109960240Y-98952810D01*
X109960243Y-98952809D01*
X110178399Y-98819123D01*
X110372956Y-98652956D01*
X110539123Y-98458399D01*
X110672809Y-98240243D01*
X110694770Y-98187226D01*
X110721765Y-98122051D01*
X110770722Y-98003860D01*
X110830452Y-97755070D01*
X110850526Y-97500000D01*
X110830452Y-97244930D01*
X110770722Y-96996140D01*
X110738646Y-96918702D01*
X110672811Y-96759760D01*
X110672809Y-96759757D01*
X110539124Y-96541603D01*
X110539121Y-96541598D01*
X110429124Y-96412809D01*
X110372956Y-96347044D01*
X110266591Y-96256200D01*
X110178401Y-96180878D01*
X110178396Y-96180875D01*
X109960242Y-96047190D01*
X109960239Y-96047188D01*
X109723864Y-95949279D01*
X109723860Y-95949278D01*
X109475070Y-95889548D01*
X109475067Y-95889547D01*
X109475064Y-95889547D01*
X109220000Y-95869474D01*
X108964935Y-95889547D01*
X108964931Y-95889547D01*
X108964930Y-95889548D01*
X108844759Y-95918399D01*
X108716135Y-95949279D01*
X108479760Y-96047188D01*
X108479757Y-96047190D01*
X108261603Y-96180875D01*
X108261598Y-96180878D01*
X108067044Y-96347044D01*
X107900878Y-96541598D01*
X107900875Y-96541603D01*
X107767190Y-96759757D01*
X107767188Y-96759760D01*
X107669279Y-96996135D01*
X107609547Y-97244935D01*
X107589474Y-97500000D01*
X87581513Y-97500000D01*
X87516946Y-97370333D01*
X87383930Y-97194191D01*
X87383928Y-97194188D01*
X87220813Y-97045491D01*
X87220812Y-97045490D01*
X87033149Y-96929293D01*
X87033148Y-96929292D01*
X86875989Y-96868409D01*
X86827329Y-96849558D01*
X86610362Y-96809000D01*
X86389638Y-96809000D01*
X86172671Y-96849558D01*
X86172668Y-96849558D01*
X86172668Y-96849559D01*
X85966851Y-96929292D01*
X85966850Y-96929293D01*
X85779186Y-97045491D01*
X85616071Y-97194188D01*
X85483054Y-97370332D01*
X85384669Y-97567914D01*
X85324263Y-97780221D01*
X85303898Y-97999999D01*
X85303898Y-98000000D01*
X82690999Y-98000000D01*
X82690999Y-97261628D01*
X82684591Y-97202017D01*
X82676101Y-97179255D01*
X82634297Y-97067171D01*
X82634293Y-97067164D01*
X82548047Y-96951955D01*
X82548044Y-96951952D01*
X82432835Y-96865706D01*
X82432828Y-96865702D01*
X82297982Y-96815408D01*
X82297983Y-96815408D01*
X82238383Y-96809001D01*
X82238381Y-96809000D01*
X82238373Y-96809000D01*
X82238364Y-96809000D01*
X80761629Y-96809000D01*
X80761623Y-96809001D01*
X80702016Y-96815408D01*
X80567171Y-96865702D01*
X80567164Y-96865706D01*
X80451955Y-96951952D01*
X80451952Y-96951955D01*
X80365706Y-97067164D01*
X80365702Y-97067171D01*
X80315408Y-97202017D01*
X80309001Y-97261616D01*
X80309001Y-97261623D01*
X80309000Y-97261635D01*
X80309000Y-98738370D01*
X69132302Y-98738370D01*
X69138000Y-98685373D01*
X69137999Y-97314628D01*
X69131591Y-97255017D01*
X69111823Y-97202017D01*
X69081297Y-97120171D01*
X69081293Y-97120164D01*
X68995047Y-97004955D01*
X68995044Y-97004952D01*
X68879835Y-96918706D01*
X68879828Y-96918702D01*
X68744982Y-96868408D01*
X68744983Y-96868408D01*
X68685383Y-96862001D01*
X68685381Y-96862000D01*
X68685373Y-96862000D01*
X68685364Y-96862000D01*
X67314629Y-96862000D01*
X67314623Y-96862001D01*
X67255016Y-96868408D01*
X67120171Y-96918702D01*
X67120164Y-96918706D01*
X67004955Y-97004952D01*
X67004952Y-97004955D01*
X66918706Y-97120164D01*
X66918702Y-97120171D01*
X66868408Y-97255017D01*
X66867697Y-97261635D01*
X66862001Y-97314623D01*
X66862000Y-97314635D01*
X66862000Y-98685370D01*
X55500500Y-98685370D01*
X55500500Y-84230002D01*
X87902723Y-84230002D01*
X87921793Y-84447975D01*
X87921793Y-84447979D01*
X87978422Y-84659322D01*
X87978424Y-84659326D01*
X87978425Y-84659330D01*
X87994795Y-84694435D01*
X88070897Y-84857638D01*
X88081206Y-84872361D01*
X88196402Y-85036877D01*
X88351123Y-85191598D01*
X88530361Y-85317102D01*
X88728670Y-85409575D01*
X88940023Y-85466207D01*
X89098117Y-85480038D01*
X89163186Y-85505490D01*
X89204165Y-85562081D01*
X89210838Y-85592759D01*
X89221793Y-85717975D01*
X89221793Y-85717979D01*
X89278422Y-85929322D01*
X89278424Y-85929326D01*
X89278425Y-85929330D01*
X89289442Y-85952955D01*
X89370897Y-86127638D01*
X89370898Y-86127639D01*
X89496402Y-86306877D01*
X89651123Y-86461598D01*
X89830361Y-86587102D01*
X90028670Y-86679575D01*
X90240023Y-86736207D01*
X90422926Y-86752208D01*
X90457998Y-86755277D01*
X90458000Y-86755277D01*
X90458002Y-86755277D01*
X90486254Y-86752805D01*
X90675977Y-86736207D01*
X90887330Y-86679575D01*
X91085639Y-86587102D01*
X91264877Y-86461598D01*
X91419598Y-86306877D01*
X91545102Y-86127639D01*
X91637575Y-85929330D01*
X91694207Y-85717977D01*
X91713277Y-85500000D01*
X91710320Y-85466206D01*
X91700112Y-85349522D01*
X91694207Y-85282023D01*
X91637575Y-85070670D01*
X91545102Y-84872362D01*
X91545100Y-84872359D01*
X91545099Y-84872357D01*
X91494434Y-84800000D01*
X107589474Y-84800000D01*
X107609547Y-85055064D01*
X107609547Y-85055067D01*
X107609548Y-85055070D01*
X107613295Y-85070677D01*
X107669279Y-85303864D01*
X107767188Y-85540239D01*
X107767190Y-85540242D01*
X107900875Y-85758396D01*
X107900878Y-85758401D01*
X107941160Y-85805565D01*
X108067044Y-85952956D01*
X108191579Y-86059319D01*
X108261598Y-86119121D01*
X108261600Y-86119122D01*
X108261601Y-86119123D01*
X108435664Y-86225789D01*
X108479757Y-86252809D01*
X108479760Y-86252811D01*
X108716135Y-86350720D01*
X108716140Y-86350722D01*
X108964930Y-86410452D01*
X109220000Y-86430526D01*
X109475070Y-86410452D01*
X109723860Y-86350722D01*
X109943957Y-86259555D01*
X109960239Y-86252811D01*
X109960240Y-86252810D01*
X109960243Y-86252809D01*
X110178399Y-86119123D01*
X110372956Y-85952956D01*
X110539123Y-85758399D01*
X110672809Y-85540243D01*
X110689478Y-85500002D01*
X110770720Y-85303864D01*
X110770722Y-85303860D01*
X110830452Y-85055070D01*
X110850526Y-84800000D01*
X110830452Y-84544930D01*
X110770722Y-84296140D01*
X110761639Y-84274211D01*
X110672811Y-84059760D01*
X110672809Y-84059757D01*
X110539124Y-83841603D01*
X110539121Y-83841598D01*
X110479319Y-83771579D01*
X110372956Y-83647044D01*
X110266591Y-83556200D01*
X110178401Y-83480878D01*
X110178396Y-83480875D01*
X109960242Y-83347190D01*
X109960239Y-83347188D01*
X109723864Y-83249279D01*
X109723860Y-83249278D01*
X109475070Y-83189548D01*
X109475067Y-83189547D01*
X109475064Y-83189547D01*
X109220000Y-83169474D01*
X108964935Y-83189547D01*
X108964931Y-83189547D01*
X108964930Y-83189548D01*
X108840535Y-83219413D01*
X108716135Y-83249279D01*
X108479760Y-83347188D01*
X108479757Y-83347190D01*
X108261603Y-83480875D01*
X108261598Y-83480878D01*
X108067044Y-83647044D01*
X107900878Y-83841598D01*
X107900875Y-83841603D01*
X107767190Y-84059757D01*
X107767188Y-84059760D01*
X107669279Y-84296135D01*
X107609547Y-84544935D01*
X107589474Y-84800000D01*
X91494434Y-84800000D01*
X91419599Y-84693124D01*
X91376953Y-84650478D01*
X91264877Y-84538402D01*
X91085639Y-84412898D01*
X91085640Y-84412898D01*
X91085638Y-84412897D01*
X90986484Y-84366661D01*
X90887330Y-84320425D01*
X90887326Y-84320424D01*
X90887322Y-84320422D01*
X90675977Y-84263793D01*
X90517881Y-84249961D01*
X90452813Y-84224508D01*
X90411834Y-84167917D01*
X90405162Y-84137244D01*
X90394207Y-84012023D01*
X90348543Y-83841603D01*
X90337577Y-83800677D01*
X90337576Y-83800676D01*
X90337575Y-83800670D01*
X90245102Y-83602362D01*
X90245100Y-83602359D01*
X90245099Y-83602357D01*
X90119599Y-83423124D01*
X90043663Y-83347188D01*
X89964877Y-83268402D01*
X89785639Y-83142898D01*
X89785640Y-83142898D01*
X89785638Y-83142897D01*
X89686484Y-83096661D01*
X89587330Y-83050425D01*
X89587326Y-83050424D01*
X89587322Y-83050422D01*
X89375977Y-82993793D01*
X89158002Y-82974723D01*
X89157998Y-82974723D01*
X89012682Y-82987436D01*
X88940023Y-82993793D01*
X88940020Y-82993793D01*
X88728677Y-83050422D01*
X88728668Y-83050426D01*
X88530361Y-83142898D01*
X88530357Y-83142900D01*
X88351121Y-83268402D01*
X88196402Y-83423121D01*
X88070900Y-83602357D01*
X88070898Y-83602361D01*
X87978426Y-83800668D01*
X87978422Y-83800677D01*
X87921793Y-84012020D01*
X87921793Y-84012024D01*
X87902723Y-84229997D01*
X87902723Y-84230002D01*
X55500500Y-84230002D01*
X55500500Y-74000003D01*
X88194435Y-74000003D01*
X88214630Y-74179249D01*
X88214631Y-74179254D01*
X88274211Y-74349523D01*
X88310154Y-74406725D01*
X88370184Y-74502262D01*
X88497738Y-74629816D01*
X88650478Y-74725789D01*
X88820745Y-74785368D01*
X88820750Y-74785369D01*
X88999996Y-74805565D01*
X89000000Y-74805565D01*
X89000004Y-74805565D01*
X89179249Y-74785369D01*
X89179252Y-74785368D01*
X89179255Y-74785368D01*
X89349522Y-74725789D01*
X89502262Y-74629816D01*
X89629816Y-74502262D01*
X89725789Y-74349522D01*
X89785368Y-74179255D01*
X89785369Y-74179249D01*
X89805565Y-74000003D01*
X89805565Y-73999996D01*
X89785369Y-73820750D01*
X89785368Y-73820745D01*
X89725788Y-73650476D01*
X89643606Y-73519685D01*
X89629816Y-73497738D01*
X89629814Y-73497736D01*
X89629813Y-73497734D01*
X89627550Y-73494896D01*
X89626659Y-73492715D01*
X89626111Y-73491842D01*
X89626264Y-73491745D01*
X89601144Y-73430209D01*
X89600500Y-73417587D01*
X89600500Y-61082412D01*
X89620185Y-61015373D01*
X89627555Y-61005097D01*
X89629810Y-61002267D01*
X89629816Y-61002262D01*
X89725789Y-60849522D01*
X89785368Y-60679255D01*
X89805565Y-60500000D01*
X89796812Y-60422316D01*
X89785369Y-60320750D01*
X89785368Y-60320745D01*
X89725788Y-60150476D01*
X89629815Y-59997737D01*
X89502262Y-59870184D01*
X89349523Y-59774211D01*
X89179254Y-59714631D01*
X89179249Y-59714630D01*
X89000004Y-59694435D01*
X88999996Y-59694435D01*
X88820750Y-59714630D01*
X88820745Y-59714631D01*
X88650476Y-59774211D01*
X88497737Y-59870184D01*
X88370184Y-59997737D01*
X88274211Y-60150476D01*
X88214631Y-60320745D01*
X88214630Y-60320750D01*
X88194435Y-60499996D01*
X88194435Y-60500003D01*
X88214630Y-60679249D01*
X88214631Y-60679254D01*
X88274211Y-60849523D01*
X88323215Y-60927511D01*
X88351584Y-60972661D01*
X88370185Y-61002263D01*
X88372445Y-61005097D01*
X88373334Y-61007275D01*
X88373889Y-61008158D01*
X88373734Y-61008255D01*
X88398855Y-61069783D01*
X88399500Y-61082412D01*
X88399500Y-73417587D01*
X88379815Y-73484626D01*
X88372450Y-73494896D01*
X88370186Y-73497734D01*
X88274211Y-73650476D01*
X88214631Y-73820745D01*
X88214630Y-73820750D01*
X88194435Y-73999996D01*
X88194435Y-74000003D01*
X55500500Y-74000003D01*
X55500500Y-69500000D01*
X57694422Y-69500000D01*
X57714722Y-69887339D01*
X57752060Y-70123083D01*
X57775398Y-70270433D01*
X57839015Y-70507857D01*
X57875788Y-70645094D01*
X58014787Y-71007197D01*
X58190877Y-71352793D01*
X58402122Y-71678082D01*
X58402124Y-71678084D01*
X58646219Y-71979516D01*
X58920484Y-72253781D01*
X58920488Y-72253784D01*
X59221917Y-72497877D01*
X59456936Y-72650500D01*
X59547211Y-72709125D01*
X59892806Y-72885214D01*
X60254913Y-73024214D01*
X60629567Y-73124602D01*
X61012662Y-73185278D01*
X61378576Y-73204455D01*
X61399999Y-73205578D01*
X61400000Y-73205578D01*
X61400001Y-73205578D01*
X61420301Y-73204514D01*
X61787338Y-73185278D01*
X62170433Y-73124602D01*
X62545087Y-73024214D01*
X62907194Y-72885214D01*
X63252789Y-72709125D01*
X63578084Y-72497876D01*
X63879516Y-72253781D01*
X64153781Y-71979516D01*
X64397876Y-71678084D01*
X64609125Y-71352789D01*
X64785214Y-71007194D01*
X64924214Y-70645087D01*
X65024602Y-70270433D01*
X65085278Y-69887338D01*
X65105578Y-69500005D01*
X81144556Y-69500005D01*
X81164310Y-69814004D01*
X81164311Y-69814011D01*
X81223270Y-70123083D01*
X81320497Y-70422316D01*
X81320499Y-70422321D01*
X81454461Y-70707003D01*
X81454464Y-70707009D01*
X81623051Y-70972661D01*
X81623054Y-70972665D01*
X81823606Y-71215090D01*
X81823608Y-71215092D01*
X81823610Y-71215094D01*
X81939971Y-71324364D01*
X82052968Y-71430476D01*
X82052978Y-71430484D01*
X82307504Y-71615408D01*
X82307509Y-71615410D01*
X82307516Y-71615416D01*
X82583234Y-71766994D01*
X82583239Y-71766996D01*
X82583241Y-71766997D01*
X82583242Y-71766998D01*
X82875771Y-71882818D01*
X82875774Y-71882819D01*
X83180523Y-71961065D01*
X83180527Y-71961066D01*
X83246010Y-71969338D01*
X83492670Y-72000499D01*
X83492679Y-72000499D01*
X83492682Y-72000500D01*
X83492684Y-72000500D01*
X83807316Y-72000500D01*
X83807318Y-72000500D01*
X83807321Y-72000499D01*
X83807329Y-72000499D01*
X83993593Y-71976968D01*
X84119473Y-71961066D01*
X84424225Y-71882819D01*
X84424228Y-71882818D01*
X84716757Y-71766998D01*
X84716758Y-71766997D01*
X84716756Y-71766997D01*
X84716766Y-71766994D01*
X84992484Y-71615416D01*
X85247030Y-71430478D01*
X85476390Y-71215094D01*
X85676947Y-70972663D01*
X85845537Y-70707007D01*
X85979503Y-70422315D01*
X86076731Y-70123079D01*
X86135688Y-69814015D01*
X86136560Y-69800155D01*
X86155444Y-69500005D01*
X86155444Y-69499994D01*
X86135689Y-69185995D01*
X86135688Y-69185988D01*
X86135688Y-69185985D01*
X86076731Y-68876921D01*
X85979503Y-68577685D01*
X85845537Y-68292993D01*
X85676947Y-68027337D01*
X85676945Y-68027334D01*
X85476393Y-67784909D01*
X85476391Y-67784907D01*
X85247031Y-67569523D01*
X85247021Y-67569515D01*
X84992495Y-67384591D01*
X84992488Y-67384586D01*
X84992484Y-67384584D01*
X84716766Y-67233006D01*
X84716763Y-67233004D01*
X84716758Y-67233002D01*
X84716757Y-67233001D01*
X84424228Y-67117181D01*
X84424225Y-67117180D01*
X84119476Y-67038934D01*
X84119463Y-67038932D01*
X83807329Y-66999500D01*
X83807318Y-66999500D01*
X83492682Y-66999500D01*
X83492670Y-66999500D01*
X83180536Y-67038932D01*
X83180523Y-67038934D01*
X82875774Y-67117180D01*
X82875771Y-67117181D01*
X82583242Y-67233001D01*
X82583241Y-67233002D01*
X82307516Y-67384584D01*
X82307504Y-67384591D01*
X82052978Y-67569515D01*
X82052968Y-67569523D01*
X81823608Y-67784907D01*
X81823606Y-67784909D01*
X81623054Y-68027334D01*
X81623051Y-68027338D01*
X81454464Y-68292990D01*
X81454461Y-68292996D01*
X81320499Y-68577678D01*
X81320497Y-68577683D01*
X81223270Y-68876916D01*
X81164311Y-69185988D01*
X81164310Y-69185995D01*
X81144556Y-69499994D01*
X81144556Y-69500005D01*
X65105578Y-69500005D01*
X65105578Y-69500000D01*
X65085278Y-69112662D01*
X65024602Y-68729567D01*
X64924214Y-68354913D01*
X64785214Y-67992806D01*
X64609125Y-67647211D01*
X64609122Y-67647206D01*
X64397877Y-67321917D01*
X64287303Y-67185370D01*
X72362000Y-67185370D01*
X72362001Y-67185376D01*
X72368408Y-67244983D01*
X72418702Y-67379828D01*
X72418706Y-67379835D01*
X72504952Y-67495044D01*
X72504955Y-67495047D01*
X72620164Y-67581293D01*
X72620171Y-67581297D01*
X72755017Y-67631591D01*
X72755016Y-67631591D01*
X72761944Y-67632335D01*
X72814627Y-67638000D01*
X74185372Y-67637999D01*
X74244983Y-67631591D01*
X74379831Y-67581296D01*
X74495046Y-67495046D01*
X74581296Y-67379831D01*
X74631591Y-67244983D01*
X74638000Y-67185373D01*
X74637999Y-65814628D01*
X74631591Y-65755017D01*
X74613684Y-65707007D01*
X74581297Y-65620171D01*
X74581293Y-65620164D01*
X74495047Y-65504955D01*
X74495044Y-65504952D01*
X74379835Y-65418706D01*
X74379828Y-65418702D01*
X74244982Y-65368408D01*
X74244983Y-65368408D01*
X74185383Y-65362001D01*
X74185381Y-65362000D01*
X74185373Y-65362000D01*
X74185364Y-65362000D01*
X72814629Y-65362000D01*
X72814623Y-65362001D01*
X72755016Y-65368408D01*
X72620171Y-65418702D01*
X72620164Y-65418706D01*
X72504955Y-65504952D01*
X72504952Y-65504955D01*
X72418706Y-65620164D01*
X72418702Y-65620171D01*
X72368408Y-65755017D01*
X72364172Y-65794422D01*
X72362001Y-65814623D01*
X72362000Y-65814635D01*
X72362000Y-67185370D01*
X64287303Y-67185370D01*
X64232084Y-67117180D01*
X64153781Y-67020484D01*
X63879516Y-66746219D01*
X63578084Y-66502124D01*
X63578082Y-66502122D01*
X63252793Y-66290877D01*
X62907197Y-66114787D01*
X62545094Y-65975788D01*
X62545087Y-65975786D01*
X62170433Y-65875398D01*
X62170429Y-65875397D01*
X62170428Y-65875397D01*
X61787339Y-65814722D01*
X61400001Y-65794422D01*
X61399999Y-65794422D01*
X61012660Y-65814722D01*
X60629572Y-65875397D01*
X60629570Y-65875397D01*
X60254905Y-65975788D01*
X59892802Y-66114787D01*
X59547206Y-66290877D01*
X59221917Y-66502122D01*
X58920488Y-66746215D01*
X58920480Y-66746222D01*
X58646222Y-67020480D01*
X58646215Y-67020488D01*
X58402122Y-67321917D01*
X58190877Y-67647206D01*
X58014787Y-67992802D01*
X57875788Y-68354905D01*
X57775397Y-68729570D01*
X57775397Y-68729572D01*
X57714722Y-69112660D01*
X57694422Y-69499999D01*
X57694422Y-69500000D01*
X55500500Y-69500000D01*
X55500500Y-59500005D01*
X81144556Y-59500005D01*
X81164310Y-59814004D01*
X81164311Y-59814011D01*
X81223270Y-60123083D01*
X81320497Y-60422316D01*
X81320499Y-60422321D01*
X81454461Y-60707003D01*
X81454464Y-60707009D01*
X81623051Y-60972661D01*
X81623054Y-60972665D01*
X81823606Y-61215090D01*
X81823608Y-61215092D01*
X81823610Y-61215094D01*
X81939971Y-61324364D01*
X82052968Y-61430476D01*
X82052978Y-61430484D01*
X82307504Y-61615408D01*
X82307509Y-61615410D01*
X82307516Y-61615416D01*
X82583234Y-61766994D01*
X82583239Y-61766996D01*
X82583241Y-61766997D01*
X82583242Y-61766998D01*
X82875771Y-61882818D01*
X82875774Y-61882819D01*
X83069928Y-61932669D01*
X83180527Y-61961066D01*
X83246010Y-61969338D01*
X83492670Y-62000499D01*
X83492679Y-62000499D01*
X83492682Y-62000500D01*
X83492684Y-62000500D01*
X83807316Y-62000500D01*
X83807318Y-62000500D01*
X83807321Y-62000499D01*
X83807329Y-62000499D01*
X83993593Y-61976968D01*
X84119473Y-61961066D01*
X84424225Y-61882819D01*
X84424228Y-61882818D01*
X84716757Y-61766998D01*
X84716758Y-61766997D01*
X84716756Y-61766997D01*
X84716766Y-61766994D01*
X84992484Y-61615416D01*
X85247030Y-61430478D01*
X85476390Y-61215094D01*
X85676947Y-60972663D01*
X85845537Y-60707007D01*
X85979503Y-60422315D01*
X86076731Y-60123079D01*
X86135688Y-59814015D01*
X86135689Y-59814004D01*
X86155444Y-59500005D01*
X86155444Y-59499994D01*
X86135689Y-59185995D01*
X86135688Y-59185988D01*
X86135688Y-59185985D01*
X86076731Y-58876921D01*
X85979503Y-58577685D01*
X85845537Y-58292993D01*
X85676947Y-58027337D01*
X85652071Y-57997267D01*
X85476393Y-57784909D01*
X85476391Y-57784907D01*
X85360029Y-57675635D01*
X85247030Y-57569522D01*
X85247027Y-57569520D01*
X85247021Y-57569515D01*
X84992495Y-57384591D01*
X84992488Y-57384586D01*
X84992484Y-57384584D01*
X84716766Y-57233006D01*
X84716763Y-57233004D01*
X84716758Y-57233002D01*
X84716757Y-57233001D01*
X84424228Y-57117181D01*
X84424225Y-57117180D01*
X84119476Y-57038934D01*
X84119463Y-57038932D01*
X83807329Y-56999500D01*
X83807318Y-56999500D01*
X83492682Y-56999500D01*
X83492670Y-56999500D01*
X83180536Y-57038932D01*
X83180523Y-57038934D01*
X82875774Y-57117180D01*
X82875771Y-57117181D01*
X82583242Y-57233001D01*
X82583241Y-57233002D01*
X82307516Y-57384584D01*
X82307504Y-57384591D01*
X82052978Y-57569515D01*
X82052968Y-57569523D01*
X81823608Y-57784907D01*
X81823606Y-57784909D01*
X81623054Y-58027334D01*
X81623051Y-58027338D01*
X81454464Y-58292990D01*
X81454461Y-58292996D01*
X81320499Y-58577678D01*
X81320497Y-58577683D01*
X81223270Y-58876916D01*
X81164311Y-59185988D01*
X81164310Y-59185995D01*
X81144556Y-59499994D01*
X81144556Y-59500005D01*
X55500500Y-59500005D01*
X55500500Y-51310000D01*
X82194417Y-51310000D01*
X82214699Y-51515932D01*
X82214700Y-51515934D01*
X82274768Y-51713954D01*
X82372315Y-51896450D01*
X82372317Y-51896452D01*
X82503589Y-52056410D01*
X82600209Y-52135702D01*
X82663550Y-52187685D01*
X82846046Y-52285232D01*
X83044066Y-52345300D01*
X83044065Y-52345300D01*
X83062529Y-52347118D01*
X83250000Y-52365583D01*
X83455934Y-52345300D01*
X83653954Y-52285232D01*
X83836450Y-52187685D01*
X83996410Y-52056410D01*
X84127685Y-51896450D01*
X84225232Y-51713954D01*
X84244630Y-51650005D01*
X114544457Y-51650005D01*
X114564606Y-51970283D01*
X114564607Y-51970290D01*
X114624745Y-52285542D01*
X114723916Y-52590759D01*
X114723918Y-52590764D01*
X114860558Y-52881138D01*
X114860562Y-52881144D01*
X115032520Y-53152108D01*
X115032522Y-53152111D01*
X115237087Y-53399388D01*
X115471034Y-53619078D01*
X115471044Y-53619086D01*
X115730660Y-53807708D01*
X115730666Y-53807711D01*
X115730672Y-53807716D01*
X116011903Y-53962324D01*
X116310294Y-54080466D01*
X116310293Y-54080466D01*
X116621135Y-54160276D01*
X116621139Y-54160277D01*
X116687935Y-54168715D01*
X116939524Y-54200499D01*
X116939533Y-54200499D01*
X116939536Y-54200500D01*
X116939538Y-54200500D01*
X117260462Y-54200500D01*
X117260464Y-54200500D01*
X117260467Y-54200499D01*
X117260475Y-54200499D01*
X117450463Y-54176497D01*
X117578861Y-54160277D01*
X117889706Y-54080466D01*
X118188097Y-53962324D01*
X118469328Y-53807716D01*
X118728964Y-53619080D01*
X118962911Y-53399390D01*
X119167478Y-53152110D01*
X119339439Y-52881142D01*
X119476084Y-52590758D01*
X119575256Y-52285538D01*
X119635392Y-51970294D01*
X119640038Y-51896450D01*
X119655543Y-51650005D01*
X135544457Y-51650005D01*
X135564606Y-51970283D01*
X135564607Y-51970290D01*
X135624745Y-52285542D01*
X135723916Y-52590759D01*
X135723918Y-52590764D01*
X135860558Y-52881138D01*
X135860562Y-52881144D01*
X136032520Y-53152108D01*
X136032522Y-53152111D01*
X136237087Y-53399388D01*
X136471034Y-53619078D01*
X136471044Y-53619086D01*
X136730660Y-53807708D01*
X136730666Y-53807711D01*
X136730672Y-53807716D01*
X137011903Y-53962324D01*
X137310294Y-54080466D01*
X137310293Y-54080466D01*
X137621135Y-54160276D01*
X137621139Y-54160277D01*
X137687935Y-54168715D01*
X137939524Y-54200499D01*
X137939533Y-54200499D01*
X137939536Y-54200500D01*
X137939538Y-54200500D01*
X138260462Y-54200500D01*
X138260464Y-54200500D01*
X138260467Y-54200499D01*
X138260475Y-54200499D01*
X138450463Y-54176497D01*
X138578861Y-54160277D01*
X138889706Y-54080466D01*
X139188097Y-53962324D01*
X139469328Y-53807716D01*
X139728964Y-53619080D01*
X139962911Y-53399390D01*
X140167478Y-53152110D01*
X140339439Y-52881142D01*
X140476084Y-52590758D01*
X140575256Y-52285538D01*
X140635392Y-51970294D01*
X140640038Y-51896450D01*
X140655543Y-51650005D01*
X140655543Y-51649994D01*
X140635393Y-51329716D01*
X140635392Y-51329709D01*
X140635392Y-51329706D01*
X140575256Y-51014462D01*
X140476084Y-50709242D01*
X140407545Y-50563589D01*
X140339441Y-50418861D01*
X140339437Y-50418855D01*
X140167479Y-50147891D01*
X140167477Y-50147888D01*
X139962912Y-49900611D01*
X139728965Y-49680921D01*
X139728955Y-49680913D01*
X139469339Y-49492291D01*
X139469321Y-49492280D01*
X139188096Y-49337675D01*
X139188093Y-49337674D01*
X138889703Y-49219533D01*
X138889706Y-49219533D01*
X138578864Y-49139723D01*
X138578851Y-49139721D01*
X138260475Y-49099500D01*
X138260464Y-49099500D01*
X137939536Y-49099500D01*
X137939524Y-49099500D01*
X137621148Y-49139721D01*
X137621135Y-49139723D01*
X137310294Y-49219533D01*
X137011906Y-49337674D01*
X137011903Y-49337675D01*
X136730678Y-49492280D01*
X136730660Y-49492291D01*
X136471044Y-49680913D01*
X136471034Y-49680921D01*
X136237087Y-49900611D01*
X136032522Y-50147888D01*
X136032520Y-50147891D01*
X135860562Y-50418855D01*
X135860558Y-50418861D01*
X135723918Y-50709235D01*
X135723916Y-50709240D01*
X135624745Y-51014457D01*
X135564607Y-51329709D01*
X135564606Y-51329716D01*
X135544457Y-51649994D01*
X135544457Y-51650005D01*
X119655543Y-51650005D01*
X119655543Y-51649994D01*
X119635393Y-51329716D01*
X119635392Y-51329709D01*
X119635392Y-51329706D01*
X119575256Y-51014462D01*
X119476084Y-50709242D01*
X119407545Y-50563589D01*
X119339441Y-50418861D01*
X119339437Y-50418855D01*
X119167479Y-50147891D01*
X119167477Y-50147888D01*
X118962912Y-49900611D01*
X118728965Y-49680921D01*
X118728955Y-49680913D01*
X118469339Y-49492291D01*
X118469321Y-49492280D01*
X118188096Y-49337675D01*
X118188093Y-49337674D01*
X117889703Y-49219533D01*
X117889706Y-49219533D01*
X117578864Y-49139723D01*
X117578851Y-49139721D01*
X117260475Y-49099500D01*
X117260464Y-49099500D01*
X116939536Y-49099500D01*
X116939524Y-49099500D01*
X116621148Y-49139721D01*
X116621135Y-49139723D01*
X116310294Y-49219533D01*
X116011906Y-49337674D01*
X116011903Y-49337675D01*
X115730678Y-49492280D01*
X115730660Y-49492291D01*
X115471044Y-49680913D01*
X115471034Y-49680921D01*
X115237087Y-49900611D01*
X115032522Y-50147888D01*
X115032520Y-50147891D01*
X114860562Y-50418855D01*
X114860558Y-50418861D01*
X114723918Y-50709235D01*
X114723916Y-50709240D01*
X114624745Y-51014457D01*
X114564607Y-51329709D01*
X114564606Y-51329716D01*
X114544457Y-51649994D01*
X114544457Y-51650005D01*
X84244630Y-51650005D01*
X84285300Y-51515934D01*
X84305583Y-51310000D01*
X84285300Y-51104066D01*
X84225232Y-50906046D01*
X84127685Y-50723550D01*
X84075702Y-50660209D01*
X83996410Y-50563589D01*
X83836452Y-50432317D01*
X83836453Y-50432317D01*
X83836450Y-50432315D01*
X83653954Y-50334768D01*
X83455934Y-50274700D01*
X83455932Y-50274699D01*
X83455934Y-50274699D01*
X83250000Y-50254417D01*
X83044067Y-50274699D01*
X82846043Y-50334769D01*
X82735898Y-50393643D01*
X82663550Y-50432315D01*
X82663548Y-50432316D01*
X82663547Y-50432317D01*
X82503589Y-50563589D01*
X82372317Y-50723547D01*
X82274769Y-50906043D01*
X82214699Y-51104067D01*
X82194417Y-51310000D01*
X55500500Y-51310000D01*
X55500500Y-47500000D01*
X82194417Y-47500000D01*
X82214699Y-47705932D01*
X82214700Y-47705934D01*
X82274768Y-47903954D01*
X82372315Y-48086450D01*
X82372317Y-48086452D01*
X82503589Y-48246410D01*
X82600209Y-48325702D01*
X82663550Y-48377685D01*
X82846046Y-48475232D01*
X83044066Y-48535300D01*
X83044065Y-48535300D01*
X83062529Y-48537118D01*
X83250000Y-48555583D01*
X83455934Y-48535300D01*
X83653954Y-48475232D01*
X83836450Y-48377685D01*
X83996410Y-48246410D01*
X84127685Y-48086450D01*
X84225232Y-47903954D01*
X84285300Y-47705934D01*
X84305583Y-47500000D01*
X84285300Y-47294066D01*
X84225232Y-47096046D01*
X84127685Y-46913550D01*
X84075702Y-46850209D01*
X83996410Y-46753589D01*
X83928515Y-46697870D01*
X105799500Y-46697870D01*
X105799501Y-46697876D01*
X105805908Y-46757483D01*
X105856202Y-46892328D01*
X105856206Y-46892335D01*
X105942452Y-47007544D01*
X105942455Y-47007547D01*
X106057664Y-47093793D01*
X106057671Y-47093797D01*
X106192517Y-47144091D01*
X106192516Y-47144091D01*
X106199444Y-47144835D01*
X106252127Y-47150500D01*
X107247872Y-47150499D01*
X107307483Y-47144091D01*
X107442331Y-47093796D01*
X107557546Y-47007546D01*
X107643796Y-46892331D01*
X107694091Y-46757483D01*
X107700500Y-46697873D01*
X107700500Y-46697870D01*
X119299500Y-46697870D01*
X119299501Y-46697876D01*
X119305908Y-46757483D01*
X119356202Y-46892328D01*
X119356206Y-46892335D01*
X119442452Y-47007544D01*
X119442455Y-47007547D01*
X119557664Y-47093793D01*
X119557671Y-47093797D01*
X119692517Y-47144091D01*
X119692516Y-47144091D01*
X119699444Y-47144835D01*
X119752127Y-47150500D01*
X120747872Y-47150499D01*
X120807483Y-47144091D01*
X120942331Y-47093796D01*
X121057546Y-47007546D01*
X121143796Y-46892331D01*
X121194091Y-46757483D01*
X121200500Y-46697873D01*
X121200500Y-46697870D01*
X126799500Y-46697870D01*
X126799501Y-46697876D01*
X126805908Y-46757483D01*
X126856202Y-46892328D01*
X126856206Y-46892335D01*
X126942452Y-47007544D01*
X126942455Y-47007547D01*
X127057664Y-47093793D01*
X127057671Y-47093797D01*
X127192517Y-47144091D01*
X127192516Y-47144091D01*
X127199444Y-47144835D01*
X127252127Y-47150500D01*
X128247872Y-47150499D01*
X128307483Y-47144091D01*
X128442331Y-47093796D01*
X128557546Y-47007546D01*
X128643796Y-46892331D01*
X128694091Y-46757483D01*
X128700500Y-46697873D01*
X128700500Y-46697870D01*
X140299500Y-46697870D01*
X140299501Y-46697876D01*
X140305908Y-46757483D01*
X140356202Y-46892328D01*
X140356206Y-46892335D01*
X140442452Y-47007544D01*
X140442455Y-47007547D01*
X140557664Y-47093793D01*
X140557671Y-47093797D01*
X140692517Y-47144091D01*
X140692516Y-47144091D01*
X140699444Y-47144835D01*
X140752127Y-47150500D01*
X141747872Y-47150499D01*
X141807483Y-47144091D01*
X141942331Y-47093796D01*
X142057546Y-47007546D01*
X142143796Y-46892331D01*
X142194091Y-46757483D01*
X142200500Y-46697873D01*
X142200499Y-44602128D01*
X142194091Y-44542517D01*
X142143796Y-44407669D01*
X142143795Y-44407668D01*
X142143793Y-44407664D01*
X142057547Y-44292455D01*
X142057544Y-44292452D01*
X141942335Y-44206206D01*
X141942328Y-44206202D01*
X141807482Y-44155908D01*
X141807483Y-44155908D01*
X141747883Y-44149501D01*
X141747881Y-44149500D01*
X141747873Y-44149500D01*
X141747864Y-44149500D01*
X140752129Y-44149500D01*
X140752123Y-44149501D01*
X140692516Y-44155908D01*
X140557671Y-44206202D01*
X140557664Y-44206206D01*
X140442455Y-44292452D01*
X140442452Y-44292455D01*
X140356206Y-44407664D01*
X140356202Y-44407671D01*
X140305908Y-44542517D01*
X140299501Y-44602116D01*
X140299501Y-44602123D01*
X140299500Y-44602135D01*
X140299500Y-46697870D01*
X128700500Y-46697870D01*
X128700499Y-44602128D01*
X128694091Y-44542517D01*
X128643796Y-44407669D01*
X128643795Y-44407668D01*
X128643793Y-44407664D01*
X128557547Y-44292455D01*
X128557544Y-44292452D01*
X128442335Y-44206206D01*
X128442328Y-44206202D01*
X128307482Y-44155908D01*
X128307483Y-44155908D01*
X128247883Y-44149501D01*
X128247881Y-44149500D01*
X128247873Y-44149500D01*
X128247864Y-44149500D01*
X127252129Y-44149500D01*
X127252123Y-44149501D01*
X127192516Y-44155908D01*
X127057671Y-44206202D01*
X127057664Y-44206206D01*
X126942455Y-44292452D01*
X126942452Y-44292455D01*
X126856206Y-44407664D01*
X126856202Y-44407671D01*
X126805908Y-44542517D01*
X126799501Y-44602116D01*
X126799501Y-44602123D01*
X126799500Y-44602135D01*
X126799500Y-46697870D01*
X121200500Y-46697870D01*
X121200499Y-44602128D01*
X121194091Y-44542517D01*
X121143796Y-44407669D01*
X121143795Y-44407668D01*
X121143793Y-44407664D01*
X121057547Y-44292455D01*
X121057544Y-44292452D01*
X120942335Y-44206206D01*
X120942328Y-44206202D01*
X120807482Y-44155908D01*
X120807483Y-44155908D01*
X120747883Y-44149501D01*
X120747881Y-44149500D01*
X120747873Y-44149500D01*
X120747864Y-44149500D01*
X119752129Y-44149500D01*
X119752123Y-44149501D01*
X119692516Y-44155908D01*
X119557671Y-44206202D01*
X119557664Y-44206206D01*
X119442455Y-44292452D01*
X119442452Y-44292455D01*
X119356206Y-44407664D01*
X119356202Y-44407671D01*
X119305908Y-44542517D01*
X119299501Y-44602116D01*
X119299501Y-44602123D01*
X119299500Y-44602135D01*
X119299500Y-46697870D01*
X107700500Y-46697870D01*
X107700499Y-44602128D01*
X107694091Y-44542517D01*
X107643796Y-44407669D01*
X107643795Y-44407668D01*
X107643793Y-44407664D01*
X107557547Y-44292455D01*
X107557544Y-44292452D01*
X107442335Y-44206206D01*
X107442328Y-44206202D01*
X107307482Y-44155908D01*
X107307483Y-44155908D01*
X107247883Y-44149501D01*
X107247881Y-44149500D01*
X107247873Y-44149500D01*
X107247864Y-44149500D01*
X106252129Y-44149500D01*
X106252123Y-44149501D01*
X106192516Y-44155908D01*
X106057671Y-44206202D01*
X106057664Y-44206206D01*
X105942455Y-44292452D01*
X105942452Y-44292455D01*
X105856206Y-44407664D01*
X105856202Y-44407671D01*
X105805908Y-44542517D01*
X105799501Y-44602116D01*
X105799501Y-44602123D01*
X105799500Y-44602135D01*
X105799500Y-46697870D01*
X83928515Y-46697870D01*
X83836452Y-46622317D01*
X83836453Y-46622317D01*
X83836450Y-46622315D01*
X83653954Y-46524768D01*
X83455934Y-46464700D01*
X83455932Y-46464699D01*
X83455934Y-46464699D01*
X83250000Y-46444417D01*
X83044067Y-46464699D01*
X82846043Y-46524769D01*
X82735898Y-46583643D01*
X82663550Y-46622315D01*
X82663548Y-46622316D01*
X82663547Y-46622317D01*
X82503589Y-46753589D01*
X82372317Y-46913547D01*
X82274769Y-47096043D01*
X82214699Y-47294067D01*
X82194417Y-47500000D01*
X55500500Y-47500000D01*
X55500500Y-44124000D01*
X55520185Y-44056961D01*
X55572989Y-44011206D01*
X55624500Y-44000000D01*
X64040671Y-44000000D01*
X64022973Y-40083771D01*
X89799500Y-40083771D01*
X89832182Y-40248074D01*
X89832184Y-40248082D01*
X89896295Y-40402860D01*
X89989373Y-40542162D01*
X90107837Y-40660626D01*
X90200494Y-40722537D01*
X90247137Y-40753703D01*
X90401918Y-40817816D01*
X90566228Y-40850499D01*
X90566232Y-40850500D01*
X90566233Y-40850500D01*
X90733768Y-40850500D01*
X90733769Y-40850499D01*
X90898082Y-40817816D01*
X91052863Y-40753703D01*
X91192162Y-40660626D01*
X91310626Y-40542162D01*
X91403703Y-40402863D01*
X91467816Y-40248082D01*
X91500500Y-40083767D01*
X91500500Y-39916233D01*
X91467816Y-39751918D01*
X91432729Y-39667213D01*
X91425261Y-39597745D01*
X91456536Y-39535265D01*
X91516625Y-39499613D01*
X91559891Y-39496403D01*
X91599991Y-39500500D01*
X92900008Y-39500499D01*
X92908682Y-39499613D01*
X92940105Y-39496403D01*
X93002797Y-39489999D01*
X93169334Y-39434814D01*
X93318656Y-39342712D01*
X93442712Y-39218656D01*
X93534814Y-39069334D01*
X93534814Y-39069331D01*
X93538178Y-39063879D01*
X93590126Y-39017154D01*
X93659088Y-39005931D01*
X93723170Y-39033774D01*
X93731398Y-39041294D01*
X93870213Y-39180109D01*
X94042179Y-39305048D01*
X94042181Y-39305049D01*
X94042184Y-39305051D01*
X94231588Y-39401557D01*
X94433757Y-39467246D01*
X94643713Y-39500500D01*
X94643714Y-39500500D01*
X94856286Y-39500500D01*
X94856287Y-39500500D01*
X95066243Y-39467246D01*
X95268412Y-39401557D01*
X95457816Y-39305051D01*
X95538685Y-39246297D01*
X95629786Y-39180109D01*
X95629788Y-39180106D01*
X95629792Y-39180104D01*
X95780104Y-39029792D01*
X95780106Y-39029788D01*
X95780109Y-39029786D01*
X95905048Y-38857820D01*
X95905047Y-38857820D01*
X95905051Y-38857816D01*
X96001557Y-38668412D01*
X96067246Y-38466243D01*
X96100500Y-38256287D01*
X96100500Y-37743713D01*
X96067246Y-37533757D01*
X96001557Y-37331588D01*
X95905051Y-37142184D01*
X95905049Y-37142181D01*
X95905048Y-37142179D01*
X95780109Y-36970213D01*
X95629786Y-36819890D01*
X95457820Y-36694951D01*
X95268414Y-36598444D01*
X95268413Y-36598443D01*
X95268412Y-36598443D01*
X95066243Y-36532754D01*
X95066241Y-36532753D01*
X95066240Y-36532753D01*
X94904957Y-36507208D01*
X94856287Y-36499500D01*
X94643713Y-36499500D01*
X94595042Y-36507208D01*
X94433760Y-36532753D01*
X94231585Y-36598444D01*
X94042179Y-36694951D01*
X93870215Y-36819889D01*
X93731398Y-36958706D01*
X93670075Y-36992190D01*
X93600383Y-36987206D01*
X93544450Y-36945334D01*
X93538178Y-36936120D01*
X93442712Y-36781344D01*
X93318657Y-36657289D01*
X93318656Y-36657288D01*
X93169334Y-36565186D01*
X93002797Y-36510001D01*
X93002795Y-36510000D01*
X92900010Y-36499500D01*
X91599998Y-36499500D01*
X91599981Y-36499501D01*
X91497203Y-36510000D01*
X91497200Y-36510001D01*
X91330668Y-36565185D01*
X91330663Y-36565187D01*
X91181342Y-36657289D01*
X91057289Y-36781342D01*
X90965187Y-36930663D01*
X90965185Y-36930668D01*
X90960325Y-36945334D01*
X90910001Y-37097203D01*
X90910001Y-37097204D01*
X90910000Y-37097204D01*
X90899500Y-37199983D01*
X90899500Y-38800001D01*
X90899501Y-38800018D01*
X90910000Y-38902796D01*
X90910001Y-38902799D01*
X90942961Y-39002264D01*
X90945363Y-39072092D01*
X90909631Y-39132134D01*
X90847111Y-39163327D01*
X90801065Y-39162886D01*
X90761286Y-39154973D01*
X90733767Y-39149500D01*
X90566233Y-39149500D01*
X90566228Y-39149500D01*
X90401925Y-39182182D01*
X90401917Y-39182184D01*
X90247139Y-39246295D01*
X90107837Y-39339373D01*
X89989373Y-39457837D01*
X89896295Y-39597139D01*
X89832184Y-39751917D01*
X89832182Y-39751925D01*
X89799500Y-39916228D01*
X89799500Y-40083771D01*
X64022973Y-40083771D01*
X64017172Y-38800002D01*
X83474723Y-38800002D01*
X83493793Y-39017975D01*
X83493793Y-39017979D01*
X83550422Y-39229322D01*
X83550424Y-39229326D01*
X83550425Y-39229330D01*
X83558336Y-39246295D01*
X83642897Y-39427638D01*
X83647922Y-39434814D01*
X83768402Y-39606877D01*
X83923123Y-39761598D01*
X84102361Y-39887102D01*
X84300670Y-39979575D01*
X84512023Y-40036207D01*
X84694926Y-40052208D01*
X84729998Y-40055277D01*
X84730000Y-40055277D01*
X84730002Y-40055277D01*
X84758254Y-40052805D01*
X84947977Y-40036207D01*
X85159330Y-39979575D01*
X85357639Y-39887102D01*
X85536877Y-39761598D01*
X85691598Y-39606877D01*
X85817102Y-39427639D01*
X85909575Y-39229330D01*
X85966207Y-39017977D01*
X85980038Y-38859881D01*
X86005490Y-38794813D01*
X86062081Y-38753834D01*
X86092754Y-38747162D01*
X86217977Y-38736207D01*
X86429330Y-38679575D01*
X86627639Y-38587102D01*
X86806877Y-38461598D01*
X86961598Y-38306877D01*
X87087102Y-38127639D01*
X87179575Y-37929330D01*
X87236207Y-37717977D01*
X87255277Y-37500000D01*
X87236207Y-37282023D01*
X87179575Y-37070670D01*
X87087102Y-36872362D01*
X87087100Y-36872359D01*
X87087099Y-36872357D01*
X86961599Y-36693124D01*
X86925763Y-36657288D01*
X86806877Y-36538402D01*
X86627639Y-36412898D01*
X86627640Y-36412898D01*
X86627638Y-36412897D01*
X86528484Y-36366661D01*
X86429330Y-36320425D01*
X86429326Y-36320424D01*
X86429322Y-36320422D01*
X86217977Y-36263793D01*
X86000002Y-36244723D01*
X85999998Y-36244723D01*
X85854682Y-36257436D01*
X85782023Y-36263793D01*
X85782020Y-36263793D01*
X85570677Y-36320422D01*
X85570668Y-36320426D01*
X85372361Y-36412898D01*
X85372357Y-36412900D01*
X85193121Y-36538402D01*
X85038402Y-36693121D01*
X84912900Y-36872357D01*
X84912898Y-36872361D01*
X84820426Y-37070668D01*
X84820422Y-37070677D01*
X84763793Y-37282020D01*
X84763793Y-37282023D01*
X84749961Y-37440118D01*
X84724508Y-37505186D01*
X84667917Y-37546165D01*
X84637240Y-37552838D01*
X84546673Y-37560761D01*
X84512023Y-37563793D01*
X84512020Y-37563793D01*
X84300677Y-37620422D01*
X84300668Y-37620426D01*
X84102361Y-37712898D01*
X84102357Y-37712900D01*
X83923121Y-37838402D01*
X83768402Y-37993121D01*
X83642900Y-38172357D01*
X83642898Y-38172361D01*
X83550426Y-38370668D01*
X83550422Y-38370677D01*
X83493793Y-38582020D01*
X83493793Y-38582024D01*
X83474723Y-38799997D01*
X83474723Y-38800002D01*
X64017172Y-38800002D01*
X64002825Y-35625060D01*
X64022207Y-35557933D01*
X64074803Y-35511940D01*
X64126824Y-35500500D01*
X145880444Y-35500500D01*
X145947483Y-35520185D01*
G37*
%TD.AperFunction*%
%TD*%
%TA.AperFunction,Conductor*%
%TO.N,Net-(PS1-0V)*%
G36*
X130515677Y-75019685D02*
G01*
X130536319Y-75036319D01*
X145500000Y-90000000D01*
X154375500Y-90000000D01*
X154442539Y-90019685D01*
X154488294Y-90072489D01*
X154499500Y-90124000D01*
X154499500Y-105876299D01*
X154479815Y-105943338D01*
X154427011Y-105989093D01*
X154375560Y-106000299D01*
X146004330Y-106004330D01*
X146003818Y-107069091D01*
X146000301Y-114375560D01*
X145980584Y-114442590D01*
X145927758Y-114488319D01*
X145876301Y-114499500D01*
X120124000Y-114499500D01*
X120056961Y-114479815D01*
X120011206Y-114427011D01*
X120000000Y-114375500D01*
X120000000Y-105120000D01*
X127909474Y-105120000D01*
X127929547Y-105375064D01*
X127929547Y-105375067D01*
X127929548Y-105375070D01*
X127930044Y-105377135D01*
X127989279Y-105623864D01*
X128087188Y-105860239D01*
X128087190Y-105860242D01*
X128220875Y-106078396D01*
X128220878Y-106078401D01*
X128296200Y-106166591D01*
X128387044Y-106272956D01*
X128511579Y-106379319D01*
X128581598Y-106439121D01*
X128581603Y-106439124D01*
X128799757Y-106572809D01*
X128799760Y-106572811D01*
X129036135Y-106670720D01*
X129036140Y-106670722D01*
X129284930Y-106730452D01*
X129540000Y-106750526D01*
X129795070Y-106730452D01*
X130043860Y-106670722D01*
X130159383Y-106622870D01*
X137424500Y-106622870D01*
X137424501Y-106622876D01*
X137430908Y-106682483D01*
X137481202Y-106817328D01*
X137481206Y-106817335D01*
X137567452Y-106932544D01*
X137567455Y-106932547D01*
X137682664Y-107018793D01*
X137682671Y-107018797D01*
X137817517Y-107069091D01*
X137817516Y-107069091D01*
X137824444Y-107069835D01*
X137877127Y-107075500D01*
X139122872Y-107075499D01*
X139182483Y-107069091D01*
X139317331Y-107018796D01*
X139432546Y-106932546D01*
X139518796Y-106817331D01*
X139569091Y-106682483D01*
X139575500Y-106622873D01*
X139575499Y-105377128D01*
X139569091Y-105317517D01*
X139518796Y-105182669D01*
X139518795Y-105182668D01*
X139518793Y-105182664D01*
X139432547Y-105067455D01*
X139432544Y-105067452D01*
X139317335Y-104981206D01*
X139317328Y-104981202D01*
X139182482Y-104930908D01*
X139182483Y-104930908D01*
X139122883Y-104924501D01*
X139122881Y-104924500D01*
X139122873Y-104924500D01*
X139122864Y-104924500D01*
X137877129Y-104924500D01*
X137877123Y-104924501D01*
X137817516Y-104930908D01*
X137682671Y-104981202D01*
X137682664Y-104981206D01*
X137567455Y-105067452D01*
X137567452Y-105067455D01*
X137481206Y-105182664D01*
X137481202Y-105182671D01*
X137430908Y-105317517D01*
X137424722Y-105375064D01*
X137424501Y-105377123D01*
X137424500Y-105377135D01*
X137424500Y-106622870D01*
X130159383Y-106622870D01*
X130162051Y-106621765D01*
X130280239Y-106572811D01*
X130280240Y-106572810D01*
X130280243Y-106572809D01*
X130498399Y-106439123D01*
X130692956Y-106272956D01*
X130859123Y-106078399D01*
X130992809Y-105860243D01*
X131090722Y-105623860D01*
X131150452Y-105375070D01*
X131170526Y-105120000D01*
X131150452Y-104864930D01*
X131090722Y-104616140D01*
X131090720Y-104616135D01*
X130992811Y-104379760D01*
X130992809Y-104379757D01*
X130859124Y-104161603D01*
X130859121Y-104161598D01*
X130799319Y-104091579D01*
X130692956Y-103967044D01*
X130586591Y-103876200D01*
X130498401Y-103800878D01*
X130498396Y-103800875D01*
X130280242Y-103667190D01*
X130280239Y-103667188D01*
X130043864Y-103569279D01*
X130043860Y-103569278D01*
X129795070Y-103509548D01*
X129795067Y-103509547D01*
X129795064Y-103509547D01*
X129540000Y-103489474D01*
X129284935Y-103509547D01*
X129284931Y-103509547D01*
X129284930Y-103509548D01*
X129160535Y-103539413D01*
X129036135Y-103569279D01*
X128799760Y-103667188D01*
X128799757Y-103667190D01*
X128581603Y-103800875D01*
X128581598Y-103800878D01*
X128387044Y-103967044D01*
X128220878Y-104161598D01*
X128220875Y-104161603D01*
X128087190Y-104379757D01*
X128087188Y-104379760D01*
X127989279Y-104616135D01*
X127929547Y-104864935D01*
X127909474Y-105120000D01*
X120000000Y-105120000D01*
X120000000Y-94960000D01*
X127909474Y-94960000D01*
X127929547Y-95215064D01*
X127989279Y-95463864D01*
X128087188Y-95700239D01*
X128087190Y-95700242D01*
X128220875Y-95918396D01*
X128220878Y-95918401D01*
X128235016Y-95934954D01*
X128387044Y-96112956D01*
X128506014Y-96214566D01*
X128581598Y-96279121D01*
X128581603Y-96279124D01*
X128799757Y-96412809D01*
X128799760Y-96412811D01*
X129010257Y-96500001D01*
X129036140Y-96510722D01*
X129284930Y-96570452D01*
X129540000Y-96590526D01*
X129795070Y-96570452D01*
X130043860Y-96510722D01*
X130069742Y-96500001D01*
X144994390Y-96500001D01*
X145014804Y-96785433D01*
X145075628Y-97065037D01*
X145175635Y-97333166D01*
X145312770Y-97584309D01*
X145312775Y-97584317D01*
X145484254Y-97813387D01*
X145484270Y-97813405D01*
X145686594Y-98015729D01*
X145686612Y-98015745D01*
X145915682Y-98187224D01*
X145915690Y-98187229D01*
X146166833Y-98324364D01*
X146166832Y-98324364D01*
X146166836Y-98324365D01*
X146166839Y-98324367D01*
X146434954Y-98424369D01*
X146434960Y-98424370D01*
X146434962Y-98424371D01*
X146714566Y-98485195D01*
X146714568Y-98485195D01*
X146714572Y-98485196D01*
X146968220Y-98503337D01*
X146999999Y-98505610D01*
X147000000Y-98505610D01*
X147000001Y-98505610D01*
X147028595Y-98503564D01*
X147285428Y-98485196D01*
X147565046Y-98424369D01*
X147833161Y-98324367D01*
X148084315Y-98187226D01*
X148313395Y-98015739D01*
X148515739Y-97813395D01*
X148687226Y-97584315D01*
X148824367Y-97333161D01*
X148924369Y-97065046D01*
X148985196Y-96785428D01*
X149005610Y-96500000D01*
X148985196Y-96214572D01*
X148924369Y-95934954D01*
X148824367Y-95666839D01*
X148687226Y-95415685D01*
X148537048Y-95215070D01*
X148515745Y-95186612D01*
X148515729Y-95186594D01*
X148313405Y-94984270D01*
X148313387Y-94984254D01*
X148084317Y-94812775D01*
X148084309Y-94812770D01*
X147833166Y-94675635D01*
X147833167Y-94675635D01*
X147725915Y-94635632D01*
X147565046Y-94575631D01*
X147565043Y-94575630D01*
X147565037Y-94575628D01*
X147285433Y-94514804D01*
X147000001Y-94494390D01*
X146999999Y-94494390D01*
X146714566Y-94514804D01*
X146434962Y-94575628D01*
X146166833Y-94675635D01*
X145915690Y-94812770D01*
X145915682Y-94812775D01*
X145686612Y-94984254D01*
X145686594Y-94984270D01*
X145484270Y-95186594D01*
X145484254Y-95186612D01*
X145312775Y-95415682D01*
X145312770Y-95415690D01*
X145175635Y-95666833D01*
X145075628Y-95934962D01*
X145014804Y-96214566D01*
X144994390Y-96499998D01*
X144994390Y-96500001D01*
X130069742Y-96500001D01*
X130162051Y-96461765D01*
X130280239Y-96412811D01*
X130280240Y-96412810D01*
X130280243Y-96412809D01*
X130498399Y-96279123D01*
X130692956Y-96112956D01*
X130859123Y-95918399D01*
X130992809Y-95700243D01*
X131006646Y-95666839D01*
X131090720Y-95463864D01*
X131090722Y-95463860D01*
X131150452Y-95215070D01*
X131170526Y-94960000D01*
X131150452Y-94704930D01*
X131090722Y-94456140D01*
X131090720Y-94456135D01*
X130992811Y-94219760D01*
X130992809Y-94219757D01*
X130859124Y-94001603D01*
X130859121Y-94001598D01*
X130799319Y-93931579D01*
X130692956Y-93807044D01*
X130586591Y-93716200D01*
X130498401Y-93640878D01*
X130498396Y-93640875D01*
X130280242Y-93507190D01*
X130280239Y-93507188D01*
X130043864Y-93409279D01*
X130043860Y-93409278D01*
X129795070Y-93349548D01*
X129795067Y-93349547D01*
X129795064Y-93349547D01*
X129540000Y-93329474D01*
X129284935Y-93349547D01*
X129284931Y-93349547D01*
X129284930Y-93349548D01*
X129160535Y-93379413D01*
X129036135Y-93409279D01*
X128799760Y-93507188D01*
X128799757Y-93507190D01*
X128581603Y-93640875D01*
X128581598Y-93640878D01*
X128387044Y-93807044D01*
X128220878Y-94001598D01*
X128220875Y-94001603D01*
X128087190Y-94219757D01*
X128087188Y-94219760D01*
X127989279Y-94456135D01*
X127929547Y-94704935D01*
X127909474Y-94960000D01*
X120000000Y-94960000D01*
X120000000Y-76051362D01*
X120019685Y-75984323D01*
X120036319Y-75963681D01*
X120963681Y-75036319D01*
X121025004Y-75002834D01*
X121051362Y-75000000D01*
X130448638Y-75000000D01*
X130515677Y-75019685D01*
G37*
%TD.AperFunction*%
%TD*%
M02*
