%TF.GenerationSoftware,KiCad,Pcbnew,8.0.1*%
%TF.CreationDate,2024-05-22T17:07:33+09:00*%
%TF.ProjectId,power_bord,706f7765-725f-4626-9f72-642e6b696361,rev?*%
%TF.SameCoordinates,Original*%
%TF.FileFunction,Copper,L1,Top*%
%TF.FilePolarity,Positive*%
%FSLAX46Y46*%
G04 Gerber Fmt 4.6, Leading zero omitted, Abs format (unit mm)*
G04 Created by KiCad (PCBNEW 8.0.1) date 2024-05-22 17:07:33*
%MOMM*%
%LPD*%
G01*
G04 APERTURE LIST*
G04 Aperture macros list*
%AMRoundRect*
0 Rectangle with rounded corners*
0 $1 Rounding radius*
0 $2 $3 $4 $5 $6 $7 $8 $9 X,Y pos of 4 corners*
0 Add a 4 corners polygon primitive as box body*
4,1,4,$2,$3,$4,$5,$6,$7,$8,$9,$2,$3,0*
0 Add four circle primitives for the rounded corners*
1,1,$1+$1,$2,$3*
1,1,$1+$1,$4,$5*
1,1,$1+$1,$6,$7*
1,1,$1+$1,$8,$9*
0 Add four rect primitives between the rounded corners*
20,1,$1+$1,$2,$3,$4,$5,0*
20,1,$1+$1,$4,$5,$6,$7,0*
20,1,$1+$1,$6,$7,$8,$9,0*
20,1,$1+$1,$8,$9,$2,$3,0*%
G04 Aperture macros list end*
%TA.AperFunction,ComponentPad*%
%ADD10C,1.500000*%
%TD*%
%TA.AperFunction,SMDPad,CuDef*%
%ADD11R,2.537460X1.518920*%
%TD*%
%TA.AperFunction,ComponentPad*%
%ADD12C,4.000000*%
%TD*%
%TA.AperFunction,ComponentPad*%
%ADD13C,3.000000*%
%TD*%
%TA.AperFunction,ComponentPad*%
%ADD14R,0.900000X2.000000*%
%TD*%
%TA.AperFunction,ComponentPad*%
%ADD15RoundRect,1.025000X-1.025000X-1.025000X1.025000X-1.025000X1.025000X1.025000X-1.025000X1.025000X0*%
%TD*%
%TA.AperFunction,ComponentPad*%
%ADD16C,4.100000*%
%TD*%
%TA.AperFunction,ComponentPad*%
%ADD17C,0.800000*%
%TD*%
%TA.AperFunction,ComponentPad*%
%ADD18C,6.400000*%
%TD*%
%TA.AperFunction,SMDPad,CuDef*%
%ADD19RoundRect,0.250000X0.262500X0.450000X-0.262500X0.450000X-0.262500X-0.450000X0.262500X-0.450000X0*%
%TD*%
%TA.AperFunction,SMDPad,CuDef*%
%ADD20RoundRect,0.250000X-0.250000X-0.475000X0.250000X-0.475000X0.250000X0.475000X-0.250000X0.475000X0*%
%TD*%
%TA.AperFunction,SMDPad,CuDef*%
%ADD21R,1.300000X1.600000*%
%TD*%
%TA.AperFunction,ComponentPad*%
%ADD22R,1.150000X1.150000*%
%TD*%
%TA.AperFunction,ComponentPad*%
%ADD23C,1.150000*%
%TD*%
%TA.AperFunction,SMDPad,CuDef*%
%ADD24RoundRect,0.250000X0.250000X0.475000X-0.250000X0.475000X-0.250000X-0.475000X0.250000X-0.475000X0*%
%TD*%
%TA.AperFunction,ComponentPad*%
%ADD25RoundRect,0.250000X-0.600000X-0.750000X0.600000X-0.750000X0.600000X0.750000X-0.600000X0.750000X0*%
%TD*%
%TA.AperFunction,ComponentPad*%
%ADD26O,1.700000X2.000000*%
%TD*%
%TA.AperFunction,SMDPad,CuDef*%
%ADD27RoundRect,0.250000X0.450000X-0.262500X0.450000X0.262500X-0.450000X0.262500X-0.450000X-0.262500X0*%
%TD*%
%TA.AperFunction,ComponentPad*%
%ADD28C,2.250000*%
%TD*%
%TA.AperFunction,ComponentPad*%
%ADD29C,1.100000*%
%TD*%
%TA.AperFunction,SMDPad,CuDef*%
%ADD30RoundRect,0.250000X-0.262500X-0.450000X0.262500X-0.450000X0.262500X0.450000X-0.262500X0.450000X0*%
%TD*%
%TA.AperFunction,ComponentPad*%
%ADD31R,1.275000X1.275000*%
%TD*%
%TA.AperFunction,ComponentPad*%
%ADD32C,1.275000*%
%TD*%
%TA.AperFunction,SMDPad,CuDef*%
%ADD33RoundRect,0.250000X0.475000X-0.250000X0.475000X0.250000X-0.475000X0.250000X-0.475000X-0.250000X0*%
%TD*%
%TA.AperFunction,ComponentPad*%
%ADD34R,1.381000X1.381000*%
%TD*%
%TA.AperFunction,ComponentPad*%
%ADD35C,1.381000*%
%TD*%
%TA.AperFunction,ComponentPad*%
%ADD36R,1.600000X1.600000*%
%TD*%
%TA.AperFunction,ComponentPad*%
%ADD37O,1.600000X1.600000*%
%TD*%
%TA.AperFunction,ViaPad*%
%ADD38C,0.600000*%
%TD*%
%TA.AperFunction,Conductor*%
%ADD39C,8.000000*%
%TD*%
%TA.AperFunction,Conductor*%
%ADD40C,3.000000*%
%TD*%
%TA.AperFunction,Conductor*%
%ADD41C,2.000000*%
%TD*%
%TA.AperFunction,Conductor*%
%ADD42C,1.000000*%
%TD*%
%TA.AperFunction,Conductor*%
%ADD43C,0.200000*%
%TD*%
%TA.AperFunction,Conductor*%
%ADD44C,4.000000*%
%TD*%
%TA.AperFunction,Conductor*%
%ADD45C,9.000000*%
%TD*%
%TA.AperFunction,Conductor*%
%ADD46C,5.000000*%
%TD*%
G04 APERTURE END LIST*
D10*
%TO.P,Q2,1,D*%
%TO.N,Net-(J1-Pin_1)*%
X86000000Y-37500000D03*
%TO.P,Q2,2,G*%
%TO.N,Net-(Q1-D)*%
X84730000Y-38800000D03*
%TO.P,Q2,3,S*%
%TO.N,GND*%
X83460000Y-37500000D03*
%TD*%
D11*
%TO.P,U1,8,NC*%
%TO.N,unconnected-(U1-NC-Pad8)*%
X79379460Y-78692540D03*
%TO.P,U1,7,Vcc*%
%TO.N,VCC*%
X79379460Y-81232540D03*
%TO.P,U1,6,Vout*%
%TO.N,Net-(U1-Vout)*%
X79379460Y-83767460D03*
%TO.P,U1,5,delay_c*%
%TO.N,Net-(U1-delay_c)*%
X79379460Y-86307460D03*
%TO.P,U1,4,GND*%
%TO.N,GND*%
X62620540Y-86307460D03*
%TO.P,U1,3,NC*%
%TO.N,unconnected-(U1-NC-Pad3)*%
X62620540Y-83767460D03*
%TO.P,U1,2,Vin*%
%TO.N,Net-(U1-Vin)*%
X62620540Y-81232540D03*
%TO.P,U1,1,NC*%
%TO.N,unconnected-(U1-NC-Pad1)*%
X62620540Y-78692540D03*
%TD*%
D10*
%TO.P,Q1,1,D*%
%TO.N,Net-(Q1-D)*%
X89158000Y-84230000D03*
%TO.P,Q1,2,G*%
%TO.N,Net-(Q1-G)*%
X90458000Y-85500000D03*
%TO.P,Q1,3,S*%
%TO.N,GND*%
X89158000Y-86770000D03*
%TD*%
D12*
%TO.P,K1,11*%
%TO.N,Net-(J2-Pin_2)*%
X96350000Y-64500000D03*
%TO.P,K1,12*%
%TO.N,Net-(K1-Pad12)*%
X83650000Y-59500000D03*
%TO.P,K1,14*%
%TO.N,VCC*%
X83650000Y-69500000D03*
D13*
%TO.P,K1,A1*%
X93850000Y-69500000D03*
%TO.P,K1,A2*%
%TO.N,Net-(D1-A)*%
X93850000Y-59500000D03*
%TD*%
D14*
%TO.P,J2,*%
%TO.N,*%
X127750000Y-45650000D03*
X141250000Y-45650000D03*
D15*
%TO.P,J2,1,Pin_1*%
%TO.N,GND*%
X130900000Y-51650000D03*
D16*
%TO.P,J2,2,Pin_2*%
%TO.N,Net-(J2-Pin_2)*%
X138100000Y-51650000D03*
%TD*%
D17*
%TO.P,H1,1,1*%
%TO.N,VCC*%
X63800000Y-69500000D03*
X63097056Y-71197056D03*
X63097056Y-67802944D03*
X61400000Y-71900000D03*
D18*
X61400000Y-69500000D03*
D17*
X61400000Y-67100000D03*
X59702944Y-71197056D03*
X59702944Y-67802944D03*
X59000000Y-69500000D03*
%TD*%
D14*
%TO.P,J3,*%
%TO.N,*%
X106750000Y-45650000D03*
X120250000Y-45650000D03*
D15*
%TO.P,J3,1,Pin_1*%
%TO.N,GND*%
X109900000Y-51650000D03*
D16*
%TO.P,J3,2,Pin_2*%
%TO.N,Net-(J2-Pin_2)*%
X117100000Y-51650000D03*
%TD*%
D19*
%TO.P,R6,1*%
%TO.N,Net-(Q1-D)*%
X88912500Y-76000000D03*
%TO.P,R6,2*%
%TO.N,VCC*%
X87087500Y-76000000D03*
%TD*%
D20*
%TO.P,C5,1*%
%TO.N,Net-(U1-delay_c)*%
X83550000Y-87500000D03*
%TO.P,C5,2*%
%TO.N,GND*%
X85450000Y-87500000D03*
%TD*%
D21*
%TO.P,C8,1*%
%TO.N,Net-(PS1-VIN)*%
X116300000Y-112500000D03*
%TO.P,C8,2*%
%TO.N,Net-(PS1-+VO)*%
X120700000Y-112500000D03*
%TD*%
D22*
%TO.P,C10,1*%
%TO.N,Net-(J2-Pin_2)*%
X113500000Y-62750000D03*
D23*
%TO.P,C10,2*%
%TO.N,GND*%
X113500000Y-60250000D03*
%TD*%
D24*
%TO.P,C3,1*%
%TO.N,VCC*%
X64000000Y-90500000D03*
%TO.P,C3,2*%
%TO.N,GND*%
X62100000Y-90500000D03*
%TD*%
D25*
%TO.P,J1,1,Pin_1*%
%TO.N,Net-(J1-Pin_1)*%
X92250000Y-38000000D03*
D26*
%TO.P,J1,2,Pin_2*%
%TO.N,Net-(D1-A)*%
X94750000Y-38000000D03*
%TD*%
D27*
%TO.P,R2,1*%
%TO.N,GND*%
X58000000Y-86325000D03*
%TO.P,R2,2*%
%TO.N,Net-(U1-Vin)*%
X58000000Y-84500000D03*
%TD*%
D17*
%TO.P,H2,1,1*%
%TO.N,GND*%
X63300000Y-53500000D03*
X62597056Y-55197056D03*
X62597056Y-51802944D03*
X60900000Y-55900000D03*
D18*
X60900000Y-53500000D03*
D17*
X60900000Y-51100000D03*
X59202944Y-55197056D03*
X59202944Y-51802944D03*
X58500000Y-53500000D03*
%TD*%
D28*
%TO.P,PS1,1,CTRL*%
%TO.N,unconnected-(PS1-CTRL-Pad1)*%
X109220000Y-84800000D03*
%TO.P,PS1,2,GND*%
%TO.N,GND*%
X109220000Y-92420000D03*
%TO.P,PS1,3,VIN*%
%TO.N,Net-(PS1-VIN)*%
X109220000Y-97500000D03*
%TO.P,PS1,4,+VO*%
%TO.N,Net-(PS1-+VO)*%
X129540000Y-105120000D03*
%TO.P,PS1,5,TRIM*%
%TO.N,unconnected-(PS1-TRIM-Pad5)*%
X129540000Y-94960000D03*
%TO.P,PS1,6,0V*%
%TO.N,Net-(PS1-0V)*%
X129540000Y-84800000D03*
%TD*%
D29*
%TO.P,R3,1,1*%
%TO.N,GND*%
X75750000Y-51310000D03*
%TO.P,R3,2,2*%
%TO.N,Net-(K1-Pad12)*%
X83250000Y-51310000D03*
%TO.P,R3,3,3*%
X83250000Y-47500000D03*
%TO.P,R3,4,4*%
%TO.N,GND*%
X75750000Y-47500000D03*
%TD*%
D22*
%TO.P,C12,1*%
%TO.N,Net-(PS1-+VO)*%
X138500000Y-106000000D03*
D23*
%TO.P,C12,2*%
%TO.N,Net-(PS1-0V)*%
X138500000Y-108500000D03*
%TD*%
D30*
%TO.P,R4,1*%
%TO.N,Net-(U1-Vout)*%
X83500000Y-84000000D03*
%TO.P,R4,2*%
%TO.N,Net-(Q1-G)*%
X85325000Y-84000000D03*
%TD*%
D17*
%TO.P,H6,1,1*%
%TO.N,GND*%
X152300000Y-60000000D03*
X151597056Y-61697056D03*
X151597056Y-58302944D03*
X149900000Y-62400000D03*
D18*
X149900000Y-60000000D03*
D17*
X149900000Y-57600000D03*
X148202944Y-61697056D03*
X148202944Y-58302944D03*
X147500000Y-60000000D03*
%TD*%
D31*
%TO.P,C11,1*%
%TO.N,Net-(J2-Pin_2)*%
X124500000Y-63500000D03*
D32*
%TO.P,C11,2*%
%TO.N,GND*%
X124500000Y-58500000D03*
%TD*%
D21*
%TO.P,C7,1*%
%TO.N,GND*%
X116300000Y-78000000D03*
%TO.P,C7,2*%
%TO.N,Net-(PS1-0V)*%
X120700000Y-78000000D03*
%TD*%
D33*
%TO.P,C6,1*%
%TO.N,Net-(PS1-VIN)*%
X101500000Y-96000000D03*
%TO.P,C6,2*%
%TO.N,GND*%
X101500000Y-94100000D03*
%TD*%
D34*
%TO.P,L1,1,1*%
%TO.N,VCC*%
X81500000Y-98000000D03*
D35*
%TO.P,L1,2,2*%
%TO.N,Net-(PS1-VIN)*%
X86500000Y-98000000D03*
%TD*%
D36*
%TO.P,D1,1,K*%
%TO.N,VCC*%
X101000000Y-71350000D03*
D37*
%TO.P,D1,2,A*%
%TO.N,Net-(D1-A)*%
X101000000Y-58650000D03*
%TD*%
D13*
%TO.P,J4,1,1*%
%TO.N,Net-(PS1-0V)*%
X141000000Y-96500000D03*
%TO.P,J4,2,2*%
%TO.N,Net-(PS1-+VO)*%
X147000000Y-96500000D03*
%TO.P,J4,3,3*%
%TO.N,Net-(PS1-0V)*%
X144000000Y-91800000D03*
%TD*%
D27*
%TO.P,R1,1*%
%TO.N,Net-(U1-Vin)*%
X58000000Y-81325000D03*
%TO.P,R1,2*%
%TO.N,VCC*%
X58000000Y-79500000D03*
%TD*%
D31*
%TO.P,C1,1*%
%TO.N,VCC*%
X73500000Y-66500000D03*
D32*
%TO.P,C1,2*%
%TO.N,GND*%
X73500000Y-61500000D03*
%TD*%
D33*
%TO.P,C9,1*%
%TO.N,Net-(J2-Pin_2)*%
X106500000Y-62400000D03*
%TO.P,C9,2*%
%TO.N,GND*%
X106500000Y-60500000D03*
%TD*%
D31*
%TO.P,C4,1*%
%TO.N,Net-(PS1-VIN)*%
X96000000Y-108500000D03*
D32*
%TO.P,C4,2*%
%TO.N,GND*%
X96000000Y-103500000D03*
%TD*%
D31*
%TO.P,C2,1*%
%TO.N,VCC*%
X68000000Y-98000000D03*
D32*
%TO.P,C2,2*%
%TO.N,GND*%
X63000000Y-98000000D03*
%TD*%
D27*
%TO.P,R5,1*%
%TO.N,Net-(Q1-G)*%
X85500000Y-80325000D03*
%TO.P,R5,2*%
%TO.N,VCC*%
X85500000Y-78500000D03*
%TD*%
D17*
%TO.P,H5,1,1*%
%TO.N,Net-(J2-Pin_2)*%
X152300000Y-71652944D03*
X151597056Y-73350000D03*
X151597056Y-69955888D03*
X149900000Y-74052944D03*
D18*
X149900000Y-71652944D03*
D17*
X149900000Y-69252944D03*
X148202944Y-73350000D03*
X148202944Y-69955888D03*
X147500000Y-71652944D03*
%TD*%
D38*
%TO.N,GND*%
X88000000Y-79000000D03*
X61000000Y-48000000D03*
X115000000Y-88500000D03*
X62000000Y-90500000D03*
X153000000Y-56500000D03*
X91000000Y-63500000D03*
X102500000Y-90500000D03*
X116000000Y-76500000D03*
X57000000Y-59000000D03*
X73500000Y-47000000D03*
X153500000Y-62500000D03*
X143500000Y-41000000D03*
X146000000Y-56500000D03*
X70500000Y-61500000D03*
X116000000Y-79500000D03*
X62500000Y-86500000D03*
X100500000Y-81500000D03*
X116000000Y-41500000D03*
X96500000Y-85500000D03*
X107500000Y-93500000D03*
X111500000Y-93500000D03*
X84000000Y-81500000D03*
X85500000Y-86000000D03*
X87500000Y-83000000D03*
X85000000Y-75500000D03*
X81000000Y-37500000D03*
X76500000Y-61500000D03*
X82000000Y-85000000D03*
X100500000Y-75000000D03*
X149500000Y-49500000D03*
X91500000Y-51500000D03*
X65000000Y-48000000D03*
X106500000Y-60500000D03*
X101500000Y-94000000D03*
X58000000Y-86500000D03*
X70000000Y-39500000D03*
X108000000Y-91000000D03*
X81500000Y-89000000D03*
X65500000Y-54000000D03*
X101000000Y-54000000D03*
X61000000Y-59000000D03*
X73500000Y-51000000D03*
X74500000Y-84500000D03*
X56500000Y-53500000D03*
X112000000Y-80500000D03*
X91000000Y-75000000D03*
X91500000Y-42500000D03*
X102500000Y-42500000D03*
X73500000Y-59000000D03*
X109500000Y-40500000D03*
X75000000Y-88500000D03*
X91500000Y-80500000D03*
X134000000Y-41000000D03*
X111000000Y-91500000D03*
X76500000Y-84500000D03*
X111500000Y-74500000D03*
X124000000Y-40000000D03*
X56500000Y-48000000D03*
X65000000Y-59000000D03*
%TO.N,Net-(PS1-0V)*%
X140000000Y-94000000D03*
X122000000Y-85500000D03*
X130500000Y-90500000D03*
X129500000Y-83000000D03*
X153000000Y-92000000D03*
X120500000Y-76500000D03*
X142000000Y-92000000D03*
X129000000Y-77500000D03*
X129500000Y-86500000D03*
X131500000Y-85000000D03*
X144000000Y-89500000D03*
X139500000Y-88500000D03*
X123500000Y-91500000D03*
X134500000Y-82500000D03*
X127500000Y-85000000D03*
X138500000Y-97000000D03*
X144000000Y-97000000D03*
X120500000Y-79500000D03*
X144000000Y-94500000D03*
X123500000Y-97000000D03*
X146500000Y-92000000D03*
%TO.N,Net-(Q1-D)*%
X89000000Y-60500000D03*
X89000000Y-74000000D03*
%TD*%
D39*
%TO.N,VCC*%
X61400000Y-69500000D02*
X83650000Y-69500000D01*
D40*
%TO.N,GND*%
X105250000Y-88250000D02*
X87750000Y-88250000D01*
X109220000Y-92420000D02*
X108000000Y-91200000D01*
X108000000Y-91200000D02*
X108000000Y-91000000D01*
X107800000Y-91000000D02*
X105500000Y-88700000D01*
X108000000Y-91000000D02*
X107800000Y-91000000D01*
X105500000Y-88700000D02*
X105500000Y-88500000D01*
X105500000Y-88500000D02*
X105250000Y-88250000D01*
D41*
%TO.N,VCC*%
X87087500Y-72937500D02*
X83650000Y-69500000D01*
D42*
X84380730Y-78500000D02*
X83650000Y-79230730D01*
D41*
X87087500Y-76912500D02*
X85500000Y-78500000D01*
X85500000Y-78500000D02*
X84000190Y-78500000D01*
D40*
X68000000Y-98000000D02*
X81500000Y-98000000D01*
D41*
X64000000Y-90500000D02*
X64000000Y-94000000D01*
D42*
X79379460Y-81232540D02*
X79888730Y-81232540D01*
D41*
X64000000Y-89000000D02*
X72450000Y-80550000D01*
X64000000Y-94000000D02*
X68000000Y-98000000D01*
X79379460Y-81232540D02*
X73132540Y-81232540D01*
D40*
X80650000Y-66500000D02*
X83650000Y-69500000D01*
D41*
X58000000Y-79500000D02*
X59500000Y-79500000D01*
D42*
X85500000Y-78500000D02*
X84380730Y-78500000D01*
D41*
X87087500Y-76000000D02*
X87087500Y-76912500D01*
D42*
X101000000Y-71350000D02*
X95700000Y-71350000D01*
X81648190Y-81232540D02*
X79379460Y-81232540D01*
D40*
X93850000Y-69500000D02*
X83650000Y-69500000D01*
D41*
X56500000Y-79500000D02*
X61400000Y-74600000D01*
X87087500Y-76000000D02*
X87087500Y-72937500D01*
D42*
X95700000Y-71350000D02*
X93850000Y-69500000D01*
X83650000Y-79230730D02*
X81648190Y-81232540D01*
D41*
X72450000Y-80550000D02*
X61400000Y-69500000D01*
X73132540Y-81232540D02*
X72450000Y-80550000D01*
X61400000Y-74600000D02*
X61400000Y-69500000D01*
D42*
X83650000Y-69500000D02*
X83650000Y-76650000D01*
X83650000Y-69500000D02*
X83650000Y-79230730D01*
D40*
X73500000Y-66500000D02*
X80650000Y-66500000D01*
D41*
X58000000Y-79500000D02*
X56500000Y-79500000D01*
X64000000Y-90500000D02*
X64000000Y-89000000D01*
X81267650Y-81232540D02*
X79379460Y-81232540D01*
X84000190Y-78500000D02*
X81267650Y-81232540D01*
D43*
%TO.N,Net-(U1-delay_c)*%
X82357460Y-86307460D02*
X83550000Y-87500000D01*
X79379460Y-86307460D02*
X82357460Y-86307460D01*
D44*
%TO.N,Net-(PS1-VIN)*%
X107000000Y-97500000D02*
X96000000Y-108500000D01*
X109220000Y-97500000D02*
X107000000Y-97500000D01*
D41*
X101500000Y-96000000D02*
X88500000Y-96000000D01*
D40*
X86500000Y-99000000D02*
X96000000Y-108500000D01*
D41*
X107720000Y-96000000D02*
X109220000Y-97500000D01*
X88500000Y-96000000D02*
X86500000Y-98000000D01*
X101500000Y-96000000D02*
X107720000Y-96000000D01*
D40*
X86500000Y-98000000D02*
X86500000Y-99000000D01*
D44*
%TO.N,Net-(PS1-0V)*%
X131500000Y-85000000D02*
X131240000Y-86500000D01*
X134500000Y-89760000D02*
X134500000Y-96500000D01*
X138800000Y-96700000D02*
X141234925Y-96700000D01*
X140000000Y-94000000D02*
X142000000Y-92000000D01*
X142000000Y-92000000D02*
X146500000Y-92000000D01*
X141234925Y-95000000D02*
X140000000Y-94000000D01*
X129500000Y-84760000D02*
X127500000Y-85000000D01*
X146500000Y-92000000D02*
X144234925Y-92000000D01*
X138200000Y-96700000D02*
X138500000Y-97000000D01*
X141234925Y-96700000D02*
X141234925Y-95000000D01*
X129500000Y-84760000D02*
X129540000Y-84800000D01*
X127740000Y-83000000D02*
X129500000Y-83000000D01*
X131240000Y-86500000D02*
X134500000Y-89760000D01*
X129500000Y-83000000D02*
X129500000Y-84760000D01*
X122740000Y-78000000D02*
X127740000Y-83000000D01*
X134700000Y-96700000D02*
X138200000Y-96700000D01*
X129540000Y-84800000D02*
X129500000Y-84760000D01*
X129500000Y-86500000D02*
X131500000Y-85000000D01*
X138500000Y-97000000D02*
X138800000Y-96700000D01*
X127500000Y-85000000D02*
X129500000Y-86500000D01*
X134500000Y-96500000D02*
X134700000Y-96700000D01*
%TO.N,Net-(PS1-+VO)*%
X148500000Y-98000000D02*
X148500000Y-99000000D01*
X147000000Y-96500000D02*
X148500000Y-98000000D01*
D42*
X120700000Y-112500000D02*
X122160000Y-112500000D01*
D40*
X129330000Y-105330000D02*
X129540000Y-105120000D01*
X121500000Y-113000000D02*
X129000000Y-113000000D01*
D44*
X142380000Y-105120000D02*
X129540000Y-105120000D01*
X148500000Y-99000000D02*
X142380000Y-105120000D01*
D40*
X129000000Y-113000000D02*
X129330000Y-112670000D01*
X121500000Y-105000000D02*
X121500000Y-113000000D01*
D42*
X122160000Y-112500000D02*
X129540000Y-105120000D01*
D40*
X129330000Y-112670000D02*
X129330000Y-105330000D01*
D42*
%TO.N,Net-(J1-Pin_1)*%
X92250000Y-37475000D02*
X86025000Y-37475000D01*
X86025000Y-37475000D02*
X86000000Y-37500000D01*
D45*
%TO.N,Net-(K1-Pad12)*%
X83650000Y-59500000D02*
X83650000Y-47495000D01*
D39*
X83650000Y-47495000D02*
X83250000Y-47095000D01*
D43*
%TO.N,Net-(Q1-G)*%
X86825000Y-85500000D02*
X90458000Y-85500000D01*
X85325000Y-84000000D02*
X86825000Y-85500000D01*
X85500000Y-80325000D02*
X85500000Y-83825000D01*
X85500000Y-83825000D02*
X85325000Y-84000000D01*
%TO.N,Net-(Q1-D)*%
X89000000Y-60500000D02*
X89000000Y-43070000D01*
X89158000Y-84230000D02*
X89158000Y-76245500D01*
X88912500Y-76000000D02*
X88912500Y-74087500D01*
X89000000Y-43070000D02*
X84730000Y-38800000D01*
X89158000Y-76245500D02*
X88912500Y-76000000D01*
X88912500Y-74087500D02*
X89000000Y-74000000D01*
X89000000Y-84072000D02*
X89158000Y-84230000D01*
%TO.N,Net-(U1-Vin)*%
X58267460Y-81232540D02*
X62620540Y-81232540D01*
X58175000Y-81325000D02*
X58267460Y-81232540D01*
X58000000Y-81325000D02*
X58175000Y-81325000D01*
X58000000Y-81325000D02*
X58000000Y-84500000D01*
%TO.N,Net-(U1-Vout)*%
X83267460Y-83767460D02*
X83500000Y-84000000D01*
X79379460Y-83767460D02*
X83267460Y-83767460D01*
D46*
%TO.N,Net-(J2-Pin_2)*%
X142747056Y-64500000D02*
X149900000Y-71652944D01*
X96350000Y-64500000D02*
X142747056Y-64500000D01*
D42*
%TO.N,Net-(D1-A)*%
X93850000Y-59500000D02*
X100150000Y-59500000D01*
X100150000Y-59500000D02*
X101000000Y-58650000D01*
X94750000Y-52400000D02*
X101000000Y-58650000D01*
X94750000Y-37475000D02*
X94750000Y-52400000D01*
%TD*%
%TA.AperFunction,Conductor*%
%TO.N,GND*%
G36*
X89515677Y-72019685D02*
G01*
X89536319Y-72036319D01*
X91000000Y-73500000D01*
X111993812Y-73500000D01*
X112006150Y-73500615D01*
X116888340Y-73988834D01*
X116953087Y-74015091D01*
X116993360Y-74072186D01*
X117000000Y-74112218D01*
X117000000Y-92948638D01*
X116980315Y-93015677D01*
X116963681Y-93036319D01*
X115536319Y-94463681D01*
X115474996Y-94497166D01*
X115448638Y-94500000D01*
X107849321Y-94500000D01*
X107839598Y-94499618D01*
X107838098Y-94499500D01*
X107838092Y-94499500D01*
X104050862Y-94499500D01*
X103983823Y-94479815D01*
X103963181Y-94463181D01*
X99000000Y-89500000D01*
X74051362Y-89500000D01*
X73984323Y-89480315D01*
X73963681Y-89463681D01*
X73036319Y-88536319D01*
X73002834Y-88474996D01*
X73000000Y-88448638D01*
X73000000Y-84051362D01*
X73019685Y-83984323D01*
X73036319Y-83963681D01*
X73963681Y-83036319D01*
X74025004Y-83002834D01*
X74051362Y-83000000D01*
X77486230Y-83000000D01*
X77553269Y-83019685D01*
X77599024Y-83072489D01*
X77610230Y-83124000D01*
X77610230Y-84574790D01*
X77610231Y-84574796D01*
X77616638Y-84634403D01*
X77666932Y-84769248D01*
X77666936Y-84769255D01*
X77753182Y-84884464D01*
X77753183Y-84884464D01*
X77753184Y-84884466D01*
X77766182Y-84894196D01*
X77824955Y-84938194D01*
X77866825Y-84994128D01*
X77871809Y-85063819D01*
X77838323Y-85125142D01*
X77824955Y-85136726D01*
X77753182Y-85190455D01*
X77666936Y-85305664D01*
X77666932Y-85305671D01*
X77616638Y-85440517D01*
X77610243Y-85500002D01*
X77610231Y-85500123D01*
X77610230Y-85500135D01*
X77610230Y-87114790D01*
X77610231Y-87114796D01*
X77616638Y-87174403D01*
X77666932Y-87309248D01*
X77666936Y-87309255D01*
X77753182Y-87424464D01*
X77753185Y-87424467D01*
X77868394Y-87510713D01*
X77868401Y-87510717D01*
X78003247Y-87561011D01*
X78003246Y-87561011D01*
X78010174Y-87561755D01*
X78062857Y-87567420D01*
X80696062Y-87567419D01*
X80755673Y-87561011D01*
X80890521Y-87510716D01*
X81005736Y-87424466D01*
X81091986Y-87309251D01*
X81142281Y-87174403D01*
X81148690Y-87114793D01*
X81148690Y-87031960D01*
X81168375Y-86964921D01*
X81221179Y-86919166D01*
X81272690Y-86907960D01*
X82057363Y-86907960D01*
X82124402Y-86927645D01*
X82145044Y-86944279D01*
X82513181Y-87312416D01*
X82546666Y-87373739D01*
X82549500Y-87400097D01*
X82549500Y-88025001D01*
X82549501Y-88025019D01*
X82560000Y-88127796D01*
X82560001Y-88127799D01*
X82588422Y-88213566D01*
X82615186Y-88294334D01*
X82707288Y-88443656D01*
X82831344Y-88567712D01*
X82980666Y-88659814D01*
X83147203Y-88714999D01*
X83249991Y-88725500D01*
X83850008Y-88725499D01*
X83850016Y-88725498D01*
X83850019Y-88725498D01*
X83906302Y-88719748D01*
X83952797Y-88714999D01*
X84119334Y-88659814D01*
X84268656Y-88567712D01*
X84392712Y-88443656D01*
X84484814Y-88294334D01*
X84539999Y-88127797D01*
X84550500Y-88025009D01*
X84550499Y-86974992D01*
X84545662Y-86927645D01*
X84539999Y-86872203D01*
X84539998Y-86872200D01*
X84494934Y-86736207D01*
X84484814Y-86705666D01*
X84392712Y-86556344D01*
X84268656Y-86432288D01*
X84136416Y-86350722D01*
X84119336Y-86340187D01*
X84119331Y-86340185D01*
X84117862Y-86339698D01*
X83952797Y-86285001D01*
X83952795Y-86285000D01*
X83850010Y-86274500D01*
X83249999Y-86274500D01*
X83249983Y-86274501D01*
X83239413Y-86275581D01*
X83170721Y-86262807D01*
X83139138Y-86239903D01*
X82845050Y-85945815D01*
X82845048Y-85945812D01*
X82726177Y-85826941D01*
X82726176Y-85826940D01*
X82639364Y-85776820D01*
X82639364Y-85776819D01*
X82639360Y-85776818D01*
X82589245Y-85747883D01*
X82436517Y-85706959D01*
X82278403Y-85706959D01*
X82270807Y-85706959D01*
X82270791Y-85706960D01*
X81272689Y-85706960D01*
X81205650Y-85687275D01*
X81159895Y-85634471D01*
X81148689Y-85582960D01*
X81148689Y-85500129D01*
X81148688Y-85500123D01*
X81148687Y-85500116D01*
X81142281Y-85440517D01*
X81091986Y-85305669D01*
X81091985Y-85305668D01*
X81091983Y-85305664D01*
X81013256Y-85200500D01*
X81005736Y-85190454D01*
X80933963Y-85136725D01*
X80892094Y-85080793D01*
X80887110Y-85011101D01*
X80920595Y-84949778D01*
X80933958Y-84938198D01*
X81005736Y-84884466D01*
X81091986Y-84769251D01*
X81142281Y-84634403D01*
X81148690Y-84574793D01*
X81148690Y-84491960D01*
X81168375Y-84424921D01*
X81221179Y-84379166D01*
X81272690Y-84367960D01*
X82363001Y-84367960D01*
X82430040Y-84387645D01*
X82475795Y-84440449D01*
X82487001Y-84491960D01*
X82487001Y-84500018D01*
X82497500Y-84602796D01*
X82497501Y-84602799D01*
X82552658Y-84769251D01*
X82552686Y-84769334D01*
X82644788Y-84918656D01*
X82768844Y-85042712D01*
X82918166Y-85134814D01*
X83084703Y-85189999D01*
X83187491Y-85200500D01*
X83812508Y-85200499D01*
X83812516Y-85200498D01*
X83812519Y-85200498D01*
X83868802Y-85194748D01*
X83915297Y-85189999D01*
X84081834Y-85134814D01*
X84231156Y-85042712D01*
X84324819Y-84949049D01*
X84386142Y-84915564D01*
X84455834Y-84920548D01*
X84500181Y-84949049D01*
X84593844Y-85042712D01*
X84743166Y-85134814D01*
X84909703Y-85189999D01*
X85012491Y-85200500D01*
X85624902Y-85200499D01*
X85691941Y-85220183D01*
X85712583Y-85236818D01*
X86340139Y-85864374D01*
X86340149Y-85864385D01*
X86344479Y-85868715D01*
X86344480Y-85868716D01*
X86456284Y-85980520D01*
X86456286Y-85980521D01*
X86456290Y-85980524D01*
X86593209Y-86059573D01*
X86593216Y-86059577D01*
X86705019Y-86089534D01*
X86745942Y-86100500D01*
X86745943Y-86100500D01*
X89287345Y-86100500D01*
X89354384Y-86120185D01*
X89388917Y-86153373D01*
X89496402Y-86306877D01*
X89651123Y-86461598D01*
X89830361Y-86587102D01*
X90028670Y-86679575D01*
X90240023Y-86736207D01*
X90422926Y-86752208D01*
X90457998Y-86755277D01*
X90458000Y-86755277D01*
X90458002Y-86755277D01*
X90486254Y-86752805D01*
X90675977Y-86736207D01*
X90887330Y-86679575D01*
X91085639Y-86587102D01*
X91264877Y-86461598D01*
X91419598Y-86306877D01*
X91545102Y-86127639D01*
X91637575Y-85929330D01*
X91694207Y-85717977D01*
X91713277Y-85500000D01*
X91694207Y-85282023D01*
X91652171Y-85125142D01*
X91637577Y-85070677D01*
X91637576Y-85070676D01*
X91637575Y-85070670D01*
X91545102Y-84872362D01*
X91545100Y-84872359D01*
X91545099Y-84872357D01*
X91494434Y-84800000D01*
X107589474Y-84800000D01*
X107609547Y-85055064D01*
X107609547Y-85055067D01*
X107609548Y-85055070D01*
X107664035Y-85282020D01*
X107669279Y-85303864D01*
X107767188Y-85540239D01*
X107767190Y-85540242D01*
X107900875Y-85758396D01*
X107900878Y-85758401D01*
X107959416Y-85826940D01*
X108067044Y-85952956D01*
X108191579Y-86059319D01*
X108261598Y-86119121D01*
X108261600Y-86119122D01*
X108261601Y-86119123D01*
X108275498Y-86127639D01*
X108479757Y-86252809D01*
X108479760Y-86252811D01*
X108690706Y-86340187D01*
X108716140Y-86350722D01*
X108964930Y-86410452D01*
X109220000Y-86430526D01*
X109475070Y-86410452D01*
X109723860Y-86350722D01*
X109907874Y-86274501D01*
X109960239Y-86252811D01*
X109960240Y-86252810D01*
X109960243Y-86252809D01*
X110178399Y-86119123D01*
X110372956Y-85952956D01*
X110539123Y-85758399D01*
X110672809Y-85540243D01*
X110689478Y-85500002D01*
X110769972Y-85305671D01*
X110770722Y-85303860D01*
X110830452Y-85055070D01*
X110850526Y-84800000D01*
X110830452Y-84544930D01*
X110770722Y-84296140D01*
X110770720Y-84296135D01*
X110672811Y-84059760D01*
X110672809Y-84059757D01*
X110539124Y-83841603D01*
X110539121Y-83841598D01*
X110479319Y-83771579D01*
X110372956Y-83647044D01*
X110200780Y-83499992D01*
X110178401Y-83480878D01*
X110178396Y-83480875D01*
X109960242Y-83347190D01*
X109960239Y-83347188D01*
X109723864Y-83249279D01*
X109723860Y-83249278D01*
X109475070Y-83189548D01*
X109475067Y-83189547D01*
X109475064Y-83189547D01*
X109220000Y-83169474D01*
X108964935Y-83189547D01*
X108964931Y-83189547D01*
X108964930Y-83189548D01*
X108840535Y-83219413D01*
X108716135Y-83249279D01*
X108479760Y-83347188D01*
X108479757Y-83347190D01*
X108261603Y-83480875D01*
X108261598Y-83480878D01*
X108067044Y-83647044D01*
X107900878Y-83841598D01*
X107900875Y-83841603D01*
X107767190Y-84059757D01*
X107767188Y-84059760D01*
X107669279Y-84296135D01*
X107609547Y-84544935D01*
X107589474Y-84800000D01*
X91494434Y-84800000D01*
X91419599Y-84693124D01*
X91360877Y-84634402D01*
X91264877Y-84538402D01*
X91085639Y-84412898D01*
X91085640Y-84412898D01*
X91085638Y-84412897D01*
X90986484Y-84366661D01*
X90887330Y-84320425D01*
X90887326Y-84320424D01*
X90887322Y-84320422D01*
X90675977Y-84263793D01*
X90517881Y-84249961D01*
X90452813Y-84224508D01*
X90411834Y-84167917D01*
X90405162Y-84137244D01*
X90394207Y-84012023D01*
X90348543Y-83841603D01*
X90337577Y-83800677D01*
X90337576Y-83800676D01*
X90337575Y-83800670D01*
X90245102Y-83602362D01*
X90245100Y-83602359D01*
X90245099Y-83602357D01*
X90119599Y-83423124D01*
X90043663Y-83347188D01*
X89964877Y-83268402D01*
X89937565Y-83249278D01*
X89811376Y-83160918D01*
X89767751Y-83106341D01*
X89758500Y-83059344D01*
X89758500Y-76968757D01*
X89776960Y-76903661D01*
X89859814Y-76769334D01*
X89914999Y-76602797D01*
X89925500Y-76500009D01*
X89925499Y-75499992D01*
X89914999Y-75397203D01*
X89859814Y-75230666D01*
X89767712Y-75081344D01*
X89643656Y-74957288D01*
X89643655Y-74957287D01*
X89571902Y-74913029D01*
X89525178Y-74861081D01*
X89513000Y-74807491D01*
X89513000Y-74670440D01*
X89532685Y-74603401D01*
X89549319Y-74582759D01*
X89629816Y-74502262D01*
X89725789Y-74349522D01*
X89785368Y-74179255D01*
X89785369Y-74179249D01*
X89805565Y-74000003D01*
X89805565Y-73999996D01*
X89785369Y-73820750D01*
X89785368Y-73820745D01*
X89750562Y-73721276D01*
X89725789Y-73650478D01*
X89629816Y-73497738D01*
X89502262Y-73370184D01*
X89349523Y-73274211D01*
X89179254Y-73214631D01*
X89179249Y-73214630D01*
X89000004Y-73194435D01*
X88999996Y-73194435D01*
X88820750Y-73214630D01*
X88820742Y-73214632D01*
X88752954Y-73238352D01*
X88683175Y-73241913D01*
X88622548Y-73207184D01*
X88590321Y-73145190D01*
X88588000Y-73121310D01*
X88588000Y-72819402D01*
X88551053Y-72586131D01*
X88525519Y-72507546D01*
X88478068Y-72361508D01*
X88472459Y-72350500D01*
X88472458Y-72350498D01*
X88385736Y-72180294D01*
X88372840Y-72111625D01*
X88399117Y-72046885D01*
X88456224Y-72006628D01*
X88496221Y-72000000D01*
X89448638Y-72000000D01*
X89515677Y-72019685D01*
G37*
%TD.AperFunction*%
%TA.AperFunction,Conductor*%
G36*
X88519921Y-77734731D02*
G01*
X88554278Y-77795570D01*
X88557500Y-77823655D01*
X88557500Y-83059345D01*
X88537815Y-83126384D01*
X88504623Y-83160920D01*
X88351121Y-83268402D01*
X88196402Y-83423121D01*
X88070900Y-83602357D01*
X88070898Y-83602361D01*
X87978426Y-83800668D01*
X87978422Y-83800677D01*
X87921793Y-84012020D01*
X87921793Y-84012023D01*
X87902723Y-84230000D01*
X87921134Y-84440449D01*
X87921793Y-84447975D01*
X87921793Y-84447979D01*
X87978422Y-84659322D01*
X87978427Y-84659336D01*
X88008159Y-84723096D01*
X88018651Y-84792173D01*
X87990131Y-84855957D01*
X87931654Y-84894196D01*
X87895777Y-84899500D01*
X87125097Y-84899500D01*
X87058058Y-84879815D01*
X87037416Y-84863181D01*
X86374318Y-84200083D01*
X86340833Y-84138760D01*
X86337999Y-84112402D01*
X86337999Y-83499998D01*
X86337998Y-83499981D01*
X86327499Y-83397203D01*
X86327498Y-83397200D01*
X86272314Y-83230666D01*
X86180212Y-83081344D01*
X86136819Y-83037951D01*
X86103334Y-82976628D01*
X86100500Y-82950270D01*
X86100500Y-81417800D01*
X86120185Y-81350761D01*
X86172989Y-81305006D01*
X86185482Y-81300099D01*
X86269334Y-81272314D01*
X86418656Y-81180212D01*
X86542712Y-81056156D01*
X86634814Y-80906834D01*
X86689999Y-80740297D01*
X86700500Y-80637509D01*
X86700499Y-80012492D01*
X86689999Y-79909703D01*
X86634814Y-79743166D01*
X86634810Y-79743160D01*
X86634809Y-79743157D01*
X86588640Y-79668306D01*
X86570199Y-79600914D01*
X86591121Y-79534250D01*
X86606492Y-79515533D01*
X88232017Y-77890010D01*
X88333182Y-77750768D01*
X88388512Y-77708104D01*
X88458126Y-77702125D01*
X88519921Y-77734731D01*
G37*
%TD.AperFunction*%
%TA.AperFunction,Conductor*%
G36*
X84218833Y-80505895D02*
G01*
X84274767Y-80547767D01*
X84299184Y-80613231D01*
X84299500Y-80622070D01*
X84299500Y-80637497D01*
X84299501Y-80637519D01*
X84310000Y-80740296D01*
X84310001Y-80740299D01*
X84365185Y-80906831D01*
X84365186Y-80906834D01*
X84457288Y-81056156D01*
X84581344Y-81180212D01*
X84730666Y-81272314D01*
X84814505Y-81300095D01*
X84871948Y-81339866D01*
X84898772Y-81404382D01*
X84899500Y-81417800D01*
X84899500Y-82723840D01*
X84879815Y-82790879D01*
X84827011Y-82836634D01*
X84814505Y-82841545D01*
X84743170Y-82865183D01*
X84743169Y-82865184D01*
X84593842Y-82957289D01*
X84500181Y-83050951D01*
X84438858Y-83084436D01*
X84369166Y-83079452D01*
X84324819Y-83050951D01*
X84231157Y-82957289D01*
X84231156Y-82957288D01*
X84081834Y-82865186D01*
X83915297Y-82810001D01*
X83915295Y-82810000D01*
X83812510Y-82799500D01*
X83187498Y-82799500D01*
X83187480Y-82799501D01*
X83084703Y-82810000D01*
X83084700Y-82810001D01*
X82918168Y-82865185D01*
X82918163Y-82865187D01*
X82768842Y-82957289D01*
X82644787Y-83081344D01*
X82628312Y-83108056D01*
X82576364Y-83154781D01*
X82522773Y-83166960D01*
X81272689Y-83166960D01*
X81205650Y-83147275D01*
X81159895Y-83094471D01*
X81148689Y-83042960D01*
X81148689Y-82960129D01*
X81148688Y-82960123D01*
X81148383Y-82957289D01*
X81142281Y-82900517D01*
X81142225Y-82900366D01*
X81142215Y-82900238D01*
X81140498Y-82892969D01*
X81141676Y-82892690D01*
X81137245Y-82830674D01*
X81170734Y-82769353D01*
X81232060Y-82735872D01*
X81258410Y-82733040D01*
X81385747Y-82733040D01*
X81619018Y-82696093D01*
X81843642Y-82623108D01*
X82054084Y-82515883D01*
X82245160Y-82377057D01*
X84087821Y-80534394D01*
X84149142Y-80500911D01*
X84218833Y-80505895D01*
G37*
%TD.AperFunction*%
%TA.AperFunction,Conductor*%
G36*
X85543455Y-73662800D02*
G01*
X85581696Y-73721276D01*
X85587000Y-73757155D01*
X85587000Y-76239611D01*
X85567315Y-76306650D01*
X85550681Y-76327292D01*
X84914792Y-76963181D01*
X84853469Y-76996666D01*
X84827111Y-76999500D01*
X84774500Y-76999500D01*
X84707461Y-76979815D01*
X84661706Y-76927011D01*
X84650500Y-76875500D01*
X84650500Y-73986326D01*
X84670185Y-73919287D01*
X84722989Y-73873532D01*
X84742400Y-73866553D01*
X85004616Y-73796293D01*
X85373908Y-73661881D01*
X85410594Y-73644773D01*
X85479671Y-73634281D01*
X85543455Y-73662800D01*
G37*
%TD.AperFunction*%
%TD*%
%TA.AperFunction,Conductor*%
%TO.N,GND*%
G36*
X90842540Y-38495185D02*
G01*
X90888295Y-38547989D01*
X90899501Y-38599500D01*
X90899501Y-38800018D01*
X90910000Y-38902796D01*
X90910001Y-38902799D01*
X90942961Y-39002264D01*
X90945363Y-39072092D01*
X90909631Y-39132134D01*
X90847111Y-39163327D01*
X90801065Y-39162886D01*
X90761286Y-39154973D01*
X90733767Y-39149500D01*
X90566233Y-39149500D01*
X90566228Y-39149500D01*
X90401925Y-39182182D01*
X90401917Y-39182184D01*
X90247139Y-39246295D01*
X90107837Y-39339373D01*
X89989373Y-39457837D01*
X89896295Y-39597139D01*
X89832184Y-39751917D01*
X89832182Y-39751925D01*
X89799500Y-39916228D01*
X89799500Y-40083771D01*
X89832182Y-40248074D01*
X89832184Y-40248082D01*
X89896295Y-40402860D01*
X89989373Y-40542162D01*
X90107837Y-40660626D01*
X90200494Y-40722537D01*
X90247137Y-40753703D01*
X90401918Y-40817816D01*
X90566228Y-40850499D01*
X90566232Y-40850500D01*
X90566233Y-40850500D01*
X90733768Y-40850500D01*
X90733769Y-40850499D01*
X90898082Y-40817816D01*
X91052863Y-40753703D01*
X91192162Y-40660626D01*
X91310626Y-40542162D01*
X91403703Y-40402863D01*
X91467816Y-40248082D01*
X91500500Y-40083767D01*
X91500500Y-39916233D01*
X91467816Y-39751918D01*
X91432729Y-39667213D01*
X91425261Y-39597745D01*
X91456536Y-39535265D01*
X91516625Y-39499613D01*
X91559891Y-39496403D01*
X91599991Y-39500500D01*
X92900008Y-39500499D01*
X92908682Y-39499613D01*
X92940105Y-39496403D01*
X93002797Y-39489999D01*
X93169334Y-39434814D01*
X93318656Y-39342712D01*
X93442712Y-39218656D01*
X93519961Y-39093413D01*
X93571909Y-39046689D01*
X93640871Y-39035466D01*
X93704953Y-39063309D01*
X93743810Y-39121378D01*
X93749500Y-39158510D01*
X93749500Y-52498541D01*
X93749500Y-52498543D01*
X93749499Y-52498543D01*
X93787947Y-52691829D01*
X93787950Y-52691839D01*
X93863364Y-52873907D01*
X93863371Y-52873920D01*
X93972859Y-53037780D01*
X93972860Y-53037781D01*
X93972861Y-53037782D01*
X94112218Y-53177139D01*
X94112219Y-53177139D01*
X94119286Y-53184206D01*
X94119285Y-53184206D01*
X94119289Y-53184209D01*
X99222898Y-58287819D01*
X99256383Y-58349142D01*
X99251399Y-58418834D01*
X99209527Y-58474767D01*
X99144063Y-58499184D01*
X99135217Y-58499500D01*
X95656565Y-58499500D01*
X95589526Y-58479815D01*
X95547732Y-58434925D01*
X95537229Y-58415690D01*
X95537224Y-58415682D01*
X95365745Y-58186612D01*
X95365729Y-58186594D01*
X95163405Y-57984270D01*
X95163387Y-57984254D01*
X94934317Y-57812775D01*
X94934309Y-57812770D01*
X94683166Y-57675635D01*
X94683167Y-57675635D01*
X94549988Y-57625962D01*
X94415046Y-57575631D01*
X94415043Y-57575630D01*
X94415037Y-57575628D01*
X94135433Y-57514804D01*
X93850001Y-57494390D01*
X93849999Y-57494390D01*
X93564566Y-57514804D01*
X93284962Y-57575628D01*
X93016833Y-57675635D01*
X92765690Y-57812770D01*
X92765682Y-57812775D01*
X92536612Y-57984254D01*
X92536594Y-57984270D01*
X92334270Y-58186594D01*
X92334254Y-58186612D01*
X92162775Y-58415682D01*
X92162770Y-58415690D01*
X92025635Y-58666833D01*
X91925628Y-58934962D01*
X91864804Y-59214566D01*
X91844390Y-59499998D01*
X91844390Y-59500001D01*
X91864804Y-59785433D01*
X91925628Y-60065037D01*
X92025635Y-60333166D01*
X92162770Y-60584309D01*
X92162775Y-60584317D01*
X92334254Y-60813387D01*
X92334270Y-60813405D01*
X92536594Y-61015729D01*
X92536612Y-61015745D01*
X92765682Y-61187224D01*
X92765690Y-61187229D01*
X93016833Y-61324364D01*
X93016832Y-61324364D01*
X93016836Y-61324365D01*
X93016839Y-61324367D01*
X93284954Y-61424369D01*
X93284960Y-61424370D01*
X93284962Y-61424371D01*
X93564566Y-61485195D01*
X93564568Y-61485195D01*
X93564572Y-61485196D01*
X93818220Y-61503337D01*
X93849999Y-61505610D01*
X93850000Y-61505610D01*
X93850001Y-61505610D01*
X93878595Y-61503564D01*
X94135428Y-61485196D01*
X94415046Y-61424369D01*
X94683161Y-61324367D01*
X94934315Y-61187226D01*
X95163395Y-61015739D01*
X95365739Y-60813395D01*
X95537226Y-60584315D01*
X95547732Y-60565075D01*
X95597137Y-60515669D01*
X95656565Y-60500500D01*
X100200137Y-60500500D01*
X100267176Y-60520185D01*
X100312931Y-60572989D01*
X100322875Y-60642147D01*
X100293850Y-60705703D01*
X100287818Y-60712181D01*
X99536819Y-61463181D01*
X99475496Y-61496666D01*
X99449138Y-61499500D01*
X96181495Y-61499500D01*
X96178022Y-61499695D01*
X96178014Y-61499555D01*
X96170095Y-61500000D01*
X94999999Y-61500000D01*
X93000000Y-63499999D01*
X93000000Y-66876000D01*
X92980315Y-66943039D01*
X92927511Y-66988794D01*
X92876000Y-67000000D01*
X91551362Y-67000000D01*
X91484323Y-66980315D01*
X91463681Y-66963681D01*
X87500000Y-63000000D01*
X87483539Y-62993181D01*
X87439720Y-62980315D01*
X87393965Y-62927511D01*
X87384021Y-62858353D01*
X87411770Y-62796294D01*
X87620942Y-62547013D01*
X87655628Y-62497477D01*
X87871397Y-62189326D01*
X88089723Y-61811174D01*
X88234826Y-61500000D01*
X88274259Y-61415437D01*
X88274263Y-61415427D01*
X88343285Y-61225788D01*
X88347957Y-61212952D01*
X88389382Y-61156690D01*
X88454650Y-61131754D01*
X88523039Y-61146063D01*
X88530442Y-61150365D01*
X88650478Y-61225789D01*
X88820745Y-61285368D01*
X88820750Y-61285369D01*
X88999996Y-61305565D01*
X89000000Y-61305565D01*
X89000004Y-61305565D01*
X89179249Y-61285369D01*
X89179252Y-61285368D01*
X89179255Y-61285368D01*
X89349522Y-61225789D01*
X89502262Y-61129816D01*
X89629816Y-61002262D01*
X89725789Y-60849522D01*
X89785368Y-60679255D01*
X89796066Y-60584309D01*
X89805565Y-60500003D01*
X89805565Y-60499996D01*
X89785369Y-60320750D01*
X89785368Y-60320745D01*
X89726783Y-60153320D01*
X89725789Y-60150478D01*
X89629816Y-59997738D01*
X89629814Y-59997736D01*
X89629813Y-59997734D01*
X89627550Y-59994896D01*
X89626659Y-59992715D01*
X89626111Y-59991842D01*
X89626264Y-59991745D01*
X89601144Y-59930209D01*
X89600500Y-59917587D01*
X89600500Y-43159059D01*
X89600501Y-43159046D01*
X89600501Y-42990945D01*
X89600501Y-42990943D01*
X89559577Y-42838215D01*
X89530639Y-42788095D01*
X89480520Y-42701284D01*
X89368716Y-42589480D01*
X89368715Y-42589479D01*
X89364385Y-42585149D01*
X89364374Y-42585139D01*
X85981117Y-39201882D01*
X85947632Y-39140559D01*
X85949023Y-39082107D01*
X85966207Y-39017977D01*
X85980038Y-38859881D01*
X86005490Y-38794813D01*
X86062081Y-38753834D01*
X86092754Y-38747162D01*
X86217977Y-38736207D01*
X86429330Y-38679575D01*
X86627639Y-38587102D01*
X86683498Y-38547989D01*
X86754998Y-38497925D01*
X86821204Y-38475598D01*
X86826121Y-38475500D01*
X90775501Y-38475500D01*
X90842540Y-38495185D01*
G37*
%TD.AperFunction*%
%TA.AperFunction,Conductor*%
G36*
X145947635Y-35520185D02*
G01*
X145993390Y-35572989D01*
X146004592Y-35623585D01*
X146065800Y-43934200D01*
X154376417Y-43995407D01*
X154443306Y-44015584D01*
X154488671Y-44068724D01*
X154499500Y-44119403D01*
X154499500Y-63376000D01*
X154479815Y-63443039D01*
X154427011Y-63488794D01*
X154375500Y-63500000D01*
X148551362Y-63500000D01*
X148484323Y-63480315D01*
X148463681Y-63463681D01*
X143036319Y-58036319D01*
X143002834Y-57974996D01*
X143000000Y-57948638D01*
X143000000Y-50000000D01*
X141000000Y-48000000D01*
X103500000Y-48000000D01*
X103499999Y-48000000D01*
X102000000Y-49499999D01*
X102000000Y-57524387D01*
X101980315Y-57591426D01*
X101927511Y-57637181D01*
X101858353Y-57647125D01*
X101804877Y-57625962D01*
X101652734Y-57519432D01*
X101652732Y-57519431D01*
X101446497Y-57423261D01*
X101446488Y-57423258D01*
X101226697Y-57364366D01*
X101226687Y-57364364D01*
X101164905Y-57358959D01*
X101099836Y-57333506D01*
X101088032Y-57323112D01*
X95786819Y-52021898D01*
X95753334Y-51960575D01*
X95750500Y-51934217D01*
X95750500Y-46697870D01*
X105799500Y-46697870D01*
X105799501Y-46697876D01*
X105805908Y-46757483D01*
X105856202Y-46892328D01*
X105856206Y-46892335D01*
X105942452Y-47007544D01*
X105942455Y-47007547D01*
X106057664Y-47093793D01*
X106057671Y-47093797D01*
X106192517Y-47144091D01*
X106192516Y-47144091D01*
X106199444Y-47144835D01*
X106252127Y-47150500D01*
X107247872Y-47150499D01*
X107307483Y-47144091D01*
X107442331Y-47093796D01*
X107557546Y-47007546D01*
X107643796Y-46892331D01*
X107694091Y-46757483D01*
X107700500Y-46697873D01*
X107700500Y-46697870D01*
X119299500Y-46697870D01*
X119299501Y-46697876D01*
X119305908Y-46757483D01*
X119356202Y-46892328D01*
X119356206Y-46892335D01*
X119442452Y-47007544D01*
X119442455Y-47007547D01*
X119557664Y-47093793D01*
X119557671Y-47093797D01*
X119692517Y-47144091D01*
X119692516Y-47144091D01*
X119699444Y-47144835D01*
X119752127Y-47150500D01*
X120747872Y-47150499D01*
X120807483Y-47144091D01*
X120942331Y-47093796D01*
X121057546Y-47007546D01*
X121143796Y-46892331D01*
X121194091Y-46757483D01*
X121200500Y-46697873D01*
X121200500Y-46697870D01*
X126799500Y-46697870D01*
X126799501Y-46697876D01*
X126805908Y-46757483D01*
X126856202Y-46892328D01*
X126856206Y-46892335D01*
X126942452Y-47007544D01*
X126942455Y-47007547D01*
X127057664Y-47093793D01*
X127057671Y-47093797D01*
X127192517Y-47144091D01*
X127192516Y-47144091D01*
X127199444Y-47144835D01*
X127252127Y-47150500D01*
X128247872Y-47150499D01*
X128307483Y-47144091D01*
X128442331Y-47093796D01*
X128557546Y-47007546D01*
X128643796Y-46892331D01*
X128694091Y-46757483D01*
X128700500Y-46697873D01*
X128700500Y-46697870D01*
X140299500Y-46697870D01*
X140299501Y-46697876D01*
X140305908Y-46757483D01*
X140356202Y-46892328D01*
X140356206Y-46892335D01*
X140442452Y-47007544D01*
X140442455Y-47007547D01*
X140557664Y-47093793D01*
X140557671Y-47093797D01*
X140692517Y-47144091D01*
X140692516Y-47144091D01*
X140699444Y-47144835D01*
X140752127Y-47150500D01*
X141747872Y-47150499D01*
X141807483Y-47144091D01*
X141942331Y-47093796D01*
X142057546Y-47007546D01*
X142143796Y-46892331D01*
X142194091Y-46757483D01*
X142200500Y-46697873D01*
X142200499Y-44602128D01*
X142194091Y-44542517D01*
X142158833Y-44447986D01*
X142143797Y-44407671D01*
X142143793Y-44407664D01*
X142057547Y-44292455D01*
X142057544Y-44292452D01*
X141942335Y-44206206D01*
X141942328Y-44206202D01*
X141807482Y-44155908D01*
X141807483Y-44155908D01*
X141747883Y-44149501D01*
X141747881Y-44149500D01*
X141747873Y-44149500D01*
X141747864Y-44149500D01*
X140752129Y-44149500D01*
X140752123Y-44149501D01*
X140692516Y-44155908D01*
X140557671Y-44206202D01*
X140557664Y-44206206D01*
X140442455Y-44292452D01*
X140442452Y-44292455D01*
X140356206Y-44407664D01*
X140356202Y-44407671D01*
X140305908Y-44542517D01*
X140299501Y-44602116D01*
X140299501Y-44602123D01*
X140299500Y-44602135D01*
X140299500Y-46697870D01*
X128700500Y-46697870D01*
X128700499Y-44602128D01*
X128694091Y-44542517D01*
X128658833Y-44447986D01*
X128643797Y-44407671D01*
X128643793Y-44407664D01*
X128557547Y-44292455D01*
X128557544Y-44292452D01*
X128442335Y-44206206D01*
X128442328Y-44206202D01*
X128307482Y-44155908D01*
X128307483Y-44155908D01*
X128247883Y-44149501D01*
X128247881Y-44149500D01*
X128247873Y-44149500D01*
X128247864Y-44149500D01*
X127252129Y-44149500D01*
X127252123Y-44149501D01*
X127192516Y-44155908D01*
X127057671Y-44206202D01*
X127057664Y-44206206D01*
X126942455Y-44292452D01*
X126942452Y-44292455D01*
X126856206Y-44407664D01*
X126856202Y-44407671D01*
X126805908Y-44542517D01*
X126799501Y-44602116D01*
X126799501Y-44602123D01*
X126799500Y-44602135D01*
X126799500Y-46697870D01*
X121200500Y-46697870D01*
X121200499Y-44602128D01*
X121194091Y-44542517D01*
X121158833Y-44447986D01*
X121143797Y-44407671D01*
X121143793Y-44407664D01*
X121057547Y-44292455D01*
X121057544Y-44292452D01*
X120942335Y-44206206D01*
X120942328Y-44206202D01*
X120807482Y-44155908D01*
X120807483Y-44155908D01*
X120747883Y-44149501D01*
X120747881Y-44149500D01*
X120747873Y-44149500D01*
X120747864Y-44149500D01*
X119752129Y-44149500D01*
X119752123Y-44149501D01*
X119692516Y-44155908D01*
X119557671Y-44206202D01*
X119557664Y-44206206D01*
X119442455Y-44292452D01*
X119442452Y-44292455D01*
X119356206Y-44407664D01*
X119356202Y-44407671D01*
X119305908Y-44542517D01*
X119299501Y-44602116D01*
X119299501Y-44602123D01*
X119299500Y-44602135D01*
X119299500Y-46697870D01*
X107700500Y-46697870D01*
X107700499Y-44602128D01*
X107694091Y-44542517D01*
X107658833Y-44447986D01*
X107643797Y-44407671D01*
X107643793Y-44407664D01*
X107557547Y-44292455D01*
X107557544Y-44292452D01*
X107442335Y-44206206D01*
X107442328Y-44206202D01*
X107307482Y-44155908D01*
X107307483Y-44155908D01*
X107247883Y-44149501D01*
X107247881Y-44149500D01*
X107247873Y-44149500D01*
X107247864Y-44149500D01*
X106252129Y-44149500D01*
X106252123Y-44149501D01*
X106192516Y-44155908D01*
X106057671Y-44206202D01*
X106057664Y-44206206D01*
X105942455Y-44292452D01*
X105942452Y-44292455D01*
X105856206Y-44407664D01*
X105856202Y-44407671D01*
X105805908Y-44542517D01*
X105799501Y-44602116D01*
X105799501Y-44602123D01*
X105799500Y-44602135D01*
X105799500Y-46697870D01*
X95750500Y-46697870D01*
X95750500Y-39110199D01*
X95770185Y-39043160D01*
X95779471Y-39030664D01*
X95905048Y-38857820D01*
X95905047Y-38857820D01*
X95905051Y-38857816D01*
X96001557Y-38668412D01*
X96067246Y-38466243D01*
X96100500Y-38256287D01*
X96100500Y-37743713D01*
X96067246Y-37533757D01*
X96001557Y-37331588D01*
X95905051Y-37142184D01*
X95905049Y-37142181D01*
X95905048Y-37142179D01*
X95780109Y-36970213D01*
X95629786Y-36819890D01*
X95457820Y-36694951D01*
X95268415Y-36598444D01*
X95268403Y-36598440D01*
X95179442Y-36569534D01*
X95170319Y-36566167D01*
X95103285Y-36538402D01*
X95041836Y-36512949D01*
X95041828Y-36512947D01*
X94848543Y-36474500D01*
X94848541Y-36474500D01*
X94651459Y-36474500D01*
X94651457Y-36474500D01*
X94458166Y-36512948D01*
X94458159Y-36512950D01*
X94329684Y-36566166D01*
X94320552Y-36569535D01*
X94231594Y-36598440D01*
X94231585Y-36598444D01*
X94042179Y-36694951D01*
X93870215Y-36819889D01*
X93731398Y-36958706D01*
X93670075Y-36992190D01*
X93600383Y-36987206D01*
X93544450Y-36945334D01*
X93538178Y-36936120D01*
X93442712Y-36781344D01*
X93318657Y-36657289D01*
X93318656Y-36657288D01*
X93169334Y-36565186D01*
X93002797Y-36510001D01*
X93002795Y-36510000D01*
X92900016Y-36499500D01*
X92900009Y-36499500D01*
X92486435Y-36499500D01*
X92462244Y-36497117D01*
X92427053Y-36490117D01*
X92348543Y-36474500D01*
X92348541Y-36474500D01*
X86754713Y-36474500D01*
X86687674Y-36454815D01*
X86683590Y-36452075D01*
X86627643Y-36412900D01*
X86627639Y-36412898D01*
X86429330Y-36320425D01*
X86429326Y-36320424D01*
X86429322Y-36320422D01*
X86217977Y-36263793D01*
X86000002Y-36244723D01*
X85999998Y-36244723D01*
X85854682Y-36257436D01*
X85782023Y-36263793D01*
X85782020Y-36263793D01*
X85570677Y-36320422D01*
X85570668Y-36320426D01*
X85372361Y-36412898D01*
X85372357Y-36412900D01*
X85193121Y-36538402D01*
X85038402Y-36693121D01*
X84912900Y-36872357D01*
X84912898Y-36872361D01*
X84820426Y-37070668D01*
X84820422Y-37070677D01*
X84763793Y-37282020D01*
X84763793Y-37282023D01*
X84749961Y-37440118D01*
X84724508Y-37505186D01*
X84667917Y-37546165D01*
X84637240Y-37552838D01*
X84546673Y-37560761D01*
X84512023Y-37563793D01*
X84512020Y-37563793D01*
X84300677Y-37620422D01*
X84300668Y-37620426D01*
X84102361Y-37712898D01*
X84102357Y-37712900D01*
X83923121Y-37838402D01*
X83768402Y-37993121D01*
X83642900Y-38172357D01*
X83642898Y-38172361D01*
X83550426Y-38370668D01*
X83550422Y-38370677D01*
X83493793Y-38582020D01*
X83493793Y-38582024D01*
X83474723Y-38799997D01*
X83474723Y-38800002D01*
X83493793Y-39017975D01*
X83493793Y-39017979D01*
X83550422Y-39229322D01*
X83550424Y-39229326D01*
X83550425Y-39229330D01*
X83558336Y-39246295D01*
X83642897Y-39427638D01*
X83647922Y-39434814D01*
X83768402Y-39606877D01*
X83923123Y-39761598D01*
X84102361Y-39887102D01*
X84300670Y-39979575D01*
X84512023Y-40036207D01*
X84682450Y-40051117D01*
X84729998Y-40055277D01*
X84730000Y-40055277D01*
X84730002Y-40055277D01*
X84758254Y-40052805D01*
X84947977Y-40036207D01*
X85012108Y-40019023D01*
X85081957Y-40020686D01*
X85131882Y-40051117D01*
X88363181Y-43282416D01*
X88396666Y-43343739D01*
X88399500Y-43370097D01*
X88399500Y-45288815D01*
X88379815Y-45355854D01*
X88327011Y-45401609D01*
X88257853Y-45411553D01*
X88194297Y-45382528D01*
X88163118Y-45341220D01*
X88089727Y-45183835D01*
X88089719Y-45183819D01*
X87992201Y-45014913D01*
X87871397Y-44805674D01*
X87871389Y-44805663D01*
X87871385Y-44805656D01*
X87620942Y-44447986D01*
X87456969Y-44252572D01*
X87340268Y-44113493D01*
X87031507Y-43804732D01*
X86938787Y-43726930D01*
X86697013Y-43524057D01*
X86339343Y-43273614D01*
X86339332Y-43273607D01*
X86339326Y-43273603D01*
X86140930Y-43159059D01*
X85961180Y-43055280D01*
X85961164Y-43055272D01*
X85565449Y-42870746D01*
X85565434Y-42870740D01*
X85565432Y-42870739D01*
X85367531Y-42798709D01*
X85155105Y-42721392D01*
X84733344Y-42608383D01*
X84733347Y-42608383D01*
X84733337Y-42608381D01*
X84733331Y-42608379D01*
X84733327Y-42608379D01*
X84303322Y-42532557D01*
X83868330Y-42494500D01*
X83868327Y-42494500D01*
X83431673Y-42494500D01*
X83431669Y-42494500D01*
X82996679Y-42532557D01*
X82996675Y-42532557D01*
X82566672Y-42608379D01*
X82566655Y-42608383D01*
X82144899Y-42721391D01*
X82144876Y-42721398D01*
X82041068Y-42759181D01*
X82030753Y-42762433D01*
X81895405Y-42798701D01*
X81895395Y-42798703D01*
X81895384Y-42798707D01*
X81786838Y-42838215D01*
X81526079Y-42933124D01*
X81169937Y-43099195D01*
X81169913Y-43099207D01*
X80829587Y-43295695D01*
X80829572Y-43295704D01*
X80507652Y-43521115D01*
X80206607Y-43773724D01*
X79928724Y-44051607D01*
X79676115Y-44352652D01*
X79450704Y-44674572D01*
X79450695Y-44674587D01*
X79254207Y-45014913D01*
X79254195Y-45014937D01*
X79088124Y-45371079D01*
X78953709Y-45740379D01*
X78953701Y-45740405D01*
X78917433Y-45875753D01*
X78914181Y-45886068D01*
X78876398Y-45989876D01*
X78876391Y-45989899D01*
X78763383Y-46411655D01*
X78763379Y-46411672D01*
X78687557Y-46841675D01*
X78687557Y-46841679D01*
X78649500Y-47276669D01*
X78649500Y-59718330D01*
X78687557Y-60153320D01*
X78687557Y-60153324D01*
X78760161Y-60565075D01*
X78763381Y-60583337D01*
X78763643Y-60584315D01*
X78876392Y-61005105D01*
X78921783Y-61129815D01*
X79023762Y-61410001D01*
X79025740Y-61415434D01*
X79025746Y-61415449D01*
X79122117Y-61622117D01*
X73000000Y-55500000D01*
X73000000Y-35500500D01*
X145880596Y-35500500D01*
X145947635Y-35520185D01*
G37*
%TD.AperFunction*%
%TD*%
%TA.AperFunction,Conductor*%
%TO.N,VCC*%
G36*
X83431352Y-64500471D02*
G01*
X83431673Y-64500500D01*
X83868327Y-64500500D01*
X83868647Y-64500471D01*
X83879456Y-64500000D01*
X87448638Y-64500000D01*
X87515677Y-64519685D01*
X87536319Y-64536319D01*
X88000000Y-65000000D01*
X88000000Y-71738101D01*
X87930729Y-71856771D01*
X87906273Y-71917025D01*
X87905368Y-71919027D01*
X87904450Y-71921517D01*
X87869862Y-72061178D01*
X87869862Y-72061179D01*
X87876024Y-72204925D01*
X87876024Y-72204928D01*
X87888918Y-72273585D01*
X87888920Y-72273593D01*
X87935333Y-72409789D01*
X88000000Y-72536706D01*
X88000000Y-73499999D01*
X88000000Y-74847554D01*
X87980315Y-74914593D01*
X87927511Y-74960348D01*
X87858353Y-74970292D01*
X87810904Y-74953093D01*
X87669128Y-74865645D01*
X87669119Y-74865641D01*
X87502697Y-74810494D01*
X87502690Y-74810493D01*
X87399986Y-74800000D01*
X87337500Y-74800000D01*
X87337500Y-77199999D01*
X87399972Y-77199999D01*
X87399986Y-77199998D01*
X87498770Y-77189907D01*
X87567463Y-77202677D01*
X87618347Y-77250557D01*
X87635268Y-77318347D01*
X87612852Y-77384524D01*
X87599053Y-77400946D01*
X86887830Y-78112168D01*
X86826507Y-78145653D01*
X86756815Y-78140669D01*
X86700882Y-78098797D01*
X86682443Y-78063491D01*
X86634358Y-77918380D01*
X86634356Y-77918375D01*
X86542315Y-77769154D01*
X86418345Y-77645184D01*
X86269124Y-77553143D01*
X86269119Y-77553141D01*
X86102697Y-77497994D01*
X86102690Y-77497993D01*
X85999986Y-77487500D01*
X85750000Y-77487500D01*
X85750000Y-78626000D01*
X85730315Y-78693039D01*
X85677511Y-78738794D01*
X85626000Y-78750000D01*
X84300001Y-78750000D01*
X84300001Y-78812486D01*
X84310494Y-78915197D01*
X84354709Y-79048629D01*
X84357111Y-79118457D01*
X84324684Y-79175314D01*
X81359151Y-82140848D01*
X81297828Y-82174333D01*
X81228136Y-82169349D01*
X81172203Y-82127477D01*
X81147786Y-82062013D01*
X81148124Y-82043159D01*
X81148012Y-82043153D01*
X81148182Y-82039971D01*
X81148184Y-82039877D01*
X81148190Y-82039821D01*
X81148190Y-81482540D01*
X77610730Y-81482540D01*
X77610730Y-82039844D01*
X77617131Y-82099372D01*
X77617133Y-82099379D01*
X77667375Y-82234086D01*
X77667377Y-82234089D01*
X77717982Y-82301688D01*
X77742400Y-82367153D01*
X77727549Y-82435426D01*
X77678144Y-82484832D01*
X77618716Y-82500000D01*
X77533353Y-82500000D01*
X77515707Y-82498738D01*
X77486231Y-82494500D01*
X77486230Y-82494500D01*
X74051362Y-82494500D01*
X74051360Y-82494500D01*
X73997311Y-82497397D01*
X73997310Y-82497397D01*
X73970977Y-82500229D01*
X73970950Y-82500232D01*
X73917554Y-82508885D01*
X73917552Y-82508885D01*
X73782747Y-82559166D01*
X73721422Y-82592651D01*
X73606240Y-82678876D01*
X73606228Y-82678886D01*
X72678892Y-83606223D01*
X72678855Y-83606262D01*
X72642728Y-83646480D01*
X72642718Y-83646492D01*
X72626076Y-83667143D01*
X72594433Y-83711025D01*
X72534663Y-83841899D01*
X72514976Y-83908944D01*
X72494500Y-84051363D01*
X72494500Y-88448640D01*
X72497397Y-88502688D01*
X72497397Y-88502689D01*
X72500229Y-88529022D01*
X72500232Y-88529049D01*
X72508885Y-88582445D01*
X72508885Y-88582447D01*
X72559166Y-88717252D01*
X72559168Y-88717257D01*
X72592653Y-88778580D01*
X72678877Y-88893761D01*
X72678881Y-88893765D01*
X72678886Y-88893771D01*
X73217404Y-89432288D01*
X73606239Y-89821123D01*
X73606255Y-89821137D01*
X73606262Y-89821144D01*
X73646480Y-89857271D01*
X73646492Y-89857281D01*
X73646500Y-89857288D01*
X73667142Y-89873922D01*
X73711026Y-89905567D01*
X73841903Y-89965338D01*
X73908942Y-89985023D01*
X73908946Y-89985024D01*
X74051362Y-90005500D01*
X76954138Y-90005500D01*
X77021177Y-90025185D01*
X77041819Y-90041819D01*
X77500000Y-90500000D01*
X82448638Y-90500000D01*
X82515677Y-90519685D01*
X82536319Y-90536319D01*
X82963681Y-90963681D01*
X82997166Y-91025004D01*
X83000000Y-91051362D01*
X83000000Y-114375500D01*
X82980315Y-114442539D01*
X82927511Y-114488294D01*
X82876000Y-114499500D01*
X64125051Y-114499500D01*
X64058012Y-114479815D01*
X64012257Y-114427011D01*
X64001051Y-114375291D01*
X64005639Y-111646661D01*
X64015160Y-105984840D01*
X64015159Y-105984840D01*
X55624709Y-105998949D01*
X55557636Y-105979377D01*
X55511792Y-105926650D01*
X55500500Y-105874949D01*
X55500500Y-98000000D01*
X61857125Y-98000000D01*
X61876584Y-98209998D01*
X61876584Y-98210000D01*
X61876585Y-98210003D01*
X61913596Y-98340084D01*
X61934302Y-98412857D01*
X62028308Y-98601646D01*
X62155406Y-98769952D01*
X62311263Y-98912033D01*
X62311265Y-98912035D01*
X62490573Y-99023058D01*
X62490574Y-99023058D01*
X62490577Y-99023060D01*
X62687237Y-99099246D01*
X62894549Y-99138000D01*
X62894551Y-99138000D01*
X63105449Y-99138000D01*
X63105451Y-99138000D01*
X63312763Y-99099246D01*
X63509423Y-99023060D01*
X63688736Y-98912034D01*
X63844595Y-98769950D01*
X63908486Y-98685344D01*
X66862500Y-98685344D01*
X66868901Y-98744872D01*
X66868903Y-98744879D01*
X66919145Y-98879586D01*
X66919149Y-98879593D01*
X67005309Y-98994687D01*
X67005312Y-98994690D01*
X67120406Y-99080850D01*
X67120413Y-99080854D01*
X67255120Y-99131096D01*
X67255127Y-99131098D01*
X67314655Y-99137499D01*
X67314672Y-99137500D01*
X67750000Y-99137500D01*
X67750000Y-98346409D01*
X67835956Y-98396037D01*
X67944048Y-98425000D01*
X68055952Y-98425000D01*
X68164044Y-98396037D01*
X68250000Y-98346409D01*
X68250000Y-99137500D01*
X68685328Y-99137500D01*
X68685344Y-99137499D01*
X68744872Y-99131098D01*
X68744879Y-99131096D01*
X68879586Y-99080854D01*
X68879593Y-99080850D01*
X68994687Y-98994690D01*
X68994690Y-98994687D01*
X69080850Y-98879593D01*
X69080854Y-98879586D01*
X69131096Y-98744879D01*
X69131098Y-98744872D01*
X69131800Y-98738344D01*
X80309500Y-98738344D01*
X80315901Y-98797872D01*
X80315903Y-98797879D01*
X80366145Y-98932586D01*
X80366149Y-98932593D01*
X80452309Y-99047687D01*
X80452312Y-99047690D01*
X80567406Y-99133850D01*
X80567413Y-99133854D01*
X80702120Y-99184096D01*
X80702127Y-99184098D01*
X80761655Y-99190499D01*
X80761672Y-99190500D01*
X81250000Y-99190500D01*
X81250000Y-98346409D01*
X81335956Y-98396037D01*
X81444048Y-98425000D01*
X81555952Y-98425000D01*
X81664044Y-98396037D01*
X81750000Y-98346409D01*
X81750000Y-99190500D01*
X82238328Y-99190500D01*
X82238344Y-99190499D01*
X82297872Y-99184098D01*
X82297879Y-99184096D01*
X82432586Y-99133854D01*
X82432593Y-99133850D01*
X82547687Y-99047690D01*
X82547690Y-99047687D01*
X82633850Y-98932593D01*
X82633854Y-98932586D01*
X82684096Y-98797879D01*
X82684098Y-98797872D01*
X82690499Y-98738344D01*
X82690500Y-98738327D01*
X82690500Y-98250000D01*
X81846410Y-98250000D01*
X81896037Y-98164044D01*
X81925000Y-98055952D01*
X81925000Y-97944048D01*
X81896037Y-97835956D01*
X81846410Y-97750000D01*
X82690500Y-97750000D01*
X82690500Y-97261672D01*
X82690499Y-97261655D01*
X82684098Y-97202127D01*
X82684096Y-97202120D01*
X82633854Y-97067413D01*
X82633850Y-97067406D01*
X82547690Y-96952312D01*
X82547687Y-96952309D01*
X82432593Y-96866149D01*
X82432586Y-96866145D01*
X82297879Y-96815903D01*
X82297872Y-96815901D01*
X82238344Y-96809500D01*
X81750000Y-96809500D01*
X81750000Y-97653590D01*
X81664044Y-97603963D01*
X81555952Y-97575000D01*
X81444048Y-97575000D01*
X81335956Y-97603963D01*
X81250000Y-97653590D01*
X81250000Y-96809500D01*
X80761655Y-96809500D01*
X80702127Y-96815901D01*
X80702120Y-96815903D01*
X80567413Y-96866145D01*
X80567406Y-96866149D01*
X80452312Y-96952309D01*
X80452309Y-96952312D01*
X80366149Y-97067406D01*
X80366145Y-97067413D01*
X80315903Y-97202120D01*
X80315901Y-97202127D01*
X80309500Y-97261655D01*
X80309500Y-97750000D01*
X81153590Y-97750000D01*
X81103963Y-97835956D01*
X81075000Y-97944048D01*
X81075000Y-98055952D01*
X81103963Y-98164044D01*
X81153590Y-98250000D01*
X80309500Y-98250000D01*
X80309500Y-98738344D01*
X69131800Y-98738344D01*
X69137499Y-98685344D01*
X69137500Y-98685327D01*
X69137500Y-98250000D01*
X68346410Y-98250000D01*
X68396037Y-98164044D01*
X68425000Y-98055952D01*
X68425000Y-97944048D01*
X68396037Y-97835956D01*
X68346410Y-97750000D01*
X69137500Y-97750000D01*
X69137500Y-97314672D01*
X69137499Y-97314655D01*
X69131098Y-97255127D01*
X69131096Y-97255120D01*
X69080854Y-97120413D01*
X69080850Y-97120406D01*
X68994690Y-97005312D01*
X68994687Y-97005309D01*
X68879593Y-96919149D01*
X68879586Y-96919145D01*
X68744879Y-96868903D01*
X68744872Y-96868901D01*
X68685344Y-96862500D01*
X68250000Y-96862500D01*
X68250000Y-97653590D01*
X68164044Y-97603963D01*
X68055952Y-97575000D01*
X67944048Y-97575000D01*
X67835956Y-97603963D01*
X67750000Y-97653590D01*
X67750000Y-96862500D01*
X67314655Y-96862500D01*
X67255127Y-96868901D01*
X67255120Y-96868903D01*
X67120413Y-96919145D01*
X67120406Y-96919149D01*
X67005312Y-97005309D01*
X67005309Y-97005312D01*
X66919149Y-97120406D01*
X66919145Y-97120413D01*
X66868903Y-97255120D01*
X66868901Y-97255127D01*
X66862500Y-97314655D01*
X66862500Y-97750000D01*
X67653590Y-97750000D01*
X67603963Y-97835956D01*
X67575000Y-97944048D01*
X67575000Y-98055952D01*
X67603963Y-98164044D01*
X67653590Y-98250000D01*
X66862500Y-98250000D01*
X66862500Y-98685344D01*
X63908486Y-98685344D01*
X63971692Y-98601646D01*
X64065699Y-98412854D01*
X64123415Y-98210003D01*
X64142875Y-98000000D01*
X64123415Y-97789997D01*
X64065699Y-97587146D01*
X63971692Y-97398354D01*
X63844595Y-97230050D01*
X63844593Y-97230047D01*
X63688736Y-97087966D01*
X63688734Y-97087964D01*
X63509426Y-96976941D01*
X63509420Y-96976939D01*
X63445850Y-96952312D01*
X63312763Y-96900754D01*
X63105451Y-96862000D01*
X62894549Y-96862000D01*
X62687237Y-96900754D01*
X62687234Y-96900754D01*
X62687234Y-96900755D01*
X62490579Y-96976939D01*
X62490573Y-96976941D01*
X62311265Y-97087964D01*
X62311263Y-97087966D01*
X62155406Y-97230047D01*
X62028308Y-97398353D01*
X61934302Y-97587142D01*
X61876584Y-97790001D01*
X61857125Y-98000000D01*
X55500500Y-98000000D01*
X55500500Y-91025001D01*
X61099500Y-91025001D01*
X61099501Y-91025019D01*
X61110000Y-91127796D01*
X61110001Y-91127799D01*
X61165115Y-91294119D01*
X61165186Y-91294334D01*
X61257288Y-91443656D01*
X61381344Y-91567712D01*
X61530666Y-91659814D01*
X61697203Y-91714999D01*
X61799991Y-91725500D01*
X62400008Y-91725499D01*
X62400016Y-91725498D01*
X62400019Y-91725498D01*
X62456302Y-91719748D01*
X62502797Y-91714999D01*
X62669334Y-91659814D01*
X62818656Y-91567712D01*
X62942712Y-91443656D01*
X62944752Y-91440347D01*
X62946745Y-91438555D01*
X62947193Y-91437989D01*
X62947289Y-91438065D01*
X62996694Y-91393623D01*
X63065656Y-91382395D01*
X63129740Y-91410234D01*
X63155829Y-91440339D01*
X63157681Y-91443341D01*
X63157683Y-91443344D01*
X63281654Y-91567315D01*
X63430875Y-91659356D01*
X63430880Y-91659358D01*
X63597302Y-91714505D01*
X63597309Y-91714506D01*
X63700019Y-91724999D01*
X63749999Y-91724998D01*
X63750000Y-91724998D01*
X63750000Y-90750000D01*
X64250000Y-90750000D01*
X64250000Y-91724999D01*
X64299972Y-91724999D01*
X64299986Y-91724998D01*
X64402697Y-91714505D01*
X64569119Y-91659358D01*
X64569124Y-91659356D01*
X64718345Y-91567315D01*
X64842315Y-91443345D01*
X64934356Y-91294124D01*
X64934358Y-91294119D01*
X64989505Y-91127697D01*
X64989506Y-91127690D01*
X64999999Y-91024986D01*
X65000000Y-91024973D01*
X65000000Y-90750000D01*
X64250000Y-90750000D01*
X63750000Y-90750000D01*
X63750000Y-89275000D01*
X64250000Y-89275000D01*
X64250000Y-90250000D01*
X64999999Y-90250000D01*
X64999999Y-89975028D01*
X64999998Y-89975013D01*
X64989505Y-89872302D01*
X64934358Y-89705880D01*
X64934356Y-89705875D01*
X64842315Y-89556654D01*
X64718345Y-89432684D01*
X64569124Y-89340643D01*
X64569119Y-89340641D01*
X64402697Y-89285494D01*
X64402690Y-89285493D01*
X64299986Y-89275000D01*
X64250000Y-89275000D01*
X63750000Y-89275000D01*
X63749999Y-89274999D01*
X63700029Y-89275000D01*
X63700011Y-89275001D01*
X63597302Y-89285494D01*
X63430880Y-89340641D01*
X63430875Y-89340643D01*
X63281654Y-89432684D01*
X63157683Y-89556655D01*
X63157679Y-89556660D01*
X63155826Y-89559665D01*
X63154018Y-89561290D01*
X63153202Y-89562323D01*
X63153025Y-89562183D01*
X63103874Y-89606385D01*
X63034911Y-89617601D01*
X62970831Y-89589752D01*
X62944753Y-89559653D01*
X62944737Y-89559628D01*
X62942712Y-89556344D01*
X62818656Y-89432288D01*
X62669334Y-89340186D01*
X62502797Y-89285001D01*
X62502795Y-89285000D01*
X62400010Y-89274500D01*
X61799998Y-89274500D01*
X61799980Y-89274501D01*
X61697203Y-89285000D01*
X61697200Y-89285001D01*
X61530668Y-89340185D01*
X61530663Y-89340187D01*
X61381342Y-89432289D01*
X61257289Y-89556342D01*
X61165187Y-89705663D01*
X61165185Y-89705668D01*
X61165115Y-89705880D01*
X61110001Y-89872203D01*
X61110001Y-89872204D01*
X61110000Y-89872204D01*
X61099500Y-89974983D01*
X61099500Y-91025001D01*
X55500500Y-91025001D01*
X55500500Y-86637501D01*
X56799500Y-86637501D01*
X56799501Y-86637519D01*
X56810000Y-86740296D01*
X56810001Y-86740299D01*
X56865185Y-86906831D01*
X56865186Y-86906834D01*
X56957288Y-87056156D01*
X57081344Y-87180212D01*
X57230666Y-87272314D01*
X57397203Y-87327499D01*
X57499991Y-87338000D01*
X58500008Y-87337999D01*
X58500016Y-87337998D01*
X58500019Y-87337998D01*
X58556302Y-87332248D01*
X58602797Y-87327499D01*
X58769334Y-87272314D01*
X58918656Y-87180212D01*
X59042712Y-87056156D01*
X59134814Y-86906834D01*
X59189999Y-86740297D01*
X59200500Y-86637509D01*
X59200499Y-86012492D01*
X59191404Y-85923462D01*
X59189999Y-85909703D01*
X59189998Y-85909700D01*
X59153983Y-85801014D01*
X59134814Y-85743166D01*
X59042712Y-85593844D01*
X58949049Y-85500181D01*
X58915564Y-85438858D01*
X58920548Y-85369166D01*
X58949049Y-85324819D01*
X58968204Y-85305664D01*
X59042712Y-85231156D01*
X59134814Y-85081834D01*
X59189999Y-84915297D01*
X59200500Y-84812509D01*
X59200499Y-84187492D01*
X59189999Y-84084703D01*
X59134814Y-83918166D01*
X59042712Y-83768844D01*
X58918656Y-83644788D01*
X58769334Y-83552686D01*
X58685495Y-83524904D01*
X58628051Y-83485132D01*
X58601228Y-83420616D01*
X58600500Y-83407199D01*
X58600500Y-82417800D01*
X58620185Y-82350761D01*
X58672989Y-82305006D01*
X58685482Y-82300099D01*
X58769334Y-82272314D01*
X58918656Y-82180212D01*
X59042712Y-82056156D01*
X59134814Y-81906834D01*
X59134817Y-81906823D01*
X59135837Y-81904639D01*
X59136940Y-81903385D01*
X59138605Y-81900687D01*
X59139066Y-81900971D01*
X59182007Y-81852198D01*
X59248221Y-81833040D01*
X60727311Y-81833040D01*
X60794350Y-81852725D01*
X60840105Y-81905529D01*
X60851311Y-81957040D01*
X60851311Y-82039876D01*
X60857718Y-82099483D01*
X60908012Y-82234328D01*
X60908016Y-82234335D01*
X60994262Y-82349544D01*
X60994263Y-82349544D01*
X60994264Y-82349546D01*
X61017784Y-82367153D01*
X61062642Y-82400734D01*
X61104512Y-82456668D01*
X61109496Y-82526360D01*
X61076010Y-82587682D01*
X61062642Y-82599266D01*
X60994262Y-82650455D01*
X60908016Y-82765664D01*
X60908012Y-82765671D01*
X60857718Y-82900517D01*
X60851311Y-82960116D01*
X60851311Y-82960123D01*
X60851310Y-82960135D01*
X60851310Y-84574790D01*
X60851311Y-84574796D01*
X60857718Y-84634403D01*
X60908012Y-84769248D01*
X60908016Y-84769255D01*
X60994262Y-84884464D01*
X60994263Y-84884464D01*
X60994264Y-84884466D01*
X61014347Y-84899500D01*
X61066035Y-84938194D01*
X61107905Y-84994128D01*
X61112889Y-85063819D01*
X61079403Y-85125142D01*
X61066035Y-85136726D01*
X60994262Y-85190455D01*
X60908016Y-85305664D01*
X60908012Y-85305671D01*
X60857718Y-85440517D01*
X60851311Y-85500116D01*
X60851311Y-85500123D01*
X60851310Y-85500135D01*
X60851310Y-87114790D01*
X60851311Y-87114796D01*
X60857718Y-87174403D01*
X60908012Y-87309248D01*
X60908016Y-87309255D01*
X60994262Y-87424464D01*
X60994265Y-87424467D01*
X61109474Y-87510713D01*
X61109481Y-87510717D01*
X61244327Y-87561011D01*
X61244326Y-87561011D01*
X61251254Y-87561755D01*
X61303937Y-87567420D01*
X63937142Y-87567419D01*
X63996753Y-87561011D01*
X64131601Y-87510716D01*
X64246816Y-87424466D01*
X64333066Y-87309251D01*
X64383361Y-87174403D01*
X64389770Y-87114793D01*
X64389769Y-85500128D01*
X64383361Y-85440517D01*
X64382742Y-85438858D01*
X64333067Y-85305671D01*
X64333063Y-85305664D01*
X64277286Y-85231157D01*
X64246816Y-85190454D01*
X64175043Y-85136725D01*
X64133174Y-85080793D01*
X64128190Y-85011101D01*
X64161675Y-84949778D01*
X64175038Y-84938198D01*
X64246816Y-84884466D01*
X64333066Y-84769251D01*
X64383361Y-84634403D01*
X64389770Y-84574793D01*
X64389769Y-82960128D01*
X64383361Y-82900517D01*
X64333066Y-82765669D01*
X64333065Y-82765668D01*
X64333063Y-82765664D01*
X64246817Y-82650456D01*
X64246818Y-82650456D01*
X64246816Y-82650454D01*
X64178436Y-82599265D01*
X64136567Y-82543333D01*
X64131583Y-82473641D01*
X64165068Y-82412318D01*
X64178431Y-82400738D01*
X64246816Y-82349546D01*
X64333066Y-82234331D01*
X64383361Y-82099483D01*
X64389770Y-82039873D01*
X64389769Y-80425208D01*
X64383361Y-80365597D01*
X64368019Y-80324464D01*
X64333067Y-80230751D01*
X64333063Y-80230744D01*
X64281393Y-80161723D01*
X64246816Y-80115534D01*
X64175043Y-80061805D01*
X64133174Y-80005873D01*
X64128190Y-79936181D01*
X64161675Y-79874858D01*
X64175038Y-79863278D01*
X64246816Y-79809546D01*
X64333066Y-79694331D01*
X64383361Y-79559483D01*
X64389770Y-79499873D01*
X64389770Y-79499870D01*
X77610230Y-79499870D01*
X77610231Y-79499876D01*
X77616638Y-79559483D01*
X77666932Y-79694328D01*
X77666936Y-79694335D01*
X77753182Y-79809544D01*
X77753185Y-79809547D01*
X77825371Y-79863586D01*
X77867242Y-79919520D01*
X77872226Y-79989211D01*
X77838740Y-80050534D01*
X77825372Y-80062118D01*
X77753539Y-80115892D01*
X77667379Y-80230986D01*
X77667375Y-80230993D01*
X77617133Y-80365700D01*
X77617131Y-80365707D01*
X77610730Y-80425235D01*
X77610730Y-80982540D01*
X81148190Y-80982540D01*
X81148190Y-80425252D01*
X81148189Y-80425235D01*
X81141788Y-80365707D01*
X81141786Y-80365700D01*
X81091544Y-80230993D01*
X81091540Y-80230986D01*
X81005380Y-80115893D01*
X80933548Y-80062119D01*
X80891677Y-80006185D01*
X80886693Y-79936493D01*
X80920178Y-79875170D01*
X80933539Y-79863592D01*
X81005736Y-79809546D01*
X81091986Y-79694331D01*
X81142281Y-79559483D01*
X81148690Y-79499873D01*
X81148689Y-77885208D01*
X81142281Y-77825597D01*
X81121230Y-77769157D01*
X81091987Y-77690751D01*
X81091983Y-77690744D01*
X81005737Y-77575535D01*
X81005734Y-77575532D01*
X80890525Y-77489286D01*
X80890518Y-77489282D01*
X80755672Y-77438988D01*
X80755673Y-77438988D01*
X80696073Y-77432581D01*
X80696071Y-77432580D01*
X80696063Y-77432580D01*
X80696054Y-77432580D01*
X78062859Y-77432580D01*
X78062853Y-77432581D01*
X78003246Y-77438988D01*
X77868401Y-77489282D01*
X77868394Y-77489286D01*
X77753185Y-77575532D01*
X77753182Y-77575535D01*
X77666936Y-77690744D01*
X77666932Y-77690751D01*
X77616638Y-77825597D01*
X77610231Y-77885196D01*
X77610231Y-77885203D01*
X77610230Y-77885215D01*
X77610230Y-79499870D01*
X64389770Y-79499870D01*
X64389769Y-77885208D01*
X64383361Y-77825597D01*
X64362310Y-77769157D01*
X64333067Y-77690751D01*
X64333063Y-77690744D01*
X64246817Y-77575535D01*
X64246814Y-77575532D01*
X64131605Y-77489286D01*
X64131598Y-77489282D01*
X63996752Y-77438988D01*
X63996753Y-77438988D01*
X63937153Y-77432581D01*
X63937151Y-77432580D01*
X63937143Y-77432580D01*
X63937134Y-77432580D01*
X61303939Y-77432580D01*
X61303933Y-77432581D01*
X61244326Y-77438988D01*
X61109481Y-77489282D01*
X61109474Y-77489286D01*
X60994265Y-77575532D01*
X60994262Y-77575535D01*
X60908016Y-77690744D01*
X60908012Y-77690751D01*
X60857718Y-77825597D01*
X60851311Y-77885196D01*
X60851311Y-77885203D01*
X60851310Y-77885215D01*
X60851310Y-79499870D01*
X60851311Y-79499876D01*
X60857718Y-79559483D01*
X60908012Y-79694328D01*
X60908016Y-79694335D01*
X60994262Y-79809544D01*
X60994263Y-79809544D01*
X60994264Y-79809546D01*
X61045783Y-79848113D01*
X61066035Y-79863274D01*
X61107905Y-79919208D01*
X61112889Y-79988899D01*
X61079403Y-80050222D01*
X61066035Y-80061806D01*
X60994262Y-80115535D01*
X60908016Y-80230744D01*
X60908012Y-80230751D01*
X60857718Y-80365597D01*
X60851311Y-80425196D01*
X60851311Y-80425203D01*
X60851310Y-80425215D01*
X60851310Y-80508040D01*
X60831625Y-80575079D01*
X60778821Y-80620834D01*
X60727310Y-80632040D01*
X59132270Y-80632040D01*
X59065231Y-80612355D01*
X59044589Y-80595721D01*
X58948695Y-80499827D01*
X58915210Y-80438504D01*
X58920194Y-80368812D01*
X58948695Y-80324464D01*
X59042317Y-80230842D01*
X59134356Y-80081624D01*
X59134358Y-80081619D01*
X59189505Y-79915197D01*
X59189506Y-79915190D01*
X59199999Y-79812486D01*
X59200000Y-79812473D01*
X59200000Y-79750000D01*
X56800001Y-79750000D01*
X56800001Y-79812486D01*
X56810494Y-79915197D01*
X56865641Y-80081619D01*
X56865643Y-80081624D01*
X56957684Y-80230845D01*
X57051304Y-80324465D01*
X57084789Y-80385788D01*
X57079805Y-80455480D01*
X57051305Y-80499827D01*
X56957287Y-80593845D01*
X56865187Y-80743163D01*
X56865186Y-80743166D01*
X56810001Y-80909703D01*
X56810001Y-80909704D01*
X56810000Y-80909704D01*
X56799500Y-81012483D01*
X56799500Y-81637501D01*
X56799501Y-81637519D01*
X56810000Y-81740296D01*
X56810001Y-81740299D01*
X56840733Y-81833040D01*
X56865186Y-81906834D01*
X56957288Y-82056156D01*
X57081344Y-82180212D01*
X57230666Y-82272314D01*
X57314505Y-82300095D01*
X57371948Y-82339866D01*
X57398772Y-82404382D01*
X57399500Y-82417800D01*
X57399500Y-83407199D01*
X57379815Y-83474238D01*
X57327011Y-83519993D01*
X57314507Y-83524903D01*
X57281962Y-83535688D01*
X57230668Y-83552685D01*
X57230663Y-83552687D01*
X57081342Y-83644789D01*
X56957289Y-83768842D01*
X56865187Y-83918163D01*
X56865186Y-83918166D01*
X56810001Y-84084703D01*
X56810001Y-84084704D01*
X56810000Y-84084704D01*
X56799500Y-84187483D01*
X56799500Y-84812501D01*
X56799501Y-84812519D01*
X56810000Y-84915296D01*
X56810001Y-84915299D01*
X56865185Y-85081831D01*
X56865187Y-85081836D01*
X56957289Y-85231157D01*
X57050951Y-85324819D01*
X57084436Y-85386142D01*
X57079452Y-85455834D01*
X57050951Y-85500181D01*
X56957289Y-85593842D01*
X56865187Y-85743163D01*
X56865185Y-85743168D01*
X56846017Y-85801013D01*
X56810001Y-85909703D01*
X56810001Y-85909704D01*
X56810000Y-85909704D01*
X56799500Y-86012483D01*
X56799500Y-86637501D01*
X55500500Y-86637501D01*
X55500500Y-79250000D01*
X56800000Y-79250000D01*
X57750000Y-79250000D01*
X57750000Y-78487500D01*
X58250000Y-78487500D01*
X58250000Y-79250000D01*
X59199999Y-79250000D01*
X59199999Y-79187528D01*
X59199998Y-79187513D01*
X59189505Y-79084802D01*
X59134358Y-78918380D01*
X59134356Y-78918375D01*
X59042315Y-78769154D01*
X58918345Y-78645184D01*
X58769124Y-78553143D01*
X58769119Y-78553141D01*
X58602697Y-78497994D01*
X58602690Y-78497993D01*
X58499986Y-78487500D01*
X58250000Y-78487500D01*
X57750000Y-78487500D01*
X57500029Y-78487500D01*
X57500012Y-78487501D01*
X57397302Y-78497994D01*
X57230880Y-78553141D01*
X57230875Y-78553143D01*
X57081654Y-78645184D01*
X56957684Y-78769154D01*
X56865643Y-78918375D01*
X56865641Y-78918380D01*
X56810494Y-79084802D01*
X56810493Y-79084809D01*
X56800000Y-79187513D01*
X56800000Y-79250000D01*
X55500500Y-79250000D01*
X55500500Y-76875500D01*
X84145000Y-76875500D01*
X84145001Y-76875509D01*
X84156552Y-76982950D01*
X84156554Y-76982962D01*
X84167760Y-77034472D01*
X84201883Y-77136997D01*
X84201886Y-77137003D01*
X84279671Y-77258037D01*
X84279679Y-77258048D01*
X84325423Y-77310840D01*
X84325426Y-77310843D01*
X84325430Y-77310847D01*
X84434164Y-77405067D01*
X84434167Y-77405068D01*
X84434168Y-77405069D01*
X84478535Y-77425331D01*
X84537798Y-77452396D01*
X84590602Y-77498151D01*
X84610286Y-77565190D01*
X84590601Y-77632230D01*
X84573968Y-77652871D01*
X84457682Y-77769157D01*
X84365643Y-77918375D01*
X84365641Y-77918380D01*
X84310494Y-78084802D01*
X84310493Y-78084809D01*
X84300000Y-78187513D01*
X84300000Y-78250000D01*
X85250000Y-78250000D01*
X85250000Y-77474952D01*
X85231607Y-77441268D01*
X85236591Y-77371576D01*
X85269515Y-77324167D01*
X85269103Y-77323755D01*
X85271390Y-77321467D01*
X85271591Y-77321179D01*
X85272218Y-77320634D01*
X85272234Y-77320623D01*
X85908123Y-76684734D01*
X85914794Y-76677307D01*
X85974235Y-76640587D01*
X86044093Y-76641832D01*
X86102189Y-76680648D01*
X86124749Y-76721163D01*
X86140638Y-76769113D01*
X86140643Y-76769124D01*
X86232684Y-76918345D01*
X86356654Y-77042315D01*
X86505875Y-77134356D01*
X86505880Y-77134358D01*
X86672302Y-77189505D01*
X86672309Y-77189506D01*
X86775019Y-77199999D01*
X86837499Y-77199998D01*
X86837500Y-77199998D01*
X86837500Y-74800000D01*
X86837499Y-74799999D01*
X86775028Y-74800000D01*
X86775011Y-74800001D01*
X86672302Y-74810494D01*
X86505880Y-74865641D01*
X86505875Y-74865643D01*
X86356654Y-74957684D01*
X86304181Y-75010158D01*
X86242858Y-75043643D01*
X86173166Y-75038659D01*
X86117233Y-74996787D01*
X86092816Y-74931323D01*
X86092500Y-74922477D01*
X86092500Y-73757153D01*
X86091474Y-73743195D01*
X86087065Y-73683230D01*
X86081761Y-73647351D01*
X86065571Y-73575006D01*
X86004762Y-73444608D01*
X86004759Y-73444604D01*
X86004757Y-73444599D01*
X85966523Y-73386135D01*
X85966522Y-73386134D01*
X85966521Y-73386132D01*
X85871442Y-73278151D01*
X85749788Y-73201327D01*
X85710371Y-73183703D01*
X85686003Y-73172807D01*
X85547639Y-73133371D01*
X85547638Y-73133371D01*
X85546487Y-73133380D01*
X85403764Y-73134512D01*
X85403760Y-73134513D01*
X85337815Y-73144529D01*
X85335781Y-73144785D01*
X85334675Y-73145005D01*
X85196953Y-73186637D01*
X85196949Y-73186639D01*
X85185169Y-73192132D01*
X85175181Y-73196269D01*
X84857557Y-73311875D01*
X84847240Y-73315128D01*
X84611547Y-73378282D01*
X84571391Y-73390856D01*
X84551957Y-73397844D01*
X84512995Y-73413713D01*
X84391962Y-73491497D01*
X84391951Y-73491505D01*
X84339159Y-73537249D01*
X84244933Y-73645990D01*
X84244930Y-73645994D01*
X84185164Y-73776860D01*
X84185162Y-73776867D01*
X84165477Y-73843906D01*
X84165476Y-73843910D01*
X84145000Y-73986326D01*
X84145000Y-76875500D01*
X55500500Y-76875500D01*
X55500500Y-69500000D01*
X57694922Y-69500000D01*
X57715219Y-69887287D01*
X57775886Y-70270323D01*
X57775887Y-70270330D01*
X57876262Y-70644936D01*
X58015244Y-71006994D01*
X58191310Y-71352543D01*
X58402531Y-71677793D01*
X58611095Y-71935350D01*
X58611096Y-71935350D01*
X60105748Y-70440698D01*
X60179588Y-70542330D01*
X60357670Y-70720412D01*
X60459300Y-70794251D01*
X58964648Y-72288903D01*
X58964649Y-72288904D01*
X59222206Y-72497468D01*
X59547456Y-72708689D01*
X59893005Y-72884755D01*
X60255063Y-73023737D01*
X60629669Y-73124112D01*
X60629676Y-73124113D01*
X61012712Y-73184780D01*
X61399999Y-73205078D01*
X61400001Y-73205078D01*
X61787287Y-73184780D01*
X62170323Y-73124113D01*
X62170330Y-73124112D01*
X62544936Y-73023737D01*
X62906994Y-72884755D01*
X63252543Y-72708689D01*
X63577783Y-72497476D01*
X63577785Y-72497475D01*
X63835349Y-72288902D01*
X62340698Y-70794251D01*
X62442330Y-70720412D01*
X62620412Y-70542330D01*
X62694251Y-70440698D01*
X64188902Y-71935349D01*
X64397475Y-71677785D01*
X64397476Y-71677783D01*
X64608689Y-71352543D01*
X64784755Y-71006994D01*
X64923737Y-70644936D01*
X65024112Y-70270330D01*
X65024113Y-70270323D01*
X65084780Y-69887287D01*
X65105078Y-69500005D01*
X81145057Y-69500005D01*
X81164807Y-69813942D01*
X81164808Y-69813949D01*
X81223755Y-70122958D01*
X81320963Y-70422132D01*
X81320965Y-70422137D01*
X81454900Y-70706761D01*
X81454903Y-70706767D01*
X81623457Y-70972367D01*
X81623460Y-70972371D01*
X81714286Y-71082160D01*
X82972421Y-69824025D01*
X82985359Y-69855258D01*
X83067437Y-69978097D01*
X83171903Y-70082563D01*
X83294742Y-70164641D01*
X83325974Y-70177578D01*
X82064971Y-71438579D01*
X82064972Y-71438581D01*
X82307772Y-71614985D01*
X82307790Y-71614996D01*
X82583447Y-71766540D01*
X82583455Y-71766544D01*
X82875926Y-71882340D01*
X83180620Y-71960573D01*
X83180629Y-71960575D01*
X83492701Y-71999999D01*
X83492715Y-72000000D01*
X83807285Y-72000000D01*
X83807298Y-71999999D01*
X84119370Y-71960575D01*
X84119379Y-71960573D01*
X84424073Y-71882340D01*
X84716544Y-71766544D01*
X84716552Y-71766540D01*
X84992209Y-71614996D01*
X84992219Y-71614990D01*
X85235026Y-71438579D01*
X85235027Y-71438579D01*
X83974025Y-70177578D01*
X84005258Y-70164641D01*
X84128097Y-70082563D01*
X84232563Y-69978097D01*
X84314641Y-69855258D01*
X84327577Y-69824025D01*
X85585712Y-71082160D01*
X85676544Y-70972364D01*
X85845096Y-70706767D01*
X85845099Y-70706761D01*
X85979034Y-70422137D01*
X85979036Y-70422132D01*
X86076244Y-70122958D01*
X86135191Y-69813949D01*
X86135192Y-69813942D01*
X86154943Y-69500005D01*
X86154943Y-69499994D01*
X86135192Y-69186057D01*
X86135191Y-69186050D01*
X86076244Y-68877041D01*
X85979036Y-68577867D01*
X85979034Y-68577862D01*
X85845099Y-68293238D01*
X85845096Y-68293232D01*
X85676542Y-68027632D01*
X85676539Y-68027628D01*
X85585712Y-67917838D01*
X84327577Y-69175973D01*
X84314641Y-69144742D01*
X84232563Y-69021903D01*
X84128097Y-68917437D01*
X84005258Y-68835359D01*
X83974025Y-68822421D01*
X85235027Y-67561419D01*
X85235026Y-67561417D01*
X84992227Y-67385014D01*
X84992209Y-67385003D01*
X84716552Y-67233459D01*
X84716544Y-67233455D01*
X84424073Y-67117659D01*
X84119379Y-67039426D01*
X84119370Y-67039424D01*
X83807298Y-67000000D01*
X83492701Y-67000000D01*
X83180629Y-67039424D01*
X83180620Y-67039426D01*
X82875926Y-67117659D01*
X82583455Y-67233455D01*
X82583447Y-67233459D01*
X82307787Y-67385004D01*
X82307782Y-67385007D01*
X82064972Y-67561418D01*
X82064971Y-67561419D01*
X83325974Y-68822421D01*
X83294742Y-68835359D01*
X83171903Y-68917437D01*
X83067437Y-69021903D01*
X82985359Y-69144742D01*
X82972422Y-69175974D01*
X81714286Y-67917838D01*
X81714285Y-67917838D01*
X81623459Y-68027629D01*
X81623457Y-68027632D01*
X81454903Y-68293232D01*
X81454900Y-68293238D01*
X81320965Y-68577862D01*
X81320963Y-68577867D01*
X81223755Y-68877041D01*
X81164808Y-69186050D01*
X81164807Y-69186057D01*
X81145057Y-69499994D01*
X81145057Y-69500005D01*
X65105078Y-69500005D01*
X65105078Y-69500000D01*
X65105078Y-69499999D01*
X65084780Y-69112712D01*
X65024113Y-68729676D01*
X65024112Y-68729669D01*
X64923737Y-68355063D01*
X64784755Y-67993005D01*
X64608689Y-67647456D01*
X64397468Y-67322206D01*
X64286640Y-67185344D01*
X72362500Y-67185344D01*
X72368901Y-67244872D01*
X72368903Y-67244879D01*
X72419145Y-67379586D01*
X72419149Y-67379593D01*
X72505309Y-67494687D01*
X72505312Y-67494690D01*
X72620406Y-67580850D01*
X72620413Y-67580854D01*
X72755120Y-67631096D01*
X72755127Y-67631098D01*
X72814655Y-67637499D01*
X72814672Y-67637500D01*
X73250000Y-67637500D01*
X73250000Y-66846409D01*
X73335956Y-66896037D01*
X73444048Y-66925000D01*
X73555952Y-66925000D01*
X73664044Y-66896037D01*
X73750000Y-66846409D01*
X73750000Y-67637500D01*
X74185328Y-67637500D01*
X74185344Y-67637499D01*
X74244872Y-67631098D01*
X74244879Y-67631096D01*
X74379586Y-67580854D01*
X74379593Y-67580850D01*
X74494687Y-67494690D01*
X74494690Y-67494687D01*
X74580850Y-67379593D01*
X74580854Y-67379586D01*
X74631096Y-67244879D01*
X74631098Y-67244872D01*
X74637499Y-67185344D01*
X74637500Y-67185327D01*
X74637500Y-66750000D01*
X73846410Y-66750000D01*
X73896037Y-66664044D01*
X73925000Y-66555952D01*
X73925000Y-66444048D01*
X73896037Y-66335956D01*
X73846410Y-66250000D01*
X74637500Y-66250000D01*
X74637500Y-65814672D01*
X74637499Y-65814655D01*
X74631098Y-65755127D01*
X74631096Y-65755120D01*
X74580854Y-65620413D01*
X74580850Y-65620406D01*
X74494690Y-65505312D01*
X74494687Y-65505309D01*
X74379593Y-65419149D01*
X74379586Y-65419145D01*
X74244879Y-65368903D01*
X74244872Y-65368901D01*
X74185344Y-65362500D01*
X73750000Y-65362500D01*
X73750000Y-66153590D01*
X73664044Y-66103963D01*
X73555952Y-66075000D01*
X73444048Y-66075000D01*
X73335956Y-66103963D01*
X73250000Y-66153590D01*
X73250000Y-65362500D01*
X72814655Y-65362500D01*
X72755127Y-65368901D01*
X72755120Y-65368903D01*
X72620413Y-65419145D01*
X72620406Y-65419149D01*
X72505312Y-65505309D01*
X72505309Y-65505312D01*
X72419149Y-65620406D01*
X72419145Y-65620413D01*
X72368903Y-65755120D01*
X72368901Y-65755127D01*
X72362500Y-65814655D01*
X72362500Y-66250000D01*
X73153590Y-66250000D01*
X73103963Y-66335956D01*
X73075000Y-66444048D01*
X73075000Y-66555952D01*
X73103963Y-66664044D01*
X73153590Y-66750000D01*
X72362500Y-66750000D01*
X72362500Y-67185344D01*
X64286640Y-67185344D01*
X64188904Y-67064649D01*
X64188903Y-67064648D01*
X62694251Y-68559300D01*
X62620412Y-68457670D01*
X62442330Y-68279588D01*
X62340698Y-68205748D01*
X63835350Y-66711096D01*
X63835350Y-66711095D01*
X63577793Y-66502531D01*
X63252543Y-66291310D01*
X62906994Y-66115244D01*
X62544936Y-65976262D01*
X62170330Y-65875887D01*
X62170323Y-65875886D01*
X61787287Y-65815219D01*
X61400001Y-65794922D01*
X61399999Y-65794922D01*
X61012712Y-65815219D01*
X60629676Y-65875886D01*
X60629669Y-65875887D01*
X60255063Y-65976262D01*
X59893005Y-66115244D01*
X59547456Y-66291310D01*
X59222206Y-66502531D01*
X58964648Y-66711095D01*
X58964648Y-66711096D01*
X60459301Y-68205748D01*
X60357670Y-68279588D01*
X60179588Y-68457670D01*
X60105748Y-68559300D01*
X58611096Y-67064648D01*
X58611095Y-67064648D01*
X58402531Y-67322206D01*
X58191310Y-67647456D01*
X58015244Y-67993005D01*
X57876262Y-68355063D01*
X57775887Y-68729669D01*
X57775886Y-68729676D01*
X57715219Y-69112712D01*
X57694922Y-69499999D01*
X57694922Y-69500000D01*
X55500500Y-69500000D01*
X55500500Y-64624000D01*
X55520185Y-64556961D01*
X55572989Y-64511206D01*
X55624500Y-64500000D01*
X83420544Y-64500000D01*
X83431352Y-64500471D01*
G37*
%TD.AperFunction*%
%TD*%
%TA.AperFunction,Conductor*%
%TO.N,VCC*%
G36*
X88005170Y-72546853D02*
G01*
X88012616Y-72564828D01*
X88054986Y-72695227D01*
X88059528Y-72714148D01*
X88080973Y-72849543D01*
X88082500Y-72868941D01*
X88082500Y-73121310D01*
X88083649Y-73145005D01*
X88084872Y-73170227D01*
X88087189Y-73194072D01*
X88087192Y-73194091D01*
X88094284Y-73242541D01*
X88106744Y-73278151D01*
X88110848Y-73289879D01*
X88114408Y-73359658D01*
X88081487Y-73418511D01*
X88000000Y-73499999D01*
X88000000Y-72536706D01*
X88005170Y-72546853D01*
G37*
%TD.AperFunction*%
%TA.AperFunction,Conductor*%
G36*
X91463681Y-68463681D02*
G01*
X91497166Y-68525004D01*
X91500000Y-68551362D01*
X91500000Y-69948637D01*
X91480315Y-70015676D01*
X91463681Y-70036318D01*
X89929891Y-71570107D01*
X89868568Y-71603592D01*
X89798876Y-71598608D01*
X89790697Y-71595220D01*
X89786856Y-71593466D01*
X89735709Y-71570107D01*
X89658100Y-71534663D01*
X89591055Y-71514976D01*
X89542033Y-71507928D01*
X89448638Y-71494500D01*
X88496221Y-71494500D01*
X88496220Y-71494500D01*
X88413577Y-71501301D01*
X88373583Y-71507928D01*
X88293167Y-71528148D01*
X88164975Y-71593464D01*
X88164970Y-71593466D01*
X88107863Y-71633724D01*
X88003263Y-71732511D01*
X88003263Y-71732512D01*
X88000000Y-71738101D01*
X88000000Y-65000000D01*
X91463681Y-68463681D01*
G37*
%TD.AperFunction*%
%TD*%
%TA.AperFunction,Conductor*%
%TO.N,Net-(PS1-0V)*%
G36*
X130515677Y-75019685D02*
G01*
X130536319Y-75036319D01*
X145500000Y-90000000D01*
X153448638Y-90000000D01*
X153515677Y-90019685D01*
X153536319Y-90036319D01*
X154463181Y-90963181D01*
X154496666Y-91024504D01*
X154499500Y-91050862D01*
X154499500Y-92842082D01*
X154479815Y-92909121D01*
X154467660Y-92925043D01*
X153536943Y-93958961D01*
X153477461Y-93995617D01*
X153444783Y-94000000D01*
X147151826Y-94000000D01*
X147143906Y-93999555D01*
X147143899Y-93999695D01*
X147140426Y-93999500D01*
X147140425Y-93999500D01*
X146859575Y-93999500D01*
X146859568Y-93999500D01*
X146580505Y-94030942D01*
X146580487Y-94030945D01*
X146306682Y-94093439D01*
X146306670Y-94093443D01*
X146041588Y-94186200D01*
X145788557Y-94308053D01*
X145550753Y-94457476D01*
X145331175Y-94632583D01*
X145132583Y-94831175D01*
X144957476Y-95050753D01*
X144808053Y-95288557D01*
X144686200Y-95541588D01*
X144593443Y-95806670D01*
X144593439Y-95806682D01*
X144530945Y-96080487D01*
X144530942Y-96080505D01*
X144499500Y-96359568D01*
X144499500Y-96640430D01*
X144499695Y-96643904D01*
X144499554Y-96643911D01*
X144500000Y-96651828D01*
X144500000Y-97948638D01*
X144480315Y-98015677D01*
X144463681Y-98036319D01*
X143536319Y-98963681D01*
X143474996Y-98997166D01*
X143448638Y-99000000D01*
X121551362Y-99000000D01*
X121484323Y-98980315D01*
X121463681Y-98963681D01*
X120036319Y-97536319D01*
X120002834Y-97474996D01*
X120000000Y-97448638D01*
X120000000Y-94960000D01*
X127909474Y-94960000D01*
X127929547Y-95215064D01*
X127929547Y-95215067D01*
X127929548Y-95215070D01*
X127947191Y-95288557D01*
X127989279Y-95463864D01*
X128087188Y-95700239D01*
X128087190Y-95700242D01*
X128220875Y-95918396D01*
X128220878Y-95918401D01*
X128296200Y-96006591D01*
X128387044Y-96112956D01*
X128511579Y-96219319D01*
X128581598Y-96279121D01*
X128581600Y-96279122D01*
X128581601Y-96279123D01*
X128712887Y-96359575D01*
X128799757Y-96412809D01*
X128799760Y-96412811D01*
X129036135Y-96510720D01*
X129036140Y-96510722D01*
X129284930Y-96570452D01*
X129540000Y-96590526D01*
X129795070Y-96570452D01*
X130043860Y-96510722D01*
X130162051Y-96461765D01*
X130280239Y-96412811D01*
X130280240Y-96412810D01*
X130280243Y-96412809D01*
X130498399Y-96279123D01*
X130692956Y-96112956D01*
X130859123Y-95918399D01*
X130992809Y-95700243D01*
X131090722Y-95463860D01*
X131150452Y-95215070D01*
X131170526Y-94960000D01*
X131150452Y-94704930D01*
X131090722Y-94456140D01*
X131090720Y-94456135D01*
X130992811Y-94219760D01*
X130992809Y-94219757D01*
X130859124Y-94001603D01*
X130859121Y-94001598D01*
X130799319Y-93931579D01*
X130692956Y-93807044D01*
X130586591Y-93716200D01*
X130498401Y-93640878D01*
X130498396Y-93640875D01*
X130280242Y-93507190D01*
X130280239Y-93507188D01*
X130043864Y-93409279D01*
X130043860Y-93409278D01*
X129795070Y-93349548D01*
X129795067Y-93349547D01*
X129795064Y-93349547D01*
X129540000Y-93329474D01*
X129284935Y-93349547D01*
X129284931Y-93349547D01*
X129284930Y-93349548D01*
X129160535Y-93379413D01*
X129036135Y-93409279D01*
X128799760Y-93507188D01*
X128799757Y-93507190D01*
X128581603Y-93640875D01*
X128581598Y-93640878D01*
X128387044Y-93807044D01*
X128220878Y-94001598D01*
X128220875Y-94001603D01*
X128087190Y-94219757D01*
X128087188Y-94219760D01*
X127989279Y-94456135D01*
X127929547Y-94704935D01*
X127909474Y-94960000D01*
X120000000Y-94960000D01*
X120000000Y-76065915D01*
X120019685Y-75998876D01*
X120054636Y-75963130D01*
X121450450Y-75021213D01*
X121517032Y-75000031D01*
X121519812Y-75000000D01*
X130448638Y-75000000D01*
X130515677Y-75019685D01*
G37*
%TD.AperFunction*%
%TD*%
%TA.AperFunction,Conductor*%
%TO.N,Net-(PS1-VIN)*%
G36*
X99800793Y-91019685D02*
G01*
X99821435Y-91036319D01*
X101672935Y-92887819D01*
X101706420Y-92949142D01*
X101701436Y-93018834D01*
X101659564Y-93074767D01*
X101594100Y-93099184D01*
X101585254Y-93099500D01*
X100974998Y-93099500D01*
X100974980Y-93099501D01*
X100872203Y-93110000D01*
X100872200Y-93110001D01*
X100705668Y-93165185D01*
X100705663Y-93165187D01*
X100556342Y-93257289D01*
X100432289Y-93381342D01*
X100340187Y-93530663D01*
X100340186Y-93530666D01*
X100285001Y-93697203D01*
X100285001Y-93697204D01*
X100285000Y-93697204D01*
X100274500Y-93799983D01*
X100274500Y-94400001D01*
X100274501Y-94400019D01*
X100285000Y-94502796D01*
X100285001Y-94502799D01*
X100340185Y-94669331D01*
X100340186Y-94669334D01*
X100432288Y-94818656D01*
X100556344Y-94942712D01*
X100705666Y-95034814D01*
X100872203Y-95089999D01*
X100974991Y-95100500D01*
X102025008Y-95100499D01*
X102025016Y-95100498D01*
X102025019Y-95100498D01*
X102081302Y-95094748D01*
X102127797Y-95089999D01*
X102294334Y-95034814D01*
X102443656Y-94942712D01*
X102567712Y-94818656D01*
X102659814Y-94669334D01*
X102714999Y-94502797D01*
X102725500Y-94400009D01*
X102725499Y-94239743D01*
X102745183Y-94172706D01*
X102797987Y-94126951D01*
X102867145Y-94117007D01*
X102930701Y-94146032D01*
X102937180Y-94152064D01*
X103605739Y-94820623D01*
X103605755Y-94820637D01*
X103605762Y-94820644D01*
X103645980Y-94856771D01*
X103645992Y-94856781D01*
X103646000Y-94856788D01*
X103666642Y-94873422D01*
X103710526Y-94905067D01*
X103841403Y-94964838D01*
X103908442Y-94984523D01*
X103908446Y-94984524D01*
X104050862Y-95005000D01*
X107824248Y-95005000D01*
X107829117Y-95005095D01*
X107829476Y-95005110D01*
X107848523Y-95005484D01*
X107849319Y-95005500D01*
X107849321Y-95005500D01*
X115448655Y-95005500D01*
X115450296Y-95005456D01*
X115450297Y-95005500D01*
X115450299Y-95005500D01*
X115450299Y-95005567D01*
X115450317Y-95006269D01*
X115515353Y-95021615D01*
X115541708Y-95041708D01*
X116963681Y-96463681D01*
X116997166Y-96525004D01*
X117000000Y-96551362D01*
X117000000Y-113462456D01*
X116980315Y-113529495D01*
X116979174Y-113531239D01*
X116370478Y-114444283D01*
X116316913Y-114489144D01*
X116267304Y-114499500D01*
X86050862Y-114499500D01*
X85983823Y-114479815D01*
X85963181Y-114463181D01*
X85036319Y-113536319D01*
X85002834Y-113474996D01*
X85000000Y-113448638D01*
X85000000Y-103500000D01*
X94857125Y-103500000D01*
X94876584Y-103709998D01*
X94934302Y-103912857D01*
X95028308Y-104101646D01*
X95155406Y-104269952D01*
X95311263Y-104412033D01*
X95311265Y-104412035D01*
X95490573Y-104523058D01*
X95490574Y-104523058D01*
X95490577Y-104523060D01*
X95687237Y-104599246D01*
X95894549Y-104638000D01*
X95894551Y-104638000D01*
X96105449Y-104638000D01*
X96105451Y-104638000D01*
X96312763Y-104599246D01*
X96509423Y-104523060D01*
X96688736Y-104412034D01*
X96844595Y-104269950D01*
X96971692Y-104101646D01*
X97065699Y-103912854D01*
X97123415Y-103710003D01*
X97142875Y-103500000D01*
X97123415Y-103289997D01*
X97065699Y-103087146D01*
X96971692Y-102898354D01*
X96844595Y-102730050D01*
X96844593Y-102730047D01*
X96688736Y-102587966D01*
X96688734Y-102587964D01*
X96509426Y-102476941D01*
X96509420Y-102476939D01*
X96312763Y-102400754D01*
X96105451Y-102362000D01*
X95894549Y-102362000D01*
X95687237Y-102400754D01*
X95687234Y-102400754D01*
X95687234Y-102400755D01*
X95490579Y-102476939D01*
X95490573Y-102476941D01*
X95311265Y-102587964D01*
X95311263Y-102587966D01*
X95155406Y-102730047D01*
X95028308Y-102898353D01*
X94934302Y-103087142D01*
X94876584Y-103290001D01*
X94857125Y-103500000D01*
X85000000Y-103500000D01*
X85000000Y-91124000D01*
X85019685Y-91056961D01*
X85072489Y-91011206D01*
X85124000Y-91000000D01*
X99733754Y-91000000D01*
X99800793Y-91019685D01*
G37*
%TD.AperFunction*%
%TD*%
%TA.AperFunction,Conductor*%
%TO.N,GND*%
G36*
X73000000Y-55500000D02*
G01*
X79122117Y-61622117D01*
X79210272Y-61811164D01*
X79210277Y-61811174D01*
X79428603Y-62189326D01*
X79428607Y-62189332D01*
X79428614Y-62189343D01*
X79679057Y-62547013D01*
X79888230Y-62796294D01*
X79916243Y-62860302D01*
X79905204Y-62929294D01*
X79858617Y-62981366D01*
X79793241Y-63000000D01*
X55624500Y-63000000D01*
X55557461Y-62980315D01*
X55511706Y-62927511D01*
X55500500Y-62876000D01*
X55500500Y-44124000D01*
X55520185Y-44056961D01*
X55572989Y-44011206D01*
X55624500Y-44000000D01*
X64000000Y-44000000D01*
X64000000Y-35624500D01*
X64019685Y-35557461D01*
X64072489Y-35511706D01*
X64124000Y-35500500D01*
X73000000Y-35500500D01*
X73000000Y-55500000D01*
G37*
%TD.AperFunction*%
%TD*%
%TA.AperFunction,Conductor*%
%TO.N,Net-(J2-Pin_2)*%
G36*
X108253582Y-49019685D02*
G01*
X108299337Y-49072489D01*
X108309281Y-49141647D01*
X108280256Y-49205203D01*
X108232840Y-49239032D01*
X108216539Y-49245593D01*
X108191190Y-49255795D01*
X108191185Y-49255798D01*
X107980417Y-49383212D01*
X107980407Y-49383219D01*
X107792798Y-49542798D01*
X107633219Y-49730407D01*
X107633212Y-49730417D01*
X107505798Y-49941185D01*
X107505795Y-49941190D01*
X107413835Y-50169680D01*
X107413835Y-50169682D01*
X107359719Y-50409963D01*
X107359718Y-50409970D01*
X107349500Y-50554702D01*
X107349500Y-52745292D01*
X107349501Y-52745298D01*
X107359718Y-52890027D01*
X107359718Y-52890031D01*
X107359719Y-52890034D01*
X107359720Y-52890038D01*
X107413834Y-53130314D01*
X107413835Y-53130319D01*
X107505795Y-53358809D01*
X107633216Y-53569589D01*
X107633219Y-53569592D01*
X107792798Y-53757201D01*
X107902990Y-53850930D01*
X107980411Y-53916784D01*
X108191191Y-54044205D01*
X108419683Y-54136165D01*
X108659966Y-54190281D01*
X108804705Y-54200500D01*
X110995294Y-54200499D01*
X111140034Y-54190281D01*
X111380317Y-54136165D01*
X111608809Y-54044205D01*
X111819589Y-53916784D01*
X112007201Y-53757201D01*
X112166784Y-53569589D01*
X112294205Y-53358809D01*
X112386165Y-53130317D01*
X112440281Y-52890034D01*
X112450500Y-52745295D01*
X112450499Y-50554706D01*
X112440281Y-50409966D01*
X112386165Y-50169683D01*
X112294205Y-49941191D01*
X112166784Y-49730411D01*
X112100930Y-49652990D01*
X112007201Y-49542798D01*
X111877654Y-49432606D01*
X111819589Y-49383216D01*
X111608809Y-49255795D01*
X111567159Y-49239032D01*
X111512318Y-49195741D01*
X111489587Y-49129673D01*
X111506184Y-49061803D01*
X111556839Y-49013680D01*
X111613457Y-49000000D01*
X129186543Y-49000000D01*
X129253582Y-49019685D01*
X129299337Y-49072489D01*
X129309281Y-49141647D01*
X129280256Y-49205203D01*
X129232840Y-49239032D01*
X129216539Y-49245593D01*
X129191190Y-49255795D01*
X129191185Y-49255798D01*
X128980417Y-49383212D01*
X128980407Y-49383219D01*
X128792798Y-49542798D01*
X128633219Y-49730407D01*
X128633212Y-49730417D01*
X128505798Y-49941185D01*
X128505795Y-49941190D01*
X128413835Y-50169680D01*
X128413835Y-50169682D01*
X128359719Y-50409963D01*
X128359718Y-50409970D01*
X128349500Y-50554702D01*
X128349500Y-52745292D01*
X128349501Y-52745298D01*
X128359718Y-52890027D01*
X128359718Y-52890031D01*
X128359719Y-52890034D01*
X128359720Y-52890038D01*
X128413834Y-53130314D01*
X128413835Y-53130319D01*
X128505795Y-53358809D01*
X128633216Y-53569589D01*
X128633219Y-53569592D01*
X128792798Y-53757201D01*
X128902990Y-53850930D01*
X128980411Y-53916784D01*
X129191191Y-54044205D01*
X129419683Y-54136165D01*
X129659966Y-54190281D01*
X129804705Y-54200500D01*
X131995294Y-54200499D01*
X132140034Y-54190281D01*
X132380317Y-54136165D01*
X132608809Y-54044205D01*
X132819589Y-53916784D01*
X133007201Y-53757201D01*
X133166784Y-53569589D01*
X133294205Y-53358809D01*
X133386165Y-53130317D01*
X133440281Y-52890034D01*
X133450500Y-52745295D01*
X133450499Y-50554706D01*
X133440281Y-50409966D01*
X133386165Y-50169683D01*
X133294205Y-49941191D01*
X133166784Y-49730411D01*
X133100930Y-49652990D01*
X133007201Y-49542798D01*
X132877654Y-49432606D01*
X132819589Y-49383216D01*
X132608809Y-49255795D01*
X132567159Y-49239032D01*
X132512318Y-49195741D01*
X132489587Y-49129673D01*
X132506184Y-49061803D01*
X132556839Y-49013680D01*
X132613457Y-49000000D01*
X139948638Y-49000000D01*
X140015677Y-49019685D01*
X140036319Y-49036319D01*
X141463681Y-50463681D01*
X141497166Y-50525004D01*
X141500000Y-50551362D01*
X141500000Y-58500000D01*
X145000000Y-62000000D01*
X100000000Y-62000000D01*
X101199999Y-60800001D01*
X105274500Y-60800001D01*
X105274501Y-60800019D01*
X105285000Y-60902796D01*
X105285001Y-60902799D01*
X105340185Y-61069331D01*
X105340187Y-61069336D01*
X105375069Y-61125888D01*
X105432288Y-61218656D01*
X105556344Y-61342712D01*
X105705666Y-61434814D01*
X105872203Y-61489999D01*
X105974991Y-61500500D01*
X107025008Y-61500499D01*
X107025016Y-61500498D01*
X107025019Y-61500498D01*
X107081302Y-61494748D01*
X107127797Y-61489999D01*
X107294334Y-61434814D01*
X107443656Y-61342712D01*
X107567712Y-61218656D01*
X107659814Y-61069334D01*
X107714999Y-60902797D01*
X107725500Y-60800009D01*
X107725499Y-60250000D01*
X112419892Y-60250000D01*
X112438282Y-60448464D01*
X112438282Y-60448466D01*
X112438283Y-60448469D01*
X112491915Y-60636968D01*
X112492830Y-60640183D01*
X112581670Y-60818598D01*
X112581675Y-60818606D01*
X112701792Y-60977666D01*
X112802348Y-61069334D01*
X112849090Y-61111945D01*
X113018554Y-61216873D01*
X113204414Y-61288876D01*
X113400340Y-61325500D01*
X113400342Y-61325500D01*
X113599658Y-61325500D01*
X113599660Y-61325500D01*
X113795586Y-61288876D01*
X113981446Y-61216873D01*
X114150910Y-61111945D01*
X114298209Y-60977664D01*
X114418326Y-60818604D01*
X114507171Y-60640180D01*
X114561717Y-60448469D01*
X114580108Y-60250000D01*
X114561717Y-60051531D01*
X114507171Y-59859820D01*
X114505759Y-59856984D01*
X114418329Y-59681401D01*
X114418324Y-59681393D01*
X114298207Y-59522333D01*
X114150911Y-59388056D01*
X114150910Y-59388055D01*
X114086375Y-59348096D01*
X113981447Y-59283127D01*
X113981445Y-59283126D01*
X113899379Y-59251334D01*
X113795586Y-59211124D01*
X113795582Y-59211123D01*
X113716639Y-59196366D01*
X113599660Y-59174500D01*
X113400340Y-59174500D01*
X113310254Y-59191339D01*
X113204417Y-59211123D01*
X113204415Y-59211123D01*
X113204414Y-59211124D01*
X113152517Y-59231229D01*
X113018554Y-59283126D01*
X113018552Y-59283127D01*
X112849088Y-59388056D01*
X112701792Y-59522333D01*
X112581675Y-59681393D01*
X112581670Y-59681401D01*
X112492830Y-59859816D01*
X112438282Y-60051535D01*
X112419892Y-60249999D01*
X112419892Y-60250000D01*
X107725499Y-60250000D01*
X107725499Y-60199992D01*
X107723669Y-60182082D01*
X107714999Y-60097203D01*
X107714998Y-60097200D01*
X107659814Y-59930666D01*
X107567712Y-59781344D01*
X107443656Y-59657288D01*
X107294334Y-59565186D01*
X107127797Y-59510001D01*
X107127795Y-59510000D01*
X107025010Y-59499500D01*
X105974998Y-59499500D01*
X105974980Y-59499501D01*
X105872203Y-59510000D01*
X105872200Y-59510001D01*
X105705668Y-59565185D01*
X105705663Y-59565187D01*
X105556342Y-59657289D01*
X105432289Y-59781342D01*
X105340187Y-59930663D01*
X105340185Y-59930668D01*
X105335445Y-59944974D01*
X105285001Y-60097203D01*
X105285001Y-60097204D01*
X105285000Y-60097204D01*
X105274500Y-60199983D01*
X105274500Y-60800001D01*
X101199999Y-60800001D01*
X103000000Y-59000000D01*
X103000000Y-58500000D01*
X123357125Y-58500000D01*
X123376584Y-58709998D01*
X123376584Y-58710000D01*
X123376585Y-58710003D01*
X123419894Y-58862218D01*
X123434302Y-58912857D01*
X123528308Y-59101646D01*
X123655406Y-59269952D01*
X123811263Y-59412033D01*
X123811265Y-59412035D01*
X123990573Y-59523058D01*
X123990574Y-59523058D01*
X123990577Y-59523060D01*
X124187237Y-59599246D01*
X124394549Y-59638000D01*
X124394551Y-59638000D01*
X124605449Y-59638000D01*
X124605451Y-59638000D01*
X124812763Y-59599246D01*
X125009423Y-59523060D01*
X125188736Y-59412034D01*
X125326230Y-59286692D01*
X125344593Y-59269952D01*
X125389018Y-59211124D01*
X125471692Y-59101646D01*
X125565699Y-58912854D01*
X125623415Y-58710003D01*
X125642875Y-58500000D01*
X125623415Y-58289997D01*
X125565699Y-58087146D01*
X125471692Y-57898354D01*
X125344595Y-57730050D01*
X125344593Y-57730047D01*
X125188736Y-57587966D01*
X125188734Y-57587964D01*
X125009426Y-57476941D01*
X125009420Y-57476939D01*
X124812763Y-57400754D01*
X124605451Y-57362000D01*
X124394549Y-57362000D01*
X124187237Y-57400754D01*
X124187234Y-57400754D01*
X124187234Y-57400755D01*
X123990579Y-57476939D01*
X123990573Y-57476941D01*
X123811265Y-57587964D01*
X123811263Y-57587966D01*
X123655406Y-57730047D01*
X123528308Y-57898353D01*
X123434302Y-58087142D01*
X123434301Y-58087146D01*
X123379834Y-58278580D01*
X123376584Y-58290001D01*
X123357125Y-58500000D01*
X103000000Y-58500000D01*
X103000000Y-50551362D01*
X103019685Y-50484323D01*
X103036319Y-50463681D01*
X104463681Y-49036319D01*
X104525004Y-49002834D01*
X104551362Y-49000000D01*
X108186543Y-49000000D01*
X108253582Y-49019685D01*
G37*
%TD.AperFunction*%
%TD*%
%TA.AperFunction,Conductor*%
%TO.N,Net-(PS1-+VO)*%
G36*
X153515677Y-94985366D02*
G01*
X153536319Y-95002000D01*
X154463181Y-95928862D01*
X154496666Y-95990185D01*
X154499500Y-96016543D01*
X154499500Y-105844061D01*
X154479815Y-105911100D01*
X154427011Y-105956855D01*
X154375973Y-105968060D01*
X146000000Y-105999999D01*
X146000000Y-114375500D01*
X145980315Y-114442539D01*
X145927511Y-114488294D01*
X145876000Y-114499500D01*
X120585181Y-114499500D01*
X120518142Y-114479815D01*
X120497500Y-114463181D01*
X120046000Y-114011681D01*
X120012515Y-113950358D01*
X120017499Y-113880666D01*
X120059371Y-113824733D01*
X120124835Y-113800316D01*
X120133681Y-113800000D01*
X120450000Y-113800000D01*
X120450000Y-112750000D01*
X120950000Y-112750000D01*
X120950000Y-113800000D01*
X121397828Y-113800000D01*
X121397844Y-113799999D01*
X121457372Y-113793598D01*
X121457379Y-113793596D01*
X121592086Y-113743354D01*
X121592093Y-113743350D01*
X121707187Y-113657190D01*
X121707190Y-113657187D01*
X121793350Y-113542093D01*
X121793354Y-113542086D01*
X121843596Y-113407379D01*
X121843598Y-113407372D01*
X121849999Y-113347844D01*
X121850000Y-113347827D01*
X121850000Y-112750000D01*
X120950000Y-112750000D01*
X120450000Y-112750000D01*
X120450000Y-111200000D01*
X120950000Y-111200000D01*
X120950000Y-112250000D01*
X121850000Y-112250000D01*
X121850000Y-111652172D01*
X121849999Y-111652155D01*
X121843598Y-111592627D01*
X121843596Y-111592620D01*
X121793354Y-111457913D01*
X121793350Y-111457906D01*
X121707190Y-111342812D01*
X121707187Y-111342809D01*
X121592093Y-111256649D01*
X121592086Y-111256645D01*
X121457379Y-111206403D01*
X121457372Y-111206401D01*
X121397844Y-111200000D01*
X120950000Y-111200000D01*
X120450000Y-111200000D01*
X120124000Y-111200000D01*
X120056961Y-111180315D01*
X120011206Y-111127511D01*
X120000000Y-111076000D01*
X120000000Y-108500000D01*
X137419892Y-108500000D01*
X137438282Y-108698464D01*
X137438282Y-108698466D01*
X137438283Y-108698469D01*
X137492829Y-108890180D01*
X137492830Y-108890183D01*
X137581670Y-109068598D01*
X137581675Y-109068606D01*
X137701792Y-109227666D01*
X137828508Y-109343182D01*
X137849090Y-109361945D01*
X138018554Y-109466873D01*
X138204414Y-109538876D01*
X138400340Y-109575500D01*
X138400342Y-109575500D01*
X138599658Y-109575500D01*
X138599660Y-109575500D01*
X138795586Y-109538876D01*
X138981446Y-109466873D01*
X139150910Y-109361945D01*
X139298209Y-109227664D01*
X139418326Y-109068604D01*
X139507171Y-108890180D01*
X139561717Y-108698469D01*
X139580108Y-108500000D01*
X139561717Y-108301531D01*
X139507171Y-108109820D01*
X139505759Y-108106984D01*
X139418329Y-107931401D01*
X139418324Y-107931393D01*
X139298207Y-107772333D01*
X139150911Y-107638056D01*
X139150910Y-107638055D01*
X139086375Y-107598096D01*
X138981447Y-107533127D01*
X138981445Y-107533126D01*
X138899379Y-107501334D01*
X138795586Y-107461124D01*
X138795582Y-107461123D01*
X138716639Y-107446366D01*
X138599660Y-107424500D01*
X138400340Y-107424500D01*
X138310254Y-107441339D01*
X138204417Y-107461123D01*
X138204415Y-107461123D01*
X138204414Y-107461124D01*
X138152517Y-107481229D01*
X138018554Y-107533126D01*
X138018552Y-107533127D01*
X137849088Y-107638056D01*
X137701792Y-107772333D01*
X137581675Y-107931393D01*
X137581670Y-107931401D01*
X137492830Y-108109816D01*
X137438282Y-108301535D01*
X137419892Y-108499999D01*
X137419892Y-108500000D01*
X120000000Y-108500000D01*
X120000000Y-105120000D01*
X127909975Y-105120000D01*
X127930042Y-105374989D01*
X127989752Y-105623702D01*
X128087634Y-105860012D01*
X128087636Y-105860015D01*
X128221277Y-106078098D01*
X128221284Y-106078107D01*
X128224533Y-106081912D01*
X128862421Y-105444024D01*
X128875359Y-105475258D01*
X128957437Y-105598097D01*
X129061903Y-105702563D01*
X129184742Y-105784641D01*
X129215974Y-105797578D01*
X128578087Y-106435465D01*
X128581897Y-106438719D01*
X128799984Y-106572363D01*
X128799987Y-106572365D01*
X129036297Y-106670247D01*
X129285011Y-106729957D01*
X129285010Y-106729957D01*
X129540000Y-106750024D01*
X129794989Y-106729957D01*
X130043702Y-106670247D01*
X130158144Y-106622844D01*
X137425000Y-106622844D01*
X137431401Y-106682372D01*
X137431403Y-106682379D01*
X137481645Y-106817086D01*
X137481649Y-106817093D01*
X137567809Y-106932187D01*
X137567812Y-106932190D01*
X137682906Y-107018350D01*
X137682913Y-107018354D01*
X137817620Y-107068596D01*
X137817627Y-107068598D01*
X137877155Y-107074999D01*
X137877172Y-107075000D01*
X138250000Y-107075000D01*
X138250000Y-106280330D01*
X138269745Y-106300075D01*
X138355255Y-106349444D01*
X138450630Y-106375000D01*
X138549370Y-106375000D01*
X138644745Y-106349444D01*
X138730255Y-106300075D01*
X138750000Y-106280330D01*
X138750000Y-107075000D01*
X139122828Y-107075000D01*
X139122844Y-107074999D01*
X139182372Y-107068598D01*
X139182379Y-107068596D01*
X139317086Y-107018354D01*
X139317093Y-107018350D01*
X139432187Y-106932190D01*
X139432190Y-106932187D01*
X139518350Y-106817093D01*
X139518354Y-106817086D01*
X139568596Y-106682379D01*
X139568598Y-106682372D01*
X139574999Y-106622844D01*
X139575000Y-106622827D01*
X139575000Y-106250000D01*
X138780330Y-106250000D01*
X138800075Y-106230255D01*
X138849444Y-106144745D01*
X138875000Y-106049370D01*
X138875000Y-105950630D01*
X138849444Y-105855255D01*
X138800075Y-105769745D01*
X138780330Y-105750000D01*
X139575000Y-105750000D01*
X139575000Y-105377172D01*
X139574999Y-105377155D01*
X139568598Y-105317627D01*
X139568596Y-105317620D01*
X139518354Y-105182913D01*
X139518350Y-105182906D01*
X139432190Y-105067812D01*
X139432187Y-105067809D01*
X139317093Y-104981649D01*
X139317086Y-104981645D01*
X139182379Y-104931403D01*
X139182372Y-104931401D01*
X139122844Y-104925000D01*
X138750000Y-104925000D01*
X138750000Y-105719670D01*
X138730255Y-105699925D01*
X138644745Y-105650556D01*
X138549370Y-105625000D01*
X138450630Y-105625000D01*
X138355255Y-105650556D01*
X138269745Y-105699925D01*
X138250000Y-105719670D01*
X138250000Y-104925000D01*
X137877155Y-104925000D01*
X137817627Y-104931401D01*
X137817620Y-104931403D01*
X137682913Y-104981645D01*
X137682906Y-104981649D01*
X137567812Y-105067809D01*
X137567809Y-105067812D01*
X137481649Y-105182906D01*
X137481645Y-105182913D01*
X137431403Y-105317620D01*
X137431401Y-105317627D01*
X137425000Y-105377155D01*
X137425000Y-105750000D01*
X138219670Y-105750000D01*
X138199925Y-105769745D01*
X138150556Y-105855255D01*
X138125000Y-105950630D01*
X138125000Y-106049370D01*
X138150556Y-106144745D01*
X138199925Y-106230255D01*
X138219670Y-106250000D01*
X137425000Y-106250000D01*
X137425000Y-106622844D01*
X130158144Y-106622844D01*
X130280012Y-106572365D01*
X130280015Y-106572363D01*
X130498095Y-106438724D01*
X130498110Y-106438713D01*
X130501911Y-106435466D01*
X130501911Y-106435464D01*
X129864025Y-105797577D01*
X129895258Y-105784641D01*
X130018097Y-105702563D01*
X130122563Y-105598097D01*
X130204641Y-105475258D01*
X130217578Y-105444025D01*
X130855464Y-106081911D01*
X130855466Y-106081911D01*
X130858713Y-106078110D01*
X130858724Y-106078095D01*
X130992363Y-105860015D01*
X130992365Y-105860012D01*
X131090247Y-105623702D01*
X131149957Y-105374989D01*
X131170024Y-105120000D01*
X131149957Y-104865010D01*
X131090247Y-104616297D01*
X130992365Y-104379987D01*
X130992363Y-104379984D01*
X130858719Y-104161897D01*
X130855465Y-104158087D01*
X130217578Y-104795974D01*
X130204641Y-104764742D01*
X130122563Y-104641903D01*
X130018097Y-104537437D01*
X129895258Y-104455359D01*
X129864024Y-104442421D01*
X130501912Y-103804533D01*
X130498107Y-103801284D01*
X130498098Y-103801277D01*
X130280015Y-103667636D01*
X130280012Y-103667634D01*
X130043702Y-103569752D01*
X129794988Y-103510042D01*
X129794989Y-103510042D01*
X129540000Y-103489975D01*
X129285010Y-103510042D01*
X129036297Y-103569752D01*
X128799987Y-103667634D01*
X128799984Y-103667636D01*
X128581893Y-103801282D01*
X128578086Y-103804532D01*
X129215975Y-104442421D01*
X129184742Y-104455359D01*
X129061903Y-104537437D01*
X128957437Y-104641903D01*
X128875359Y-104764742D01*
X128862421Y-104795975D01*
X128224532Y-104158086D01*
X128221282Y-104161893D01*
X128087636Y-104379984D01*
X128087634Y-104379987D01*
X127989752Y-104616297D01*
X127930042Y-104865010D01*
X127909975Y-105120000D01*
X120000000Y-105120000D01*
X120000000Y-100517043D01*
X120019685Y-100450004D01*
X120036319Y-100429362D01*
X120963681Y-99502000D01*
X121025004Y-99468515D01*
X121051362Y-99465681D01*
X121325241Y-99465681D01*
X121360177Y-99470704D01*
X121408942Y-99485023D01*
X121408946Y-99485024D01*
X121551362Y-99505500D01*
X121551365Y-99505500D01*
X143448640Y-99505500D01*
X143458786Y-99504955D01*
X143502678Y-99502603D01*
X143502686Y-99502602D01*
X143502688Y-99502602D01*
X143502689Y-99502602D01*
X143509682Y-99501849D01*
X143529036Y-99499769D01*
X143529046Y-99499767D01*
X143529049Y-99499767D01*
X143538648Y-99498211D01*
X143582448Y-99491114D01*
X143717257Y-99440832D01*
X143778580Y-99407347D01*
X143893761Y-99321123D01*
X144821123Y-98393761D01*
X144857288Y-98353500D01*
X144873922Y-98332858D01*
X144905567Y-98288974D01*
X144965338Y-98158097D01*
X144985023Y-98091058D01*
X144985024Y-98091054D01*
X144997688Y-98002965D01*
X145026711Y-97939414D01*
X145032703Y-97932977D01*
X145241310Y-97724370D01*
X145302629Y-97690888D01*
X145372321Y-97695872D01*
X145412624Y-97726042D01*
X145419883Y-97726562D01*
X146173473Y-96972971D01*
X146262087Y-97105590D01*
X146394410Y-97237913D01*
X146527027Y-97326525D01*
X145773436Y-98080115D01*
X145915960Y-98186807D01*
X145915961Y-98186808D01*
X146167042Y-98323908D01*
X146167041Y-98323908D01*
X146435104Y-98423890D01*
X146714637Y-98484699D01*
X146999999Y-98505109D01*
X147000001Y-98505109D01*
X147285362Y-98484699D01*
X147564895Y-98423890D01*
X147832958Y-98323908D01*
X148084047Y-98186803D01*
X148226561Y-98080116D01*
X148226562Y-98080115D01*
X147472972Y-97326525D01*
X147605590Y-97237913D01*
X147737913Y-97105590D01*
X147826525Y-96972972D01*
X148580115Y-97726562D01*
X148580116Y-97726561D01*
X148686803Y-97584047D01*
X148823908Y-97332958D01*
X148923890Y-97064895D01*
X148984699Y-96785362D01*
X149005109Y-96500001D01*
X149005109Y-96499998D01*
X148984699Y-96214637D01*
X148923890Y-95935104D01*
X148823908Y-95667041D01*
X148686808Y-95415961D01*
X148686807Y-95415960D01*
X148515360Y-95186934D01*
X148515350Y-95186922D01*
X148505790Y-95177362D01*
X148472305Y-95116039D01*
X148477289Y-95046347D01*
X148519161Y-94990414D01*
X148584625Y-94965997D01*
X148593471Y-94965681D01*
X153448638Y-94965681D01*
X153515677Y-94985366D01*
G37*
%TD.AperFunction*%
%TD*%
%TA.AperFunction,Conductor*%
%TO.N,Net-(J2-Pin_2)*%
G36*
X149000000Y-66000000D02*
G01*
X154375500Y-66000000D01*
X154442539Y-66019685D01*
X154488294Y-66072489D01*
X154499500Y-66124000D01*
X154499500Y-85876000D01*
X154479815Y-85943039D01*
X154427011Y-85988794D01*
X154375500Y-86000000D01*
X146551362Y-86000000D01*
X146484323Y-85980315D01*
X146463681Y-85963681D01*
X132500000Y-72000000D01*
X104051362Y-72000000D01*
X103984323Y-71980315D01*
X103963681Y-71963681D01*
X101000000Y-69000000D01*
X97066363Y-69000000D01*
X96999324Y-68980315D01*
X96963189Y-68944783D01*
X96020826Y-67531239D01*
X96000018Y-67464540D01*
X96000000Y-67462456D01*
X96000000Y-62129500D01*
X96019685Y-62062461D01*
X96072489Y-62016706D01*
X96124000Y-62005500D01*
X96170100Y-62005500D01*
X96186164Y-62005049D01*
X96189644Y-62005000D01*
X99449140Y-62005000D01*
X99455630Y-62004651D01*
X99503178Y-62002103D01*
X99516125Y-62000710D01*
X99529382Y-62000000D01*
X100000000Y-62000000D01*
X145000000Y-62000000D01*
X149000000Y-66000000D01*
G37*
%TD.AperFunction*%
%TD*%
M02*
