%TF.GenerationSoftware,KiCad,Pcbnew,8.0.1*%
%TF.CreationDate,2024-08-07T00:37:21+09:00*%
%TF.ProjectId,insulation_board,696e7375-6c61-4746-996f-6e5f626f6172,rev?*%
%TF.SameCoordinates,Original*%
%TF.FileFunction,Soldermask,Bot*%
%TF.FilePolarity,Negative*%
%FSLAX46Y46*%
G04 Gerber Fmt 4.6, Leading zero omitted, Abs format (unit mm)*
G04 Created by KiCad (PCBNEW 8.0.1) date 2024-08-07 00:37:21*
%MOMM*%
%LPD*%
G01*
G04 APERTURE LIST*
G04 Aperture macros list*
%AMRoundRect*
0 Rectangle with rounded corners*
0 $1 Rounding radius*
0 $2 $3 $4 $5 $6 $7 $8 $9 X,Y pos of 4 corners*
0 Add a 4 corners polygon primitive as box body*
4,1,4,$2,$3,$4,$5,$6,$7,$8,$9,$2,$3,0*
0 Add four circle primitives for the rounded corners*
1,1,$1+$1,$2,$3*
1,1,$1+$1,$4,$5*
1,1,$1+$1,$6,$7*
1,1,$1+$1,$8,$9*
0 Add four rect primitives between the rounded corners*
20,1,$1+$1,$2,$3,$4,$5,0*
20,1,$1+$1,$4,$5,$6,$7,0*
20,1,$1+$1,$6,$7,$8,$9,0*
20,1,$1+$1,$8,$9,$2,$3,0*%
G04 Aperture macros list end*
%ADD10C,4.300000*%
%ADD11RoundRect,0.102000X-0.654000X0.654000X-0.654000X-0.654000X0.654000X-0.654000X0.654000X0.654000X0*%
%ADD12C,1.512000*%
%ADD13RoundRect,0.250000X0.600000X0.725000X-0.600000X0.725000X-0.600000X-0.725000X0.600000X-0.725000X0*%
%ADD14O,1.700000X1.950000*%
%ADD15O,1.700000X1.700000*%
%ADD16R,1.700000X1.700000*%
%ADD17RoundRect,0.200000X-0.275000X0.200000X-0.275000X-0.200000X0.275000X-0.200000X0.275000X0.200000X0*%
%ADD18RoundRect,0.200000X-0.200000X-0.275000X0.200000X-0.275000X0.200000X0.275000X-0.200000X0.275000X0*%
%ADD19RoundRect,0.200000X0.275000X-0.200000X0.275000X0.200000X-0.275000X0.200000X-0.275000X-0.200000X0*%
G04 APERTURE END LIST*
D10*
%TO.C,H1*%
X178250000Y-36000000D03*
%TD*%
D11*
%TO.C,J4*%
X181650000Y-54650000D03*
D12*
X181650000Y-56650000D03*
X181650000Y-58650000D03*
X181650000Y-60650000D03*
%TD*%
D13*
%TO.C,J1*%
X181000000Y-77500000D03*
D14*
X178500000Y-77500000D03*
X176000000Y-77500000D03*
X173500000Y-77500000D03*
X171000000Y-77500000D03*
X168500000Y-77500000D03*
%TD*%
D11*
%TO.C,J2*%
X181650000Y-65150000D03*
D12*
X181650000Y-67150000D03*
X181650000Y-69150000D03*
X181650000Y-71150000D03*
%TD*%
D15*
%TO.C,J3*%
X164960000Y-50580000D03*
X167500000Y-50580000D03*
X164960000Y-48040000D03*
X167500000Y-48040000D03*
X164960000Y-45500000D03*
D16*
X167500000Y-45500000D03*
%TD*%
D17*
%TO.C,R7*%
X179500000Y-67190000D03*
X179500000Y-68840000D03*
%TD*%
D18*
%TO.C,R1*%
X166000000Y-54000000D03*
X167650000Y-54000000D03*
%TD*%
D19*
%TO.C,R5*%
X179500000Y-65190000D03*
X179500000Y-63540000D03*
%TD*%
D18*
%TO.C,R4*%
X166000000Y-69000000D03*
X167650000Y-69000000D03*
%TD*%
D17*
%TO.C,R10*%
X176000000Y-74000000D03*
X176000000Y-75650000D03*
%TD*%
D18*
%TO.C,R2*%
X166000000Y-59000000D03*
X167650000Y-59000000D03*
%TD*%
D17*
%TO.C,R8*%
X179500000Y-56690000D03*
X179500000Y-58340000D03*
%TD*%
D19*
%TO.C,R6*%
X179500000Y-54500000D03*
X179500000Y-52850000D03*
%TD*%
D17*
%TO.C,R16*%
X173500000Y-74000000D03*
X173500000Y-75650000D03*
%TD*%
%TO.C,R11*%
X178500000Y-74000000D03*
X178500000Y-75650000D03*
%TD*%
%TO.C,R13*%
X171000000Y-74000000D03*
X171000000Y-75650000D03*
%TD*%
D18*
%TO.C,R3*%
X166000000Y-64000000D03*
X167650000Y-64000000D03*
%TD*%
M02*
