%TF.GenerationSoftware,KiCad,Pcbnew,8.0.1*%
%TF.CreationDate,2024-08-07T00:37:21+09:00*%
%TF.ProjectId,insulation_board,696e7375-6c61-4746-996f-6e5f626f6172,rev?*%
%TF.SameCoordinates,Original*%
%TF.FileFunction,Legend,Top*%
%TF.FilePolarity,Positive*%
%FSLAX46Y46*%
G04 Gerber Fmt 4.6, Leading zero omitted, Abs format (unit mm)*
G04 Created by KiCad (PCBNEW 8.0.1) date 2024-08-07 00:37:21*
%MOMM*%
%LPD*%
G01*
G04 APERTURE LIST*
G04 Aperture macros list*
%AMRoundRect*
0 Rectangle with rounded corners*
0 $1 Rounding radius*
0 $2 $3 $4 $5 $6 $7 $8 $9 X,Y pos of 4 corners*
0 Add a 4 corners polygon primitive as box body*
4,1,4,$2,$3,$4,$5,$6,$7,$8,$9,$2,$3,0*
0 Add four circle primitives for the rounded corners*
1,1,$1+$1,$2,$3*
1,1,$1+$1,$4,$5*
1,1,$1+$1,$6,$7*
1,1,$1+$1,$8,$9*
0 Add four rect primitives between the rounded corners*
20,1,$1+$1,$2,$3,$4,$5,0*
20,1,$1+$1,$4,$5,$6,$7,0*
20,1,$1+$1,$6,$7,$8,$9,0*
20,1,$1+$1,$8,$9,$2,$3,0*%
G04 Aperture macros list end*
%ADD10C,0.254000*%
%ADD11C,0.150000*%
%ADD12C,0.200000*%
%ADD13C,0.127000*%
%ADD14C,0.120000*%
%ADD15R,0.450000X1.100000*%
%ADD16C,4.300000*%
%ADD17RoundRect,0.102000X-0.654000X0.654000X-0.654000X-0.654000X0.654000X-0.654000X0.654000X0.654000X0*%
%ADD18C,1.512000*%
%ADD19RoundRect,0.200000X0.200000X0.275000X-0.200000X0.275000X-0.200000X-0.275000X0.200000X-0.275000X0*%
%ADD20RoundRect,0.225000X0.250000X-0.225000X0.250000X0.225000X-0.250000X0.225000X-0.250000X-0.225000X0*%
%ADD21R,2.100000X1.450000*%
%ADD22RoundRect,0.250000X0.600000X0.725000X-0.600000X0.725000X-0.600000X-0.725000X0.600000X-0.725000X0*%
%ADD23O,1.700000X1.950000*%
%ADD24RoundRect,0.225000X-0.250000X0.225000X-0.250000X-0.225000X0.250000X-0.225000X0.250000X0.225000X0*%
%ADD25O,1.700000X1.700000*%
%ADD26R,1.700000X1.700000*%
G04 APERTURE END LIST*
D10*
X171195270Y-67620952D02*
X171134794Y-67741904D01*
X171134794Y-67741904D02*
X171013842Y-67862857D01*
X171013842Y-67862857D02*
X170832413Y-68044285D01*
X170832413Y-68044285D02*
X170771937Y-68165238D01*
X170771937Y-68165238D02*
X170771937Y-68286190D01*
X171074318Y-68225714D02*
X171013842Y-68346666D01*
X171013842Y-68346666D02*
X170892889Y-68467619D01*
X170892889Y-68467619D02*
X170650984Y-68528095D01*
X170650984Y-68528095D02*
X170227651Y-68528095D01*
X170227651Y-68528095D02*
X169985746Y-68467619D01*
X169985746Y-68467619D02*
X169864794Y-68346666D01*
X169864794Y-68346666D02*
X169804318Y-68225714D01*
X169804318Y-68225714D02*
X169804318Y-67983809D01*
X169804318Y-67983809D02*
X169864794Y-67862857D01*
X169864794Y-67862857D02*
X169985746Y-67741904D01*
X169985746Y-67741904D02*
X170227651Y-67681428D01*
X170227651Y-67681428D02*
X170650984Y-67681428D01*
X170650984Y-67681428D02*
X170892889Y-67741904D01*
X170892889Y-67741904D02*
X171013842Y-67862857D01*
X171013842Y-67862857D02*
X171074318Y-67983809D01*
X171074318Y-67983809D02*
X171074318Y-68225714D01*
X169925270Y-67197619D02*
X169864794Y-67137143D01*
X169864794Y-67137143D02*
X169804318Y-67016190D01*
X169804318Y-67016190D02*
X169804318Y-66713809D01*
X169804318Y-66713809D02*
X169864794Y-66592857D01*
X169864794Y-66592857D02*
X169925270Y-66532381D01*
X169925270Y-66532381D02*
X170046222Y-66471904D01*
X170046222Y-66471904D02*
X170167175Y-66471904D01*
X170167175Y-66471904D02*
X170348603Y-66532381D01*
X170348603Y-66532381D02*
X171074318Y-67258095D01*
X171074318Y-67258095D02*
X171074318Y-66471904D01*
D11*
X170738095Y-36454819D02*
X170738095Y-35454819D01*
X170738095Y-35931009D02*
X171309523Y-35931009D01*
X171309523Y-36454819D02*
X171309523Y-35454819D01*
X172309523Y-36454819D02*
X171738095Y-36454819D01*
X172023809Y-36454819D02*
X172023809Y-35454819D01*
X172023809Y-35454819D02*
X171928571Y-35597676D01*
X171928571Y-35597676D02*
X171833333Y-35692914D01*
X171833333Y-35692914D02*
X171738095Y-35740533D01*
X182504819Y-51523333D02*
X183219104Y-51523333D01*
X183219104Y-51523333D02*
X183361961Y-51570952D01*
X183361961Y-51570952D02*
X183457200Y-51666190D01*
X183457200Y-51666190D02*
X183504819Y-51809047D01*
X183504819Y-51809047D02*
X183504819Y-51904285D01*
X182838152Y-50618571D02*
X183504819Y-50618571D01*
X182457200Y-50856666D02*
X183171485Y-51094761D01*
X183171485Y-51094761D02*
X183171485Y-50475714D01*
X164658333Y-53454819D02*
X164325000Y-52978628D01*
X164086905Y-53454819D02*
X164086905Y-52454819D01*
X164086905Y-52454819D02*
X164467857Y-52454819D01*
X164467857Y-52454819D02*
X164563095Y-52502438D01*
X164563095Y-52502438D02*
X164610714Y-52550057D01*
X164610714Y-52550057D02*
X164658333Y-52645295D01*
X164658333Y-52645295D02*
X164658333Y-52788152D01*
X164658333Y-52788152D02*
X164610714Y-52883390D01*
X164610714Y-52883390D02*
X164563095Y-52931009D01*
X164563095Y-52931009D02*
X164467857Y-52978628D01*
X164467857Y-52978628D02*
X164086905Y-52978628D01*
X165134524Y-53454819D02*
X165325000Y-53454819D01*
X165325000Y-53454819D02*
X165420238Y-53407200D01*
X165420238Y-53407200D02*
X165467857Y-53359580D01*
X165467857Y-53359580D02*
X165563095Y-53216723D01*
X165563095Y-53216723D02*
X165610714Y-53026247D01*
X165610714Y-53026247D02*
X165610714Y-52645295D01*
X165610714Y-52645295D02*
X165563095Y-52550057D01*
X165563095Y-52550057D02*
X165515476Y-52502438D01*
X165515476Y-52502438D02*
X165420238Y-52454819D01*
X165420238Y-52454819D02*
X165229762Y-52454819D01*
X165229762Y-52454819D02*
X165134524Y-52502438D01*
X165134524Y-52502438D02*
X165086905Y-52550057D01*
X165086905Y-52550057D02*
X165039286Y-52645295D01*
X165039286Y-52645295D02*
X165039286Y-52883390D01*
X165039286Y-52883390D02*
X165086905Y-52978628D01*
X165086905Y-52978628D02*
X165134524Y-53026247D01*
X165134524Y-53026247D02*
X165229762Y-53073866D01*
X165229762Y-53073866D02*
X165420238Y-53073866D01*
X165420238Y-53073866D02*
X165515476Y-53026247D01*
X165515476Y-53026247D02*
X165563095Y-52978628D01*
X165563095Y-52978628D02*
X165610714Y-52883390D01*
X172359580Y-49441666D02*
X172407200Y-49489285D01*
X172407200Y-49489285D02*
X172454819Y-49632142D01*
X172454819Y-49632142D02*
X172454819Y-49727380D01*
X172454819Y-49727380D02*
X172407200Y-49870237D01*
X172407200Y-49870237D02*
X172311961Y-49965475D01*
X172311961Y-49965475D02*
X172216723Y-50013094D01*
X172216723Y-50013094D02*
X172026247Y-50060713D01*
X172026247Y-50060713D02*
X171883390Y-50060713D01*
X171883390Y-50060713D02*
X171692914Y-50013094D01*
X171692914Y-50013094D02*
X171597676Y-49965475D01*
X171597676Y-49965475D02*
X171502438Y-49870237D01*
X171502438Y-49870237D02*
X171454819Y-49727380D01*
X171454819Y-49727380D02*
X171454819Y-49632142D01*
X171454819Y-49632142D02*
X171502438Y-49489285D01*
X171502438Y-49489285D02*
X171550057Y-49441666D01*
X172454819Y-48489285D02*
X172454819Y-49060713D01*
X172454819Y-48774999D02*
X171454819Y-48774999D01*
X171454819Y-48774999D02*
X171597676Y-48870237D01*
X171597676Y-48870237D02*
X171692914Y-48965475D01*
X171692914Y-48965475D02*
X171740533Y-49060713D01*
D10*
X171195270Y-57620952D02*
X171134794Y-57741904D01*
X171134794Y-57741904D02*
X171013842Y-57862857D01*
X171013842Y-57862857D02*
X170832413Y-58044285D01*
X170832413Y-58044285D02*
X170771937Y-58165238D01*
X170771937Y-58165238D02*
X170771937Y-58286190D01*
X171074318Y-58225714D02*
X171013842Y-58346666D01*
X171013842Y-58346666D02*
X170892889Y-58467619D01*
X170892889Y-58467619D02*
X170650984Y-58528095D01*
X170650984Y-58528095D02*
X170227651Y-58528095D01*
X170227651Y-58528095D02*
X169985746Y-58467619D01*
X169985746Y-58467619D02*
X169864794Y-58346666D01*
X169864794Y-58346666D02*
X169804318Y-58225714D01*
X169804318Y-58225714D02*
X169804318Y-57983809D01*
X169804318Y-57983809D02*
X169864794Y-57862857D01*
X169864794Y-57862857D02*
X169985746Y-57741904D01*
X169985746Y-57741904D02*
X170227651Y-57681428D01*
X170227651Y-57681428D02*
X170650984Y-57681428D01*
X170650984Y-57681428D02*
X170892889Y-57741904D01*
X170892889Y-57741904D02*
X171013842Y-57862857D01*
X171013842Y-57862857D02*
X171074318Y-57983809D01*
X171074318Y-57983809D02*
X171074318Y-58225714D01*
X171074318Y-56471904D02*
X171074318Y-57197619D01*
X171074318Y-56834762D02*
X169804318Y-56834762D01*
X169804318Y-56834762D02*
X169985746Y-56955714D01*
X169985746Y-56955714D02*
X170106699Y-57076666D01*
X170106699Y-57076666D02*
X170167175Y-57197619D01*
X171260237Y-63384318D02*
X171260237Y-62114318D01*
X172590714Y-63263365D02*
X172530238Y-63323842D01*
X172530238Y-63323842D02*
X172348809Y-63384318D01*
X172348809Y-63384318D02*
X172227857Y-63384318D01*
X172227857Y-63384318D02*
X172046428Y-63323842D01*
X172046428Y-63323842D02*
X171925476Y-63202889D01*
X171925476Y-63202889D02*
X171864999Y-63081937D01*
X171864999Y-63081937D02*
X171804523Y-62840032D01*
X171804523Y-62840032D02*
X171804523Y-62658603D01*
X171804523Y-62658603D02*
X171864999Y-62416699D01*
X171864999Y-62416699D02*
X171925476Y-62295746D01*
X171925476Y-62295746D02*
X172046428Y-62174794D01*
X172046428Y-62174794D02*
X172227857Y-62114318D01*
X172227857Y-62114318D02*
X172348809Y-62114318D01*
X172348809Y-62114318D02*
X172530238Y-62174794D01*
X172530238Y-62174794D02*
X172590714Y-62235270D01*
X173800238Y-63384318D02*
X173074523Y-63384318D01*
X173437380Y-63384318D02*
X173437380Y-62114318D01*
X173437380Y-62114318D02*
X173316428Y-62295746D01*
X173316428Y-62295746D02*
X173195476Y-62416699D01*
X173195476Y-62416699D02*
X173074523Y-62477175D01*
D11*
X164032142Y-72384819D02*
X163698809Y-71908628D01*
X163460714Y-72384819D02*
X163460714Y-71384819D01*
X163460714Y-71384819D02*
X163841666Y-71384819D01*
X163841666Y-71384819D02*
X163936904Y-71432438D01*
X163936904Y-71432438D02*
X163984523Y-71480057D01*
X163984523Y-71480057D02*
X164032142Y-71575295D01*
X164032142Y-71575295D02*
X164032142Y-71718152D01*
X164032142Y-71718152D02*
X163984523Y-71813390D01*
X163984523Y-71813390D02*
X163936904Y-71861009D01*
X163936904Y-71861009D02*
X163841666Y-71908628D01*
X163841666Y-71908628D02*
X163460714Y-71908628D01*
X164984523Y-72384819D02*
X164413095Y-72384819D01*
X164698809Y-72384819D02*
X164698809Y-71384819D01*
X164698809Y-71384819D02*
X164603571Y-71527676D01*
X164603571Y-71527676D02*
X164508333Y-71622914D01*
X164508333Y-71622914D02*
X164413095Y-71670533D01*
X165889285Y-71384819D02*
X165413095Y-71384819D01*
X165413095Y-71384819D02*
X165365476Y-71861009D01*
X165365476Y-71861009D02*
X165413095Y-71813390D01*
X165413095Y-71813390D02*
X165508333Y-71765771D01*
X165508333Y-71765771D02*
X165746428Y-71765771D01*
X165746428Y-71765771D02*
X165841666Y-71813390D01*
X165841666Y-71813390D02*
X165889285Y-71861009D01*
X165889285Y-71861009D02*
X165936904Y-71956247D01*
X165936904Y-71956247D02*
X165936904Y-72194342D01*
X165936904Y-72194342D02*
X165889285Y-72289580D01*
X165889285Y-72289580D02*
X165841666Y-72337200D01*
X165841666Y-72337200D02*
X165746428Y-72384819D01*
X165746428Y-72384819D02*
X165508333Y-72384819D01*
X165508333Y-72384819D02*
X165413095Y-72337200D01*
X165413095Y-72337200D02*
X165365476Y-72289580D01*
X174166666Y-74954819D02*
X174166666Y-75669104D01*
X174166666Y-75669104D02*
X174119047Y-75811961D01*
X174119047Y-75811961D02*
X174023809Y-75907200D01*
X174023809Y-75907200D02*
X173880952Y-75954819D01*
X173880952Y-75954819D02*
X173785714Y-75954819D01*
X175166666Y-75954819D02*
X174595238Y-75954819D01*
X174880952Y-75954819D02*
X174880952Y-74954819D01*
X174880952Y-74954819D02*
X174785714Y-75097676D01*
X174785714Y-75097676D02*
X174690476Y-75192914D01*
X174690476Y-75192914D02*
X174595238Y-75240533D01*
X164359580Y-74166666D02*
X164407200Y-74214285D01*
X164407200Y-74214285D02*
X164454819Y-74357142D01*
X164454819Y-74357142D02*
X164454819Y-74452380D01*
X164454819Y-74452380D02*
X164407200Y-74595237D01*
X164407200Y-74595237D02*
X164311961Y-74690475D01*
X164311961Y-74690475D02*
X164216723Y-74738094D01*
X164216723Y-74738094D02*
X164026247Y-74785713D01*
X164026247Y-74785713D02*
X163883390Y-74785713D01*
X163883390Y-74785713D02*
X163692914Y-74738094D01*
X163692914Y-74738094D02*
X163597676Y-74690475D01*
X163597676Y-74690475D02*
X163502438Y-74595237D01*
X163502438Y-74595237D02*
X163454819Y-74452380D01*
X163454819Y-74452380D02*
X163454819Y-74357142D01*
X163454819Y-74357142D02*
X163502438Y-74214285D01*
X163502438Y-74214285D02*
X163550057Y-74166666D01*
X163550057Y-73785713D02*
X163502438Y-73738094D01*
X163502438Y-73738094D02*
X163454819Y-73642856D01*
X163454819Y-73642856D02*
X163454819Y-73404761D01*
X163454819Y-73404761D02*
X163502438Y-73309523D01*
X163502438Y-73309523D02*
X163550057Y-73261904D01*
X163550057Y-73261904D02*
X163645295Y-73214285D01*
X163645295Y-73214285D02*
X163740533Y-73214285D01*
X163740533Y-73214285D02*
X163883390Y-73261904D01*
X163883390Y-73261904D02*
X164454819Y-73833332D01*
X164454819Y-73833332D02*
X164454819Y-73214285D01*
X164182142Y-63754819D02*
X163848809Y-63278628D01*
X163610714Y-63754819D02*
X163610714Y-62754819D01*
X163610714Y-62754819D02*
X163991666Y-62754819D01*
X163991666Y-62754819D02*
X164086904Y-62802438D01*
X164086904Y-62802438D02*
X164134523Y-62850057D01*
X164134523Y-62850057D02*
X164182142Y-62945295D01*
X164182142Y-62945295D02*
X164182142Y-63088152D01*
X164182142Y-63088152D02*
X164134523Y-63183390D01*
X164134523Y-63183390D02*
X164086904Y-63231009D01*
X164086904Y-63231009D02*
X163991666Y-63278628D01*
X163991666Y-63278628D02*
X163610714Y-63278628D01*
X165134523Y-63754819D02*
X164563095Y-63754819D01*
X164848809Y-63754819D02*
X164848809Y-62754819D01*
X164848809Y-62754819D02*
X164753571Y-62897676D01*
X164753571Y-62897676D02*
X164658333Y-62992914D01*
X164658333Y-62992914D02*
X164563095Y-63040533D01*
X165991666Y-63088152D02*
X165991666Y-63754819D01*
X165753571Y-62707200D02*
X165515476Y-63421485D01*
X165515476Y-63421485D02*
X166134523Y-63421485D01*
X164182142Y-62384819D02*
X163848809Y-61908628D01*
X163610714Y-62384819D02*
X163610714Y-61384819D01*
X163610714Y-61384819D02*
X163991666Y-61384819D01*
X163991666Y-61384819D02*
X164086904Y-61432438D01*
X164086904Y-61432438D02*
X164134523Y-61480057D01*
X164134523Y-61480057D02*
X164182142Y-61575295D01*
X164182142Y-61575295D02*
X164182142Y-61718152D01*
X164182142Y-61718152D02*
X164134523Y-61813390D01*
X164134523Y-61813390D02*
X164086904Y-61861009D01*
X164086904Y-61861009D02*
X163991666Y-61908628D01*
X163991666Y-61908628D02*
X163610714Y-61908628D01*
X165134523Y-62384819D02*
X164563095Y-62384819D01*
X164848809Y-62384819D02*
X164848809Y-61384819D01*
X164848809Y-61384819D02*
X164753571Y-61527676D01*
X164753571Y-61527676D02*
X164658333Y-61622914D01*
X164658333Y-61622914D02*
X164563095Y-61670533D01*
X165515476Y-61480057D02*
X165563095Y-61432438D01*
X165563095Y-61432438D02*
X165658333Y-61384819D01*
X165658333Y-61384819D02*
X165896428Y-61384819D01*
X165896428Y-61384819D02*
X165991666Y-61432438D01*
X165991666Y-61432438D02*
X166039285Y-61480057D01*
X166039285Y-61480057D02*
X166086904Y-61575295D01*
X166086904Y-61575295D02*
X166086904Y-61670533D01*
X166086904Y-61670533D02*
X166039285Y-61813390D01*
X166039285Y-61813390D02*
X165467857Y-62384819D01*
X165467857Y-62384819D02*
X166086904Y-62384819D01*
X182454819Y-72333333D02*
X183169104Y-72333333D01*
X183169104Y-72333333D02*
X183311961Y-72380952D01*
X183311961Y-72380952D02*
X183407200Y-72476190D01*
X183407200Y-72476190D02*
X183454819Y-72619047D01*
X183454819Y-72619047D02*
X183454819Y-72714285D01*
X182550057Y-71904761D02*
X182502438Y-71857142D01*
X182502438Y-71857142D02*
X182454819Y-71761904D01*
X182454819Y-71761904D02*
X182454819Y-71523809D01*
X182454819Y-71523809D02*
X182502438Y-71428571D01*
X182502438Y-71428571D02*
X182550057Y-71380952D01*
X182550057Y-71380952D02*
X182645295Y-71333333D01*
X182645295Y-71333333D02*
X182740533Y-71333333D01*
X182740533Y-71333333D02*
X182883390Y-71380952D01*
X182883390Y-71380952D02*
X183454819Y-71952380D01*
X183454819Y-71952380D02*
X183454819Y-71333333D01*
X165896666Y-42184819D02*
X165896666Y-42899104D01*
X165896666Y-42899104D02*
X165849047Y-43041961D01*
X165849047Y-43041961D02*
X165753809Y-43137200D01*
X165753809Y-43137200D02*
X165610952Y-43184819D01*
X165610952Y-43184819D02*
X165515714Y-43184819D01*
X166277619Y-42184819D02*
X166896666Y-42184819D01*
X166896666Y-42184819D02*
X166563333Y-42565771D01*
X166563333Y-42565771D02*
X166706190Y-42565771D01*
X166706190Y-42565771D02*
X166801428Y-42613390D01*
X166801428Y-42613390D02*
X166849047Y-42661009D01*
X166849047Y-42661009D02*
X166896666Y-42756247D01*
X166896666Y-42756247D02*
X166896666Y-42994342D01*
X166896666Y-42994342D02*
X166849047Y-43089580D01*
X166849047Y-43089580D02*
X166801428Y-43137200D01*
X166801428Y-43137200D02*
X166706190Y-43184819D01*
X166706190Y-43184819D02*
X166420476Y-43184819D01*
X166420476Y-43184819D02*
X166325238Y-43137200D01*
X166325238Y-43137200D02*
X166277619Y-43089580D01*
D12*
%TO.C,Q2*%
X164150000Y-67400000D02*
X166150000Y-67400000D01*
X164150000Y-67600000D02*
X164150000Y-67400000D01*
X166150000Y-67400000D02*
X166150000Y-67600000D01*
X166150000Y-67600000D02*
X164150000Y-67600000D01*
X166375000Y-65950000D02*
X166375000Y-67050000D01*
D13*
%TO.C,J4*%
X178700000Y-52650000D02*
X183800000Y-52650000D01*
X178700000Y-62650000D02*
X178700000Y-52650000D01*
X183800000Y-52650000D02*
X183800000Y-62650000D01*
X183800000Y-62650000D02*
X178700000Y-62650000D01*
D12*
X181750000Y-51850000D02*
G75*
G02*
X181550000Y-51850000I-100000J0D01*
G01*
X181550000Y-51850000D02*
G75*
G02*
X181750000Y-51850000I100000J0D01*
G01*
D14*
%TO.C,R9*%
X165062258Y-53977500D02*
X164587742Y-53977500D01*
X165062258Y-55022500D02*
X164587742Y-55022500D01*
%TO.C,C1*%
X169990000Y-49415580D02*
X169990000Y-49134420D01*
X171010000Y-49415580D02*
X171010000Y-49134420D01*
D12*
%TO.C,Q1*%
X163850000Y-57400000D02*
X165850000Y-57400000D01*
X163850000Y-57600000D02*
X163850000Y-57400000D01*
X165850000Y-57400000D02*
X165850000Y-57600000D01*
X165850000Y-57600000D02*
X163850000Y-57600000D01*
X166075000Y-55950000D02*
X166075000Y-57050000D01*
%TO.C,IC1*%
X166900000Y-52845000D02*
X169000000Y-52845000D01*
X169350000Y-52890000D02*
X175650000Y-52890000D01*
X169350000Y-72730000D02*
X169350000Y-52890000D01*
X175650000Y-52890000D02*
X175650000Y-72730000D01*
X175650000Y-72730000D02*
X169350000Y-72730000D01*
D14*
%TO.C,R15*%
X164912258Y-69977500D02*
X164437742Y-69977500D01*
X164912258Y-71022500D02*
X164437742Y-71022500D01*
%TO.C,J1*%
X165940000Y-73990000D02*
X165940000Y-79960000D01*
X165940000Y-79960000D02*
X183560000Y-79960000D01*
X165950000Y-77700000D02*
X166700000Y-77700000D01*
X165950000Y-79200000D02*
X165950000Y-79950000D01*
X165950000Y-79950000D02*
X167750000Y-79950000D01*
X166700000Y-74750000D02*
X174750000Y-74750000D01*
X166700000Y-77700000D02*
X166700000Y-74750000D01*
X167750000Y-79200000D02*
X165950000Y-79200000D01*
X167750000Y-79950000D02*
X167750000Y-79200000D01*
X169250000Y-79200000D02*
X169250000Y-79950000D01*
X169250000Y-79950000D02*
X180250000Y-79950000D01*
X180250000Y-79200000D02*
X169250000Y-79200000D01*
X180250000Y-79950000D02*
X180250000Y-79200000D01*
X181750000Y-79200000D02*
X181750000Y-79950000D01*
X181750000Y-79950000D02*
X183550000Y-79950000D01*
X182600000Y-80250000D02*
X183850000Y-80250000D01*
X182800000Y-74750000D02*
X174750000Y-74750000D01*
X182800000Y-77700000D02*
X182800000Y-74750000D01*
X183550000Y-77700000D02*
X182800000Y-77700000D01*
X183550000Y-79200000D02*
X181750000Y-79200000D01*
X183550000Y-79950000D02*
X183550000Y-79200000D01*
X183560000Y-73990000D02*
X165940000Y-73990000D01*
X183560000Y-79960000D02*
X183560000Y-73990000D01*
X183850000Y-80250000D02*
X183850000Y-79000000D01*
%TO.C,C2*%
X163490000Y-76584420D02*
X163490000Y-76865580D01*
X164510000Y-76584420D02*
X164510000Y-76865580D01*
%TO.C,R14*%
X165062258Y-63977500D02*
X164587742Y-63977500D01*
X165062258Y-65022500D02*
X164587742Y-65022500D01*
%TO.C,R12*%
X165062258Y-59977500D02*
X164587742Y-59977500D01*
X165062258Y-61022500D02*
X164587742Y-61022500D01*
D13*
%TO.C,J2*%
X178700000Y-63150000D02*
X183800000Y-63150000D01*
X178700000Y-73150000D02*
X178700000Y-63150000D01*
X183800000Y-63150000D02*
X183800000Y-73150000D01*
X183800000Y-73150000D02*
X178700000Y-73150000D01*
D12*
X181750000Y-62350000D02*
G75*
G02*
X181550000Y-62350000I-100000J0D01*
G01*
X181550000Y-62350000D02*
G75*
G02*
X181750000Y-62350000I100000J0D01*
G01*
D14*
%TO.C,J3*%
X168830000Y-46770000D02*
X168830000Y-51910000D01*
X168830000Y-44170000D02*
X168830000Y-45500000D01*
X167500000Y-44170000D02*
X168830000Y-44170000D01*
X166230000Y-46770000D02*
X168830000Y-46770000D01*
X166230000Y-44170000D02*
X166230000Y-46770000D01*
X163630000Y-51910000D02*
X168830000Y-51910000D01*
X163630000Y-44170000D02*
X166230000Y-44170000D01*
X163630000Y-44170000D02*
X163630000Y-51910000D01*
%TD*%
%LPC*%
D15*
%TO.C,Q2*%
X165800000Y-66500000D03*
X165150000Y-66500000D03*
X164500000Y-66500000D03*
X164500000Y-68500000D03*
X165150000Y-68500000D03*
X165800000Y-68500000D03*
%TD*%
D16*
%TO.C,H1*%
X178250000Y-36000000D03*
%TD*%
D17*
%TO.C,J4*%
X181650000Y-54650000D03*
D18*
X181650000Y-56650000D03*
X181650000Y-58650000D03*
X181650000Y-60650000D03*
%TD*%
D19*
%TO.C,R9*%
X165650000Y-54500000D03*
X164000000Y-54500000D03*
%TD*%
D20*
%TO.C,C1*%
X170500000Y-50050000D03*
X170500000Y-48500000D03*
%TD*%
D15*
%TO.C,Q1*%
X165500000Y-56500000D03*
X164850000Y-56500000D03*
X164200000Y-56500000D03*
X164200000Y-58500000D03*
X164850000Y-58500000D03*
X165500000Y-58500000D03*
%TD*%
D21*
%TO.C,IC1*%
X167950000Y-53920000D03*
X167950000Y-56460000D03*
X167950000Y-59000000D03*
X167950000Y-61540000D03*
X167950000Y-64080000D03*
X167950000Y-66620000D03*
X167950000Y-69160000D03*
X167950000Y-71700000D03*
X177050000Y-71700000D03*
X177050000Y-69160000D03*
X177050000Y-66620000D03*
X177050000Y-64080000D03*
X177050000Y-61540000D03*
X177050000Y-59000000D03*
X177050000Y-56460000D03*
X177050000Y-53920000D03*
%TD*%
D19*
%TO.C,R15*%
X165500000Y-70500000D03*
X163850000Y-70500000D03*
%TD*%
D22*
%TO.C,J1*%
X181000000Y-77500000D03*
D23*
X178500000Y-77500000D03*
X176000000Y-77500000D03*
X173500000Y-77500000D03*
X171000000Y-77500000D03*
X168500000Y-77500000D03*
%TD*%
D24*
%TO.C,C2*%
X164000000Y-75950000D03*
X164000000Y-77500000D03*
%TD*%
D19*
%TO.C,R14*%
X165650000Y-64500000D03*
X164000000Y-64500000D03*
%TD*%
%TO.C,R12*%
X165650000Y-60500000D03*
X164000000Y-60500000D03*
%TD*%
D17*
%TO.C,J2*%
X181650000Y-65150000D03*
D18*
X181650000Y-67150000D03*
X181650000Y-69150000D03*
X181650000Y-71150000D03*
%TD*%
D25*
%TO.C,J3*%
X164960000Y-50580000D03*
X167500000Y-50580000D03*
X164960000Y-48040000D03*
X167500000Y-48040000D03*
X164960000Y-45500000D03*
D26*
X167500000Y-45500000D03*
%TD*%
%LPD*%
M02*
