%TF.GenerationSoftware,KiCad,Pcbnew,8.0.1*%
%TF.CreationDate,2024-08-07T00:37:21+09:00*%
%TF.ProjectId,insulation_board,696e7375-6c61-4746-996f-6e5f626f6172,rev?*%
%TF.SameCoordinates,Original*%
%TF.FileFunction,Copper,L2,Bot*%
%TF.FilePolarity,Positive*%
%FSLAX46Y46*%
G04 Gerber Fmt 4.6, Leading zero omitted, Abs format (unit mm)*
G04 Created by KiCad (PCBNEW 8.0.1) date 2024-08-07 00:37:21*
%MOMM*%
%LPD*%
G01*
G04 APERTURE LIST*
G04 Aperture macros list*
%AMRoundRect*
0 Rectangle with rounded corners*
0 $1 Rounding radius*
0 $2 $3 $4 $5 $6 $7 $8 $9 X,Y pos of 4 corners*
0 Add a 4 corners polygon primitive as box body*
4,1,4,$2,$3,$4,$5,$6,$7,$8,$9,$2,$3,0*
0 Add four circle primitives for the rounded corners*
1,1,$1+$1,$2,$3*
1,1,$1+$1,$4,$5*
1,1,$1+$1,$6,$7*
1,1,$1+$1,$8,$9*
0 Add four rect primitives between the rounded corners*
20,1,$1+$1,$2,$3,$4,$5,0*
20,1,$1+$1,$4,$5,$6,$7,0*
20,1,$1+$1,$6,$7,$8,$9,0*
20,1,$1+$1,$8,$9,$2,$3,0*%
G04 Aperture macros list end*
%TA.AperFunction,ComponentPad*%
%ADD10R,1.308000X1.308000*%
%TD*%
%TA.AperFunction,ComponentPad*%
%ADD11C,1.308000*%
%TD*%
%TA.AperFunction,ComponentPad*%
%ADD12RoundRect,0.250000X0.600000X0.725000X-0.600000X0.725000X-0.600000X-0.725000X0.600000X-0.725000X0*%
%TD*%
%TA.AperFunction,ComponentPad*%
%ADD13O,1.700000X1.950000*%
%TD*%
%TA.AperFunction,ComponentPad*%
%ADD14O,1.700000X1.700000*%
%TD*%
%TA.AperFunction,ComponentPad*%
%ADD15R,1.700000X1.700000*%
%TD*%
%TA.AperFunction,SMDPad,CuDef*%
%ADD16RoundRect,0.200000X-0.275000X0.200000X-0.275000X-0.200000X0.275000X-0.200000X0.275000X0.200000X0*%
%TD*%
%TA.AperFunction,SMDPad,CuDef*%
%ADD17RoundRect,0.200000X-0.200000X-0.275000X0.200000X-0.275000X0.200000X0.275000X-0.200000X0.275000X0*%
%TD*%
%TA.AperFunction,SMDPad,CuDef*%
%ADD18RoundRect,0.200000X0.275000X-0.200000X0.275000X0.200000X-0.275000X0.200000X-0.275000X-0.200000X0*%
%TD*%
%TA.AperFunction,ViaPad*%
%ADD19C,0.600000*%
%TD*%
%TA.AperFunction,Conductor*%
%ADD20C,1.500000*%
%TD*%
%TA.AperFunction,Conductor*%
%ADD21C,0.500000*%
%TD*%
%TA.AperFunction,Conductor*%
%ADD22C,0.400000*%
%TD*%
%TA.AperFunction,Conductor*%
%ADD23C,0.200000*%
%TD*%
G04 APERTURE END LIST*
D10*
%TO.P,J4,1,1*%
%TO.N,AN2*%
X181650000Y-54650000D03*
D11*
%TO.P,J4,2,2*%
%TO.N,AN1*%
X181650000Y-56650000D03*
%TO.P,J4,3,3*%
%TO.N,unconnected-(J4-Pad3)*%
X181650000Y-58650000D03*
%TO.P,J4,4,4*%
%TO.N,GND*%
X181650000Y-60650000D03*
%TD*%
D12*
%TO.P,J1,1,Pin_1*%
%TO.N,GND2*%
X181000000Y-77500000D03*
D13*
%TO.P,J1,2,Pin_2*%
%TO.N,DIR_R*%
X178500000Y-77500000D03*
%TO.P,J1,3,Pin_3*%
%TO.N,PWM_R*%
X176000000Y-77500000D03*
%TO.P,J1,4,Pin_4*%
%TO.N,DIR_L*%
X173500000Y-77500000D03*
%TO.P,J1,5,Pin_5*%
%TO.N,PWM_L*%
X171000000Y-77500000D03*
%TO.P,J1,6,Pin_6*%
%TO.N,+3V3*%
X168500000Y-77500000D03*
%TD*%
D10*
%TO.P,J2,1,1*%
%TO.N,IN2*%
X181650000Y-65150000D03*
D11*
%TO.P,J2,2,2*%
%TO.N,IN1*%
X181650000Y-67150000D03*
%TO.P,J2,3,3*%
%TO.N,unconnected-(J2-Pad3)*%
X181650000Y-69150000D03*
%TO.P,J2,4,4*%
%TO.N,GND*%
X181650000Y-71150000D03*
%TD*%
D14*
%TO.P,J3,6,Pin_6*%
%TO.N,unconnected-(J3-Pin_6-Pad6)*%
X164960000Y-50580000D03*
%TO.P,J3,5,Pin_5*%
%TO.N,GND*%
X167500000Y-50580000D03*
%TO.P,J3,4,Pin_4*%
%TO.N,unconnected-(J3-Pin_4-Pad4)*%
X164960000Y-48040000D03*
%TO.P,J3,3,Pin_3*%
%TO.N,+5V*%
X167500000Y-48040000D03*
%TO.P,J3,2,Pin_2*%
%TO.N,unconnected-(J3-Pin_2-Pad2)*%
X164960000Y-45500000D03*
D15*
%TO.P,J3,1,Pin_1*%
%TO.N,unconnected-(J3-Pin_1-Pad1)*%
X167500000Y-45500000D03*
%TD*%
D16*
%TO.P,R7,1*%
%TO.N,IN1*%
X179500000Y-67190000D03*
%TO.P,R7,2*%
%TO.N,+5V*%
X179500000Y-68840000D03*
%TD*%
D17*
%TO.P,R1,1*%
%TO.N,n_DIR_R*%
X166000000Y-54000000D03*
%TO.P,R1,2*%
%TO.N,Net-(IC1-A_1)*%
X167650000Y-54000000D03*
%TD*%
D18*
%TO.P,R5,1*%
%TO.N,IN2*%
X179500000Y-65190000D03*
%TO.P,R5,2*%
%TO.N,+5V*%
X179500000Y-63540000D03*
%TD*%
D17*
%TO.P,R4,1*%
%TO.N,n_PWM_L*%
X166000000Y-69000000D03*
%TO.P,R4,2*%
%TO.N,Net-(IC1-A_4)*%
X167650000Y-69000000D03*
%TD*%
D16*
%TO.P,R10,1*%
%TO.N,Net-(Q1-G2)*%
X176000000Y-74000000D03*
%TO.P,R10,2*%
%TO.N,PWM_R*%
X176000000Y-75650000D03*
%TD*%
D17*
%TO.P,R2,1*%
%TO.N,n_PWM_R*%
X166000000Y-59000000D03*
%TO.P,R2,2*%
%TO.N,Net-(IC1-A_2)*%
X167650000Y-59000000D03*
%TD*%
D16*
%TO.P,R8,1*%
%TO.N,AN1*%
X179500000Y-56690000D03*
%TO.P,R8,2*%
%TO.N,+5V*%
X179500000Y-58340000D03*
%TD*%
D18*
%TO.P,R6,1*%
%TO.N,AN2*%
X179500000Y-54500000D03*
%TO.P,R6,2*%
%TO.N,+5V*%
X179500000Y-52850000D03*
%TD*%
D16*
%TO.P,R16,1*%
%TO.N,Net-(Q2-G1)*%
X173500000Y-74000000D03*
%TO.P,R16,2*%
%TO.N,DIR_L*%
X173500000Y-75650000D03*
%TD*%
%TO.P,R11,1*%
%TO.N,Net-(Q1-G1)*%
X178500000Y-74000000D03*
%TO.P,R11,2*%
%TO.N,DIR_R*%
X178500000Y-75650000D03*
%TD*%
%TO.P,R13,1*%
%TO.N,Net-(Q2-G2)*%
X171000000Y-74000000D03*
%TO.P,R13,2*%
%TO.N,PWM_L*%
X171000000Y-75650000D03*
%TD*%
D17*
%TO.P,R3,1*%
%TO.N,n_DIR_L*%
X166000000Y-64000000D03*
%TO.P,R3,2*%
%TO.N,Net-(IC1-A_3)*%
X167650000Y-64000000D03*
%TD*%
D19*
%TO.N,GND*%
X169500000Y-50500000D03*
X180500000Y-59500000D03*
X173500000Y-69000000D03*
X183000000Y-70000000D03*
X173000000Y-60500000D03*
X177000000Y-61500000D03*
X170500000Y-45000000D03*
X179500000Y-71000000D03*
X183000000Y-72500000D03*
X177000000Y-56500000D03*
X174500000Y-71000000D03*
X177000000Y-71500000D03*
X182000000Y-51500000D03*
X180500000Y-70000000D03*
X182500000Y-62000000D03*
X172000000Y-50500000D03*
X177000000Y-66500000D03*
X174000000Y-53000000D03*
X182500000Y-46000000D03*
X176500000Y-46000000D03*
X180500000Y-72500000D03*
X180500000Y-61500000D03*
X183000000Y-59500000D03*
%TO.N,+5V*%
X179500000Y-53000000D03*
X179500000Y-69000000D03*
X179500000Y-58500000D03*
X179500000Y-63500000D03*
%TO.N,Net-(IC1-A_2)*%
X168000000Y-59000000D03*
%TO.N,GND2*%
X168000000Y-66500000D03*
X168000000Y-56500000D03*
X164000000Y-77500000D03*
X164000000Y-79000000D03*
X181000000Y-79500000D03*
X168000000Y-61500000D03*
X181000000Y-75500000D03*
X169500000Y-76000000D03*
X168000000Y-71500000D03*
X165500000Y-78000000D03*
X183000000Y-77500000D03*
%TO.N,Net-(IC1-A_3)*%
X168000000Y-64000000D03*
%TO.N,Net-(IC1-A_1)*%
X168000000Y-54000000D03*
%TO.N,Net-(IC1-A_4)*%
X168000000Y-69000000D03*
%TO.N,+3V3*%
X165500000Y-70500000D03*
X164424998Y-68500000D03*
X164124998Y-58500000D03*
X165650000Y-60500000D03*
%TO.N,AN2*%
X178500000Y-57500000D03*
%TO.N,IN2*%
X179500000Y-65000000D03*
%TO.N,AN1*%
X175100000Y-61000000D03*
X179500000Y-56500000D03*
X175000000Y-63000000D03*
%TO.N,IN1*%
X178500000Y-65500000D03*
%TO.N,Net-(Q1-G1)*%
X164000000Y-60500000D03*
%TO.N,n_PWM_R*%
X166000000Y-59000000D03*
%TO.N,Net-(Q1-G2)*%
X164000000Y-54500000D03*
%TO.N,n_DIR_R*%
X164124998Y-56500000D03*
%TO.N,Net-(Q2-G2)*%
X164000000Y-64500000D03*
%TO.N,n_PWM_L*%
X166000000Y-69000000D03*
%TO.N,Net-(Q2-G1)*%
X163850000Y-70500000D03*
%TO.N,n_DIR_L*%
X164424998Y-66500000D03*
%TD*%
D20*
%TO.N,GND*%
X177000000Y-56500000D02*
X177000000Y-61500000D01*
X177000000Y-66500000D02*
X177000000Y-71500000D01*
X177000000Y-61500000D02*
X177000000Y-66500000D01*
D21*
%TO.N,+5V*%
X179500000Y-52850000D02*
X179500000Y-53000000D01*
D22*
%TO.N,+3V3*%
X164424998Y-69424998D02*
X165500000Y-70500000D01*
X164424998Y-68500000D02*
X164424998Y-69424998D01*
X164124998Y-58500000D02*
X164124998Y-58974998D01*
X164124998Y-58974998D02*
X165650000Y-60500000D01*
D23*
%TO.N,AN2*%
X178500000Y-55500000D02*
X179500000Y-54500000D01*
X179500000Y-54500000D02*
X181500000Y-54500000D01*
X178500000Y-57500000D02*
X178500000Y-55500000D01*
X181500000Y-54500000D02*
X181650000Y-54650000D01*
%TO.N,IN2*%
X179500000Y-65190000D02*
X179500000Y-65000000D01*
X181610000Y-65190000D02*
X181650000Y-65150000D01*
X179500000Y-65000000D02*
X181610000Y-65190000D01*
%TO.N,AN1*%
X175100000Y-61000000D02*
X175000000Y-61100000D01*
X175000000Y-62500000D02*
X175000000Y-63000000D01*
X175000000Y-61100000D02*
X175000000Y-62500000D01*
X179500000Y-56690000D02*
X179500000Y-56500000D01*
X181610000Y-56690000D02*
X181650000Y-56650000D01*
X179500000Y-56500000D02*
X181610000Y-56690000D01*
%TO.N,IN1*%
X179500000Y-67000000D02*
X181610000Y-67190000D01*
X179500000Y-67190000D02*
X179500000Y-67000000D01*
X178500000Y-66190000D02*
X179500000Y-67190000D01*
X181610000Y-67190000D02*
X181650000Y-67150000D01*
X178500000Y-65500000D02*
X178500000Y-66190000D01*
%TO.N,PWM_R*%
X176000000Y-75650000D02*
X176000000Y-77500000D01*
%TO.N,DIR_L*%
X173500000Y-75650000D02*
X173500000Y-77500000D01*
%TO.N,PWM_L*%
X171000000Y-75650000D02*
X171000000Y-77500000D01*
%TO.N,DIR_R*%
X178500000Y-75650000D02*
X178500000Y-77500000D01*
%TO.N,Net-(Q1-G1)*%
X170934314Y-73000000D02*
X173812352Y-73000000D01*
X175512352Y-74700000D02*
X177800000Y-74700000D01*
X164000000Y-60500000D02*
X166500000Y-63000000D01*
X169000000Y-71065686D02*
X170934314Y-73000000D01*
X169000000Y-63000000D02*
X169000000Y-71065686D01*
X166500000Y-63000000D02*
X169000000Y-63000000D01*
X173812352Y-73000000D02*
X175512352Y-74700000D01*
X177800000Y-74700000D02*
X178500000Y-74000000D01*
%TO.N,Net-(Q1-G2)*%
X166700000Y-58512352D02*
X166700000Y-62200000D01*
X166700000Y-62200000D02*
X167100000Y-62600000D01*
X164776469Y-58000000D02*
X166187648Y-58000000D01*
X166187648Y-58000000D02*
X166700000Y-58512352D01*
X163524998Y-54975002D02*
X163524998Y-56748529D01*
X167100000Y-62600000D02*
X169165685Y-62600000D01*
X169500000Y-62934315D02*
X169500000Y-71000000D01*
X169500000Y-71000000D02*
X171100000Y-72600000D01*
X163524998Y-56748529D02*
X164776469Y-58000000D01*
X175378038Y-74000000D02*
X176000000Y-74000000D01*
X173978038Y-72600000D02*
X175378038Y-74000000D01*
X164000000Y-54500000D02*
X163524998Y-54975002D01*
X169165685Y-62600000D02*
X169500000Y-62934315D01*
X171100000Y-72600000D02*
X173978038Y-72600000D01*
%TO.N,n_DIR_R*%
X166000000Y-54500000D02*
X166000000Y-54000000D01*
X164124998Y-56375002D02*
X166000000Y-54500000D01*
X164124998Y-56500000D02*
X164124998Y-56375002D01*
%TO.N,Net-(Q2-G2)*%
X165065686Y-68065686D02*
X166503334Y-68065686D01*
X163824998Y-66824998D02*
X165065686Y-68065686D01*
X166950000Y-68512352D02*
X166950000Y-72950000D01*
X163824998Y-64675002D02*
X163824998Y-66824998D01*
X168000000Y-74000000D02*
X171000000Y-74000000D01*
X164000000Y-64500000D02*
X163824998Y-64675002D01*
X166503334Y-68065686D02*
X166950000Y-68512352D01*
X166950000Y-72950000D02*
X168000000Y-74000000D01*
%TO.N,Net-(Q2-G1)*%
X163850000Y-70500000D02*
X168050000Y-74700000D01*
X168050000Y-74700000D02*
X172800000Y-74700000D01*
X172800000Y-74700000D02*
X173500000Y-74000000D01*
%TO.N,n_DIR_L*%
X164424998Y-66500000D02*
X166000000Y-64924998D01*
X166000000Y-64924998D02*
X166000000Y-64000000D01*
%TD*%
%TA.AperFunction,Conductor*%
%TO.N,GND*%
G36*
X183442539Y-43519685D02*
G01*
X183488294Y-43572489D01*
X183499500Y-43624000D01*
X183499500Y-72876000D01*
X183479815Y-72943039D01*
X183427011Y-72988794D01*
X183375500Y-73000000D01*
X175278635Y-73000000D01*
X175211596Y-72980315D01*
X175190954Y-72963681D01*
X174465628Y-72238355D01*
X174465626Y-72238352D01*
X174346755Y-72119481D01*
X174346754Y-72119480D01*
X174259942Y-72069360D01*
X174259942Y-72069359D01*
X174259938Y-72069358D01*
X174209823Y-72040423D01*
X174057095Y-71999499D01*
X174050861Y-71999499D01*
X173983822Y-71979814D01*
X173963180Y-71963180D01*
X172536319Y-70536319D01*
X172502834Y-70474996D01*
X172500000Y-70448638D01*
X172500000Y-65500003D01*
X177694435Y-65500003D01*
X177714630Y-65679249D01*
X177714631Y-65679254D01*
X177774211Y-65849523D01*
X177834498Y-65945468D01*
X177867341Y-65997738D01*
X177870185Y-66002263D01*
X177872445Y-66005097D01*
X177873334Y-66007275D01*
X177873889Y-66008158D01*
X177873734Y-66008255D01*
X177898855Y-66069783D01*
X177899500Y-66082412D01*
X177899500Y-66103330D01*
X177899499Y-66103348D01*
X177899499Y-66269054D01*
X177899498Y-66269054D01*
X177940423Y-66421786D01*
X177951182Y-66440419D01*
X177951183Y-66440424D01*
X177951184Y-66440424D01*
X178019475Y-66558709D01*
X178019481Y-66558717D01*
X178138349Y-66677585D01*
X178138355Y-66677590D01*
X178488181Y-67027416D01*
X178521666Y-67088739D01*
X178524500Y-67115097D01*
X178524500Y-67446616D01*
X178526188Y-67465186D01*
X178530913Y-67517192D01*
X178581522Y-67679606D01*
X178669530Y-67825188D01*
X178771661Y-67927319D01*
X178805146Y-67988642D01*
X178800162Y-68058334D01*
X178771661Y-68102681D01*
X178669531Y-68204810D01*
X178669530Y-68204811D01*
X178581522Y-68350393D01*
X178530913Y-68512807D01*
X178524500Y-68583386D01*
X178524500Y-69096613D01*
X178530913Y-69167192D01*
X178530913Y-69167194D01*
X178530914Y-69167196D01*
X178581522Y-69329606D01*
X178601738Y-69363048D01*
X178669530Y-69475188D01*
X178789811Y-69595469D01*
X178789813Y-69595470D01*
X178789815Y-69595472D01*
X178935394Y-69683478D01*
X179097804Y-69734086D01*
X179168384Y-69740500D01*
X179171453Y-69740500D01*
X179212407Y-69747458D01*
X179320745Y-69785368D01*
X179320751Y-69785368D01*
X179320753Y-69785369D01*
X179499996Y-69805565D01*
X179500000Y-69805565D01*
X179500004Y-69805565D01*
X179679246Y-69785369D01*
X179679245Y-69785369D01*
X179679255Y-69785368D01*
X179787592Y-69747458D01*
X179828547Y-69740500D01*
X179831613Y-69740500D01*
X179831616Y-69740500D01*
X179902196Y-69734086D01*
X180064606Y-69683478D01*
X180210185Y-69595472D01*
X180330472Y-69475185D01*
X180330474Y-69475180D01*
X180335094Y-69469285D01*
X180337576Y-69471230D01*
X180378504Y-69433712D01*
X180447357Y-69421839D01*
X180511700Y-69449075D01*
X180551104Y-69506773D01*
X180552416Y-69511087D01*
X180568847Y-69568837D01*
X180568849Y-69568841D01*
X180664219Y-69760370D01*
X180793160Y-69931115D01*
X180951275Y-70075256D01*
X180968792Y-70086102D01*
X181015428Y-70138130D01*
X181020166Y-70166612D01*
X181603554Y-70750000D01*
X181597339Y-70750000D01*
X181495606Y-70777259D01*
X181404394Y-70829920D01*
X181329920Y-70904394D01*
X181277259Y-70995606D01*
X181250000Y-71097339D01*
X181250000Y-71103553D01*
X180673980Y-70527533D01*
X180664646Y-70539893D01*
X180569321Y-70731330D01*
X180569315Y-70731345D01*
X180510789Y-70937043D01*
X180510788Y-70937045D01*
X180491056Y-71149999D01*
X180491056Y-71150000D01*
X180510788Y-71362954D01*
X180510789Y-71362956D01*
X180569315Y-71568654D01*
X180569321Y-71568669D01*
X180664642Y-71760099D01*
X180664647Y-71760107D01*
X180673980Y-71772465D01*
X181250000Y-71196445D01*
X181250000Y-71202661D01*
X181277259Y-71304394D01*
X181329920Y-71395606D01*
X181404394Y-71470080D01*
X181495606Y-71522741D01*
X181597339Y-71550000D01*
X181603553Y-71550000D01*
X181030086Y-72123465D01*
X181133413Y-72187443D01*
X181133414Y-72187444D01*
X181332837Y-72264700D01*
X181543068Y-72304000D01*
X181756932Y-72304000D01*
X181967162Y-72264700D01*
X182166585Y-72187444D01*
X182166589Y-72187442D01*
X182269911Y-72123466D01*
X182269911Y-72123465D01*
X181696448Y-71550000D01*
X181702661Y-71550000D01*
X181804394Y-71522741D01*
X181895606Y-71470080D01*
X181970080Y-71395606D01*
X182022741Y-71304394D01*
X182050000Y-71202661D01*
X182050000Y-71196446D01*
X182626018Y-71772464D01*
X182626019Y-71772464D01*
X182635352Y-71760107D01*
X182635355Y-71760102D01*
X182730678Y-71568669D01*
X182730684Y-71568654D01*
X182789210Y-71362956D01*
X182789211Y-71362954D01*
X182808944Y-71150000D01*
X182808944Y-71149999D01*
X182789211Y-70937045D01*
X182789210Y-70937043D01*
X182730684Y-70731345D01*
X182730678Y-70731330D01*
X182635357Y-70539901D01*
X182635355Y-70539898D01*
X182626018Y-70527534D01*
X182050000Y-71103552D01*
X182050000Y-71097339D01*
X182022741Y-70995606D01*
X181970080Y-70904394D01*
X181895606Y-70829920D01*
X181804394Y-70777259D01*
X181702661Y-70750000D01*
X181696447Y-70750000D01*
X182280087Y-70166357D01*
X182285137Y-70136959D01*
X182331203Y-70086105D01*
X182348722Y-70075258D01*
X182506841Y-69931114D01*
X182635781Y-69760370D01*
X182731151Y-69568840D01*
X182731151Y-69568837D01*
X182731153Y-69568835D01*
X182789703Y-69363050D01*
X182789704Y-69363047D01*
X182809446Y-69150000D01*
X182809446Y-69149999D01*
X182789704Y-68936952D01*
X182789703Y-68936949D01*
X182731153Y-68731164D01*
X182731150Y-68731158D01*
X182635781Y-68539630D01*
X182506841Y-68368886D01*
X182367251Y-68241633D01*
X182330973Y-68181927D01*
X182332733Y-68112079D01*
X182367251Y-68058366D01*
X182506841Y-67931114D01*
X182635781Y-67760370D01*
X182731151Y-67568840D01*
X182731151Y-67568837D01*
X182731153Y-67568835D01*
X182789703Y-67363050D01*
X182789704Y-67363047D01*
X182809446Y-67150000D01*
X182809446Y-67149999D01*
X182789704Y-66936952D01*
X182789703Y-66936949D01*
X182731153Y-66731164D01*
X182731150Y-66731158D01*
X182635781Y-66539630D01*
X182537724Y-66409782D01*
X182513033Y-66344422D01*
X182527598Y-66276087D01*
X182562366Y-66235791D01*
X182661546Y-66161546D01*
X182747796Y-66046331D01*
X182798091Y-65911483D01*
X182804500Y-65851873D01*
X182804499Y-64448128D01*
X182798091Y-64388517D01*
X182776868Y-64331616D01*
X182747797Y-64253671D01*
X182747793Y-64253664D01*
X182661547Y-64138455D01*
X182661544Y-64138452D01*
X182546335Y-64052206D01*
X182546328Y-64052202D01*
X182411482Y-64001908D01*
X182411483Y-64001908D01*
X182351883Y-63995501D01*
X182351881Y-63995500D01*
X182351873Y-63995500D01*
X182351864Y-63995500D01*
X180948129Y-63995500D01*
X180948123Y-63995501D01*
X180888516Y-64001908D01*
X180753671Y-64052202D01*
X180753664Y-64052206D01*
X180638455Y-64138452D01*
X180638453Y-64138454D01*
X180635725Y-64142099D01*
X180579789Y-64183967D01*
X180510098Y-64188948D01*
X180448776Y-64155460D01*
X180415294Y-64094135D01*
X180418076Y-64030893D01*
X180418476Y-64029609D01*
X180418478Y-64029606D01*
X180469086Y-63867196D01*
X180475500Y-63796616D01*
X180475500Y-63283384D01*
X180469086Y-63212804D01*
X180418478Y-63050394D01*
X180330472Y-62904815D01*
X180330470Y-62904813D01*
X180330469Y-62904811D01*
X180210188Y-62784530D01*
X180064606Y-62696522D01*
X179902196Y-62645914D01*
X179902194Y-62645913D01*
X179902192Y-62645913D01*
X179852778Y-62641423D01*
X179831616Y-62639500D01*
X179168384Y-62639500D01*
X179149145Y-62641248D01*
X179097807Y-62645913D01*
X178935393Y-62696522D01*
X178789811Y-62784530D01*
X178669530Y-62904811D01*
X178581522Y-63050393D01*
X178530913Y-63212807D01*
X178524500Y-63283386D01*
X178524500Y-63796613D01*
X178530913Y-63867192D01*
X178581522Y-64029606D01*
X178669530Y-64175188D01*
X178771661Y-64277319D01*
X178805146Y-64338642D01*
X178800162Y-64408334D01*
X178771661Y-64452681D01*
X178669531Y-64554810D01*
X178669528Y-64554814D01*
X178620780Y-64635453D01*
X178569252Y-64682640D01*
X178506963Y-64693452D01*
X178506963Y-64694435D01*
X178501304Y-64694435D01*
X178500791Y-64694524D01*
X178500000Y-64694435D01*
X178499996Y-64694435D01*
X178320750Y-64714630D01*
X178320745Y-64714631D01*
X178150476Y-64774211D01*
X177997737Y-64870184D01*
X177870184Y-64997737D01*
X177774211Y-65150476D01*
X177714631Y-65320745D01*
X177714630Y-65320750D01*
X177694435Y-65499996D01*
X177694435Y-65500003D01*
X172500000Y-65500003D01*
X172500000Y-63000003D01*
X174194435Y-63000003D01*
X174214630Y-63179249D01*
X174214631Y-63179254D01*
X174274211Y-63349523D01*
X174328168Y-63435394D01*
X174370184Y-63502262D01*
X174497738Y-63629816D01*
X174559119Y-63668384D01*
X174632721Y-63714632D01*
X174650478Y-63725789D01*
X174788860Y-63774211D01*
X174820745Y-63785368D01*
X174820750Y-63785369D01*
X174999996Y-63805565D01*
X175000000Y-63805565D01*
X175000004Y-63805565D01*
X175179249Y-63785369D01*
X175179252Y-63785368D01*
X175179255Y-63785368D01*
X175349522Y-63725789D01*
X175502262Y-63629816D01*
X175629816Y-63502262D01*
X175725789Y-63349522D01*
X175785368Y-63179255D01*
X175802082Y-63030914D01*
X175805565Y-63000003D01*
X175805565Y-62999996D01*
X175785369Y-62820750D01*
X175785368Y-62820745D01*
X175725788Y-62650476D01*
X175629813Y-62497734D01*
X175627550Y-62494896D01*
X175626659Y-62492715D01*
X175626111Y-62491842D01*
X175626264Y-62491745D01*
X175601144Y-62430209D01*
X175600500Y-62417587D01*
X175600500Y-61682940D01*
X175620185Y-61615901D01*
X175636819Y-61595259D01*
X175729816Y-61502262D01*
X175825789Y-61349522D01*
X175885368Y-61179255D01*
X175887203Y-61162968D01*
X175905565Y-61000003D01*
X175905565Y-60999996D01*
X175885369Y-60820750D01*
X175885368Y-60820745D01*
X175848237Y-60714632D01*
X175825789Y-60650478D01*
X175729816Y-60497738D01*
X175602262Y-60370184D01*
X175449523Y-60274211D01*
X175279254Y-60214631D01*
X175279249Y-60214630D01*
X175100004Y-60194435D01*
X175099996Y-60194435D01*
X174920750Y-60214630D01*
X174920745Y-60214631D01*
X174750476Y-60274211D01*
X174597737Y-60370184D01*
X174470184Y-60497737D01*
X174374211Y-60650476D01*
X174314631Y-60820745D01*
X174314630Y-60820750D01*
X174294435Y-60999996D01*
X174294435Y-61000003D01*
X174314630Y-61179249D01*
X174314631Y-61179254D01*
X174374212Y-61349525D01*
X174380492Y-61359519D01*
X174399500Y-61425493D01*
X174399500Y-62417587D01*
X174379815Y-62484626D01*
X174372450Y-62494896D01*
X174370186Y-62497734D01*
X174274211Y-62650476D01*
X174214631Y-62820745D01*
X174214630Y-62820750D01*
X174194435Y-62999996D01*
X174194435Y-63000003D01*
X172500000Y-63000003D01*
X172500000Y-57500003D01*
X177694435Y-57500003D01*
X177714630Y-57679249D01*
X177714631Y-57679254D01*
X177774211Y-57849523D01*
X177858830Y-57984192D01*
X177870184Y-58002262D01*
X177997738Y-58129816D01*
X178150478Y-58225789D01*
X178320745Y-58285368D01*
X178320750Y-58285369D01*
X178379609Y-58292000D01*
X178414382Y-58295918D01*
X178478796Y-58322984D01*
X178518352Y-58380578D01*
X178524500Y-58419138D01*
X178524500Y-58596613D01*
X178530913Y-58667192D01*
X178530913Y-58667194D01*
X178530914Y-58667196D01*
X178581522Y-58829606D01*
X178627706Y-58906004D01*
X178669530Y-58975188D01*
X178789811Y-59095469D01*
X178789813Y-59095470D01*
X178789815Y-59095472D01*
X178935394Y-59183478D01*
X179097804Y-59234086D01*
X179168384Y-59240500D01*
X179171453Y-59240500D01*
X179212407Y-59247458D01*
X179320745Y-59285368D01*
X179320751Y-59285368D01*
X179320753Y-59285369D01*
X179499996Y-59305565D01*
X179500000Y-59305565D01*
X179500004Y-59305565D01*
X179679246Y-59285369D01*
X179679245Y-59285369D01*
X179679255Y-59285368D01*
X179787592Y-59247458D01*
X179828547Y-59240500D01*
X179831613Y-59240500D01*
X179831616Y-59240500D01*
X179902196Y-59234086D01*
X180064606Y-59183478D01*
X180210185Y-59095472D01*
X180330472Y-58975185D01*
X180330474Y-58975180D01*
X180335094Y-58969285D01*
X180337576Y-58971230D01*
X180378504Y-58933712D01*
X180447357Y-58921839D01*
X180511700Y-58949075D01*
X180551104Y-59006773D01*
X180552416Y-59011087D01*
X180568847Y-59068837D01*
X180568849Y-59068841D01*
X180664219Y-59260370D01*
X180793160Y-59431115D01*
X180951275Y-59575256D01*
X180968792Y-59586102D01*
X181015428Y-59638130D01*
X181020166Y-59666612D01*
X181603554Y-60250000D01*
X181597339Y-60250000D01*
X181495606Y-60277259D01*
X181404394Y-60329920D01*
X181329920Y-60404394D01*
X181277259Y-60495606D01*
X181250000Y-60597339D01*
X181250000Y-60603553D01*
X180673980Y-60027533D01*
X180664646Y-60039893D01*
X180569321Y-60231330D01*
X180569315Y-60231345D01*
X180510789Y-60437043D01*
X180510788Y-60437045D01*
X180491056Y-60649999D01*
X180491056Y-60650000D01*
X180510788Y-60862954D01*
X180510789Y-60862956D01*
X180569315Y-61068654D01*
X180569321Y-61068669D01*
X180664642Y-61260099D01*
X180664647Y-61260107D01*
X180673980Y-61272465D01*
X181250000Y-60696445D01*
X181250000Y-60702661D01*
X181277259Y-60804394D01*
X181329920Y-60895606D01*
X181404394Y-60970080D01*
X181495606Y-61022741D01*
X181597339Y-61050000D01*
X181603553Y-61050000D01*
X181030086Y-61623465D01*
X181133413Y-61687443D01*
X181133414Y-61687444D01*
X181332837Y-61764700D01*
X181543068Y-61804000D01*
X181756932Y-61804000D01*
X181967162Y-61764700D01*
X182166585Y-61687444D01*
X182166589Y-61687442D01*
X182269911Y-61623466D01*
X182269911Y-61623465D01*
X181696448Y-61050000D01*
X181702661Y-61050000D01*
X181804394Y-61022741D01*
X181895606Y-60970080D01*
X181970080Y-60895606D01*
X182022741Y-60804394D01*
X182050000Y-60702661D01*
X182050000Y-60696446D01*
X182626018Y-61272464D01*
X182626019Y-61272464D01*
X182635352Y-61260107D01*
X182635355Y-61260102D01*
X182730678Y-61068669D01*
X182730684Y-61068654D01*
X182789210Y-60862956D01*
X182789211Y-60862954D01*
X182808944Y-60650000D01*
X182808944Y-60649999D01*
X182789211Y-60437045D01*
X182789210Y-60437043D01*
X182730684Y-60231345D01*
X182730678Y-60231330D01*
X182635357Y-60039901D01*
X182635355Y-60039898D01*
X182626018Y-60027534D01*
X182050000Y-60603552D01*
X182050000Y-60597339D01*
X182022741Y-60495606D01*
X181970080Y-60404394D01*
X181895606Y-60329920D01*
X181804394Y-60277259D01*
X181702661Y-60250000D01*
X181696447Y-60250000D01*
X182280087Y-59666357D01*
X182285137Y-59636959D01*
X182331203Y-59586105D01*
X182348722Y-59575258D01*
X182506841Y-59431114D01*
X182635781Y-59260370D01*
X182731151Y-59068840D01*
X182731151Y-59068837D01*
X182731153Y-59068835D01*
X182789703Y-58863050D01*
X182789704Y-58863047D01*
X182809446Y-58650000D01*
X182809446Y-58649999D01*
X182789704Y-58436952D01*
X182789703Y-58436949D01*
X182731153Y-58231164D01*
X182731150Y-58231158D01*
X182680688Y-58129816D01*
X182635781Y-58039630D01*
X182506841Y-57868886D01*
X182367251Y-57741633D01*
X182330973Y-57681927D01*
X182332733Y-57612079D01*
X182367251Y-57558366D01*
X182506841Y-57431114D01*
X182635781Y-57260370D01*
X182731151Y-57068840D01*
X182731151Y-57068837D01*
X182731153Y-57068835D01*
X182789703Y-56863050D01*
X182789704Y-56863047D01*
X182809446Y-56650000D01*
X182809446Y-56649999D01*
X182789704Y-56436952D01*
X182789703Y-56436949D01*
X182731153Y-56231164D01*
X182731150Y-56231158D01*
X182690976Y-56150478D01*
X182635781Y-56039630D01*
X182537724Y-55909782D01*
X182513033Y-55844422D01*
X182527598Y-55776087D01*
X182562366Y-55735791D01*
X182661546Y-55661546D01*
X182747796Y-55546331D01*
X182798091Y-55411483D01*
X182804500Y-55351873D01*
X182804499Y-53948128D01*
X182798091Y-53888517D01*
X182791253Y-53870184D01*
X182747797Y-53753671D01*
X182747793Y-53753664D01*
X182661547Y-53638455D01*
X182661544Y-53638452D01*
X182546335Y-53552206D01*
X182546328Y-53552202D01*
X182411482Y-53501908D01*
X182411483Y-53501908D01*
X182351883Y-53495501D01*
X182351881Y-53495500D01*
X182351873Y-53495500D01*
X182351864Y-53495500D01*
X180948129Y-53495500D01*
X180948123Y-53495501D01*
X180888516Y-53501908D01*
X180753671Y-53552202D01*
X180753664Y-53552206D01*
X180638455Y-53638452D01*
X180638452Y-53638455D01*
X180552206Y-53753664D01*
X180552202Y-53753671D01*
X180529204Y-53815335D01*
X180487333Y-53871268D01*
X180421869Y-53895686D01*
X180353596Y-53880835D01*
X180325341Y-53859683D01*
X180228339Y-53762681D01*
X180194854Y-53701358D01*
X180199838Y-53631666D01*
X180228339Y-53587319D01*
X180330468Y-53485189D01*
X180330469Y-53485188D01*
X180330472Y-53485185D01*
X180418478Y-53339606D01*
X180469086Y-53177196D01*
X180475500Y-53106616D01*
X180475500Y-52593384D01*
X180469086Y-52522804D01*
X180418478Y-52360394D01*
X180330472Y-52214815D01*
X180330470Y-52214813D01*
X180330469Y-52214811D01*
X180210188Y-52094530D01*
X180064606Y-52006522D01*
X180043676Y-52000000D01*
X179902196Y-51955914D01*
X179902194Y-51955913D01*
X179902192Y-51955913D01*
X179852778Y-51951423D01*
X179831616Y-51949500D01*
X179168384Y-51949500D01*
X179149145Y-51951248D01*
X179097807Y-51955913D01*
X178935393Y-52006522D01*
X178789811Y-52094530D01*
X178669530Y-52214811D01*
X178581522Y-52360393D01*
X178530913Y-52522807D01*
X178524500Y-52593386D01*
X178524500Y-53106613D01*
X178530913Y-53177192D01*
X178581522Y-53339606D01*
X178669530Y-53485188D01*
X178771661Y-53587319D01*
X178805146Y-53648642D01*
X178800162Y-53718334D01*
X178771661Y-53762681D01*
X178669531Y-53864810D01*
X178669530Y-53864811D01*
X178581522Y-54010393D01*
X178530913Y-54172807D01*
X178524500Y-54243386D01*
X178524500Y-54574902D01*
X178504815Y-54641941D01*
X178488181Y-54662583D01*
X178019481Y-55131282D01*
X178019477Y-55131287D01*
X177975889Y-55206786D01*
X177975889Y-55206787D01*
X177940423Y-55268214D01*
X177935827Y-55285368D01*
X177899499Y-55420943D01*
X177899499Y-55420945D01*
X177899499Y-55589046D01*
X177899500Y-55589059D01*
X177899500Y-56917587D01*
X177879815Y-56984626D01*
X177872450Y-56994896D01*
X177870186Y-56997734D01*
X177774211Y-57150476D01*
X177714631Y-57320745D01*
X177714630Y-57320750D01*
X177694435Y-57499996D01*
X177694435Y-57500003D01*
X172500000Y-57500003D01*
X172500000Y-52500000D01*
X172000000Y-52000000D01*
X168208500Y-52000000D01*
X168141461Y-51980315D01*
X168095706Y-51927511D01*
X168085762Y-51858353D01*
X168114787Y-51794797D01*
X168156095Y-51763618D01*
X168177578Y-51753600D01*
X168371082Y-51618105D01*
X168538105Y-51451082D01*
X168673600Y-51257578D01*
X168773429Y-51043492D01*
X168773432Y-51043486D01*
X168830636Y-50830000D01*
X167933012Y-50830000D01*
X167965925Y-50772993D01*
X168000000Y-50645826D01*
X168000000Y-50514174D01*
X167965925Y-50387007D01*
X167933012Y-50330000D01*
X168830636Y-50330000D01*
X168830635Y-50329999D01*
X168773432Y-50116513D01*
X168773429Y-50116507D01*
X168673600Y-49902422D01*
X168673599Y-49902420D01*
X168538113Y-49708926D01*
X168538108Y-49708920D01*
X168371078Y-49541890D01*
X168185405Y-49411879D01*
X168141780Y-49357302D01*
X168134588Y-49287804D01*
X168166110Y-49225449D01*
X168185406Y-49208730D01*
X168185842Y-49208425D01*
X168371401Y-49078495D01*
X168538495Y-48911401D01*
X168674035Y-48717830D01*
X168773903Y-48503663D01*
X168835063Y-48275408D01*
X168855659Y-48040000D01*
X168835063Y-47804592D01*
X168773903Y-47576337D01*
X168674035Y-47362171D01*
X168668424Y-47354158D01*
X168538496Y-47168600D01*
X168538493Y-47168597D01*
X168416567Y-47046671D01*
X168383084Y-46985351D01*
X168388068Y-46915659D01*
X168429939Y-46859725D01*
X168460915Y-46842810D01*
X168592331Y-46793796D01*
X168707546Y-46707546D01*
X168793796Y-46592331D01*
X168844091Y-46457483D01*
X168850500Y-46397873D01*
X168850499Y-44602128D01*
X168844091Y-44542517D01*
X168842810Y-44539083D01*
X168793797Y-44407671D01*
X168793793Y-44407664D01*
X168707547Y-44292455D01*
X168707544Y-44292452D01*
X168592335Y-44206206D01*
X168592328Y-44206202D01*
X168457482Y-44155908D01*
X168457483Y-44155908D01*
X168397883Y-44149501D01*
X168397881Y-44149500D01*
X168397873Y-44149500D01*
X168397864Y-44149500D01*
X166602129Y-44149500D01*
X166602123Y-44149501D01*
X166542516Y-44155908D01*
X166407671Y-44206202D01*
X166407664Y-44206206D01*
X166292455Y-44292452D01*
X166292452Y-44292455D01*
X166206206Y-44407664D01*
X166206203Y-44407669D01*
X166157189Y-44539083D01*
X166115317Y-44595016D01*
X166049853Y-44619433D01*
X165981580Y-44604581D01*
X165953326Y-44583430D01*
X165831402Y-44461506D01*
X165831395Y-44461501D01*
X165637834Y-44325967D01*
X165637830Y-44325965D01*
X165637828Y-44325964D01*
X165423663Y-44226097D01*
X165423659Y-44226096D01*
X165423655Y-44226094D01*
X165195413Y-44164938D01*
X165195403Y-44164936D01*
X164960001Y-44144341D01*
X164959999Y-44144341D01*
X164724596Y-44164936D01*
X164724586Y-44164938D01*
X164496344Y-44226094D01*
X164496335Y-44226098D01*
X164282171Y-44325964D01*
X164282169Y-44325965D01*
X164088597Y-44461505D01*
X163921505Y-44628597D01*
X163785965Y-44822169D01*
X163785964Y-44822171D01*
X163686098Y-45036335D01*
X163686094Y-45036344D01*
X163624938Y-45264586D01*
X163624936Y-45264596D01*
X163604341Y-45499999D01*
X163604341Y-45500000D01*
X163624936Y-45735403D01*
X163624938Y-45735413D01*
X163686094Y-45963655D01*
X163686096Y-45963659D01*
X163686097Y-45963663D01*
X163770499Y-46144663D01*
X163785965Y-46177830D01*
X163785967Y-46177834D01*
X163921501Y-46371395D01*
X163921506Y-46371402D01*
X164088597Y-46538493D01*
X164088603Y-46538498D01*
X164274158Y-46668425D01*
X164317783Y-46723002D01*
X164324977Y-46792500D01*
X164293454Y-46854855D01*
X164274158Y-46871575D01*
X164088597Y-47001505D01*
X163921505Y-47168597D01*
X163785965Y-47362169D01*
X163785964Y-47362171D01*
X163686098Y-47576335D01*
X163686094Y-47576344D01*
X163624938Y-47804586D01*
X163624936Y-47804596D01*
X163604341Y-48039999D01*
X163604341Y-48040000D01*
X163624936Y-48275403D01*
X163624938Y-48275413D01*
X163686094Y-48503655D01*
X163686096Y-48503659D01*
X163686097Y-48503663D01*
X163690000Y-48512032D01*
X163785965Y-48717830D01*
X163785967Y-48717834D01*
X163894281Y-48872521D01*
X163921501Y-48911396D01*
X163921506Y-48911402D01*
X164088597Y-49078493D01*
X164088603Y-49078498D01*
X164274158Y-49208425D01*
X164317783Y-49263002D01*
X164324977Y-49332500D01*
X164293454Y-49394855D01*
X164274158Y-49411575D01*
X164088597Y-49541505D01*
X163921505Y-49708597D01*
X163785965Y-49902169D01*
X163785964Y-49902171D01*
X163686098Y-50116335D01*
X163686094Y-50116344D01*
X163624938Y-50344586D01*
X163624936Y-50344596D01*
X163604341Y-50579999D01*
X163604341Y-50580000D01*
X163624936Y-50815403D01*
X163624938Y-50815413D01*
X163686094Y-51043655D01*
X163686096Y-51043659D01*
X163686097Y-51043663D01*
X163769155Y-51221781D01*
X163785965Y-51257830D01*
X163785967Y-51257834D01*
X163894281Y-51412521D01*
X163921505Y-51451401D01*
X164088599Y-51618495D01*
X164185384Y-51686265D01*
X164282165Y-51754032D01*
X164282166Y-51754032D01*
X164282170Y-51754035D01*
X164302721Y-51763618D01*
X164355160Y-51809791D01*
X164374312Y-51876985D01*
X164354096Y-51943866D01*
X164300930Y-51989200D01*
X164250316Y-52000000D01*
X163124500Y-52000000D01*
X163057461Y-51980315D01*
X163011706Y-51927511D01*
X163000500Y-51876000D01*
X163000500Y-43624000D01*
X163020185Y-43556961D01*
X163072989Y-43511206D01*
X163124500Y-43500000D01*
X183375500Y-43500000D01*
X183442539Y-43519685D01*
G37*
%TD.AperFunction*%
%TD*%
%TA.AperFunction,Conductor*%
%TO.N,GND2*%
G36*
X163205703Y-70987445D02*
G01*
X163215229Y-70997368D01*
X163215260Y-70997338D01*
X163220184Y-71002262D01*
X163347738Y-71129816D01*
X163500478Y-71225789D01*
X163670745Y-71285368D01*
X163757669Y-71295161D01*
X163822080Y-71322226D01*
X163831465Y-71330700D01*
X167565139Y-75064374D01*
X167565149Y-75064385D01*
X167569479Y-75068715D01*
X167569480Y-75068716D01*
X167681284Y-75180520D01*
X167768095Y-75230639D01*
X167768097Y-75230641D01*
X167806151Y-75252611D01*
X167818215Y-75259577D01*
X167970943Y-75300501D01*
X167970946Y-75300501D01*
X168136653Y-75300501D01*
X168136669Y-75300500D01*
X169900500Y-75300500D01*
X169967539Y-75320185D01*
X170013294Y-75372989D01*
X170024500Y-75424500D01*
X170024500Y-75906613D01*
X170030913Y-75977192D01*
X170030913Y-75977194D01*
X170030914Y-75977196D01*
X170081522Y-76139606D01*
X170123184Y-76208523D01*
X170141021Y-76276077D01*
X170119504Y-76342551D01*
X170104750Y-76360354D01*
X169969889Y-76495215D01*
X169850318Y-76659793D01*
X169794989Y-76702459D01*
X169725375Y-76708438D01*
X169663580Y-76675833D01*
X169649682Y-76659793D01*
X169530109Y-76495214D01*
X169530105Y-76495209D01*
X169379786Y-76344890D01*
X169207820Y-76219951D01*
X169018414Y-76123444D01*
X169018413Y-76123443D01*
X169018412Y-76123443D01*
X168816243Y-76057754D01*
X168816241Y-76057753D01*
X168816240Y-76057753D01*
X168654957Y-76032208D01*
X168606287Y-76024500D01*
X168393713Y-76024500D01*
X168345042Y-76032208D01*
X168183760Y-76057753D01*
X167981585Y-76123444D01*
X167792179Y-76219951D01*
X167620213Y-76344890D01*
X167469890Y-76495213D01*
X167344951Y-76667179D01*
X167248444Y-76856585D01*
X167182753Y-77058760D01*
X167173069Y-77119905D01*
X167149500Y-77268713D01*
X167149500Y-77731287D01*
X167182754Y-77941243D01*
X167193722Y-77975000D01*
X167248444Y-78143414D01*
X167344951Y-78332820D01*
X167469890Y-78504786D01*
X167620213Y-78655109D01*
X167792179Y-78780048D01*
X167792181Y-78780049D01*
X167792184Y-78780051D01*
X167981588Y-78876557D01*
X168183757Y-78942246D01*
X168393713Y-78975500D01*
X168393714Y-78975500D01*
X168606286Y-78975500D01*
X168606287Y-78975500D01*
X168816243Y-78942246D01*
X169018412Y-78876557D01*
X169207816Y-78780051D01*
X169229789Y-78764086D01*
X169379786Y-78655109D01*
X169379788Y-78655106D01*
X169379792Y-78655104D01*
X169530104Y-78504792D01*
X169649683Y-78340204D01*
X169705011Y-78297540D01*
X169774624Y-78291561D01*
X169836420Y-78324166D01*
X169850313Y-78340199D01*
X169877552Y-78377690D01*
X169969896Y-78504792D01*
X170120213Y-78655109D01*
X170292179Y-78780048D01*
X170292181Y-78780049D01*
X170292184Y-78780051D01*
X170481588Y-78876557D01*
X170683757Y-78942246D01*
X170893713Y-78975500D01*
X170893714Y-78975500D01*
X171106286Y-78975500D01*
X171106287Y-78975500D01*
X171316243Y-78942246D01*
X171518412Y-78876557D01*
X171707816Y-78780051D01*
X171729789Y-78764086D01*
X171879786Y-78655109D01*
X171879788Y-78655106D01*
X171879792Y-78655104D01*
X172030104Y-78504792D01*
X172149683Y-78340204D01*
X172205011Y-78297540D01*
X172274624Y-78291561D01*
X172336420Y-78324166D01*
X172350313Y-78340199D01*
X172377552Y-78377690D01*
X172469896Y-78504792D01*
X172620213Y-78655109D01*
X172792179Y-78780048D01*
X172792181Y-78780049D01*
X172792184Y-78780051D01*
X172981588Y-78876557D01*
X173183757Y-78942246D01*
X173393713Y-78975500D01*
X173393714Y-78975500D01*
X173606286Y-78975500D01*
X173606287Y-78975500D01*
X173816243Y-78942246D01*
X174018412Y-78876557D01*
X174207816Y-78780051D01*
X174229789Y-78764086D01*
X174379786Y-78655109D01*
X174379788Y-78655106D01*
X174379792Y-78655104D01*
X174530104Y-78504792D01*
X174649683Y-78340204D01*
X174705011Y-78297540D01*
X174774624Y-78291561D01*
X174836420Y-78324166D01*
X174850313Y-78340199D01*
X174877552Y-78377690D01*
X174969896Y-78504792D01*
X175120213Y-78655109D01*
X175292179Y-78780048D01*
X175292181Y-78780049D01*
X175292184Y-78780051D01*
X175481588Y-78876557D01*
X175683757Y-78942246D01*
X175893713Y-78975500D01*
X175893714Y-78975500D01*
X176106286Y-78975500D01*
X176106287Y-78975500D01*
X176316243Y-78942246D01*
X176518412Y-78876557D01*
X176707816Y-78780051D01*
X176729789Y-78764086D01*
X176879786Y-78655109D01*
X176879788Y-78655106D01*
X176879792Y-78655104D01*
X177030104Y-78504792D01*
X177149683Y-78340204D01*
X177205011Y-78297540D01*
X177274624Y-78291561D01*
X177336420Y-78324166D01*
X177350313Y-78340199D01*
X177377552Y-78377690D01*
X177469896Y-78504792D01*
X177620213Y-78655109D01*
X177792179Y-78780048D01*
X177792181Y-78780049D01*
X177792184Y-78780051D01*
X177981588Y-78876557D01*
X178183757Y-78942246D01*
X178393713Y-78975500D01*
X178393714Y-78975500D01*
X178606286Y-78975500D01*
X178606287Y-78975500D01*
X178816243Y-78942246D01*
X179018412Y-78876557D01*
X179207816Y-78780051D01*
X179265141Y-78738402D01*
X179379784Y-78655110D01*
X179379784Y-78655109D01*
X179379792Y-78655104D01*
X179518967Y-78515928D01*
X179580286Y-78482446D01*
X179649978Y-78487430D01*
X179705912Y-78529301D01*
X179712184Y-78538515D01*
X179807684Y-78693345D01*
X179931654Y-78817315D01*
X180080875Y-78909356D01*
X180080880Y-78909358D01*
X180247302Y-78964505D01*
X180247309Y-78964506D01*
X180350019Y-78974999D01*
X180749999Y-78974999D01*
X180750000Y-78974998D01*
X180750000Y-77904145D01*
X180816657Y-77942630D01*
X180937465Y-77975000D01*
X181062535Y-77975000D01*
X181183343Y-77942630D01*
X181250000Y-77904145D01*
X181250000Y-78974999D01*
X181649972Y-78974999D01*
X181649986Y-78974998D01*
X181752697Y-78964505D01*
X181919119Y-78909358D01*
X181919124Y-78909356D01*
X182068345Y-78817315D01*
X182192315Y-78693345D01*
X182284356Y-78544124D01*
X182284358Y-78544119D01*
X182339505Y-78377697D01*
X182339506Y-78377690D01*
X182349999Y-78274986D01*
X182350000Y-78274973D01*
X182350000Y-77750000D01*
X181404146Y-77750000D01*
X181442630Y-77683343D01*
X181475000Y-77562535D01*
X181475000Y-77437465D01*
X181442630Y-77316657D01*
X181404146Y-77250000D01*
X182349999Y-77250000D01*
X182349999Y-76725028D01*
X182349998Y-76725013D01*
X182339505Y-76622302D01*
X182284358Y-76455880D01*
X182284356Y-76455875D01*
X182192315Y-76306654D01*
X182068345Y-76182684D01*
X181919124Y-76090643D01*
X181919119Y-76090641D01*
X181752697Y-76035494D01*
X181752690Y-76035493D01*
X181649986Y-76025000D01*
X181250000Y-76025000D01*
X181250000Y-77095854D01*
X181183343Y-77057370D01*
X181062535Y-77025000D01*
X180937465Y-77025000D01*
X180816657Y-77057370D01*
X180750000Y-77095854D01*
X180750000Y-76025000D01*
X180350028Y-76025000D01*
X180350012Y-76025001D01*
X180247302Y-76035494D01*
X180080880Y-76090641D01*
X180080875Y-76090643D01*
X179931654Y-76182684D01*
X179807683Y-76306655D01*
X179807680Y-76306659D01*
X179712183Y-76461484D01*
X179660235Y-76508209D01*
X179591273Y-76519430D01*
X179527191Y-76491587D01*
X179518964Y-76484068D01*
X179395251Y-76360355D01*
X179361766Y-76299032D01*
X179366750Y-76229340D01*
X179376815Y-76208524D01*
X179418478Y-76139606D01*
X179469086Y-75977196D01*
X179475500Y-75906616D01*
X179475500Y-75393384D01*
X179469086Y-75322804D01*
X179418478Y-75160394D01*
X179330472Y-75014815D01*
X179330470Y-75014813D01*
X179330469Y-75014811D01*
X179228339Y-74912681D01*
X179194854Y-74851358D01*
X179199838Y-74781666D01*
X179228339Y-74737319D01*
X179330468Y-74635189D01*
X179330470Y-74635187D01*
X179330472Y-74635185D01*
X179359303Y-74587492D01*
X179376015Y-74559849D01*
X179427543Y-74512662D01*
X179482131Y-74500000D01*
X183375500Y-74500000D01*
X183442539Y-74519685D01*
X183488294Y-74572489D01*
X183499500Y-74624000D01*
X183499500Y-79875500D01*
X183479815Y-79942539D01*
X183427011Y-79988294D01*
X183375500Y-79999500D01*
X163124500Y-79999500D01*
X163057461Y-79979815D01*
X163011706Y-79927011D01*
X163000500Y-79875500D01*
X163000500Y-71081158D01*
X163020185Y-71014119D01*
X163072989Y-70968364D01*
X163142147Y-70958420D01*
X163205703Y-70987445D01*
G37*
%TD.AperFunction*%
%TA.AperFunction,Conductor*%
G36*
X168345378Y-69878787D02*
G01*
X168389666Y-69932827D01*
X168399500Y-69981223D01*
X168399500Y-70979016D01*
X168399499Y-70979034D01*
X168399499Y-71144740D01*
X168399498Y-71144740D01*
X168433235Y-71270645D01*
X168440423Y-71297471D01*
X168459608Y-71330700D01*
X168466813Y-71343178D01*
X168466814Y-71343182D01*
X168466815Y-71343182D01*
X168519479Y-71434400D01*
X168519481Y-71434403D01*
X168638349Y-71553271D01*
X168638355Y-71553276D01*
X170222029Y-73136950D01*
X170255514Y-73198273D01*
X170250530Y-73267965D01*
X170222030Y-73312311D01*
X170171162Y-73363180D01*
X170109839Y-73396666D01*
X170083480Y-73399500D01*
X168300097Y-73399500D01*
X168233058Y-73379815D01*
X168212416Y-73363181D01*
X167586819Y-72737584D01*
X167553334Y-72676261D01*
X167550500Y-72649903D01*
X167550500Y-70099500D01*
X167570185Y-70032461D01*
X167622989Y-69986706D01*
X167674500Y-69975500D01*
X167906613Y-69975500D01*
X167906616Y-69975500D01*
X167977196Y-69969086D01*
X168139606Y-69918478D01*
X168211350Y-69875106D01*
X168278904Y-69857270D01*
X168345378Y-69878787D01*
G37*
%TD.AperFunction*%
%TA.AperFunction,Conductor*%
G36*
X170943039Y-52519685D02*
G01*
X170988794Y-52572489D01*
X171000000Y-52624000D01*
X171000000Y-71000000D01*
X171787819Y-71787819D01*
X171821304Y-71849142D01*
X171816320Y-71918834D01*
X171774448Y-71974767D01*
X171708984Y-71999184D01*
X171700138Y-71999500D01*
X171400098Y-71999500D01*
X171333059Y-71979815D01*
X171312417Y-71963181D01*
X170136819Y-70787583D01*
X170103334Y-70726260D01*
X170100500Y-70699902D01*
X170100500Y-63023375D01*
X170100501Y-63023362D01*
X170100501Y-62855260D01*
X170100501Y-62855258D01*
X170059577Y-62702530D01*
X170007711Y-62612696D01*
X169980520Y-62565599D01*
X169868716Y-62453795D01*
X169868715Y-62453794D01*
X169864385Y-62449464D01*
X169864374Y-62449454D01*
X169653275Y-62238355D01*
X169653273Y-62238352D01*
X169534402Y-62119481D01*
X169534401Y-62119480D01*
X169447589Y-62069360D01*
X169447589Y-62069359D01*
X169447585Y-62069358D01*
X169397470Y-62040423D01*
X169244742Y-61999499D01*
X169086628Y-61999499D01*
X169079032Y-61999499D01*
X169079016Y-61999500D01*
X167424500Y-61999500D01*
X167357461Y-61979815D01*
X167311706Y-61927011D01*
X167300500Y-61875500D01*
X167300500Y-60099500D01*
X167320185Y-60032461D01*
X167372989Y-59986706D01*
X167424500Y-59975500D01*
X167906613Y-59975500D01*
X167906616Y-59975500D01*
X167977196Y-59969086D01*
X168139606Y-59918478D01*
X168285185Y-59830472D01*
X168405472Y-59710185D01*
X168409304Y-59703845D01*
X168449448Y-59663000D01*
X168502262Y-59629816D01*
X168629816Y-59502262D01*
X168725789Y-59349522D01*
X168785368Y-59179255D01*
X168800608Y-59043994D01*
X168805565Y-59000003D01*
X168805565Y-58999996D01*
X168785369Y-58820750D01*
X168785368Y-58820745D01*
X168741170Y-58694435D01*
X168725789Y-58650478D01*
X168629816Y-58497738D01*
X168502262Y-58370184D01*
X168502261Y-58370183D01*
X168449449Y-58336999D01*
X168409304Y-58296154D01*
X168405471Y-58289814D01*
X168405468Y-58289810D01*
X168285188Y-58169530D01*
X168253672Y-58150478D01*
X168139606Y-58081522D01*
X167977196Y-58030914D01*
X167977194Y-58030913D01*
X167977192Y-58030913D01*
X167927778Y-58026423D01*
X167906616Y-58024500D01*
X167393384Y-58024500D01*
X167322804Y-58030914D01*
X167211046Y-58065738D01*
X167199947Y-58069197D01*
X167130087Y-58070347D01*
X167075377Y-58038492D01*
X167064397Y-58027512D01*
X167064374Y-58027491D01*
X166675238Y-57638355D01*
X166675236Y-57638352D01*
X166556365Y-57519481D01*
X166556364Y-57519480D01*
X166469552Y-57469360D01*
X166469552Y-57469359D01*
X166469548Y-57469358D01*
X166419433Y-57440423D01*
X166266705Y-57399499D01*
X166108591Y-57399499D01*
X166100995Y-57399499D01*
X166100979Y-57399500D01*
X165076566Y-57399500D01*
X165009527Y-57379815D01*
X164988885Y-57363181D01*
X164775789Y-57150085D01*
X164742304Y-57088762D01*
X164747288Y-57019070D01*
X164758473Y-56996437D01*
X164850787Y-56849522D01*
X164910366Y-56679255D01*
X164913663Y-56650000D01*
X164930563Y-56500002D01*
X164930563Y-56500000D01*
X164929013Y-56486247D01*
X164941066Y-56417427D01*
X164964549Y-56384684D01*
X166358505Y-54990729D01*
X166358510Y-54990725D01*
X166368713Y-54980520D01*
X166368716Y-54980520D01*
X166382509Y-54966726D01*
X166433300Y-54936022D01*
X166489606Y-54918478D01*
X166635185Y-54830472D01*
X166635189Y-54830468D01*
X166737319Y-54728339D01*
X166798642Y-54694854D01*
X166868334Y-54699838D01*
X166912681Y-54728339D01*
X167014811Y-54830469D01*
X167014813Y-54830470D01*
X167014815Y-54830472D01*
X167160394Y-54918478D01*
X167322804Y-54969086D01*
X167393384Y-54975500D01*
X167393387Y-54975500D01*
X167906613Y-54975500D01*
X167906616Y-54975500D01*
X167977196Y-54969086D01*
X168139606Y-54918478D01*
X168285185Y-54830472D01*
X168405472Y-54710185D01*
X168409304Y-54703845D01*
X168449448Y-54663000D01*
X168502262Y-54629816D01*
X168629816Y-54502262D01*
X168725789Y-54349522D01*
X168785368Y-54179255D01*
X168786095Y-54172804D01*
X168805565Y-54000003D01*
X168805565Y-53999996D01*
X168785369Y-53820750D01*
X168785368Y-53820745D01*
X168761897Y-53753669D01*
X168725789Y-53650478D01*
X168629816Y-53497738D01*
X168502262Y-53370184D01*
X168502261Y-53370183D01*
X168449449Y-53336999D01*
X168409304Y-53296154D01*
X168405471Y-53289814D01*
X168405468Y-53289810D01*
X168285188Y-53169530D01*
X168139606Y-53081522D01*
X167977196Y-53030914D01*
X167977194Y-53030913D01*
X167977192Y-53030913D01*
X167927778Y-53026423D01*
X167906616Y-53024500D01*
X167393384Y-53024500D01*
X167374145Y-53026248D01*
X167322807Y-53030913D01*
X167160393Y-53081522D01*
X167014811Y-53169530D01*
X167014810Y-53169531D01*
X166912681Y-53271661D01*
X166851358Y-53305146D01*
X166781666Y-53300162D01*
X166737319Y-53271661D01*
X166635188Y-53169530D01*
X166489606Y-53081522D01*
X166327196Y-53030914D01*
X166327194Y-53030913D01*
X166327192Y-53030913D01*
X166277778Y-53026423D01*
X166256616Y-53024500D01*
X165743384Y-53024500D01*
X165724145Y-53026248D01*
X165672807Y-53030913D01*
X165510393Y-53081522D01*
X165364811Y-53169530D01*
X165244530Y-53289811D01*
X165156522Y-53435393D01*
X165105913Y-53597807D01*
X165105217Y-53605472D01*
X165099500Y-53668384D01*
X165099500Y-54331616D01*
X165105914Y-54402196D01*
X165117505Y-54439393D01*
X165118655Y-54509254D01*
X165086800Y-54563963D01*
X165012309Y-54638455D01*
X164950988Y-54671939D01*
X164881296Y-54666955D01*
X164825362Y-54625084D01*
X164800945Y-54559620D01*
X164801409Y-54536890D01*
X164805565Y-54500003D01*
X164805565Y-54499996D01*
X164785369Y-54320750D01*
X164785368Y-54320745D01*
X164758298Y-54243384D01*
X164725789Y-54150478D01*
X164629816Y-53997738D01*
X164502262Y-53870184D01*
X164493717Y-53864815D01*
X164349523Y-53774211D01*
X164179254Y-53714631D01*
X164179249Y-53714630D01*
X164000004Y-53694435D01*
X163999996Y-53694435D01*
X163820750Y-53714630D01*
X163820745Y-53714631D01*
X163650476Y-53774211D01*
X163497737Y-53870184D01*
X163370184Y-53997737D01*
X163274210Y-54150478D01*
X163241542Y-54243841D01*
X163200820Y-54300617D01*
X163135868Y-54326365D01*
X163067306Y-54312909D01*
X163016903Y-54264522D01*
X163000500Y-54202887D01*
X163000500Y-52624000D01*
X163020185Y-52556961D01*
X163072989Y-52511206D01*
X163124500Y-52500000D01*
X170876000Y-52500000D01*
X170943039Y-52519685D01*
G37*
%TD.AperFunction*%
%TA.AperFunction,Conductor*%
G36*
X166868332Y-64699837D02*
G01*
X166912680Y-64728338D01*
X167014811Y-64830469D01*
X167014813Y-64830470D01*
X167014815Y-64830472D01*
X167160394Y-64918478D01*
X167322804Y-64969086D01*
X167393384Y-64975500D01*
X167393387Y-64975500D01*
X167906613Y-64975500D01*
X167906616Y-64975500D01*
X167977196Y-64969086D01*
X168139606Y-64918478D01*
X168211350Y-64875106D01*
X168278904Y-64857270D01*
X168345378Y-64878787D01*
X168389666Y-64932827D01*
X168399500Y-64981223D01*
X168399500Y-68018776D01*
X168379815Y-68085815D01*
X168327011Y-68131570D01*
X168257853Y-68141514D01*
X168211350Y-68124893D01*
X168139606Y-68081522D01*
X168119504Y-68075258D01*
X167977196Y-68030914D01*
X167977194Y-68030913D01*
X167977192Y-68030913D01*
X167923947Y-68026075D01*
X167906616Y-68024500D01*
X167393384Y-68024500D01*
X167376049Y-68026075D01*
X167307503Y-68012537D01*
X167277148Y-67990265D01*
X166990924Y-67704041D01*
X166990922Y-67704038D01*
X166872051Y-67585167D01*
X166872050Y-67585166D01*
X166785238Y-67535046D01*
X166785238Y-67535045D01*
X166785234Y-67535044D01*
X166735119Y-67506109D01*
X166582391Y-67465185D01*
X166424277Y-67465185D01*
X166416681Y-67465185D01*
X166416665Y-67465186D01*
X165365784Y-67465186D01*
X165298745Y-67445501D01*
X165278103Y-67428867D01*
X165040837Y-67191601D01*
X165007352Y-67130278D01*
X165012336Y-67060586D01*
X165040837Y-67016238D01*
X165054814Y-67002262D01*
X165150787Y-66849522D01*
X165210366Y-66679255D01*
X165220159Y-66592329D01*
X165247224Y-66527918D01*
X165255688Y-66518543D01*
X166358506Y-65415726D01*
X166358511Y-65415722D01*
X166368714Y-65405518D01*
X166368716Y-65405518D01*
X166480520Y-65293714D01*
X166537237Y-65195477D01*
X166559577Y-65156783D01*
X166600500Y-65004056D01*
X166600500Y-64916519D01*
X166620185Y-64849480D01*
X166636813Y-64828843D01*
X166737321Y-64728335D01*
X166798640Y-64694853D01*
X166868332Y-64699837D01*
G37*
%TD.AperFunction*%
%TD*%
M02*
