%TF.GenerationSoftware,KiCad,Pcbnew,8.0.1*%
%TF.CreationDate,2024-08-07T00:37:21+09:00*%
%TF.ProjectId,insulation_board,696e7375-6c61-4746-996f-6e5f626f6172,rev?*%
%TF.SameCoordinates,Original*%
%TF.FileFunction,Copper,L1,Top*%
%TF.FilePolarity,Positive*%
%FSLAX46Y46*%
G04 Gerber Fmt 4.6, Leading zero omitted, Abs format (unit mm)*
G04 Created by KiCad (PCBNEW 8.0.1) date 2024-08-07 00:37:21*
%MOMM*%
%LPD*%
G01*
G04 APERTURE LIST*
G04 Aperture macros list*
%AMRoundRect*
0 Rectangle with rounded corners*
0 $1 Rounding radius*
0 $2 $3 $4 $5 $6 $7 $8 $9 X,Y pos of 4 corners*
0 Add a 4 corners polygon primitive as box body*
4,1,4,$2,$3,$4,$5,$6,$7,$8,$9,$2,$3,0*
0 Add four circle primitives for the rounded corners*
1,1,$1+$1,$2,$3*
1,1,$1+$1,$4,$5*
1,1,$1+$1,$6,$7*
1,1,$1+$1,$8,$9*
0 Add four rect primitives between the rounded corners*
20,1,$1+$1,$2,$3,$4,$5,0*
20,1,$1+$1,$4,$5,$6,$7,0*
20,1,$1+$1,$6,$7,$8,$9,0*
20,1,$1+$1,$8,$9,$2,$3,0*%
G04 Aperture macros list end*
%TA.AperFunction,SMDPad,CuDef*%
%ADD10R,0.450000X1.100000*%
%TD*%
%TA.AperFunction,ComponentPad*%
%ADD11R,1.308000X1.308000*%
%TD*%
%TA.AperFunction,ComponentPad*%
%ADD12C,1.308000*%
%TD*%
%TA.AperFunction,SMDPad,CuDef*%
%ADD13RoundRect,0.200000X0.200000X0.275000X-0.200000X0.275000X-0.200000X-0.275000X0.200000X-0.275000X0*%
%TD*%
%TA.AperFunction,SMDPad,CuDef*%
%ADD14RoundRect,0.225000X0.250000X-0.225000X0.250000X0.225000X-0.250000X0.225000X-0.250000X-0.225000X0*%
%TD*%
%TA.AperFunction,SMDPad,CuDef*%
%ADD15R,2.100000X1.450000*%
%TD*%
%TA.AperFunction,ComponentPad*%
%ADD16RoundRect,0.250000X0.600000X0.725000X-0.600000X0.725000X-0.600000X-0.725000X0.600000X-0.725000X0*%
%TD*%
%TA.AperFunction,ComponentPad*%
%ADD17O,1.700000X1.950000*%
%TD*%
%TA.AperFunction,SMDPad,CuDef*%
%ADD18RoundRect,0.225000X-0.250000X0.225000X-0.250000X-0.225000X0.250000X-0.225000X0.250000X0.225000X0*%
%TD*%
%TA.AperFunction,ComponentPad*%
%ADD19O,1.700000X1.700000*%
%TD*%
%TA.AperFunction,ComponentPad*%
%ADD20R,1.700000X1.700000*%
%TD*%
%TA.AperFunction,ViaPad*%
%ADD21C,0.600000*%
%TD*%
%TA.AperFunction,Conductor*%
%ADD22C,2.000000*%
%TD*%
%TA.AperFunction,Conductor*%
%ADD23C,1.000000*%
%TD*%
%TA.AperFunction,Conductor*%
%ADD24C,0.500000*%
%TD*%
%TA.AperFunction,Conductor*%
%ADD25C,1.500000*%
%TD*%
%TA.AperFunction,Conductor*%
%ADD26C,0.400000*%
%TD*%
%TA.AperFunction,Conductor*%
%ADD27C,0.200000*%
%TD*%
G04 APERTURE END LIST*
D10*
%TO.P,Q2,1,S2*%
%TO.N,+3V3*%
X165800000Y-66500000D03*
%TO.P,Q2,2,G2*%
%TO.N,Net-(Q2-G2)*%
X165150000Y-66500000D03*
%TO.P,Q2,3,D1*%
%TO.N,n_DIR_L*%
X164500000Y-66500000D03*
%TO.P,Q2,4,S1*%
%TO.N,+3V3*%
X164500000Y-68500000D03*
%TO.P,Q2,5,G1*%
%TO.N,Net-(Q2-G1)*%
X165150000Y-68500000D03*
%TO.P,Q2,6,D2*%
%TO.N,n_PWM_L*%
X165800000Y-68500000D03*
%TD*%
D11*
%TO.P,J4,1,1*%
%TO.N,AN2*%
X181650000Y-54650000D03*
D12*
%TO.P,J4,2,2*%
%TO.N,AN1*%
X181650000Y-56650000D03*
%TO.P,J4,3,3*%
%TO.N,unconnected-(J4-Pad3)*%
X181650000Y-58650000D03*
%TO.P,J4,4,4*%
%TO.N,GND*%
X181650000Y-60650000D03*
%TD*%
D13*
%TO.P,R9,1*%
%TO.N,+3V3*%
X165650000Y-54500000D03*
%TO.P,R9,2*%
%TO.N,Net-(Q1-G2)*%
X164000000Y-54500000D03*
%TD*%
D14*
%TO.P,C1,1*%
%TO.N,GND*%
X170500000Y-50050000D03*
%TO.P,C1,2*%
%TO.N,+5V*%
X170500000Y-48500000D03*
%TD*%
D10*
%TO.P,Q1,1,S2*%
%TO.N,+3V3*%
X165500000Y-56500000D03*
%TO.P,Q1,2,G2*%
%TO.N,Net-(Q1-G2)*%
X164850000Y-56500000D03*
%TO.P,Q1,3,D1*%
%TO.N,n_DIR_R*%
X164200000Y-56500000D03*
%TO.P,Q1,4,S1*%
%TO.N,+3V3*%
X164200000Y-58500000D03*
%TO.P,Q1,5,G1*%
%TO.N,Net-(Q1-G1)*%
X164850000Y-58500000D03*
%TO.P,Q1,6,D2*%
%TO.N,n_PWM_R*%
X165500000Y-58500000D03*
%TD*%
D15*
%TO.P,IC1,1,A_1*%
%TO.N,Net-(IC1-A_1)*%
X167950000Y-53920000D03*
%TO.P,IC1,2,K_1*%
%TO.N,GND2*%
X167950000Y-56460000D03*
%TO.P,IC1,3,A_2*%
%TO.N,Net-(IC1-A_2)*%
X167950000Y-59000000D03*
%TO.P,IC1,4,K_2*%
%TO.N,GND2*%
X167950000Y-61540000D03*
%TO.P,IC1,5,A_3*%
%TO.N,Net-(IC1-A_3)*%
X167950000Y-64080000D03*
%TO.P,IC1,6,K_3*%
%TO.N,GND2*%
X167950000Y-66620000D03*
%TO.P,IC1,7,A_4*%
%TO.N,Net-(IC1-A_4)*%
X167950000Y-69160000D03*
%TO.P,IC1,8,K_4*%
%TO.N,GND2*%
X167950000Y-71700000D03*
%TO.P,IC1,9,E_4*%
%TO.N,GND*%
X177050000Y-71700000D03*
%TO.P,IC1,10,C_4*%
%TO.N,AN1*%
X177050000Y-69160000D03*
%TO.P,IC1,11,E_3*%
%TO.N,GND*%
X177050000Y-66620000D03*
%TO.P,IC1,12,C_3*%
%TO.N,IN1*%
X177050000Y-64080000D03*
%TO.P,IC1,13,E_2*%
%TO.N,GND*%
X177050000Y-61540000D03*
%TO.P,IC1,14,C-2*%
%TO.N,AN2*%
X177050000Y-59000000D03*
%TO.P,IC1,15,E_1*%
%TO.N,GND*%
X177050000Y-56460000D03*
%TO.P,IC1,16,C_1*%
%TO.N,IN2*%
X177050000Y-53920000D03*
%TD*%
D13*
%TO.P,R15,1*%
%TO.N,+3V3*%
X165500000Y-70500000D03*
%TO.P,R15,2*%
%TO.N,Net-(Q2-G1)*%
X163850000Y-70500000D03*
%TD*%
D16*
%TO.P,J1,1,Pin_1*%
%TO.N,GND2*%
X181000000Y-77500000D03*
D17*
%TO.P,J1,2,Pin_2*%
%TO.N,DIR_R*%
X178500000Y-77500000D03*
%TO.P,J1,3,Pin_3*%
%TO.N,PWM_R*%
X176000000Y-77500000D03*
%TO.P,J1,4,Pin_4*%
%TO.N,DIR_L*%
X173500000Y-77500000D03*
%TO.P,J1,5,Pin_5*%
%TO.N,PWM_L*%
X171000000Y-77500000D03*
%TO.P,J1,6,Pin_6*%
%TO.N,+3V3*%
X168500000Y-77500000D03*
%TD*%
D18*
%TO.P,C2,1*%
%TO.N,+3V3*%
X164000000Y-75950000D03*
%TO.P,C2,2*%
%TO.N,GND2*%
X164000000Y-77500000D03*
%TD*%
D13*
%TO.P,R14,1*%
%TO.N,+3V3*%
X165650000Y-64500000D03*
%TO.P,R14,2*%
%TO.N,Net-(Q2-G2)*%
X164000000Y-64500000D03*
%TD*%
%TO.P,R12,1*%
%TO.N,+3V3*%
X165650000Y-60500000D03*
%TO.P,R12,2*%
%TO.N,Net-(Q1-G1)*%
X164000000Y-60500000D03*
%TD*%
D11*
%TO.P,J2,1,1*%
%TO.N,IN2*%
X181650000Y-65150000D03*
D12*
%TO.P,J2,2,2*%
%TO.N,IN1*%
X181650000Y-67150000D03*
%TO.P,J2,3,3*%
%TO.N,unconnected-(J2-Pad3)*%
X181650000Y-69150000D03*
%TO.P,J2,4,4*%
%TO.N,GND*%
X181650000Y-71150000D03*
%TD*%
D19*
%TO.P,J3,6,Pin_6*%
%TO.N,unconnected-(J3-Pin_6-Pad6)*%
X164960000Y-50580000D03*
%TO.P,J3,5,Pin_5*%
%TO.N,GND*%
X167500000Y-50580000D03*
%TO.P,J3,4,Pin_4*%
%TO.N,unconnected-(J3-Pin_4-Pad4)*%
X164960000Y-48040000D03*
%TO.P,J3,3,Pin_3*%
%TO.N,+5V*%
X167500000Y-48040000D03*
%TO.P,J3,2,Pin_2*%
%TO.N,unconnected-(J3-Pin_2-Pad2)*%
X164960000Y-45500000D03*
D20*
%TO.P,J3,1,Pin_1*%
%TO.N,unconnected-(J3-Pin_1-Pad1)*%
X167500000Y-45500000D03*
%TD*%
D21*
%TO.N,GND*%
X169500000Y-50500000D03*
X180500000Y-59500000D03*
X173500000Y-69000000D03*
X183000000Y-70000000D03*
X173000000Y-60500000D03*
X177000000Y-61500000D03*
X170500000Y-45000000D03*
X179500000Y-71000000D03*
X183000000Y-72500000D03*
X177000000Y-56500000D03*
X174500000Y-71000000D03*
X177000000Y-71500000D03*
X182000000Y-51500000D03*
X180500000Y-70000000D03*
X182500000Y-62000000D03*
X172000000Y-50500000D03*
X177000000Y-66500000D03*
X174000000Y-53000000D03*
X182500000Y-46000000D03*
X176500000Y-46000000D03*
X180500000Y-72500000D03*
X180500000Y-61500000D03*
X183000000Y-59500000D03*
%TO.N,+5V*%
X179500000Y-53000000D03*
X179500000Y-69000000D03*
X179500000Y-58500000D03*
X179500000Y-63500000D03*
%TO.N,Net-(IC1-A_2)*%
X168000000Y-59000000D03*
%TO.N,GND2*%
X168000000Y-66500000D03*
X168000000Y-56500000D03*
X164000000Y-77500000D03*
X164000000Y-79000000D03*
X181000000Y-79500000D03*
X168000000Y-61500000D03*
X181000000Y-75500000D03*
X169500000Y-76000000D03*
X168000000Y-71500000D03*
X165500000Y-78000000D03*
X183000000Y-77500000D03*
%TO.N,Net-(IC1-A_3)*%
X168000000Y-64000000D03*
%TO.N,Net-(IC1-A_1)*%
X168000000Y-54000000D03*
%TO.N,Net-(IC1-A_4)*%
X168000000Y-69000000D03*
%TO.N,+3V3*%
X165500000Y-70500000D03*
X164424998Y-68500000D03*
X164124998Y-58500000D03*
X165650000Y-60500000D03*
%TO.N,AN2*%
X178500000Y-57500000D03*
%TO.N,IN2*%
X179500000Y-65000000D03*
%TO.N,AN1*%
X175100000Y-61000000D03*
X179500000Y-56500000D03*
X175000000Y-63000000D03*
%TO.N,IN1*%
X178500000Y-65500000D03*
%TO.N,Net-(Q1-G1)*%
X164000000Y-60500000D03*
%TO.N,n_PWM_R*%
X166000000Y-59000000D03*
%TO.N,Net-(Q1-G2)*%
X164000000Y-54500000D03*
%TO.N,n_DIR_R*%
X164124998Y-56500000D03*
%TO.N,Net-(Q2-G2)*%
X164000000Y-64500000D03*
%TO.N,n_PWM_L*%
X166000000Y-69000000D03*
%TO.N,Net-(Q2-G1)*%
X163850000Y-70500000D03*
%TO.N,n_DIR_L*%
X164424998Y-66500000D03*
%TD*%
D22*
%TO.N,GND*%
X169500000Y-50500000D02*
X172000000Y-50500000D01*
X169420000Y-50580000D02*
X167500000Y-50580000D01*
X169500000Y-50500000D02*
X169420000Y-50580000D01*
D23*
%TO.N,+5V*%
X175000000Y-48500000D02*
X179500000Y-53000000D01*
X170040000Y-48040000D02*
X170500000Y-48500000D01*
X167500000Y-48040000D02*
X170040000Y-48040000D01*
D24*
X180250000Y-57750000D02*
X179500000Y-58500000D01*
D23*
X179500000Y-58500000D02*
X179500000Y-63500000D01*
X170500000Y-48500000D02*
X175000000Y-48500000D01*
D24*
X180250000Y-53750000D02*
X180250000Y-57750000D01*
X180250000Y-68250000D02*
X179500000Y-69000000D01*
X179500000Y-53000000D02*
X180250000Y-53750000D01*
X180250000Y-64250000D02*
X180250000Y-68250000D01*
X179500000Y-63500000D02*
X180250000Y-64250000D01*
D25*
%TO.N,GND2*%
X168000000Y-56500000D02*
X167960000Y-56460000D01*
X168040000Y-56460000D02*
X168000000Y-56500000D01*
X167960000Y-56460000D02*
X167950000Y-56460000D01*
X168960000Y-56460000D02*
X168040000Y-56460000D01*
X169085000Y-66620000D02*
X169950000Y-65755000D01*
X169950000Y-65755000D02*
X169950000Y-62405000D01*
X168000000Y-71500000D02*
X168635000Y-71700000D01*
X168040000Y-61540000D02*
X169085000Y-61540000D01*
X169950000Y-60675000D02*
X169950000Y-57450000D01*
X168000000Y-61500000D02*
X168040000Y-61540000D01*
X168000000Y-66500000D02*
X169085000Y-66620000D01*
X167950000Y-61540000D02*
X167960000Y-61540000D01*
X169085000Y-61540000D02*
X169950000Y-60675000D01*
X167950000Y-66620000D02*
X168000000Y-66500000D01*
X169950000Y-67485000D02*
X169085000Y-66620000D01*
X169950000Y-62405000D02*
X169085000Y-61540000D01*
X169950000Y-70385000D02*
X169950000Y-67485000D01*
X168635000Y-71700000D02*
X169950000Y-70385000D01*
X167950000Y-71700000D02*
X168000000Y-71500000D01*
X167960000Y-61540000D02*
X168000000Y-61500000D01*
X169950000Y-57450000D02*
X168960000Y-56460000D01*
D26*
%TO.N,+3V3*%
X164500000Y-67575000D02*
X164500000Y-68500000D01*
X165500000Y-57425000D02*
X165375000Y-57550000D01*
X165800000Y-64650000D02*
X165800000Y-66500000D01*
D25*
X168500000Y-77500000D02*
X165500000Y-74500000D01*
D26*
X164500000Y-68500000D02*
X164424998Y-68500000D01*
X164525000Y-67550000D02*
X164500000Y-67575000D01*
X165800000Y-67425000D02*
X165675000Y-67550000D01*
D25*
X165500000Y-74500000D02*
X165500000Y-70500000D01*
D26*
X165650000Y-54500000D02*
X165650000Y-56350000D01*
X164200000Y-57575000D02*
X164200000Y-58500000D01*
X165650000Y-64500000D02*
X165800000Y-64650000D01*
D25*
X165500000Y-70500000D02*
X165500000Y-74450000D01*
D26*
X164225000Y-57550000D02*
X164200000Y-57575000D01*
X165650000Y-56350000D02*
X165500000Y-56500000D01*
X165675000Y-67550000D02*
X164525000Y-67550000D01*
X165500000Y-56500000D02*
X165500000Y-57425000D01*
X165375000Y-57550000D02*
X164225000Y-57550000D01*
D25*
X165500000Y-74450000D02*
X164000000Y-75950000D01*
D26*
X165800000Y-66500000D02*
X165800000Y-67425000D01*
X165650000Y-60500000D02*
X165650000Y-64500000D01*
X164200000Y-58500000D02*
X164124998Y-58500000D01*
D27*
%TO.N,AN2*%
X178500000Y-57500000D02*
X178500000Y-57550000D01*
X178500000Y-57550000D02*
X177050000Y-59000000D01*
%TO.N,IN2*%
X178400000Y-63055000D02*
X177910000Y-62565000D01*
X178400000Y-63900000D02*
X178400000Y-63055000D01*
X175700000Y-62565000D02*
X174500000Y-61365000D01*
X179500000Y-65000000D02*
X178400000Y-63900000D01*
X174500000Y-56470000D02*
X177050000Y-53920000D01*
X174500000Y-61365000D02*
X174500000Y-56470000D01*
X177910000Y-62565000D02*
X175700000Y-62565000D01*
%TO.N,AN1*%
X179500000Y-56500000D02*
X179500000Y-57348529D01*
X179500000Y-57348529D02*
X178633968Y-58214561D01*
X175000000Y-67110000D02*
X177050000Y-69160000D01*
X178633968Y-59791032D02*
X177910000Y-60515000D01*
X178633968Y-58214561D02*
X178633968Y-59791032D01*
X175000000Y-63000000D02*
X175000000Y-67110000D01*
X175585000Y-60515000D02*
X175100000Y-61000000D01*
X177910000Y-60515000D02*
X175585000Y-60515000D01*
%TO.N,IN1*%
X178500000Y-65500000D02*
X178470000Y-65500000D01*
X178470000Y-65500000D02*
X177050000Y-64080000D01*
%TO.N,Net-(Q1-G1)*%
X164850000Y-58500000D02*
X164850000Y-59650000D01*
X164850000Y-59650000D02*
X164000000Y-60500000D01*
%TO.N,n_PWM_R*%
X165500000Y-58500000D02*
X166000000Y-59000000D01*
%TO.N,Net-(Q1-G2)*%
X164850000Y-56500000D02*
X164850000Y-55350000D01*
X164850000Y-55350000D02*
X164000000Y-54500000D01*
%TO.N,n_DIR_R*%
X164200000Y-56500000D02*
X164124998Y-56500000D01*
%TO.N,Net-(Q2-G2)*%
X164000000Y-64500000D02*
X165150000Y-65650000D01*
X165150000Y-65650000D02*
X165150000Y-66500000D01*
%TO.N,n_PWM_L*%
X165800000Y-68500000D02*
X165800000Y-68800000D01*
X165800000Y-68800000D02*
X166000000Y-69000000D01*
%TO.N,Net-(Q2-G1)*%
X163850000Y-70500000D02*
X165150000Y-69200000D01*
X165150000Y-69200000D02*
X165150000Y-68500000D01*
%TO.N,n_DIR_L*%
X164500000Y-66500000D02*
X164424998Y-66500000D01*
%TD*%
%TA.AperFunction,Conductor*%
%TO.N,GND2*%
G36*
X170943039Y-52519685D02*
G01*
X170988794Y-52572489D01*
X171000000Y-52624000D01*
X171000000Y-71000000D01*
X174500000Y-74500000D01*
X183375500Y-74500000D01*
X183442539Y-74519685D01*
X183488294Y-74572489D01*
X183499500Y-74624000D01*
X183499500Y-79875500D01*
X183479815Y-79942539D01*
X183427011Y-79988294D01*
X183375500Y-79999500D01*
X163124500Y-79999500D01*
X163057461Y-79979815D01*
X163011706Y-79927011D01*
X163000500Y-79875500D01*
X163000500Y-78300167D01*
X163020185Y-78233128D01*
X163072989Y-78187373D01*
X163142147Y-78177429D01*
X163205703Y-78206454D01*
X163212181Y-78212486D01*
X163297267Y-78297572D01*
X163297271Y-78297575D01*
X163441507Y-78386542D01*
X163441518Y-78386547D01*
X163602393Y-78439855D01*
X163701683Y-78449999D01*
X163749999Y-78449998D01*
X163750000Y-78449998D01*
X163750000Y-77750000D01*
X164250000Y-77750000D01*
X164250000Y-78449999D01*
X164298308Y-78449999D01*
X164298322Y-78449998D01*
X164397607Y-78439855D01*
X164558481Y-78386547D01*
X164558492Y-78386542D01*
X164702728Y-78297575D01*
X164702732Y-78297572D01*
X164822572Y-78177732D01*
X164822575Y-78177728D01*
X164911542Y-78033492D01*
X164911547Y-78033481D01*
X164964855Y-77872606D01*
X164974999Y-77773322D01*
X164975000Y-77773309D01*
X164975000Y-77750000D01*
X164250000Y-77750000D01*
X163750000Y-77750000D01*
X163750000Y-77374000D01*
X163769685Y-77306961D01*
X163822489Y-77261206D01*
X163874000Y-77250000D01*
X164974999Y-77250000D01*
X164974999Y-77226692D01*
X164974998Y-77226677D01*
X164964855Y-77127392D01*
X164911545Y-76966512D01*
X164902136Y-76951258D01*
X164883695Y-76883866D01*
X164904617Y-76817202D01*
X164919983Y-76798490D01*
X165387322Y-76331151D01*
X165448641Y-76297669D01*
X165518333Y-76302653D01*
X165562680Y-76331154D01*
X167166508Y-77934982D01*
X167196758Y-77984344D01*
X167248444Y-78143416D01*
X167344951Y-78332820D01*
X167469890Y-78504786D01*
X167620213Y-78655109D01*
X167792179Y-78780048D01*
X167792181Y-78780049D01*
X167792184Y-78780051D01*
X167981588Y-78876557D01*
X168183757Y-78942246D01*
X168393713Y-78975500D01*
X168393714Y-78975500D01*
X168606286Y-78975500D01*
X168606287Y-78975500D01*
X168816243Y-78942246D01*
X169018412Y-78876557D01*
X169207816Y-78780051D01*
X169229789Y-78764086D01*
X169379786Y-78655109D01*
X169379788Y-78655106D01*
X169379792Y-78655104D01*
X169530104Y-78504792D01*
X169649683Y-78340204D01*
X169705011Y-78297540D01*
X169774624Y-78291561D01*
X169836420Y-78324166D01*
X169850313Y-78340199D01*
X169883987Y-78386547D01*
X169969896Y-78504792D01*
X170120213Y-78655109D01*
X170292179Y-78780048D01*
X170292181Y-78780049D01*
X170292184Y-78780051D01*
X170481588Y-78876557D01*
X170683757Y-78942246D01*
X170893713Y-78975500D01*
X170893714Y-78975500D01*
X171106286Y-78975500D01*
X171106287Y-78975500D01*
X171316243Y-78942246D01*
X171518412Y-78876557D01*
X171707816Y-78780051D01*
X171729789Y-78764086D01*
X171879786Y-78655109D01*
X171879788Y-78655106D01*
X171879792Y-78655104D01*
X172030104Y-78504792D01*
X172149683Y-78340204D01*
X172205011Y-78297540D01*
X172274624Y-78291561D01*
X172336420Y-78324166D01*
X172350313Y-78340199D01*
X172383987Y-78386547D01*
X172469896Y-78504792D01*
X172620213Y-78655109D01*
X172792179Y-78780048D01*
X172792181Y-78780049D01*
X172792184Y-78780051D01*
X172981588Y-78876557D01*
X173183757Y-78942246D01*
X173393713Y-78975500D01*
X173393714Y-78975500D01*
X173606286Y-78975500D01*
X173606287Y-78975500D01*
X173816243Y-78942246D01*
X174018412Y-78876557D01*
X174207816Y-78780051D01*
X174229789Y-78764086D01*
X174379786Y-78655109D01*
X174379788Y-78655106D01*
X174379792Y-78655104D01*
X174530104Y-78504792D01*
X174649683Y-78340204D01*
X174705011Y-78297540D01*
X174774624Y-78291561D01*
X174836420Y-78324166D01*
X174850313Y-78340199D01*
X174883987Y-78386547D01*
X174969896Y-78504792D01*
X175120213Y-78655109D01*
X175292179Y-78780048D01*
X175292181Y-78780049D01*
X175292184Y-78780051D01*
X175481588Y-78876557D01*
X175683757Y-78942246D01*
X175893713Y-78975500D01*
X175893714Y-78975500D01*
X176106286Y-78975500D01*
X176106287Y-78975500D01*
X176316243Y-78942246D01*
X176518412Y-78876557D01*
X176707816Y-78780051D01*
X176729789Y-78764086D01*
X176879786Y-78655109D01*
X176879788Y-78655106D01*
X176879792Y-78655104D01*
X177030104Y-78504792D01*
X177149683Y-78340204D01*
X177205011Y-78297540D01*
X177274624Y-78291561D01*
X177336420Y-78324166D01*
X177350313Y-78340199D01*
X177383987Y-78386547D01*
X177469896Y-78504792D01*
X177620213Y-78655109D01*
X177792179Y-78780048D01*
X177792181Y-78780049D01*
X177792184Y-78780051D01*
X177981588Y-78876557D01*
X178183757Y-78942246D01*
X178393713Y-78975500D01*
X178393714Y-78975500D01*
X178606286Y-78975500D01*
X178606287Y-78975500D01*
X178816243Y-78942246D01*
X179018412Y-78876557D01*
X179207816Y-78780051D01*
X179265141Y-78738402D01*
X179379784Y-78655110D01*
X179379784Y-78655109D01*
X179379792Y-78655104D01*
X179518967Y-78515928D01*
X179580286Y-78482446D01*
X179649978Y-78487430D01*
X179705912Y-78529301D01*
X179712184Y-78538515D01*
X179807684Y-78693345D01*
X179931654Y-78817315D01*
X180080875Y-78909356D01*
X180080880Y-78909358D01*
X180247302Y-78964505D01*
X180247309Y-78964506D01*
X180350019Y-78974999D01*
X180749999Y-78974999D01*
X180750000Y-78974998D01*
X180750000Y-77904145D01*
X180816657Y-77942630D01*
X180937465Y-77975000D01*
X181062535Y-77975000D01*
X181183343Y-77942630D01*
X181250000Y-77904145D01*
X181250000Y-78974999D01*
X181649972Y-78974999D01*
X181649986Y-78974998D01*
X181752697Y-78964505D01*
X181919119Y-78909358D01*
X181919124Y-78909356D01*
X182068345Y-78817315D01*
X182192315Y-78693345D01*
X182284356Y-78544124D01*
X182284358Y-78544119D01*
X182339505Y-78377697D01*
X182339506Y-78377690D01*
X182349999Y-78274986D01*
X182350000Y-78274973D01*
X182350000Y-77750000D01*
X181404146Y-77750000D01*
X181442630Y-77683343D01*
X181475000Y-77562535D01*
X181475000Y-77437465D01*
X181442630Y-77316657D01*
X181404146Y-77250000D01*
X182349999Y-77250000D01*
X182349999Y-76725028D01*
X182349998Y-76725013D01*
X182339505Y-76622302D01*
X182284358Y-76455880D01*
X182284356Y-76455875D01*
X182192315Y-76306654D01*
X182068345Y-76182684D01*
X181919124Y-76090643D01*
X181919119Y-76090641D01*
X181752697Y-76035494D01*
X181752690Y-76035493D01*
X181649986Y-76025000D01*
X181250000Y-76025000D01*
X181250000Y-77095854D01*
X181183343Y-77057370D01*
X181062535Y-77025000D01*
X180937465Y-77025000D01*
X180816657Y-77057370D01*
X180750000Y-77095854D01*
X180750000Y-76025000D01*
X180350028Y-76025000D01*
X180350012Y-76025001D01*
X180247302Y-76035494D01*
X180080880Y-76090641D01*
X180080875Y-76090643D01*
X179931654Y-76182684D01*
X179807683Y-76306655D01*
X179807680Y-76306659D01*
X179712183Y-76461484D01*
X179660235Y-76508209D01*
X179591273Y-76519430D01*
X179527191Y-76491587D01*
X179518964Y-76484068D01*
X179379786Y-76344890D01*
X179207820Y-76219951D01*
X179018414Y-76123444D01*
X179018413Y-76123443D01*
X179018412Y-76123443D01*
X178816243Y-76057754D01*
X178816241Y-76057753D01*
X178816240Y-76057753D01*
X178654957Y-76032208D01*
X178606287Y-76024500D01*
X178393713Y-76024500D01*
X178345042Y-76032208D01*
X178183760Y-76057753D01*
X177981585Y-76123444D01*
X177792179Y-76219951D01*
X177620213Y-76344890D01*
X177469894Y-76495209D01*
X177469890Y-76495214D01*
X177350318Y-76659793D01*
X177294989Y-76702459D01*
X177225375Y-76708438D01*
X177163580Y-76675833D01*
X177149682Y-76659793D01*
X177030109Y-76495214D01*
X177030105Y-76495209D01*
X176879786Y-76344890D01*
X176707820Y-76219951D01*
X176518414Y-76123444D01*
X176518413Y-76123443D01*
X176518412Y-76123443D01*
X176316243Y-76057754D01*
X176316241Y-76057753D01*
X176316240Y-76057753D01*
X176154957Y-76032208D01*
X176106287Y-76024500D01*
X175893713Y-76024500D01*
X175845042Y-76032208D01*
X175683760Y-76057753D01*
X175481585Y-76123444D01*
X175292179Y-76219951D01*
X175120213Y-76344890D01*
X174969894Y-76495209D01*
X174969890Y-76495214D01*
X174850318Y-76659793D01*
X174794989Y-76702459D01*
X174725375Y-76708438D01*
X174663580Y-76675833D01*
X174649682Y-76659793D01*
X174530109Y-76495214D01*
X174530105Y-76495209D01*
X174379786Y-76344890D01*
X174207820Y-76219951D01*
X174018414Y-76123444D01*
X174018413Y-76123443D01*
X174018412Y-76123443D01*
X173816243Y-76057754D01*
X173816241Y-76057753D01*
X173816240Y-76057753D01*
X173654957Y-76032208D01*
X173606287Y-76024500D01*
X173393713Y-76024500D01*
X173345042Y-76032208D01*
X173183760Y-76057753D01*
X172981585Y-76123444D01*
X172792179Y-76219951D01*
X172620213Y-76344890D01*
X172469894Y-76495209D01*
X172469890Y-76495214D01*
X172350318Y-76659793D01*
X172294989Y-76702459D01*
X172225375Y-76708438D01*
X172163580Y-76675833D01*
X172149682Y-76659793D01*
X172030109Y-76495214D01*
X172030105Y-76495209D01*
X171879786Y-76344890D01*
X171707820Y-76219951D01*
X171518414Y-76123444D01*
X171518413Y-76123443D01*
X171518412Y-76123443D01*
X171316243Y-76057754D01*
X171316241Y-76057753D01*
X171316240Y-76057753D01*
X171154957Y-76032208D01*
X171106287Y-76024500D01*
X170893713Y-76024500D01*
X170845042Y-76032208D01*
X170683760Y-76057753D01*
X170481585Y-76123444D01*
X170292179Y-76219951D01*
X170120213Y-76344890D01*
X169969894Y-76495209D01*
X169969890Y-76495214D01*
X169850318Y-76659793D01*
X169794989Y-76702459D01*
X169725375Y-76708438D01*
X169663580Y-76675833D01*
X169649682Y-76659793D01*
X169530109Y-76495214D01*
X169530105Y-76495209D01*
X169379786Y-76344890D01*
X169207820Y-76219951D01*
X169018416Y-76123444D01*
X168859344Y-76071758D01*
X168809982Y-76041508D01*
X166786819Y-74018345D01*
X166753334Y-73957022D01*
X166750500Y-73930664D01*
X166750500Y-73049000D01*
X166770185Y-72981961D01*
X166822989Y-72936206D01*
X166874500Y-72925000D01*
X167700000Y-72925000D01*
X167700000Y-71950000D01*
X168200000Y-71950000D01*
X168200000Y-72925000D01*
X169047828Y-72925000D01*
X169047844Y-72924999D01*
X169107372Y-72918598D01*
X169107379Y-72918596D01*
X169242086Y-72868354D01*
X169242093Y-72868350D01*
X169357187Y-72782190D01*
X169357190Y-72782187D01*
X169443350Y-72667093D01*
X169443354Y-72667086D01*
X169493596Y-72532379D01*
X169493598Y-72532372D01*
X169499999Y-72472844D01*
X169500000Y-72472827D01*
X169500000Y-71950000D01*
X168200000Y-71950000D01*
X167700000Y-71950000D01*
X167700000Y-71574000D01*
X167719685Y-71506961D01*
X167772489Y-71461206D01*
X167824000Y-71450000D01*
X169500000Y-71450000D01*
X169500000Y-70927172D01*
X169499999Y-70927155D01*
X169493598Y-70867627D01*
X169493596Y-70867620D01*
X169443354Y-70732913D01*
X169443350Y-70732906D01*
X169357190Y-70617812D01*
X169357187Y-70617809D01*
X169239326Y-70529578D01*
X169197455Y-70473645D01*
X169192471Y-70403953D01*
X169225956Y-70342630D01*
X169239326Y-70331045D01*
X169242329Y-70328796D01*
X169242331Y-70328796D01*
X169357546Y-70242546D01*
X169443796Y-70127331D01*
X169494091Y-69992483D01*
X169500500Y-69932873D01*
X169500499Y-68387128D01*
X169494091Y-68327517D01*
X169491565Y-68320745D01*
X169443797Y-68192671D01*
X169443793Y-68192664D01*
X169357547Y-68077455D01*
X169354612Y-68075258D01*
X169247306Y-67994928D01*
X169239325Y-67988953D01*
X169197455Y-67933019D01*
X169192471Y-67863327D01*
X169225957Y-67802005D01*
X169239326Y-67790420D01*
X169357191Y-67702186D01*
X169443350Y-67587093D01*
X169443354Y-67587086D01*
X169493596Y-67452379D01*
X169493598Y-67452372D01*
X169499999Y-67392844D01*
X169500000Y-67392827D01*
X169500000Y-66870000D01*
X167824000Y-66870000D01*
X167756961Y-66850315D01*
X167711206Y-66797511D01*
X167700000Y-66746000D01*
X167700000Y-66494000D01*
X167719685Y-66426961D01*
X167772489Y-66381206D01*
X167824000Y-66370000D01*
X169500000Y-66370000D01*
X169500000Y-65847172D01*
X169499999Y-65847155D01*
X169493598Y-65787627D01*
X169493596Y-65787620D01*
X169443354Y-65652913D01*
X169443350Y-65652906D01*
X169357190Y-65537812D01*
X169357187Y-65537809D01*
X169239326Y-65449578D01*
X169197455Y-65393645D01*
X169192471Y-65323953D01*
X169225956Y-65262630D01*
X169239326Y-65251045D01*
X169242329Y-65248796D01*
X169242331Y-65248796D01*
X169357546Y-65162546D01*
X169443796Y-65047331D01*
X169494091Y-64912483D01*
X169500500Y-64852873D01*
X169500499Y-63307128D01*
X169494091Y-63247517D01*
X169443796Y-63112669D01*
X169443795Y-63112668D01*
X169443793Y-63112664D01*
X169357547Y-62997455D01*
X169239325Y-62908953D01*
X169197455Y-62853019D01*
X169192471Y-62783327D01*
X169225957Y-62722005D01*
X169239326Y-62710420D01*
X169357191Y-62622186D01*
X169443350Y-62507093D01*
X169443354Y-62507086D01*
X169493596Y-62372379D01*
X169493598Y-62372372D01*
X169499999Y-62312844D01*
X169500000Y-62312827D01*
X169500000Y-61790000D01*
X167824000Y-61790000D01*
X167756961Y-61770315D01*
X167711206Y-61717511D01*
X167700000Y-61666000D01*
X167700000Y-61414000D01*
X167719685Y-61346961D01*
X167772489Y-61301206D01*
X167824000Y-61290000D01*
X169500000Y-61290000D01*
X169500000Y-60767172D01*
X169499999Y-60767155D01*
X169493598Y-60707627D01*
X169493596Y-60707620D01*
X169443354Y-60572913D01*
X169443350Y-60572906D01*
X169357190Y-60457812D01*
X169357187Y-60457809D01*
X169239326Y-60369578D01*
X169197455Y-60313645D01*
X169192471Y-60243953D01*
X169225956Y-60182630D01*
X169239326Y-60171045D01*
X169242329Y-60168796D01*
X169242331Y-60168796D01*
X169357546Y-60082546D01*
X169443796Y-59967331D01*
X169494091Y-59832483D01*
X169500500Y-59772873D01*
X169500499Y-58227128D01*
X169494091Y-58167517D01*
X169466308Y-58093028D01*
X169443797Y-58032671D01*
X169443793Y-58032664D01*
X169357547Y-57917455D01*
X169239325Y-57828953D01*
X169197455Y-57773019D01*
X169192471Y-57703327D01*
X169225957Y-57642005D01*
X169239326Y-57630420D01*
X169357191Y-57542186D01*
X169443350Y-57427093D01*
X169443354Y-57427086D01*
X169493596Y-57292379D01*
X169493598Y-57292372D01*
X169499999Y-57232844D01*
X169500000Y-57232827D01*
X169500000Y-56710000D01*
X167824000Y-56710000D01*
X167756961Y-56690315D01*
X167711206Y-56637511D01*
X167700000Y-56586000D01*
X167700000Y-56334000D01*
X167719685Y-56266961D01*
X167772489Y-56221206D01*
X167824000Y-56210000D01*
X169500000Y-56210000D01*
X169500000Y-55687172D01*
X169499999Y-55687155D01*
X169493598Y-55627627D01*
X169493596Y-55627620D01*
X169443354Y-55492913D01*
X169443350Y-55492906D01*
X169357190Y-55377812D01*
X169357187Y-55377809D01*
X169239326Y-55289578D01*
X169197455Y-55233645D01*
X169192471Y-55163953D01*
X169225956Y-55102630D01*
X169239326Y-55091045D01*
X169242329Y-55088796D01*
X169242331Y-55088796D01*
X169357546Y-55002546D01*
X169443796Y-54887331D01*
X169494091Y-54752483D01*
X169500500Y-54692873D01*
X169500499Y-53147128D01*
X169494091Y-53087517D01*
X169461449Y-53000000D01*
X169443797Y-52952671D01*
X169443793Y-52952664D01*
X169357547Y-52837455D01*
X169357544Y-52837452D01*
X169242335Y-52751206D01*
X169242326Y-52751201D01*
X169212781Y-52740182D01*
X169156847Y-52698311D01*
X169132429Y-52632847D01*
X169147280Y-52564574D01*
X169196685Y-52515168D01*
X169256113Y-52500000D01*
X170876000Y-52500000D01*
X170943039Y-52519685D01*
G37*
%TD.AperFunction*%
%TD*%
%TA.AperFunction,Conductor*%
%TO.N,GND*%
G36*
X183442539Y-43519685D02*
G01*
X183488294Y-43572489D01*
X183499500Y-43624000D01*
X183499500Y-72876000D01*
X183479815Y-72943039D01*
X183427011Y-72988794D01*
X183375500Y-73000000D01*
X178538740Y-73000000D01*
X178471701Y-72980315D01*
X178425946Y-72927511D01*
X178416002Y-72858353D01*
X178445027Y-72794797D01*
X178451059Y-72788319D01*
X178457190Y-72782187D01*
X178543350Y-72667093D01*
X178543354Y-72667086D01*
X178593596Y-72532379D01*
X178593598Y-72532372D01*
X178599999Y-72472844D01*
X178600000Y-72472827D01*
X178600000Y-71950000D01*
X175500000Y-71950000D01*
X175500000Y-72472844D01*
X175506401Y-72532372D01*
X175506403Y-72532379D01*
X175556645Y-72667086D01*
X175556649Y-72667093D01*
X175642809Y-72782187D01*
X175648941Y-72788319D01*
X175682426Y-72849642D01*
X175677442Y-72919334D01*
X175635570Y-72975267D01*
X175570106Y-72999684D01*
X175561260Y-73000000D01*
X175051362Y-73000000D01*
X174984323Y-72980315D01*
X174963681Y-72963681D01*
X172536319Y-70536319D01*
X172502834Y-70474996D01*
X172500000Y-70448638D01*
X172500000Y-52500000D01*
X172000000Y-52000000D01*
X168208500Y-52000000D01*
X168141461Y-51980315D01*
X168095706Y-51927511D01*
X168085762Y-51858353D01*
X168114787Y-51794797D01*
X168156095Y-51763618D01*
X168177578Y-51753600D01*
X168371082Y-51618105D01*
X168538105Y-51451082D01*
X168673600Y-51257578D01*
X168773429Y-51043492D01*
X168773432Y-51043486D01*
X168830636Y-50830000D01*
X167933012Y-50830000D01*
X167965925Y-50772993D01*
X168000000Y-50645826D01*
X168000000Y-50514174D01*
X167965925Y-50387007D01*
X167933012Y-50330000D01*
X168830636Y-50330000D01*
X168830635Y-50329999D01*
X168822597Y-50300000D01*
X169525001Y-50300000D01*
X169525001Y-50323322D01*
X169535144Y-50422607D01*
X169588452Y-50583481D01*
X169588457Y-50583492D01*
X169677424Y-50727728D01*
X169677427Y-50727732D01*
X169797267Y-50847572D01*
X169797271Y-50847575D01*
X169941507Y-50936542D01*
X169941518Y-50936547D01*
X170102393Y-50989855D01*
X170201683Y-50999999D01*
X170249999Y-50999998D01*
X170250000Y-50999998D01*
X170250000Y-50300000D01*
X170750000Y-50300000D01*
X170750000Y-50999999D01*
X170798308Y-50999999D01*
X170798322Y-50999998D01*
X170897607Y-50989855D01*
X171058481Y-50936547D01*
X171058492Y-50936542D01*
X171202728Y-50847575D01*
X171202732Y-50847572D01*
X171322572Y-50727732D01*
X171322575Y-50727728D01*
X171411542Y-50583492D01*
X171411547Y-50583481D01*
X171464855Y-50422606D01*
X171474999Y-50323322D01*
X171475000Y-50323309D01*
X171475000Y-50300000D01*
X170750000Y-50300000D01*
X170250000Y-50300000D01*
X169525001Y-50300000D01*
X168822597Y-50300000D01*
X168773432Y-50116513D01*
X168773429Y-50116507D01*
X168673600Y-49902422D01*
X168673599Y-49902420D01*
X168538113Y-49708926D01*
X168538108Y-49708920D01*
X168371078Y-49541890D01*
X168185405Y-49411879D01*
X168141780Y-49357302D01*
X168134588Y-49287804D01*
X168166110Y-49225449D01*
X168185406Y-49208730D01*
X168341541Y-49099403D01*
X168371401Y-49078495D01*
X168373077Y-49076819D01*
X168373995Y-49076317D01*
X168375544Y-49075018D01*
X168375805Y-49075329D01*
X168434400Y-49043334D01*
X168460758Y-49040500D01*
X169522987Y-49040500D01*
X169590026Y-49060185D01*
X169628525Y-49099403D01*
X169677029Y-49178040D01*
X169677032Y-49178044D01*
X169686660Y-49187672D01*
X169720145Y-49248995D01*
X169715161Y-49318687D01*
X169686663Y-49363031D01*
X169677428Y-49372265D01*
X169677424Y-49372271D01*
X169588457Y-49516507D01*
X169588452Y-49516518D01*
X169535144Y-49677393D01*
X169525000Y-49776677D01*
X169525000Y-49800000D01*
X171474999Y-49800000D01*
X171474999Y-49776692D01*
X171474998Y-49776677D01*
X171464855Y-49677393D01*
X171460253Y-49663502D01*
X171457853Y-49593673D01*
X171493586Y-49533632D01*
X171556107Y-49502441D01*
X171577960Y-49500500D01*
X174534218Y-49500500D01*
X174601257Y-49520185D01*
X174621899Y-49536819D01*
X177567899Y-52482819D01*
X177601384Y-52544142D01*
X177596400Y-52613834D01*
X177554528Y-52669767D01*
X177489064Y-52694184D01*
X177480218Y-52694500D01*
X175952129Y-52694500D01*
X175952123Y-52694501D01*
X175892516Y-52700908D01*
X175757671Y-52751202D01*
X175757664Y-52751206D01*
X175642455Y-52837452D01*
X175642452Y-52837455D01*
X175556206Y-52952664D01*
X175556202Y-52952671D01*
X175505908Y-53087517D01*
X175499501Y-53147116D01*
X175499500Y-53147135D01*
X175499500Y-54569901D01*
X175479815Y-54636940D01*
X175463181Y-54657582D01*
X174131286Y-55989478D01*
X174019481Y-56101282D01*
X174019477Y-56101287D01*
X173981439Y-56167173D01*
X173981439Y-56167174D01*
X173940423Y-56238214D01*
X173940423Y-56238215D01*
X173899499Y-56390943D01*
X173899499Y-56390945D01*
X173899499Y-56559046D01*
X173899500Y-56559059D01*
X173899500Y-61278330D01*
X173899499Y-61278348D01*
X173899499Y-61444054D01*
X173899498Y-61444054D01*
X173940424Y-61596789D01*
X173940425Y-61596790D01*
X173958922Y-61628827D01*
X173958923Y-61628828D01*
X173992764Y-61687443D01*
X174019481Y-61733717D01*
X174138349Y-61852585D01*
X174138355Y-61852590D01*
X174489162Y-62203397D01*
X174522647Y-62264720D01*
X174517663Y-62334412D01*
X174489163Y-62378759D01*
X174370183Y-62497739D01*
X174274211Y-62650476D01*
X174214631Y-62820745D01*
X174214630Y-62820750D01*
X174194435Y-62999996D01*
X174194435Y-63000003D01*
X174214630Y-63179249D01*
X174214631Y-63179254D01*
X174274211Y-63349523D01*
X174370185Y-63502263D01*
X174372445Y-63505097D01*
X174373334Y-63507275D01*
X174373889Y-63508158D01*
X174373734Y-63508255D01*
X174398855Y-63569783D01*
X174399500Y-63582412D01*
X174399500Y-67023330D01*
X174399499Y-67023348D01*
X174399499Y-67189054D01*
X174399498Y-67189054D01*
X174440424Y-67341787D01*
X174457100Y-67370670D01*
X174457101Y-67370672D01*
X174519477Y-67478712D01*
X174519481Y-67478717D01*
X174638349Y-67597585D01*
X174638355Y-67597590D01*
X175463181Y-68422416D01*
X175496666Y-68483739D01*
X175499500Y-68510097D01*
X175499500Y-69932870D01*
X175499501Y-69932876D01*
X175505908Y-69992483D01*
X175556202Y-70127328D01*
X175556206Y-70127335D01*
X175642452Y-70242544D01*
X175642453Y-70242544D01*
X175642454Y-70242546D01*
X175672696Y-70265185D01*
X175760674Y-70331046D01*
X175802544Y-70386980D01*
X175807528Y-70456671D01*
X175774042Y-70517994D01*
X175760674Y-70529578D01*
X175642809Y-70617812D01*
X175556649Y-70732906D01*
X175556645Y-70732913D01*
X175506403Y-70867620D01*
X175506401Y-70867627D01*
X175500000Y-70927155D01*
X175500000Y-71450000D01*
X178600000Y-71450000D01*
X178600000Y-70927172D01*
X178599999Y-70927155D01*
X178593598Y-70867627D01*
X178593596Y-70867620D01*
X178543354Y-70732913D01*
X178543350Y-70732906D01*
X178457190Y-70617812D01*
X178457187Y-70617809D01*
X178339326Y-70529578D01*
X178297455Y-70473645D01*
X178292471Y-70403953D01*
X178325956Y-70342630D01*
X178339326Y-70331045D01*
X178342329Y-70328796D01*
X178342331Y-70328796D01*
X178457546Y-70242546D01*
X178543796Y-70127331D01*
X178594091Y-69992483D01*
X178600500Y-69932873D01*
X178600499Y-69503472D01*
X178620183Y-69436436D01*
X178672987Y-69390681D01*
X178742146Y-69380737D01*
X178805702Y-69409762D01*
X178829492Y-69437502D01*
X178870182Y-69502260D01*
X178870184Y-69502262D01*
X178997738Y-69629816D01*
X179150478Y-69725789D01*
X179249305Y-69760370D01*
X179320745Y-69785368D01*
X179320750Y-69785369D01*
X179499996Y-69805565D01*
X179500000Y-69805565D01*
X179500004Y-69805565D01*
X179679249Y-69785369D01*
X179679252Y-69785368D01*
X179679255Y-69785368D01*
X179849522Y-69725789D01*
X180002262Y-69629816D01*
X180129816Y-69502262D01*
X180225789Y-69349522D01*
X180225792Y-69349510D01*
X180228810Y-69343248D01*
X180230650Y-69344134D01*
X180253305Y-69308061D01*
X180297061Y-69264305D01*
X180358382Y-69230822D01*
X180428074Y-69235806D01*
X180484007Y-69277678D01*
X180508211Y-69340547D01*
X180510295Y-69363047D01*
X180510296Y-69363050D01*
X180568846Y-69568835D01*
X180568849Y-69568841D01*
X180664219Y-69760370D01*
X180793160Y-69931115D01*
X180951275Y-70075256D01*
X180968792Y-70086102D01*
X181015428Y-70138130D01*
X181020166Y-70166612D01*
X181603554Y-70750000D01*
X181597339Y-70750000D01*
X181495606Y-70777259D01*
X181404394Y-70829920D01*
X181329920Y-70904394D01*
X181277259Y-70995606D01*
X181250000Y-71097339D01*
X181250000Y-71103553D01*
X180673980Y-70527533D01*
X180664646Y-70539893D01*
X180569321Y-70731330D01*
X180569315Y-70731345D01*
X180510789Y-70937043D01*
X180510788Y-70937045D01*
X180491056Y-71149999D01*
X180491056Y-71150000D01*
X180510788Y-71362954D01*
X180510789Y-71362956D01*
X180569315Y-71568654D01*
X180569321Y-71568669D01*
X180664642Y-71760099D01*
X180664647Y-71760107D01*
X180673980Y-71772465D01*
X181250000Y-71196445D01*
X181250000Y-71202661D01*
X181277259Y-71304394D01*
X181329920Y-71395606D01*
X181404394Y-71470080D01*
X181495606Y-71522741D01*
X181597339Y-71550000D01*
X181603553Y-71550000D01*
X181030086Y-72123465D01*
X181133413Y-72187443D01*
X181133414Y-72187444D01*
X181332837Y-72264700D01*
X181543068Y-72304000D01*
X181756932Y-72304000D01*
X181967162Y-72264700D01*
X182166585Y-72187444D01*
X182166589Y-72187442D01*
X182269911Y-72123466D01*
X182269911Y-72123465D01*
X181696448Y-71550000D01*
X181702661Y-71550000D01*
X181804394Y-71522741D01*
X181895606Y-71470080D01*
X181970080Y-71395606D01*
X182022741Y-71304394D01*
X182050000Y-71202661D01*
X182050000Y-71196446D01*
X182626018Y-71772464D01*
X182626019Y-71772464D01*
X182635352Y-71760107D01*
X182635355Y-71760102D01*
X182730678Y-71568669D01*
X182730684Y-71568654D01*
X182789210Y-71362956D01*
X182789211Y-71362954D01*
X182808944Y-71150000D01*
X182808944Y-71149999D01*
X182789211Y-70937045D01*
X182789210Y-70937043D01*
X182730684Y-70731345D01*
X182730678Y-70731330D01*
X182635357Y-70539901D01*
X182635355Y-70539898D01*
X182626018Y-70527534D01*
X182050000Y-71103552D01*
X182050000Y-71097339D01*
X182022741Y-70995606D01*
X181970080Y-70904394D01*
X181895606Y-70829920D01*
X181804394Y-70777259D01*
X181702661Y-70750000D01*
X181696447Y-70750000D01*
X182280087Y-70166357D01*
X182285137Y-70136959D01*
X182331203Y-70086105D01*
X182348722Y-70075258D01*
X182506841Y-69931114D01*
X182635781Y-69760370D01*
X182731151Y-69568840D01*
X182731151Y-69568837D01*
X182731153Y-69568835D01*
X182768823Y-69436436D01*
X182789704Y-69363048D01*
X182809446Y-69150000D01*
X182789704Y-68936952D01*
X182764828Y-68849522D01*
X182731153Y-68731164D01*
X182731150Y-68731158D01*
X182635781Y-68539630D01*
X182506841Y-68368886D01*
X182367251Y-68241633D01*
X182330973Y-68181927D01*
X182332733Y-68112079D01*
X182367251Y-68058366D01*
X182506841Y-67931114D01*
X182635781Y-67760370D01*
X182731151Y-67568840D01*
X182731151Y-67568837D01*
X182731153Y-67568835D01*
X182781231Y-67392827D01*
X182789704Y-67363048D01*
X182809446Y-67150000D01*
X182801227Y-67061309D01*
X182789704Y-66936952D01*
X182789703Y-66936949D01*
X182731153Y-66731164D01*
X182731150Y-66731158D01*
X182635781Y-66539630D01*
X182537724Y-66409782D01*
X182513033Y-66344422D01*
X182527598Y-66276087D01*
X182562366Y-66235791D01*
X182661546Y-66161546D01*
X182747796Y-66046331D01*
X182798091Y-65911483D01*
X182804500Y-65851873D01*
X182804499Y-64448128D01*
X182798091Y-64388517D01*
X182747796Y-64253669D01*
X182747795Y-64253668D01*
X182747793Y-64253664D01*
X182661547Y-64138455D01*
X182661544Y-64138452D01*
X182546335Y-64052206D01*
X182546328Y-64052202D01*
X182411482Y-64001908D01*
X182411483Y-64001908D01*
X182351883Y-63995501D01*
X182351881Y-63995500D01*
X182351873Y-63995500D01*
X182351865Y-63995500D01*
X181039771Y-63995500D01*
X180972732Y-63975815D01*
X180926977Y-63923011D01*
X180925224Y-63918985D01*
X180915084Y-63894505D01*
X180841142Y-63783843D01*
X180832954Y-63771588D01*
X180832953Y-63771587D01*
X180832951Y-63771584D01*
X180728416Y-63667049D01*
X180642889Y-63581522D01*
X180536819Y-63475451D01*
X180503334Y-63414128D01*
X180500500Y-63387770D01*
X180500500Y-61393328D01*
X180520185Y-61326289D01*
X180572989Y-61280534D01*
X180633088Y-61269626D01*
X180673981Y-61272464D01*
X181250000Y-60696445D01*
X181250000Y-60702661D01*
X181277259Y-60804394D01*
X181329920Y-60895606D01*
X181404394Y-60970080D01*
X181495606Y-61022741D01*
X181597339Y-61050000D01*
X181603553Y-61050000D01*
X181030086Y-61623465D01*
X181133413Y-61687443D01*
X181133414Y-61687444D01*
X181332837Y-61764700D01*
X181543068Y-61804000D01*
X181756932Y-61804000D01*
X181967162Y-61764700D01*
X182166585Y-61687444D01*
X182166589Y-61687442D01*
X182269911Y-61623466D01*
X182269911Y-61623465D01*
X181696448Y-61050000D01*
X181702661Y-61050000D01*
X181804394Y-61022741D01*
X181895606Y-60970080D01*
X181970080Y-60895606D01*
X182022741Y-60804394D01*
X182050000Y-60702661D01*
X182050000Y-60696446D01*
X182626018Y-61272464D01*
X182626019Y-61272464D01*
X182635352Y-61260107D01*
X182635355Y-61260102D01*
X182730678Y-61068669D01*
X182730684Y-61068654D01*
X182789210Y-60862956D01*
X182789211Y-60862954D01*
X182808944Y-60650000D01*
X182808944Y-60649999D01*
X182789211Y-60437045D01*
X182789210Y-60437043D01*
X182730684Y-60231345D01*
X182730678Y-60231330D01*
X182635357Y-60039901D01*
X182635355Y-60039898D01*
X182626018Y-60027534D01*
X182050000Y-60603552D01*
X182050000Y-60597339D01*
X182022741Y-60495606D01*
X181970080Y-60404394D01*
X181895606Y-60329920D01*
X181804394Y-60277259D01*
X181702661Y-60250000D01*
X181696447Y-60250000D01*
X182280087Y-59666357D01*
X182285137Y-59636959D01*
X182331203Y-59586105D01*
X182348722Y-59575258D01*
X182506841Y-59431114D01*
X182635781Y-59260370D01*
X182731151Y-59068840D01*
X182731151Y-59068837D01*
X182731153Y-59068835D01*
X182789703Y-58863050D01*
X182789704Y-58863047D01*
X182809446Y-58650000D01*
X182809446Y-58649999D01*
X182789704Y-58436952D01*
X182789703Y-58436949D01*
X182731153Y-58231164D01*
X182731150Y-58231158D01*
X182690976Y-58150478D01*
X182635781Y-58039630D01*
X182506841Y-57868886D01*
X182367251Y-57741633D01*
X182330973Y-57681927D01*
X182332733Y-57612079D01*
X182367251Y-57558366D01*
X182506841Y-57431114D01*
X182635781Y-57260370D01*
X182731151Y-57068840D01*
X182731151Y-57068837D01*
X182731153Y-57068835D01*
X182764679Y-56951000D01*
X182789704Y-56863048D01*
X182809446Y-56650000D01*
X182789704Y-56436952D01*
X182776613Y-56390943D01*
X182731153Y-56231164D01*
X182731150Y-56231158D01*
X182690976Y-56150478D01*
X182635781Y-56039630D01*
X182537724Y-55909782D01*
X182513033Y-55844422D01*
X182527598Y-55776087D01*
X182562366Y-55735791D01*
X182661546Y-55661546D01*
X182747796Y-55546331D01*
X182798091Y-55411483D01*
X182804500Y-55351873D01*
X182804499Y-53948128D01*
X182798091Y-53888517D01*
X182747796Y-53753669D01*
X182747795Y-53753668D01*
X182747793Y-53753664D01*
X182661547Y-53638455D01*
X182661544Y-53638452D01*
X182546335Y-53552206D01*
X182546328Y-53552202D01*
X182411482Y-53501908D01*
X182411483Y-53501908D01*
X182351883Y-53495501D01*
X182351881Y-53495500D01*
X182351873Y-53495500D01*
X182351865Y-53495500D01*
X181039771Y-53495500D01*
X180972732Y-53475815D01*
X180926977Y-53423011D01*
X180925224Y-53418985D01*
X180915084Y-53394505D01*
X180832951Y-53271584D01*
X180728416Y-53167049D01*
X180535989Y-52974621D01*
X180502504Y-52913298D01*
X180501169Y-52904823D01*
X180487768Y-52837452D01*
X180462051Y-52708164D01*
X180386631Y-52526086D01*
X180386629Y-52526083D01*
X180386627Y-52526079D01*
X180277139Y-52362219D01*
X180277136Y-52362215D01*
X175781479Y-47866559D01*
X175781459Y-47866537D01*
X175637785Y-47722863D01*
X175637781Y-47722860D01*
X175473920Y-47613371D01*
X175473907Y-47613364D01*
X175344230Y-47559651D01*
X175344229Y-47559651D01*
X175291836Y-47537949D01*
X175291828Y-47537947D01*
X175195188Y-47518724D01*
X175098544Y-47499500D01*
X175098541Y-47499500D01*
X170965782Y-47499500D01*
X170898743Y-47479815D01*
X170878101Y-47463181D01*
X170821479Y-47406559D01*
X170821459Y-47406537D01*
X170677785Y-47262863D01*
X170677781Y-47262860D01*
X170513920Y-47153371D01*
X170513911Y-47153366D01*
X170441315Y-47123296D01*
X170385165Y-47100038D01*
X170331836Y-47077949D01*
X170331832Y-47077948D01*
X170331828Y-47077946D01*
X170235188Y-47058724D01*
X170138544Y-47039500D01*
X170138541Y-47039500D01*
X168620860Y-47039500D01*
X168553821Y-47019815D01*
X168508066Y-46967011D01*
X168498122Y-46897853D01*
X168527147Y-46834297D01*
X168577527Y-46799318D01*
X168592328Y-46793797D01*
X168592327Y-46793797D01*
X168592331Y-46793796D01*
X168707546Y-46707546D01*
X168793796Y-46592331D01*
X168844091Y-46457483D01*
X168850500Y-46397873D01*
X168850499Y-44602128D01*
X168844091Y-44542517D01*
X168842810Y-44539083D01*
X168793797Y-44407671D01*
X168793793Y-44407664D01*
X168707547Y-44292455D01*
X168707544Y-44292452D01*
X168592335Y-44206206D01*
X168592328Y-44206202D01*
X168457482Y-44155908D01*
X168457483Y-44155908D01*
X168397883Y-44149501D01*
X168397881Y-44149500D01*
X168397873Y-44149500D01*
X168397864Y-44149500D01*
X166602129Y-44149500D01*
X166602123Y-44149501D01*
X166542516Y-44155908D01*
X166407671Y-44206202D01*
X166407664Y-44206206D01*
X166292455Y-44292452D01*
X166292452Y-44292455D01*
X166206206Y-44407664D01*
X166206203Y-44407669D01*
X166157189Y-44539083D01*
X166115317Y-44595016D01*
X166049853Y-44619433D01*
X165981580Y-44604581D01*
X165953326Y-44583430D01*
X165831402Y-44461506D01*
X165831395Y-44461501D01*
X165637834Y-44325967D01*
X165637830Y-44325965D01*
X165637828Y-44325964D01*
X165423663Y-44226097D01*
X165423659Y-44226096D01*
X165423655Y-44226094D01*
X165195413Y-44164938D01*
X165195403Y-44164936D01*
X164960001Y-44144341D01*
X164959999Y-44144341D01*
X164724596Y-44164936D01*
X164724586Y-44164938D01*
X164496344Y-44226094D01*
X164496335Y-44226098D01*
X164282171Y-44325964D01*
X164282169Y-44325965D01*
X164088597Y-44461505D01*
X163921505Y-44628597D01*
X163785965Y-44822169D01*
X163785964Y-44822171D01*
X163686098Y-45036335D01*
X163686094Y-45036344D01*
X163624938Y-45264586D01*
X163624936Y-45264596D01*
X163604341Y-45499999D01*
X163604341Y-45500000D01*
X163624936Y-45735403D01*
X163624938Y-45735413D01*
X163686094Y-45963655D01*
X163686096Y-45963659D01*
X163686097Y-45963663D01*
X163770499Y-46144663D01*
X163785965Y-46177830D01*
X163785967Y-46177834D01*
X163921501Y-46371395D01*
X163921506Y-46371402D01*
X164088597Y-46538493D01*
X164088603Y-46538498D01*
X164274158Y-46668425D01*
X164317783Y-46723002D01*
X164324977Y-46792500D01*
X164293454Y-46854855D01*
X164274158Y-46871575D01*
X164088597Y-47001505D01*
X163921505Y-47168597D01*
X163785965Y-47362169D01*
X163785964Y-47362171D01*
X163686098Y-47576335D01*
X163686094Y-47576344D01*
X163624938Y-47804586D01*
X163624936Y-47804596D01*
X163604341Y-48039999D01*
X163604341Y-48040000D01*
X163624936Y-48275403D01*
X163624938Y-48275413D01*
X163686094Y-48503655D01*
X163686096Y-48503659D01*
X163686097Y-48503663D01*
X163690000Y-48512032D01*
X163785965Y-48717830D01*
X163785967Y-48717834D01*
X163894281Y-48872521D01*
X163921501Y-48911396D01*
X163921506Y-48911402D01*
X164088597Y-49078493D01*
X164088603Y-49078498D01*
X164274158Y-49208425D01*
X164317783Y-49263002D01*
X164324977Y-49332500D01*
X164293454Y-49394855D01*
X164274158Y-49411575D01*
X164088597Y-49541505D01*
X163921505Y-49708597D01*
X163785965Y-49902169D01*
X163785964Y-49902171D01*
X163686098Y-50116335D01*
X163686094Y-50116344D01*
X163624938Y-50344586D01*
X163624936Y-50344596D01*
X163604341Y-50579999D01*
X163604341Y-50580000D01*
X163624936Y-50815403D01*
X163624938Y-50815413D01*
X163686094Y-51043655D01*
X163686096Y-51043659D01*
X163686097Y-51043663D01*
X163769155Y-51221781D01*
X163785965Y-51257830D01*
X163785967Y-51257834D01*
X163894281Y-51412521D01*
X163921505Y-51451401D01*
X164088599Y-51618495D01*
X164185384Y-51686265D01*
X164282165Y-51754032D01*
X164282166Y-51754032D01*
X164282170Y-51754035D01*
X164302721Y-51763618D01*
X164355160Y-51809791D01*
X164374312Y-51876985D01*
X164354096Y-51943866D01*
X164300930Y-51989200D01*
X164250316Y-52000000D01*
X163124500Y-52000000D01*
X163057461Y-51980315D01*
X163011706Y-51927511D01*
X163000500Y-51876000D01*
X163000500Y-43624000D01*
X163020185Y-43556961D01*
X163072989Y-43511206D01*
X163124500Y-43500000D01*
X183375500Y-43500000D01*
X183442539Y-43519685D01*
G37*
%TD.AperFunction*%
%TA.AperFunction,Conductor*%
G36*
X179389383Y-65793101D02*
G01*
X179453795Y-65820166D01*
X179493352Y-65877759D01*
X179499500Y-65916321D01*
X179499500Y-67887769D01*
X179479815Y-67954808D01*
X179463181Y-67975450D01*
X179191937Y-68246693D01*
X179155873Y-68269370D01*
X179156750Y-68271191D01*
X179150475Y-68274212D01*
X178997737Y-68370184D01*
X178870182Y-68497739D01*
X178829492Y-68562498D01*
X178777158Y-68608788D01*
X178708104Y-68619436D01*
X178644256Y-68591061D01*
X178605884Y-68532671D01*
X178600499Y-68496525D01*
X178600499Y-68387129D01*
X178600498Y-68387123D01*
X178598677Y-68370184D01*
X178594091Y-68327517D01*
X178591565Y-68320745D01*
X178543797Y-68192671D01*
X178543793Y-68192664D01*
X178457547Y-68077455D01*
X178454612Y-68075258D01*
X178395028Y-68030653D01*
X178339325Y-67988953D01*
X178297455Y-67933019D01*
X178292471Y-67863327D01*
X178325957Y-67802005D01*
X178339326Y-67790420D01*
X178457191Y-67702186D01*
X178543350Y-67587093D01*
X178543354Y-67587086D01*
X178593596Y-67452379D01*
X178593598Y-67452372D01*
X178599999Y-67392844D01*
X178600000Y-67392827D01*
X178600000Y-66870000D01*
X176924000Y-66870000D01*
X176856961Y-66850315D01*
X176811206Y-66797511D01*
X176800000Y-66746000D01*
X176800000Y-66494000D01*
X176819685Y-66426961D01*
X176872489Y-66381206D01*
X176924000Y-66370000D01*
X178600000Y-66370000D01*
X178612921Y-66357078D01*
X178619685Y-66334044D01*
X178672489Y-66288289D01*
X178683037Y-66284044D01*
X178849522Y-66225789D01*
X179002262Y-66129816D01*
X179129816Y-66002262D01*
X179225789Y-65849522D01*
X179225789Y-65849519D01*
X179228259Y-65845590D01*
X179280594Y-65799299D01*
X179347132Y-65788341D01*
X179389383Y-65793101D01*
G37*
%TD.AperFunction*%
%TA.AperFunction,Conductor*%
G36*
X180705703Y-59319823D02*
G01*
X180723454Y-59338810D01*
X180793157Y-59431112D01*
X180793159Y-59431115D01*
X180951275Y-59575256D01*
X180968792Y-59586102D01*
X181015428Y-59638130D01*
X181020166Y-59666612D01*
X181603554Y-60250000D01*
X181597339Y-60250000D01*
X181495606Y-60277259D01*
X181404394Y-60329920D01*
X181329920Y-60404394D01*
X181277259Y-60495606D01*
X181250000Y-60597339D01*
X181250000Y-60603553D01*
X180673980Y-60027533D01*
X180633088Y-60030372D01*
X180564846Y-60015378D01*
X180515544Y-59965870D01*
X180500500Y-59906670D01*
X180500500Y-59413536D01*
X180520185Y-59346497D01*
X180572989Y-59300742D01*
X180642147Y-59290798D01*
X180705703Y-59319823D01*
G37*
%TD.AperFunction*%
%TD*%
M02*
