M48
; DRILL file {KiCad 8.0.1} date 2024-08-07T00:37:32+0900
; FORMAT={-:-/ absolute / metric / decimal}
; #@! TF.CreationDate,2024-08-07T00:37:32+09:00
; #@! TF.GenerationSoftware,Kicad,Pcbnew,8.0.1
; #@! TF.FileFunction,MixedPlating,1,2
FMAT,2
METRIC
; #@! TA.AperFunction,Plated,PTH,ViaDrill
T1C0.300
; #@! TA.AperFunction,Plated,PTH,ComponentDrill
T2C0.800
; #@! TA.AperFunction,Plated,PTH,ComponentDrill
T3C0.950
; #@! TA.AperFunction,Plated,PTH,ComponentDrill
T4C1.000
; #@! TA.AperFunction,NonPlated,NPTH,ComponentDrill
T5C4.300
%
G90
G05
T1
X163.85Y-70.5
X164.0Y-54.5
X164.0Y-60.5
X164.0Y-64.5
X164.0Y-77.5
X164.0Y-79.0
X164.125Y-56.5
X164.125Y-58.5
X164.425Y-66.5
X164.425Y-68.5
X165.5Y-70.5
X165.5Y-78.0
X165.65Y-60.5
X166.0Y-59.0
X166.0Y-69.0
X168.0Y-54.0
X168.0Y-56.5
X168.0Y-59.0
X168.0Y-61.5
X168.0Y-64.0
X168.0Y-66.5
X168.0Y-69.0
X168.0Y-71.5
X169.5Y-50.5
X169.5Y-76.0
X170.5Y-45.0
X172.0Y-50.5
X173.0Y-60.5
X173.5Y-69.0
X174.0Y-53.0
X174.5Y-71.0
X175.0Y-63.0
X175.1Y-61.0
X176.5Y-46.0
X177.0Y-56.5
X177.0Y-61.5
X177.0Y-66.5
X177.0Y-71.5
X178.5Y-57.5
X178.5Y-65.5
X179.5Y-53.0
X179.5Y-56.5
X179.5Y-58.5
X179.5Y-63.5
X179.5Y-65.0
X179.5Y-69.0
X179.5Y-71.0
X180.5Y-59.5
X180.5Y-61.5
X180.5Y-70.0
X180.5Y-72.5
X181.0Y-75.5
X181.0Y-79.5
X182.0Y-51.5
X182.5Y-46.0
X182.5Y-62.0
X183.0Y-59.5
X183.0Y-70.0
X183.0Y-72.5
X183.0Y-77.5
T2
X181.65Y-54.65
X181.65Y-56.65
X181.65Y-58.65
X181.65Y-60.65
X181.65Y-65.15
X181.65Y-67.15
X181.65Y-69.15
X181.65Y-71.15
T3
X168.5Y-77.5
X171.0Y-77.5
X173.5Y-77.5
X176.0Y-77.5
X178.5Y-77.5
X181.0Y-77.5
T4
X164.96Y-45.5
X164.96Y-48.04
X164.96Y-50.58
X167.5Y-45.5
X167.5Y-48.04
X167.5Y-50.58
T5
X178.25Y-36.0
M30
