%TF.GenerationSoftware,KiCad,Pcbnew,8.0.1*%
%TF.CreationDate,2024-08-07T00:37:21+09:00*%
%TF.ProjectId,insulation_board,696e7375-6c61-4746-996f-6e5f626f6172,rev?*%
%TF.SameCoordinates,Original*%
%TF.FileFunction,Paste,Top*%
%TF.FilePolarity,Positive*%
%FSLAX46Y46*%
G04 Gerber Fmt 4.6, Leading zero omitted, Abs format (unit mm)*
G04 Created by KiCad (PCBNEW 8.0.1) date 2024-08-07 00:37:21*
%MOMM*%
%LPD*%
G01*
G04 APERTURE LIST*
G04 Aperture macros list*
%AMRoundRect*
0 Rectangle with rounded corners*
0 $1 Rounding radius*
0 $2 $3 $4 $5 $6 $7 $8 $9 X,Y pos of 4 corners*
0 Add a 4 corners polygon primitive as box body*
4,1,4,$2,$3,$4,$5,$6,$7,$8,$9,$2,$3,0*
0 Add four circle primitives for the rounded corners*
1,1,$1+$1,$2,$3*
1,1,$1+$1,$4,$5*
1,1,$1+$1,$6,$7*
1,1,$1+$1,$8,$9*
0 Add four rect primitives between the rounded corners*
20,1,$1+$1,$2,$3,$4,$5,0*
20,1,$1+$1,$4,$5,$6,$7,0*
20,1,$1+$1,$6,$7,$8,$9,0*
20,1,$1+$1,$8,$9,$2,$3,0*%
G04 Aperture macros list end*
%ADD10R,0.450000X1.100000*%
%ADD11RoundRect,0.200000X0.200000X0.275000X-0.200000X0.275000X-0.200000X-0.275000X0.200000X-0.275000X0*%
%ADD12RoundRect,0.225000X0.250000X-0.225000X0.250000X0.225000X-0.250000X0.225000X-0.250000X-0.225000X0*%
%ADD13R,2.100000X1.450000*%
%ADD14RoundRect,0.225000X-0.250000X0.225000X-0.250000X-0.225000X0.250000X-0.225000X0.250000X0.225000X0*%
G04 APERTURE END LIST*
D10*
%TO.C,Q2*%
X165800000Y-66500000D03*
X165150000Y-66500000D03*
X164500000Y-66500000D03*
X164500000Y-68500000D03*
X165150000Y-68500000D03*
X165800000Y-68500000D03*
%TD*%
D11*
%TO.C,R9*%
X165650000Y-54500000D03*
X164000000Y-54500000D03*
%TD*%
D12*
%TO.C,C1*%
X170500000Y-50050000D03*
X170500000Y-48500000D03*
%TD*%
D10*
%TO.C,Q1*%
X165500000Y-56500000D03*
X164850000Y-56500000D03*
X164200000Y-56500000D03*
X164200000Y-58500000D03*
X164850000Y-58500000D03*
X165500000Y-58500000D03*
%TD*%
D13*
%TO.C,IC1*%
X167950000Y-53920000D03*
X167950000Y-56460000D03*
X167950000Y-59000000D03*
X167950000Y-61540000D03*
X167950000Y-64080000D03*
X167950000Y-66620000D03*
X167950000Y-69160000D03*
X167950000Y-71700000D03*
X177050000Y-71700000D03*
X177050000Y-69160000D03*
X177050000Y-66620000D03*
X177050000Y-64080000D03*
X177050000Y-61540000D03*
X177050000Y-59000000D03*
X177050000Y-56460000D03*
X177050000Y-53920000D03*
%TD*%
D11*
%TO.C,R15*%
X165500000Y-70500000D03*
X163850000Y-70500000D03*
%TD*%
D14*
%TO.C,C2*%
X164000000Y-75950000D03*
X164000000Y-77500000D03*
%TD*%
D11*
%TO.C,R14*%
X165650000Y-64500000D03*
X164000000Y-64500000D03*
%TD*%
%TO.C,R12*%
X165650000Y-60500000D03*
X164000000Y-60500000D03*
%TD*%
M02*
