M48
; DRILL file {KiCad 8.0.4} date 2024-08-27T22:08:13+0900
; FORMAT={3:3/ absolute / metric / suppress leading zeros}
; #@! TF.CreationDate,2024-08-27T22:08:13+09:00
; #@! TF.GenerationSoftware,Kicad,Pcbnew,8.0.4
; #@! TF.FileFunction,MixedPlating,1,2
FMAT,2
METRIC,TZ
; #@! TA.AperFunction,Plated,PTH,ViaDrill
T1C0.300
; #@! TA.AperFunction,Plated,PTH,ComponentDrill
T2C0.500
; #@! TA.AperFunction,Plated,PTH,ComponentDrill
T3C0.550
; #@! TA.AperFunction,Plated,PTH,ComponentDrill
T4C0.600
; #@! TA.AperFunction,Plated,PTH,ComponentDrill
T5C0.750
; #@! TA.AperFunction,Plated,PTH,ComponentDrill
T6C0.800
; #@! TA.AperFunction,Plated,PTH,ComponentDrill
T7C0.850
; #@! TA.AperFunction,Plated,PTH,ComponentDrill
T8C0.950
; #@! TA.AperFunction,Plated,PTH,ComponentDrill
T9C1.016
; #@! TA.AperFunction,Plated,PTH,ComponentDrill
T10C1.020
; #@! TA.AperFunction,Plated,PTH,ComponentDrill
T11C1.100
; #@! TA.AperFunction,Plated,PTH,ComponentDrill
T12C1.500
; #@! TA.AperFunction,Plated,PTH,ComponentDrill
T13C1.600
; #@! TA.AperFunction,Plated,PTH,ComponentDrill
T14C1.700
; #@! TA.AperFunction,Plated,PTH,ComponentDrill
T15C2.000
; #@! TA.AperFunction,Plated,PTH,ComponentDrill
T16C4.300
; #@! TA.AperFunction,Plated,PTH,ComponentDrill
T17C4.500
; #@! TA.AperFunction,NonPlated,NPTH,ComponentDrill
T18C2.800
; #@! TA.AperFunction,NonPlated,NPTH,ComponentDrill
T19C3.200
%
G90
G05
T1
X1000Y70000
X1425Y90000
X1500Y92000
X1500Y86000
X1500Y84150
X1500Y81000
X1500Y79000
X1500Y74000
X1500Y66500
X1500Y62500
X1500Y59000
X1500Y46000
X1500Y24500
X1500Y14500
X1500Y8500
X2000Y56000
X2000Y37500
X3000Y71500
X4000Y77500
X4500Y19000
X4500Y14000
X4925Y90000
X5000Y54000
X6500Y80000
X6500Y68500
X6500Y21500
X6500Y12000
X7000Y84500
X7000Y77000
X7000Y66000
X7000Y62500
X7500Y92500
X7500Y57500
X8000Y46000
X8500Y74500
X8500Y37500
X8500Y24500
X8500Y19500
X8500Y14000
X9500Y69000
X9500Y62500
X9500Y59000
X10000Y53000
X10500Y85000
X10500Y80000
X11000Y62000
X11500Y66000
X12000Y77000
X12000Y37500
X12000Y32500
X12000Y22000
X12500Y84500
X12500Y61500
X12500Y56000
X12500Y46000
X12500Y27000
X13500Y93000
X13500Y59000
X13500Y14500
X14000Y97500
X14000Y69500
X14000Y18000
X15000Y74000
X15000Y66000
X15500Y80500
X16000Y77000
X16000Y53500
X16500Y62000
X17500Y82500
X17500Y37500
X17500Y32500
X18000Y66500
X18000Y46000
X18500Y92500
X18500Y57500
X19000Y75500
X19000Y70000
X19500Y88665
X19500Y62000
X19500Y37500
X20000Y18500
X20000Y12500
X20500Y53000
X21500Y89000
X22000Y82000
X22000Y77500
X22000Y70000
X22500Y62000
X22500Y60000
X22500Y57500
X22500Y39000
X22500Y9000
X22500Y3500
X23000Y93500
X23000Y47000
X23000Y44000
X23500Y99000
X23500Y66000
X23500Y55000
X23500Y52500
X23500Y40500
X23500Y35500
X24000Y74000
X24500Y58000
X25500Y83500
X25500Y49500
X25500Y12500
X26000Y70000
X26500Y77500
X27000Y65000
X27000Y63500
X27000Y59500
X27000Y49500
X27000Y38500
X27500Y93500
X28000Y9000
X28000Y3500
X28225Y66500
X28500Y47500
X28500Y42000
X29000Y84500
X29000Y76500
X29000Y59000
X29500Y70500
X29500Y64500
X30000Y67500
X30000Y55000
X30000Y20000
X30500Y97000
X30500Y82000
X31000Y93500
X31000Y61000
X31500Y33500
X32000Y66000
X32000Y14500
X32000Y12500
X32500Y99000
X32500Y73500
X32500Y63500
X33500Y60500
X34000Y93500
X34000Y14500
X34235Y88000
X34500Y97000
X34500Y77500
X34500Y70500
X34500Y66000
X34500Y49500
X34500Y47500
X34500Y20000
X34500Y9000
X34500Y3500
X34825Y85000
X35000Y38000
X35500Y30000
X36000Y81500
X36000Y75000
X36000Y57000
X36000Y51000
X36000Y47500
X36000Y46000
X36000Y42500
X36000Y14500
X36500Y17500
X37000Y35500
X37500Y94500
X37500Y84000
X37500Y48000
X38000Y45000
X38500Y17500
X39000Y44000
X39000Y12000
X39500Y66500
X39500Y40000
X40000Y70500
X40000Y20000
X40500Y74500
X41000Y92500
X41500Y81500
X41500Y49000
X41500Y30000
X42000Y35500
X43000Y62500
X43000Y26500
X43500Y57000
X43500Y53500
X44000Y95500
X44000Y43500
X44000Y19500
X44500Y68500
X44500Y23000
X44500Y12000
X45500Y99000
X45500Y92500
X45500Y84000
X45500Y77500
X45500Y59000
X46000Y55000
X46000Y39500
X46500Y48500
X46500Y17000
X47000Y27000
X47000Y1500
X47500Y57000
X47500Y24000
X48000Y35500
X48000Y30500
X49000Y99000
X49000Y94500
X49000Y74000
X49000Y14500
X49500Y85000
X49500Y68000
X49500Y7500
X49500Y5000
X50500Y90500
X50500Y45000
X51500Y76500
X52000Y27500
X52500Y58500
X52500Y53000
X52500Y11500
X52500Y5000
X53000Y95000
X53000Y49000
X53000Y37500
X53500Y1500
X54000Y90500
X54000Y78000
X54500Y92500
X54500Y69000
X54500Y15000
X55000Y98000
X55000Y28500
X55000Y25000
X55500Y92500
X56000Y90500
X56500Y88500
X57000Y44000
X57500Y52700
X58000Y95000
X58500Y21500
X59000Y26500
X59000Y3000
X60000Y33000
X60500Y90500
X60500Y78000
X60500Y68000
X60500Y54500
X61000Y89000
X61000Y74000
X61000Y61000
X61000Y18500
X61500Y70500
X62000Y99000
X62000Y93500
X62500Y38000
X62500Y28000
X62500Y7500
X63000Y72000
X64500Y77000
X64500Y59000
X64500Y51000
X64500Y33000
X65000Y91500
X65500Y86500
X68000Y38000
X68000Y23500
X68500Y73000
X68500Y70000
X68500Y66000
X68500Y17500
X68500Y9000
X69000Y92000
X69000Y89000
X69000Y85500
X69000Y79500
X69000Y60500
X69000Y55500
X69000Y49500
X69000Y43500
T2
X1700Y43050
X1700Y42000
X2350Y41100
X2500Y43670
X3510Y44000
X3510Y40800
X4840Y44000
X4840Y40800
X6170Y44000
X6170Y40800
X7500Y44000
X7500Y40800
X8500Y43670
X8500Y41100
X9300Y43050
X9300Y42000
X11700Y43050
X11700Y42000
X12350Y41100
X12500Y43670
X13510Y44000
X13510Y40800
X14840Y44000
X14840Y40800
X16170Y44000
X16170Y40800
X17500Y44000
X17500Y40800
X18500Y43670
X18500Y41100
X19300Y43050
X19300Y42000
T4
X1995Y30000
X2939Y32280
X2939Y27720
X5220Y33225
X5220Y26775
X7500Y32280
X7500Y27720
X8445Y30000
X11275Y5775
X12220Y8055
X12220Y3495
X14500Y9000
X14500Y2550
X16780Y8055
X16780Y3495
X17725Y5775
X38495Y5220
X39439Y7500
X39439Y2939
X41720Y8445
X41720Y1995
X44000Y7500
X44000Y2939
X44945Y5220
X48055Y19720
X49000Y22000
X49000Y17439
X51280Y22945
X51280Y16495
X53561Y22000
X53561Y17439
X54505Y19720
T5
X58250Y72000
X60750Y72000
T6
X8590Y63800
X10500Y63800
X12410Y63800
T7
X6500Y19000
X6500Y14000
X23964Y56536
X27500Y53000
X33232Y64768
X36768Y61232
X50964Y6464
X54500Y10000
T8
X21000Y97000
X23500Y97000
X26000Y97000
X28500Y97000
X37000Y97000
X39500Y97000
X42000Y97000
X44500Y97000
T10
X7960Y87000
X7960Y71760
X10500Y87000
X10500Y71760
X13040Y87000
X13040Y71760
X15580Y87000
X15580Y71760
X18120Y87000
X18120Y71760
X20660Y87000
X20660Y71760
X23200Y87000
X23200Y71760
X25740Y87000
X25740Y71760
X28280Y87000
X28280Y71760
X30820Y87000
X30820Y71760
X33360Y87000
X33360Y71760
X35900Y87000
X35900Y71760
X38440Y87000
X38440Y71760
X40980Y87000
X40980Y71760
X43520Y87000
X43520Y71760
T12
X45720Y64660
X45720Y57040
X45720Y51960
X66040Y64660
X66040Y54500
X66040Y44340
T13
X25000Y45500
X33000Y45500
T14
X11040Y95500
X15000Y95500
T16
X5220Y30000
X14500Y5775
X41720Y5220
X51280Y19720
T17
X65000Y20600
X65000Y13400
T18
X29000Y44700
T19
X4000Y96000
X4000Y4000
X66000Y96000
X66000Y4000
T2
G00X50680Y96000
M15
G01X50680Y96700
M16
G05
G00X50680Y92225
M15
G01X50680Y92875
M16
G05
G00X59320Y96000
M15
G01X59320Y96700
M16
G05
G00X59320Y92225
M15
G01X59320Y92875
M16
G05
T3
G00X54750Y35475
M15
G01X54750Y30525
M16
G05
G00X62250Y35475
M15
G01X62250Y30525
M16
G05
T9
G00X17093Y20817
M15
G01X17093Y28183
M16
G05
G00X25094Y20817
M15
G01X25094Y28183
M16
G05
G00X29183Y32907
M15
G01X21817Y32907
M16
G05
G00X29183Y16093
M15
G01X21817Y16093
M16
G05
G00X31317Y24500
M15
G01X38683Y24500
M16
G05
T11
G00X55015Y83175
M15
G01X55015Y80425
M16
G05
G00X56915Y86500
M15
G01X59115Y86500
M16
G05
G00X61015Y82900
M15
G01X61015Y80700
M16
G05
T15
G00X7500Y42400
M15
G01X3500Y42400
M16
G05
G00X17500Y42400
M15
G01X13500Y42400
M16
G05
M30
