%TF.GenerationSoftware,KiCad,Pcbnew,8.0.4*%
%TF.CreationDate,2024-08-27T22:08:08+09:00*%
%TF.ProjectId,power_board2,706f7765-725f-4626-9f61-7264322e6b69,rev?*%
%TF.SameCoordinates,PX3473bc0PYa8cce40*%
%TF.FileFunction,Copper,L2,Bot*%
%TF.FilePolarity,Positive*%
%FSLAX46Y46*%
G04 Gerber Fmt 4.6, Leading zero omitted, Abs format (unit mm)*
G04 Created by KiCad (PCBNEW 8.0.4) date 2024-08-27 22:08:08*
%MOMM*%
%LPD*%
G01*
G04 APERTURE LIST*
G04 Aperture macros list*
%AMRoundRect*
0 Rectangle with rounded corners*
0 $1 Rounding radius*
0 $2 $3 $4 $5 $6 $7 $8 $9 X,Y pos of 4 corners*
0 Add a 4 corners polygon primitive as box body*
4,1,4,$2,$3,$4,$5,$6,$7,$8,$9,$2,$3,0*
0 Add four circle primitives for the rounded corners*
1,1,$1+$1,$2,$3*
1,1,$1+$1,$4,$5*
1,1,$1+$1,$6,$7*
1,1,$1+$1,$8,$9*
0 Add four rect primitives between the rounded corners*
20,1,$1+$1,$2,$3,$4,$5,0*
20,1,$1+$1,$4,$5,$6,$7,0*
20,1,$1+$1,$6,$7,$8,$9,0*
20,1,$1+$1,$8,$9,$2,$3,0*%
%AMRotRect*
0 Rectangle, with rotation*
0 The origin of the aperture is its center*
0 $1 length*
0 $2 width*
0 $3 Rotation angle, in degrees counterclockwise*
0 Add horizontal line*
21,1,$1,$2,0,0,$3*%
G04 Aperture macros list end*
%TA.AperFunction,ComponentPad*%
%ADD10O,3.100000X5.855000*%
%TD*%
%TA.AperFunction,ComponentPad*%
%ADD11O,3.100000X5.300000*%
%TD*%
%TA.AperFunction,ComponentPad*%
%ADD12O,5.300000X3.100000*%
%TD*%
%TA.AperFunction,ComponentPad*%
%ADD13RotRect,2.000000X2.000000X135.000000*%
%TD*%
%TA.AperFunction,ComponentPad*%
%ADD14C,2.000000*%
%TD*%
%TA.AperFunction,ComponentPad*%
%ADD15C,0.900000*%
%TD*%
%TA.AperFunction,ComponentPad*%
%ADD16C,8.600000*%
%TD*%
%TA.AperFunction,ComponentPad*%
%ADD17RoundRect,1.500000X1.500000X-1.500000X1.500000X1.500000X-1.500000X1.500000X-1.500000X-1.500000X0*%
%TD*%
%TA.AperFunction,ComponentPad*%
%ADD18C,6.000000*%
%TD*%
%TA.AperFunction,ComponentPad*%
%ADD19RoundRect,0.250000X-0.600000X-0.725000X0.600000X-0.725000X0.600000X0.725000X-0.600000X0.725000X0*%
%TD*%
%TA.AperFunction,ComponentPad*%
%ADD20O,1.700000X1.950000*%
%TD*%
%TA.AperFunction,ComponentPad*%
%ADD21O,1.000000X1.700000*%
%TD*%
%TA.AperFunction,ComponentPad*%
%ADD22R,1.530000X1.530000*%
%TD*%
%TA.AperFunction,ComponentPad*%
%ADD23C,1.530000*%
%TD*%
%TA.AperFunction,ComponentPad*%
%ADD24R,2.000000X2.000000*%
%TD*%
%TA.AperFunction,ComponentPad*%
%ADD25RotRect,2.000000X2.000000X225.000000*%
%TD*%
%TA.AperFunction,ComponentPad*%
%ADD26C,2.250000*%
%TD*%
%TA.AperFunction,ComponentPad*%
%ADD27R,1.500000X1.500000*%
%TD*%
%TA.AperFunction,ComponentPad*%
%ADD28C,1.500000*%
%TD*%
%TA.AperFunction,ComponentPad*%
%ADD29O,12.700000X6.350000*%
%TD*%
%TA.AperFunction,ComponentPad*%
%ADD30O,3.810000X10.160000*%
%TD*%
%TA.AperFunction,ComponentPad*%
%ADD31O,6.350000X12.700000*%
%TD*%
%TA.AperFunction,ComponentPad*%
%ADD32O,10.160000X2.540000*%
%TD*%
%TA.AperFunction,ComponentPad*%
%ADD33RoundRect,0.250001X-1.099999X-1.099999X1.099999X-1.099999X1.099999X1.099999X-1.099999X1.099999X0*%
%TD*%
%TA.AperFunction,ComponentPad*%
%ADD34C,2.700000*%
%TD*%
%TA.AperFunction,ComponentPad*%
%ADD35C,0.800000*%
%TD*%
%TA.AperFunction,ComponentPad*%
%ADD36O,9.000000X4.500000*%
%TD*%
%TA.AperFunction,ComponentPad*%
%ADD37C,2.400000*%
%TD*%
%TA.AperFunction,ComponentPad*%
%ADD38O,2.000000X7.000000*%
%TD*%
%TA.AperFunction,SMDPad,CuDef*%
%ADD39R,0.650000X1.500000*%
%TD*%
%TA.AperFunction,SMDPad,CuDef*%
%ADD40R,1.300000X1.600000*%
%TD*%
%TA.AperFunction,SMDPad,CuDef*%
%ADD41RoundRect,0.200000X0.200000X0.275000X-0.200000X0.275000X-0.200000X-0.275000X0.200000X-0.275000X0*%
%TD*%
%TA.AperFunction,SMDPad,CuDef*%
%ADD42RoundRect,0.225000X-0.225000X-0.250000X0.225000X-0.250000X0.225000X0.250000X-0.225000X0.250000X0*%
%TD*%
%TA.AperFunction,SMDPad,CuDef*%
%ADD43RoundRect,0.200000X0.275000X-0.200000X0.275000X0.200000X-0.275000X0.200000X-0.275000X-0.200000X0*%
%TD*%
%TA.AperFunction,SMDPad,CuDef*%
%ADD44R,0.600000X1.300000*%
%TD*%
%TA.AperFunction,SMDPad,CuDef*%
%ADD45RoundRect,0.225000X0.250000X-0.225000X0.250000X0.225000X-0.250000X0.225000X-0.250000X-0.225000X0*%
%TD*%
%TA.AperFunction,SMDPad,CuDef*%
%ADD46RoundRect,0.200000X-0.200000X-0.275000X0.200000X-0.275000X0.200000X0.275000X-0.200000X0.275000X0*%
%TD*%
%TA.AperFunction,SMDPad,CuDef*%
%ADD47RoundRect,0.225000X-0.250000X0.225000X-0.250000X-0.225000X0.250000X-0.225000X0.250000X0.225000X0*%
%TD*%
%TA.AperFunction,SMDPad,CuDef*%
%ADD48RoundRect,0.225000X0.225000X0.250000X-0.225000X0.250000X-0.225000X-0.250000X0.225000X-0.250000X0*%
%TD*%
%TA.AperFunction,SMDPad,CuDef*%
%ADD49RoundRect,0.250000X-0.475000X0.250000X-0.475000X-0.250000X0.475000X-0.250000X0.475000X0.250000X0*%
%TD*%
%TA.AperFunction,SMDPad,CuDef*%
%ADD50RoundRect,0.250000X0.475000X-0.250000X0.475000X0.250000X-0.475000X0.250000X-0.475000X-0.250000X0*%
%TD*%
%TA.AperFunction,ViaPad*%
%ADD51C,0.600000*%
%TD*%
%TA.AperFunction,Conductor*%
%ADD52C,1.000000*%
%TD*%
%TA.AperFunction,Conductor*%
%ADD53C,0.500000*%
%TD*%
%TA.AperFunction,Conductor*%
%ADD54C,0.200000*%
%TD*%
%TA.AperFunction,Conductor*%
%ADD55C,1.500000*%
%TD*%
%TA.AperFunction,Conductor*%
%ADD56C,2.000000*%
%TD*%
G04 APERTURE END LIST*
D10*
X55015000Y81800000D03*
D11*
X61015000Y81800000D03*
D12*
X58015000Y86500000D03*
D13*
X36767767Y61232233D03*
D14*
X33232233Y64767767D03*
D15*
X1994581Y30000000D03*
X2939162Y32280419D03*
X2939162Y27719581D03*
X5219581Y33225000D03*
D16*
X5219581Y30000000D03*
D15*
X5219581Y26775000D03*
X7500000Y32280419D03*
X7500000Y27719581D03*
X8444581Y30000000D03*
X48055419Y19719581D03*
X49000000Y22000000D03*
X49000000Y17439162D03*
X51280419Y22944581D03*
D16*
X51280419Y19719581D03*
D15*
X51280419Y16494581D03*
X53560838Y22000000D03*
X53560838Y17439162D03*
X54505419Y19719581D03*
D17*
X65000000Y13400000D03*
D18*
X65000000Y20600000D03*
D19*
X21000000Y97000000D03*
D20*
X23500000Y97000000D03*
X26000000Y97000000D03*
X28500000Y97000000D03*
D21*
X59320000Y92550000D03*
X50680000Y92550000D03*
X59320000Y96350000D03*
X50680000Y96350000D03*
D15*
X11275000Y5775000D03*
X12219581Y8055419D03*
X12219581Y3494581D03*
X14500000Y9000000D03*
D16*
X14500000Y5775000D03*
D15*
X14500000Y2550000D03*
X16780419Y8055419D03*
X16780419Y3494581D03*
X17725000Y5775000D03*
D22*
X7960000Y71760000D03*
D23*
X10500000Y71760000D03*
X13040000Y71760000D03*
X15580000Y71760000D03*
X18120000Y71760000D03*
X20660000Y71760000D03*
X23200000Y71760000D03*
X25740000Y71760000D03*
X28280000Y71760000D03*
X30820000Y71760000D03*
X33360000Y71760000D03*
X35900000Y71760000D03*
X38440000Y71760000D03*
X40980000Y71760000D03*
X43520000Y71760000D03*
D22*
X7960000Y87000000D03*
D23*
X10500000Y87000000D03*
X13040000Y87000000D03*
X15580000Y87000000D03*
X18120000Y87000000D03*
X20660000Y87000000D03*
X23200000Y87000000D03*
X25740000Y87000000D03*
X28280000Y87000000D03*
X30820000Y87000000D03*
X33360000Y87000000D03*
X35900000Y87000000D03*
X38440000Y87000000D03*
X40980000Y87000000D03*
X43520000Y87000000D03*
D24*
X6500000Y19000000D03*
D14*
X6500000Y14000000D03*
D25*
X54500000Y10000000D03*
D14*
X50964466Y6464466D03*
D26*
X45720000Y64660000D03*
X45720000Y57040000D03*
X45720000Y51960000D03*
X66040000Y44340000D03*
X66040000Y54500000D03*
X66040000Y64660000D03*
D27*
X58250000Y72000000D03*
D28*
X60750000Y72000000D03*
D29*
X35000000Y24500000D03*
D30*
X25094000Y24500000D03*
D31*
X17093000Y24500000D03*
D32*
X25500400Y32907400D03*
X25500400Y16092600D03*
D33*
X11040000Y95500000D03*
D34*
X15000000Y95500000D03*
D13*
X27500000Y53000000D03*
D14*
X23964466Y56535534D03*
D19*
X37000000Y97000000D03*
D20*
X39500000Y97000000D03*
X42000000Y97000000D03*
X44500000Y97000000D03*
D27*
X12410000Y63800000D03*
D28*
X10500000Y63800000D03*
X8590000Y63800000D03*
D35*
X9300000Y42000000D03*
X9300000Y43050000D03*
X8500000Y41100000D03*
X8500000Y43670000D03*
X7500000Y40800000D03*
X7500000Y44000000D03*
X6170000Y40800000D03*
X6170000Y44000000D03*
D36*
X5500000Y42400000D03*
D35*
X4840000Y40800000D03*
X4840000Y44000000D03*
X3510000Y40800000D03*
X3510000Y44000000D03*
X2500000Y43670000D03*
X2350000Y41100000D03*
X1700000Y42000000D03*
X1700000Y43050000D03*
X19300000Y42000000D03*
X19300000Y43050000D03*
X18500000Y41100000D03*
X18500000Y43670000D03*
X17500000Y40800000D03*
X17500000Y44000000D03*
X16170000Y40800000D03*
X16170000Y44000000D03*
D36*
X15500000Y42400000D03*
D35*
X14840000Y40800000D03*
X14840000Y44000000D03*
X13510000Y40800000D03*
X13510000Y44000000D03*
X12500000Y43670000D03*
X12350000Y41100000D03*
X11700000Y42000000D03*
X11700000Y43050000D03*
D37*
X25000000Y45500000D03*
X33000000Y45500000D03*
D38*
X62250000Y33000000D03*
X54750000Y33000000D03*
D15*
X38494581Y5219581D03*
X39439162Y7500000D03*
X39439162Y2939162D03*
X41719581Y8444581D03*
D16*
X41719581Y5219581D03*
D15*
X41719581Y1994581D03*
X44000000Y7500000D03*
X44000000Y2939162D03*
X44944581Y5219581D03*
D39*
X35810000Y77500000D03*
X34540000Y77500000D03*
X33270000Y77500000D03*
X32000000Y77500000D03*
X32000000Y82900000D03*
X33270000Y82900000D03*
X34540000Y82900000D03*
X35810000Y82900000D03*
D40*
X52300000Y64500000D03*
X56700000Y64500000D03*
D41*
X27650000Y74000000D03*
X26000000Y74000000D03*
D42*
X30000000Y85000000D03*
X31550000Y85000000D03*
D43*
X1500000Y82500000D03*
X1500000Y84150000D03*
D41*
X6575000Y90000000D03*
X4925000Y90000000D03*
D44*
X32050000Y17000000D03*
X33950000Y17000000D03*
X33000000Y14600000D03*
D45*
X43500000Y53500000D03*
X43500000Y55050000D03*
D46*
X34350000Y47500000D03*
X36000000Y47500000D03*
D47*
X18000000Y17000000D03*
X18000000Y15450000D03*
D46*
X24350000Y70000000D03*
X26000000Y70000000D03*
D48*
X27050000Y59500000D03*
X25500000Y59500000D03*
D42*
X34450000Y49500000D03*
X36000000Y49500000D03*
D43*
X1500000Y77500000D03*
X1500000Y79150000D03*
X28000000Y68350000D03*
X28000000Y70000000D03*
D49*
X36500000Y19400000D03*
X36500000Y17500000D03*
D47*
X4500000Y17050000D03*
X4500000Y15500000D03*
D46*
X33175000Y85000000D03*
X34825000Y85000000D03*
D43*
X54000000Y90850000D03*
X54000000Y92500000D03*
D50*
X34500000Y33500000D03*
X34500000Y35400000D03*
D41*
X2925000Y90000000D03*
X1275000Y90000000D03*
D43*
X1500000Y72500000D03*
X1500000Y74150000D03*
D42*
X28225000Y66500000D03*
X29775000Y66500000D03*
D40*
X52800000Y53000000D03*
X57200000Y53000000D03*
D42*
X9225000Y62000000D03*
X10775000Y62000000D03*
D47*
X38500000Y19050000D03*
X38500000Y17500000D03*
D41*
X12825000Y90000000D03*
X11175000Y90000000D03*
D46*
X58850000Y90500000D03*
X60500000Y90500000D03*
D43*
X56000000Y90850000D03*
X56000000Y92500000D03*
D42*
X8725000Y65500000D03*
X10275000Y65500000D03*
D49*
X16000000Y17000000D03*
X16000000Y15100000D03*
D51*
X7000000Y66000000D03*
X15500000Y80500000D03*
X32500000Y73500000D03*
X11500000Y66000000D03*
X23500000Y99000000D03*
X32000000Y14500000D03*
X8500000Y74500000D03*
X39500000Y40000000D03*
X43000000Y62500000D03*
X46000000Y39500000D03*
X36000000Y81500000D03*
X46500000Y48500000D03*
X43500000Y57000000D03*
X13500000Y14500000D03*
X32500000Y99000000D03*
X7000000Y77000000D03*
X31000000Y61000000D03*
X22500000Y39000000D03*
X53500000Y1500000D03*
X39000000Y44000000D03*
X33500000Y60500000D03*
X28500000Y47500000D03*
X1000000Y70000000D03*
X37500000Y48000000D03*
X28500000Y42000000D03*
X1500000Y81000000D03*
X37500000Y94500000D03*
X29000000Y59000000D03*
X12500000Y56000000D03*
X30500000Y97000000D03*
X18500000Y92500000D03*
X57000000Y44000000D03*
X1500000Y14500000D03*
X1500000Y86000000D03*
X1500000Y8500000D03*
X22000000Y70000000D03*
X36000000Y51000000D03*
X15000000Y74000000D03*
X41500000Y81500000D03*
X18500000Y57500000D03*
X1500000Y66500000D03*
X19000000Y70000000D03*
X21500000Y89000000D03*
X25500000Y12500000D03*
X59000000Y26500000D03*
X34500000Y97000000D03*
X38500000Y17500000D03*
X53000000Y37500000D03*
X40000000Y70500000D03*
X39000000Y12000000D03*
X45500000Y99000000D03*
X39500000Y66500000D03*
X22500000Y62000000D03*
X34500000Y3500000D03*
X24000000Y74000000D03*
X34500000Y70500000D03*
X20500000Y53000000D03*
X6500000Y12000000D03*
X36500000Y17500000D03*
X48000000Y35500000D03*
X46000000Y55000000D03*
X37000000Y35500000D03*
X44000000Y43500000D03*
X68000000Y23500000D03*
X28000000Y9000000D03*
X36000000Y14500000D03*
X18000000Y66500000D03*
X25500000Y83500000D03*
X30000000Y67500000D03*
X47000000Y1500000D03*
X27000000Y38500000D03*
X53000000Y49000000D03*
X41500000Y30000000D03*
X22500000Y9000000D03*
X36000000Y75000000D03*
X68500000Y17500000D03*
X10500000Y85000000D03*
X7500000Y92500000D03*
X27000000Y65000000D03*
X37500000Y84000000D03*
X36000000Y57000000D03*
X49500000Y5000000D03*
X14000000Y97500000D03*
X34000000Y93500000D03*
X32500000Y63500000D03*
X13500000Y93000000D03*
X5000000Y54000000D03*
X64500000Y33000000D03*
X29000000Y84500000D03*
X1500000Y92000000D03*
X38000000Y45000000D03*
X19000000Y75500000D03*
X34500000Y9000000D03*
X35000000Y38000000D03*
X9500000Y62500000D03*
X45500000Y59000000D03*
X29500000Y64500000D03*
X31500000Y33500000D03*
X45500000Y84000000D03*
X49500000Y7500000D03*
X22000000Y82000000D03*
X52500000Y58500000D03*
X7500000Y57500000D03*
X13500000Y59000000D03*
X30000000Y55000000D03*
X19500000Y62000000D03*
X1500000Y59000000D03*
X23500000Y35500000D03*
X30500000Y82000000D03*
X34500000Y77500000D03*
X22500000Y3500000D03*
X16000000Y77000000D03*
X34000000Y14500000D03*
X23500000Y52500000D03*
X12500000Y84500000D03*
X32000000Y66000000D03*
X55000000Y28500000D03*
X36000000Y42500000D03*
X42000000Y35500000D03*
X2000000Y56000000D03*
X29000000Y76500000D03*
X6500000Y68500000D03*
X32000000Y12500000D03*
X7000000Y62500000D03*
X68000000Y38000000D03*
X62500000Y38000000D03*
X28000000Y3500000D03*
X58500000Y21500000D03*
X23500000Y55000000D03*
X68500000Y9000000D03*
X23500000Y40500000D03*
X40500000Y74500000D03*
X44000000Y95500000D03*
X41000000Y92500000D03*
X61000000Y18500000D03*
X45500000Y77500000D03*
X26500000Y77500000D03*
X23000000Y93500000D03*
X6500000Y80000000D03*
X1500000Y62500000D03*
X25500000Y49500000D03*
X50500000Y45000000D03*
X31000000Y93500000D03*
X23500000Y66000000D03*
X12500000Y61500000D03*
X16500000Y62000000D03*
X44500000Y68500000D03*
X10500000Y80000000D03*
X16000000Y53500000D03*
X9500000Y59000000D03*
X14000000Y69500000D03*
X60000000Y33000000D03*
X9500000Y69000000D03*
X41500000Y49000000D03*
X29500000Y70500000D03*
X20000000Y12500000D03*
X15000000Y66000000D03*
X27000000Y63500000D03*
X22500000Y60000000D03*
X34500000Y66000000D03*
X44500000Y12000000D03*
X22000000Y77500000D03*
X27500000Y93500000D03*
X10000000Y53000000D03*
X4500000Y14000000D03*
X62500000Y28000000D03*
X8500000Y14000000D03*
X22500000Y57500000D03*
X52500000Y5000000D03*
X48000000Y30500000D03*
X35500000Y30000000D03*
X7000000Y84500000D03*
X47500000Y57000000D03*
X36000000Y46000000D03*
X49500000Y68000000D03*
X62500000Y7500000D03*
X45500000Y92500000D03*
X12000000Y77000000D03*
X59000000Y3000000D03*
X24500000Y58000000D03*
X4000000Y77500000D03*
X11000000Y62000000D03*
X34500000Y49500000D03*
X27000000Y59500000D03*
X34500000Y47500000D03*
X28225000Y66500000D03*
X52500000Y53000000D03*
X43500000Y53500000D03*
X62000000Y99000000D03*
X61500000Y70500000D03*
X64500000Y77000000D03*
X49000000Y94500000D03*
X51500000Y76500000D03*
X49000000Y99000000D03*
X69000000Y92000000D03*
X61000000Y74000000D03*
X50500000Y90500000D03*
X68500000Y66000000D03*
X49000000Y74000000D03*
X64500000Y51000000D03*
X60500000Y54500000D03*
X69000000Y60500000D03*
X68500000Y70000000D03*
X62000000Y93500000D03*
X61000000Y61000000D03*
X63000000Y72000000D03*
X54000000Y78000000D03*
X69000000Y49500000D03*
X56500000Y88500000D03*
X55000000Y98000000D03*
X60500000Y78000000D03*
X53000000Y95000000D03*
X69000000Y55500000D03*
X69000000Y43500000D03*
X61000000Y89000000D03*
X69000000Y89000000D03*
X60500000Y68000000D03*
X64500000Y59000000D03*
X69000000Y85500000D03*
X49500000Y85000000D03*
X65500000Y86500000D03*
X65000000Y91500000D03*
X69000000Y79500000D03*
X68500000Y73000000D03*
X58000000Y95000000D03*
X54500000Y69000000D03*
X57500000Y52700000D03*
X54000000Y90500000D03*
X56000000Y90500000D03*
X36000000Y47500000D03*
X34235000Y88000000D03*
X34825000Y85000000D03*
X47500000Y24000000D03*
X40000000Y20000000D03*
X49000000Y14500000D03*
X52500000Y11500000D03*
X52000000Y27500000D03*
X30000000Y20000000D03*
X54500000Y15000000D03*
X55000000Y25000000D03*
X44000000Y19500000D03*
X47000000Y27000000D03*
X43000000Y26500000D03*
X34500000Y20000000D03*
X44500000Y23000000D03*
X46500000Y17000000D03*
X27000000Y49500000D03*
X26000000Y70000000D03*
X17500000Y82500000D03*
X19500000Y88665000D03*
X1500000Y46000000D03*
X1500000Y24500000D03*
X4500000Y19000000D03*
X8000000Y46000000D03*
X6500000Y21500000D03*
X8500000Y37500000D03*
X8500000Y24500000D03*
X2000000Y37500000D03*
X8500000Y19500000D03*
X54500000Y92500000D03*
X55500000Y92500000D03*
X60500000Y90500000D03*
X1425000Y90000000D03*
X4925000Y90000000D03*
X1500000Y74000000D03*
X1500000Y79000000D03*
X1500000Y84150000D03*
X12500000Y27000000D03*
X20000000Y18500000D03*
X12000000Y32500000D03*
X18000000Y46000000D03*
X14000000Y18000000D03*
X12500000Y46000000D03*
X19500000Y37500000D03*
X17500000Y37500000D03*
X23000000Y47000000D03*
X3000000Y71500000D03*
X12000000Y37500000D03*
X17500000Y32500000D03*
X12000000Y22000000D03*
X23000000Y44000000D03*
D52*
X4500000Y15500000D02*
X5000000Y15500000D01*
X5000000Y15500000D02*
X6500000Y14000000D01*
D53*
X36585000Y76300000D02*
X36585000Y78615000D01*
X33765000Y76300000D02*
X36585000Y76300000D01*
X33270000Y76795000D02*
X33765000Y76300000D01*
X33270000Y77500000D02*
X33270000Y76795000D01*
X36585000Y78615000D02*
X34700000Y80500000D01*
X34700000Y80500000D02*
X21000000Y80500000D01*
X21000000Y80500000D02*
X15580000Y85920000D01*
D54*
X1500000Y77500000D02*
X4000000Y77500000D01*
D53*
X15580000Y85920000D02*
X15580000Y87000000D01*
D54*
X28000000Y66725000D02*
X28225000Y66500000D01*
X28000000Y68350000D02*
X28000000Y66725000D01*
D55*
X58850000Y90500000D02*
X54000000Y90500000D01*
D54*
X34835000Y89835000D02*
X34835000Y86660000D01*
X34835000Y86660000D02*
X33175000Y85000000D01*
X33175000Y82995000D02*
X33270000Y82900000D01*
X33175000Y85000000D02*
X33175000Y82995000D01*
X42000000Y97000000D02*
X34835000Y89835000D01*
X34825000Y83185000D02*
X34540000Y82900000D01*
X34235000Y89800686D02*
X39500000Y95065686D01*
X38350000Y98275000D02*
X24775000Y98275000D01*
X24775000Y98275000D02*
X23500000Y97000000D01*
X34235000Y88000000D02*
X34235000Y89800686D01*
X34825000Y85000000D02*
X34825000Y83185000D01*
X39500000Y97000000D02*
X39500000Y97125000D01*
X39500000Y97125000D02*
X38350000Y98275000D01*
X39500000Y95065686D02*
X39500000Y97000000D01*
X19500000Y32500000D02*
X19500000Y33500000D01*
X19500000Y33500000D02*
X21500000Y35500000D01*
X21500000Y35500000D02*
X27000000Y41000000D01*
X33950000Y17000000D02*
X32950000Y18000000D01*
X22000000Y29500000D02*
X19500000Y32000000D01*
X27000000Y41000000D02*
X27000000Y48000000D01*
X22000000Y19000000D02*
X22000000Y29500000D01*
X23000000Y18000000D02*
X22500000Y18500000D01*
X19500000Y32000000D02*
X19500000Y32500000D01*
X27000000Y48000000D02*
X27000000Y49500000D01*
X22500000Y18500000D02*
X22000000Y19000000D01*
X32950000Y18000000D02*
X23000000Y18000000D01*
X45720000Y69040000D02*
X45720000Y64660000D01*
X43000000Y71760000D02*
X45720000Y69040000D01*
X25220000Y71760000D02*
X24350000Y70890000D01*
X24350000Y70890000D02*
X24350000Y70000000D01*
X8590000Y65365000D02*
X8725000Y65500000D01*
X10725000Y67500000D02*
X19000000Y67500000D01*
X20660000Y69160000D02*
X20660000Y71760000D01*
X20140000Y71760000D02*
X20150000Y71750000D01*
X19000000Y67500000D02*
X20660000Y69160000D01*
X8590000Y63800000D02*
X8590000Y65365000D01*
X8725000Y65500000D02*
X10725000Y67500000D01*
X20350000Y71970000D02*
X20140000Y71760000D01*
X1500000Y82500000D02*
X17500000Y82500000D01*
X27760000Y71760000D02*
X27760000Y70240000D01*
X27760000Y70240000D02*
X28000000Y70000000D01*
X27650000Y71870000D02*
X27760000Y71760000D01*
X27650000Y74000000D02*
X27650000Y71870000D01*
X6575000Y90000000D02*
X8075000Y88500000D01*
X8075000Y88500000D02*
X19335000Y88500000D01*
X19335000Y88500000D02*
X19500000Y88665000D01*
D56*
X25094000Y26094000D02*
X29000000Y30000000D01*
X25094000Y24592600D02*
X25094000Y26094000D01*
X34500000Y33000000D02*
X54750000Y33000000D01*
X29000000Y30000000D02*
X31500000Y30000000D01*
X31500000Y30000000D02*
X34500000Y33000000D01*
D54*
X18000000Y76500000D02*
X18000000Y71880000D01*
X34735000Y79000000D02*
X20500000Y79000000D01*
X35810000Y77925000D02*
X34735000Y79000000D01*
X35810000Y77500000D02*
X35810000Y77925000D01*
X20500000Y79000000D02*
X18000000Y76500000D01*
X18000000Y71880000D02*
X18120000Y71760000D01*
D52*
X4500000Y17050000D02*
X4500000Y17500000D01*
X4500000Y17050000D02*
X4550000Y17050000D01*
X4500000Y17500000D02*
X4000000Y18000000D01*
X4550000Y17050000D02*
X6500000Y19000000D01*
D54*
X2925000Y90000000D02*
X4860000Y88065000D01*
X4860000Y88065000D02*
X22135000Y88065000D01*
X22135000Y88065000D02*
X23200000Y87000000D01*
X32000000Y77075000D02*
X36075000Y73000000D01*
X32000000Y77500000D02*
X32000000Y77075000D01*
X37200000Y73000000D02*
X38440000Y71760000D01*
X36075000Y73000000D02*
X37200000Y73000000D01*
X31550000Y85000000D02*
X31550000Y83350000D01*
X31550000Y83350000D02*
X32000000Y82900000D01*
D52*
X32050000Y17000000D02*
X26407800Y17000000D01*
X26407800Y17000000D02*
X25500400Y16092600D01*
D54*
X2000000Y72500000D02*
X1500000Y72500000D01*
X3000000Y71500000D02*
X2000000Y72500000D01*
X11040000Y95500000D02*
X11040000Y90135000D01*
X11040000Y90135000D02*
X11175000Y90000000D01*
X12825000Y90000000D02*
X22740000Y90000000D01*
X22740000Y90000000D02*
X25740000Y87000000D01*
%TA.AperFunction,Conductor*%
G36*
X24520483Y47980315D02*
G01*
X24535051Y47969361D01*
X26357108Y46376710D01*
X26394627Y46317771D01*
X26399500Y46283350D01*
X26399500Y43950862D01*
X26379815Y43883823D01*
X26363181Y43863181D01*
X26036319Y43536319D01*
X25974996Y43502834D01*
X25948638Y43500000D01*
X21337151Y43500000D01*
X20500000Y42500000D01*
X20500000Y35551362D01*
X20480315Y35484323D01*
X20463681Y35463681D01*
X19000000Y34000001D01*
X19000000Y33868202D01*
X18983389Y33806205D01*
X18969362Y33781908D01*
X18969359Y33781904D01*
X18940425Y33731791D01*
X18940424Y33731790D01*
X18940423Y33731785D01*
X18899499Y33579057D01*
X18899499Y33579055D01*
X18899499Y33410954D01*
X18899500Y33410941D01*
X18899500Y32086670D01*
X18899499Y32086652D01*
X18899499Y31920946D01*
X18899498Y31920946D01*
X18940424Y31768211D01*
X18940425Y31768210D01*
X18958142Y31737524D01*
X18958143Y31737523D01*
X18983387Y31693798D01*
X19000000Y31631800D01*
X19000000Y31500000D01*
X20963681Y29536319D01*
X20997166Y29474996D01*
X21000000Y29448638D01*
X21000000Y19051362D01*
X20980315Y18984323D01*
X20963681Y18963681D01*
X18536319Y16536319D01*
X18474996Y16502834D01*
X18448638Y16500000D01*
X14551362Y16500000D01*
X14484323Y16519685D01*
X14463681Y16536319D01*
X11036319Y19963681D01*
X11002834Y20025004D01*
X11000000Y20051362D01*
X11000000Y45448638D01*
X11019685Y45515677D01*
X11036319Y45536319D01*
X13463681Y47963681D01*
X13525004Y47997166D01*
X13551362Y48000000D01*
X24453444Y48000000D01*
X24520483Y47980315D01*
G37*
%TD.AperFunction*%
%TA.AperFunction,Conductor*%
G36*
X62430692Y99479815D02*
G01*
X62476447Y99427011D01*
X62487653Y99375500D01*
X62487653Y94500000D01*
X64487653Y92500000D01*
X69375500Y92500000D01*
X69442539Y92480315D01*
X69488294Y92427511D01*
X69499500Y92376000D01*
X69499500Y42124000D01*
X69479815Y42056961D01*
X69427011Y42011206D01*
X69375500Y42000000D01*
X65539015Y42000000D01*
X65471976Y42019685D01*
X65451334Y42036319D01*
X63147653Y44340000D01*
X64409474Y44340000D01*
X64429547Y44084936D01*
X64489279Y43836136D01*
X64587188Y43599761D01*
X64587190Y43599758D01*
X64720875Y43381604D01*
X64720878Y43381599D01*
X64796200Y43293409D01*
X64887044Y43187044D01*
X65011579Y43080681D01*
X65081598Y43020879D01*
X65081603Y43020876D01*
X65299757Y42887191D01*
X65299760Y42887189D01*
X65536135Y42789280D01*
X65536140Y42789278D01*
X65784930Y42729548D01*
X66040000Y42709474D01*
X66295070Y42729548D01*
X66543860Y42789278D01*
X66662051Y42838235D01*
X66780239Y42887189D01*
X66780240Y42887190D01*
X66780243Y42887191D01*
X66998399Y43020877D01*
X67192956Y43187044D01*
X67359123Y43381601D01*
X67492809Y43599757D01*
X67513819Y43650478D01*
X67590720Y43836136D01*
X67590722Y43836140D01*
X67650452Y44084930D01*
X67670526Y44340000D01*
X67650452Y44595070D01*
X67590722Y44843860D01*
X67526047Y45000000D01*
X67492811Y45080240D01*
X67492809Y45080243D01*
X67359124Y45298397D01*
X67359121Y45298402D01*
X67299319Y45368421D01*
X67192956Y45492956D01*
X67086591Y45583800D01*
X66998401Y45659122D01*
X66998396Y45659125D01*
X66780242Y45792810D01*
X66780239Y45792812D01*
X66543864Y45890721D01*
X66543860Y45890722D01*
X66295070Y45950452D01*
X66295067Y45950453D01*
X66295064Y45950453D01*
X66040000Y45970526D01*
X65784935Y45950453D01*
X65784931Y45950453D01*
X65784930Y45950452D01*
X65660535Y45920587D01*
X65536135Y45890721D01*
X65299760Y45792812D01*
X65299757Y45792810D01*
X65081603Y45659125D01*
X65081598Y45659122D01*
X64887044Y45492956D01*
X64720878Y45298402D01*
X64720875Y45298397D01*
X64587190Y45080243D01*
X64587188Y45080240D01*
X64489279Y44843865D01*
X64480084Y44805565D01*
X64442851Y44650478D01*
X64429547Y44595065D01*
X64409474Y44340000D01*
X63147653Y44340000D01*
X55023972Y52463681D01*
X54990487Y52525004D01*
X54987653Y52551362D01*
X54987653Y53847865D01*
X56049500Y53847865D01*
X56049500Y52152130D01*
X56049501Y52152124D01*
X56055908Y52092517D01*
X56106202Y51957672D01*
X56106206Y51957665D01*
X56192452Y51842456D01*
X56192455Y51842453D01*
X56307664Y51756207D01*
X56307671Y51756203D01*
X56442517Y51705909D01*
X56442516Y51705909D01*
X56449444Y51705165D01*
X56502127Y51699500D01*
X57897872Y51699501D01*
X57957483Y51705909D01*
X58092331Y51756204D01*
X58207546Y51842454D01*
X58293796Y51957669D01*
X58344091Y52092517D01*
X58350500Y52152127D01*
X58350499Y53847872D01*
X58344091Y53907483D01*
X58293796Y54042331D01*
X58293795Y54042332D01*
X58293793Y54042336D01*
X58207547Y54157545D01*
X58207544Y54157548D01*
X58092335Y54243794D01*
X58092328Y54243798D01*
X57957482Y54294092D01*
X57957483Y54294092D01*
X57897883Y54300499D01*
X57897881Y54300500D01*
X57897873Y54300500D01*
X57897864Y54300500D01*
X56502129Y54300500D01*
X56502123Y54300499D01*
X56442516Y54294092D01*
X56307671Y54243798D01*
X56307664Y54243794D01*
X56192455Y54157548D01*
X56192452Y54157545D01*
X56106206Y54042336D01*
X56106202Y54042329D01*
X56055908Y53907483D01*
X56049501Y53847884D01*
X56049501Y53847877D01*
X56049500Y53847865D01*
X54987653Y53847865D01*
X54987653Y54500000D01*
X64409474Y54500000D01*
X64429547Y54244936D01*
X64429547Y54244933D01*
X64429548Y54244930D01*
X64450528Y54157545D01*
X64489279Y53996136D01*
X64587188Y53759761D01*
X64587190Y53759758D01*
X64720875Y53541604D01*
X64720878Y53541599D01*
X64796200Y53453409D01*
X64887044Y53347044D01*
X65011579Y53240681D01*
X65081598Y53180879D01*
X65081603Y53180876D01*
X65299757Y53047191D01*
X65299760Y53047189D01*
X65536135Y52949280D01*
X65536140Y52949278D01*
X65784930Y52889548D01*
X66040000Y52869474D01*
X66295070Y52889548D01*
X66543860Y52949278D01*
X66662051Y52998235D01*
X66780239Y53047189D01*
X66780240Y53047190D01*
X66780243Y53047191D01*
X66998399Y53180877D01*
X67192956Y53347044D01*
X67359123Y53541601D01*
X67492809Y53759757D01*
X67529310Y53847877D01*
X67590720Y53996136D01*
X67590722Y53996140D01*
X67650452Y54244930D01*
X67670526Y54500000D01*
X67650452Y54755070D01*
X67590722Y55003860D01*
X67590720Y55003865D01*
X67492811Y55240240D01*
X67492809Y55240243D01*
X67359124Y55458397D01*
X67359121Y55458402D01*
X67299319Y55528421D01*
X67192956Y55652956D01*
X67086591Y55743800D01*
X66998401Y55819122D01*
X66998396Y55819125D01*
X66780242Y55952810D01*
X66780239Y55952812D01*
X66543864Y56050721D01*
X66543860Y56050722D01*
X66295070Y56110452D01*
X66295067Y56110453D01*
X66295064Y56110453D01*
X66040000Y56130526D01*
X65784935Y56110453D01*
X65784931Y56110453D01*
X65784930Y56110452D01*
X65660535Y56080587D01*
X65536135Y56050721D01*
X65299760Y55952812D01*
X65299757Y55952810D01*
X65081603Y55819125D01*
X65081598Y55819122D01*
X64887044Y55652956D01*
X64720878Y55458402D01*
X64720875Y55458397D01*
X64587190Y55240243D01*
X64587188Y55240240D01*
X64489279Y55003865D01*
X64429547Y54755065D01*
X64409474Y54500000D01*
X54987653Y54500000D01*
X54987653Y67000000D01*
X49189788Y72797865D01*
X56999500Y72797865D01*
X56999500Y71202130D01*
X56999501Y71202124D01*
X57005908Y71142517D01*
X57056202Y71007672D01*
X57056206Y71007665D01*
X57142452Y70892456D01*
X57142455Y70892453D01*
X57257664Y70806207D01*
X57257671Y70806203D01*
X57392517Y70755909D01*
X57392516Y70755909D01*
X57399444Y70755165D01*
X57452127Y70749500D01*
X59047872Y70749501D01*
X59107483Y70755909D01*
X59242331Y70806204D01*
X59357546Y70892454D01*
X59443796Y71007669D01*
X59494091Y71142517D01*
X59500500Y71202127D01*
X59500499Y72797872D01*
X59494091Y72857483D01*
X59443796Y72992331D01*
X59443795Y72992332D01*
X59443793Y72992336D01*
X59357547Y73107545D01*
X59357544Y73107548D01*
X59242335Y73193794D01*
X59242328Y73193798D01*
X59107482Y73244092D01*
X59107483Y73244092D01*
X59047883Y73250499D01*
X59047881Y73250500D01*
X59047873Y73250500D01*
X59047864Y73250500D01*
X57452129Y73250500D01*
X57452123Y73250499D01*
X57392516Y73244092D01*
X57257671Y73193798D01*
X57257664Y73193794D01*
X57142455Y73107548D01*
X57142452Y73107545D01*
X57056206Y72992336D01*
X57056202Y72992329D01*
X57005908Y72857483D01*
X56999501Y72797884D01*
X56999501Y72797877D01*
X56999500Y72797865D01*
X49189788Y72797865D01*
X48523972Y73463681D01*
X48490487Y73525004D01*
X48487653Y73551362D01*
X48487653Y83311898D01*
X52964500Y83311898D01*
X52964500Y80288103D01*
X52999582Y80021620D01*
X52999583Y80021615D01*
X52999584Y80021609D01*
X52999585Y80021607D01*
X53069152Y79761976D01*
X53172011Y79513650D01*
X53172019Y79513634D01*
X53252830Y79373668D01*
X53306413Y79280859D01*
X53306415Y79280856D01*
X53306416Y79280855D01*
X53470042Y79067612D01*
X53470048Y79067605D01*
X53660104Y78877549D01*
X53660110Y78877544D01*
X53873359Y78713913D01*
X54022968Y78627536D01*
X54106133Y78579520D01*
X54106149Y78579512D01*
X54261008Y78515368D01*
X54354474Y78476653D01*
X54614109Y78407084D01*
X54802319Y78382307D01*
X54880602Y78372000D01*
X54880603Y78372000D01*
X55149398Y78372000D01*
X55209905Y78379966D01*
X55415891Y78407084D01*
X55675526Y78476653D01*
X55862457Y78554083D01*
X55923850Y78579512D01*
X55923853Y78579514D01*
X55923859Y78579516D01*
X56156641Y78713913D01*
X56369890Y78877544D01*
X56559956Y79067610D01*
X56723587Y79280859D01*
X56857984Y79513641D01*
X56960847Y79761974D01*
X57030416Y80021609D01*
X57065500Y80288103D01*
X57065500Y83311897D01*
X57030416Y83578391D01*
X56960847Y83838026D01*
X56922132Y83931492D01*
X56857988Y84086351D01*
X56857980Y84086367D01*
X56809964Y84169532D01*
X56723587Y84319141D01*
X56559956Y84532390D01*
X56559951Y84532396D01*
X56369895Y84722452D01*
X56369888Y84722458D01*
X56156645Y84886084D01*
X56156644Y84886085D01*
X56156641Y84886087D01*
X56063832Y84939670D01*
X55923866Y85020481D01*
X55923850Y85020489D01*
X55675524Y85123348D01*
X55545708Y85158132D01*
X55415891Y85192916D01*
X55415885Y85192917D01*
X55415880Y85192918D01*
X55149398Y85228000D01*
X55149397Y85228000D01*
X54880603Y85228000D01*
X54880602Y85228000D01*
X54614119Y85192918D01*
X54614112Y85192917D01*
X54614109Y85192916D01*
X54559239Y85178214D01*
X54354475Y85123348D01*
X54106149Y85020489D01*
X54106133Y85020481D01*
X53873354Y84886084D01*
X53660111Y84722458D01*
X53660104Y84722452D01*
X53470048Y84532396D01*
X53470042Y84532389D01*
X53306416Y84319146D01*
X53172019Y84086367D01*
X53172011Y84086351D01*
X53069152Y83838025D01*
X52999585Y83578394D01*
X52999582Y83578381D01*
X52964500Y83311898D01*
X48487653Y83311898D01*
X48487653Y90598423D01*
X52749500Y90598423D01*
X52749500Y90401578D01*
X52780290Y90207174D01*
X52841117Y90019971D01*
X52930476Y89844595D01*
X53046172Y89685354D01*
X53185354Y89546172D01*
X53344595Y89430476D01*
X53427455Y89388257D01*
X53519970Y89341118D01*
X53519972Y89341118D01*
X53519975Y89341116D01*
X53620317Y89308513D01*
X53707173Y89280291D01*
X53901578Y89249500D01*
X53901583Y89249500D01*
X58948422Y89249500D01*
X59142826Y89280291D01*
X59330025Y89341116D01*
X59505405Y89430476D01*
X59664646Y89546172D01*
X59748251Y89629778D01*
X59809570Y89663260D01*
X59879262Y89658276D01*
X59900071Y89648215D01*
X60010394Y89581522D01*
X60172804Y89530914D01*
X60243384Y89524500D01*
X60243387Y89524500D01*
X60756613Y89524500D01*
X60756616Y89524500D01*
X60827196Y89530914D01*
X60989606Y89581522D01*
X61135185Y89669528D01*
X61255472Y89789815D01*
X61343478Y89935394D01*
X61394086Y90097804D01*
X61400500Y90168384D01*
X61400500Y90831616D01*
X61394086Y90902196D01*
X61343478Y91064606D01*
X61255472Y91210185D01*
X61255470Y91210187D01*
X61255469Y91210189D01*
X61135188Y91330470D01*
X60989606Y91418478D01*
X60975540Y91422861D01*
X60827196Y91469086D01*
X60827194Y91469087D01*
X60827192Y91469087D01*
X60777778Y91473577D01*
X60756616Y91475500D01*
X60271184Y91475500D01*
X60204145Y91495185D01*
X60158390Y91547989D01*
X60148446Y91617147D01*
X60168082Y91668391D01*
X60206628Y91726080D01*
X60206628Y91726081D01*
X60206632Y91726086D01*
X60282051Y91908165D01*
X60320500Y92101459D01*
X60320500Y92998541D01*
X60320500Y92998544D01*
X60282052Y93191830D01*
X60282051Y93191831D01*
X60282051Y93191835D01*
X60242246Y93287934D01*
X60206635Y93373908D01*
X60206628Y93373921D01*
X60097139Y93537782D01*
X60097136Y93537786D01*
X59957785Y93677137D01*
X59957781Y93677140D01*
X59793920Y93786629D01*
X59793907Y93786636D01*
X59611839Y93862050D01*
X59611829Y93862053D01*
X59418543Y93900500D01*
X59418541Y93900500D01*
X59221459Y93900500D01*
X59221457Y93900500D01*
X59028170Y93862053D01*
X59028160Y93862050D01*
X58846092Y93786636D01*
X58846079Y93786629D01*
X58682218Y93677140D01*
X58682214Y93677137D01*
X58542863Y93537786D01*
X58542860Y93537782D01*
X58433371Y93373921D01*
X58433364Y93373908D01*
X58357950Y93191840D01*
X58357947Y93191830D01*
X58319500Y92998544D01*
X58319500Y92998541D01*
X58319500Y92101459D01*
X58319500Y92101457D01*
X58319499Y92101457D01*
X58359137Y91902191D01*
X58357315Y91901829D01*
X58357871Y91840647D01*
X58320632Y91781528D01*
X58257343Y91751927D01*
X58238582Y91750500D01*
X56981224Y91750500D01*
X56914185Y91770185D01*
X56868430Y91822989D01*
X56858486Y91892147D01*
X56875107Y91938650D01*
X56884560Y91954287D01*
X56918478Y92010394D01*
X56969086Y92172804D01*
X56975500Y92243384D01*
X56975500Y92756616D01*
X56969086Y92827196D01*
X56918478Y92989606D01*
X56830472Y93135185D01*
X56830470Y93135187D01*
X56830469Y93135189D01*
X56710188Y93255470D01*
X56656486Y93287934D01*
X56564606Y93343478D01*
X56402196Y93394086D01*
X56402194Y93394087D01*
X56402192Y93394087D01*
X56352778Y93398577D01*
X56331616Y93400500D01*
X55668384Y93400500D01*
X55649145Y93398752D01*
X55597807Y93394087D01*
X55435393Y93343478D01*
X55366768Y93301993D01*
X55327170Y93288513D01*
X55327534Y93286918D01*
X55320749Y93285370D01*
X55150476Y93225789D01*
X55065971Y93172691D01*
X54998734Y93153691D01*
X54934029Y93172691D01*
X54849523Y93225789D01*
X54679255Y93285368D01*
X54672467Y93286917D01*
X54672830Y93288512D01*
X54633231Y93301993D01*
X54612697Y93314406D01*
X54564606Y93343478D01*
X54402196Y93394086D01*
X54402194Y93394087D01*
X54402192Y93394087D01*
X54352778Y93398577D01*
X54331616Y93400500D01*
X53668384Y93400500D01*
X53649145Y93398752D01*
X53597807Y93394087D01*
X53435393Y93343478D01*
X53289811Y93255470D01*
X53169530Y93135189D01*
X53081522Y92989607D01*
X53030913Y92827193D01*
X53024500Y92756614D01*
X53024500Y92243387D01*
X53030913Y92172808D01*
X53030913Y92172806D01*
X53030914Y92172804D01*
X53081522Y92010394D01*
X53167141Y91868763D01*
X53169530Y91864812D01*
X53271661Y91762681D01*
X53305146Y91701358D01*
X53300162Y91631666D01*
X53271661Y91587319D01*
X53169531Y91485190D01*
X53169528Y91485186D01*
X53105192Y91378763D01*
X53086758Y91355234D01*
X53046177Y91314654D01*
X53046176Y91314652D01*
X52930476Y91155406D01*
X52841117Y90980030D01*
X52780290Y90792827D01*
X52749500Y90598423D01*
X48487653Y90598423D01*
X48487653Y91911998D01*
X48500070Y91954287D01*
X48499999Y92000001D01*
X48500000Y92000000D01*
X48499843Y92101457D01*
X49679499Y92101457D01*
X49717947Y91908171D01*
X49717950Y91908161D01*
X49793364Y91726093D01*
X49793371Y91726080D01*
X49902860Y91562219D01*
X49902863Y91562215D01*
X50042214Y91422864D01*
X50042218Y91422861D01*
X50206079Y91313372D01*
X50206092Y91313365D01*
X50388160Y91237951D01*
X50388165Y91237949D01*
X50388169Y91237949D01*
X50388170Y91237948D01*
X50581456Y91199500D01*
X50581459Y91199500D01*
X50778543Y91199500D01*
X50908582Y91225368D01*
X50971835Y91237949D01*
X51153914Y91313368D01*
X51317782Y91422861D01*
X51457139Y91562218D01*
X51566632Y91726086D01*
X51642051Y91908165D01*
X51680500Y92101459D01*
X51680500Y92998541D01*
X51680500Y92998544D01*
X51642052Y93191830D01*
X51642051Y93191831D01*
X51642051Y93191835D01*
X51602246Y93287934D01*
X51566635Y93373908D01*
X51566628Y93373921D01*
X51457139Y93537782D01*
X51457136Y93537786D01*
X51317785Y93677137D01*
X51317781Y93677140D01*
X51153920Y93786629D01*
X51153907Y93786636D01*
X50971839Y93862050D01*
X50971829Y93862053D01*
X50778543Y93900500D01*
X50778541Y93900500D01*
X50581459Y93900500D01*
X50581457Y93900500D01*
X50388170Y93862053D01*
X50388160Y93862050D01*
X50206092Y93786636D01*
X50206079Y93786629D01*
X50042218Y93677140D01*
X50042214Y93677137D01*
X49902863Y93537786D01*
X49902860Y93537782D01*
X49793371Y93373921D01*
X49793364Y93373908D01*
X49717950Y93191840D01*
X49717947Y93191830D01*
X49679500Y92998544D01*
X49679500Y92998541D01*
X49679500Y92101459D01*
X49679500Y92101457D01*
X49679499Y92101457D01*
X48499843Y92101457D01*
X48493979Y95901457D01*
X49679499Y95901457D01*
X49717947Y95708171D01*
X49717950Y95708161D01*
X49793364Y95526093D01*
X49793371Y95526080D01*
X49902860Y95362219D01*
X49902863Y95362215D01*
X50042214Y95222864D01*
X50042218Y95222861D01*
X50206079Y95113372D01*
X50206092Y95113365D01*
X50388160Y95037951D01*
X50388165Y95037949D01*
X50388169Y95037949D01*
X50388170Y95037948D01*
X50581456Y94999500D01*
X50581459Y94999500D01*
X50778543Y94999500D01*
X50908582Y95025368D01*
X50971835Y95037949D01*
X51153914Y95113368D01*
X51317782Y95222861D01*
X51457139Y95362218D01*
X51566632Y95526086D01*
X51642051Y95708165D01*
X51654632Y95771418D01*
X51680500Y95901457D01*
X58319499Y95901457D01*
X58357947Y95708171D01*
X58357950Y95708161D01*
X58433364Y95526093D01*
X58433371Y95526080D01*
X58542860Y95362219D01*
X58542863Y95362215D01*
X58682214Y95222864D01*
X58682218Y95222861D01*
X58846079Y95113372D01*
X58846092Y95113365D01*
X59028160Y95037951D01*
X59028165Y95037949D01*
X59028169Y95037949D01*
X59028170Y95037948D01*
X59221456Y94999500D01*
X59221459Y94999500D01*
X59418543Y94999500D01*
X59548582Y95025368D01*
X59611835Y95037949D01*
X59793914Y95113368D01*
X59957782Y95222861D01*
X60097139Y95362218D01*
X60206632Y95526086D01*
X60282051Y95708165D01*
X60294632Y95771418D01*
X60320500Y95901457D01*
X60320500Y96798544D01*
X60282052Y96991830D01*
X60282051Y96991831D01*
X60282051Y96991835D01*
X60266123Y97030289D01*
X60206635Y97173908D01*
X60206628Y97173921D01*
X60097139Y97337782D01*
X60097136Y97337786D01*
X59957785Y97477137D01*
X59957781Y97477140D01*
X59793920Y97586629D01*
X59793907Y97586636D01*
X59611839Y97662050D01*
X59611829Y97662053D01*
X59418543Y97700500D01*
X59418541Y97700500D01*
X59221459Y97700500D01*
X59221457Y97700500D01*
X59028170Y97662053D01*
X59028160Y97662050D01*
X58846092Y97586636D01*
X58846079Y97586629D01*
X58682218Y97477140D01*
X58682214Y97477137D01*
X58542863Y97337786D01*
X58542860Y97337782D01*
X58433371Y97173921D01*
X58433364Y97173908D01*
X58357950Y96991840D01*
X58357947Y96991830D01*
X58319500Y96798544D01*
X58319500Y96798541D01*
X58319500Y95901459D01*
X58319500Y95901457D01*
X58319499Y95901457D01*
X51680500Y95901457D01*
X51680500Y96798544D01*
X51642052Y96991830D01*
X51642051Y96991831D01*
X51642051Y96991835D01*
X51626123Y97030289D01*
X51566635Y97173908D01*
X51566628Y97173921D01*
X51457139Y97337782D01*
X51457136Y97337786D01*
X51317785Y97477137D01*
X51317781Y97477140D01*
X51153920Y97586629D01*
X51153907Y97586636D01*
X50971839Y97662050D01*
X50971829Y97662053D01*
X50778543Y97700500D01*
X50778541Y97700500D01*
X50581459Y97700500D01*
X50581457Y97700500D01*
X50388170Y97662053D01*
X50388160Y97662050D01*
X50206092Y97586636D01*
X50206079Y97586629D01*
X50042218Y97477140D01*
X50042214Y97477137D01*
X49902863Y97337786D01*
X49902860Y97337782D01*
X49793371Y97173921D01*
X49793364Y97173908D01*
X49717950Y96991840D01*
X49717947Y96991830D01*
X49679500Y96798544D01*
X49679500Y96798541D01*
X49679500Y95901459D01*
X49679500Y95901457D01*
X49679499Y95901457D01*
X48493979Y95901457D01*
X48488617Y99375310D01*
X48508198Y99442378D01*
X48560932Y99488215D01*
X48612617Y99499500D01*
X62363653Y99499500D01*
X62430692Y99479815D01*
G37*
%TD.AperFunction*%
%TA.AperFunction,Conductor*%
G36*
X53300793Y28480315D02*
G01*
X53321435Y28463681D01*
X55958181Y25826935D01*
X55991666Y25765612D01*
X55994500Y25739254D01*
X55994500Y9551348D01*
X55994544Y9549706D01*
X55994500Y9549705D01*
X55994500Y9549703D01*
X55994432Y9549703D01*
X55993815Y9549687D01*
X55978226Y9484372D01*
X55958291Y9458293D01*
X55036319Y8536319D01*
X54974996Y8502834D01*
X54948638Y8500000D01*
X54051362Y8500000D01*
X53984323Y8519685D01*
X53963681Y8536319D01*
X43500000Y19000000D01*
X31000000Y19000000D01*
X29551362Y19000000D01*
X29484323Y19019685D01*
X29463681Y19036319D01*
X28536319Y19963681D01*
X28502834Y20025004D01*
X28500000Y20051362D01*
X28500000Y26948638D01*
X28519685Y27015677D01*
X28536319Y27036319D01*
X29963181Y28463181D01*
X30024504Y28496666D01*
X30050862Y28499500D01*
X31618098Y28499500D01*
X31619598Y28499618D01*
X31629321Y28500000D01*
X53233754Y28500000D01*
X53300793Y28480315D01*
G37*
%TD.AperFunction*%
%TA.AperFunction,Conductor*%
G36*
X8015677Y46980315D02*
G01*
X8036319Y46963681D01*
X9963681Y45036319D01*
X9997166Y44974996D01*
X10000000Y44948638D01*
X10000000Y19551362D01*
X9980315Y19484323D01*
X9963681Y19463681D01*
X8036319Y17536319D01*
X7974996Y17502834D01*
X7948638Y17500000D01*
X624500Y17500000D01*
X557461Y17519685D01*
X511706Y17572489D01*
X500500Y17624000D01*
X500500Y46876000D01*
X520185Y46943039D01*
X572989Y46988794D01*
X624500Y47000000D01*
X7948638Y47000000D01*
X8015677Y46980315D01*
G37*
%TD.AperFunction*%
%TA.AperFunction,Conductor*%
G36*
X18515677Y15480315D02*
G01*
X18536319Y15463681D01*
X20000000Y14000000D01*
X30000000Y14000000D01*
X31463681Y15463681D01*
X31525004Y15497166D01*
X31551362Y15500000D01*
X43924189Y15500000D01*
X43991228Y15480315D01*
X44011749Y15463803D01*
X53000000Y6500000D01*
X59500000Y6500000D01*
X62000000Y4000000D01*
X62000000Y624500D01*
X61980315Y557461D01*
X61927511Y511706D01*
X61876000Y500500D01*
X7624000Y500500D01*
X7556961Y520185D01*
X7511206Y572989D01*
X7500000Y624500D01*
X7500000Y5830084D01*
X5737175Y7500000D01*
X5737174Y7500000D01*
X624500Y7500000D01*
X557461Y7519685D01*
X511706Y7572489D01*
X500500Y7624000D01*
X500500Y15376000D01*
X520185Y15443039D01*
X572989Y15488794D01*
X624500Y15500000D01*
X18448638Y15500000D01*
X18515677Y15480315D01*
G37*
%TD.AperFunction*%
%TA.AperFunction,Conductor*%
G36*
X46443039Y99479815D02*
G01*
X46488794Y99427011D01*
X46500000Y99375500D01*
X46500000Y72500000D01*
X53463681Y65536319D01*
X53497166Y65474996D01*
X53500000Y65448638D01*
X53500000Y54424500D01*
X53480315Y54357461D01*
X53427511Y54311706D01*
X53376000Y54300500D01*
X52102129Y54300500D01*
X52102123Y54300499D01*
X52042516Y54294092D01*
X51907671Y54243798D01*
X51907664Y54243794D01*
X51792455Y54157548D01*
X51792452Y54157545D01*
X51706206Y54042336D01*
X51706202Y54042329D01*
X51655908Y53907483D01*
X51649501Y53847884D01*
X51649500Y53847865D01*
X51649500Y52152130D01*
X51649501Y52152124D01*
X51655908Y52092517D01*
X51706202Y51957672D01*
X51706206Y51957665D01*
X51792452Y51842456D01*
X51792455Y51842453D01*
X51907664Y51756207D01*
X51907671Y51756203D01*
X52042517Y51705909D01*
X52042516Y51705909D01*
X52049444Y51705165D01*
X52102127Y51699500D01*
X53376000Y51699501D01*
X53443039Y51679816D01*
X53488794Y51627013D01*
X53500000Y51575501D01*
X53500000Y50000000D01*
X64000000Y39500000D01*
X68948638Y39500000D01*
X69015677Y39480315D01*
X69036319Y39463681D01*
X69463181Y39036819D01*
X69496666Y38975496D01*
X69499500Y38949138D01*
X69499500Y8124000D01*
X69479815Y8056961D01*
X69427011Y8011206D01*
X69375500Y8000000D01*
X64499999Y8000000D01*
X62000000Y5500001D01*
X62000000Y4000000D01*
X59500000Y6500000D01*
X59500000Y6500001D01*
X56536319Y9463682D01*
X56502834Y9525005D01*
X56500000Y9551363D01*
X56500000Y14971451D01*
X61499500Y14971451D01*
X61499500Y11828550D01*
X61514804Y11614567D01*
X61575628Y11334963D01*
X61675635Y11066834D01*
X61812770Y10815691D01*
X61812775Y10815683D01*
X61984254Y10586613D01*
X61984270Y10586595D01*
X62186594Y10384271D01*
X62186612Y10384255D01*
X62415682Y10212776D01*
X62415690Y10212771D01*
X62666833Y10075636D01*
X62666832Y10075636D01*
X62666836Y10075635D01*
X62666839Y10075633D01*
X62934954Y9975631D01*
X62934960Y9975630D01*
X62934962Y9975629D01*
X63214566Y9914805D01*
X63214568Y9914805D01*
X63214572Y9914804D01*
X63428552Y9899500D01*
X66571448Y9899500D01*
X66785428Y9914804D01*
X67065046Y9975631D01*
X67333161Y10075633D01*
X67584315Y10212774D01*
X67813395Y10384261D01*
X68015739Y10586605D01*
X68187226Y10815685D01*
X68324367Y11066839D01*
X68424369Y11334954D01*
X68424371Y11334963D01*
X68485195Y11614567D01*
X68485195Y11614568D01*
X68485196Y11614572D01*
X68500500Y11828552D01*
X68500500Y14971448D01*
X68485196Y15185428D01*
X68463455Y15285368D01*
X68424371Y15465038D01*
X68424370Y15465040D01*
X68424369Y15465046D01*
X68324367Y15733161D01*
X68284831Y15805565D01*
X68187229Y15984310D01*
X68187224Y15984318D01*
X68015745Y16213388D01*
X68015729Y16213406D01*
X67813405Y16415730D01*
X67813387Y16415746D01*
X67584317Y16587225D01*
X67584309Y16587230D01*
X67333166Y16724365D01*
X67333167Y16724365D01*
X67192969Y16776656D01*
X67065046Y16824369D01*
X67065043Y16824370D01*
X67065037Y16824372D01*
X66785433Y16885196D01*
X66571450Y16900500D01*
X66571448Y16900500D01*
X63428552Y16900500D01*
X63428549Y16900500D01*
X63214566Y16885196D01*
X62934962Y16824372D01*
X62666833Y16724365D01*
X62415690Y16587230D01*
X62415682Y16587225D01*
X62186612Y16415746D01*
X62186594Y16415730D01*
X61984270Y16213406D01*
X61984254Y16213388D01*
X61812775Y15984318D01*
X61812770Y15984310D01*
X61675635Y15733167D01*
X61575628Y15465038D01*
X61514804Y15185434D01*
X61499500Y14971451D01*
X56500000Y14971451D01*
X56500000Y26000000D01*
X53000000Y29500000D01*
X33421389Y29500000D01*
X33354350Y29519685D01*
X33308595Y29572489D01*
X33298651Y29641647D01*
X33327676Y29705203D01*
X33333708Y29711681D01*
X34003931Y30381903D01*
X35085209Y31463181D01*
X35146532Y31496666D01*
X35172890Y31499500D01*
X53125500Y31499500D01*
X53192539Y31479815D01*
X53238294Y31427011D01*
X53249500Y31375500D01*
X53249500Y30381903D01*
X53286446Y30148632D01*
X53359433Y29924004D01*
X53415653Y29813668D01*
X53466657Y29713567D01*
X53605483Y29522490D01*
X53772490Y29355483D01*
X53963567Y29216657D01*
X54062991Y29165998D01*
X54174003Y29109434D01*
X54174005Y29109434D01*
X54174008Y29109432D01*
X54294412Y29070311D01*
X54398631Y29036447D01*
X54631903Y28999500D01*
X54631908Y28999500D01*
X54868097Y28999500D01*
X55101368Y29036447D01*
X55325992Y29109432D01*
X55536433Y29216657D01*
X55727510Y29355483D01*
X55894517Y29522490D01*
X56033343Y29713567D01*
X56140568Y29924008D01*
X56213553Y30148632D01*
X56250500Y30381903D01*
X56250500Y35618098D01*
X56213553Y35851369D01*
X56140566Y36075997D01*
X56033342Y36286434D01*
X55894517Y36477510D01*
X55727510Y36644517D01*
X55536433Y36783343D01*
X55325996Y36890567D01*
X55101368Y36963554D01*
X54868097Y37000500D01*
X54868092Y37000500D01*
X54631908Y37000500D01*
X54631903Y37000500D01*
X54398631Y36963554D01*
X54174003Y36890567D01*
X53963566Y36783343D01*
X53868995Y36714632D01*
X53772490Y36644517D01*
X53772488Y36644515D01*
X53772487Y36644515D01*
X53605485Y36477513D01*
X53605485Y36477512D01*
X53605483Y36477510D01*
X53545862Y36395450D01*
X53466657Y36286434D01*
X53359433Y36075997D01*
X53286446Y35851369D01*
X53249500Y35618098D01*
X53249500Y34624500D01*
X53229815Y34557461D01*
X53177011Y34511706D01*
X53125500Y34500500D01*
X33974998Y34500500D01*
X33974980Y34500499D01*
X33872203Y34490000D01*
X33872200Y34489999D01*
X33705668Y34434815D01*
X33705663Y34434813D01*
X33556342Y34342711D01*
X33432289Y34218658D01*
X33340186Y34069334D01*
X33296341Y33937022D01*
X33266316Y33888346D01*
X30914792Y31536819D01*
X30853469Y31503334D01*
X30827111Y31500500D01*
X30706729Y31500500D01*
X30639690Y31520185D01*
X30593935Y31572989D01*
X30583991Y31642147D01*
X30613016Y31705703D01*
X30619048Y31712181D01*
X30644384Y31737518D01*
X30644389Y31737523D01*
X30785676Y31921652D01*
X30901720Y32122648D01*
X30990537Y32337070D01*
X31050606Y32561251D01*
X31080900Y32791355D01*
X31080900Y33023445D01*
X31050606Y33253549D01*
X30990537Y33477730D01*
X30901720Y33692152D01*
X30901714Y33692163D01*
X30785679Y33893144D01*
X30785678Y33893146D01*
X30644390Y34077276D01*
X30644384Y34077283D01*
X30480282Y34241385D01*
X30480275Y34241391D01*
X30296145Y34382679D01*
X30296143Y34382680D01*
X30095162Y34498715D01*
X30095154Y34498719D01*
X30095152Y34498720D01*
X30063801Y34511706D01*
X29880728Y34587538D01*
X29738603Y34625620D01*
X29656549Y34647606D01*
X29627786Y34651393D01*
X29426452Y34677900D01*
X29426445Y34677900D01*
X21826497Y34677900D01*
X21759458Y34697585D01*
X21713703Y34750389D01*
X21703759Y34819547D01*
X21732784Y34883103D01*
X21738816Y34889581D01*
X22039078Y35189843D01*
X22039091Y35189858D01*
X27480520Y40631284D01*
X27559577Y40768216D01*
X27600501Y40920943D01*
X27600501Y41079058D01*
X27600501Y41086653D01*
X27600500Y41086671D01*
X27600500Y43465978D01*
X27620185Y43533017D01*
X27672989Y43578772D01*
X27742147Y43588716D01*
X27805703Y43559691D01*
X27812181Y43553659D01*
X27924771Y43441069D01*
X28134949Y43288366D01*
X28279659Y43214632D01*
X28366423Y43170423D01*
X28366425Y43170423D01*
X28366428Y43170421D01*
X28613507Y43090140D01*
X28745706Y43069203D01*
X28870098Y43049500D01*
X28870103Y43049500D01*
X29129902Y43049500D01*
X29243298Y43067461D01*
X29386493Y43090140D01*
X29633572Y43170421D01*
X29865051Y43288366D01*
X30075229Y43441069D01*
X30258931Y43624771D01*
X30411634Y43834949D01*
X30529579Y44066428D01*
X30609860Y44313507D01*
X30632539Y44456702D01*
X30650500Y44570098D01*
X30650500Y44829903D01*
X30628947Y44965979D01*
X30609860Y45086493D01*
X30529579Y45333572D01*
X30529577Y45333575D01*
X30529577Y45333577D01*
X30448368Y45492956D01*
X30444776Y45500005D01*
X31294732Y45500005D01*
X31294732Y45499996D01*
X31313777Y45245846D01*
X31350148Y45086493D01*
X31370492Y44997363D01*
X31463607Y44760112D01*
X31591041Y44539388D01*
X31749950Y44340123D01*
X31936783Y44166768D01*
X32147366Y44023195D01*
X32147371Y44023193D01*
X32147372Y44023192D01*
X32147373Y44023191D01*
X32269328Y43964462D01*
X32376992Y43912613D01*
X32376993Y43912613D01*
X32376996Y43912611D01*
X32620542Y43837487D01*
X32872565Y43799500D01*
X33127435Y43799500D01*
X33379458Y43837487D01*
X33623004Y43912611D01*
X33852634Y44023195D01*
X34063217Y44166768D01*
X34250050Y44340123D01*
X34408959Y44539388D01*
X34536393Y44760112D01*
X34629508Y44997363D01*
X34686222Y45245843D01*
X34704740Y45492956D01*
X34705268Y45499996D01*
X34705268Y45500005D01*
X34686222Y45754155D01*
X34681411Y45775232D01*
X34629508Y46002637D01*
X34536393Y46239888D01*
X34479460Y46338500D01*
X34462987Y46406401D01*
X34485840Y46472427D01*
X34540761Y46515618D01*
X34586847Y46524500D01*
X34606613Y46524500D01*
X34606616Y46524500D01*
X34677196Y46530914D01*
X34839606Y46581522D01*
X34985185Y46669528D01*
X34985189Y46669532D01*
X35087319Y46771661D01*
X35148642Y46805146D01*
X35218334Y46800162D01*
X35262681Y46771661D01*
X35364811Y46669531D01*
X35364813Y46669530D01*
X35364815Y46669528D01*
X35510394Y46581522D01*
X35672804Y46530914D01*
X35743384Y46524500D01*
X35743387Y46524500D01*
X36256613Y46524500D01*
X36256616Y46524500D01*
X36327196Y46530914D01*
X36489606Y46581522D01*
X36635185Y46669528D01*
X36755472Y46789815D01*
X36843478Y46935394D01*
X36894086Y47097804D01*
X36900500Y47168384D01*
X36900500Y47831616D01*
X36894086Y47902196D01*
X36843478Y48064606D01*
X36755472Y48210185D01*
X36755470Y48210187D01*
X36755469Y48210189D01*
X36635188Y48330470D01*
X36489606Y48418478D01*
X36417120Y48441065D01*
X36327196Y48469086D01*
X36327194Y48469087D01*
X36327192Y48469087D01*
X36277778Y48473577D01*
X36256616Y48475500D01*
X35743384Y48475500D01*
X35724145Y48473752D01*
X35672807Y48469087D01*
X35510393Y48418478D01*
X35364811Y48330470D01*
X35364810Y48330469D01*
X35262681Y48228339D01*
X35201358Y48194854D01*
X35131666Y48199838D01*
X35087319Y48228339D01*
X34985189Y48330469D01*
X34985185Y48330472D01*
X34939742Y48357944D01*
X34892555Y48409472D01*
X34880717Y48478332D01*
X34907987Y48542660D01*
X34964890Y48581766D01*
X34983697Y48587997D01*
X35128044Y48677032D01*
X35247968Y48796956D01*
X35337003Y48941303D01*
X35390349Y49102292D01*
X35400500Y49201655D01*
X35400499Y49798344D01*
X35390349Y49897708D01*
X35337003Y50058697D01*
X35336999Y50058703D01*
X35336998Y50058706D01*
X35247970Y50203041D01*
X35247967Y50203045D01*
X35128044Y50322968D01*
X35128040Y50322971D01*
X34983705Y50411999D01*
X34983699Y50412002D01*
X34983697Y50412003D01*
X34983694Y50412004D01*
X34822709Y50465349D01*
X34723346Y50475500D01*
X34176662Y50475500D01*
X34176644Y50475499D01*
X34077292Y50465350D01*
X34077289Y50465349D01*
X33916305Y50412004D01*
X33916294Y50411999D01*
X33771959Y50322971D01*
X33771955Y50322968D01*
X33652032Y50203045D01*
X33652029Y50203041D01*
X33563001Y50058706D01*
X33562996Y50058695D01*
X33509651Y49897710D01*
X33499500Y49798353D01*
X33499500Y49201663D01*
X33499501Y49201645D01*
X33509650Y49102293D01*
X33509651Y49102290D01*
X33562996Y48941306D01*
X33563001Y48941295D01*
X33652029Y48796960D01*
X33652032Y48796956D01*
X33771955Y48677033D01*
X33771959Y48677030D01*
X33854598Y48626057D01*
X33901323Y48574109D01*
X33912544Y48505147D01*
X33884701Y48441065D01*
X33853652Y48414403D01*
X33714814Y48330472D01*
X33714810Y48330469D01*
X33594530Y48210189D01*
X33506522Y48064607D01*
X33455913Y47902193D01*
X33449500Y47831614D01*
X33449500Y47296047D01*
X33429815Y47229008D01*
X33377011Y47183253D01*
X33307853Y47173309D01*
X33307018Y47173432D01*
X33127440Y47200500D01*
X33127435Y47200500D01*
X32872565Y47200500D01*
X32872559Y47200500D01*
X32715609Y47176843D01*
X32620542Y47162513D01*
X32620539Y47162512D01*
X32620533Y47162511D01*
X32376992Y47087388D01*
X32147373Y46976810D01*
X32147372Y46976809D01*
X31936782Y46833232D01*
X31749952Y46659879D01*
X31749950Y46659877D01*
X31591041Y46460612D01*
X31463608Y46239891D01*
X31370492Y46002638D01*
X31370490Y46002631D01*
X31313777Y45754155D01*
X31294732Y45500005D01*
X30444776Y45500005D01*
X30411634Y45565051D01*
X30258931Y45775229D01*
X30075229Y45958931D01*
X30015073Y46002637D01*
X29865054Y46111632D01*
X29865053Y46111633D01*
X29865051Y46111634D01*
X29792764Y46148466D01*
X29633576Y46229578D01*
X29386493Y46309860D01*
X29129902Y46350500D01*
X29129897Y46350500D01*
X28870103Y46350500D01*
X28870098Y46350500D01*
X28613506Y46309860D01*
X28366423Y46229578D01*
X28134945Y46111632D01*
X27924774Y45958934D01*
X27924768Y45958929D01*
X27812181Y45846341D01*
X27750858Y45812856D01*
X27681166Y45817840D01*
X27625233Y45859712D01*
X27600816Y45925176D01*
X27600500Y45934022D01*
X27600500Y48917588D01*
X27620185Y48984627D01*
X27627555Y48994903D01*
X27629810Y48997733D01*
X27629816Y48997738D01*
X27725789Y49150478D01*
X27785368Y49320745D01*
X27805565Y49500000D01*
X27785368Y49679255D01*
X27725789Y49849522D01*
X27695510Y49897710D01*
X27629815Y50002263D01*
X27502262Y50129816D01*
X27349523Y50225789D01*
X27179254Y50285369D01*
X27179249Y50285370D01*
X27000004Y50305565D01*
X26999996Y50305565D01*
X26820750Y50285370D01*
X26820745Y50285369D01*
X26650476Y50225789D01*
X26497737Y50129816D01*
X26370184Y50002263D01*
X26274211Y49849524D01*
X26214631Y49679255D01*
X26214630Y49679250D01*
X26194435Y49500004D01*
X26194435Y49499997D01*
X26214630Y49320751D01*
X26214631Y49320746D01*
X26274211Y49150477D01*
X26370185Y48997737D01*
X26372445Y48994903D01*
X26373334Y48992725D01*
X26373889Y48991842D01*
X26373734Y48991745D01*
X26398855Y48930217D01*
X26399500Y48917588D01*
X26399500Y48399862D01*
X26379815Y48332823D01*
X26327011Y48287068D01*
X26257853Y48277124D01*
X26194297Y48306149D01*
X26187819Y48312181D01*
X22500000Y52000000D01*
X5051362Y52000000D01*
X4984323Y52019685D01*
X4963681Y52036319D01*
X4000000Y53000000D01*
X25580140Y53000000D01*
X25600620Y52857545D01*
X25600621Y52857541D01*
X25660407Y52726630D01*
X25660408Y52726629D01*
X25660409Y52726627D01*
X25698028Y52679944D01*
X25698031Y52679941D01*
X25698036Y52679935D01*
X27028452Y51349522D01*
X27179944Y51198030D01*
X27179948Y51198027D01*
X27179950Y51198025D01*
X27226626Y51160409D01*
X27357540Y51100622D01*
X27357541Y51100622D01*
X27357543Y51100621D01*
X27500000Y51080140D01*
X27642457Y51100621D01*
X27773373Y51160409D01*
X27820056Y51198028D01*
X29301970Y52679944D01*
X29339591Y52726627D01*
X29399379Y52857543D01*
X29419860Y53000000D01*
X29399379Y53142457D01*
X29355994Y53237455D01*
X29339592Y53273371D01*
X29339591Y53273372D01*
X29339591Y53273373D01*
X29301972Y53320056D01*
X29301967Y53320061D01*
X29301963Y53320066D01*
X28848675Y53773353D01*
X42524500Y53773353D01*
X42524500Y53226663D01*
X42524501Y53226645D01*
X42534650Y53127293D01*
X42534651Y53127290D01*
X42587996Y52966306D01*
X42588001Y52966295D01*
X42677029Y52821960D01*
X42677032Y52821956D01*
X42796955Y52702033D01*
X42796959Y52702030D01*
X42941294Y52613002D01*
X42941297Y52613001D01*
X42941303Y52612997D01*
X43102292Y52559651D01*
X43201655Y52549500D01*
X43798344Y52549501D01*
X43798352Y52549502D01*
X43798355Y52549502D01*
X43852760Y52555060D01*
X43897708Y52559651D01*
X44006114Y52595574D01*
X44075941Y52597975D01*
X44135983Y52562243D01*
X44167176Y52499723D01*
X44165691Y52448920D01*
X44109547Y52215067D01*
X44089474Y51960000D01*
X44109547Y51704936D01*
X44109547Y51704933D01*
X44109548Y51704930D01*
X44140622Y51575501D01*
X44169279Y51456136D01*
X44267188Y51219761D01*
X44267190Y51219758D01*
X44400875Y51001604D01*
X44400878Y51001599D01*
X44402244Y51000000D01*
X44567044Y50807044D01*
X44691579Y50700681D01*
X44761598Y50640879D01*
X44761603Y50640876D01*
X44979757Y50507191D01*
X44979760Y50507189D01*
X45209559Y50412004D01*
X45216140Y50409278D01*
X45464930Y50349548D01*
X45720000Y50329474D01*
X45975070Y50349548D01*
X46223860Y50409278D01*
X46342051Y50458235D01*
X46460239Y50507189D01*
X46460240Y50507190D01*
X46460243Y50507191D01*
X46678399Y50640877D01*
X46872956Y50807044D01*
X47039123Y51001601D01*
X47172809Y51219757D01*
X47270722Y51456140D01*
X47330452Y51704930D01*
X47350526Y51960000D01*
X47330452Y52215070D01*
X47270722Y52463860D01*
X47235249Y52549500D01*
X47172811Y52700240D01*
X47172809Y52700243D01*
X47076417Y52857541D01*
X47039123Y52918399D01*
X47039122Y52918400D01*
X47039121Y52918402D01*
X46929124Y53047191D01*
X46872956Y53112956D01*
X46739843Y53226645D01*
X46678401Y53279122D01*
X46678396Y53279125D01*
X46460242Y53412810D01*
X46460239Y53412812D01*
X46223864Y53510721D01*
X46223860Y53510722D01*
X45975070Y53570452D01*
X45975067Y53570453D01*
X45975064Y53570453D01*
X45720000Y53590526D01*
X45464935Y53570453D01*
X45464931Y53570453D01*
X45464930Y53570452D01*
X45344759Y53541601D01*
X45216135Y53510721D01*
X44979760Y53412812D01*
X44979757Y53412810D01*
X44761603Y53279125D01*
X44761599Y53279123D01*
X44680030Y53209456D01*
X44616269Y53180886D01*
X44547183Y53191324D01*
X44494707Y53237455D01*
X44475499Y53303745D01*
X44475499Y53773344D01*
X44475410Y53774211D01*
X44465349Y53872708D01*
X44465348Y53872711D01*
X44424448Y53996140D01*
X44412003Y54033697D01*
X44411999Y54033703D01*
X44411998Y54033706D01*
X44322970Y54178041D01*
X44322967Y54178045D01*
X44203044Y54297968D01*
X44203040Y54297971D01*
X44058705Y54386999D01*
X44058699Y54387002D01*
X44058697Y54387003D01*
X43945538Y54424500D01*
X43897709Y54440349D01*
X43798346Y54450500D01*
X43201662Y54450500D01*
X43201644Y54450499D01*
X43102292Y54440350D01*
X43102289Y54440349D01*
X42941305Y54387004D01*
X42941294Y54386999D01*
X42796959Y54297971D01*
X42796955Y54297968D01*
X42677032Y54178045D01*
X42677029Y54178041D01*
X42588001Y54033706D01*
X42587996Y54033695D01*
X42534651Y53872710D01*
X42524500Y53773353D01*
X28848675Y53773353D01*
X27820059Y54801967D01*
X27820053Y54801972D01*
X27820049Y54801976D01*
X27773373Y54839592D01*
X27642459Y54899379D01*
X27642455Y54899380D01*
X27500000Y54919860D01*
X27357544Y54899380D01*
X27357540Y54899379D01*
X27226629Y54839593D01*
X27179934Y54801964D01*
X25698033Y53320060D01*
X25698024Y53320050D01*
X25660408Y53273374D01*
X25600621Y53142460D01*
X25600620Y53142456D01*
X25580140Y53000000D01*
X4000000Y53000000D01*
X536819Y56463181D01*
X503334Y56524504D01*
X500500Y56550862D01*
X500500Y59798353D01*
X26099500Y59798353D01*
X26099500Y59201663D01*
X26099501Y59201645D01*
X26109650Y59102293D01*
X26109651Y59102290D01*
X26162996Y58941306D01*
X26163001Y58941295D01*
X26252029Y58796960D01*
X26252032Y58796956D01*
X26371955Y58677033D01*
X26371959Y58677030D01*
X26516294Y58588002D01*
X26516297Y58588001D01*
X26516303Y58587997D01*
X26677292Y58534651D01*
X26776655Y58524500D01*
X27323344Y58524501D01*
X27323352Y58524502D01*
X27323355Y58524502D01*
X27377760Y58530060D01*
X27422708Y58534651D01*
X27583697Y58587997D01*
X27728044Y58677032D01*
X27847968Y58796956D01*
X27937003Y58941303D01*
X27990349Y59102292D01*
X28000500Y59201655D01*
X28000499Y59798344D01*
X27999761Y59805565D01*
X27990349Y59897708D01*
X27990348Y59897711D01*
X27937003Y60058697D01*
X27936999Y60058703D01*
X27936998Y60058706D01*
X27847970Y60203041D01*
X27847967Y60203045D01*
X27728044Y60322968D01*
X27728040Y60322971D01*
X27583705Y60411999D01*
X27583699Y60412002D01*
X27583697Y60412003D01*
X27583694Y60412004D01*
X27422709Y60465349D01*
X27323346Y60475500D01*
X26776662Y60475500D01*
X26776644Y60475499D01*
X26677292Y60465350D01*
X26677289Y60465349D01*
X26516305Y60412004D01*
X26516294Y60411999D01*
X26371959Y60322971D01*
X26371955Y60322968D01*
X26252032Y60203045D01*
X26252029Y60203041D01*
X26163001Y60058706D01*
X26162996Y60058695D01*
X26109651Y59897710D01*
X26099500Y59798353D01*
X500500Y59798353D01*
X500500Y62298353D01*
X9824500Y62298353D01*
X9824500Y61701663D01*
X9824501Y61701645D01*
X9834650Y61602293D01*
X9834651Y61602290D01*
X9887996Y61441306D01*
X9888001Y61441295D01*
X9977029Y61296960D01*
X9977032Y61296956D01*
X10096955Y61177033D01*
X10096959Y61177030D01*
X10241294Y61088002D01*
X10241297Y61088001D01*
X10241303Y61087997D01*
X10402292Y61034651D01*
X10501655Y61024500D01*
X11048344Y61024501D01*
X11048352Y61024502D01*
X11048355Y61024502D01*
X11102760Y61030060D01*
X11147708Y61034651D01*
X11308697Y61087997D01*
X11453044Y61177032D01*
X11508245Y61232233D01*
X34847907Y61232233D01*
X34868387Y61089778D01*
X34868388Y61089774D01*
X34928174Y60958863D01*
X34928175Y60958862D01*
X34928176Y60958860D01*
X34965795Y60912177D01*
X34965798Y60912174D01*
X34965803Y60912168D01*
X36248158Y59629816D01*
X36447711Y59430263D01*
X36447715Y59430260D01*
X36447717Y59430258D01*
X36494393Y59392642D01*
X36625307Y59332855D01*
X36625308Y59332855D01*
X36625310Y59332854D01*
X36767767Y59312373D01*
X36910224Y59332854D01*
X37041140Y59392642D01*
X37087823Y59430261D01*
X38569737Y60912177D01*
X38607358Y60958860D01*
X38667146Y61089776D01*
X38687627Y61232233D01*
X38667146Y61374690D01*
X38607358Y61505606D01*
X38569739Y61552289D01*
X38569734Y61552294D01*
X38569730Y61552299D01*
X37087826Y63034200D01*
X37087820Y63034205D01*
X37087816Y63034209D01*
X37041140Y63071825D01*
X36910226Y63131612D01*
X36910222Y63131613D01*
X36767767Y63152093D01*
X36625311Y63131613D01*
X36625307Y63131612D01*
X36494396Y63071826D01*
X36447701Y63034197D01*
X34965800Y61552293D01*
X34965791Y61552283D01*
X34928175Y61505607D01*
X34868388Y61374693D01*
X34868387Y61374689D01*
X34847907Y61232233D01*
X11508245Y61232233D01*
X11572968Y61296956D01*
X11662003Y61441303D01*
X11715349Y61602292D01*
X11716577Y61614314D01*
X11724807Y61643443D01*
X11723489Y61643904D01*
X11785366Y61820738D01*
X11785369Y61820751D01*
X11805565Y61999997D01*
X11805565Y62000004D01*
X11785369Y62179250D01*
X11785366Y62179263D01*
X11723490Y62356094D01*
X11724803Y62356554D01*
X11716577Y62385686D01*
X11715349Y62397708D01*
X11715347Y62397712D01*
X11714955Y62399550D01*
X11715042Y62400713D01*
X11714661Y62404443D01*
X11715326Y62404511D01*
X11720173Y62469224D01*
X11762232Y62525017D01*
X11827778Y62549214D01*
X11836209Y62549501D01*
X13207871Y62549501D01*
X13207872Y62549501D01*
X13267483Y62555909D01*
X13402331Y62606204D01*
X13517546Y62692454D01*
X13603796Y62807669D01*
X13654091Y62942517D01*
X13660500Y63002127D01*
X13660499Y64597872D01*
X13654091Y64657483D01*
X13653152Y64660000D01*
X13603797Y64792329D01*
X13603793Y64792336D01*
X13517547Y64907545D01*
X13517544Y64907548D01*
X13402335Y64993794D01*
X13402328Y64993798D01*
X13267482Y65044092D01*
X13267483Y65044092D01*
X13207883Y65050499D01*
X13207881Y65050500D01*
X13207873Y65050500D01*
X13207864Y65050500D01*
X11612129Y65050500D01*
X11612123Y65050499D01*
X11552516Y65044092D01*
X11417671Y64993798D01*
X11417664Y64993794D01*
X11302455Y64907548D01*
X11302452Y64907545D01*
X11216206Y64792336D01*
X11216202Y64792329D01*
X11165908Y64657483D01*
X11160468Y64606879D01*
X11159501Y64597877D01*
X11159500Y64597865D01*
X11159500Y63099500D01*
X11139815Y63032461D01*
X11087011Y62986706D01*
X11035500Y62975500D01*
X10501662Y62975500D01*
X10501644Y62975499D01*
X10402292Y62965350D01*
X10402289Y62965349D01*
X10241305Y62912004D01*
X10241294Y62911999D01*
X10096959Y62822971D01*
X10096955Y62822968D01*
X9977032Y62703045D01*
X9977029Y62703041D01*
X9888001Y62558706D01*
X9887996Y62558695D01*
X9834651Y62397710D01*
X9824500Y62298353D01*
X500500Y62298353D01*
X500500Y71734480D01*
X520185Y71801519D01*
X572989Y71847274D01*
X642147Y71857218D01*
X705703Y71828193D01*
X712181Y71822161D01*
X789811Y71744531D01*
X789813Y71744530D01*
X789815Y71744528D01*
X935394Y71656522D01*
X1097804Y71605914D01*
X1168384Y71599500D01*
X1168387Y71599500D01*
X1831613Y71599500D01*
X1831616Y71599500D01*
X1902196Y71605914D01*
X1939393Y71617506D01*
X2009249Y71618658D01*
X2063963Y71586802D01*
X2169298Y71481467D01*
X2202783Y71420144D01*
X2204837Y71407670D01*
X2214630Y71320751D01*
X2274210Y71150479D01*
X2290325Y71124833D01*
X2370184Y70997738D01*
X2497738Y70870184D01*
X2560939Y70830472D01*
X2632721Y70785368D01*
X2650478Y70774211D01*
X2788860Y70725789D01*
X2820745Y70714632D01*
X2820750Y70714631D01*
X2999996Y70694435D01*
X3000000Y70694435D01*
X3000004Y70694435D01*
X3179249Y70714631D01*
X3179252Y70714632D01*
X3179255Y70714632D01*
X3349522Y70774211D01*
X3502262Y70870184D01*
X3629816Y70997738D01*
X3725789Y71150478D01*
X3785368Y71320745D01*
X3785369Y71320751D01*
X3805565Y71499997D01*
X3805565Y71500004D01*
X3785369Y71679250D01*
X3785368Y71679255D01*
X3742586Y71801519D01*
X3725789Y71849522D01*
X3724508Y71851560D01*
X3643433Y71980591D01*
X3629816Y72002262D01*
X3502262Y72129816D01*
X3433847Y72172804D01*
X3349521Y72225790D01*
X3179249Y72285370D01*
X3092330Y72295163D01*
X3027916Y72322230D01*
X3018533Y72330702D01*
X2776370Y72572865D01*
X6694500Y72572865D01*
X6694500Y70947130D01*
X6694501Y70947124D01*
X6700908Y70887517D01*
X6751202Y70752672D01*
X6751206Y70752665D01*
X6837452Y70637456D01*
X6837455Y70637453D01*
X6952664Y70551207D01*
X6952671Y70551203D01*
X7087517Y70500909D01*
X7087516Y70500909D01*
X7094444Y70500165D01*
X7147127Y70494500D01*
X8772872Y70494501D01*
X8832483Y70500909D01*
X8967331Y70551204D01*
X9082546Y70637454D01*
X9168796Y70752669D01*
X9219091Y70887517D01*
X9225500Y70947127D01*
X9225499Y70980566D01*
X9245182Y71047602D01*
X9297984Y71093358D01*
X9367143Y71103303D01*
X9430699Y71074280D01*
X9451073Y71051689D01*
X9526862Y70943453D01*
X9526868Y70943445D01*
X9683445Y70786868D01*
X9864833Y70659858D01*
X9954530Y70618032D01*
X10065513Y70566280D01*
X10065515Y70566280D01*
X10065520Y70566277D01*
X10279409Y70508965D01*
X10436974Y70495180D01*
X10499998Y70489666D01*
X10500000Y70489666D01*
X10500002Y70489666D01*
X10555276Y70494502D01*
X10720591Y70508965D01*
X10934480Y70566277D01*
X11135167Y70659858D01*
X11316555Y70786868D01*
X11473132Y70943445D01*
X11600142Y71124833D01*
X11657618Y71248093D01*
X11703790Y71300532D01*
X11770983Y71319684D01*
X11837864Y71299469D01*
X11882381Y71248093D01*
X11939858Y71124833D01*
X12066868Y70943445D01*
X12223445Y70786868D01*
X12404833Y70659858D01*
X12494530Y70618032D01*
X12605513Y70566280D01*
X12605515Y70566280D01*
X12605520Y70566277D01*
X12819409Y70508965D01*
X12976974Y70495180D01*
X13039998Y70489666D01*
X13040000Y70489666D01*
X13040002Y70489666D01*
X13095276Y70494502D01*
X13260591Y70508965D01*
X13474480Y70566277D01*
X13675167Y70659858D01*
X13856555Y70786868D01*
X14013132Y70943445D01*
X14140142Y71124833D01*
X14233723Y71325520D01*
X14291035Y71539409D01*
X14310334Y71760000D01*
X14291035Y71980591D01*
X14233723Y72194480D01*
X14221574Y72220533D01*
X14153410Y72366713D01*
X14140142Y72395167D01*
X14013132Y72576555D01*
X13856555Y72733132D01*
X13675167Y72860142D01*
X13671944Y72861645D01*
X13474486Y72953721D01*
X13474475Y72953725D01*
X13260592Y73011035D01*
X13260585Y73011036D01*
X13040002Y73030334D01*
X13039998Y73030334D01*
X12819414Y73011036D01*
X12819407Y73011035D01*
X12605524Y72953725D01*
X12605513Y72953721D01*
X12404836Y72860144D01*
X12404834Y72860143D01*
X12223444Y72733132D01*
X12066868Y72576556D01*
X11939857Y72395166D01*
X11939856Y72395164D01*
X11882382Y72271909D01*
X11836210Y72219469D01*
X11769017Y72200317D01*
X11702135Y72220533D01*
X11657618Y72271909D01*
X11613410Y72366713D01*
X11600142Y72395167D01*
X11473132Y72576555D01*
X11316555Y72733132D01*
X11135167Y72860142D01*
X11131944Y72861645D01*
X10934486Y72953721D01*
X10934475Y72953725D01*
X10720592Y73011035D01*
X10720585Y73011036D01*
X10500002Y73030334D01*
X10499998Y73030334D01*
X10279414Y73011036D01*
X10279407Y73011035D01*
X10065524Y72953725D01*
X10065513Y72953721D01*
X9864836Y72860144D01*
X9864834Y72860143D01*
X9683444Y72733132D01*
X9526868Y72576556D01*
X9524288Y72572871D01*
X9471680Y72497738D01*
X9451074Y72468310D01*
X9396497Y72424685D01*
X9326998Y72417493D01*
X9264644Y72449015D01*
X9229230Y72509245D01*
X9225499Y72539434D01*
X9225499Y72572871D01*
X9225498Y72572877D01*
X9225497Y72572884D01*
X9219091Y72632483D01*
X9212379Y72650478D01*
X9168797Y72767329D01*
X9168793Y72767336D01*
X9082547Y72882545D01*
X9082544Y72882548D01*
X8967335Y72968794D01*
X8967328Y72968798D01*
X8832482Y73019092D01*
X8832483Y73019092D01*
X8772883Y73025499D01*
X8772881Y73025500D01*
X8772873Y73025500D01*
X8772864Y73025500D01*
X7147129Y73025500D01*
X7147123Y73025499D01*
X7087516Y73019092D01*
X6952671Y72968798D01*
X6952664Y72968794D01*
X6837455Y72882548D01*
X6837452Y72882545D01*
X6751206Y72767336D01*
X6751202Y72767329D01*
X6700908Y72632483D01*
X6694896Y72576556D01*
X6694501Y72572877D01*
X6694500Y72572865D01*
X2776370Y72572865D01*
X2487590Y72861645D01*
X2487588Y72861648D01*
X2466727Y72882509D01*
X2436023Y72933300D01*
X2418478Y72989606D01*
X2330472Y73135185D01*
X2330470Y73135187D01*
X2330469Y73135189D01*
X2228339Y73237319D01*
X2194854Y73298642D01*
X2199838Y73368334D01*
X2228339Y73412681D01*
X2330468Y73514811D01*
X2330469Y73514812D01*
X2330472Y73514815D01*
X2418478Y73660394D01*
X2469086Y73822804D01*
X2475500Y73893384D01*
X2475500Y74406616D01*
X2469086Y74477196D01*
X2418478Y74639606D01*
X2330472Y74785185D01*
X2330470Y74785187D01*
X2330469Y74785189D01*
X2210188Y74905470D01*
X2208196Y74906674D01*
X2064606Y74993478D01*
X1902196Y75044086D01*
X1902194Y75044087D01*
X1902192Y75044087D01*
X1852778Y75048577D01*
X1831616Y75050500D01*
X1168384Y75050500D01*
X1149145Y75048752D01*
X1097807Y75044087D01*
X935393Y74993478D01*
X789811Y74905470D01*
X789810Y74905469D01*
X712181Y74827839D01*
X650858Y74794354D01*
X581166Y74799338D01*
X525233Y74841210D01*
X500816Y74906674D01*
X500500Y74915520D01*
X500500Y76734480D01*
X520185Y76801519D01*
X572989Y76847274D01*
X642147Y76857218D01*
X705703Y76828193D01*
X712181Y76822161D01*
X789811Y76744531D01*
X789813Y76744530D01*
X789815Y76744528D01*
X935394Y76656522D01*
X1097804Y76605914D01*
X1168384Y76599500D01*
X1168387Y76599500D01*
X1831613Y76599500D01*
X1831616Y76599500D01*
X1902196Y76605914D01*
X2064606Y76656522D01*
X2210185Y76744528D01*
X2267176Y76801519D01*
X2328839Y76863181D01*
X2390162Y76896666D01*
X2416520Y76899500D01*
X3417588Y76899500D01*
X3484627Y76879815D01*
X3494903Y76872445D01*
X3497736Y76870186D01*
X3497738Y76870184D01*
X3574166Y76822161D01*
X3638234Y76781904D01*
X3650478Y76774211D01*
X3771725Y76731785D01*
X3820745Y76714632D01*
X3820750Y76714631D01*
X3999996Y76694435D01*
X4000000Y76694435D01*
X4000004Y76694435D01*
X4179249Y76714631D01*
X4179252Y76714632D01*
X4179255Y76714632D01*
X4349522Y76774211D01*
X4502262Y76870184D01*
X4629816Y76997738D01*
X4725789Y77150478D01*
X4785368Y77320745D01*
X4785369Y77320751D01*
X4805565Y77499997D01*
X4805565Y77500004D01*
X4785369Y77679250D01*
X4785368Y77679255D01*
X4741170Y77805565D01*
X4725789Y77849522D01*
X4629816Y78002262D01*
X4502262Y78129816D01*
X4491117Y78136819D01*
X4349523Y78225789D01*
X4179254Y78285369D01*
X4179249Y78285370D01*
X4000004Y78305565D01*
X3999996Y78305565D01*
X3820750Y78285370D01*
X3820745Y78285369D01*
X3650476Y78225789D01*
X3497736Y78129815D01*
X3494903Y78127555D01*
X3492724Y78126666D01*
X3491842Y78126111D01*
X3491744Y78126266D01*
X3430217Y78101145D01*
X3417588Y78100500D01*
X2416520Y78100500D01*
X2349481Y78120185D01*
X2328839Y78136819D01*
X2228339Y78237319D01*
X2194854Y78298642D01*
X2199838Y78368334D01*
X2228339Y78412681D01*
X2330468Y78514811D01*
X2330469Y78514812D01*
X2330472Y78514815D01*
X2418478Y78660394D01*
X2469086Y78822804D01*
X2475500Y78893384D01*
X2475500Y79406616D01*
X2469086Y79477196D01*
X2418478Y79639606D01*
X2330472Y79785185D01*
X2330470Y79785187D01*
X2330469Y79785189D01*
X2210188Y79905470D01*
X2208196Y79906674D01*
X2064606Y79993478D01*
X1902196Y80044086D01*
X1902194Y80044087D01*
X1902192Y80044087D01*
X1852778Y80048577D01*
X1831616Y80050500D01*
X1168384Y80050500D01*
X1149145Y80048752D01*
X1097807Y80044087D01*
X935393Y79993478D01*
X789811Y79905470D01*
X789810Y79905469D01*
X712181Y79827839D01*
X650858Y79794354D01*
X581166Y79799338D01*
X525233Y79841210D01*
X500816Y79906674D01*
X500500Y79915520D01*
X500500Y81734480D01*
X520185Y81801519D01*
X572989Y81847274D01*
X642147Y81857218D01*
X705703Y81828193D01*
X712181Y81822161D01*
X789811Y81744531D01*
X789813Y81744530D01*
X789815Y81744528D01*
X935394Y81656522D01*
X1097804Y81605914D01*
X1168384Y81599500D01*
X1168387Y81599500D01*
X1831613Y81599500D01*
X1831616Y81599500D01*
X1902196Y81605914D01*
X2064606Y81656522D01*
X2210185Y81744528D01*
X2267176Y81801519D01*
X2328839Y81863181D01*
X2390162Y81896666D01*
X2416520Y81899500D01*
X16917588Y81899500D01*
X16984627Y81879815D01*
X16994903Y81872445D01*
X16997736Y81870186D01*
X16997738Y81870184D01*
X17150478Y81774211D01*
X17264023Y81734480D01*
X17320745Y81714632D01*
X17320750Y81714631D01*
X17499996Y81694435D01*
X17500000Y81694435D01*
X17500004Y81694435D01*
X17679249Y81714631D01*
X17679252Y81714632D01*
X17679255Y81714632D01*
X17849522Y81774211D01*
X18002262Y81870184D01*
X18129816Y81997738D01*
X18167129Y82057123D01*
X18219460Y82103411D01*
X18288513Y82114061D01*
X18352362Y82085687D01*
X18359802Y82078830D01*
X19873030Y80565603D01*
X20417049Y80021584D01*
X20521584Y79917049D01*
X20521587Y79917047D01*
X20521588Y79917046D01*
X20644503Y79834917D01*
X20646487Y79833856D01*
X20647330Y79833028D01*
X20649570Y79831531D01*
X20649286Y79831107D01*
X20696330Y79784892D01*
X20711788Y79716754D01*
X20687954Y79651075D01*
X20632395Y79608708D01*
X20588030Y79600500D01*
X20586669Y79600500D01*
X20586653Y79600501D01*
X20579057Y79600501D01*
X20420943Y79600501D01*
X20313587Y79571735D01*
X20268210Y79559576D01*
X20268209Y79559575D01*
X20233066Y79539284D01*
X20233064Y79539283D01*
X20131290Y79480525D01*
X20131282Y79480519D01*
X17519481Y76868718D01*
X17519479Y76868715D01*
X17469361Y76781906D01*
X17469359Y76781904D01*
X17440425Y76731791D01*
X17440424Y76731790D01*
X17432477Y76702130D01*
X17399499Y76579057D01*
X17399499Y76579055D01*
X17399499Y76410954D01*
X17399500Y76410941D01*
X17399500Y72864942D01*
X17379815Y72797903D01*
X17346625Y72763368D01*
X17303447Y72733134D01*
X17303441Y72733129D01*
X17146868Y72576556D01*
X17019857Y72395166D01*
X17019856Y72395164D01*
X16926279Y72194487D01*
X16926275Y72194476D01*
X16868965Y71980593D01*
X16868964Y71980586D01*
X16849666Y71760002D01*
X16849666Y71759999D01*
X16868964Y71539415D01*
X16868965Y71539408D01*
X16926275Y71325525D01*
X16926279Y71325514D01*
X17007900Y71150477D01*
X17019858Y71124833D01*
X17146868Y70943445D01*
X17303445Y70786868D01*
X17484833Y70659858D01*
X17574530Y70618032D01*
X17685513Y70566280D01*
X17685515Y70566280D01*
X17685520Y70566277D01*
X17899409Y70508965D01*
X18056974Y70495180D01*
X18119998Y70489666D01*
X18120000Y70489666D01*
X18120002Y70489666D01*
X18175276Y70494502D01*
X18340591Y70508965D01*
X18554480Y70566277D01*
X18755167Y70659858D01*
X18936555Y70786868D01*
X19093132Y70943445D01*
X19220142Y71124833D01*
X19277618Y71248093D01*
X19323790Y71300532D01*
X19390983Y71319684D01*
X19457864Y71299469D01*
X19502381Y71248093D01*
X19559858Y71124833D01*
X19686868Y70943445D01*
X19843445Y70786868D01*
X20006625Y70672608D01*
X20050248Y70618032D01*
X20059500Y70571034D01*
X20059500Y69460098D01*
X20039815Y69393059D01*
X20023181Y69372417D01*
X18787584Y68136819D01*
X18726261Y68103334D01*
X18699903Y68100500D01*
X10804057Y68100500D01*
X10645943Y68100500D01*
X10493215Y68059577D01*
X10493214Y68059577D01*
X10493212Y68059576D01*
X10493209Y68059575D01*
X10443096Y68030641D01*
X10443095Y68030640D01*
X10429523Y68022804D01*
X10356285Y67980521D01*
X10356282Y67980519D01*
X10244478Y67868714D01*
X8887582Y66511819D01*
X8826259Y66478334D01*
X8799901Y66475500D01*
X8451662Y66475500D01*
X8451644Y66475499D01*
X8352292Y66465350D01*
X8352289Y66465349D01*
X8191305Y66412004D01*
X8191294Y66411999D01*
X8046959Y66322971D01*
X8046955Y66322968D01*
X7927032Y66203045D01*
X7927029Y66203041D01*
X7838001Y66058706D01*
X7837996Y66058695D01*
X7784651Y65897710D01*
X7774500Y65798353D01*
X7774500Y65201663D01*
X7774501Y65201645D01*
X7784650Y65102293D01*
X7784651Y65102290D01*
X7837996Y64941306D01*
X7841051Y64934755D01*
X7839657Y64934106D01*
X7855880Y64874804D01*
X7834952Y64808142D01*
X7803027Y64775536D01*
X7783128Y64761602D01*
X7783125Y64761600D01*
X7628400Y64606876D01*
X7502900Y64427643D01*
X7502898Y64427639D01*
X7410426Y64229332D01*
X7410422Y64229323D01*
X7353793Y64017980D01*
X7353793Y64017976D01*
X7334723Y63800003D01*
X7334723Y63799998D01*
X7353793Y63582025D01*
X7353793Y63582021D01*
X7410422Y63370678D01*
X7410424Y63370674D01*
X7410425Y63370670D01*
X7456661Y63271516D01*
X7502897Y63172362D01*
X7502898Y63172361D01*
X7628402Y62993123D01*
X7783123Y62838402D01*
X7962361Y62712898D01*
X8160670Y62620425D01*
X8372023Y62563793D01*
X8554926Y62547792D01*
X8589998Y62544723D01*
X8590000Y62544723D01*
X8590002Y62544723D01*
X8618254Y62547195D01*
X8807977Y62563793D01*
X9019330Y62620425D01*
X9217639Y62712898D01*
X9396877Y62838402D01*
X9551598Y62993123D01*
X9677102Y63172361D01*
X9769575Y63370670D01*
X9826207Y63582023D01*
X9845277Y63800000D01*
X9826207Y64017977D01*
X9769575Y64229330D01*
X9677102Y64427638D01*
X9677100Y64427641D01*
X9677099Y64427643D01*
X9551597Y64606879D01*
X9529709Y64628767D01*
X9496224Y64690090D01*
X9501208Y64759782D01*
X9520122Y64793357D01*
X9522963Y64796952D01*
X9522968Y64796956D01*
X9612003Y64941303D01*
X9665349Y65102292D01*
X9675500Y65201655D01*
X9675499Y65549905D01*
X9695183Y65616943D01*
X9711813Y65637580D01*
X10937416Y66863181D01*
X10998739Y66896666D01*
X11025097Y66899500D01*
X18913331Y66899500D01*
X18913347Y66899499D01*
X18920943Y66899499D01*
X19079054Y66899499D01*
X19079057Y66899499D01*
X19231785Y66940423D01*
X19281904Y66969361D01*
X19368716Y67019480D01*
X19480520Y67131284D01*
X19480520Y67131286D01*
X19490728Y67141493D01*
X19490729Y67141496D01*
X21140520Y68791284D01*
X21219577Y68928216D01*
X21260501Y69080943D01*
X21260501Y69239058D01*
X21260501Y69246653D01*
X21260500Y69246671D01*
X21260500Y70571034D01*
X21280185Y70638073D01*
X21313373Y70672607D01*
X21476555Y70786868D01*
X21633132Y70943445D01*
X21760142Y71124833D01*
X21817618Y71248093D01*
X21863790Y71300532D01*
X21930983Y71319684D01*
X21997864Y71299469D01*
X22042381Y71248093D01*
X22099858Y71124833D01*
X22226868Y70943445D01*
X22383445Y70786868D01*
X22564833Y70659858D01*
X22654530Y70618032D01*
X22765513Y70566280D01*
X22765515Y70566280D01*
X22765520Y70566277D01*
X22979409Y70508965D01*
X23136974Y70495180D01*
X23199998Y70489666D01*
X23200000Y70489666D01*
X23200001Y70489666D01*
X23210703Y70490603D01*
X23318261Y70500013D01*
X23386758Y70486247D01*
X23436941Y70437632D01*
X23452875Y70369603D01*
X23452557Y70365266D01*
X23449500Y70331617D01*
X23449500Y69668387D01*
X23455913Y69597808D01*
X23455913Y69597806D01*
X23455914Y69597804D01*
X23506522Y69435394D01*
X23522649Y69408716D01*
X23594530Y69289812D01*
X23714811Y69169531D01*
X23714813Y69169530D01*
X23714815Y69169528D01*
X23860394Y69081522D01*
X24022804Y69030914D01*
X24093384Y69024500D01*
X24093387Y69024500D01*
X24606613Y69024500D01*
X24606616Y69024500D01*
X24677196Y69030914D01*
X24839606Y69081522D01*
X24985185Y69169528D01*
X25033991Y69218334D01*
X25087319Y69271661D01*
X25148642Y69305146D01*
X25218334Y69300162D01*
X25262681Y69271661D01*
X25364811Y69169531D01*
X25364813Y69169530D01*
X25364815Y69169528D01*
X25510394Y69081522D01*
X25672804Y69030914D01*
X25743384Y69024500D01*
X25743387Y69024500D01*
X26256613Y69024500D01*
X26256616Y69024500D01*
X26327196Y69030914D01*
X26489606Y69081522D01*
X26635185Y69169528D01*
X26755472Y69289815D01*
X26843478Y69435394D01*
X26857900Y69481679D01*
X26896635Y69539825D01*
X26960660Y69567800D01*
X27029646Y69556719D01*
X27081690Y69510102D01*
X27082368Y69508994D01*
X27169528Y69364815D01*
X27169530Y69364813D01*
X27169532Y69364810D01*
X27271661Y69262681D01*
X27305146Y69201358D01*
X27300162Y69131666D01*
X27271661Y69087319D01*
X27169531Y68985190D01*
X27169530Y68985189D01*
X27081522Y68839607D01*
X27030913Y68677193D01*
X27024500Y68606614D01*
X27024500Y68093387D01*
X27030913Y68022808D01*
X27081522Y67860394D01*
X27169530Y67714812D01*
X27289811Y67594531D01*
X27289813Y67594530D01*
X27289815Y67594528D01*
X27339650Y67564402D01*
X27386838Y67512874D01*
X27399500Y67458285D01*
X27399500Y67193576D01*
X27381039Y67128480D01*
X27338000Y67058704D01*
X27337996Y67058695D01*
X27284651Y66897710D01*
X27274500Y66798353D01*
X27274500Y66201663D01*
X27274501Y66201645D01*
X27284650Y66102293D01*
X27284651Y66102290D01*
X27337996Y65941306D01*
X27338001Y65941295D01*
X27427029Y65796960D01*
X27427032Y65796956D01*
X27546955Y65677033D01*
X27546959Y65677030D01*
X27691294Y65588002D01*
X27691297Y65588001D01*
X27691303Y65587997D01*
X27852292Y65534651D01*
X27951655Y65524500D01*
X28498344Y65524501D01*
X28498352Y65524502D01*
X28498355Y65524502D01*
X28552760Y65530060D01*
X28597708Y65534651D01*
X28758697Y65587997D01*
X28903044Y65677032D01*
X29022968Y65796956D01*
X29112003Y65941303D01*
X29165349Y66102292D01*
X29175500Y66201655D01*
X29175499Y66798344D01*
X29174761Y66805565D01*
X29165349Y66897708D01*
X29165348Y66897711D01*
X29151194Y66940424D01*
X29112003Y67058697D01*
X29111999Y67058704D01*
X29111998Y67058706D01*
X29022970Y67203041D01*
X29022967Y67203045D01*
X28903044Y67322968D01*
X28903040Y67322971D01*
X28752550Y67415795D01*
X28753683Y67417633D01*
X28709190Y67456811D01*
X28690040Y67524005D01*
X28710258Y67590886D01*
X28726350Y67610694D01*
X28830472Y67714815D01*
X28918478Y67860394D01*
X28969086Y68022804D01*
X28975500Y68093384D01*
X28975500Y68606616D01*
X28969086Y68677196D01*
X28918478Y68839606D01*
X28830472Y68985185D01*
X28830470Y68985187D01*
X28830469Y68985189D01*
X28728339Y69087319D01*
X28694854Y69148642D01*
X28699838Y69218334D01*
X28728339Y69262681D01*
X28830468Y69364811D01*
X28830469Y69364812D01*
X28830472Y69364815D01*
X28918478Y69510394D01*
X28969086Y69672804D01*
X28975500Y69743384D01*
X28975500Y70256616D01*
X28969086Y70327196D01*
X28918478Y70489606D01*
X28905162Y70511633D01*
X28887326Y70579186D01*
X28908843Y70645659D01*
X28940151Y70677353D01*
X29096555Y70786868D01*
X29253132Y70943445D01*
X29380142Y71124833D01*
X29437618Y71248093D01*
X29483790Y71300532D01*
X29550983Y71319684D01*
X29617864Y71299469D01*
X29662381Y71248093D01*
X29719858Y71124833D01*
X29846868Y70943445D01*
X30003445Y70786868D01*
X30184833Y70659858D01*
X30274530Y70618032D01*
X30385513Y70566280D01*
X30385515Y70566280D01*
X30385520Y70566277D01*
X30599409Y70508965D01*
X30756974Y70495180D01*
X30819998Y70489666D01*
X30820000Y70489666D01*
X30820002Y70489666D01*
X30875276Y70494502D01*
X31040591Y70508965D01*
X31254480Y70566277D01*
X31455167Y70659858D01*
X31636555Y70786868D01*
X31793132Y70943445D01*
X31920142Y71124833D01*
X31977618Y71248093D01*
X32023790Y71300532D01*
X32090983Y71319684D01*
X32157864Y71299469D01*
X32202381Y71248093D01*
X32259858Y71124833D01*
X32386868Y70943445D01*
X32543445Y70786868D01*
X32724833Y70659858D01*
X32814530Y70618032D01*
X32925513Y70566280D01*
X32925515Y70566280D01*
X32925520Y70566277D01*
X33139409Y70508965D01*
X33296974Y70495180D01*
X33359998Y70489666D01*
X33360000Y70489666D01*
X33360002Y70489666D01*
X33415276Y70494502D01*
X33580591Y70508965D01*
X33794480Y70566277D01*
X33995167Y70659858D01*
X34176555Y70786868D01*
X34333132Y70943445D01*
X34460142Y71124833D01*
X34517618Y71248093D01*
X34563790Y71300532D01*
X34630983Y71319684D01*
X34697864Y71299469D01*
X34742381Y71248093D01*
X34799858Y71124833D01*
X34926868Y70943445D01*
X35083445Y70786868D01*
X35264833Y70659858D01*
X35354530Y70618032D01*
X35465513Y70566280D01*
X35465515Y70566280D01*
X35465520Y70566277D01*
X35679409Y70508965D01*
X35836974Y70495180D01*
X35899998Y70489666D01*
X35900000Y70489666D01*
X35900002Y70489666D01*
X35955276Y70494502D01*
X36120591Y70508965D01*
X36334480Y70566277D01*
X36535167Y70659858D01*
X36716555Y70786868D01*
X36873132Y70943445D01*
X37000142Y71124833D01*
X37057618Y71248093D01*
X37103790Y71300532D01*
X37170983Y71319684D01*
X37237864Y71299469D01*
X37282381Y71248093D01*
X37339858Y71124833D01*
X37466868Y70943445D01*
X37623445Y70786868D01*
X37804833Y70659858D01*
X37894530Y70618032D01*
X38005513Y70566280D01*
X38005515Y70566280D01*
X38005520Y70566277D01*
X38219409Y70508965D01*
X38376974Y70495180D01*
X38439998Y70489666D01*
X38440000Y70489666D01*
X38440002Y70489666D01*
X38495276Y70494502D01*
X38660591Y70508965D01*
X38874480Y70566277D01*
X39075167Y70659858D01*
X39256555Y70786868D01*
X39413132Y70943445D01*
X39540142Y71124833D01*
X39597618Y71248093D01*
X39643790Y71300532D01*
X39710983Y71319684D01*
X39777864Y71299469D01*
X39822381Y71248093D01*
X39879858Y71124833D01*
X40006868Y70943445D01*
X40163445Y70786868D01*
X40344833Y70659858D01*
X40434530Y70618032D01*
X40545513Y70566280D01*
X40545515Y70566280D01*
X40545520Y70566277D01*
X40759409Y70508965D01*
X40916974Y70495180D01*
X40979998Y70489666D01*
X40980000Y70489666D01*
X40980002Y70489666D01*
X41035276Y70494502D01*
X41200591Y70508965D01*
X41414480Y70566277D01*
X41615167Y70659858D01*
X41796555Y70786868D01*
X41953132Y70943445D01*
X42080142Y71124833D01*
X42137618Y71248093D01*
X42183790Y71300532D01*
X42250983Y71319684D01*
X42317864Y71299469D01*
X42362381Y71248093D01*
X42419858Y71124833D01*
X42546868Y70943445D01*
X42703445Y70786868D01*
X42884833Y70659858D01*
X42974530Y70618032D01*
X43085513Y70566280D01*
X43085515Y70566280D01*
X43085520Y70566277D01*
X43299409Y70508965D01*
X43366654Y70503083D01*
X43431723Y70477632D01*
X43443529Y70467236D01*
X45083181Y68827584D01*
X45116666Y68766261D01*
X45119500Y68739903D01*
X45119500Y66253548D01*
X45099815Y66186509D01*
X45047011Y66140754D01*
X45042954Y66138988D01*
X44979762Y66112813D01*
X44979757Y66112810D01*
X44761603Y65979125D01*
X44761598Y65979122D01*
X44567044Y65812956D01*
X44400878Y65618402D01*
X44400875Y65618397D01*
X44267190Y65400243D01*
X44267188Y65400240D01*
X44169279Y65163865D01*
X44109547Y64915065D01*
X44089474Y64660000D01*
X44109547Y64404936D01*
X44109547Y64404933D01*
X44109548Y64404930D01*
X44151708Y64229323D01*
X44169279Y64156136D01*
X44267188Y63919761D01*
X44267190Y63919758D01*
X44400875Y63701604D01*
X44400878Y63701599D01*
X44476200Y63613409D01*
X44567044Y63507044D01*
X44624855Y63457669D01*
X44761598Y63340879D01*
X44761603Y63340876D01*
X44979757Y63207191D01*
X44979760Y63207189D01*
X45216135Y63109280D01*
X45216140Y63109278D01*
X45464930Y63049548D01*
X45720000Y63029474D01*
X45975070Y63049548D01*
X46223860Y63109278D01*
X46376156Y63172361D01*
X46460239Y63207189D01*
X46460240Y63207190D01*
X46460243Y63207191D01*
X46678399Y63340877D01*
X46872956Y63507044D01*
X47039123Y63701601D01*
X47172809Y63919757D01*
X47270722Y64156140D01*
X47330452Y64404930D01*
X47350526Y64660000D01*
X47330452Y64915070D01*
X47270722Y65163860D01*
X47270720Y65163865D01*
X47172811Y65400240D01*
X47172809Y65400243D01*
X47168372Y65407483D01*
X47039123Y65618399D01*
X47039122Y65618400D01*
X47039121Y65618402D01*
X46932024Y65743796D01*
X46872956Y65812956D01*
X46722681Y65941303D01*
X46678401Y65979122D01*
X46678396Y65979125D01*
X46460242Y66112810D01*
X46460237Y66112813D01*
X46397046Y66138988D01*
X46342643Y66182829D01*
X46320579Y66249124D01*
X46320500Y66253548D01*
X46320500Y68950941D01*
X46320501Y68950954D01*
X46320501Y69119055D01*
X46320501Y69119057D01*
X46279577Y69271785D01*
X46222766Y69370184D01*
X46221477Y69372417D01*
X46200522Y69408713D01*
X46200521Y69408714D01*
X46200520Y69408716D01*
X46088716Y69520520D01*
X46088715Y69520521D01*
X46084385Y69524851D01*
X46084374Y69524861D01*
X44637737Y70971498D01*
X44604252Y71032821D01*
X44609236Y71102513D01*
X44618037Y71121190D01*
X44620127Y71124813D01*
X44620142Y71124833D01*
X44713723Y71325520D01*
X44771035Y71539409D01*
X44790334Y71760000D01*
X44771035Y71980591D01*
X44713723Y72194480D01*
X44701574Y72220533D01*
X44633410Y72366713D01*
X44620142Y72395167D01*
X44493132Y72576555D01*
X44336555Y72733132D01*
X44155167Y72860142D01*
X44151944Y72861645D01*
X43954486Y72953721D01*
X43954475Y72953725D01*
X43740592Y73011035D01*
X43740585Y73011036D01*
X43520002Y73030334D01*
X43519998Y73030334D01*
X43299414Y73011036D01*
X43299407Y73011035D01*
X43085524Y72953725D01*
X43085513Y72953721D01*
X42884836Y72860144D01*
X42884834Y72860143D01*
X42703444Y72733132D01*
X42546868Y72576556D01*
X42419857Y72395166D01*
X42419856Y72395164D01*
X42362382Y72271909D01*
X42316210Y72219469D01*
X42249017Y72200317D01*
X42182135Y72220533D01*
X42137618Y72271909D01*
X42093410Y72366713D01*
X42080142Y72395167D01*
X41953132Y72576555D01*
X41796555Y72733132D01*
X41615167Y72860142D01*
X41611944Y72861645D01*
X41414486Y72953721D01*
X41414475Y72953725D01*
X41200592Y73011035D01*
X41200585Y73011036D01*
X40980002Y73030334D01*
X40979998Y73030334D01*
X40759414Y73011036D01*
X40759407Y73011035D01*
X40545524Y72953725D01*
X40545513Y72953721D01*
X40344836Y72860144D01*
X40344834Y72860143D01*
X40163444Y72733132D01*
X40006868Y72576556D01*
X39879857Y72395166D01*
X39879856Y72395164D01*
X39822382Y72271909D01*
X39776210Y72219469D01*
X39709017Y72200317D01*
X39642135Y72220533D01*
X39597618Y72271909D01*
X39553410Y72366713D01*
X39540142Y72395167D01*
X39413132Y72576555D01*
X39256555Y72733132D01*
X39075167Y72860142D01*
X39071944Y72861645D01*
X38874486Y72953721D01*
X38874475Y72953725D01*
X38660592Y73011035D01*
X38660585Y73011036D01*
X38440002Y73030334D01*
X38439998Y73030334D01*
X38219414Y73011036D01*
X38219400Y73011033D01*
X38145643Y72991271D01*
X38075793Y72992935D01*
X38025870Y73023365D01*
X37687590Y73361645D01*
X37687588Y73361648D01*
X37568717Y73480519D01*
X37568709Y73480525D01*
X37466936Y73539283D01*
X37466934Y73539284D01*
X37431790Y73559575D01*
X37431789Y73559576D01*
X37419263Y73562933D01*
X37279057Y73600501D01*
X37120943Y73600501D01*
X37113347Y73600501D01*
X37113331Y73600500D01*
X36375097Y73600500D01*
X36308058Y73620185D01*
X36287416Y73636819D01*
X34586416Y75337819D01*
X34552931Y75399142D01*
X34557915Y75468834D01*
X34599787Y75524767D01*
X34665251Y75549184D01*
X34674097Y75549500D01*
X36658920Y75549500D01*
X36756462Y75568904D01*
X36803913Y75578342D01*
X36940495Y75634916D01*
X37063416Y75717049D01*
X37167951Y75821584D01*
X37250084Y75944505D01*
X37306658Y76081087D01*
X37332934Y76213182D01*
X37335500Y76226080D01*
X37335500Y78688919D01*
X37330385Y78714632D01*
X37324525Y78744091D01*
X37324525Y78744094D01*
X37308868Y78822804D01*
X37306659Y78833912D01*
X37252408Y78964883D01*
X37250765Y78969475D01*
X37250084Y78970495D01*
X37185194Y79067610D01*
X37167952Y79093415D01*
X37167950Y79093418D01*
X37167947Y79093421D01*
X35178421Y81082948D01*
X35178414Y81082954D01*
X35104729Y81132188D01*
X35104729Y81132187D01*
X35055491Y81165087D01*
X34918917Y81221657D01*
X34918907Y81221660D01*
X34773920Y81250500D01*
X34773918Y81250500D01*
X21362229Y81250500D01*
X21295190Y81270185D01*
X21274548Y81286819D01*
X16553208Y86008160D01*
X16519723Y86069483D01*
X16524707Y86139175D01*
X16550202Y86178841D01*
X16549654Y86179301D01*
X16553125Y86183439D01*
X16553132Y86183445D01*
X16680142Y86364833D01*
X16737618Y86488093D01*
X16783790Y86540532D01*
X16850983Y86559684D01*
X16917864Y86539469D01*
X16962381Y86488093D01*
X17019858Y86364833D01*
X17146868Y86183445D01*
X17303445Y86026868D01*
X17484833Y85899858D01*
X17548470Y85870184D01*
X17685513Y85806280D01*
X17685515Y85806280D01*
X17685520Y85806277D01*
X17899409Y85748965D01*
X18056974Y85735180D01*
X18119998Y85729666D01*
X18120000Y85729666D01*
X18120002Y85729666D01*
X18177825Y85734725D01*
X18340591Y85748965D01*
X18554480Y85806277D01*
X18755167Y85899858D01*
X18936555Y86026868D01*
X19093132Y86183445D01*
X19220142Y86364833D01*
X19277618Y86488093D01*
X19323790Y86540532D01*
X19390983Y86559684D01*
X19457864Y86539469D01*
X19502381Y86488093D01*
X19559858Y86364833D01*
X19686868Y86183445D01*
X19843445Y86026868D01*
X20024833Y85899858D01*
X20088470Y85870184D01*
X20225513Y85806280D01*
X20225515Y85806280D01*
X20225520Y85806277D01*
X20439409Y85748965D01*
X20596974Y85735180D01*
X20659998Y85729666D01*
X20660000Y85729666D01*
X20660002Y85729666D01*
X20717825Y85734725D01*
X20880591Y85748965D01*
X21094480Y85806277D01*
X21295167Y85899858D01*
X21476555Y86026868D01*
X21633132Y86183445D01*
X21760142Y86364833D01*
X21817618Y86488093D01*
X21863790Y86540532D01*
X21930983Y86559684D01*
X21997864Y86539469D01*
X22042381Y86488093D01*
X22099858Y86364833D01*
X22226868Y86183445D01*
X22383445Y86026868D01*
X22564833Y85899858D01*
X22628470Y85870184D01*
X22765513Y85806280D01*
X22765515Y85806280D01*
X22765520Y85806277D01*
X22979409Y85748965D01*
X23136974Y85735180D01*
X23199998Y85729666D01*
X23200000Y85729666D01*
X23200002Y85729666D01*
X23257825Y85734725D01*
X23420591Y85748965D01*
X23634480Y85806277D01*
X23835167Y85899858D01*
X24016555Y86026868D01*
X24173132Y86183445D01*
X24300142Y86364833D01*
X24357618Y86488093D01*
X24403790Y86540532D01*
X24470983Y86559684D01*
X24537864Y86539469D01*
X24582381Y86488093D01*
X24639858Y86364833D01*
X24766868Y86183445D01*
X24923445Y86026868D01*
X25104833Y85899858D01*
X25168470Y85870184D01*
X25305513Y85806280D01*
X25305515Y85806280D01*
X25305520Y85806277D01*
X25519409Y85748965D01*
X25676974Y85735180D01*
X25739998Y85729666D01*
X25740000Y85729666D01*
X25740002Y85729666D01*
X25797825Y85734725D01*
X25960591Y85748965D01*
X26174480Y85806277D01*
X26375167Y85899858D01*
X26556555Y86026868D01*
X26713132Y86183445D01*
X26840142Y86364833D01*
X26897618Y86488093D01*
X26943790Y86540532D01*
X27010983Y86559684D01*
X27077864Y86539469D01*
X27122381Y86488093D01*
X27179858Y86364833D01*
X27306868Y86183445D01*
X27463445Y86026868D01*
X27644833Y85899858D01*
X27708470Y85870184D01*
X27845513Y85806280D01*
X27845515Y85806280D01*
X27845520Y85806277D01*
X28059409Y85748965D01*
X28216974Y85735180D01*
X28279998Y85729666D01*
X28280000Y85729666D01*
X28280002Y85729666D01*
X28337825Y85734725D01*
X28500591Y85748965D01*
X28714480Y85806277D01*
X28915167Y85899858D01*
X29096555Y86026868D01*
X29253132Y86183445D01*
X29380142Y86364833D01*
X29437618Y86488093D01*
X29483790Y86540532D01*
X29550983Y86559684D01*
X29617864Y86539469D01*
X29662381Y86488093D01*
X29719858Y86364833D01*
X29846868Y86183445D01*
X30003445Y86026868D01*
X30184833Y85899858D01*
X30248470Y85870184D01*
X30385513Y85806280D01*
X30385515Y85806280D01*
X30385520Y85806277D01*
X30593806Y85750467D01*
X30653466Y85714102D01*
X30683995Y85651255D01*
X30675700Y85581879D01*
X30667255Y85565602D01*
X30663001Y85558706D01*
X30662996Y85558695D01*
X30609651Y85397710D01*
X30599500Y85298353D01*
X30599500Y84701663D01*
X30599501Y84701645D01*
X30609650Y84602293D01*
X30609651Y84602290D01*
X30662996Y84441306D01*
X30663001Y84441295D01*
X30752029Y84296960D01*
X30752032Y84296956D01*
X30871956Y84177032D01*
X30890596Y84165535D01*
X30937321Y84113588D01*
X30949500Y84059996D01*
X30949500Y83436670D01*
X30949499Y83436652D01*
X30949499Y83270946D01*
X30949498Y83270946D01*
X30958509Y83237319D01*
X30990423Y83118215D01*
X31000279Y83101145D01*
X31000651Y83100500D01*
X31069477Y82981288D01*
X31069481Y82981283D01*
X31138181Y82912583D01*
X31171666Y82851260D01*
X31174500Y82824902D01*
X31174500Y82102130D01*
X31174501Y82102124D01*
X31180908Y82042517D01*
X31231202Y81907672D01*
X31231206Y81907665D01*
X31317452Y81792456D01*
X31317455Y81792453D01*
X31432664Y81706207D01*
X31432671Y81706203D01*
X31464223Y81694435D01*
X31567517Y81655909D01*
X31627127Y81649500D01*
X32372872Y81649501D01*
X32432483Y81655909D01*
X32535777Y81694435D01*
X32567329Y81706203D01*
X32575112Y81710453D01*
X32576865Y81707243D01*
X32625999Y81725639D01*
X32694291Y81710873D01*
X32695263Y81710248D01*
X32702670Y81706203D01*
X32777155Y81678423D01*
X32837517Y81655909D01*
X32897127Y81649500D01*
X33642872Y81649501D01*
X33702483Y81655909D01*
X33805777Y81694435D01*
X33837329Y81706203D01*
X33845112Y81710453D01*
X33846865Y81707243D01*
X33895999Y81725639D01*
X33964291Y81710873D01*
X33965263Y81710248D01*
X33972670Y81706203D01*
X34047155Y81678423D01*
X34107517Y81655909D01*
X34167127Y81649500D01*
X34912872Y81649501D01*
X34972483Y81655909D01*
X35107331Y81706204D01*
X35222546Y81792454D01*
X35308796Y81907669D01*
X35359091Y82042517D01*
X35365500Y82102127D01*
X35365499Y82886948D01*
X35382113Y82948949D01*
X35384577Y82953215D01*
X35425501Y83105943D01*
X35425501Y83264057D01*
X35425501Y83271652D01*
X35425500Y83271670D01*
X35425500Y84083481D01*
X35445185Y84150520D01*
X35461814Y84171158D01*
X35580472Y84289815D01*
X35668478Y84435394D01*
X35719086Y84597804D01*
X35725500Y84668384D01*
X35725500Y85331616D01*
X35719086Y85402196D01*
X35668478Y85564606D01*
X35668477Y85564608D01*
X35668451Y85564665D01*
X35668444Y85564712D01*
X35666246Y85571767D01*
X35667419Y85572133D01*
X35658887Y85633877D01*
X35688259Y85697273D01*
X35747244Y85734725D01*
X35792331Y85739086D01*
X35885198Y85730961D01*
X35899999Y85729666D01*
X35900000Y85729666D01*
X35900002Y85729666D01*
X35957825Y85734725D01*
X36120591Y85748965D01*
X36334480Y85806277D01*
X36535167Y85899858D01*
X36716555Y86026868D01*
X36873132Y86183445D01*
X37000142Y86364833D01*
X37057618Y86488093D01*
X37103790Y86540532D01*
X37170983Y86559684D01*
X37237864Y86539469D01*
X37282381Y86488093D01*
X37339858Y86364833D01*
X37466868Y86183445D01*
X37623445Y86026868D01*
X37804833Y85899858D01*
X37868470Y85870184D01*
X38005513Y85806280D01*
X38005515Y85806280D01*
X38005520Y85806277D01*
X38219409Y85748965D01*
X38376974Y85735180D01*
X38439998Y85729666D01*
X38440000Y85729666D01*
X38440002Y85729666D01*
X38497825Y85734725D01*
X38660591Y85748965D01*
X38874480Y85806277D01*
X39075167Y85899858D01*
X39256555Y86026868D01*
X39413132Y86183445D01*
X39540142Y86364833D01*
X39597618Y86488093D01*
X39643790Y86540532D01*
X39710983Y86559684D01*
X39777864Y86539469D01*
X39822381Y86488093D01*
X39879858Y86364833D01*
X40006868Y86183445D01*
X40163445Y86026868D01*
X40344833Y85899858D01*
X40408470Y85870184D01*
X40545513Y85806280D01*
X40545515Y85806280D01*
X40545520Y85806277D01*
X40759409Y85748965D01*
X40916974Y85735180D01*
X40979998Y85729666D01*
X40980000Y85729666D01*
X40980002Y85729666D01*
X41037825Y85734725D01*
X41200591Y85748965D01*
X41414480Y85806277D01*
X41615167Y85899858D01*
X41796555Y86026868D01*
X41953132Y86183445D01*
X42080142Y86364833D01*
X42137618Y86488093D01*
X42183790Y86540532D01*
X42250983Y86559684D01*
X42317864Y86539469D01*
X42362381Y86488093D01*
X42419858Y86364833D01*
X42546868Y86183445D01*
X42703445Y86026868D01*
X42884833Y85899858D01*
X42948470Y85870184D01*
X43085513Y85806280D01*
X43085515Y85806280D01*
X43085520Y85806277D01*
X43299409Y85748965D01*
X43456974Y85735180D01*
X43519998Y85729666D01*
X43520000Y85729666D01*
X43520002Y85729666D01*
X43577825Y85734725D01*
X43740591Y85748965D01*
X43954480Y85806277D01*
X44155167Y85899858D01*
X44336555Y86026868D01*
X44493132Y86183445D01*
X44620142Y86364833D01*
X44713723Y86565520D01*
X44771035Y86779409D01*
X44790334Y87000000D01*
X44771035Y87220591D01*
X44713723Y87434480D01*
X44701574Y87460533D01*
X44659622Y87550500D01*
X44620142Y87635167D01*
X44493132Y87816555D01*
X44336555Y87973132D01*
X44155167Y88100142D01*
X44155163Y88100144D01*
X43954486Y88193721D01*
X43954475Y88193725D01*
X43740592Y88251035D01*
X43740585Y88251036D01*
X43520002Y88270334D01*
X43519998Y88270334D01*
X43299414Y88251036D01*
X43299407Y88251035D01*
X43085524Y88193725D01*
X43085513Y88193721D01*
X42884836Y88100144D01*
X42884834Y88100143D01*
X42703444Y87973132D01*
X42546868Y87816556D01*
X42419857Y87635166D01*
X42419856Y87635164D01*
X42362382Y87511909D01*
X42316210Y87459469D01*
X42249017Y87440317D01*
X42182135Y87460533D01*
X42137618Y87511909D01*
X42103778Y87584479D01*
X42080142Y87635167D01*
X41953132Y87816555D01*
X41796555Y87973132D01*
X41615167Y88100142D01*
X41615163Y88100144D01*
X41414486Y88193721D01*
X41414475Y88193725D01*
X41200592Y88251035D01*
X41200585Y88251036D01*
X40980002Y88270334D01*
X40979998Y88270334D01*
X40759414Y88251036D01*
X40759407Y88251035D01*
X40545524Y88193725D01*
X40545513Y88193721D01*
X40344836Y88100144D01*
X40344834Y88100143D01*
X40163444Y87973132D01*
X40006868Y87816556D01*
X39879857Y87635166D01*
X39879856Y87635164D01*
X39822382Y87511909D01*
X39776210Y87459469D01*
X39709017Y87440317D01*
X39642135Y87460533D01*
X39597618Y87511909D01*
X39563778Y87584479D01*
X39540142Y87635167D01*
X39413132Y87816555D01*
X39256555Y87973132D01*
X39075167Y88100142D01*
X39075163Y88100144D01*
X38874486Y88193721D01*
X38874475Y88193725D01*
X38660592Y88251035D01*
X38660585Y88251036D01*
X38440002Y88270334D01*
X38439998Y88270334D01*
X38219414Y88251036D01*
X38219407Y88251035D01*
X38005524Y88193725D01*
X38005513Y88193721D01*
X37804836Y88100144D01*
X37804834Y88100143D01*
X37623444Y87973132D01*
X37466868Y87816556D01*
X37339857Y87635166D01*
X37339856Y87635164D01*
X37282382Y87511909D01*
X37236210Y87459469D01*
X37169017Y87440317D01*
X37102135Y87460533D01*
X37057618Y87511909D01*
X37023778Y87584479D01*
X37000142Y87635167D01*
X36873132Y87816555D01*
X36716555Y87973132D01*
X36535167Y88100142D01*
X36535163Y88100144D01*
X36334486Y88193721D01*
X36334475Y88193725D01*
X36120592Y88251035D01*
X36120585Y88251036D01*
X35900002Y88270334D01*
X35899998Y88270334D01*
X35679414Y88251036D01*
X35679403Y88251034D01*
X35591593Y88227505D01*
X35521743Y88229168D01*
X35463881Y88268331D01*
X35436377Y88332559D01*
X35435500Y88347280D01*
X35435500Y89534904D01*
X35455185Y89601943D01*
X35471814Y89622580D01*
X41421133Y95571900D01*
X41482454Y95605383D01*
X41547126Y95602149D01*
X41683757Y95557754D01*
X41893713Y95524500D01*
X41893714Y95524500D01*
X42106286Y95524500D01*
X42106287Y95524500D01*
X42316243Y95557754D01*
X42518412Y95623443D01*
X42707816Y95719949D01*
X42729789Y95735914D01*
X42879786Y95844891D01*
X42879788Y95844894D01*
X42879792Y95844896D01*
X43030104Y95995208D01*
X43030106Y95995212D01*
X43030109Y95995214D01*
X43155048Y96167180D01*
X43155047Y96167180D01*
X43155051Y96167184D01*
X43251557Y96356588D01*
X43317246Y96558757D01*
X43350500Y96768713D01*
X43350500Y97231287D01*
X43317246Y97441243D01*
X43251557Y97643412D01*
X43155051Y97832816D01*
X43155049Y97832819D01*
X43155048Y97832821D01*
X43030109Y98004787D01*
X42879786Y98155110D01*
X42707820Y98280049D01*
X42518414Y98376556D01*
X42518413Y98376557D01*
X42518412Y98376557D01*
X42316243Y98442246D01*
X42316241Y98442247D01*
X42316240Y98442247D01*
X42154957Y98467792D01*
X42106287Y98475500D01*
X41893713Y98475500D01*
X41845042Y98467792D01*
X41683760Y98442247D01*
X41481585Y98376556D01*
X41292179Y98280049D01*
X41120213Y98155110D01*
X40969894Y98004791D01*
X40969890Y98004786D01*
X40850318Y97840207D01*
X40794989Y97797541D01*
X40725375Y97791562D01*
X40663580Y97824167D01*
X40649682Y97840207D01*
X40530109Y98004786D01*
X40530105Y98004791D01*
X40379786Y98155110D01*
X40207820Y98280049D01*
X40018414Y98376556D01*
X40018413Y98376557D01*
X40018412Y98376557D01*
X39816243Y98442246D01*
X39816241Y98442247D01*
X39816240Y98442247D01*
X39654957Y98467792D01*
X39606287Y98475500D01*
X39393713Y98475500D01*
X39365006Y98470954D01*
X39183757Y98442247D01*
X39141473Y98428508D01*
X39071632Y98426514D01*
X39015476Y98458759D01*
X38837590Y98636645D01*
X38837588Y98636648D01*
X38718717Y98755519D01*
X38718716Y98755520D01*
X38605743Y98820745D01*
X38605743Y98820746D01*
X38605738Y98820747D01*
X38597379Y98825574D01*
X38581786Y98834577D01*
X38543603Y98844808D01*
X38429057Y98875501D01*
X38270943Y98875501D01*
X38263347Y98875501D01*
X38263331Y98875500D01*
X24695942Y98875500D01*
X24543214Y98834577D01*
X24524322Y98823670D01*
X24519258Y98820745D01*
X24462771Y98788133D01*
X24406285Y98755521D01*
X24406282Y98755519D01*
X24294478Y98643714D01*
X24078867Y98428104D01*
X24017544Y98394619D01*
X23952868Y98397854D01*
X23816240Y98442247D01*
X23654957Y98467792D01*
X23606287Y98475500D01*
X23393713Y98475500D01*
X23345042Y98467792D01*
X23183760Y98442247D01*
X22981585Y98376556D01*
X22792179Y98280049D01*
X22620215Y98155111D01*
X22481398Y98016294D01*
X22420075Y97982810D01*
X22350383Y97987794D01*
X22294450Y98029666D01*
X22288178Y98038880D01*
X22192712Y98193656D01*
X22068657Y98317711D01*
X22068656Y98317712D01*
X21943969Y98394619D01*
X21919336Y98409813D01*
X21919331Y98409815D01*
X21917862Y98410302D01*
X21752797Y98464999D01*
X21752795Y98465000D01*
X21650010Y98475500D01*
X20349998Y98475500D01*
X20349981Y98475499D01*
X20247203Y98465000D01*
X20247200Y98464999D01*
X20080668Y98409815D01*
X20080663Y98409813D01*
X19931342Y98317711D01*
X19807289Y98193658D01*
X19715187Y98044337D01*
X19715185Y98044332D01*
X19710325Y98029666D01*
X19660001Y97877797D01*
X19660001Y97877796D01*
X19660000Y97877796D01*
X19649500Y97775017D01*
X19649500Y96224999D01*
X19649501Y96224982D01*
X19660000Y96122204D01*
X19660001Y96122201D01*
X19705894Y95983706D01*
X19715186Y95955666D01*
X19807288Y95806344D01*
X19931344Y95682288D01*
X20080666Y95590186D01*
X20247203Y95535001D01*
X20349991Y95524500D01*
X21650008Y95524501D01*
X21752797Y95535001D01*
X21919334Y95590186D01*
X22068656Y95682288D01*
X22192712Y95806344D01*
X22284814Y95955666D01*
X22284814Y95955669D01*
X22288178Y95961121D01*
X22340126Y96007846D01*
X22409088Y96019069D01*
X22473170Y95991226D01*
X22481398Y95983706D01*
X22620213Y95844891D01*
X22792179Y95719952D01*
X22792181Y95719951D01*
X22792184Y95719949D01*
X22981588Y95623443D01*
X23183757Y95557754D01*
X23393713Y95524500D01*
X23393714Y95524500D01*
X23606286Y95524500D01*
X23606287Y95524500D01*
X23816243Y95557754D01*
X24018412Y95623443D01*
X24207816Y95719949D01*
X24229789Y95735914D01*
X24379786Y95844891D01*
X24379788Y95844894D01*
X24379792Y95844896D01*
X24530104Y95995208D01*
X24649683Y96159796D01*
X24705011Y96202460D01*
X24774624Y96208439D01*
X24836420Y96175834D01*
X24850313Y96159801D01*
X24952560Y96019069D01*
X24969896Y95995208D01*
X25120213Y95844891D01*
X25292179Y95719952D01*
X25292181Y95719951D01*
X25292184Y95719949D01*
X25481588Y95623443D01*
X25683757Y95557754D01*
X25893713Y95524500D01*
X25893714Y95524500D01*
X26106286Y95524500D01*
X26106287Y95524500D01*
X26316243Y95557754D01*
X26518412Y95623443D01*
X26707816Y95719949D01*
X26729789Y95735914D01*
X26879786Y95844891D01*
X26879788Y95844894D01*
X26879792Y95844896D01*
X27030104Y95995208D01*
X27030106Y95995212D01*
X27030109Y95995214D01*
X27155048Y96167180D01*
X27155047Y96167180D01*
X27155051Y96167184D01*
X27251557Y96356588D01*
X27317246Y96558757D01*
X27350500Y96768713D01*
X27350500Y97231287D01*
X27317246Y97441243D01*
X27294195Y97512184D01*
X27292201Y97582023D01*
X27328281Y97641856D01*
X27390982Y97672684D01*
X27412127Y97674500D01*
X35525500Y97674500D01*
X35592539Y97654815D01*
X35638294Y97602011D01*
X35649500Y97550500D01*
X35649500Y96224999D01*
X35649501Y96224982D01*
X35660000Y96122204D01*
X35660001Y96122201D01*
X35705894Y95983706D01*
X35715186Y95955666D01*
X35807288Y95806344D01*
X35931344Y95682288D01*
X36080666Y95590186D01*
X36247203Y95535001D01*
X36349991Y95524500D01*
X37650008Y95524501D01*
X37752797Y95535001D01*
X37919334Y95590186D01*
X38068656Y95682288D01*
X38192712Y95806344D01*
X38284814Y95955666D01*
X38284814Y95955669D01*
X38288178Y95961121D01*
X38340126Y96007846D01*
X38409088Y96019069D01*
X38473170Y95991226D01*
X38481398Y95983706D01*
X38620213Y95844891D01*
X38792184Y95719949D01*
X38792184Y95719948D01*
X38831793Y95699767D01*
X38882590Y95651794D01*
X38899500Y95589282D01*
X38899500Y95365784D01*
X38879815Y95298745D01*
X38863181Y95278103D01*
X33754481Y90169404D01*
X33754475Y90169396D01*
X33713143Y90097805D01*
X33713143Y90097804D01*
X33675423Y90032471D01*
X33634499Y89879743D01*
X33634499Y89879741D01*
X33634499Y89711640D01*
X33634500Y89711627D01*
X33634500Y88582413D01*
X33614815Y88515374D01*
X33607450Y88505104D01*
X33605186Y88502266D01*
X33509212Y88349525D01*
X33506193Y88343254D01*
X33504696Y88343975D01*
X33468985Y88294204D01*
X33404028Y88268469D01*
X33381880Y88268421D01*
X33360007Y88270334D01*
X33359998Y88270334D01*
X33139414Y88251036D01*
X33139407Y88251035D01*
X32925524Y88193725D01*
X32925513Y88193721D01*
X32724836Y88100144D01*
X32724834Y88100143D01*
X32543444Y87973132D01*
X32386868Y87816556D01*
X32259857Y87635166D01*
X32259856Y87635164D01*
X32202382Y87511909D01*
X32156210Y87459469D01*
X32089017Y87440317D01*
X32022135Y87460533D01*
X31977618Y87511909D01*
X31943778Y87584479D01*
X31920142Y87635167D01*
X31793132Y87816555D01*
X31636555Y87973132D01*
X31455167Y88100142D01*
X31455163Y88100144D01*
X31254486Y88193721D01*
X31254475Y88193725D01*
X31040592Y88251035D01*
X31040585Y88251036D01*
X30820002Y88270334D01*
X30819998Y88270334D01*
X30599414Y88251036D01*
X30599407Y88251035D01*
X30385524Y88193725D01*
X30385513Y88193721D01*
X30184836Y88100144D01*
X30184834Y88100143D01*
X30003444Y87973132D01*
X29846868Y87816556D01*
X29719857Y87635166D01*
X29719856Y87635164D01*
X29662382Y87511909D01*
X29616210Y87459469D01*
X29549017Y87440317D01*
X29482135Y87460533D01*
X29437618Y87511909D01*
X29403778Y87584479D01*
X29380142Y87635167D01*
X29253132Y87816555D01*
X29096555Y87973132D01*
X28915167Y88100142D01*
X28915163Y88100144D01*
X28714486Y88193721D01*
X28714475Y88193725D01*
X28500592Y88251035D01*
X28500585Y88251036D01*
X28280002Y88270334D01*
X28279998Y88270334D01*
X28059414Y88251036D01*
X28059407Y88251035D01*
X27845524Y88193725D01*
X27845513Y88193721D01*
X27644836Y88100144D01*
X27644834Y88100143D01*
X27463444Y87973132D01*
X27306868Y87816556D01*
X27179857Y87635166D01*
X27179856Y87635164D01*
X27122382Y87511909D01*
X27076210Y87459469D01*
X27009017Y87440317D01*
X26942135Y87460533D01*
X26897618Y87511909D01*
X26863778Y87584479D01*
X26840142Y87635167D01*
X26713132Y87816555D01*
X26556555Y87973132D01*
X26375167Y88100142D01*
X26375163Y88100144D01*
X26174486Y88193721D01*
X26174475Y88193725D01*
X25960592Y88251035D01*
X25960585Y88251036D01*
X25740002Y88270334D01*
X25739998Y88270334D01*
X25519414Y88251036D01*
X25519400Y88251033D01*
X25445643Y88231271D01*
X25375793Y88232935D01*
X25325870Y88263365D01*
X23227590Y90361645D01*
X23227588Y90361648D01*
X23108717Y90480519D01*
X23108709Y90480525D01*
X23006936Y90539283D01*
X23006934Y90539284D01*
X22971790Y90559575D01*
X22971789Y90559576D01*
X22953013Y90564607D01*
X22819057Y90600501D01*
X22660943Y90600501D01*
X22653347Y90600501D01*
X22653331Y90600500D01*
X13716715Y90600500D01*
X13649676Y90620185D01*
X13610598Y90660350D01*
X13580472Y90710185D01*
X13580470Y90710187D01*
X13580469Y90710189D01*
X13460188Y90830470D01*
X13458292Y90831616D01*
X13314606Y90918478D01*
X13152196Y90969086D01*
X13152194Y90969087D01*
X13152192Y90969087D01*
X13102778Y90973577D01*
X13081616Y90975500D01*
X12568384Y90975500D01*
X12549145Y90973752D01*
X12497807Y90969087D01*
X12335393Y90918478D01*
X12189811Y90830470D01*
X12189810Y90830469D01*
X12087681Y90728339D01*
X12026358Y90694854D01*
X11956666Y90699838D01*
X11912319Y90728339D01*
X11810189Y90830469D01*
X11810185Y90830472D01*
X11700349Y90896871D01*
X11653162Y90948399D01*
X11640500Y91002987D01*
X11640500Y93525500D01*
X11660185Y93592539D01*
X11712989Y93638294D01*
X11764500Y93649500D01*
X12190003Y93649500D01*
X12190008Y93649500D01*
X12292797Y93660001D01*
X12459334Y93715186D01*
X12608655Y93807289D01*
X12732711Y93931345D01*
X12824814Y94080666D01*
X12879999Y94247203D01*
X12890500Y94349992D01*
X12890500Y96650008D01*
X12879999Y96752797D01*
X12824814Y96919334D01*
X12732711Y97068655D01*
X12608655Y97192711D01*
X12608651Y97192714D01*
X12459337Y97284813D01*
X12459335Y97284814D01*
X12299487Y97337782D01*
X12292797Y97339999D01*
X12292795Y97340000D01*
X12190015Y97350500D01*
X12190008Y97350500D01*
X9889992Y97350500D01*
X9889984Y97350500D01*
X9787204Y97340000D01*
X9787203Y97339999D01*
X9620664Y97284814D01*
X9620662Y97284813D01*
X9471348Y97192714D01*
X9471344Y97192711D01*
X9347289Y97068656D01*
X9347286Y97068652D01*
X9255187Y96919338D01*
X9255186Y96919336D01*
X9200001Y96752797D01*
X9200000Y96752796D01*
X9189500Y96650016D01*
X9189500Y94349985D01*
X9200000Y94247205D01*
X9200001Y94247203D01*
X9207097Y94225789D01*
X9255186Y94080665D01*
X9255187Y94080663D01*
X9347286Y93931349D01*
X9347289Y93931345D01*
X9471344Y93807290D01*
X9471348Y93807287D01*
X9620662Y93715188D01*
X9620664Y93715187D01*
X9620666Y93715186D01*
X9787203Y93660001D01*
X9889992Y93649500D01*
X10315500Y93649500D01*
X10382539Y93629815D01*
X10428294Y93577011D01*
X10439500Y93525500D01*
X10439500Y90777790D01*
X10421617Y90713640D01*
X10331522Y90564607D01*
X10280913Y90402193D01*
X10274500Y90331614D01*
X10274500Y89668387D01*
X10280913Y89597808D01*
X10280913Y89597806D01*
X10280914Y89597804D01*
X10331522Y89435394D01*
X10419528Y89289815D01*
X10419529Y89289814D01*
X10420233Y89288650D01*
X10438069Y89221096D01*
X10416552Y89154622D01*
X10362511Y89110334D01*
X10314116Y89100500D01*
X8375097Y89100500D01*
X8308058Y89120185D01*
X8287416Y89136819D01*
X7511819Y89912416D01*
X7478334Y89973739D01*
X7475500Y90000097D01*
X7475500Y90331614D01*
X7472268Y90367178D01*
X7469086Y90402196D01*
X7418478Y90564606D01*
X7330472Y90710185D01*
X7330470Y90710187D01*
X7330469Y90710189D01*
X7210188Y90830470D01*
X7208292Y90831616D01*
X7064606Y90918478D01*
X6902196Y90969086D01*
X6902194Y90969087D01*
X6902192Y90969087D01*
X6852778Y90973577D01*
X6831616Y90975500D01*
X6318384Y90975500D01*
X6299145Y90973752D01*
X6247807Y90969087D01*
X6085393Y90918478D01*
X5939811Y90830470D01*
X5939810Y90830469D01*
X5837681Y90728339D01*
X5776358Y90694854D01*
X5706666Y90699838D01*
X5662319Y90728339D01*
X5560188Y90830470D01*
X5558292Y90831616D01*
X5414606Y90918478D01*
X5252196Y90969086D01*
X5252194Y90969087D01*
X5252192Y90969087D01*
X5202778Y90973577D01*
X5181616Y90975500D01*
X4668384Y90975500D01*
X4649145Y90973752D01*
X4597807Y90969087D01*
X4435393Y90918478D01*
X4289811Y90830470D01*
X4169530Y90710189D01*
X4081522Y90564607D01*
X4073631Y90539283D01*
X4043384Y90442218D01*
X4004648Y90384071D01*
X3940623Y90356097D01*
X3871638Y90367178D01*
X3819595Y90413797D01*
X3806615Y90442216D01*
X3768478Y90564606D01*
X3680472Y90710185D01*
X3680470Y90710187D01*
X3680469Y90710189D01*
X3560188Y90830470D01*
X3558292Y90831616D01*
X3414606Y90918478D01*
X3252196Y90969086D01*
X3252194Y90969087D01*
X3252192Y90969087D01*
X3202778Y90973577D01*
X3181616Y90975500D01*
X2668384Y90975500D01*
X2649145Y90973752D01*
X2597807Y90969087D01*
X2435393Y90918478D01*
X2289811Y90830470D01*
X2289810Y90830469D01*
X2187681Y90728339D01*
X2126358Y90694854D01*
X2056666Y90699838D01*
X2012319Y90728339D01*
X1910188Y90830470D01*
X1908292Y90831616D01*
X1764606Y90918478D01*
X1602196Y90969086D01*
X1602194Y90969087D01*
X1602192Y90969087D01*
X1552778Y90973577D01*
X1531616Y90975500D01*
X1018384Y90975500D01*
X999145Y90973752D01*
X947807Y90969087D01*
X785393Y90918478D01*
X688650Y90859994D01*
X621095Y90842158D01*
X554621Y90863676D01*
X510334Y90917716D01*
X500500Y90966111D01*
X500500Y92376000D01*
X520185Y92443039D01*
X572989Y92488794D01*
X624500Y92500000D01*
X5500000Y92500000D01*
X7500000Y94500000D01*
X7500000Y99375500D01*
X7519685Y99442539D01*
X7572489Y99488294D01*
X7624000Y99499500D01*
X46376000Y99499500D01*
X46443039Y99479815D01*
G37*
%TD.AperFunction*%
%TA.AperFunction,Conductor*%
G36*
X26318834Y42716320D02*
G01*
X26374767Y42674448D01*
X26399184Y42608984D01*
X26399500Y42600138D01*
X26399500Y41300098D01*
X26379815Y41233059D01*
X26363181Y41212417D01*
X21711681Y36560917D01*
X21650358Y36527432D01*
X21580666Y36532416D01*
X21524733Y36574288D01*
X21500316Y36639752D01*
X21500000Y36648598D01*
X21500000Y41948638D01*
X21519685Y42015677D01*
X21536319Y42036319D01*
X21963681Y42463681D01*
X22025004Y42497166D01*
X22051362Y42500000D01*
X26000000Y42500000D01*
X26187819Y42687819D01*
X26249142Y42721304D01*
X26318834Y42716320D01*
G37*
%TD.AperFunction*%
%TA.AperFunction,Conductor*%
G36*
X31117539Y78379815D02*
G01*
X31163294Y78327011D01*
X31174500Y78275500D01*
X31174500Y76702130D01*
X31174501Y76702124D01*
X31180908Y76642517D01*
X31231202Y76507672D01*
X31231206Y76507665D01*
X31317452Y76392456D01*
X31317455Y76392453D01*
X31432664Y76306207D01*
X31432671Y76306203D01*
X31477618Y76289439D01*
X31567517Y76255909D01*
X31627127Y76249500D01*
X31924902Y76249501D01*
X31991941Y76229817D01*
X32012583Y76213182D01*
X35219619Y73006146D01*
X35253104Y72944823D01*
X35248120Y72875131D01*
X35206248Y72819198D01*
X35203062Y72816891D01*
X35083452Y72733138D01*
X35083441Y72733129D01*
X34926868Y72576556D01*
X34799857Y72395166D01*
X34799856Y72395164D01*
X34742382Y72271909D01*
X34696210Y72219469D01*
X34629017Y72200317D01*
X34562135Y72220533D01*
X34517618Y72271909D01*
X34473410Y72366713D01*
X34460142Y72395167D01*
X34333132Y72576555D01*
X34176555Y72733132D01*
X33995167Y72860142D01*
X33991944Y72861645D01*
X33794486Y72953721D01*
X33794475Y72953725D01*
X33580592Y73011035D01*
X33580585Y73011036D01*
X33360002Y73030334D01*
X33359998Y73030334D01*
X33139414Y73011036D01*
X33139407Y73011035D01*
X32925524Y72953725D01*
X32925513Y72953721D01*
X32724836Y72860144D01*
X32724834Y72860143D01*
X32543444Y72733132D01*
X32386868Y72576556D01*
X32259857Y72395166D01*
X32259856Y72395164D01*
X32202382Y72271909D01*
X32156210Y72219469D01*
X32089017Y72200317D01*
X32022135Y72220533D01*
X31977618Y72271909D01*
X31933410Y72366713D01*
X31920142Y72395167D01*
X31793132Y72576555D01*
X31636555Y72733132D01*
X31455167Y72860142D01*
X31451944Y72861645D01*
X31254486Y72953721D01*
X31254475Y72953725D01*
X31040592Y73011035D01*
X31040585Y73011036D01*
X30820002Y73030334D01*
X30819998Y73030334D01*
X30599414Y73011036D01*
X30599407Y73011035D01*
X30385524Y72953725D01*
X30385513Y72953721D01*
X30184836Y72860144D01*
X30184834Y72860143D01*
X30003444Y72733132D01*
X29846868Y72576556D01*
X29719857Y72395166D01*
X29719856Y72395164D01*
X29662382Y72271909D01*
X29616210Y72219469D01*
X29549017Y72200317D01*
X29482135Y72220533D01*
X29437618Y72271909D01*
X29393410Y72366713D01*
X29380142Y72395167D01*
X29253132Y72576555D01*
X29096555Y72733132D01*
X28915167Y72860142D01*
X28911944Y72861645D01*
X28714486Y72953721D01*
X28714475Y72953725D01*
X28500592Y73011035D01*
X28500586Y73011036D01*
X28421678Y73017939D01*
X28356610Y73043392D01*
X28315631Y73099982D01*
X28311753Y73169744D01*
X28344803Y73229147D01*
X28405472Y73289815D01*
X28493478Y73435394D01*
X28544086Y73597804D01*
X28550500Y73668384D01*
X28550500Y74331616D01*
X28544086Y74402196D01*
X28493478Y74564606D01*
X28405472Y74710185D01*
X28405470Y74710187D01*
X28405469Y74710189D01*
X28285188Y74830470D01*
X28139606Y74918478D01*
X27977196Y74969086D01*
X27977194Y74969087D01*
X27977192Y74969087D01*
X27927778Y74973577D01*
X27906616Y74975500D01*
X27393384Y74975500D01*
X27374145Y74973752D01*
X27322807Y74969087D01*
X27160393Y74918478D01*
X27014811Y74830470D01*
X26894530Y74710189D01*
X26806522Y74564607D01*
X26755913Y74402193D01*
X26749500Y74331614D01*
X26749500Y73668387D01*
X26755913Y73597808D01*
X26755913Y73597806D01*
X26755914Y73597804D01*
X26806522Y73435394D01*
X26894528Y73289815D01*
X27013182Y73171161D01*
X27046666Y73109840D01*
X27049500Y73083481D01*
X27049500Y72489451D01*
X27029815Y72422412D01*
X26977011Y72376657D01*
X26907853Y72366713D01*
X26844297Y72395738D01*
X26823925Y72418327D01*
X26774123Y72489451D01*
X26713132Y72576555D01*
X26556555Y72733132D01*
X26375167Y72860142D01*
X26371944Y72861645D01*
X26174486Y72953721D01*
X26174475Y72953725D01*
X25960592Y73011035D01*
X25960585Y73011036D01*
X25740002Y73030334D01*
X25739998Y73030334D01*
X25519414Y73011036D01*
X25519407Y73011035D01*
X25305524Y72953725D01*
X25305513Y72953721D01*
X25104836Y72860144D01*
X25104834Y72860143D01*
X24923444Y72733132D01*
X24766868Y72576556D01*
X24639857Y72395166D01*
X24639856Y72395164D01*
X24582382Y72271909D01*
X24536210Y72219469D01*
X24469017Y72200317D01*
X24402135Y72220533D01*
X24357618Y72271909D01*
X24313410Y72366713D01*
X24300142Y72395167D01*
X24173132Y72576555D01*
X24016555Y72733132D01*
X23835167Y72860142D01*
X23831944Y72861645D01*
X23634486Y72953721D01*
X23634475Y72953725D01*
X23420592Y73011035D01*
X23420585Y73011036D01*
X23200002Y73030334D01*
X23199998Y73030334D01*
X22979414Y73011036D01*
X22979407Y73011035D01*
X22765524Y72953725D01*
X22765513Y72953721D01*
X22564836Y72860144D01*
X22564834Y72860143D01*
X22383444Y72733132D01*
X22226868Y72576556D01*
X22099857Y72395166D01*
X22099856Y72395164D01*
X22042382Y72271909D01*
X21996210Y72219469D01*
X21929017Y72200317D01*
X21862135Y72220533D01*
X21817618Y72271909D01*
X21773410Y72366713D01*
X21760142Y72395167D01*
X21633132Y72576555D01*
X21476555Y72733132D01*
X21295167Y72860142D01*
X21291944Y72861645D01*
X21094486Y72953721D01*
X21094475Y72953725D01*
X20880592Y73011035D01*
X20880585Y73011036D01*
X20660002Y73030334D01*
X20659998Y73030334D01*
X20439414Y73011036D01*
X20439407Y73011035D01*
X20225524Y72953725D01*
X20225513Y72953721D01*
X20024836Y72860144D01*
X20024834Y72860143D01*
X19843444Y72733132D01*
X19686868Y72576556D01*
X19559857Y72395166D01*
X19559856Y72395164D01*
X19502382Y72271909D01*
X19456210Y72219469D01*
X19389017Y72200317D01*
X19322135Y72220533D01*
X19277618Y72271909D01*
X19233410Y72366713D01*
X19220142Y72395167D01*
X19093132Y72576555D01*
X18936555Y72733132D01*
X18831237Y72806877D01*
X18755166Y72860143D01*
X18672095Y72898879D01*
X18619656Y72945051D01*
X18600500Y73011261D01*
X18600500Y76199903D01*
X18620185Y76266942D01*
X18636819Y76287584D01*
X20712416Y78363181D01*
X20773739Y78396666D01*
X20800097Y78399500D01*
X31050500Y78399500D01*
X31117539Y78379815D01*
G37*
%TD.AperFunction*%
%TA.AperFunction,Conductor*%
G36*
X34501942Y78379815D02*
G01*
X34522584Y78363181D01*
X34948181Y77937584D01*
X34981666Y77876261D01*
X34984500Y77849903D01*
X34984500Y77497738D01*
X34984501Y77174500D01*
X34964817Y77107461D01*
X34912013Y77061706D01*
X34860501Y77050500D01*
X34219500Y77050500D01*
X34152461Y77070185D01*
X34106706Y77122989D01*
X34095500Y77174500D01*
X34095499Y78275500D01*
X34115184Y78342539D01*
X34167987Y78388294D01*
X34219499Y78399500D01*
X34434903Y78399500D01*
X34501942Y78379815D01*
G37*
%TD.AperFunction*%
%TA.AperFunction,Conductor*%
G36*
X2143334Y89300162D02*
G01*
X2187681Y89271661D01*
X2289811Y89169531D01*
X2289813Y89169530D01*
X2289815Y89169528D01*
X2435394Y89081522D01*
X2597804Y89030914D01*
X2668384Y89024500D01*
X2999903Y89024500D01*
X3066942Y89004815D01*
X3087584Y88988181D01*
X4375139Y87700626D01*
X4375149Y87700615D01*
X4379479Y87696285D01*
X4379480Y87696284D01*
X4491284Y87584480D01*
X4491286Y87584479D01*
X4550140Y87550500D01*
X4550139Y87550500D01*
X4550142Y87550499D01*
X4628209Y87505426D01*
X4628210Y87505426D01*
X4628215Y87505423D01*
X4780942Y87464500D01*
X4780943Y87464500D01*
X6570500Y87464500D01*
X6637539Y87444815D01*
X6683294Y87392011D01*
X6694500Y87340500D01*
X6694500Y86187130D01*
X6694501Y86187124D01*
X6700908Y86127517D01*
X6751202Y85992672D01*
X6751206Y85992665D01*
X6837452Y85877456D01*
X6837455Y85877453D01*
X6952664Y85791207D01*
X6952671Y85791203D01*
X7087517Y85740909D01*
X7087516Y85740909D01*
X7094444Y85740165D01*
X7147127Y85734500D01*
X8772872Y85734501D01*
X8832483Y85740909D01*
X8967331Y85791204D01*
X9082546Y85877454D01*
X9168796Y85992669D01*
X9219091Y86127517D01*
X9225500Y86187127D01*
X9225499Y87340501D01*
X9245184Y87407539D01*
X9297987Y87453294D01*
X9349499Y87464500D01*
X11692720Y87464500D01*
X11759759Y87444815D01*
X11805514Y87392011D01*
X11815458Y87322853D01*
X11812495Y87308407D01*
X11788966Y87220597D01*
X11788964Y87220586D01*
X11769666Y87000002D01*
X11769666Y86999999D01*
X11788964Y86779415D01*
X11788965Y86779408D01*
X11846275Y86565525D01*
X11846279Y86565514D01*
X11939499Y86365603D01*
X11939858Y86364833D01*
X12066868Y86183445D01*
X12223445Y86026868D01*
X12404833Y85899858D01*
X12468470Y85870184D01*
X12605513Y85806280D01*
X12605515Y85806280D01*
X12605520Y85806277D01*
X12819409Y85748965D01*
X12976974Y85735180D01*
X13039998Y85729666D01*
X13040000Y85729666D01*
X13040002Y85729666D01*
X13097825Y85734725D01*
X13260591Y85748965D01*
X13474480Y85806277D01*
X13675167Y85899858D01*
X13856555Y86026868D01*
X14013132Y86183445D01*
X14140142Y86364833D01*
X14197618Y86488093D01*
X14243790Y86540532D01*
X14310983Y86559684D01*
X14377864Y86539469D01*
X14422381Y86488093D01*
X14479858Y86364833D01*
X14606868Y86183445D01*
X14763445Y86026868D01*
X14776622Y86017641D01*
X14820247Y85963067D01*
X14829500Y85916066D01*
X14829500Y85846082D01*
X14829500Y85846080D01*
X14829499Y85846080D01*
X14858340Y85701093D01*
X14858343Y85701083D01*
X14914911Y85564513D01*
X14914915Y85564507D01*
X14914916Y85564505D01*
X14918207Y85559580D01*
X14918208Y85559577D01*
X14918209Y85559577D01*
X14958016Y85500000D01*
X14997051Y85441580D01*
X14997052Y85441579D01*
X17078828Y83359804D01*
X17112313Y83298481D01*
X17107329Y83228789D01*
X17065457Y83172856D01*
X17057121Y83167130D01*
X16997735Y83129815D01*
X16994903Y83127555D01*
X16992725Y83126667D01*
X16991844Y83126112D01*
X16991746Y83126267D01*
X16930217Y83101145D01*
X16917588Y83100500D01*
X2416520Y83100500D01*
X2349481Y83120185D01*
X2328839Y83136819D01*
X2228339Y83237319D01*
X2194854Y83298642D01*
X2199838Y83368334D01*
X2228339Y83412681D01*
X2330468Y83514811D01*
X2330469Y83514812D01*
X2330472Y83514815D01*
X2418478Y83660394D01*
X2469086Y83822804D01*
X2475500Y83893384D01*
X2475500Y84406616D01*
X2469086Y84477196D01*
X2418478Y84639606D01*
X2330472Y84785185D01*
X2330470Y84785187D01*
X2330469Y84785189D01*
X2210188Y84905470D01*
X2208196Y84906674D01*
X2064606Y84993478D01*
X1902196Y85044086D01*
X1902194Y85044087D01*
X1902192Y85044087D01*
X1852778Y85048577D01*
X1831616Y85050500D01*
X1168384Y85050500D01*
X1149145Y85048752D01*
X1097807Y85044087D01*
X935393Y84993478D01*
X789811Y84905470D01*
X789810Y84905469D01*
X712181Y84827839D01*
X650858Y84794354D01*
X581166Y84799338D01*
X525233Y84841210D01*
X500816Y84906674D01*
X500500Y84915520D01*
X500500Y89033890D01*
X520185Y89100929D01*
X572989Y89146684D01*
X642147Y89156628D01*
X688646Y89140009D01*
X785394Y89081522D01*
X947804Y89030914D01*
X1018384Y89024500D01*
X1018387Y89024500D01*
X1531613Y89024500D01*
X1531616Y89024500D01*
X1602196Y89030914D01*
X1764606Y89081522D01*
X1910185Y89169528D01*
X1934954Y89194297D01*
X2012319Y89271661D01*
X2073642Y89305146D01*
X2143334Y89300162D01*
G37*
%TD.AperFunction*%
%TA.AperFunction,Conductor*%
G36*
X22506942Y89379815D02*
G01*
X22527584Y89363181D01*
X23419837Y88470927D01*
X23453322Y88409604D01*
X23448338Y88339912D01*
X23406466Y88283979D01*
X23341002Y88259562D01*
X23321349Y88259718D01*
X23200002Y88270334D01*
X23199998Y88270334D01*
X22979414Y88251036D01*
X22979400Y88251033D01*
X22905643Y88231271D01*
X22835793Y88232935D01*
X22785870Y88263365D01*
X22622590Y88426645D01*
X22622588Y88426648D01*
X22503717Y88545519D01*
X22503709Y88545525D01*
X22387364Y88612696D01*
X22387363Y88612697D01*
X22372899Y88621047D01*
X22366785Y88624577D01*
X22214057Y88665501D01*
X22055943Y88665501D01*
X22048347Y88665501D01*
X22048331Y88665500D01*
X20416322Y88665500D01*
X20349283Y88685185D01*
X20303528Y88737989D01*
X20293102Y88775617D01*
X20285369Y88844250D01*
X20285368Y88844252D01*
X20285368Y88844255D01*
X20225789Y89014522D01*
X20129816Y89167262D01*
X20109259Y89187819D01*
X20075774Y89249142D01*
X20080758Y89318834D01*
X20122630Y89374767D01*
X20188094Y89399184D01*
X20196940Y89399500D01*
X22439903Y89399500D01*
X22506942Y89379815D01*
G37*
%TD.AperFunction*%
M02*
