%TF.GenerationSoftware,KiCad,Pcbnew,8.0.4*%
%TF.CreationDate,2024-08-27T22:08:08+09:00*%
%TF.ProjectId,power_board2,706f7765-725f-4626-9f61-7264322e6b69,rev?*%
%TF.SameCoordinates,PX3473bc0PYa8cce40*%
%TF.FileFunction,Legend,Top*%
%TF.FilePolarity,Positive*%
%FSLAX46Y46*%
G04 Gerber Fmt 4.6, Leading zero omitted, Abs format (unit mm)*
G04 Created by KiCad (PCBNEW 8.0.4) date 2024-08-27 22:08:08*
%MOMM*%
%LPD*%
G01*
G04 APERTURE LIST*
%ADD10C,0.150000*%
%ADD11C,0.100000*%
%ADD12C,0.254000*%
%ADD13C,0.120000*%
%ADD14C,0.200000*%
%ADD15C,0.127000*%
%ADD16C,0.400000*%
%ADD17C,0.240000*%
G04 APERTURE END LIST*
D10*
X36369819Y91812970D02*
X36369819Y91336780D01*
X36369819Y91336780D02*
X36846009Y91289161D01*
X36846009Y91289161D02*
X36798390Y91336780D01*
X36798390Y91336780D02*
X36750771Y91432018D01*
X36750771Y91432018D02*
X36750771Y91670113D01*
X36750771Y91670113D02*
X36798390Y91765351D01*
X36798390Y91765351D02*
X36846009Y91812970D01*
X36846009Y91812970D02*
X36941247Y91860589D01*
X36941247Y91860589D02*
X37179342Y91860589D01*
X37179342Y91860589D02*
X37274580Y91812970D01*
X37274580Y91812970D02*
X37322200Y91765351D01*
X37322200Y91765351D02*
X37369819Y91670113D01*
X37369819Y91670113D02*
X37369819Y91432018D01*
X37369819Y91432018D02*
X37322200Y91336780D01*
X37322200Y91336780D02*
X37274580Y91289161D01*
X36703152Y92193923D02*
X37369819Y92432018D01*
X37369819Y92432018D02*
X36703152Y92670113D01*
X42274580Y89408208D02*
X42322200Y89360589D01*
X42322200Y89360589D02*
X42369819Y89217732D01*
X42369819Y89217732D02*
X42369819Y89122494D01*
X42369819Y89122494D02*
X42322200Y88979637D01*
X42322200Y88979637D02*
X42226961Y88884399D01*
X42226961Y88884399D02*
X42131723Y88836780D01*
X42131723Y88836780D02*
X41941247Y88789161D01*
X41941247Y88789161D02*
X41798390Y88789161D01*
X41798390Y88789161D02*
X41607914Y88836780D01*
X41607914Y88836780D02*
X41512676Y88884399D01*
X41512676Y88884399D02*
X41417438Y88979637D01*
X41417438Y88979637D02*
X41369819Y89122494D01*
X41369819Y89122494D02*
X41369819Y89217732D01*
X41369819Y89217732D02*
X41417438Y89360589D01*
X41417438Y89360589D02*
X41465057Y89408208D01*
X42084104Y89789161D02*
X42084104Y90265351D01*
X42369819Y89693923D02*
X41369819Y90027256D01*
X41369819Y90027256D02*
X42369819Y90360589D01*
X42369819Y90693923D02*
X41369819Y90693923D01*
X41369819Y90693923D02*
X42369819Y91265351D01*
X42369819Y91265351D02*
X41369819Y91265351D01*
X42465057Y91503446D02*
X42465057Y92265351D01*
X42369819Y92979637D02*
X42369819Y92503447D01*
X42369819Y92503447D02*
X41369819Y92503447D01*
D11*
X3627580Y84791354D02*
X3627580Y84172307D01*
X3627580Y84172307D02*
X3246628Y84505640D01*
X3246628Y84505640D02*
X3246628Y84362783D01*
X3246628Y84362783D02*
X3199009Y84267545D01*
X3199009Y84267545D02*
X3151390Y84219926D01*
X3151390Y84219926D02*
X3056152Y84172307D01*
X3056152Y84172307D02*
X2818057Y84172307D01*
X2818057Y84172307D02*
X2722819Y84219926D01*
X2722819Y84219926D02*
X2675200Y84267545D01*
X2675200Y84267545D02*
X2627580Y84362783D01*
X2627580Y84362783D02*
X2627580Y84648497D01*
X2627580Y84648497D02*
X2675200Y84743735D01*
X2675200Y84743735D02*
X2722819Y84791354D01*
X3627580Y83886592D02*
X2627580Y83553259D01*
X2627580Y83553259D02*
X3627580Y83219926D01*
X3627580Y82981830D02*
X3627580Y82362783D01*
X3627580Y82362783D02*
X3246628Y82696116D01*
X3246628Y82696116D02*
X3246628Y82553259D01*
X3246628Y82553259D02*
X3199009Y82458021D01*
X3199009Y82458021D02*
X3151390Y82410402D01*
X3151390Y82410402D02*
X3056152Y82362783D01*
X3056152Y82362783D02*
X2818057Y82362783D01*
X2818057Y82362783D02*
X2722819Y82410402D01*
X2722819Y82410402D02*
X2675200Y82458021D01*
X2675200Y82458021D02*
X2627580Y82553259D01*
X2627580Y82553259D02*
X2627580Y82838973D01*
X2627580Y82838973D02*
X2675200Y82934211D01*
X2675200Y82934211D02*
X2722819Y82981830D01*
D10*
X39774580Y89408208D02*
X39822200Y89360589D01*
X39822200Y89360589D02*
X39869819Y89217732D01*
X39869819Y89217732D02*
X39869819Y89122494D01*
X39869819Y89122494D02*
X39822200Y88979637D01*
X39822200Y88979637D02*
X39726961Y88884399D01*
X39726961Y88884399D02*
X39631723Y88836780D01*
X39631723Y88836780D02*
X39441247Y88789161D01*
X39441247Y88789161D02*
X39298390Y88789161D01*
X39298390Y88789161D02*
X39107914Y88836780D01*
X39107914Y88836780D02*
X39012676Y88884399D01*
X39012676Y88884399D02*
X38917438Y88979637D01*
X38917438Y88979637D02*
X38869819Y89122494D01*
X38869819Y89122494D02*
X38869819Y89217732D01*
X38869819Y89217732D02*
X38917438Y89360589D01*
X38917438Y89360589D02*
X38965057Y89408208D01*
X39584104Y89789161D02*
X39584104Y90265351D01*
X39869819Y89693923D02*
X38869819Y90027256D01*
X38869819Y90027256D02*
X39869819Y90360589D01*
X39869819Y90693923D02*
X38869819Y90693923D01*
X38869819Y90693923D02*
X39869819Y91265351D01*
X39869819Y91265351D02*
X38869819Y91265351D01*
X39965057Y91503446D02*
X39965057Y92265351D01*
X39869819Y92503447D02*
X38869819Y92503447D01*
X39346009Y92503447D02*
X39346009Y93074875D01*
X39869819Y93074875D02*
X38869819Y93074875D01*
D11*
X37208646Y43737525D02*
X37875312Y43737525D01*
X37875312Y43737525D02*
X37446741Y42737525D01*
X38256265Y42832764D02*
X38303884Y42785144D01*
X38303884Y42785144D02*
X38256265Y42737525D01*
X38256265Y42737525D02*
X38208646Y42785144D01*
X38208646Y42785144D02*
X38256265Y42832764D01*
X38256265Y42832764D02*
X38256265Y42737525D01*
X39208645Y43737525D02*
X38732455Y43737525D01*
X38732455Y43737525D02*
X38684836Y43261335D01*
X38684836Y43261335D02*
X38732455Y43308954D01*
X38732455Y43308954D02*
X38827693Y43356573D01*
X38827693Y43356573D02*
X39065788Y43356573D01*
X39065788Y43356573D02*
X39161026Y43308954D01*
X39161026Y43308954D02*
X39208645Y43261335D01*
X39208645Y43261335D02*
X39256264Y43166097D01*
X39256264Y43166097D02*
X39256264Y42928002D01*
X39256264Y42928002D02*
X39208645Y42832764D01*
X39208645Y42832764D02*
X39161026Y42785144D01*
X39161026Y42785144D02*
X39065788Y42737525D01*
X39065788Y42737525D02*
X38827693Y42737525D01*
X38827693Y42737525D02*
X38732455Y42785144D01*
X38732455Y42785144D02*
X38684836Y42832764D01*
X39637217Y43023240D02*
X40113407Y43023240D01*
X39541979Y42737525D02*
X39875312Y43737525D01*
X39875312Y43737525D02*
X40208645Y42737525D01*
X37637217Y41651391D02*
X37303884Y41651391D01*
X37303884Y41127581D02*
X37303884Y42127581D01*
X37303884Y42127581D02*
X37780074Y42127581D01*
X38589598Y41794248D02*
X38589598Y41127581D01*
X38161027Y41794248D02*
X38161027Y41270439D01*
X38161027Y41270439D02*
X38208646Y41175200D01*
X38208646Y41175200D02*
X38303884Y41127581D01*
X38303884Y41127581D02*
X38446741Y41127581D01*
X38446741Y41127581D02*
X38541979Y41175200D01*
X38541979Y41175200D02*
X38589598Y41222820D01*
X39018170Y41175200D02*
X39113408Y41127581D01*
X39113408Y41127581D02*
X39303884Y41127581D01*
X39303884Y41127581D02*
X39399122Y41175200D01*
X39399122Y41175200D02*
X39446741Y41270439D01*
X39446741Y41270439D02*
X39446741Y41318058D01*
X39446741Y41318058D02*
X39399122Y41413296D01*
X39399122Y41413296D02*
X39303884Y41460915D01*
X39303884Y41460915D02*
X39161027Y41460915D01*
X39161027Y41460915D02*
X39065789Y41508534D01*
X39065789Y41508534D02*
X39018170Y41603772D01*
X39018170Y41603772D02*
X39018170Y41651391D01*
X39018170Y41651391D02*
X39065789Y41746629D01*
X39065789Y41746629D02*
X39161027Y41794248D01*
X39161027Y41794248D02*
X39303884Y41794248D01*
X39303884Y41794248D02*
X39399122Y41746629D01*
X40256265Y41175200D02*
X40161027Y41127581D01*
X40161027Y41127581D02*
X39970551Y41127581D01*
X39970551Y41127581D02*
X39875313Y41175200D01*
X39875313Y41175200D02*
X39827694Y41270439D01*
X39827694Y41270439D02*
X39827694Y41651391D01*
X39827694Y41651391D02*
X39875313Y41746629D01*
X39875313Y41746629D02*
X39970551Y41794248D01*
X39970551Y41794248D02*
X40161027Y41794248D01*
X40161027Y41794248D02*
X40256265Y41746629D01*
X40256265Y41746629D02*
X40303884Y41651391D01*
X40303884Y41651391D02*
X40303884Y41556153D01*
X40303884Y41556153D02*
X39827694Y41460915D01*
X45827693Y1579962D02*
X45732455Y1627581D01*
X45732455Y1627581D02*
X45589598Y1627581D01*
X45589598Y1627581D02*
X45446741Y1579962D01*
X45446741Y1579962D02*
X45351503Y1484724D01*
X45351503Y1484724D02*
X45303884Y1389486D01*
X45303884Y1389486D02*
X45256265Y1199010D01*
X45256265Y1199010D02*
X45256265Y1056153D01*
X45256265Y1056153D02*
X45303884Y865677D01*
X45303884Y865677D02*
X45351503Y770439D01*
X45351503Y770439D02*
X45446741Y675200D01*
X45446741Y675200D02*
X45589598Y627581D01*
X45589598Y627581D02*
X45684836Y627581D01*
X45684836Y627581D02*
X45827693Y675200D01*
X45827693Y675200D02*
X45875312Y722820D01*
X45875312Y722820D02*
X45875312Y1056153D01*
X45875312Y1056153D02*
X45684836Y1056153D01*
X46303884Y627581D02*
X46303884Y1627581D01*
X46303884Y1627581D02*
X46875312Y627581D01*
X46875312Y627581D02*
X46875312Y1627581D01*
X47351503Y627581D02*
X47351503Y1627581D01*
X47351503Y1627581D02*
X47589598Y1627581D01*
X47589598Y1627581D02*
X47732455Y1579962D01*
X47732455Y1579962D02*
X47827693Y1484724D01*
X47827693Y1484724D02*
X47875312Y1389486D01*
X47875312Y1389486D02*
X47922931Y1199010D01*
X47922931Y1199010D02*
X47922931Y1056153D01*
X47922931Y1056153D02*
X47875312Y865677D01*
X47875312Y865677D02*
X47827693Y770439D01*
X47827693Y770439D02*
X47732455Y675200D01*
X47732455Y675200D02*
X47589598Y627581D01*
X47589598Y627581D02*
X47351503Y627581D01*
X48113408Y532343D02*
X48875312Y532343D01*
X49303884Y1627581D02*
X49494360Y1627581D01*
X49494360Y1627581D02*
X49589598Y1579962D01*
X49589598Y1579962D02*
X49684836Y1484724D01*
X49684836Y1484724D02*
X49732455Y1294248D01*
X49732455Y1294248D02*
X49732455Y960915D01*
X49732455Y960915D02*
X49684836Y770439D01*
X49684836Y770439D02*
X49589598Y675200D01*
X49589598Y675200D02*
X49494360Y627581D01*
X49494360Y627581D02*
X49303884Y627581D01*
X49303884Y627581D02*
X49208646Y675200D01*
X49208646Y675200D02*
X49113408Y770439D01*
X49113408Y770439D02*
X49065789Y960915D01*
X49065789Y960915D02*
X49065789Y1294248D01*
X49065789Y1294248D02*
X49113408Y1484724D01*
X49113408Y1484724D02*
X49208646Y1579962D01*
X49208646Y1579962D02*
X49303884Y1627581D01*
X50161027Y1627581D02*
X50161027Y818058D01*
X50161027Y818058D02*
X50208646Y722820D01*
X50208646Y722820D02*
X50256265Y675200D01*
X50256265Y675200D02*
X50351503Y627581D01*
X50351503Y627581D02*
X50541979Y627581D01*
X50541979Y627581D02*
X50637217Y675200D01*
X50637217Y675200D02*
X50684836Y722820D01*
X50684836Y722820D02*
X50732455Y818058D01*
X50732455Y818058D02*
X50732455Y1627581D01*
X51065789Y1627581D02*
X51637217Y1627581D01*
X51351503Y627581D02*
X51351503Y1627581D01*
X1637217Y24651391D02*
X1780074Y24603772D01*
X1780074Y24603772D02*
X1827693Y24556153D01*
X1827693Y24556153D02*
X1875312Y24460915D01*
X1875312Y24460915D02*
X1875312Y24318058D01*
X1875312Y24318058D02*
X1827693Y24222820D01*
X1827693Y24222820D02*
X1780074Y24175200D01*
X1780074Y24175200D02*
X1684836Y24127581D01*
X1684836Y24127581D02*
X1303884Y24127581D01*
X1303884Y24127581D02*
X1303884Y25127581D01*
X1303884Y25127581D02*
X1637217Y25127581D01*
X1637217Y25127581D02*
X1732455Y25079962D01*
X1732455Y25079962D02*
X1780074Y25032343D01*
X1780074Y25032343D02*
X1827693Y24937105D01*
X1827693Y24937105D02*
X1827693Y24841867D01*
X1827693Y24841867D02*
X1780074Y24746629D01*
X1780074Y24746629D02*
X1732455Y24699010D01*
X1732455Y24699010D02*
X1637217Y24651391D01*
X1637217Y24651391D02*
X1303884Y24651391D01*
X2256265Y24413296D02*
X2732455Y24413296D01*
X2161027Y24127581D02*
X2494360Y25127581D01*
X2494360Y25127581D02*
X2827693Y24127581D01*
X3018170Y25127581D02*
X3589598Y25127581D01*
X3303884Y24127581D02*
X3303884Y25127581D01*
X3780075Y25127581D02*
X4351503Y25127581D01*
X4065789Y24127581D02*
X4065789Y25127581D01*
X4446742Y24032343D02*
X5208646Y24032343D01*
X5446742Y24127581D02*
X5446742Y25127581D01*
X5922932Y24127581D02*
X5922932Y25127581D01*
X5922932Y25127581D02*
X6494360Y24127581D01*
X6494360Y24127581D02*
X6494360Y25127581D01*
X48637217Y25261335D02*
X48780074Y25213716D01*
X48780074Y25213716D02*
X48827693Y25166097D01*
X48827693Y25166097D02*
X48875312Y25070859D01*
X48875312Y25070859D02*
X48875312Y24928002D01*
X48875312Y24928002D02*
X48827693Y24832764D01*
X48827693Y24832764D02*
X48780074Y24785144D01*
X48780074Y24785144D02*
X48684836Y24737525D01*
X48684836Y24737525D02*
X48303884Y24737525D01*
X48303884Y24737525D02*
X48303884Y25737525D01*
X48303884Y25737525D02*
X48637217Y25737525D01*
X48637217Y25737525D02*
X48732455Y25689906D01*
X48732455Y25689906D02*
X48780074Y25642287D01*
X48780074Y25642287D02*
X48827693Y25547049D01*
X48827693Y25547049D02*
X48827693Y25451811D01*
X48827693Y25451811D02*
X48780074Y25356573D01*
X48780074Y25356573D02*
X48732455Y25308954D01*
X48732455Y25308954D02*
X48637217Y25261335D01*
X48637217Y25261335D02*
X48303884Y25261335D01*
X49256265Y25023240D02*
X49732455Y25023240D01*
X49161027Y24737525D02*
X49494360Y25737525D01*
X49494360Y25737525D02*
X49827693Y24737525D01*
X50018170Y25737525D02*
X50589598Y25737525D01*
X50303884Y24737525D02*
X50303884Y25737525D01*
X50780075Y25737525D02*
X51351503Y25737525D01*
X51065789Y24737525D02*
X51065789Y25737525D01*
X51446742Y24642287D02*
X52208646Y24642287D01*
X52637218Y25737525D02*
X52827694Y25737525D01*
X52827694Y25737525D02*
X52922932Y25689906D01*
X52922932Y25689906D02*
X53018170Y25594668D01*
X53018170Y25594668D02*
X53065789Y25404192D01*
X53065789Y25404192D02*
X53065789Y25070859D01*
X53065789Y25070859D02*
X53018170Y24880383D01*
X53018170Y24880383D02*
X52922932Y24785144D01*
X52922932Y24785144D02*
X52827694Y24737525D01*
X52827694Y24737525D02*
X52637218Y24737525D01*
X52637218Y24737525D02*
X52541980Y24785144D01*
X52541980Y24785144D02*
X52446742Y24880383D01*
X52446742Y24880383D02*
X52399123Y25070859D01*
X52399123Y25070859D02*
X52399123Y25404192D01*
X52399123Y25404192D02*
X52446742Y25594668D01*
X52446742Y25594668D02*
X52541980Y25689906D01*
X52541980Y25689906D02*
X52637218Y25737525D01*
X53494361Y25737525D02*
X53494361Y24928002D01*
X53494361Y24928002D02*
X53541980Y24832764D01*
X53541980Y24832764D02*
X53589599Y24785144D01*
X53589599Y24785144D02*
X53684837Y24737525D01*
X53684837Y24737525D02*
X53875313Y24737525D01*
X53875313Y24737525D02*
X53970551Y24785144D01*
X53970551Y24785144D02*
X54018170Y24832764D01*
X54018170Y24832764D02*
X54065789Y24928002D01*
X54065789Y24928002D02*
X54065789Y25737525D01*
X54399123Y25737525D02*
X54970551Y25737525D01*
X54684837Y24737525D02*
X54684837Y25737525D01*
X63042587Y69303885D02*
X63852110Y69303885D01*
X63852110Y69303885D02*
X63947348Y69351504D01*
X63947348Y69351504D02*
X63994968Y69399123D01*
X63994968Y69399123D02*
X64042587Y69494361D01*
X64042587Y69494361D02*
X64042587Y69684837D01*
X64042587Y69684837D02*
X63994968Y69780075D01*
X63994968Y69780075D02*
X63947348Y69827694D01*
X63947348Y69827694D02*
X63852110Y69875313D01*
X63852110Y69875313D02*
X63042587Y69875313D01*
X63994968Y70303885D02*
X64042587Y70446742D01*
X64042587Y70446742D02*
X64042587Y70684837D01*
X64042587Y70684837D02*
X63994968Y70780075D01*
X63994968Y70780075D02*
X63947348Y70827694D01*
X63947348Y70827694D02*
X63852110Y70875313D01*
X63852110Y70875313D02*
X63756872Y70875313D01*
X63756872Y70875313D02*
X63661634Y70827694D01*
X63661634Y70827694D02*
X63614015Y70780075D01*
X63614015Y70780075D02*
X63566396Y70684837D01*
X63566396Y70684837D02*
X63518777Y70494361D01*
X63518777Y70494361D02*
X63471158Y70399123D01*
X63471158Y70399123D02*
X63423539Y70351504D01*
X63423539Y70351504D02*
X63328301Y70303885D01*
X63328301Y70303885D02*
X63233063Y70303885D01*
X63233063Y70303885D02*
X63137825Y70351504D01*
X63137825Y70351504D02*
X63090206Y70399123D01*
X63090206Y70399123D02*
X63042587Y70494361D01*
X63042587Y70494361D02*
X63042587Y70732456D01*
X63042587Y70732456D02*
X63090206Y70875313D01*
X63518777Y71637218D02*
X63566396Y71780075D01*
X63566396Y71780075D02*
X63614015Y71827694D01*
X63614015Y71827694D02*
X63709253Y71875313D01*
X63709253Y71875313D02*
X63852110Y71875313D01*
X63852110Y71875313D02*
X63947348Y71827694D01*
X63947348Y71827694D02*
X63994968Y71780075D01*
X63994968Y71780075D02*
X64042587Y71684837D01*
X64042587Y71684837D02*
X64042587Y71303885D01*
X64042587Y71303885D02*
X63042587Y71303885D01*
X63042587Y71303885D02*
X63042587Y71637218D01*
X63042587Y71637218D02*
X63090206Y71732456D01*
X63090206Y71732456D02*
X63137825Y71780075D01*
X63137825Y71780075D02*
X63233063Y71827694D01*
X63233063Y71827694D02*
X63328301Y71827694D01*
X63328301Y71827694D02*
X63423539Y71780075D01*
X63423539Y71780075D02*
X63471158Y71732456D01*
X63471158Y71732456D02*
X63518777Y71637218D01*
X63518777Y71637218D02*
X63518777Y71303885D01*
X63661634Y72303885D02*
X63661634Y73065789D01*
X63947348Y74113408D02*
X63994968Y74065789D01*
X63994968Y74065789D02*
X64042587Y73922932D01*
X64042587Y73922932D02*
X64042587Y73827694D01*
X64042587Y73827694D02*
X63994968Y73684837D01*
X63994968Y73684837D02*
X63899729Y73589599D01*
X63899729Y73589599D02*
X63804491Y73541980D01*
X63804491Y73541980D02*
X63614015Y73494361D01*
X63614015Y73494361D02*
X63471158Y73494361D01*
X63471158Y73494361D02*
X63280682Y73541980D01*
X63280682Y73541980D02*
X63185444Y73589599D01*
X63185444Y73589599D02*
X63090206Y73684837D01*
X63090206Y73684837D02*
X63042587Y73827694D01*
X63042587Y73827694D02*
X63042587Y73922932D01*
X63042587Y73922932D02*
X63090206Y74065789D01*
X63090206Y74065789D02*
X63137825Y74113408D01*
X65652531Y69303885D02*
X64652531Y69303885D01*
X64652531Y69303885D02*
X64652531Y69541980D01*
X64652531Y69541980D02*
X64700150Y69684837D01*
X64700150Y69684837D02*
X64795388Y69780075D01*
X64795388Y69780075D02*
X64890626Y69827694D01*
X64890626Y69827694D02*
X65081102Y69875313D01*
X65081102Y69875313D02*
X65223959Y69875313D01*
X65223959Y69875313D02*
X65414435Y69827694D01*
X65414435Y69827694D02*
X65509673Y69780075D01*
X65509673Y69780075D02*
X65604912Y69684837D01*
X65604912Y69684837D02*
X65652531Y69541980D01*
X65652531Y69541980D02*
X65652531Y69303885D01*
X65557292Y70875313D02*
X65604912Y70827694D01*
X65604912Y70827694D02*
X65652531Y70684837D01*
X65652531Y70684837D02*
X65652531Y70589599D01*
X65652531Y70589599D02*
X65604912Y70446742D01*
X65604912Y70446742D02*
X65509673Y70351504D01*
X65509673Y70351504D02*
X65414435Y70303885D01*
X65414435Y70303885D02*
X65223959Y70256266D01*
X65223959Y70256266D02*
X65081102Y70256266D01*
X65081102Y70256266D02*
X64890626Y70303885D01*
X64890626Y70303885D02*
X64795388Y70351504D01*
X64795388Y70351504D02*
X64700150Y70446742D01*
X64700150Y70446742D02*
X64652531Y70589599D01*
X64652531Y70589599D02*
X64652531Y70684837D01*
X64652531Y70684837D02*
X64700150Y70827694D01*
X64700150Y70827694D02*
X64747769Y70875313D01*
X65271578Y71303885D02*
X65271578Y72065789D01*
X64985864Y72541980D02*
X65843007Y72541980D01*
X65843007Y72541980D02*
X65938245Y72494361D01*
X65938245Y72494361D02*
X65985864Y72399123D01*
X65985864Y72399123D02*
X65985864Y72351504D01*
X64652531Y72541980D02*
X64700150Y72494361D01*
X64700150Y72494361D02*
X64747769Y72541980D01*
X64747769Y72541980D02*
X64700150Y72589599D01*
X64700150Y72589599D02*
X64652531Y72541980D01*
X64652531Y72541980D02*
X64747769Y72541980D01*
X65652531Y73446741D02*
X65128721Y73446741D01*
X65128721Y73446741D02*
X65033483Y73399122D01*
X65033483Y73399122D02*
X64985864Y73303884D01*
X64985864Y73303884D02*
X64985864Y73113408D01*
X64985864Y73113408D02*
X65033483Y73018170D01*
X65604912Y73446741D02*
X65652531Y73351503D01*
X65652531Y73351503D02*
X65652531Y73113408D01*
X65652531Y73113408D02*
X65604912Y73018170D01*
X65604912Y73018170D02*
X65509673Y72970551D01*
X65509673Y72970551D02*
X65414435Y72970551D01*
X65414435Y72970551D02*
X65319197Y73018170D01*
X65319197Y73018170D02*
X65271578Y73113408D01*
X65271578Y73113408D02*
X65271578Y73351503D01*
X65271578Y73351503D02*
X65223959Y73446741D01*
X65604912Y74351503D02*
X65652531Y74256265D01*
X65652531Y74256265D02*
X65652531Y74065789D01*
X65652531Y74065789D02*
X65604912Y73970551D01*
X65604912Y73970551D02*
X65557292Y73922932D01*
X65557292Y73922932D02*
X65462054Y73875313D01*
X65462054Y73875313D02*
X65176340Y73875313D01*
X65176340Y73875313D02*
X65081102Y73922932D01*
X65081102Y73922932D02*
X65033483Y73970551D01*
X65033483Y73970551D02*
X64985864Y74065789D01*
X64985864Y74065789D02*
X64985864Y74256265D01*
X64985864Y74256265D02*
X65033483Y74351503D01*
X65652531Y74780075D02*
X64652531Y74780075D01*
X65271578Y74875313D02*
X65652531Y75161027D01*
X64985864Y75161027D02*
X65366816Y74780075D01*
X66405332Y69399123D02*
X66405332Y70161028D01*
X66976760Y69494361D02*
X66976760Y70065789D01*
X67262475Y70113409D02*
X67262475Y70399123D01*
X66214856Y69161028D02*
X67262475Y69161028D01*
X66643427Y69494361D02*
X67071998Y69494361D01*
X66643427Y69494361D02*
X66643427Y70065789D01*
X66643427Y70065789D02*
X66976760Y70065789D01*
X66214856Y69161028D02*
X66214856Y70399123D01*
X66214856Y70399123D02*
X67262475Y70399123D01*
X66310094Y71113408D02*
X66310094Y71780075D01*
X66548189Y71065789D02*
X66548189Y71875313D01*
X66595808Y70637218D02*
X66595808Y70970551D01*
X66786284Y71065789D02*
X66786284Y71875313D01*
X67024379Y70637218D02*
X67024379Y70970551D01*
X67262475Y71399122D02*
X67262475Y71637218D01*
X66214856Y70637218D02*
X67119617Y70637218D01*
X66214856Y70637218D02*
X66214856Y70970551D01*
X66214856Y70970551D02*
X67024379Y70970551D01*
X66119617Y71446741D02*
X66548189Y71446741D01*
X66548189Y71637218D02*
X67262475Y71637218D01*
X66929141Y71161027D02*
X67119617Y71351503D01*
X66262475Y72589598D02*
X66262475Y73303884D01*
X66405332Y72113408D02*
X66405332Y72494360D01*
X66595808Y72541979D02*
X66595808Y73351503D01*
X66786284Y72541979D02*
X66786284Y73351503D01*
X67262475Y72161027D02*
X67262475Y72351503D01*
X66119617Y72351503D02*
X67262475Y72351503D01*
X66119617Y72970550D02*
X66310094Y72970550D01*
X66310094Y73161027D02*
X66548189Y73113408D01*
X66357713Y72780074D02*
X66595808Y72827693D01*
X66595808Y72827693D02*
X67024379Y72684836D01*
X67024379Y72684836D02*
X67262475Y73303884D01*
X66738665Y72494360D02*
X66833903Y72113408D01*
X66786284Y73161027D02*
X67024379Y73065789D01*
X67024379Y73065789D02*
X67119617Y72970550D01*
X67119617Y72970550D02*
X67262475Y72541979D01*
X66262475Y74113407D02*
X66262475Y74827693D01*
X66452951Y74161026D02*
X66452951Y74732455D01*
X66738665Y73589598D02*
X66738665Y74018169D01*
X67262475Y74589598D02*
X67262475Y74827693D01*
X66691046Y73827693D02*
X67262475Y73827693D01*
X66119617Y74446740D02*
X66452951Y74446740D01*
X66786284Y74589598D02*
X67262475Y74589598D01*
X66643427Y74113407D02*
X66643427Y74780074D01*
X66643427Y74780074D02*
X66786284Y74780074D01*
X67119617Y74827693D02*
X67262475Y74827693D01*
X66357713Y73589598D02*
X66500570Y73780074D01*
X66500570Y73780074D02*
X66691046Y73637217D01*
X66833903Y74018169D02*
X67071998Y74018169D01*
X66548189Y73922931D02*
X66786284Y74018169D01*
X66119617Y73780074D02*
X66405332Y73684836D01*
X66262475Y73970550D02*
X66500570Y73780074D01*
X66881522Y73684836D02*
X67119617Y73589598D01*
X66643427Y74113407D02*
X66786284Y74113407D01*
X66833903Y74303883D02*
X67071998Y74303883D01*
X67071998Y74303883D02*
X67262475Y74065788D01*
X67824800Y69161028D02*
X67824800Y70399123D01*
X67967657Y69827694D02*
X68872419Y69827694D01*
X67920038Y69875313D02*
X68348609Y69446742D01*
X68348609Y69446742D02*
X68491466Y69161028D01*
X68158133Y69875313D02*
X68300990Y70256266D01*
X68300990Y70256266D02*
X68491466Y70399123D01*
X67824800Y70637218D02*
X67824800Y71875313D01*
X68539085Y70780075D02*
X68539085Y71351503D01*
X68872419Y71399122D02*
X68872419Y71684837D01*
X68110514Y70780075D02*
X68634323Y70780075D01*
X68110514Y70780075D02*
X68110514Y71351503D01*
X68110514Y71351503D02*
X68539085Y71351503D01*
X67824800Y71684837D02*
X68872419Y71684837D01*
X3151390Y74362783D02*
X3103771Y74219926D01*
X3103771Y74219926D02*
X3056152Y74172307D01*
X3056152Y74172307D02*
X2960914Y74124688D01*
X2960914Y74124688D02*
X2818057Y74124688D01*
X2818057Y74124688D02*
X2722819Y74172307D01*
X2722819Y74172307D02*
X2675200Y74219926D01*
X2675200Y74219926D02*
X2627580Y74315164D01*
X2627580Y74315164D02*
X2627580Y74696116D01*
X2627580Y74696116D02*
X3627580Y74696116D01*
X3627580Y74696116D02*
X3627580Y74362783D01*
X3627580Y74362783D02*
X3579961Y74267545D01*
X3579961Y74267545D02*
X3532342Y74219926D01*
X3532342Y74219926D02*
X3437104Y74172307D01*
X3437104Y74172307D02*
X3341866Y74172307D01*
X3341866Y74172307D02*
X3246628Y74219926D01*
X3246628Y74219926D02*
X3199009Y74267545D01*
X3199009Y74267545D02*
X3151390Y74362783D01*
X3151390Y74362783D02*
X3151390Y74696116D01*
X2913295Y73743735D02*
X2913295Y73267545D01*
X2627580Y73838973D02*
X3627580Y73505640D01*
X3627580Y73505640D02*
X2627580Y73172307D01*
X3627580Y72981830D02*
X3627580Y72410402D01*
X2627580Y72696116D02*
X3627580Y72696116D01*
X3627580Y72219925D02*
X3627580Y71648497D01*
X2627580Y71934211D02*
X3627580Y71934211D01*
D10*
X43917438Y90860589D02*
X43869819Y90765351D01*
X43869819Y90765351D02*
X43869819Y90622494D01*
X43869819Y90622494D02*
X43917438Y90479637D01*
X43917438Y90479637D02*
X44012676Y90384399D01*
X44012676Y90384399D02*
X44107914Y90336780D01*
X44107914Y90336780D02*
X44298390Y90289161D01*
X44298390Y90289161D02*
X44441247Y90289161D01*
X44441247Y90289161D02*
X44631723Y90336780D01*
X44631723Y90336780D02*
X44726961Y90384399D01*
X44726961Y90384399D02*
X44822200Y90479637D01*
X44822200Y90479637D02*
X44869819Y90622494D01*
X44869819Y90622494D02*
X44869819Y90717732D01*
X44869819Y90717732D02*
X44822200Y90860589D01*
X44822200Y90860589D02*
X44774580Y90908208D01*
X44774580Y90908208D02*
X44441247Y90908208D01*
X44441247Y90908208D02*
X44441247Y90717732D01*
X44869819Y91336780D02*
X43869819Y91336780D01*
X43869819Y91336780D02*
X44869819Y91908208D01*
X44869819Y91908208D02*
X43869819Y91908208D01*
X44869819Y92384399D02*
X43869819Y92384399D01*
X43869819Y92384399D02*
X43869819Y92622494D01*
X43869819Y92622494D02*
X43917438Y92765351D01*
X43917438Y92765351D02*
X44012676Y92860589D01*
X44012676Y92860589D02*
X44107914Y92908208D01*
X44107914Y92908208D02*
X44298390Y92955827D01*
X44298390Y92955827D02*
X44441247Y92955827D01*
X44441247Y92955827D02*
X44631723Y92908208D01*
X44631723Y92908208D02*
X44726961Y92860589D01*
X44726961Y92860589D02*
X44822200Y92765351D01*
X44822200Y92765351D02*
X44869819Y92622494D01*
X44869819Y92622494D02*
X44869819Y92384399D01*
D11*
X3627580Y78219926D02*
X3627580Y78696116D01*
X3627580Y78696116D02*
X3151390Y78743735D01*
X3151390Y78743735D02*
X3199009Y78696116D01*
X3199009Y78696116D02*
X3246628Y78600878D01*
X3246628Y78600878D02*
X3246628Y78362783D01*
X3246628Y78362783D02*
X3199009Y78267545D01*
X3199009Y78267545D02*
X3151390Y78219926D01*
X3151390Y78219926D02*
X3056152Y78172307D01*
X3056152Y78172307D02*
X2818057Y78172307D01*
X2818057Y78172307D02*
X2722819Y78219926D01*
X2722819Y78219926D02*
X2675200Y78267545D01*
X2675200Y78267545D02*
X2627580Y78362783D01*
X2627580Y78362783D02*
X2627580Y78600878D01*
X2627580Y78600878D02*
X2675200Y78696116D01*
X2675200Y78696116D02*
X2722819Y78743735D01*
X3627580Y77886592D02*
X2627580Y77553259D01*
X2627580Y77553259D02*
X3627580Y77219926D01*
D10*
X66312969Y88630181D02*
X65836779Y88630181D01*
X65836779Y88630181D02*
X65789160Y88153991D01*
X65789160Y88153991D02*
X65836779Y88201610D01*
X65836779Y88201610D02*
X65932017Y88249229D01*
X65932017Y88249229D02*
X66170112Y88249229D01*
X66170112Y88249229D02*
X66265350Y88201610D01*
X66265350Y88201610D02*
X66312969Y88153991D01*
X66312969Y88153991D02*
X66360588Y88058753D01*
X66360588Y88058753D02*
X66360588Y87820658D01*
X66360588Y87820658D02*
X66312969Y87725420D01*
X66312969Y87725420D02*
X66265350Y87677800D01*
X66265350Y87677800D02*
X66170112Y87630181D01*
X66170112Y87630181D02*
X65932017Y87630181D01*
X65932017Y87630181D02*
X65836779Y87677800D01*
X65836779Y87677800D02*
X65789160Y87725420D01*
X66646303Y88630181D02*
X66979636Y87630181D01*
X66979636Y87630181D02*
X67312969Y88630181D01*
X68074874Y88296848D02*
X68074874Y87630181D01*
X67836779Y88677800D02*
X67598684Y87963515D01*
X67598684Y87963515D02*
X68217731Y87963515D01*
X68551065Y87915896D02*
X69027255Y87915896D01*
X68455827Y87630181D02*
X68789160Y88630181D01*
X68789160Y88630181D02*
X69122493Y87630181D01*
X60369819Y91812970D02*
X60369819Y91336780D01*
X60369819Y91336780D02*
X60846009Y91289161D01*
X60846009Y91289161D02*
X60798390Y91336780D01*
X60798390Y91336780D02*
X60750771Y91432018D01*
X60750771Y91432018D02*
X60750771Y91670113D01*
X60750771Y91670113D02*
X60798390Y91765351D01*
X60798390Y91765351D02*
X60846009Y91812970D01*
X60846009Y91812970D02*
X60941247Y91860589D01*
X60941247Y91860589D02*
X61179342Y91860589D01*
X61179342Y91860589D02*
X61274580Y91812970D01*
X61274580Y91812970D02*
X61322200Y91765351D01*
X61322200Y91765351D02*
X61369819Y91670113D01*
X61369819Y91670113D02*
X61369819Y91432018D01*
X61369819Y91432018D02*
X61322200Y91336780D01*
X61322200Y91336780D02*
X61274580Y91289161D01*
X60369819Y92146304D02*
X61369819Y92479637D01*
X61369819Y92479637D02*
X60369819Y92812970D01*
X60369819Y93051066D02*
X60369819Y93670113D01*
X60369819Y93670113D02*
X60750771Y93336780D01*
X60750771Y93336780D02*
X60750771Y93479637D01*
X60750771Y93479637D02*
X60798390Y93574875D01*
X60798390Y93574875D02*
X60846009Y93622494D01*
X60846009Y93622494D02*
X60941247Y93670113D01*
X60941247Y93670113D02*
X61179342Y93670113D01*
X61179342Y93670113D02*
X61274580Y93622494D01*
X61274580Y93622494D02*
X61322200Y93574875D01*
X61322200Y93574875D02*
X61369819Y93479637D01*
X61369819Y93479637D02*
X61369819Y93193923D01*
X61369819Y93193923D02*
X61322200Y93098685D01*
X61322200Y93098685D02*
X61274580Y93051066D01*
X61084104Y94051066D02*
X61084104Y94527256D01*
X61369819Y93955828D02*
X60369819Y94289161D01*
X60369819Y94289161D02*
X61369819Y94622494D01*
D11*
X7327693Y1579962D02*
X7232455Y1627581D01*
X7232455Y1627581D02*
X7089598Y1627581D01*
X7089598Y1627581D02*
X6946741Y1579962D01*
X6946741Y1579962D02*
X6851503Y1484724D01*
X6851503Y1484724D02*
X6803884Y1389486D01*
X6803884Y1389486D02*
X6756265Y1199010D01*
X6756265Y1199010D02*
X6756265Y1056153D01*
X6756265Y1056153D02*
X6803884Y865677D01*
X6803884Y865677D02*
X6851503Y770439D01*
X6851503Y770439D02*
X6946741Y675200D01*
X6946741Y675200D02*
X7089598Y627581D01*
X7089598Y627581D02*
X7184836Y627581D01*
X7184836Y627581D02*
X7327693Y675200D01*
X7327693Y675200D02*
X7375312Y722820D01*
X7375312Y722820D02*
X7375312Y1056153D01*
X7375312Y1056153D02*
X7184836Y1056153D01*
X7803884Y627581D02*
X7803884Y1627581D01*
X7803884Y1627581D02*
X8375312Y627581D01*
X8375312Y627581D02*
X8375312Y1627581D01*
X8851503Y627581D02*
X8851503Y1627581D01*
X8851503Y1627581D02*
X9089598Y1627581D01*
X9089598Y1627581D02*
X9232455Y1579962D01*
X9232455Y1579962D02*
X9327693Y1484724D01*
X9327693Y1484724D02*
X9375312Y1389486D01*
X9375312Y1389486D02*
X9422931Y1199010D01*
X9422931Y1199010D02*
X9422931Y1056153D01*
X9422931Y1056153D02*
X9375312Y865677D01*
X9375312Y865677D02*
X9327693Y770439D01*
X9327693Y770439D02*
X9232455Y675200D01*
X9232455Y675200D02*
X9089598Y627581D01*
X9089598Y627581D02*
X8851503Y627581D01*
X9613408Y532343D02*
X10375312Y532343D01*
X10613408Y627581D02*
X10613408Y1627581D01*
X11089598Y627581D02*
X11089598Y1627581D01*
X11089598Y1627581D02*
X11661026Y627581D01*
X11661026Y627581D02*
X11661026Y1627581D01*
D12*
X62760237Y84425682D02*
X62760237Y85695682D01*
X64090714Y84546635D02*
X64030238Y84486158D01*
X64030238Y84486158D02*
X63848809Y84425682D01*
X63848809Y84425682D02*
X63727857Y84425682D01*
X63727857Y84425682D02*
X63546428Y84486158D01*
X63546428Y84486158D02*
X63425476Y84607111D01*
X63425476Y84607111D02*
X63364999Y84728063D01*
X63364999Y84728063D02*
X63304523Y84969968D01*
X63304523Y84969968D02*
X63304523Y85151397D01*
X63304523Y85151397D02*
X63364999Y85393301D01*
X63364999Y85393301D02*
X63425476Y85514254D01*
X63425476Y85514254D02*
X63546428Y85635206D01*
X63546428Y85635206D02*
X63727857Y85695682D01*
X63727857Y85695682D02*
X63848809Y85695682D01*
X63848809Y85695682D02*
X64030238Y85635206D01*
X64030238Y85635206D02*
X64090714Y85574730D01*
X64574523Y85574730D02*
X64634999Y85635206D01*
X64634999Y85635206D02*
X64755952Y85695682D01*
X64755952Y85695682D02*
X65058333Y85695682D01*
X65058333Y85695682D02*
X65179285Y85635206D01*
X65179285Y85635206D02*
X65239761Y85574730D01*
X65239761Y85574730D02*
X65300238Y85453778D01*
X65300238Y85453778D02*
X65300238Y85332825D01*
X65300238Y85332825D02*
X65239761Y85151397D01*
X65239761Y85151397D02*
X64514047Y84425682D01*
X64514047Y84425682D02*
X65300238Y84425682D01*
X38029750Y63829093D02*
X37944224Y63829093D01*
X37944224Y63829093D02*
X37773172Y63914620D01*
X37773172Y63914620D02*
X37687645Y64000146D01*
X37687645Y64000146D02*
X37602119Y64171198D01*
X37602119Y64171198D02*
X37602119Y64342251D01*
X37602119Y64342251D02*
X37644882Y64470540D01*
X37644882Y64470540D02*
X37773172Y64684356D01*
X37773172Y64684356D02*
X37901461Y64812645D01*
X37901461Y64812645D02*
X38115277Y64940935D01*
X38115277Y64940935D02*
X38243566Y64983698D01*
X38243566Y64983698D02*
X38414619Y64983698D01*
X38414619Y64983698D02*
X38585671Y64898172D01*
X38585671Y64898172D02*
X38671197Y64812645D01*
X38671197Y64812645D02*
X38756724Y64641593D01*
X38756724Y64641593D02*
X38756724Y64556067D01*
X39654749Y63829093D02*
X39227118Y64256725D01*
X39227118Y64256725D02*
X38756724Y63871857D01*
X38756724Y63871857D02*
X38842250Y63871857D01*
X38842250Y63871857D02*
X38970539Y63829093D01*
X38970539Y63829093D02*
X39184355Y63615278D01*
X39184355Y63615278D02*
X39227118Y63486988D01*
X39227118Y63486988D02*
X39227118Y63401462D01*
X39227118Y63401462D02*
X39184355Y63273173D01*
X39184355Y63273173D02*
X38970539Y63059357D01*
X38970539Y63059357D02*
X38842250Y63016594D01*
X38842250Y63016594D02*
X38756724Y63016594D01*
X38756724Y63016594D02*
X38628434Y63059357D01*
X38628434Y63059357D02*
X38414619Y63273173D01*
X38414619Y63273173D02*
X38371855Y63401462D01*
X38371855Y63401462D02*
X38371855Y63486988D01*
D10*
X31857142Y96640420D02*
X31809523Y96592800D01*
X31809523Y96592800D02*
X31666666Y96545181D01*
X31666666Y96545181D02*
X31571428Y96545181D01*
X31571428Y96545181D02*
X31428571Y96592800D01*
X31428571Y96592800D02*
X31333333Y96688039D01*
X31333333Y96688039D02*
X31285714Y96783277D01*
X31285714Y96783277D02*
X31238095Y96973753D01*
X31238095Y96973753D02*
X31238095Y97116610D01*
X31238095Y97116610D02*
X31285714Y97307086D01*
X31285714Y97307086D02*
X31333333Y97402324D01*
X31333333Y97402324D02*
X31428571Y97497562D01*
X31428571Y97497562D02*
X31571428Y97545181D01*
X31571428Y97545181D02*
X31666666Y97545181D01*
X31666666Y97545181D02*
X31809523Y97497562D01*
X31809523Y97497562D02*
X31857142Y97449943D01*
X32238095Y97449943D02*
X32285714Y97497562D01*
X32285714Y97497562D02*
X32380952Y97545181D01*
X32380952Y97545181D02*
X32619047Y97545181D01*
X32619047Y97545181D02*
X32714285Y97497562D01*
X32714285Y97497562D02*
X32761904Y97449943D01*
X32761904Y97449943D02*
X32809523Y97354705D01*
X32809523Y97354705D02*
X32809523Y97259467D01*
X32809523Y97259467D02*
X32761904Y97116610D01*
X32761904Y97116610D02*
X32190476Y96545181D01*
X32190476Y96545181D02*
X32809523Y96545181D01*
X33190476Y97449943D02*
X33238095Y97497562D01*
X33238095Y97497562D02*
X33333333Y97545181D01*
X33333333Y97545181D02*
X33571428Y97545181D01*
X33571428Y97545181D02*
X33666666Y97497562D01*
X33666666Y97497562D02*
X33714285Y97449943D01*
X33714285Y97449943D02*
X33761904Y97354705D01*
X33761904Y97354705D02*
X33761904Y97259467D01*
X33761904Y97259467D02*
X33714285Y97116610D01*
X33714285Y97116610D02*
X33142857Y96545181D01*
X33142857Y96545181D02*
X33761904Y96545181D01*
X38024819Y45049406D02*
X37024819Y45049406D01*
X37024819Y45049406D02*
X37024819Y45287501D01*
X37024819Y45287501D02*
X37072438Y45430358D01*
X37072438Y45430358D02*
X37167676Y45525596D01*
X37167676Y45525596D02*
X37262914Y45573215D01*
X37262914Y45573215D02*
X37453390Y45620834D01*
X37453390Y45620834D02*
X37596247Y45620834D01*
X37596247Y45620834D02*
X37786723Y45573215D01*
X37786723Y45573215D02*
X37881961Y45525596D01*
X37881961Y45525596D02*
X37977200Y45430358D01*
X37977200Y45430358D02*
X38024819Y45287501D01*
X38024819Y45287501D02*
X38024819Y45049406D01*
X37120057Y46001787D02*
X37072438Y46049406D01*
X37072438Y46049406D02*
X37024819Y46144644D01*
X37024819Y46144644D02*
X37024819Y46382739D01*
X37024819Y46382739D02*
X37072438Y46477977D01*
X37072438Y46477977D02*
X37120057Y46525596D01*
X37120057Y46525596D02*
X37215295Y46573215D01*
X37215295Y46573215D02*
X37310533Y46573215D01*
X37310533Y46573215D02*
X37453390Y46525596D01*
X37453390Y46525596D02*
X38024819Y45954168D01*
X38024819Y45954168D02*
X38024819Y46573215D01*
D12*
X25574318Y63610238D02*
X24304318Y63610238D01*
X25453365Y64940715D02*
X25513842Y64880239D01*
X25513842Y64880239D02*
X25574318Y64698810D01*
X25574318Y64698810D02*
X25574318Y64577858D01*
X25574318Y64577858D02*
X25513842Y64396429D01*
X25513842Y64396429D02*
X25392889Y64275477D01*
X25392889Y64275477D02*
X25271937Y64215000D01*
X25271937Y64215000D02*
X25030032Y64154524D01*
X25030032Y64154524D02*
X24848603Y64154524D01*
X24848603Y64154524D02*
X24606699Y64215000D01*
X24606699Y64215000D02*
X24485746Y64275477D01*
X24485746Y64275477D02*
X24364794Y64396429D01*
X24364794Y64396429D02*
X24304318Y64577858D01*
X24304318Y64577858D02*
X24304318Y64698810D01*
X24304318Y64698810D02*
X24364794Y64880239D01*
X24364794Y64880239D02*
X24425270Y64940715D01*
X25574318Y66150239D02*
X25574318Y65424524D01*
X25574318Y65787381D02*
X24304318Y65787381D01*
X24304318Y65787381D02*
X24485746Y65666429D01*
X24485746Y65666429D02*
X24606699Y65545477D01*
X24606699Y65545477D02*
X24667175Y65424524D01*
D10*
X1686905Y91045181D02*
X1686905Y92045181D01*
X1686905Y92045181D02*
X1925000Y92045181D01*
X1925000Y92045181D02*
X2067857Y91997562D01*
X2067857Y91997562D02*
X2163095Y91902324D01*
X2163095Y91902324D02*
X2210714Y91807086D01*
X2210714Y91807086D02*
X2258333Y91616610D01*
X2258333Y91616610D02*
X2258333Y91473753D01*
X2258333Y91473753D02*
X2210714Y91283277D01*
X2210714Y91283277D02*
X2163095Y91188039D01*
X2163095Y91188039D02*
X2067857Y91092800D01*
X2067857Y91092800D02*
X1925000Y91045181D01*
X1925000Y91045181D02*
X1686905Y91045181D01*
X2591667Y92045181D02*
X3210714Y92045181D01*
X3210714Y92045181D02*
X2877381Y91664229D01*
X2877381Y91664229D02*
X3020238Y91664229D01*
X3020238Y91664229D02*
X3115476Y91616610D01*
X3115476Y91616610D02*
X3163095Y91568991D01*
X3163095Y91568991D02*
X3210714Y91473753D01*
X3210714Y91473753D02*
X3210714Y91235658D01*
X3210714Y91235658D02*
X3163095Y91140420D01*
X3163095Y91140420D02*
X3115476Y91092800D01*
X3115476Y91092800D02*
X3020238Y91045181D01*
X3020238Y91045181D02*
X2734524Y91045181D01*
X2734524Y91045181D02*
X2639286Y91092800D01*
X2639286Y91092800D02*
X2591667Y91140420D01*
X59154819Y16666667D02*
X59869104Y16666667D01*
X59869104Y16666667D02*
X60011961Y16619048D01*
X60011961Y16619048D02*
X60107200Y16523810D01*
X60107200Y16523810D02*
X60154819Y16380953D01*
X60154819Y16380953D02*
X60154819Y16285715D01*
X59488152Y17571429D02*
X60154819Y17571429D01*
X59107200Y17333334D02*
X59821485Y17095239D01*
X59821485Y17095239D02*
X59821485Y17714286D01*
X60799693Y2656483D02*
X60092587Y3363590D01*
X60092587Y3363590D02*
X60260945Y3531949D01*
X60260945Y3531949D02*
X60395632Y3599292D01*
X60395632Y3599292D02*
X60530319Y3599292D01*
X60530319Y3599292D02*
X60631335Y3565620D01*
X60631335Y3565620D02*
X60799693Y3464605D01*
X60799693Y3464605D02*
X60900709Y3363590D01*
X60900709Y3363590D02*
X61001724Y3195231D01*
X61001724Y3195231D02*
X61035396Y3094216D01*
X61035396Y3094216D02*
X61035396Y2959529D01*
X61035396Y2959529D02*
X60968052Y2824842D01*
X60968052Y2824842D02*
X60799693Y2656483D01*
X61136411Y4407414D02*
X60799693Y4070697D01*
X60799693Y4070697D02*
X61102739Y3700307D01*
X61102739Y3700307D02*
X61102739Y3767651D01*
X61102739Y3767651D02*
X61136411Y3868666D01*
X61136411Y3868666D02*
X61304770Y4037025D01*
X61304770Y4037025D02*
X61405785Y4070697D01*
X61405785Y4070697D02*
X61473128Y4070697D01*
X61473128Y4070697D02*
X61574144Y4037025D01*
X61574144Y4037025D02*
X61742502Y3868666D01*
X61742502Y3868666D02*
X61776174Y3767651D01*
X61776174Y3767651D02*
X61776174Y3700307D01*
X61776174Y3700307D02*
X61742502Y3599292D01*
X61742502Y3599292D02*
X61574144Y3430933D01*
X61574144Y3430933D02*
X61473128Y3397262D01*
X61473128Y3397262D02*
X61405785Y3397262D01*
X18666666Y93045181D02*
X18666666Y92330896D01*
X18666666Y92330896D02*
X18619047Y92188039D01*
X18619047Y92188039D02*
X18523809Y92092800D01*
X18523809Y92092800D02*
X18380952Y92045181D01*
X18380952Y92045181D02*
X18285714Y92045181D01*
X19095238Y92949943D02*
X19142857Y92997562D01*
X19142857Y92997562D02*
X19238095Y93045181D01*
X19238095Y93045181D02*
X19476190Y93045181D01*
X19476190Y93045181D02*
X19571428Y92997562D01*
X19571428Y92997562D02*
X19619047Y92949943D01*
X19619047Y92949943D02*
X19666666Y92854705D01*
X19666666Y92854705D02*
X19666666Y92759467D01*
X19666666Y92759467D02*
X19619047Y92616610D01*
X19619047Y92616610D02*
X19047619Y92045181D01*
X19047619Y92045181D02*
X19666666Y92045181D01*
D12*
X54576667Y95920682D02*
X54576667Y95013539D01*
X54576667Y95013539D02*
X54516190Y94832111D01*
X54516190Y94832111D02*
X54395238Y94711158D01*
X54395238Y94711158D02*
X54213809Y94650682D01*
X54213809Y94650682D02*
X54092857Y94650682D01*
X55846667Y94650682D02*
X55120952Y94650682D01*
X55483809Y94650682D02*
X55483809Y95920682D01*
X55483809Y95920682D02*
X55362857Y95739254D01*
X55362857Y95739254D02*
X55241905Y95618301D01*
X55241905Y95618301D02*
X55120952Y95557825D01*
D10*
X5238588Y70431522D02*
X6373847Y70431522D01*
X6373847Y70431522D02*
X6507407Y70498302D01*
X6507407Y70498302D02*
X6574187Y70565082D01*
X6574187Y70565082D02*
X6640966Y70698642D01*
X6640966Y70698642D02*
X6640966Y70965761D01*
X6640966Y70965761D02*
X6574187Y71099321D01*
X6574187Y71099321D02*
X6507407Y71166101D01*
X6507407Y71166101D02*
X6373847Y71232881D01*
X6373847Y71232881D02*
X5238588Y71232881D01*
X6640966Y72635259D02*
X6640966Y71833900D01*
X6640966Y72234580D02*
X5238588Y72234580D01*
X5238588Y72234580D02*
X5438928Y72101020D01*
X5438928Y72101020D02*
X5572488Y71967460D01*
X5572488Y71967460D02*
X5639268Y71833900D01*
D12*
X1953365Y15683572D02*
X2013842Y15623096D01*
X2013842Y15623096D02*
X2074318Y15441667D01*
X2074318Y15441667D02*
X2074318Y15320715D01*
X2074318Y15320715D02*
X2013842Y15139286D01*
X2013842Y15139286D02*
X1892889Y15018334D01*
X1892889Y15018334D02*
X1771937Y14957857D01*
X1771937Y14957857D02*
X1530032Y14897381D01*
X1530032Y14897381D02*
X1348603Y14897381D01*
X1348603Y14897381D02*
X1106699Y14957857D01*
X1106699Y14957857D02*
X985746Y15018334D01*
X985746Y15018334D02*
X864794Y15139286D01*
X864794Y15139286D02*
X804318Y15320715D01*
X804318Y15320715D02*
X804318Y15441667D01*
X804318Y15441667D02*
X864794Y15623096D01*
X864794Y15623096D02*
X925270Y15683572D01*
X2074318Y16893096D02*
X2074318Y16167381D01*
X2074318Y16530238D02*
X804318Y16530238D01*
X804318Y16530238D02*
X985746Y16409286D01*
X985746Y16409286D02*
X1106699Y16288334D01*
X1106699Y16288334D02*
X1167175Y16167381D01*
X804318Y17316429D02*
X804318Y18163096D01*
X804318Y18163096D02*
X2074318Y17618810D01*
X48743275Y9602120D02*
X48743275Y9516594D01*
X48743275Y9516594D02*
X48657749Y9345541D01*
X48657749Y9345541D02*
X48572223Y9260015D01*
X48572223Y9260015D02*
X48401170Y9174489D01*
X48401170Y9174489D02*
X48230118Y9174489D01*
X48230118Y9174489D02*
X48101828Y9217252D01*
X48101828Y9217252D02*
X47888013Y9345541D01*
X47888013Y9345541D02*
X47759723Y9473831D01*
X47759723Y9473831D02*
X47631434Y9687646D01*
X47631434Y9687646D02*
X47588671Y9815936D01*
X47588671Y9815936D02*
X47588671Y9986988D01*
X47588671Y9986988D02*
X47674197Y10158041D01*
X47674197Y10158041D02*
X47759723Y10243567D01*
X47759723Y10243567D02*
X47930776Y10329093D01*
X47930776Y10329093D02*
X48016302Y10329093D01*
X49684064Y10371856D02*
X49170906Y9858699D01*
X49427485Y10115278D02*
X48529460Y11013303D01*
X48529460Y11013303D02*
X48572223Y10799488D01*
X48572223Y10799488D02*
X48572223Y10628435D01*
X48572223Y10628435D02*
X48529460Y10500146D01*
X49555775Y12039618D02*
X49384722Y11868566D01*
X49384722Y11868566D02*
X49341959Y11740277D01*
X49341959Y11740277D02*
X49341959Y11654750D01*
X49341959Y11654750D02*
X49384722Y11440935D01*
X49384722Y11440935D02*
X49513012Y11227119D01*
X49513012Y11227119D02*
X49855117Y10885014D01*
X49855117Y10885014D02*
X49983406Y10842251D01*
X49983406Y10842251D02*
X50068932Y10842251D01*
X50068932Y10842251D02*
X50197222Y10885014D01*
X50197222Y10885014D02*
X50368274Y11056067D01*
X50368274Y11056067D02*
X50411037Y11184356D01*
X50411037Y11184356D02*
X50411037Y11269882D01*
X50411037Y11269882D02*
X50368274Y11398172D01*
X50368274Y11398172D02*
X50154458Y11611987D01*
X50154458Y11611987D02*
X50026169Y11654750D01*
X50026169Y11654750D02*
X49940643Y11654750D01*
X49940643Y11654750D02*
X49812353Y11611987D01*
X49812353Y11611987D02*
X49641301Y11440935D01*
X49641301Y11440935D02*
X49598538Y11312645D01*
X49598538Y11312645D02*
X49598538Y11227119D01*
X49598538Y11227119D02*
X49641301Y11098830D01*
D10*
X20859580Y59833334D02*
X20907200Y59785715D01*
X20907200Y59785715D02*
X20954819Y59642858D01*
X20954819Y59642858D02*
X20954819Y59547620D01*
X20954819Y59547620D02*
X20907200Y59404763D01*
X20907200Y59404763D02*
X20811961Y59309525D01*
X20811961Y59309525D02*
X20716723Y59261906D01*
X20716723Y59261906D02*
X20526247Y59214287D01*
X20526247Y59214287D02*
X20383390Y59214287D01*
X20383390Y59214287D02*
X20192914Y59261906D01*
X20192914Y59261906D02*
X20097676Y59309525D01*
X20097676Y59309525D02*
X20002438Y59404763D01*
X20002438Y59404763D02*
X19954819Y59547620D01*
X19954819Y59547620D02*
X19954819Y59642858D01*
X19954819Y59642858D02*
X20002438Y59785715D01*
X20002438Y59785715D02*
X20050057Y59833334D01*
X20050057Y60214287D02*
X20002438Y60261906D01*
X20002438Y60261906D02*
X19954819Y60357144D01*
X19954819Y60357144D02*
X19954819Y60595239D01*
X19954819Y60595239D02*
X20002438Y60690477D01*
X20002438Y60690477D02*
X20050057Y60738096D01*
X20050057Y60738096D02*
X20145295Y60785715D01*
X20145295Y60785715D02*
X20240533Y60785715D01*
X20240533Y60785715D02*
X20383390Y60738096D01*
X20383390Y60738096D02*
X20954819Y60166668D01*
X20954819Y60166668D02*
X20954819Y60785715D01*
D12*
X53457856Y53925682D02*
X53457856Y55195682D01*
X53457856Y55195682D02*
X53941666Y55195682D01*
X53941666Y55195682D02*
X54062618Y55135206D01*
X54062618Y55135206D02*
X54123095Y55074730D01*
X54123095Y55074730D02*
X54183571Y54953778D01*
X54183571Y54953778D02*
X54183571Y54772349D01*
X54183571Y54772349D02*
X54123095Y54651397D01*
X54123095Y54651397D02*
X54062618Y54590920D01*
X54062618Y54590920D02*
X53941666Y54530444D01*
X53941666Y54530444D02*
X53457856Y54530444D01*
X54667380Y53986158D02*
X54848809Y53925682D01*
X54848809Y53925682D02*
X55151190Y53925682D01*
X55151190Y53925682D02*
X55272142Y53986158D01*
X55272142Y53986158D02*
X55332618Y54046635D01*
X55332618Y54046635D02*
X55393095Y54167587D01*
X55393095Y54167587D02*
X55393095Y54288539D01*
X55393095Y54288539D02*
X55332618Y54409492D01*
X55332618Y54409492D02*
X55272142Y54469968D01*
X55272142Y54469968D02*
X55151190Y54530444D01*
X55151190Y54530444D02*
X54909285Y54590920D01*
X54909285Y54590920D02*
X54788333Y54651397D01*
X54788333Y54651397D02*
X54727856Y54711873D01*
X54727856Y54711873D02*
X54667380Y54832825D01*
X54667380Y54832825D02*
X54667380Y54953778D01*
X54667380Y54953778D02*
X54727856Y55074730D01*
X54727856Y55074730D02*
X54788333Y55135206D01*
X54788333Y55135206D02*
X54909285Y55195682D01*
X54909285Y55195682D02*
X55211666Y55195682D01*
X55211666Y55195682D02*
X55393095Y55135206D01*
X56602619Y53925682D02*
X55876904Y53925682D01*
X56239761Y53925682D02*
X56239761Y55195682D01*
X56239761Y55195682D02*
X56118809Y55014254D01*
X56118809Y55014254D02*
X55997857Y54893301D01*
X55997857Y54893301D02*
X55876904Y54832825D01*
D10*
X5186905Y91045181D02*
X5186905Y92045181D01*
X5186905Y92045181D02*
X5425000Y92045181D01*
X5425000Y92045181D02*
X5567857Y91997562D01*
X5567857Y91997562D02*
X5663095Y91902324D01*
X5663095Y91902324D02*
X5710714Y91807086D01*
X5710714Y91807086D02*
X5758333Y91616610D01*
X5758333Y91616610D02*
X5758333Y91473753D01*
X5758333Y91473753D02*
X5710714Y91283277D01*
X5710714Y91283277D02*
X5663095Y91188039D01*
X5663095Y91188039D02*
X5567857Y91092800D01*
X5567857Y91092800D02*
X5425000Y91045181D01*
X5425000Y91045181D02*
X5186905Y91045181D01*
X6615476Y91711848D02*
X6615476Y91045181D01*
X6377381Y92092800D02*
X6139286Y91378515D01*
X6139286Y91378515D02*
X6758333Y91378515D01*
D12*
X59288333Y73546635D02*
X59227857Y73486158D01*
X59227857Y73486158D02*
X59046428Y73425682D01*
X59046428Y73425682D02*
X58925476Y73425682D01*
X58925476Y73425682D02*
X58744047Y73486158D01*
X58744047Y73486158D02*
X58623095Y73607111D01*
X58623095Y73607111D02*
X58562618Y73728063D01*
X58562618Y73728063D02*
X58502142Y73969968D01*
X58502142Y73969968D02*
X58502142Y74151397D01*
X58502142Y74151397D02*
X58562618Y74393301D01*
X58562618Y74393301D02*
X58623095Y74514254D01*
X58623095Y74514254D02*
X58744047Y74635206D01*
X58744047Y74635206D02*
X58925476Y74695682D01*
X58925476Y74695682D02*
X59046428Y74695682D01*
X59046428Y74695682D02*
X59227857Y74635206D01*
X59227857Y74635206D02*
X59288333Y74574730D01*
X59893095Y73425682D02*
X60134999Y73425682D01*
X60134999Y73425682D02*
X60255952Y73486158D01*
X60255952Y73486158D02*
X60316428Y73546635D01*
X60316428Y73546635D02*
X60437380Y73728063D01*
X60437380Y73728063D02*
X60497857Y73969968D01*
X60497857Y73969968D02*
X60497857Y74453778D01*
X60497857Y74453778D02*
X60437380Y74574730D01*
X60437380Y74574730D02*
X60376904Y74635206D01*
X60376904Y74635206D02*
X60255952Y74695682D01*
X60255952Y74695682D02*
X60014047Y74695682D01*
X60014047Y74695682D02*
X59893095Y74635206D01*
X59893095Y74635206D02*
X59832618Y74574730D01*
X59832618Y74574730D02*
X59772142Y74453778D01*
X59772142Y74453778D02*
X59772142Y74151397D01*
X59772142Y74151397D02*
X59832618Y74030444D01*
X59832618Y74030444D02*
X59893095Y73969968D01*
X59893095Y73969968D02*
X60014047Y73909492D01*
X60014047Y73909492D02*
X60255952Y73909492D01*
X60255952Y73909492D02*
X60376904Y73969968D01*
X60376904Y73969968D02*
X60437380Y74030444D01*
X60437380Y74030444D02*
X60497857Y74151397D01*
D11*
X14957419Y36761906D02*
X13957419Y36761906D01*
X14957419Y37333334D02*
X14385990Y36904763D01*
X13957419Y37333334D02*
X14528847Y36761906D01*
X14957419Y38285715D02*
X14957419Y37714287D01*
X14957419Y38000001D02*
X13957419Y38000001D01*
X13957419Y38000001D02*
X14100276Y37904763D01*
X14100276Y37904763D02*
X14195514Y37809525D01*
X14195514Y37809525D02*
X14243133Y37714287D01*
D10*
X8666666Y99045181D02*
X8666666Y98330896D01*
X8666666Y98330896D02*
X8619047Y98188039D01*
X8619047Y98188039D02*
X8523809Y98092800D01*
X8523809Y98092800D02*
X8380952Y98045181D01*
X8380952Y98045181D02*
X8285714Y98045181D01*
X9619047Y99045181D02*
X9142857Y99045181D01*
X9142857Y99045181D02*
X9095238Y98568991D01*
X9095238Y98568991D02*
X9142857Y98616610D01*
X9142857Y98616610D02*
X9238095Y98664229D01*
X9238095Y98664229D02*
X9476190Y98664229D01*
X9476190Y98664229D02*
X9571428Y98616610D01*
X9571428Y98616610D02*
X9619047Y98568991D01*
X9619047Y98568991D02*
X9666666Y98473753D01*
X9666666Y98473753D02*
X9666666Y98235658D01*
X9666666Y98235658D02*
X9619047Y98140420D01*
X9619047Y98140420D02*
X9571428Y98092800D01*
X9571428Y98092800D02*
X9476190Y98045181D01*
X9476190Y98045181D02*
X9238095Y98045181D01*
X9238095Y98045181D02*
X9142857Y98092800D01*
X9142857Y98092800D02*
X9095238Y98140420D01*
D12*
X28529750Y55329093D02*
X28444224Y55329093D01*
X28444224Y55329093D02*
X28273172Y55414620D01*
X28273172Y55414620D02*
X28187645Y55500146D01*
X28187645Y55500146D02*
X28102119Y55671198D01*
X28102119Y55671198D02*
X28102119Y55842251D01*
X28102119Y55842251D02*
X28144882Y55970540D01*
X28144882Y55970540D02*
X28273172Y56184356D01*
X28273172Y56184356D02*
X28401461Y56312645D01*
X28401461Y56312645D02*
X28615277Y56440935D01*
X28615277Y56440935D02*
X28743566Y56483698D01*
X28743566Y56483698D02*
X28914619Y56483698D01*
X28914619Y56483698D02*
X29085671Y56398172D01*
X29085671Y56398172D02*
X29171197Y56312645D01*
X29171197Y56312645D02*
X29256724Y56141593D01*
X29256724Y56141593D02*
X29256724Y56056067D01*
X29641592Y55842251D02*
X30197512Y55286330D01*
X30197512Y55286330D02*
X29556065Y55243567D01*
X29556065Y55243567D02*
X29684355Y55115278D01*
X29684355Y55115278D02*
X29727118Y54986988D01*
X29727118Y54986988D02*
X29727118Y54901462D01*
X29727118Y54901462D02*
X29684355Y54773173D01*
X29684355Y54773173D02*
X29470539Y54559357D01*
X29470539Y54559357D02*
X29342250Y54516594D01*
X29342250Y54516594D02*
X29256724Y54516594D01*
X29256724Y54516594D02*
X29128434Y54559357D01*
X29128434Y54559357D02*
X28871855Y54815936D01*
X28871855Y54815936D02*
X28829092Y54944225D01*
X28829092Y54944225D02*
X28829092Y55029752D01*
D10*
X29666666Y93045181D02*
X29666666Y92330896D01*
X29666666Y92330896D02*
X29619047Y92188039D01*
X29619047Y92188039D02*
X29523809Y92092800D01*
X29523809Y92092800D02*
X29380952Y92045181D01*
X29380952Y92045181D02*
X29285714Y92045181D01*
X30047619Y93045181D02*
X30666666Y93045181D01*
X30666666Y93045181D02*
X30333333Y92664229D01*
X30333333Y92664229D02*
X30476190Y92664229D01*
X30476190Y92664229D02*
X30571428Y92616610D01*
X30571428Y92616610D02*
X30619047Y92568991D01*
X30619047Y92568991D02*
X30666666Y92473753D01*
X30666666Y92473753D02*
X30666666Y92235658D01*
X30666666Y92235658D02*
X30619047Y92140420D01*
X30619047Y92140420D02*
X30571428Y92092800D01*
X30571428Y92092800D02*
X30476190Y92045181D01*
X30476190Y92045181D02*
X30190476Y92045181D01*
X30190476Y92045181D02*
X30095238Y92092800D01*
X30095238Y92092800D02*
X30047619Y92140420D01*
X65761905Y91045181D02*
X65761905Y92045181D01*
X65761905Y92045181D02*
X66000000Y92045181D01*
X66000000Y92045181D02*
X66142857Y91997562D01*
X66142857Y91997562D02*
X66238095Y91902324D01*
X66238095Y91902324D02*
X66285714Y91807086D01*
X66285714Y91807086D02*
X66333333Y91616610D01*
X66333333Y91616610D02*
X66333333Y91473753D01*
X66333333Y91473753D02*
X66285714Y91283277D01*
X66285714Y91283277D02*
X66238095Y91188039D01*
X66238095Y91188039D02*
X66142857Y91092800D01*
X66142857Y91092800D02*
X66000000Y91045181D01*
X66000000Y91045181D02*
X65761905Y91045181D01*
X67285714Y91045181D02*
X66714286Y91045181D01*
X67000000Y91045181D02*
X67000000Y92045181D01*
X67000000Y92045181D02*
X66904762Y91902324D01*
X66904762Y91902324D02*
X66809524Y91807086D01*
X66809524Y91807086D02*
X66714286Y91759467D01*
X5890338Y65937802D02*
X5890338Y65290036D01*
X5890338Y65290036D02*
X5928442Y65213828D01*
X5928442Y65213828D02*
X5966546Y65175724D01*
X5966546Y65175724D02*
X6042753Y65137621D01*
X6042753Y65137621D02*
X6195169Y65137621D01*
X6195169Y65137621D02*
X6271376Y65175724D01*
X6271376Y65175724D02*
X6309480Y65213828D01*
X6309480Y65213828D02*
X6347584Y65290036D01*
X6347584Y65290036D02*
X6347584Y65937802D01*
X6652415Y65937802D02*
X7147765Y65937802D01*
X7147765Y65937802D02*
X6881038Y65632971D01*
X6881038Y65632971D02*
X6995350Y65632971D01*
X6995350Y65632971D02*
X7071558Y65594867D01*
X7071558Y65594867D02*
X7109661Y65556763D01*
X7109661Y65556763D02*
X7147765Y65480555D01*
X7147765Y65480555D02*
X7147765Y65290036D01*
X7147765Y65290036D02*
X7109661Y65213828D01*
X7109661Y65213828D02*
X7071558Y65175724D01*
X7071558Y65175724D02*
X6995350Y65137621D01*
X6995350Y65137621D02*
X6766727Y65137621D01*
X6766727Y65137621D02*
X6690519Y65175724D01*
X6690519Y65175724D02*
X6652415Y65213828D01*
D12*
X26576667Y47090920D02*
X26153333Y47090920D01*
X26153333Y46425682D02*
X26153333Y47695682D01*
X26153333Y47695682D02*
X26758095Y47695682D01*
X27907143Y46425682D02*
X27181428Y46425682D01*
X27544285Y46425682D02*
X27544285Y47695682D01*
X27544285Y47695682D02*
X27423333Y47514254D01*
X27423333Y47514254D02*
X27302381Y47393301D01*
X27302381Y47393301D02*
X27181428Y47332825D01*
X58288333Y32425682D02*
X57864999Y33030444D01*
X57562618Y32425682D02*
X57562618Y33695682D01*
X57562618Y33695682D02*
X58046428Y33695682D01*
X58046428Y33695682D02*
X58167380Y33635206D01*
X58167380Y33635206D02*
X58227857Y33574730D01*
X58227857Y33574730D02*
X58288333Y33453778D01*
X58288333Y33453778D02*
X58288333Y33272349D01*
X58288333Y33272349D02*
X58227857Y33151397D01*
X58227857Y33151397D02*
X58167380Y33090920D01*
X58167380Y33090920D02*
X58046428Y33030444D01*
X58046428Y33030444D02*
X57562618Y33030444D01*
X59437380Y33695682D02*
X58832618Y33695682D01*
X58832618Y33695682D02*
X58772142Y33090920D01*
X58772142Y33090920D02*
X58832618Y33151397D01*
X58832618Y33151397D02*
X58953571Y33211873D01*
X58953571Y33211873D02*
X59255952Y33211873D01*
X59255952Y33211873D02*
X59376904Y33151397D01*
X59376904Y33151397D02*
X59437380Y33090920D01*
X59437380Y33090920D02*
X59497857Y32969968D01*
X59497857Y32969968D02*
X59497857Y32667587D01*
X59497857Y32667587D02*
X59437380Y32546635D01*
X59437380Y32546635D02*
X59376904Y32486158D01*
X59376904Y32486158D02*
X59255952Y32425682D01*
X59255952Y32425682D02*
X58953571Y32425682D01*
X58953571Y32425682D02*
X58832618Y32486158D01*
X58832618Y32486158D02*
X58772142Y32546635D01*
X35788333Y52925682D02*
X35183571Y52925682D01*
X35183571Y52925682D02*
X35183571Y54195682D01*
X36876905Y52925682D02*
X36151190Y52925682D01*
X36514047Y52925682D02*
X36514047Y54195682D01*
X36514047Y54195682D02*
X36393095Y54014254D01*
X36393095Y54014254D02*
X36272143Y53893301D01*
X36272143Y53893301D02*
X36151190Y53832825D01*
D10*
X61884819Y7857143D02*
X61408628Y7523810D01*
X61884819Y7285715D02*
X60884819Y7285715D01*
X60884819Y7285715D02*
X60884819Y7666667D01*
X60884819Y7666667D02*
X60932438Y7761905D01*
X60932438Y7761905D02*
X60980057Y7809524D01*
X60980057Y7809524D02*
X61075295Y7857143D01*
X61075295Y7857143D02*
X61218152Y7857143D01*
X61218152Y7857143D02*
X61313390Y7809524D01*
X61313390Y7809524D02*
X61361009Y7761905D01*
X61361009Y7761905D02*
X61408628Y7666667D01*
X61408628Y7666667D02*
X61408628Y7285715D01*
X61884819Y8809524D02*
X61884819Y8238096D01*
X61884819Y8523810D02*
X60884819Y8523810D01*
X60884819Y8523810D02*
X61027676Y8428572D01*
X61027676Y8428572D02*
X61122914Y8333334D01*
X61122914Y8333334D02*
X61170533Y8238096D01*
X61218152Y9666667D02*
X61884819Y9666667D01*
X60837200Y9428572D02*
X61551485Y9190477D01*
X61551485Y9190477D02*
X61551485Y9809524D01*
D11*
X54315000Y86300000D02*
X54315000Y84800000D01*
X54315000Y77300000D02*
X54315000Y78800000D01*
X55015000Y76800000D02*
X55015000Y76800000D01*
X55015000Y76700000D02*
X55015000Y76700000D01*
X55215000Y86300000D02*
X54315000Y86300000D01*
X68715000Y86300000D02*
X68715000Y77300000D01*
X68715000Y77300000D02*
X54315000Y77300000D01*
X55015000Y76800000D02*
G75*
G02*
X55015000Y76700000I0J-50000D01*
G01*
X55015000Y76700000D02*
G75*
G02*
X55015000Y76800000I0J50000D01*
G01*
D13*
X765000Y84237500D02*
X765000Y81952500D01*
X765000Y81952500D02*
X2235000Y81952500D01*
X2235000Y81952500D02*
X2235000Y84237500D01*
D14*
X40125000Y63000000D02*
G75*
G02*
X29875000Y63000000I-5125000J0D01*
G01*
X29875000Y63000000D02*
G75*
G02*
X40125000Y63000000I5125000J0D01*
G01*
D13*
X31765000Y94711252D02*
X31765000Y94188748D01*
X33235000Y94711252D02*
X33235000Y94188748D01*
X38265000Y46587500D02*
X38265000Y44302500D01*
X38265000Y44302500D02*
X39735000Y44302500D01*
X39735000Y44302500D02*
X39735000Y46587500D01*
D14*
X21750000Y66600000D02*
X28250000Y66600000D01*
X21750000Y63100000D02*
X21750000Y66600000D01*
X21875000Y60825000D02*
X21875000Y62575000D01*
X28250000Y66600000D02*
X28250000Y63100000D01*
X28250000Y63100000D02*
X21750000Y63100000D01*
D13*
X1337500Y89265000D02*
X3622500Y89265000D01*
X3622500Y90735000D02*
X1337500Y90735000D01*
X3622500Y89265000D02*
X3622500Y90735000D01*
X60850000Y24850000D02*
X60850000Y12000000D01*
X60850000Y12000000D02*
X63400000Y9150000D01*
X63400000Y9150000D02*
X66550000Y9150000D01*
X66550000Y9150000D02*
X69150000Y12000000D01*
X69150000Y24850000D02*
X60850000Y24850000D01*
X69150000Y12000000D02*
X69150000Y24850000D01*
X59217723Y4969670D02*
X60257170Y3930223D01*
X60257170Y3930223D02*
X61872909Y5545962D01*
X60833462Y6585409D02*
X59217723Y4969670D01*
X18150000Y99750000D02*
X18150000Y98500000D01*
X18440000Y99460000D02*
X18440000Y93490000D01*
X18440000Y93490000D02*
X31060000Y93490000D01*
X18450000Y99450000D02*
X18450000Y98700000D01*
X18450000Y98700000D02*
X20250000Y98700000D01*
X18450000Y97200000D02*
X19200000Y97200000D01*
X19200000Y97200000D02*
X19200000Y94250000D01*
X19200000Y94250000D02*
X24750000Y94250000D01*
X19400000Y99750000D02*
X18150000Y99750000D01*
X20250000Y99450000D02*
X18450000Y99450000D01*
X20250000Y98700000D02*
X20250000Y99450000D01*
X21750000Y99450000D02*
X21750000Y98700000D01*
X21750000Y98700000D02*
X27750000Y98700000D01*
X27750000Y99450000D02*
X21750000Y99450000D01*
X27750000Y98700000D02*
X27750000Y99450000D01*
X29250000Y99450000D02*
X29250000Y98700000D01*
X29250000Y98700000D02*
X31050000Y98700000D01*
X30300000Y97200000D02*
X30300000Y94250000D01*
X30300000Y94250000D02*
X24750000Y94250000D01*
X31050000Y99450000D02*
X29250000Y99450000D01*
X31050000Y98700000D02*
X31050000Y99450000D01*
X31050000Y97200000D02*
X30300000Y97200000D01*
X31060000Y99460000D02*
X18440000Y99460000D01*
X31060000Y93490000D02*
X31060000Y99460000D01*
D14*
X50530000Y98950000D02*
X50530000Y97900000D01*
X50530000Y93900000D02*
X50530000Y94900000D01*
D11*
X55500000Y91300000D02*
X55500000Y91300000D01*
X55500000Y91200000D02*
X55500000Y91200000D01*
D14*
X59470000Y98950000D02*
X50530000Y98950000D01*
X59470000Y97900000D02*
X59470000Y98950000D01*
X59470000Y93900000D02*
X59470000Y94900000D01*
D11*
X55500000Y91300000D02*
G75*
G02*
X55500000Y91200000I0J-50000D01*
G01*
X55500000Y91200000D02*
G75*
G02*
X55500000Y91300000I0J50000D01*
G01*
D15*
X595000Y88650000D02*
X50885000Y88650000D01*
X595000Y70110000D02*
X595000Y88650000D01*
X50885000Y88650000D02*
X50885000Y70110000D01*
X50885000Y70110000D02*
X595000Y70110000D01*
D16*
X8160000Y69220000D02*
G75*
G02*
X7760000Y69220000I-200000J0D01*
G01*
X7760000Y69220000D02*
G75*
G02*
X8160000Y69220000I200000J0D01*
G01*
D14*
X12875000Y16500000D02*
G75*
G02*
X125000Y16500000I-6375000J0D01*
G01*
X125000Y16500000D02*
G75*
G02*
X12875000Y16500000I6375000J0D01*
G01*
X59107233Y8232233D02*
G75*
G02*
X46357233Y8232233I-6375000J0D01*
G01*
X46357233Y8232233D02*
G75*
G02*
X59107233Y8232233I6375000J0D01*
G01*
D13*
X19990000Y62865580D02*
X19990000Y62584420D01*
X21010000Y62865580D02*
X21010000Y62584420D01*
D14*
X41420000Y64760000D02*
X41420000Y64760000D01*
X41420000Y64760000D02*
X41420000Y64760000D01*
X41520000Y64760000D02*
X41520000Y64760000D01*
D11*
X43180000Y67200000D02*
X43180000Y41800000D01*
X43180000Y41800000D02*
X68580000Y41800000D01*
X68580000Y67200000D02*
X43180000Y67200000D01*
X68580000Y41800000D02*
X68580000Y67200000D01*
D14*
X41420000Y64760000D02*
G75*
G02*
X41520000Y64760000I50000J0D01*
G01*
X41520000Y64760000D02*
G75*
G02*
X41420000Y64760000I-50000J0D01*
G01*
X41520000Y64760000D02*
G75*
G02*
X41420000Y64760000I-50000J0D01*
G01*
D13*
X4912500Y89265000D02*
X7197500Y89265000D01*
X7197500Y90735000D02*
X4912500Y90735000D01*
X7197500Y89265000D02*
X7197500Y90735000D01*
D14*
X62775000Y72000000D02*
G75*
G02*
X56225000Y72000000I-3275000J0D01*
G01*
X56225000Y72000000D02*
G75*
G02*
X62775000Y72000000I3275000J0D01*
G01*
D11*
X13283000Y10276000D02*
X41985000Y10276000D01*
X41985000Y38978000D01*
X13283000Y38978000D01*
X13283000Y10276000D01*
D13*
X8180000Y95800000D02*
X8780000Y95500000D01*
X8180000Y95200000D02*
X8180000Y95800000D01*
X8780000Y95500000D02*
X8180000Y95200000D01*
X8980000Y97610000D02*
X10180000Y97610000D01*
X8980000Y90590000D02*
X8980000Y97610000D01*
X10180000Y99310000D02*
X15860000Y99310000D01*
X10180000Y97610000D02*
X10180000Y99310000D01*
X15860000Y99310000D02*
X15860000Y97610000D01*
X15860000Y97610000D02*
X17060000Y97610000D01*
X17060000Y97610000D02*
X17060000Y90590000D01*
X17060000Y90590000D02*
X8980000Y90590000D01*
X765000Y74087500D02*
X765000Y71802500D01*
X765000Y71802500D02*
X2235000Y71802500D01*
X2235000Y71802500D02*
X2235000Y74087500D01*
D14*
X30857233Y54767767D02*
G75*
G02*
X20607233Y54767767I-5125000J0D01*
G01*
X20607233Y54767767D02*
G75*
G02*
X30857233Y54767767I5125000J0D01*
G01*
D13*
X34150000Y99750000D02*
X34150000Y98500000D01*
X34440000Y99460000D02*
X34440000Y93490000D01*
X34440000Y93490000D02*
X47060000Y93490000D01*
X34450000Y99450000D02*
X34450000Y98700000D01*
X34450000Y98700000D02*
X36250000Y98700000D01*
X34450000Y97200000D02*
X35200000Y97200000D01*
X35200000Y97200000D02*
X35200000Y94250000D01*
X35200000Y94250000D02*
X40750000Y94250000D01*
X35400000Y99750000D02*
X34150000Y99750000D01*
X36250000Y99450000D02*
X34450000Y99450000D01*
X36250000Y98700000D02*
X36250000Y99450000D01*
X37750000Y99450000D02*
X37750000Y98700000D01*
X37750000Y98700000D02*
X43750000Y98700000D01*
X43750000Y99450000D02*
X37750000Y99450000D01*
X43750000Y98700000D02*
X43750000Y99450000D01*
X45250000Y99450000D02*
X45250000Y98700000D01*
X45250000Y98700000D02*
X47050000Y98700000D01*
X46300000Y97200000D02*
X46300000Y94250000D01*
X46300000Y94250000D02*
X40750000Y94250000D01*
X47050000Y99450000D02*
X45250000Y99450000D01*
X47050000Y98700000D02*
X47050000Y99450000D01*
X47050000Y97200000D02*
X46300000Y97200000D01*
X47060000Y99460000D02*
X34440000Y99460000D01*
X47060000Y93490000D02*
X47060000Y99460000D01*
X62412500Y90765000D02*
X64697500Y90765000D01*
X64697500Y92235000D02*
X62412500Y92235000D01*
X64697500Y90765000D02*
X64697500Y92235000D01*
D15*
X3500000Y63800000D02*
X3500000Y44860000D01*
X7640000Y63800000D02*
X3500000Y63800000D01*
X17500000Y63800000D02*
X13360000Y63800000D01*
X17500000Y44840000D02*
X17500000Y63800000D01*
D17*
X14020000Y64500000D02*
G75*
G02*
X13780000Y64500000I-120000J0D01*
G01*
X13780000Y64500000D02*
G75*
G02*
X14020000Y64500000I120000J0D01*
G01*
D13*
X765000Y79087500D02*
X765000Y76802500D01*
X765000Y76802500D02*
X2235000Y76802500D01*
X2235000Y76802500D02*
X2235000Y79087500D01*
D11*
X21900000Y48425000D02*
X36100000Y48425000D01*
X21900000Y40975000D02*
X21900000Y48425000D01*
X36100000Y48425000D02*
X36100000Y40975000D01*
X36100000Y40975000D02*
X21900000Y40975000D01*
X47950000Y31095000D02*
X47950000Y31095000D01*
X48050000Y31095000D02*
X48050000Y31095000D01*
D14*
X48500000Y39500000D02*
X68500000Y39500000D01*
X48500000Y26500000D02*
X48500000Y39500000D01*
X68500000Y39500000D02*
X68500000Y26500000D01*
X68500000Y26500000D02*
X48500000Y26500000D01*
D11*
X47950000Y31095000D02*
G75*
G02*
X48050000Y31095000I50000J0D01*
G01*
X48050000Y31095000D02*
G75*
G02*
X47950000Y31095000I-50000J0D01*
G01*
X32300000Y53500000D02*
X32300000Y53500000D01*
X32400000Y53500000D02*
X32400000Y53500000D01*
D14*
X35000000Y56500000D02*
X37000000Y56500000D01*
X35000000Y50500000D02*
X37000000Y50500000D01*
D11*
X32300000Y53500000D02*
G75*
G02*
X32400000Y53500000I50000J0D01*
G01*
X32400000Y53500000D02*
G75*
G02*
X32300000Y53500000I-50000J0D01*
G01*
D13*
X59477500Y8562258D02*
X59477500Y8087742D01*
X60522500Y8562258D02*
X60522500Y8087742D01*
M02*
